<?xml version="1.0" standalone="no"?>
 <!DOCTYPE svg PUBLIC "-//W3C//DTD SVG 1.1//EN" 
 "http://www.w3.org/Graphics/SVG/1.1/DTD/svg11.dtd"> 
<svg xmlns="http://www.w3.org/2000/svg" version="1.1" 
    width="41.9989cm" height="29.7002cm" viewBox="0 0 165350 116930 ">
<title>SVG Picture created as PRKL30-Edge_Cuts.svg date 2020/08/02 15:04:57 </title>
  <desc>Picture generated by PCBNEW </desc>
<g style="fill:#000000; fill-opacity:1;stroke:#000000; stroke-opacity:1;
stroke-linecap:round; stroke-linejoin:round; "
 transform="translate(0 0) scale(1 1)">
</g>
<g style="fill:#000000; fill-opacity:0.0; 
stroke:#000000; stroke-width:-0.000393701; stroke-opacity:1; 
stroke-linecap:round; stroke-linejoin:round;">
</g>
<g style="fill:#000000; fill-opacity:0.0; 
stroke:#000000; stroke-width:59.0551; stroke-opacity:1; 
stroke-linecap:round; stroke-linejoin:round;">
<path d="M34543.3 22500 A393.701 393.701 0.0 0 0 34937 22106.3 " />
<path d="M21015.7 22496.1 A393.701 393.701 0.0 0 0 20622 22889.8 " />
<path d="M109862 21193
L113208 21193
" />
<path d="M113287 22500
L113287 21272
" />
<path d="M109783 22500
L109783 21276
" />
<path d="M109862 21193.9 A78.7402 78.7402 0.0 0 0 109784 21276.6 " />
<path d="M113287 21272.7 A78.7402 78.7402 0.0 0 0 113209 21193.9 " />
<path d="M120562 45000
L21011 44999
" />
<path d="M20622 44606
L20622 22889
" />
<path d="M21015 22496
L34543 22500
" />
<path d="M34937 22106
L34937 20893
" />
<path d="M43933 22106
L43933 20895
" />
<path d="M35330 20500
L43539 20503
" />
<path d="M44326 22500
L109783 22500
" />
<path d="M113287 22500
L120551 22500
" />
<path d="M120944 22893
L120956 44606
" />
<path d="M120563 45000 A393.701 393.701 0.0 0 0 120957 44606.3 " />
<path d="M20622 44606.3 A393.701 393.701 0.0 0 0 21011.8 45000 " />
<path d="M43933.1 22106.3 A393.701 393.701 0.0 0 0 44326.8 22500 " />
<path d="M43933.1 20895.7 A393.706 393.706 0.0 0 0 43539.4 20503.9 " />
<path d="M35330.7 20500 A393.701 393.701 0.0 0 0 34937 20893.7 " />
<path d="M120945 22893.7 A393.701 393.701 0.0 0 0 120551 22500 " />
<g >
</g>
<g >
</g>
<g >
</g>
<g >
</g>
<g >
</g>
<g >
</g>
<g >
</g>
<g >
</g>
<g >
</g>
<g >
</g>
<g >
</g>
<g >
</g>
<g >
</g>
<g >
</g>
<g >
</g>
<g >
</g>
<g >
</g>
<g >
</g>
<g >
</g>
<g >
</g>
<g >
</g>
<g >
</g>
<g >
</g>
<g >
</g>
<g >
</g>
<g >
</g>
<g >
</g>
<g >
</g>
<g >
</g>
<g >
</g>
<g >
</g>
<g >
</g>
<g >
</g>
<g >
</g>
<g >
</g>
<g >
</g>
<g >
</g>
<g >
</g>
<g >
</g>
<g >
</g>
<g >
</g>
<g >
</g>
<g >
</g>
<g >
</g>
<g >
</g>
<g >
</g>
<g >
</g>
<g >
</g>
<g >
</g>
<g >
</g>
<g >
</g>
<g >
</g>
<g >
</g>
<g >
</g>
<g >
</g>
<g >
</g>
<g >
</g>
<g >
</g>
<g >
</g>
<g >
</g>
<g >
</g>
<g >
</g>
<g >
</g>
<g >
</g>
<g >
</g>
<g >
</g>
<g >
</g>
<g >
</g>
<g >
</g>
<g >
</g>
<g >
</g>
<g >
</g>
<g >
</g>
<g >
</g>
<g >
</g>
<g >
</g>
<g >
</g>
<g >
</g>
<g >
</g>
<g >
</g>
<g >
</g>
<g >
</g>
<g >
</g>
<g >
</g>
<g >
</g>
<g >
</g>
<g >
</g>
<g >
</g>
<g >
</g>
<g >
</g>
<g >
</g>
<g >
</g>
<g >
</g>
<g >
</g>
<g >
</g>
<g >
</g>
<g >
</g>
</g> 
</svg>
