G04 #@! TF.GenerationSoftware,KiCad,Pcbnew,(5.1.5)-3*
G04 #@! TF.CreationDate,2020-01-08T01:13:47+02:00*
G04 #@! TF.ProjectId,PRKL30,50524b4c-3330-42e6-9b69-6361645f7063,rev?*
G04 #@! TF.SameCoordinates,Original*
G04 #@! TF.FileFunction,Other,Fab,Bot*
%FSLAX46Y46*%
G04 Gerber Fmt 4.6, Leading zero omitted, Abs format (unit mm)*
G04 Created by KiCad (PCBNEW (5.1.5)-3) date 2020-01-08 01:13:47*
%MOMM*%
%LPD*%
G04 APERTURE LIST*
%ADD10C,0.100000*%
%ADD11C,0.150000*%
G04 APERTURE END LIST*
D10*
X149700000Y-80000000D02*
X149200000Y-80000000D01*
X145500000Y-80000000D02*
X146000000Y-80000000D01*
X149700000Y-73600000D02*
X149200000Y-73600000D01*
X145500000Y-73600000D02*
X146000000Y-73600000D01*
X145500000Y-79500000D02*
X146000000Y-79500000D01*
X145500000Y-78500000D02*
X145500000Y-80000000D01*
X146000000Y-80000000D02*
X146000000Y-79000000D01*
X145500000Y-74100000D02*
X146000000Y-74100000D01*
X145500000Y-75100000D02*
X145500000Y-73600000D01*
X146000000Y-73600000D02*
X146000000Y-74600000D01*
X149700000Y-74100000D02*
X149200000Y-74100000D01*
X149200000Y-73600000D02*
X149200000Y-74600000D01*
X149700000Y-75100000D02*
X149700000Y-73600000D01*
X149700000Y-78500000D02*
X149700000Y-80000000D01*
X149700000Y-79500000D02*
X149200000Y-79500000D01*
X149200000Y-80000000D02*
X149200000Y-79000000D01*
X146600000Y-74800000D02*
X145600000Y-75800000D01*
X145600000Y-75800000D02*
X145600000Y-77800000D01*
X145600000Y-77800000D02*
X146600000Y-78800000D01*
X146600000Y-78800000D02*
X148600000Y-78800000D01*
X148600000Y-78800000D02*
X149600000Y-77800000D01*
X149600000Y-77800000D02*
X149600000Y-75800000D01*
X149600000Y-75800000D02*
X148600000Y-74800000D01*
X148600000Y-74800000D02*
X146600000Y-74800000D01*
X146400000Y-74200000D02*
X148800000Y-74200000D01*
X148800000Y-74200000D02*
X150200000Y-75600000D01*
X150200000Y-75600000D02*
X150200000Y-78000000D01*
X150200000Y-78000000D02*
X148800000Y-79400000D01*
X148800000Y-79400000D02*
X146400000Y-79400000D01*
X146400000Y-79400000D02*
X145000000Y-78000000D01*
X145000000Y-78000000D02*
X145000000Y-75600000D01*
X145000000Y-75600000D02*
X146400000Y-74200000D01*
X148600000Y-76800000D02*
G75*
G03X148600000Y-76800000I-1000000J0D01*
G01*
X281900000Y-56350000D02*
X281900000Y-55050000D01*
X281900000Y-55050000D02*
X282100000Y-54850000D01*
X282100000Y-54850000D02*
X282950000Y-54850000D01*
X282950000Y-54850000D02*
X283150000Y-55050000D01*
X283150000Y-55050000D02*
X283200000Y-55100000D01*
X283200000Y-55100000D02*
X283200000Y-56400000D01*
X279950000Y-59000000D02*
X279950000Y-56400000D01*
X279950000Y-56400000D02*
X286650000Y-56400000D01*
X286650000Y-56400000D02*
X286650000Y-59000000D01*
X286650000Y-59000000D02*
X279950000Y-59000000D01*
D11*
X151754761Y-73538095D02*
X151802380Y-73680952D01*
X151802380Y-73919047D01*
X151754761Y-74014285D01*
X151707142Y-74061904D01*
X151611904Y-74109523D01*
X151516666Y-74109523D01*
X151421428Y-74061904D01*
X151373809Y-74014285D01*
X151326190Y-73919047D01*
X151278571Y-73728571D01*
X151230952Y-73633333D01*
X151183333Y-73585714D01*
X151088095Y-73538095D01*
X150992857Y-73538095D01*
X150897619Y-73585714D01*
X150850000Y-73633333D01*
X150802380Y-73728571D01*
X150802380Y-73966666D01*
X150850000Y-74109523D01*
X150802380Y-74442857D02*
X151802380Y-74680952D01*
X151088095Y-74871428D01*
X151802380Y-75061904D01*
X150802380Y-75300000D01*
X151897619Y-75442857D02*
X151897619Y-76204761D01*
X151802380Y-76442857D02*
X150802380Y-76442857D01*
X150802380Y-76823809D01*
X150850000Y-76919047D01*
X150897619Y-76966666D01*
X150992857Y-77014285D01*
X151135714Y-77014285D01*
X151230952Y-76966666D01*
X151278571Y-76919047D01*
X151326190Y-76823809D01*
X151326190Y-76442857D01*
X150802380Y-77442857D02*
X151611904Y-77442857D01*
X151707142Y-77490476D01*
X151754761Y-77538095D01*
X151802380Y-77633333D01*
X151802380Y-77823809D01*
X151754761Y-77919047D01*
X151707142Y-77966666D01*
X151611904Y-78014285D01*
X150802380Y-78014285D01*
X151754761Y-78442857D02*
X151802380Y-78585714D01*
X151802380Y-78823809D01*
X151754761Y-78919047D01*
X151707142Y-78966666D01*
X151611904Y-79014285D01*
X151516666Y-79014285D01*
X151421428Y-78966666D01*
X151373809Y-78919047D01*
X151326190Y-78823809D01*
X151278571Y-78633333D01*
X151230952Y-78538095D01*
X151183333Y-78490476D01*
X151088095Y-78442857D01*
X150992857Y-78442857D01*
X150897619Y-78490476D01*
X150850000Y-78538095D01*
X150802380Y-78633333D01*
X150802380Y-78871428D01*
X150850000Y-79014285D01*
X151802380Y-79442857D02*
X150802380Y-79442857D01*
X151278571Y-79442857D02*
X151278571Y-80014285D01*
X151802380Y-80014285D02*
X150802380Y-80014285D01*
X144254761Y-73728571D02*
X144302380Y-73871428D01*
X144302380Y-74109523D01*
X144254761Y-74204761D01*
X144207142Y-74252380D01*
X144111904Y-74300000D01*
X144016666Y-74300000D01*
X143921428Y-74252380D01*
X143873809Y-74204761D01*
X143826190Y-74109523D01*
X143778571Y-73919047D01*
X143730952Y-73823809D01*
X143683333Y-73776190D01*
X143588095Y-73728571D01*
X143492857Y-73728571D01*
X143397619Y-73776190D01*
X143350000Y-73823809D01*
X143302380Y-73919047D01*
X143302380Y-74157142D01*
X143350000Y-74300000D01*
X143302380Y-74633333D02*
X144302380Y-74871428D01*
X143588095Y-75061904D01*
X144302380Y-75252380D01*
X143302380Y-75490476D01*
X144397619Y-75633333D02*
X144397619Y-76395238D01*
X144302380Y-77204761D02*
X143826190Y-76871428D01*
X144302380Y-76633333D02*
X143302380Y-76633333D01*
X143302380Y-77014285D01*
X143350000Y-77109523D01*
X143397619Y-77157142D01*
X143492857Y-77204761D01*
X143635714Y-77204761D01*
X143730952Y-77157142D01*
X143778571Y-77109523D01*
X143826190Y-77014285D01*
X143826190Y-76633333D01*
X144254761Y-77585714D02*
X144302380Y-77728571D01*
X144302380Y-77966666D01*
X144254761Y-78061904D01*
X144207142Y-78109523D01*
X144111904Y-78157142D01*
X144016666Y-78157142D01*
X143921428Y-78109523D01*
X143873809Y-78061904D01*
X143826190Y-77966666D01*
X143778571Y-77776190D01*
X143730952Y-77680952D01*
X143683333Y-77633333D01*
X143588095Y-77585714D01*
X143492857Y-77585714D01*
X143397619Y-77633333D01*
X143350000Y-77680952D01*
X143302380Y-77776190D01*
X143302380Y-78014285D01*
X143350000Y-78157142D01*
X143302380Y-78442857D02*
X143302380Y-79014285D01*
X144302380Y-78728571D02*
X143302380Y-78728571D01*
X144302380Y-79871428D02*
X144302380Y-79300000D01*
X144302380Y-79585714D02*
X143302380Y-79585714D01*
X143445238Y-79490476D01*
X143540476Y-79395238D01*
X143588095Y-79300000D01*
X286395238Y-54154761D02*
X286252380Y-54202380D01*
X286014285Y-54202380D01*
X285919047Y-54154761D01*
X285871428Y-54107142D01*
X285823809Y-54011904D01*
X285823809Y-53916666D01*
X285871428Y-53821428D01*
X285919047Y-53773809D01*
X286014285Y-53726190D01*
X286204761Y-53678571D01*
X286300000Y-53630952D01*
X286347619Y-53583333D01*
X286395238Y-53488095D01*
X286395238Y-53392857D01*
X286347619Y-53297619D01*
X286300000Y-53250000D01*
X286204761Y-53202380D01*
X285966666Y-53202380D01*
X285823809Y-53250000D01*
X285490476Y-53202380D02*
X285252380Y-54202380D01*
X285061904Y-53488095D01*
X284871428Y-54202380D01*
X284633333Y-53202380D01*
X284490476Y-54297619D02*
X283728571Y-54297619D01*
X283538095Y-54154761D02*
X283395238Y-54202380D01*
X283157142Y-54202380D01*
X283061904Y-54154761D01*
X283014285Y-54107142D01*
X282966666Y-54011904D01*
X282966666Y-53916666D01*
X283014285Y-53821428D01*
X283061904Y-53773809D01*
X283157142Y-53726190D01*
X283347619Y-53678571D01*
X283442857Y-53630952D01*
X283490476Y-53583333D01*
X283538095Y-53488095D01*
X283538095Y-53392857D01*
X283490476Y-53297619D01*
X283442857Y-53250000D01*
X283347619Y-53202380D01*
X283109523Y-53202380D01*
X282966666Y-53250000D01*
X282538095Y-54202380D02*
X282538095Y-53202380D01*
X282157142Y-53202380D01*
X282061904Y-53250000D01*
X282014285Y-53297619D01*
X281966666Y-53392857D01*
X281966666Y-53535714D01*
X282014285Y-53630952D01*
X282061904Y-53678571D01*
X282157142Y-53726190D01*
X282538095Y-53726190D01*
X281538095Y-54202380D02*
X281538095Y-53202380D01*
X281300000Y-53202380D01*
X281157142Y-53250000D01*
X281061904Y-53345238D01*
X281014285Y-53440476D01*
X280966666Y-53630952D01*
X280966666Y-53773809D01*
X281014285Y-53964285D01*
X281061904Y-54059523D01*
X281157142Y-54154761D01*
X281300000Y-54202380D01*
X281538095Y-54202380D01*
X280680952Y-53202380D02*
X280109523Y-53202380D01*
X280395238Y-54202380D02*
X280395238Y-53202380D01*
X284633333Y-61604761D02*
X284490476Y-61652380D01*
X284252380Y-61652380D01*
X284157142Y-61604761D01*
X284109523Y-61557142D01*
X284061904Y-61461904D01*
X284061904Y-61366666D01*
X284109523Y-61271428D01*
X284157142Y-61223809D01*
X284252380Y-61176190D01*
X284442857Y-61128571D01*
X284538095Y-61080952D01*
X284585714Y-61033333D01*
X284633333Y-60938095D01*
X284633333Y-60842857D01*
X284585714Y-60747619D01*
X284538095Y-60700000D01*
X284442857Y-60652380D01*
X284204761Y-60652380D01*
X284061904Y-60700000D01*
X283728571Y-60652380D02*
X283490476Y-61652380D01*
X283300000Y-60938095D01*
X283109523Y-61652380D01*
X282871428Y-60652380D01*
X282538095Y-60747619D02*
X282490476Y-60700000D01*
X282395238Y-60652380D01*
X282157142Y-60652380D01*
X282061904Y-60700000D01*
X282014285Y-60747619D01*
X281966666Y-60842857D01*
X281966666Y-60938095D01*
X282014285Y-61080952D01*
X282585714Y-61652380D01*
X281966666Y-61652380D01*
M02*
