<?xml version="1.0" standalone="no"?>
 <!DOCTYPE svg PUBLIC "-//W3C//DTD SVG 1.1//EN" 
 "http://www.w3.org/Graphics/SVG/1.1/DTD/svg11.dtd"> 
<svg xmlns="http://www.w3.org/2000/svg" version="1.1" 
    width="41.9989cm" height="29.7002cm" viewBox="0 0 165350 116930 ">
<title>SVG Picture created as PRKL30-F_SilkS.svg date 2020/08/02 15:04:57 </title>
  <desc>Picture generated by PCBNEW </desc>
<g style="fill:#000000; fill-opacity:1;stroke:#000000; stroke-opacity:1;
stroke-linecap:round; stroke-linejoin:round; "
 transform="translate(0 0) scale(1 1)">
</g>
<g style="fill:#000000; fill-opacity:0.0; 
stroke:#000000; stroke-width:-0.000393701; stroke-opacity:1; 
stroke-linecap:round; stroke-linejoin:round;">
</g>
<g style="fill:#000000; fill-opacity:0.0; 
stroke:#000000; stroke-width:47.2441; stroke-opacity:1; 
stroke-linecap:round; stroke-linejoin:round;">
<path d="M24178 26250
L24571 26250
" />
<path d="M24375 26446
L24375 26053
" />
</g>
<g style="fill:#000000; fill-opacity:0.0; 
stroke:#000000; stroke-width:59.0551; stroke-opacity:1; 
stroke-linecap:round; stroke-linejoin:round;">
<text x="28118.1" y="28944.9"
textLength="1576.58" font-size="524.934" lengthAdjust="spacingAndGlyphs"
text-anchor="middle" opacity="0">M2_1</text>
<path d="M27461 28926
L27461 28532
L27593 28813
L27724 28532
L27724 28926
" />
<path d="M27893 28569
L27911 28551
L27949 28532
L28043 28532
L28080 28551
L28099 28569
L28118 28607
L28118 28644
L28099 28701
L27874 28926
L28118 28926
" />
<path d="M28193 28963
L28493 28963
" />
<path d="M28793 28926
L28568 28926
" />
<path d="M28680 28926
L28680 28532
L28643 28588
L28605 28626
L28568 28644
" />
<text x="50600.8" y="28376.4"
textLength="1576.58" font-size="524.934" lengthAdjust="spacingAndGlyphs"
text-anchor="middle" opacity="0">M2_3</text>
<path d="M49944 28357
L49944 27963
L50075 28245
L50207 27963
L50207 28357
" />
<path d="M50375 28001
L50394 27982
L50432 27963
L50525 27963
L50563 27982
L50582 28001
L50600 28038
L50600 28076
L50582 28132
L50357 28357
L50600 28357
" />
<path d="M50675 28395
L50975 28395
" />
<path d="M51031 27963
L51275 27963
L51144 28113
L51200 28113
L51238 28132
L51256 28151
L51275 28188
L51275 28282
L51256 28320
L51238 28338
L51200 28357
L51088 28357
L51050 28338
L51031 28320
" />
<text x="35610.2" y="41141.7"
textLength="1576.58" font-size="524.934" lengthAdjust="spacingAndGlyphs"
text-anchor="middle" opacity="0">M2_2</text>
<path d="M34954 41122
L34954 40729
L35085 41010
L35216 40729
L35216 41122
" />
<path d="M35385 40766
L35404 40748
L35441 40729
L35535 40729
L35572 40748
L35591 40766
L35610 40804
L35610 40841
L35591 40898
L35366 41122
L35610 41122
" />
<path d="M35685 41160
L35985 41160
" />
<path d="M36060 40766
L36078 40748
L36116 40729
L36210 40729
L36247 40748
L36266 40766
L36285 40804
L36285 40841
L36266 40898
L36041 41122
L36285 41122
" />
<text x="95629.9" y="28870.1"
textLength="1576.58" font-size="524.934" lengthAdjust="spacingAndGlyphs"
text-anchor="middle" opacity="0">M2_6</text>
<path d="M94973 28851
L94973 28457
L95104 28738
L95236 28457
L95236 28851
" />
<path d="M95404 28495
L95423 28476
L95461 28457
L95554 28457
L95592 28476
L95611 28495
L95629 28532
L95629 28570
L95611 28626
L95386 28851
L95629 28851
" />
<path d="M95704 28888
L96004 28888
" />
<path d="M96267 28457
L96192 28457
L96154 28476
L96136 28495
L96098 28551
L96079 28626
L96079 28776
L96098 28813
L96117 28832
L96154 28851
L96229 28851
L96267 28832
L96286 28813
L96304 28776
L96304 28682
L96286 28645
L96267 28626
L96229 28607
L96154 28607
L96117 28626
L96098 28645
L96079 28682
" />
<text x="80633.9" y="42063"
textLength="1576.58" font-size="524.934" lengthAdjust="spacingAndGlyphs"
text-anchor="middle" opacity="0">M2_5</text>
<path d="M79977 42044
L79977 41650
L80108 41931
L80240 41650
L80240 42044
" />
<path d="M80408 41688
L80427 41669
L80465 41650
L80558 41650
L80596 41669
L80615 41688
L80633 41725
L80633 41763
L80615 41819
L80390 42044
L80633 42044
" />
<path d="M80708 42081
L81008 42081
" />
<path d="M81290 41650
L81102 41650
L81083 41838
L81102 41819
L81140 41800
L81233 41800
L81271 41819
L81290 41838
L81308 41875
L81308 41969
L81290 42006
L81271 42025
L81233 42044
L81140 42044
L81102 42025
L81083 42006
" />
<text x="116736" y="29417.3"
textLength="1576.58" font-size="524.934" lengthAdjust="spacingAndGlyphs"
text-anchor="middle" opacity="0">M2_7</text>
<path d="M116080 29398
L116080 29004
L116211 29286
L116342 29004
L116342 29398
" />
<path d="M116511 29042
L116529 29023
L116567 29004
L116661 29004
L116698 29023
L116717 29042
L116736 29079
L116736 29117
L116717 29173
L116492 29398
L116736 29398
" />
<path d="M116811 29436
L117111 29436
" />
<path d="M117167 29004
L117429 29004
L117261 29398
" />
<text x="80569.3" y="28439.4"
textLength="1576.58" font-size="524.934" lengthAdjust="spacingAndGlyphs"
text-anchor="middle" opacity="0">M2_4</text>
<path d="M79913 28420
L79913 28026
L80044 28308
L80175 28026
L80175 28420
" />
<path d="M80344 28064
L80363 28045
L80400 28026
L80494 28026
L80531 28045
L80550 28064
L80569 28101
L80569 28139
L80550 28195
L80325 28420
L80569 28420
" />
<path d="M80644 28458
L80944 28458
" />
<path d="M81206 28158
L81206 28420
" />
<path d="M81112 28008
L81019 28289
L81262 28289
" />
<g >
</g>
</g> 
</svg>
