M48
; DRILL file {KiCad (5.1.5)-3} date 08/01/2020 01:13:24
; FORMAT={-:-/ absolute / inch / decimal}
; #@! TF.CreationDate,2020-01-08T01:13:24+02:00
; #@! TF.GenerationSoftware,Kicad,Pcbnew,(5.1.5)-3
; #@! TF.FileFunction,Plated,1,2,PTH
FMAT,2
INCH
T1C0.0157
T2C0.0276
T3C0.0390
T4C0.0394
T5C0.0430
T6C0.0433
T7C0.0472
T8C0.0579
T9C0.0591
T10C0.1260
%
G90
G05
T1
X2.555Y-2.8562
X3.42Y-2.7387
X3.4464Y-2.6897
X3.4597Y-3.1358
X4.0643Y-2.2405
X4.1516Y-2.4123
X4.1879Y-3.1413
X4.433Y-2.7355
X5.5883Y-2.7054
T2
X2.8661Y-3.9528
X2.8661Y-4.2598
X5.1102Y-3.9646
X5.1102Y-4.2717
X7.3126Y-3.8272
X7.3126Y-4.1343
X5.82Y-2.4865
X5.82Y-2.7935
X2.76Y-3.2485
X2.76Y-3.5556
X8.8Y-2.4665
X8.8Y-2.7735
X8.8189Y-3.2047
X8.8189Y-3.5118
X6.563Y-3.1811
X6.563Y-3.4882
X7.315Y-3.1772
X7.315Y-3.4843
X3.0906Y-2.9646
X3.3976Y-2.9646
X2.7677Y-2.4865
X2.7677Y-2.7935
X6.56Y-2.4665
X6.56Y-2.7735
X2.7677Y-3.9567
X2.7677Y-4.2638
X11.16Y-3.9865
X11.16Y-4.2935
X5.0118Y-3.9646
X5.0118Y-4.2717
X2.86Y-2.4865
X2.86Y-2.7935
X10.3Y-2.4665
X10.3Y-2.7735
X8.063Y-3.2008
X8.063Y-3.5079
X8.8189Y-3.8272
X8.8189Y-4.1343
X5.8083Y-3.2571
X5.8083Y-3.5642
X5.02Y-2.5065
X5.02Y-2.8135
X10.2709Y-3.2051
X10.2709Y-3.5122
X9.561Y-3.837
X9.561Y-4.1441
X5.0315Y-3.1969
X5.0315Y-3.5039
X8.06Y-2.4665
X8.06Y-2.7735
X5.7646Y-3.9953
X5.7646Y-4.3024
X9.5787Y-3.2008
X9.5787Y-3.5079
X10.3646Y-3.2028
X10.3646Y-3.5098
X7.3Y-2.4665
X7.3Y-2.7735
X4.5665Y-2.94
X4.8735Y-2.94
X2.86Y-3.2465
X2.86Y-3.5535
X5.8634Y-3.9961
X5.8634Y-4.3031
X10.3142Y-3.8451
X10.3142Y-4.1522
X8.0657Y-3.8339
X8.0657Y-4.1409
X5.12Y-2.5065
X5.12Y-2.8135
X9.56Y-2.4665
X9.56Y-2.7735
X11.1654Y-3.2441
X11.1654Y-3.5512
X11.16Y-2.5065
X11.16Y-2.8135
T3
X11.5205Y-3.7
X11.5205Y-3.8
X6.5125Y-3.925
X6.6125Y-3.925
T4
X2.3391Y-2.3494
X2.3391Y-2.9203
X2.4375Y-2.9203
X2.5359Y-2.3494
X2.5359Y-2.9203
T5
X2.1142Y-3.811
X2.1142Y-3.9173
X3.637Y-2.1035
X3.637Y-2.2035
X3.637Y-2.3035
X3.637Y-2.4035
X3.637Y-2.5035
X3.637Y-2.6035
X3.637Y-2.7035
X3.637Y-2.8035
X3.637Y-2.9035
X3.637Y-3.0035
X3.637Y-3.1035
X3.637Y-3.2035
X4.237Y-2.1035
X4.237Y-2.2035
X4.237Y-2.3035
X4.237Y-2.4035
X4.237Y-2.5035
X4.237Y-2.6035
X4.237Y-2.7035
X4.237Y-2.8035
X4.237Y-2.9035
X4.237Y-3.0035
X4.237Y-3.1035
X4.237Y-3.2035
X2.1102Y-3.6772
T6
X3.5435Y-2.7051
X3.5435Y-2.8051
X3.5435Y-2.9051
X3.5435Y-3.0051
X3.5435Y-3.1051
X3.5435Y-3.2051
X3.5435Y-3.3051
X3.5435Y-3.4051
X3.5435Y-3.5051
X3.5435Y-3.6051
X3.5435Y-3.7051
X3.5435Y-3.8051
X4.3435Y-2.3051
X4.3435Y-2.4051
X4.3435Y-2.5051
X4.3435Y-2.6051
X4.3435Y-2.7051
X4.3435Y-2.8051
X4.3435Y-2.9051
X4.3435Y-3.0051
X4.3435Y-3.1051
X4.3435Y-3.2051
X4.3435Y-3.3051
X4.3435Y-3.4051
X4.3435Y-3.5051
X4.3435Y-3.6051
X4.3435Y-3.7051
X4.3435Y-3.8051
T7
X8.4375Y-3.8927
X8.6343Y-3.9754
X3.1875Y-3.8927
X3.3844Y-3.9754
X2.4375Y-3.8927
X2.6344Y-3.9754
X5.4375Y-3.1427
X5.6343Y-3.2254
X3.9375Y-2.3927
X4.1343Y-2.4754
X2.4375Y-2.3927
X2.6344Y-2.4754
X11.625Y-2.3927
X11.8219Y-2.4754
X8.4375Y-3.1427
X8.6343Y-3.2254
X6.1875Y-3.1427
X6.3843Y-3.2254
X9.9375Y-3.1427
X10.1343Y-3.2254
X2.4375Y-3.1427
X2.6344Y-3.2254
X9.9375Y-2.3927
X10.1343Y-2.4754
X5.4375Y-2.3927
X5.6343Y-2.4754
X10.7835Y-3.8937
X10.9803Y-3.9764
X9.1875Y-3.8927
X9.3843Y-3.9754
X6.9375Y-3.1427
X7.1343Y-3.2254
X6.9375Y-3.8927
X7.1343Y-3.9754
X3.9375Y-3.1427
X4.1343Y-3.2254
X6.9375Y-2.3927
X7.1343Y-2.4754
X4.6875Y-2.3927
X4.8843Y-2.4754
X9.9375Y-3.8927
X10.1343Y-3.9754
X5.4375Y-3.8927
X5.6343Y-3.9754
X3.1875Y-3.1427
X3.3844Y-3.2254
X3.9375Y-3.8927
X4.1343Y-3.9754
X10.6875Y-2.3927
X10.8843Y-2.4754
X11.8701Y-3.9469
X11.9528Y-3.75
X3.1875Y-2.3927
X3.3844Y-2.4754
X7.6875Y-3.8927
X7.8843Y-3.9754
X9.1875Y-3.1427
X9.3843Y-3.2254
X6.1875Y-3.8927
X6.3843Y-3.9754
X7.6875Y-2.3927
X7.8843Y-2.4754
X9.1875Y-2.3927
X9.3843Y-2.4754
X7.6875Y-3.1427
X7.8843Y-3.2254
X4.6875Y-3.8927
X4.8843Y-3.9754
X8.4375Y-2.3927
X8.6343Y-2.4754
X4.6875Y-3.1427
X4.8843Y-3.2254
X10.6875Y-3.1427
X10.8843Y-3.2254
X6.3657Y-4.2746
X6.5625Y-4.3573
X6.1875Y-2.3927
X6.3843Y-2.4754
T8
X4.5375Y-3.275
X4.5891Y-3.2175
X4.7859Y-3.1978
X4.7875Y-3.175
X10.5375Y-3.275
X10.5891Y-3.2175
X10.7859Y-3.1978
X10.7875Y-3.175
X6.4625Y-4.325
X6.4641Y-4.3022
X6.6609Y-4.2825
X6.7125Y-4.225
X6.0375Y-2.525
X6.0891Y-2.4675
X6.2859Y-2.4478
X6.2875Y-2.425
X8.2875Y-4.025
X8.3391Y-3.9675
X8.5359Y-3.9478
X8.5375Y-3.925
X3.0375Y-4.025
X3.0891Y-3.9675
X3.2859Y-3.9478
X3.2875Y-3.925
X2.2875Y-4.025
X2.3391Y-3.9675
X2.5359Y-3.9478
X2.5375Y-3.925
X5.2875Y-3.275
X5.3391Y-3.2175
X5.5359Y-3.1978
X5.5375Y-3.175
X3.7875Y-2.525
X3.8391Y-2.4675
X4.0359Y-2.4478
X4.0375Y-2.425
X2.2875Y-2.525
X2.3391Y-2.4675
X2.5359Y-2.4478
X2.5375Y-2.425
X11.475Y-2.525
X11.5266Y-2.4675
X11.7234Y-2.4478
X11.725Y-2.425
X8.2875Y-3.275
X8.3391Y-3.2175
X8.5359Y-3.1978
X8.5375Y-3.175
X6.0375Y-3.275
X6.0891Y-3.2175
X6.2859Y-3.1978
X6.2875Y-3.175
X9.7875Y-3.275
X9.8391Y-3.2175
X10.0359Y-3.1978
X10.0375Y-3.175
X2.2875Y-3.275
X2.3391Y-3.2175
X2.5359Y-3.1978
X2.5375Y-3.175
X9.7875Y-2.525
X9.8391Y-2.4675
X10.0359Y-2.4478
X10.0375Y-2.425
X5.2875Y-2.525
X5.3391Y-2.4675
X5.5359Y-2.4478
X5.5375Y-2.425
X10.6335Y-4.026
X10.685Y-3.9685
X10.8819Y-3.9488
X10.8835Y-3.926
X9.0375Y-4.025
X9.0891Y-3.9675
X9.2859Y-3.9478
X9.2875Y-3.925
X6.7875Y-3.275
X6.8391Y-3.2175
X7.0359Y-3.1978
X7.0375Y-3.175
X6.7875Y-4.025
X6.8391Y-3.9675
X7.0359Y-3.9478
X7.0375Y-3.925
X3.7875Y-3.275
X3.8391Y-3.2175
X4.0359Y-3.1978
X4.0375Y-3.175
X6.7875Y-2.525
X6.8391Y-2.4675
X7.0359Y-2.4478
X7.0375Y-2.425
X4.5375Y-2.525
X4.5891Y-2.4675
X4.7859Y-2.4478
X4.7875Y-2.425
X9.7875Y-4.025
X9.8391Y-3.9675
X10.0359Y-3.9478
X10.0375Y-3.925
X5.2875Y-4.025
X5.3391Y-3.9675
X5.5359Y-3.9478
X5.5375Y-3.925
X3.0375Y-3.275
X3.0891Y-3.2175
X3.2859Y-3.1978
X3.2875Y-3.175
X3.7875Y-4.025
X3.8391Y-3.9675
X4.0359Y-3.9478
X4.0375Y-3.925
X10.5375Y-2.525
X10.5891Y-2.4675
X10.7859Y-2.4478
X10.7875Y-2.425
X11.8205Y-3.6
X11.878Y-3.6516
X11.8976Y-3.8484
X11.9205Y-3.85
X3.0375Y-2.525
X3.0891Y-2.4675
X3.2859Y-2.4478
X3.2875Y-2.425
X7.5375Y-4.025
X7.5891Y-3.9675
X7.7859Y-3.9478
X7.7875Y-3.925
X9.0375Y-3.275
X9.0891Y-3.2175
X9.2859Y-3.1978
X9.2875Y-3.175
X6.0375Y-4.025
X6.0891Y-3.9675
X6.2859Y-3.9478
X6.2875Y-3.925
X7.5375Y-2.525
X7.5891Y-2.4675
X7.7859Y-2.4478
X7.7875Y-2.425
X9.0375Y-2.525
X9.0891Y-2.4675
X9.2859Y-2.4478
X9.2875Y-2.425
X7.5375Y-3.275
X7.5891Y-3.2175
X7.7859Y-3.1978
X7.7875Y-3.175
X4.5375Y-4.025
X4.5891Y-3.9675
X4.7859Y-3.9478
X4.7875Y-3.925
X8.2875Y-2.525
X8.3391Y-2.4675
X8.5359Y-2.4478
X8.5375Y-2.425
T10
X3.561Y-4.2205
X7.2988Y-2.9996
X5.0598Y-3.002
X2.8118Y-3.0008
X11.6736Y-3.048
X9.563Y-2.9933
X8.0634Y-4.3126
T9
G00X2.217Y-2.6506
M15
G01X2.217Y-2.5994
M16
G05
G00X2.658Y-2.6506
M15
G01X2.658Y-2.5994
M16
G05
T0
M30
