G04 #@! TF.GenerationSoftware,KiCad,Pcbnew,(5.1.5)-3*
G04 #@! TF.CreationDate,2020-01-08T01:13:46+02:00*
G04 #@! TF.ProjectId,PRKL30,50524b4c-3330-42e6-9b69-6361645f7063,rev?*
G04 #@! TF.SameCoordinates,Original*
G04 #@! TF.FileFunction,Legend,Bot*
G04 #@! TF.FilePolarity,Positive*
%FSLAX46Y46*%
G04 Gerber Fmt 4.6, Leading zero omitted, Abs format (unit mm)*
G04 Created by KiCad (PCBNEW (5.1.5)-3) date 2020-01-08 01:13:46*
%MOMM*%
%LPD*%
G04 APERTURE LIST*
%ADD10C,0.300000*%
%ADD11C,0.150000*%
%ADD12C,0.200000*%
%ADD13C,0.120000*%
G04 APERTURE END LIST*
D10*
X56757142Y-99271428D02*
X55557142Y-98985714D01*
X56414285Y-98757142D01*
X55557142Y-98528571D01*
X56757142Y-98242857D01*
X55614285Y-97842857D02*
X55557142Y-97671428D01*
X55557142Y-97385714D01*
X55614285Y-97271428D01*
X55671428Y-97214285D01*
X55785714Y-97157142D01*
X55900000Y-97157142D01*
X56014285Y-97214285D01*
X56071428Y-97271428D01*
X56128571Y-97385714D01*
X56185714Y-97614285D01*
X56242857Y-97728571D01*
X56300000Y-97785714D01*
X56414285Y-97842857D01*
X56528571Y-97842857D01*
X56642857Y-97785714D01*
X56700000Y-97728571D01*
X56757142Y-97614285D01*
X56757142Y-97328571D01*
X56700000Y-97157142D01*
X56642857Y-96700000D02*
X56700000Y-96642857D01*
X56757142Y-96528571D01*
X56757142Y-96242857D01*
X56700000Y-96128571D01*
X56642857Y-96071428D01*
X56528571Y-96014285D01*
X56414285Y-96014285D01*
X56242857Y-96071428D01*
X55557142Y-96757142D01*
X55557142Y-96014285D01*
X56242857Y-95328571D02*
X56300000Y-95442857D01*
X56357142Y-95500000D01*
X56471428Y-95557142D01*
X56528571Y-95557142D01*
X56642857Y-95500000D01*
X56700000Y-95442857D01*
X56757142Y-95328571D01*
X56757142Y-95100000D01*
X56700000Y-94985714D01*
X56642857Y-94928571D01*
X56528571Y-94871428D01*
X56471428Y-94871428D01*
X56357142Y-94928571D01*
X56300000Y-94985714D01*
X56242857Y-95100000D01*
X56242857Y-95328571D01*
X56185714Y-95442857D01*
X56128571Y-95500000D01*
X56014285Y-95557142D01*
X55785714Y-95557142D01*
X55671428Y-95500000D01*
X55614285Y-95442857D01*
X55557142Y-95328571D01*
X55557142Y-95100000D01*
X55614285Y-94985714D01*
X55671428Y-94928571D01*
X55785714Y-94871428D01*
X56014285Y-94871428D01*
X56128571Y-94928571D01*
X56185714Y-94985714D01*
X56242857Y-95100000D01*
X55557142Y-93728571D02*
X55557142Y-94414285D01*
X55557142Y-94071428D02*
X56757142Y-94071428D01*
X56585714Y-94185714D01*
X56471428Y-94300000D01*
X56414285Y-94414285D01*
X56642857Y-93271428D02*
X56700000Y-93214285D01*
X56757142Y-93100000D01*
X56757142Y-92814285D01*
X56700000Y-92700000D01*
X56642857Y-92642857D01*
X56528571Y-92585714D01*
X56414285Y-92585714D01*
X56242857Y-92642857D01*
X55557142Y-93328571D01*
X55557142Y-92585714D01*
D11*
X111595000Y-100460000D02*
X111595000Y-55375000D01*
X108420000Y-52200000D02*
X91275000Y-52200000D01*
X88735000Y-54740000D02*
X88735000Y-100460000D01*
X91275000Y-103000000D02*
X109055000Y-103000000D01*
X108420000Y-52200000D02*
G75*
G02X111595000Y-55375000I0J-3175000D01*
G01*
X88735000Y-54740000D02*
G75*
G02X91275000Y-52200000I2540000J0D01*
G01*
X91275000Y-103000000D02*
G75*
G02X88735000Y-100460000I0J2540000D01*
G01*
X111595000Y-100460000D02*
G75*
G02X109055000Y-103000000I-2540000J0D01*
G01*
D12*
X126308000Y-64764000D02*
X126308000Y-70564000D01*
X128708000Y-64764000D02*
X126308000Y-64764000D01*
X128708000Y-70564000D02*
X128708000Y-64764000D01*
X128708000Y-70489000D02*
X126308000Y-70489000D01*
X128708000Y-70364000D02*
X126308000Y-70364000D01*
X126308000Y-70589000D02*
X128708000Y-70589000D01*
X128708000Y-70189000D02*
X126308000Y-70189000D01*
X128708000Y-70014000D02*
X126308000Y-70014000D01*
X128708000Y-69839000D02*
X126308000Y-69839000D01*
X69100000Y-64256000D02*
X69100000Y-70056000D01*
X71500000Y-64256000D02*
X69100000Y-64256000D01*
X71500000Y-70056000D02*
X71500000Y-64256000D01*
X71500000Y-69981000D02*
X69100000Y-69981000D01*
X71500000Y-69856000D02*
X69100000Y-69856000D01*
X69100000Y-70081000D02*
X71500000Y-70081000D01*
X71500000Y-69681000D02*
X69100000Y-69681000D01*
X71500000Y-69506000D02*
X69100000Y-69506000D01*
X71500000Y-69331000D02*
X69100000Y-69331000D01*
X71444000Y-64256000D02*
X71444000Y-70056000D01*
X73844000Y-64256000D02*
X71444000Y-64256000D01*
X73844000Y-70056000D02*
X73844000Y-64256000D01*
X73844000Y-69981000D02*
X71444000Y-69981000D01*
X73844000Y-69856000D02*
X71444000Y-69856000D01*
X71444000Y-70081000D02*
X73844000Y-70081000D01*
X73844000Y-69681000D02*
X71444000Y-69681000D01*
X73844000Y-69506000D02*
X71444000Y-69506000D01*
X73844000Y-69331000D02*
X71444000Y-69331000D01*
X85200000Y-74100000D02*
X79400000Y-74100000D01*
X85200000Y-76500000D02*
X85200000Y-74100000D01*
X79400000Y-76500000D02*
X85200000Y-76500000D01*
X79475000Y-76500000D02*
X79475000Y-74100000D01*
X79600000Y-76500000D02*
X79600000Y-74100000D01*
X79375000Y-74100000D02*
X79375000Y-76500000D01*
X79775000Y-76500000D02*
X79775000Y-74100000D01*
X79950000Y-76500000D02*
X79950000Y-74100000D01*
X80125000Y-76500000D02*
X80125000Y-74100000D01*
X128848000Y-64764000D02*
X128848000Y-70564000D01*
X131248000Y-64764000D02*
X128848000Y-64764000D01*
X131248000Y-70564000D02*
X131248000Y-64764000D01*
X131248000Y-70489000D02*
X128848000Y-70489000D01*
X131248000Y-70364000D02*
X128848000Y-70364000D01*
X128848000Y-70589000D02*
X131248000Y-70589000D01*
X131248000Y-70189000D02*
X128848000Y-70189000D01*
X131248000Y-70014000D02*
X128848000Y-70014000D01*
X131248000Y-69839000D02*
X128848000Y-69839000D01*
X149028000Y-69331000D02*
X146628000Y-69331000D01*
X149028000Y-69506000D02*
X146628000Y-69506000D01*
X149028000Y-69681000D02*
X146628000Y-69681000D01*
X146628000Y-70081000D02*
X149028000Y-70081000D01*
X149028000Y-69856000D02*
X146628000Y-69856000D01*
X149028000Y-69981000D02*
X146628000Y-69981000D01*
X149028000Y-70056000D02*
X149028000Y-64256000D01*
X149028000Y-64256000D02*
X146628000Y-64256000D01*
X146628000Y-64256000D02*
X146628000Y-70056000D01*
X167824000Y-68823000D02*
X165424000Y-68823000D01*
X167824000Y-68998000D02*
X165424000Y-68998000D01*
X167824000Y-69173000D02*
X165424000Y-69173000D01*
X165424000Y-69573000D02*
X167824000Y-69573000D01*
X167824000Y-69348000D02*
X165424000Y-69348000D01*
X167824000Y-69473000D02*
X165424000Y-69473000D01*
X167824000Y-69548000D02*
X167824000Y-63748000D01*
X167824000Y-63748000D02*
X165424000Y-63748000D01*
X165424000Y-63748000D02*
X165424000Y-69548000D01*
X186620000Y-68823000D02*
X184220000Y-68823000D01*
X186620000Y-68998000D02*
X184220000Y-68998000D01*
X186620000Y-69173000D02*
X184220000Y-69173000D01*
X184220000Y-69573000D02*
X186620000Y-69573000D01*
X186620000Y-69348000D02*
X184220000Y-69348000D01*
X186620000Y-69473000D02*
X184220000Y-69473000D01*
X186620000Y-69548000D02*
X186620000Y-63748000D01*
X186620000Y-63748000D02*
X184220000Y-63748000D01*
X184220000Y-63748000D02*
X184220000Y-69548000D01*
X205924000Y-68823000D02*
X203524000Y-68823000D01*
X205924000Y-68998000D02*
X203524000Y-68998000D01*
X205924000Y-69173000D02*
X203524000Y-69173000D01*
X203524000Y-69573000D02*
X205924000Y-69573000D01*
X205924000Y-69348000D02*
X203524000Y-69348000D01*
X205924000Y-69473000D02*
X203524000Y-69473000D01*
X205924000Y-69548000D02*
X205924000Y-63748000D01*
X205924000Y-63748000D02*
X203524000Y-63748000D01*
X203524000Y-63748000D02*
X203524000Y-69548000D01*
X224720000Y-68823000D02*
X222320000Y-68823000D01*
X224720000Y-68998000D02*
X222320000Y-68998000D01*
X224720000Y-69173000D02*
X222320000Y-69173000D01*
X222320000Y-69573000D02*
X224720000Y-69573000D01*
X224720000Y-69348000D02*
X222320000Y-69348000D01*
X224720000Y-69473000D02*
X222320000Y-69473000D01*
X224720000Y-69548000D02*
X224720000Y-63748000D01*
X224720000Y-63748000D02*
X222320000Y-63748000D01*
X222320000Y-63748000D02*
X222320000Y-69548000D01*
X244024000Y-68823000D02*
X241624000Y-68823000D01*
X244024000Y-68998000D02*
X241624000Y-68998000D01*
X244024000Y-69173000D02*
X241624000Y-69173000D01*
X241624000Y-69573000D02*
X244024000Y-69573000D01*
X244024000Y-69348000D02*
X241624000Y-69348000D01*
X244024000Y-69473000D02*
X241624000Y-69473000D01*
X244024000Y-69548000D02*
X244024000Y-63748000D01*
X244024000Y-63748000D02*
X241624000Y-63748000D01*
X241624000Y-63748000D02*
X241624000Y-69548000D01*
X262820000Y-68823000D02*
X260420000Y-68823000D01*
X262820000Y-68998000D02*
X260420000Y-68998000D01*
X262820000Y-69173000D02*
X260420000Y-69173000D01*
X260420000Y-69573000D02*
X262820000Y-69573000D01*
X262820000Y-69348000D02*
X260420000Y-69348000D01*
X262820000Y-69473000D02*
X260420000Y-69473000D01*
X262820000Y-69548000D02*
X262820000Y-63748000D01*
X262820000Y-63748000D02*
X260420000Y-63748000D01*
X260420000Y-63748000D02*
X260420000Y-69548000D01*
X284664000Y-69839000D02*
X282264000Y-69839000D01*
X284664000Y-70014000D02*
X282264000Y-70014000D01*
X284664000Y-70189000D02*
X282264000Y-70189000D01*
X282264000Y-70589000D02*
X284664000Y-70589000D01*
X284664000Y-70364000D02*
X282264000Y-70364000D01*
X284664000Y-70489000D02*
X282264000Y-70489000D01*
X284664000Y-70564000D02*
X284664000Y-64764000D01*
X284664000Y-64764000D02*
X282264000Y-64764000D01*
X282264000Y-64764000D02*
X282264000Y-70564000D01*
X71304000Y-88686000D02*
X68904000Y-88686000D01*
X71304000Y-88861000D02*
X68904000Y-88861000D01*
X71304000Y-89036000D02*
X68904000Y-89036000D01*
X68904000Y-89436000D02*
X71304000Y-89436000D01*
X71304000Y-89211000D02*
X68904000Y-89211000D01*
X71304000Y-89336000D02*
X68904000Y-89336000D01*
X71304000Y-89411000D02*
X71304000Y-83611000D01*
X71304000Y-83611000D02*
X68904000Y-83611000D01*
X68904000Y-83611000D02*
X68904000Y-89411000D01*
X73844000Y-88635000D02*
X71444000Y-88635000D01*
X73844000Y-88810000D02*
X71444000Y-88810000D01*
X73844000Y-88985000D02*
X71444000Y-88985000D01*
X71444000Y-89385000D02*
X73844000Y-89385000D01*
X73844000Y-89160000D02*
X71444000Y-89160000D01*
X73844000Y-89285000D02*
X71444000Y-89285000D01*
X73844000Y-89360000D02*
X73844000Y-83560000D01*
X73844000Y-83560000D02*
X71444000Y-83560000D01*
X71444000Y-83560000D02*
X71444000Y-89360000D01*
X117613000Y-75876000D02*
X117613000Y-73476000D01*
X117438000Y-75876000D02*
X117438000Y-73476000D01*
X117263000Y-75876000D02*
X117263000Y-73476000D01*
X116863000Y-73476000D02*
X116863000Y-75876000D01*
X117088000Y-75876000D02*
X117088000Y-73476000D01*
X116963000Y-75876000D02*
X116963000Y-73476000D01*
X116888000Y-75876000D02*
X122688000Y-75876000D01*
X122688000Y-75876000D02*
X122688000Y-73476000D01*
X122688000Y-73476000D02*
X116888000Y-73476000D01*
X129000000Y-87375000D02*
X126600000Y-87375000D01*
X129000000Y-87550000D02*
X126600000Y-87550000D01*
X129000000Y-87725000D02*
X126600000Y-87725000D01*
X126600000Y-88125000D02*
X129000000Y-88125000D01*
X129000000Y-87900000D02*
X126600000Y-87900000D01*
X129000000Y-88025000D02*
X126600000Y-88025000D01*
X129000000Y-88100000D02*
X129000000Y-82300000D01*
X129000000Y-82300000D02*
X126600000Y-82300000D01*
X126600000Y-82300000D02*
X126600000Y-88100000D01*
X148730000Y-88905000D02*
X146330000Y-88905000D01*
X148730000Y-89080000D02*
X146330000Y-89080000D01*
X148730000Y-89255000D02*
X146330000Y-89255000D01*
X146330000Y-89655000D02*
X148730000Y-89655000D01*
X148730000Y-89430000D02*
X146330000Y-89430000D01*
X148730000Y-89555000D02*
X146330000Y-89555000D01*
X148730000Y-89630000D02*
X148730000Y-83830000D01*
X148730000Y-83830000D02*
X146330000Y-83830000D01*
X146330000Y-83830000D02*
X146330000Y-89630000D01*
X167900000Y-86975000D02*
X165500000Y-86975000D01*
X167900000Y-87150000D02*
X165500000Y-87150000D01*
X167900000Y-87325000D02*
X165500000Y-87325000D01*
X165500000Y-87725000D02*
X167900000Y-87725000D01*
X167900000Y-87500000D02*
X165500000Y-87500000D01*
X167900000Y-87625000D02*
X165500000Y-87625000D01*
X167900000Y-87700000D02*
X167900000Y-81900000D01*
X167900000Y-81900000D02*
X165500000Y-81900000D01*
X165500000Y-81900000D02*
X165500000Y-87700000D01*
X187000000Y-86875000D02*
X184600000Y-86875000D01*
X187000000Y-87050000D02*
X184600000Y-87050000D01*
X187000000Y-87225000D02*
X184600000Y-87225000D01*
X184600000Y-87625000D02*
X187000000Y-87625000D01*
X187000000Y-87400000D02*
X184600000Y-87400000D01*
X187000000Y-87525000D02*
X184600000Y-87525000D01*
X187000000Y-87600000D02*
X187000000Y-81800000D01*
X187000000Y-81800000D02*
X184600000Y-81800000D01*
X184600000Y-81800000D02*
X184600000Y-87600000D01*
X203600000Y-82400000D02*
X203600000Y-88200000D01*
X206000000Y-82400000D02*
X203600000Y-82400000D01*
X206000000Y-88200000D02*
X206000000Y-82400000D01*
X206000000Y-88125000D02*
X203600000Y-88125000D01*
X206000000Y-88000000D02*
X203600000Y-88000000D01*
X203600000Y-88225000D02*
X206000000Y-88225000D01*
X206000000Y-87825000D02*
X203600000Y-87825000D01*
X206000000Y-87650000D02*
X203600000Y-87650000D01*
X206000000Y-87475000D02*
X203600000Y-87475000D01*
X222800000Y-82500000D02*
X222800000Y-88300000D01*
X225200000Y-82500000D02*
X222800000Y-82500000D01*
X225200000Y-88300000D02*
X225200000Y-82500000D01*
X225200000Y-88225000D02*
X222800000Y-88225000D01*
X225200000Y-88100000D02*
X222800000Y-88100000D01*
X222800000Y-88325000D02*
X225200000Y-88325000D01*
X225200000Y-87925000D02*
X222800000Y-87925000D01*
X225200000Y-87750000D02*
X222800000Y-87750000D01*
X225200000Y-87575000D02*
X222800000Y-87575000D01*
X242100000Y-82400000D02*
X242100000Y-88200000D01*
X244500000Y-82400000D02*
X242100000Y-82400000D01*
X244500000Y-88200000D02*
X244500000Y-82400000D01*
X244500000Y-88125000D02*
X242100000Y-88125000D01*
X244500000Y-88000000D02*
X242100000Y-88000000D01*
X242100000Y-88225000D02*
X244500000Y-88225000D01*
X244500000Y-87825000D02*
X242100000Y-87825000D01*
X244500000Y-87650000D02*
X242100000Y-87650000D01*
X244500000Y-87475000D02*
X242100000Y-87475000D01*
X259680000Y-82510000D02*
X259680000Y-88310000D01*
X262080000Y-82510000D02*
X259680000Y-82510000D01*
X262080000Y-88310000D02*
X262080000Y-82510000D01*
X262080000Y-88235000D02*
X259680000Y-88235000D01*
X262080000Y-88110000D02*
X259680000Y-88110000D01*
X259680000Y-88335000D02*
X262080000Y-88335000D01*
X262080000Y-87935000D02*
X259680000Y-87935000D01*
X262080000Y-87760000D02*
X259680000Y-87760000D01*
X262080000Y-87585000D02*
X259680000Y-87585000D01*
X262060000Y-82450000D02*
X262060000Y-88250000D01*
X264460000Y-82450000D02*
X262060000Y-82450000D01*
X264460000Y-88250000D02*
X264460000Y-82450000D01*
X264460000Y-88175000D02*
X262060000Y-88175000D01*
X264460000Y-88050000D02*
X262060000Y-88050000D01*
X262060000Y-88275000D02*
X264460000Y-88275000D01*
X264460000Y-87875000D02*
X262060000Y-87875000D01*
X264460000Y-87700000D02*
X262060000Y-87700000D01*
X264460000Y-87525000D02*
X262060000Y-87525000D01*
X69100000Y-101600000D02*
X69100000Y-107400000D01*
X71500000Y-101600000D02*
X69100000Y-101600000D01*
X71500000Y-107400000D02*
X71500000Y-101600000D01*
X71500000Y-107325000D02*
X69100000Y-107325000D01*
X71500000Y-107200000D02*
X69100000Y-107200000D01*
X69100000Y-107425000D02*
X71500000Y-107425000D01*
X71500000Y-107025000D02*
X69100000Y-107025000D01*
X71500000Y-106850000D02*
X69100000Y-106850000D01*
X71500000Y-106675000D02*
X69100000Y-106675000D01*
X71600000Y-101500000D02*
X71600000Y-107300000D01*
X74000000Y-101500000D02*
X71600000Y-101500000D01*
X74000000Y-107300000D02*
X74000000Y-101500000D01*
X74000000Y-107225000D02*
X71600000Y-107225000D01*
X74000000Y-107100000D02*
X71600000Y-107100000D01*
X71600000Y-107325000D02*
X74000000Y-107325000D01*
X74000000Y-106925000D02*
X71600000Y-106925000D01*
X74000000Y-106750000D02*
X71600000Y-106750000D01*
X74000000Y-106575000D02*
X71600000Y-106575000D01*
X126100000Y-101800000D02*
X126100000Y-107600000D01*
X128500000Y-101800000D02*
X126100000Y-101800000D01*
X128500000Y-107600000D02*
X128500000Y-101800000D01*
X128500000Y-107525000D02*
X126100000Y-107525000D01*
X128500000Y-107400000D02*
X126100000Y-107400000D01*
X126100000Y-107625000D02*
X128500000Y-107625000D01*
X128500000Y-107225000D02*
X126100000Y-107225000D01*
X128500000Y-107050000D02*
X126100000Y-107050000D01*
X128500000Y-106875000D02*
X126100000Y-106875000D01*
X128600000Y-101800000D02*
X128600000Y-107600000D01*
X131000000Y-101800000D02*
X128600000Y-101800000D01*
X131000000Y-107600000D02*
X131000000Y-101800000D01*
X131000000Y-107525000D02*
X128600000Y-107525000D01*
X131000000Y-107400000D02*
X128600000Y-107400000D01*
X128600000Y-107625000D02*
X131000000Y-107625000D01*
X131000000Y-107225000D02*
X128600000Y-107225000D01*
X131000000Y-107050000D02*
X128600000Y-107050000D01*
X131000000Y-106875000D02*
X128600000Y-106875000D01*
X145220000Y-102580000D02*
X145220000Y-108380000D01*
X147620000Y-102580000D02*
X145220000Y-102580000D01*
X147620000Y-108380000D02*
X147620000Y-102580000D01*
X147620000Y-108305000D02*
X145220000Y-108305000D01*
X147620000Y-108180000D02*
X145220000Y-108180000D01*
X145220000Y-108405000D02*
X147620000Y-108405000D01*
X147620000Y-108005000D02*
X145220000Y-108005000D01*
X147620000Y-107830000D02*
X145220000Y-107830000D01*
X147620000Y-107655000D02*
X145220000Y-107655000D01*
X147730000Y-102600000D02*
X147730000Y-108400000D01*
X150130000Y-102600000D02*
X147730000Y-102600000D01*
X150130000Y-108400000D02*
X150130000Y-102600000D01*
X150130000Y-108325000D02*
X147730000Y-108325000D01*
X150130000Y-108200000D02*
X147730000Y-108200000D01*
X147730000Y-108425000D02*
X150130000Y-108425000D01*
X150130000Y-108025000D02*
X147730000Y-108025000D01*
X150130000Y-107850000D02*
X147730000Y-107850000D01*
X150130000Y-107675000D02*
X147730000Y-107675000D01*
X184540000Y-98310000D02*
X184540000Y-104110000D01*
X186940000Y-98310000D02*
X184540000Y-98310000D01*
X186940000Y-104110000D02*
X186940000Y-98310000D01*
X186940000Y-104035000D02*
X184540000Y-104035000D01*
X186940000Y-103910000D02*
X184540000Y-103910000D01*
X184540000Y-104135000D02*
X186940000Y-104135000D01*
X186940000Y-103735000D02*
X184540000Y-103735000D01*
X186940000Y-103560000D02*
X184540000Y-103560000D01*
X186940000Y-103385000D02*
X184540000Y-103385000D01*
X203670000Y-98480000D02*
X203670000Y-104280000D01*
X206070000Y-98480000D02*
X203670000Y-98480000D01*
X206070000Y-104280000D02*
X206070000Y-98480000D01*
X206070000Y-104205000D02*
X203670000Y-104205000D01*
X206070000Y-104080000D02*
X203670000Y-104080000D01*
X203670000Y-104305000D02*
X206070000Y-104305000D01*
X206070000Y-103905000D02*
X203670000Y-103905000D01*
X206070000Y-103730000D02*
X203670000Y-103730000D01*
X206070000Y-103555000D02*
X203670000Y-103555000D01*
X222800000Y-98310000D02*
X222800000Y-104110000D01*
X225200000Y-98310000D02*
X222800000Y-98310000D01*
X225200000Y-104110000D02*
X225200000Y-98310000D01*
X225200000Y-104035000D02*
X222800000Y-104035000D01*
X225200000Y-103910000D02*
X222800000Y-103910000D01*
X222800000Y-104135000D02*
X225200000Y-104135000D01*
X225200000Y-103735000D02*
X222800000Y-103735000D01*
X225200000Y-103560000D02*
X222800000Y-103560000D01*
X225200000Y-103385000D02*
X222800000Y-103385000D01*
X244050000Y-103635000D02*
X241650000Y-103635000D01*
X244050000Y-103810000D02*
X241650000Y-103810000D01*
X244050000Y-103985000D02*
X241650000Y-103985000D01*
X241650000Y-104385000D02*
X244050000Y-104385000D01*
X244050000Y-104160000D02*
X241650000Y-104160000D01*
X244050000Y-104285000D02*
X241650000Y-104285000D01*
X244050000Y-104360000D02*
X244050000Y-98560000D01*
X244050000Y-98560000D02*
X241650000Y-98560000D01*
X241650000Y-98560000D02*
X241650000Y-104360000D01*
X260780000Y-99290000D02*
X263180000Y-99290000D01*
X260780000Y-99115000D02*
X263180000Y-99115000D01*
X260780000Y-98940000D02*
X263180000Y-98940000D01*
X263180000Y-98540000D02*
X260780000Y-98540000D01*
X260780000Y-98765000D02*
X263180000Y-98765000D01*
X260780000Y-98640000D02*
X263180000Y-98640000D01*
X260780000Y-98565000D02*
X260780000Y-104365000D01*
X260780000Y-104365000D02*
X263180000Y-104365000D01*
X263180000Y-104365000D02*
X263180000Y-98565000D01*
X284664000Y-107431000D02*
X282264000Y-107431000D01*
X284664000Y-107606000D02*
X282264000Y-107606000D01*
X284664000Y-107781000D02*
X282264000Y-107781000D01*
X282264000Y-108181000D02*
X284664000Y-108181000D01*
X284664000Y-107956000D02*
X282264000Y-107956000D01*
X284664000Y-108081000D02*
X282264000Y-108081000D01*
X284664000Y-108156000D02*
X284664000Y-102356000D01*
X284664000Y-102356000D02*
X282264000Y-102356000D01*
X282264000Y-102356000D02*
X282264000Y-108156000D01*
D13*
X149900000Y-75100000D02*
X150350000Y-75550000D01*
X149900000Y-78500000D02*
X150350000Y-78050000D01*
X145300000Y-78500000D02*
X144850000Y-78050000D01*
X145300000Y-75100000D02*
X144850000Y-75550000D01*
X146600000Y-79550000D02*
X148600000Y-79550000D01*
X150350000Y-75550000D02*
X150350000Y-78050000D01*
X146600000Y-74050000D02*
X148600000Y-74050000D01*
X144850000Y-75550000D02*
X144850000Y-78050000D01*
D12*
X284800000Y-88575000D02*
X282400000Y-88575000D01*
X284800000Y-88750000D02*
X282400000Y-88750000D01*
X284800000Y-88925000D02*
X282400000Y-88925000D01*
X282400000Y-89325000D02*
X284800000Y-89325000D01*
X284800000Y-89100000D02*
X282400000Y-89100000D01*
X284800000Y-89225000D02*
X282400000Y-89225000D01*
X284800000Y-89300000D02*
X284800000Y-83500000D01*
X284800000Y-83500000D02*
X282400000Y-83500000D01*
X282400000Y-83500000D02*
X282400000Y-89300000D01*
D13*
X284700000Y-59120000D02*
X284900000Y-59120000D01*
X281900000Y-54980000D02*
X282100000Y-54770000D01*
X283200000Y-54980000D02*
X283000000Y-54770000D01*
X281900000Y-56270000D02*
X281900000Y-54980000D01*
X282100000Y-54770000D02*
X283000000Y-54770000D01*
X283200000Y-54980000D02*
X283200000Y-56270000D01*
X280450000Y-56270000D02*
X286150000Y-56270000D01*
X281700000Y-59120000D02*
X283400000Y-59120000D01*
X279850000Y-58070000D02*
X279850000Y-57280000D01*
X286750000Y-57280000D02*
X286750000Y-58070000D01*
D11*
X105569761Y-52922380D02*
X105569761Y-53731904D01*
X105522142Y-53827142D01*
X105474523Y-53874761D01*
X105379285Y-53922380D01*
X105188809Y-53922380D01*
X105093571Y-53874761D01*
X105045952Y-53827142D01*
X104998333Y-53731904D01*
X104998333Y-52922380D01*
X104569761Y-53874761D02*
X104426904Y-53922380D01*
X104188809Y-53922380D01*
X104093571Y-53874761D01*
X104045952Y-53827142D01*
X103998333Y-53731904D01*
X103998333Y-53636666D01*
X104045952Y-53541428D01*
X104093571Y-53493809D01*
X104188809Y-53446190D01*
X104379285Y-53398571D01*
X104474523Y-53350952D01*
X104522142Y-53303333D01*
X104569761Y-53208095D01*
X104569761Y-53112857D01*
X104522142Y-53017619D01*
X104474523Y-52970000D01*
X104379285Y-52922380D01*
X104141190Y-52922380D01*
X103998333Y-52970000D01*
X103236428Y-53398571D02*
X103093571Y-53446190D01*
X103045952Y-53493809D01*
X102998333Y-53589047D01*
X102998333Y-53731904D01*
X103045952Y-53827142D01*
X103093571Y-53874761D01*
X103188809Y-53922380D01*
X103569761Y-53922380D01*
X103569761Y-52922380D01*
X103236428Y-52922380D01*
X103141190Y-52970000D01*
X103093571Y-53017619D01*
X103045952Y-53112857D01*
X103045952Y-53208095D01*
X103093571Y-53303333D01*
X103141190Y-53350952D01*
X103236428Y-53398571D01*
X103569761Y-53398571D01*
X101236428Y-53827142D02*
X101284047Y-53874761D01*
X101426904Y-53922380D01*
X101522142Y-53922380D01*
X101665000Y-53874761D01*
X101760238Y-53779523D01*
X101807857Y-53684285D01*
X101855476Y-53493809D01*
X101855476Y-53350952D01*
X101807857Y-53160476D01*
X101760238Y-53065238D01*
X101665000Y-52970000D01*
X101522142Y-52922380D01*
X101426904Y-52922380D01*
X101284047Y-52970000D01*
X101236428Y-53017619D01*
X100665000Y-53922380D02*
X100760238Y-53874761D01*
X100807857Y-53827142D01*
X100855476Y-53731904D01*
X100855476Y-53446190D01*
X100807857Y-53350952D01*
X100760238Y-53303333D01*
X100665000Y-53255714D01*
X100522142Y-53255714D01*
X100426904Y-53303333D01*
X100379285Y-53350952D01*
X100331666Y-53446190D01*
X100331666Y-53731904D01*
X100379285Y-53827142D01*
X100426904Y-53874761D01*
X100522142Y-53922380D01*
X100665000Y-53922380D01*
X99903095Y-53255714D02*
X99903095Y-53922380D01*
X99903095Y-53350952D02*
X99855476Y-53303333D01*
X99760238Y-53255714D01*
X99617380Y-53255714D01*
X99522142Y-53303333D01*
X99474523Y-53398571D01*
X99474523Y-53922380D01*
X98998333Y-53255714D02*
X98998333Y-53922380D01*
X98998333Y-53350952D02*
X98950714Y-53303333D01*
X98855476Y-53255714D01*
X98712619Y-53255714D01*
X98617380Y-53303333D01*
X98569761Y-53398571D01*
X98569761Y-53922380D01*
X97712619Y-53874761D02*
X97807857Y-53922380D01*
X97998333Y-53922380D01*
X98093571Y-53874761D01*
X98141190Y-53779523D01*
X98141190Y-53398571D01*
X98093571Y-53303333D01*
X97998333Y-53255714D01*
X97807857Y-53255714D01*
X97712619Y-53303333D01*
X97665000Y-53398571D01*
X97665000Y-53493809D01*
X98141190Y-53589047D01*
X96807857Y-53874761D02*
X96903095Y-53922380D01*
X97093571Y-53922380D01*
X97188809Y-53874761D01*
X97236428Y-53827142D01*
X97284047Y-53731904D01*
X97284047Y-53446190D01*
X97236428Y-53350952D01*
X97188809Y-53303333D01*
X97093571Y-53255714D01*
X96903095Y-53255714D01*
X96807857Y-53303333D01*
X96522142Y-53255714D02*
X96141190Y-53255714D01*
X96379285Y-52922380D02*
X96379285Y-53779523D01*
X96331666Y-53874761D01*
X96236428Y-53922380D01*
X96141190Y-53922380D01*
X95665000Y-53922380D02*
X95760238Y-53874761D01*
X95807857Y-53827142D01*
X95855476Y-53731904D01*
X95855476Y-53446190D01*
X95807857Y-53350952D01*
X95760238Y-53303333D01*
X95665000Y-53255714D01*
X95522142Y-53255714D01*
X95426904Y-53303333D01*
X95379285Y-53350952D01*
X95331666Y-53446190D01*
X95331666Y-53731904D01*
X95379285Y-53827142D01*
X95426904Y-53874761D01*
X95522142Y-53922380D01*
X95665000Y-53922380D01*
X94903095Y-53922380D02*
X94903095Y-53255714D01*
X94903095Y-53446190D02*
X94855476Y-53350952D01*
X94807857Y-53303333D01*
X94712619Y-53255714D01*
X94617380Y-53255714D01*
X125944904Y-66973523D02*
X125144904Y-66973523D01*
X125144904Y-67164000D01*
X125183000Y-67278285D01*
X125259190Y-67354476D01*
X125335380Y-67392571D01*
X125487761Y-67430666D01*
X125602047Y-67430666D01*
X125754428Y-67392571D01*
X125830619Y-67354476D01*
X125906809Y-67278285D01*
X125944904Y-67164000D01*
X125944904Y-66973523D01*
X125411571Y-68116380D02*
X125944904Y-68116380D01*
X125106809Y-67925904D02*
X125678238Y-67735428D01*
X125678238Y-68230666D01*
X68736904Y-66465523D02*
X67936904Y-66465523D01*
X67936904Y-66656000D01*
X67975000Y-66770285D01*
X68051190Y-66846476D01*
X68127380Y-66884571D01*
X68279761Y-66922666D01*
X68394047Y-66922666D01*
X68546428Y-66884571D01*
X68622619Y-66846476D01*
X68698809Y-66770285D01*
X68736904Y-66656000D01*
X68736904Y-66465523D01*
X68736904Y-67684571D02*
X68736904Y-67227428D01*
X68736904Y-67456000D02*
X67936904Y-67456000D01*
X68051190Y-67379809D01*
X68127380Y-67303619D01*
X68165476Y-67227428D01*
X71080904Y-66465523D02*
X70280904Y-66465523D01*
X70280904Y-66656000D01*
X70319000Y-66770285D01*
X70395190Y-66846476D01*
X70471380Y-66884571D01*
X70623761Y-66922666D01*
X70738047Y-66922666D01*
X70890428Y-66884571D01*
X70966619Y-66846476D01*
X71042809Y-66770285D01*
X71080904Y-66656000D01*
X71080904Y-66465523D01*
X70357095Y-67227428D02*
X70319000Y-67265523D01*
X70280904Y-67341714D01*
X70280904Y-67532190D01*
X70319000Y-67608380D01*
X70357095Y-67646476D01*
X70433285Y-67684571D01*
X70509476Y-67684571D01*
X70623761Y-67646476D01*
X71080904Y-67189333D01*
X71080904Y-67684571D01*
X82990476Y-73736904D02*
X82990476Y-72936904D01*
X82800000Y-72936904D01*
X82685714Y-72975000D01*
X82609523Y-73051190D01*
X82571428Y-73127380D01*
X82533333Y-73279761D01*
X82533333Y-73394047D01*
X82571428Y-73546428D01*
X82609523Y-73622619D01*
X82685714Y-73698809D01*
X82800000Y-73736904D01*
X82990476Y-73736904D01*
X82266666Y-72936904D02*
X81771428Y-72936904D01*
X82038095Y-73241666D01*
X81923809Y-73241666D01*
X81847619Y-73279761D01*
X81809523Y-73317857D01*
X81771428Y-73394047D01*
X81771428Y-73584523D01*
X81809523Y-73660714D01*
X81847619Y-73698809D01*
X81923809Y-73736904D01*
X82152380Y-73736904D01*
X82228571Y-73698809D01*
X82266666Y-73660714D01*
X128484904Y-66973523D02*
X127684904Y-66973523D01*
X127684904Y-67164000D01*
X127723000Y-67278285D01*
X127799190Y-67354476D01*
X127875380Y-67392571D01*
X128027761Y-67430666D01*
X128142047Y-67430666D01*
X128294428Y-67392571D01*
X128370619Y-67354476D01*
X128446809Y-67278285D01*
X128484904Y-67164000D01*
X128484904Y-66973523D01*
X127684904Y-68154476D02*
X127684904Y-67773523D01*
X128065857Y-67735428D01*
X128027761Y-67773523D01*
X127989666Y-67849714D01*
X127989666Y-68040190D01*
X128027761Y-68116380D01*
X128065857Y-68154476D01*
X128142047Y-68192571D01*
X128332523Y-68192571D01*
X128408714Y-68154476D01*
X128446809Y-68116380D01*
X128484904Y-68040190D01*
X128484904Y-67849714D01*
X128446809Y-67773523D01*
X128408714Y-67735428D01*
X146264904Y-66465523D02*
X145464904Y-66465523D01*
X145464904Y-66656000D01*
X145503000Y-66770285D01*
X145579190Y-66846476D01*
X145655380Y-66884571D01*
X145807761Y-66922666D01*
X145922047Y-66922666D01*
X146074428Y-66884571D01*
X146150619Y-66846476D01*
X146226809Y-66770285D01*
X146264904Y-66656000D01*
X146264904Y-66465523D01*
X145464904Y-67608380D02*
X145464904Y-67456000D01*
X145503000Y-67379809D01*
X145541095Y-67341714D01*
X145655380Y-67265523D01*
X145807761Y-67227428D01*
X146112523Y-67227428D01*
X146188714Y-67265523D01*
X146226809Y-67303619D01*
X146264904Y-67379809D01*
X146264904Y-67532190D01*
X146226809Y-67608380D01*
X146188714Y-67646476D01*
X146112523Y-67684571D01*
X145922047Y-67684571D01*
X145845857Y-67646476D01*
X145807761Y-67608380D01*
X145769666Y-67532190D01*
X145769666Y-67379809D01*
X145807761Y-67303619D01*
X145845857Y-67265523D01*
X145922047Y-67227428D01*
X165060904Y-65957523D02*
X164260904Y-65957523D01*
X164260904Y-66148000D01*
X164299000Y-66262285D01*
X164375190Y-66338476D01*
X164451380Y-66376571D01*
X164603761Y-66414666D01*
X164718047Y-66414666D01*
X164870428Y-66376571D01*
X164946619Y-66338476D01*
X165022809Y-66262285D01*
X165060904Y-66148000D01*
X165060904Y-65957523D01*
X164260904Y-66681333D02*
X164260904Y-67214666D01*
X165060904Y-66871809D01*
X183856904Y-65957523D02*
X183056904Y-65957523D01*
X183056904Y-66148000D01*
X183095000Y-66262285D01*
X183171190Y-66338476D01*
X183247380Y-66376571D01*
X183399761Y-66414666D01*
X183514047Y-66414666D01*
X183666428Y-66376571D01*
X183742619Y-66338476D01*
X183818809Y-66262285D01*
X183856904Y-66148000D01*
X183856904Y-65957523D01*
X183399761Y-66871809D02*
X183361666Y-66795619D01*
X183323571Y-66757523D01*
X183247380Y-66719428D01*
X183209285Y-66719428D01*
X183133095Y-66757523D01*
X183095000Y-66795619D01*
X183056904Y-66871809D01*
X183056904Y-67024190D01*
X183095000Y-67100380D01*
X183133095Y-67138476D01*
X183209285Y-67176571D01*
X183247380Y-67176571D01*
X183323571Y-67138476D01*
X183361666Y-67100380D01*
X183399761Y-67024190D01*
X183399761Y-66871809D01*
X183437857Y-66795619D01*
X183475952Y-66757523D01*
X183552142Y-66719428D01*
X183704523Y-66719428D01*
X183780714Y-66757523D01*
X183818809Y-66795619D01*
X183856904Y-66871809D01*
X183856904Y-67024190D01*
X183818809Y-67100380D01*
X183780714Y-67138476D01*
X183704523Y-67176571D01*
X183552142Y-67176571D01*
X183475952Y-67138476D01*
X183437857Y-67100380D01*
X183399761Y-67024190D01*
X203160904Y-65957523D02*
X202360904Y-65957523D01*
X202360904Y-66148000D01*
X202399000Y-66262285D01*
X202475190Y-66338476D01*
X202551380Y-66376571D01*
X202703761Y-66414666D01*
X202818047Y-66414666D01*
X202970428Y-66376571D01*
X203046619Y-66338476D01*
X203122809Y-66262285D01*
X203160904Y-66148000D01*
X203160904Y-65957523D01*
X203160904Y-66795619D02*
X203160904Y-66948000D01*
X203122809Y-67024190D01*
X203084714Y-67062285D01*
X202970428Y-67138476D01*
X202818047Y-67176571D01*
X202513285Y-67176571D01*
X202437095Y-67138476D01*
X202399000Y-67100380D01*
X202360904Y-67024190D01*
X202360904Y-66871809D01*
X202399000Y-66795619D01*
X202437095Y-66757523D01*
X202513285Y-66719428D01*
X202703761Y-66719428D01*
X202779952Y-66757523D01*
X202818047Y-66795619D01*
X202856142Y-66871809D01*
X202856142Y-67024190D01*
X202818047Y-67100380D01*
X202779952Y-67138476D01*
X202703761Y-67176571D01*
X221956904Y-65576571D02*
X221156904Y-65576571D01*
X221156904Y-65767047D01*
X221195000Y-65881333D01*
X221271190Y-65957523D01*
X221347380Y-65995619D01*
X221499761Y-66033714D01*
X221614047Y-66033714D01*
X221766428Y-65995619D01*
X221842619Y-65957523D01*
X221918809Y-65881333D01*
X221956904Y-65767047D01*
X221956904Y-65576571D01*
X221956904Y-66795619D02*
X221956904Y-66338476D01*
X221956904Y-66567047D02*
X221156904Y-66567047D01*
X221271190Y-66490857D01*
X221347380Y-66414666D01*
X221385476Y-66338476D01*
X221156904Y-67290857D02*
X221156904Y-67367047D01*
X221195000Y-67443238D01*
X221233095Y-67481333D01*
X221309285Y-67519428D01*
X221461666Y-67557523D01*
X221652142Y-67557523D01*
X221804523Y-67519428D01*
X221880714Y-67481333D01*
X221918809Y-67443238D01*
X221956904Y-67367047D01*
X221956904Y-67290857D01*
X221918809Y-67214666D01*
X221880714Y-67176571D01*
X221804523Y-67138476D01*
X221652142Y-67100380D01*
X221461666Y-67100380D01*
X221309285Y-67138476D01*
X221233095Y-67176571D01*
X221195000Y-67214666D01*
X221156904Y-67290857D01*
X241260904Y-65576571D02*
X240460904Y-65576571D01*
X240460904Y-65767047D01*
X240499000Y-65881333D01*
X240575190Y-65957523D01*
X240651380Y-65995619D01*
X240803761Y-66033714D01*
X240918047Y-66033714D01*
X241070428Y-65995619D01*
X241146619Y-65957523D01*
X241222809Y-65881333D01*
X241260904Y-65767047D01*
X241260904Y-65576571D01*
X241260904Y-66795619D02*
X241260904Y-66338476D01*
X241260904Y-66567047D02*
X240460904Y-66567047D01*
X240575190Y-66490857D01*
X240651380Y-66414666D01*
X240689476Y-66338476D01*
X241260904Y-67557523D02*
X241260904Y-67100380D01*
X241260904Y-67328952D02*
X240460904Y-67328952D01*
X240575190Y-67252761D01*
X240651380Y-67176571D01*
X240689476Y-67100380D01*
X260056904Y-65576571D02*
X259256904Y-65576571D01*
X259256904Y-65767047D01*
X259295000Y-65881333D01*
X259371190Y-65957523D01*
X259447380Y-65995619D01*
X259599761Y-66033714D01*
X259714047Y-66033714D01*
X259866428Y-65995619D01*
X259942619Y-65957523D01*
X260018809Y-65881333D01*
X260056904Y-65767047D01*
X260056904Y-65576571D01*
X260056904Y-66795619D02*
X260056904Y-66338476D01*
X260056904Y-66567047D02*
X259256904Y-66567047D01*
X259371190Y-66490857D01*
X259447380Y-66414666D01*
X259485476Y-66338476D01*
X259333095Y-67100380D02*
X259295000Y-67138476D01*
X259256904Y-67214666D01*
X259256904Y-67405142D01*
X259295000Y-67481333D01*
X259333095Y-67519428D01*
X259409285Y-67557523D01*
X259485476Y-67557523D01*
X259599761Y-67519428D01*
X260056904Y-67062285D01*
X260056904Y-67557523D01*
X281900904Y-66592571D02*
X281100904Y-66592571D01*
X281100904Y-66783047D01*
X281139000Y-66897333D01*
X281215190Y-66973523D01*
X281291380Y-67011619D01*
X281443761Y-67049714D01*
X281558047Y-67049714D01*
X281710428Y-67011619D01*
X281786619Y-66973523D01*
X281862809Y-66897333D01*
X281900904Y-66783047D01*
X281900904Y-66592571D01*
X281900904Y-67811619D02*
X281900904Y-67354476D01*
X281900904Y-67583047D02*
X281100904Y-67583047D01*
X281215190Y-67506857D01*
X281291380Y-67430666D01*
X281329476Y-67354476D01*
X281100904Y-68078285D02*
X281100904Y-68573523D01*
X281405666Y-68306857D01*
X281405666Y-68421142D01*
X281443761Y-68497333D01*
X281481857Y-68535428D01*
X281558047Y-68573523D01*
X281748523Y-68573523D01*
X281824714Y-68535428D01*
X281862809Y-68497333D01*
X281900904Y-68421142D01*
X281900904Y-68192571D01*
X281862809Y-68116380D01*
X281824714Y-68078285D01*
X68540904Y-85439571D02*
X67740904Y-85439571D01*
X67740904Y-85630047D01*
X67779000Y-85744333D01*
X67855190Y-85820523D01*
X67931380Y-85858619D01*
X68083761Y-85896714D01*
X68198047Y-85896714D01*
X68350428Y-85858619D01*
X68426619Y-85820523D01*
X68502809Y-85744333D01*
X68540904Y-85630047D01*
X68540904Y-85439571D01*
X68540904Y-86658619D02*
X68540904Y-86201476D01*
X68540904Y-86430047D02*
X67740904Y-86430047D01*
X67855190Y-86353857D01*
X67931380Y-86277666D01*
X67969476Y-86201476D01*
X68007571Y-87344333D02*
X68540904Y-87344333D01*
X67702809Y-87153857D02*
X68274238Y-86963380D01*
X68274238Y-87458619D01*
X71080904Y-85388571D02*
X70280904Y-85388571D01*
X70280904Y-85579047D01*
X70319000Y-85693333D01*
X70395190Y-85769523D01*
X70471380Y-85807619D01*
X70623761Y-85845714D01*
X70738047Y-85845714D01*
X70890428Y-85807619D01*
X70966619Y-85769523D01*
X71042809Y-85693333D01*
X71080904Y-85579047D01*
X71080904Y-85388571D01*
X71080904Y-86607619D02*
X71080904Y-86150476D01*
X71080904Y-86379047D02*
X70280904Y-86379047D01*
X70395190Y-86302857D01*
X70471380Y-86226666D01*
X70509476Y-86150476D01*
X70280904Y-87331428D02*
X70280904Y-86950476D01*
X70661857Y-86912380D01*
X70623761Y-86950476D01*
X70585666Y-87026666D01*
X70585666Y-87217142D01*
X70623761Y-87293333D01*
X70661857Y-87331428D01*
X70738047Y-87369523D01*
X70928523Y-87369523D01*
X71004714Y-87331428D01*
X71042809Y-87293333D01*
X71080904Y-87217142D01*
X71080904Y-87026666D01*
X71042809Y-86950476D01*
X71004714Y-86912380D01*
X120859428Y-73112904D02*
X120859428Y-72312904D01*
X120668952Y-72312904D01*
X120554666Y-72351000D01*
X120478476Y-72427190D01*
X120440380Y-72503380D01*
X120402285Y-72655761D01*
X120402285Y-72770047D01*
X120440380Y-72922428D01*
X120478476Y-72998619D01*
X120554666Y-73074809D01*
X120668952Y-73112904D01*
X120859428Y-73112904D01*
X119640380Y-73112904D02*
X120097523Y-73112904D01*
X119868952Y-73112904D02*
X119868952Y-72312904D01*
X119945142Y-72427190D01*
X120021333Y-72503380D01*
X120097523Y-72541476D01*
X118954666Y-72312904D02*
X119107047Y-72312904D01*
X119183238Y-72351000D01*
X119221333Y-72389095D01*
X119297523Y-72503380D01*
X119335619Y-72655761D01*
X119335619Y-72960523D01*
X119297523Y-73036714D01*
X119259428Y-73074809D01*
X119183238Y-73112904D01*
X119030857Y-73112904D01*
X118954666Y-73074809D01*
X118916571Y-73036714D01*
X118878476Y-72960523D01*
X118878476Y-72770047D01*
X118916571Y-72693857D01*
X118954666Y-72655761D01*
X119030857Y-72617666D01*
X119183238Y-72617666D01*
X119259428Y-72655761D01*
X119297523Y-72693857D01*
X119335619Y-72770047D01*
X126236904Y-84128571D02*
X125436904Y-84128571D01*
X125436904Y-84319047D01*
X125475000Y-84433333D01*
X125551190Y-84509523D01*
X125627380Y-84547619D01*
X125779761Y-84585714D01*
X125894047Y-84585714D01*
X126046428Y-84547619D01*
X126122619Y-84509523D01*
X126198809Y-84433333D01*
X126236904Y-84319047D01*
X126236904Y-84128571D01*
X126236904Y-85347619D02*
X126236904Y-84890476D01*
X126236904Y-85119047D02*
X125436904Y-85119047D01*
X125551190Y-85042857D01*
X125627380Y-84966666D01*
X125665476Y-84890476D01*
X125436904Y-85614285D02*
X125436904Y-86147619D01*
X126236904Y-85804761D01*
X145966904Y-85658571D02*
X145166904Y-85658571D01*
X145166904Y-85849047D01*
X145205000Y-85963333D01*
X145281190Y-86039523D01*
X145357380Y-86077619D01*
X145509761Y-86115714D01*
X145624047Y-86115714D01*
X145776428Y-86077619D01*
X145852619Y-86039523D01*
X145928809Y-85963333D01*
X145966904Y-85849047D01*
X145966904Y-85658571D01*
X145966904Y-86877619D02*
X145966904Y-86420476D01*
X145966904Y-86649047D02*
X145166904Y-86649047D01*
X145281190Y-86572857D01*
X145357380Y-86496666D01*
X145395476Y-86420476D01*
X145509761Y-87334761D02*
X145471666Y-87258571D01*
X145433571Y-87220476D01*
X145357380Y-87182380D01*
X145319285Y-87182380D01*
X145243095Y-87220476D01*
X145205000Y-87258571D01*
X145166904Y-87334761D01*
X145166904Y-87487142D01*
X145205000Y-87563333D01*
X145243095Y-87601428D01*
X145319285Y-87639523D01*
X145357380Y-87639523D01*
X145433571Y-87601428D01*
X145471666Y-87563333D01*
X145509761Y-87487142D01*
X145509761Y-87334761D01*
X145547857Y-87258571D01*
X145585952Y-87220476D01*
X145662142Y-87182380D01*
X145814523Y-87182380D01*
X145890714Y-87220476D01*
X145928809Y-87258571D01*
X145966904Y-87334761D01*
X145966904Y-87487142D01*
X145928809Y-87563333D01*
X145890714Y-87601428D01*
X145814523Y-87639523D01*
X145662142Y-87639523D01*
X145585952Y-87601428D01*
X145547857Y-87563333D01*
X145509761Y-87487142D01*
X165136904Y-83728571D02*
X164336904Y-83728571D01*
X164336904Y-83919047D01*
X164375000Y-84033333D01*
X164451190Y-84109523D01*
X164527380Y-84147619D01*
X164679761Y-84185714D01*
X164794047Y-84185714D01*
X164946428Y-84147619D01*
X165022619Y-84109523D01*
X165098809Y-84033333D01*
X165136904Y-83919047D01*
X165136904Y-83728571D01*
X165136904Y-84947619D02*
X165136904Y-84490476D01*
X165136904Y-84719047D02*
X164336904Y-84719047D01*
X164451190Y-84642857D01*
X164527380Y-84566666D01*
X164565476Y-84490476D01*
X165136904Y-85328571D02*
X165136904Y-85480952D01*
X165098809Y-85557142D01*
X165060714Y-85595238D01*
X164946428Y-85671428D01*
X164794047Y-85709523D01*
X164489285Y-85709523D01*
X164413095Y-85671428D01*
X164375000Y-85633333D01*
X164336904Y-85557142D01*
X164336904Y-85404761D01*
X164375000Y-85328571D01*
X164413095Y-85290476D01*
X164489285Y-85252380D01*
X164679761Y-85252380D01*
X164755952Y-85290476D01*
X164794047Y-85328571D01*
X164832142Y-85404761D01*
X164832142Y-85557142D01*
X164794047Y-85633333D01*
X164755952Y-85671428D01*
X164679761Y-85709523D01*
X184236904Y-83628571D02*
X183436904Y-83628571D01*
X183436904Y-83819047D01*
X183475000Y-83933333D01*
X183551190Y-84009523D01*
X183627380Y-84047619D01*
X183779761Y-84085714D01*
X183894047Y-84085714D01*
X184046428Y-84047619D01*
X184122619Y-84009523D01*
X184198809Y-83933333D01*
X184236904Y-83819047D01*
X184236904Y-83628571D01*
X183513095Y-84390476D02*
X183475000Y-84428571D01*
X183436904Y-84504761D01*
X183436904Y-84695238D01*
X183475000Y-84771428D01*
X183513095Y-84809523D01*
X183589285Y-84847619D01*
X183665476Y-84847619D01*
X183779761Y-84809523D01*
X184236904Y-84352380D01*
X184236904Y-84847619D01*
X183436904Y-85342857D02*
X183436904Y-85419047D01*
X183475000Y-85495238D01*
X183513095Y-85533333D01*
X183589285Y-85571428D01*
X183741666Y-85609523D01*
X183932142Y-85609523D01*
X184084523Y-85571428D01*
X184160714Y-85533333D01*
X184198809Y-85495238D01*
X184236904Y-85419047D01*
X184236904Y-85342857D01*
X184198809Y-85266666D01*
X184160714Y-85228571D01*
X184084523Y-85190476D01*
X183932142Y-85152380D01*
X183741666Y-85152380D01*
X183589285Y-85190476D01*
X183513095Y-85228571D01*
X183475000Y-85266666D01*
X183436904Y-85342857D01*
X203236904Y-84228571D02*
X202436904Y-84228571D01*
X202436904Y-84419047D01*
X202475000Y-84533333D01*
X202551190Y-84609523D01*
X202627380Y-84647619D01*
X202779761Y-84685714D01*
X202894047Y-84685714D01*
X203046428Y-84647619D01*
X203122619Y-84609523D01*
X203198809Y-84533333D01*
X203236904Y-84419047D01*
X203236904Y-84228571D01*
X202513095Y-84990476D02*
X202475000Y-85028571D01*
X202436904Y-85104761D01*
X202436904Y-85295238D01*
X202475000Y-85371428D01*
X202513095Y-85409523D01*
X202589285Y-85447619D01*
X202665476Y-85447619D01*
X202779761Y-85409523D01*
X203236904Y-84952380D01*
X203236904Y-85447619D01*
X203236904Y-86209523D02*
X203236904Y-85752380D01*
X203236904Y-85980952D02*
X202436904Y-85980952D01*
X202551190Y-85904761D01*
X202627380Y-85828571D01*
X202665476Y-85752380D01*
X222436904Y-84328571D02*
X221636904Y-84328571D01*
X221636904Y-84519047D01*
X221675000Y-84633333D01*
X221751190Y-84709523D01*
X221827380Y-84747619D01*
X221979761Y-84785714D01*
X222094047Y-84785714D01*
X222246428Y-84747619D01*
X222322619Y-84709523D01*
X222398809Y-84633333D01*
X222436904Y-84519047D01*
X222436904Y-84328571D01*
X221713095Y-85090476D02*
X221675000Y-85128571D01*
X221636904Y-85204761D01*
X221636904Y-85395238D01*
X221675000Y-85471428D01*
X221713095Y-85509523D01*
X221789285Y-85547619D01*
X221865476Y-85547619D01*
X221979761Y-85509523D01*
X222436904Y-85052380D01*
X222436904Y-85547619D01*
X221713095Y-85852380D02*
X221675000Y-85890476D01*
X221636904Y-85966666D01*
X221636904Y-86157142D01*
X221675000Y-86233333D01*
X221713095Y-86271428D01*
X221789285Y-86309523D01*
X221865476Y-86309523D01*
X221979761Y-86271428D01*
X222436904Y-85814285D01*
X222436904Y-86309523D01*
X241736904Y-84228571D02*
X240936904Y-84228571D01*
X240936904Y-84419047D01*
X240975000Y-84533333D01*
X241051190Y-84609523D01*
X241127380Y-84647619D01*
X241279761Y-84685714D01*
X241394047Y-84685714D01*
X241546428Y-84647619D01*
X241622619Y-84609523D01*
X241698809Y-84533333D01*
X241736904Y-84419047D01*
X241736904Y-84228571D01*
X241013095Y-84990476D02*
X240975000Y-85028571D01*
X240936904Y-85104761D01*
X240936904Y-85295238D01*
X240975000Y-85371428D01*
X241013095Y-85409523D01*
X241089285Y-85447619D01*
X241165476Y-85447619D01*
X241279761Y-85409523D01*
X241736904Y-84952380D01*
X241736904Y-85447619D01*
X240936904Y-85714285D02*
X240936904Y-86209523D01*
X241241666Y-85942857D01*
X241241666Y-86057142D01*
X241279761Y-86133333D01*
X241317857Y-86171428D01*
X241394047Y-86209523D01*
X241584523Y-86209523D01*
X241660714Y-86171428D01*
X241698809Y-86133333D01*
X241736904Y-86057142D01*
X241736904Y-85828571D01*
X241698809Y-85752380D01*
X241660714Y-85714285D01*
X259316904Y-84338571D02*
X258516904Y-84338571D01*
X258516904Y-84529047D01*
X258555000Y-84643333D01*
X258631190Y-84719523D01*
X258707380Y-84757619D01*
X258859761Y-84795714D01*
X258974047Y-84795714D01*
X259126428Y-84757619D01*
X259202619Y-84719523D01*
X259278809Y-84643333D01*
X259316904Y-84529047D01*
X259316904Y-84338571D01*
X258593095Y-85100476D02*
X258555000Y-85138571D01*
X258516904Y-85214761D01*
X258516904Y-85405238D01*
X258555000Y-85481428D01*
X258593095Y-85519523D01*
X258669285Y-85557619D01*
X258745476Y-85557619D01*
X258859761Y-85519523D01*
X259316904Y-85062380D01*
X259316904Y-85557619D01*
X258783571Y-86243333D02*
X259316904Y-86243333D01*
X258478809Y-86052857D02*
X259050238Y-85862380D01*
X259050238Y-86357619D01*
X261696904Y-84278571D02*
X260896904Y-84278571D01*
X260896904Y-84469047D01*
X260935000Y-84583333D01*
X261011190Y-84659523D01*
X261087380Y-84697619D01*
X261239761Y-84735714D01*
X261354047Y-84735714D01*
X261506428Y-84697619D01*
X261582619Y-84659523D01*
X261658809Y-84583333D01*
X261696904Y-84469047D01*
X261696904Y-84278571D01*
X260973095Y-85040476D02*
X260935000Y-85078571D01*
X260896904Y-85154761D01*
X260896904Y-85345238D01*
X260935000Y-85421428D01*
X260973095Y-85459523D01*
X261049285Y-85497619D01*
X261125476Y-85497619D01*
X261239761Y-85459523D01*
X261696904Y-85002380D01*
X261696904Y-85497619D01*
X260896904Y-86221428D02*
X260896904Y-85840476D01*
X261277857Y-85802380D01*
X261239761Y-85840476D01*
X261201666Y-85916666D01*
X261201666Y-86107142D01*
X261239761Y-86183333D01*
X261277857Y-86221428D01*
X261354047Y-86259523D01*
X261544523Y-86259523D01*
X261620714Y-86221428D01*
X261658809Y-86183333D01*
X261696904Y-86107142D01*
X261696904Y-85916666D01*
X261658809Y-85840476D01*
X261620714Y-85802380D01*
X68736904Y-103428571D02*
X67936904Y-103428571D01*
X67936904Y-103619047D01*
X67975000Y-103733333D01*
X68051190Y-103809523D01*
X68127380Y-103847619D01*
X68279761Y-103885714D01*
X68394047Y-103885714D01*
X68546428Y-103847619D01*
X68622619Y-103809523D01*
X68698809Y-103733333D01*
X68736904Y-103619047D01*
X68736904Y-103428571D01*
X68013095Y-104190476D02*
X67975000Y-104228571D01*
X67936904Y-104304761D01*
X67936904Y-104495238D01*
X67975000Y-104571428D01*
X68013095Y-104609523D01*
X68089285Y-104647619D01*
X68165476Y-104647619D01*
X68279761Y-104609523D01*
X68736904Y-104152380D01*
X68736904Y-104647619D01*
X67936904Y-104914285D02*
X67936904Y-105447619D01*
X68736904Y-105104761D01*
X71236904Y-103328571D02*
X70436904Y-103328571D01*
X70436904Y-103519047D01*
X70475000Y-103633333D01*
X70551190Y-103709523D01*
X70627380Y-103747619D01*
X70779761Y-103785714D01*
X70894047Y-103785714D01*
X71046428Y-103747619D01*
X71122619Y-103709523D01*
X71198809Y-103633333D01*
X71236904Y-103519047D01*
X71236904Y-103328571D01*
X70513095Y-104090476D02*
X70475000Y-104128571D01*
X70436904Y-104204761D01*
X70436904Y-104395238D01*
X70475000Y-104471428D01*
X70513095Y-104509523D01*
X70589285Y-104547619D01*
X70665476Y-104547619D01*
X70779761Y-104509523D01*
X71236904Y-104052380D01*
X71236904Y-104547619D01*
X70779761Y-105004761D02*
X70741666Y-104928571D01*
X70703571Y-104890476D01*
X70627380Y-104852380D01*
X70589285Y-104852380D01*
X70513095Y-104890476D01*
X70475000Y-104928571D01*
X70436904Y-105004761D01*
X70436904Y-105157142D01*
X70475000Y-105233333D01*
X70513095Y-105271428D01*
X70589285Y-105309523D01*
X70627380Y-105309523D01*
X70703571Y-105271428D01*
X70741666Y-105233333D01*
X70779761Y-105157142D01*
X70779761Y-105004761D01*
X70817857Y-104928571D01*
X70855952Y-104890476D01*
X70932142Y-104852380D01*
X71084523Y-104852380D01*
X71160714Y-104890476D01*
X71198809Y-104928571D01*
X71236904Y-105004761D01*
X71236904Y-105157142D01*
X71198809Y-105233333D01*
X71160714Y-105271428D01*
X71084523Y-105309523D01*
X70932142Y-105309523D01*
X70855952Y-105271428D01*
X70817857Y-105233333D01*
X70779761Y-105157142D01*
X125736904Y-103628571D02*
X124936904Y-103628571D01*
X124936904Y-103819047D01*
X124975000Y-103933333D01*
X125051190Y-104009523D01*
X125127380Y-104047619D01*
X125279761Y-104085714D01*
X125394047Y-104085714D01*
X125546428Y-104047619D01*
X125622619Y-104009523D01*
X125698809Y-103933333D01*
X125736904Y-103819047D01*
X125736904Y-103628571D01*
X125013095Y-104390476D02*
X124975000Y-104428571D01*
X124936904Y-104504761D01*
X124936904Y-104695238D01*
X124975000Y-104771428D01*
X125013095Y-104809523D01*
X125089285Y-104847619D01*
X125165476Y-104847619D01*
X125279761Y-104809523D01*
X125736904Y-104352380D01*
X125736904Y-104847619D01*
X125736904Y-105228571D02*
X125736904Y-105380952D01*
X125698809Y-105457142D01*
X125660714Y-105495238D01*
X125546428Y-105571428D01*
X125394047Y-105609523D01*
X125089285Y-105609523D01*
X125013095Y-105571428D01*
X124975000Y-105533333D01*
X124936904Y-105457142D01*
X124936904Y-105304761D01*
X124975000Y-105228571D01*
X125013095Y-105190476D01*
X125089285Y-105152380D01*
X125279761Y-105152380D01*
X125355952Y-105190476D01*
X125394047Y-105228571D01*
X125432142Y-105304761D01*
X125432142Y-105457142D01*
X125394047Y-105533333D01*
X125355952Y-105571428D01*
X125279761Y-105609523D01*
X128236904Y-103628571D02*
X127436904Y-103628571D01*
X127436904Y-103819047D01*
X127475000Y-103933333D01*
X127551190Y-104009523D01*
X127627380Y-104047619D01*
X127779761Y-104085714D01*
X127894047Y-104085714D01*
X128046428Y-104047619D01*
X128122619Y-104009523D01*
X128198809Y-103933333D01*
X128236904Y-103819047D01*
X128236904Y-103628571D01*
X127436904Y-104352380D02*
X127436904Y-104847619D01*
X127741666Y-104580952D01*
X127741666Y-104695238D01*
X127779761Y-104771428D01*
X127817857Y-104809523D01*
X127894047Y-104847619D01*
X128084523Y-104847619D01*
X128160714Y-104809523D01*
X128198809Y-104771428D01*
X128236904Y-104695238D01*
X128236904Y-104466666D01*
X128198809Y-104390476D01*
X128160714Y-104352380D01*
X127436904Y-105342857D02*
X127436904Y-105419047D01*
X127475000Y-105495238D01*
X127513095Y-105533333D01*
X127589285Y-105571428D01*
X127741666Y-105609523D01*
X127932142Y-105609523D01*
X128084523Y-105571428D01*
X128160714Y-105533333D01*
X128198809Y-105495238D01*
X128236904Y-105419047D01*
X128236904Y-105342857D01*
X128198809Y-105266666D01*
X128160714Y-105228571D01*
X128084523Y-105190476D01*
X127932142Y-105152380D01*
X127741666Y-105152380D01*
X127589285Y-105190476D01*
X127513095Y-105228571D01*
X127475000Y-105266666D01*
X127436904Y-105342857D01*
X144856904Y-104408571D02*
X144056904Y-104408571D01*
X144056904Y-104599047D01*
X144095000Y-104713333D01*
X144171190Y-104789523D01*
X144247380Y-104827619D01*
X144399761Y-104865714D01*
X144514047Y-104865714D01*
X144666428Y-104827619D01*
X144742619Y-104789523D01*
X144818809Y-104713333D01*
X144856904Y-104599047D01*
X144856904Y-104408571D01*
X144056904Y-105132380D02*
X144056904Y-105627619D01*
X144361666Y-105360952D01*
X144361666Y-105475238D01*
X144399761Y-105551428D01*
X144437857Y-105589523D01*
X144514047Y-105627619D01*
X144704523Y-105627619D01*
X144780714Y-105589523D01*
X144818809Y-105551428D01*
X144856904Y-105475238D01*
X144856904Y-105246666D01*
X144818809Y-105170476D01*
X144780714Y-105132380D01*
X144856904Y-106389523D02*
X144856904Y-105932380D01*
X144856904Y-106160952D02*
X144056904Y-106160952D01*
X144171190Y-106084761D01*
X144247380Y-106008571D01*
X144285476Y-105932380D01*
X147366904Y-104428571D02*
X146566904Y-104428571D01*
X146566904Y-104619047D01*
X146605000Y-104733333D01*
X146681190Y-104809523D01*
X146757380Y-104847619D01*
X146909761Y-104885714D01*
X147024047Y-104885714D01*
X147176428Y-104847619D01*
X147252619Y-104809523D01*
X147328809Y-104733333D01*
X147366904Y-104619047D01*
X147366904Y-104428571D01*
X146566904Y-105152380D02*
X146566904Y-105647619D01*
X146871666Y-105380952D01*
X146871666Y-105495238D01*
X146909761Y-105571428D01*
X146947857Y-105609523D01*
X147024047Y-105647619D01*
X147214523Y-105647619D01*
X147290714Y-105609523D01*
X147328809Y-105571428D01*
X147366904Y-105495238D01*
X147366904Y-105266666D01*
X147328809Y-105190476D01*
X147290714Y-105152380D01*
X146643095Y-105952380D02*
X146605000Y-105990476D01*
X146566904Y-106066666D01*
X146566904Y-106257142D01*
X146605000Y-106333333D01*
X146643095Y-106371428D01*
X146719285Y-106409523D01*
X146795476Y-106409523D01*
X146909761Y-106371428D01*
X147366904Y-105914285D01*
X147366904Y-106409523D01*
X184176904Y-100138571D02*
X183376904Y-100138571D01*
X183376904Y-100329047D01*
X183415000Y-100443333D01*
X183491190Y-100519523D01*
X183567380Y-100557619D01*
X183719761Y-100595714D01*
X183834047Y-100595714D01*
X183986428Y-100557619D01*
X184062619Y-100519523D01*
X184138809Y-100443333D01*
X184176904Y-100329047D01*
X184176904Y-100138571D01*
X183376904Y-100862380D02*
X183376904Y-101357619D01*
X183681666Y-101090952D01*
X183681666Y-101205238D01*
X183719761Y-101281428D01*
X183757857Y-101319523D01*
X183834047Y-101357619D01*
X184024523Y-101357619D01*
X184100714Y-101319523D01*
X184138809Y-101281428D01*
X184176904Y-101205238D01*
X184176904Y-100976666D01*
X184138809Y-100900476D01*
X184100714Y-100862380D01*
X183376904Y-101624285D02*
X183376904Y-102119523D01*
X183681666Y-101852857D01*
X183681666Y-101967142D01*
X183719761Y-102043333D01*
X183757857Y-102081428D01*
X183834047Y-102119523D01*
X184024523Y-102119523D01*
X184100714Y-102081428D01*
X184138809Y-102043333D01*
X184176904Y-101967142D01*
X184176904Y-101738571D01*
X184138809Y-101662380D01*
X184100714Y-101624285D01*
X203306904Y-100308571D02*
X202506904Y-100308571D01*
X202506904Y-100499047D01*
X202545000Y-100613333D01*
X202621190Y-100689523D01*
X202697380Y-100727619D01*
X202849761Y-100765714D01*
X202964047Y-100765714D01*
X203116428Y-100727619D01*
X203192619Y-100689523D01*
X203268809Y-100613333D01*
X203306904Y-100499047D01*
X203306904Y-100308571D01*
X202506904Y-101032380D02*
X202506904Y-101527619D01*
X202811666Y-101260952D01*
X202811666Y-101375238D01*
X202849761Y-101451428D01*
X202887857Y-101489523D01*
X202964047Y-101527619D01*
X203154523Y-101527619D01*
X203230714Y-101489523D01*
X203268809Y-101451428D01*
X203306904Y-101375238D01*
X203306904Y-101146666D01*
X203268809Y-101070476D01*
X203230714Y-101032380D01*
X202773571Y-102213333D02*
X203306904Y-102213333D01*
X202468809Y-102022857D02*
X203040238Y-101832380D01*
X203040238Y-102327619D01*
X222436904Y-100138571D02*
X221636904Y-100138571D01*
X221636904Y-100329047D01*
X221675000Y-100443333D01*
X221751190Y-100519523D01*
X221827380Y-100557619D01*
X221979761Y-100595714D01*
X222094047Y-100595714D01*
X222246428Y-100557619D01*
X222322619Y-100519523D01*
X222398809Y-100443333D01*
X222436904Y-100329047D01*
X222436904Y-100138571D01*
X221636904Y-100862380D02*
X221636904Y-101357619D01*
X221941666Y-101090952D01*
X221941666Y-101205238D01*
X221979761Y-101281428D01*
X222017857Y-101319523D01*
X222094047Y-101357619D01*
X222284523Y-101357619D01*
X222360714Y-101319523D01*
X222398809Y-101281428D01*
X222436904Y-101205238D01*
X222436904Y-100976666D01*
X222398809Y-100900476D01*
X222360714Y-100862380D01*
X221636904Y-102081428D02*
X221636904Y-101700476D01*
X222017857Y-101662380D01*
X221979761Y-101700476D01*
X221941666Y-101776666D01*
X221941666Y-101967142D01*
X221979761Y-102043333D01*
X222017857Y-102081428D01*
X222094047Y-102119523D01*
X222284523Y-102119523D01*
X222360714Y-102081428D01*
X222398809Y-102043333D01*
X222436904Y-101967142D01*
X222436904Y-101776666D01*
X222398809Y-101700476D01*
X222360714Y-101662380D01*
X241286904Y-100388571D02*
X240486904Y-100388571D01*
X240486904Y-100579047D01*
X240525000Y-100693333D01*
X240601190Y-100769523D01*
X240677380Y-100807619D01*
X240829761Y-100845714D01*
X240944047Y-100845714D01*
X241096428Y-100807619D01*
X241172619Y-100769523D01*
X241248809Y-100693333D01*
X241286904Y-100579047D01*
X241286904Y-100388571D01*
X240486904Y-101112380D02*
X240486904Y-101607619D01*
X240791666Y-101340952D01*
X240791666Y-101455238D01*
X240829761Y-101531428D01*
X240867857Y-101569523D01*
X240944047Y-101607619D01*
X241134523Y-101607619D01*
X241210714Y-101569523D01*
X241248809Y-101531428D01*
X241286904Y-101455238D01*
X241286904Y-101226666D01*
X241248809Y-101150476D01*
X241210714Y-101112380D01*
X240486904Y-102293333D02*
X240486904Y-102140952D01*
X240525000Y-102064761D01*
X240563095Y-102026666D01*
X240677380Y-101950476D01*
X240829761Y-101912380D01*
X241134523Y-101912380D01*
X241210714Y-101950476D01*
X241248809Y-101988571D01*
X241286904Y-102064761D01*
X241286904Y-102217142D01*
X241248809Y-102293333D01*
X241210714Y-102331428D01*
X241134523Y-102369523D01*
X240944047Y-102369523D01*
X240867857Y-102331428D01*
X240829761Y-102293333D01*
X240791666Y-102217142D01*
X240791666Y-102064761D01*
X240829761Y-101988571D01*
X240867857Y-101950476D01*
X240944047Y-101912380D01*
X264266904Y-100593571D02*
X263466904Y-100593571D01*
X263466904Y-100784047D01*
X263505000Y-100898333D01*
X263581190Y-100974523D01*
X263657380Y-101012619D01*
X263809761Y-101050714D01*
X263924047Y-101050714D01*
X264076428Y-101012619D01*
X264152619Y-100974523D01*
X264228809Y-100898333D01*
X264266904Y-100784047D01*
X264266904Y-100593571D01*
X263466904Y-101317380D02*
X263466904Y-101812619D01*
X263771666Y-101545952D01*
X263771666Y-101660238D01*
X263809761Y-101736428D01*
X263847857Y-101774523D01*
X263924047Y-101812619D01*
X264114523Y-101812619D01*
X264190714Y-101774523D01*
X264228809Y-101736428D01*
X264266904Y-101660238D01*
X264266904Y-101431666D01*
X264228809Y-101355476D01*
X264190714Y-101317380D01*
X263466904Y-102079285D02*
X263466904Y-102612619D01*
X264266904Y-102269761D01*
X281900904Y-102565523D02*
X281100904Y-102565523D01*
X281100904Y-102756000D01*
X281139000Y-102870285D01*
X281215190Y-102946476D01*
X281291380Y-102984571D01*
X281443761Y-103022666D01*
X281558047Y-103022666D01*
X281710428Y-102984571D01*
X281786619Y-102946476D01*
X281862809Y-102870285D01*
X281900904Y-102756000D01*
X281900904Y-102565523D01*
X281977095Y-103175047D02*
X281977095Y-103784571D01*
X281900904Y-104394095D02*
X281900904Y-103936952D01*
X281900904Y-104165523D02*
X281100904Y-104165523D01*
X281215190Y-104089333D01*
X281291380Y-104013142D01*
X281329476Y-103936952D01*
X281824714Y-104736952D02*
X281862809Y-104775047D01*
X281900904Y-104736952D01*
X281862809Y-104698857D01*
X281824714Y-104736952D01*
X281900904Y-104736952D01*
X281177095Y-105079809D02*
X281139000Y-105117904D01*
X281100904Y-105194095D01*
X281100904Y-105384571D01*
X281139000Y-105460761D01*
X281177095Y-105498857D01*
X281253285Y-105536952D01*
X281329476Y-105536952D01*
X281443761Y-105498857D01*
X281900904Y-105041714D01*
X281900904Y-105536952D01*
X281100904Y-106260761D02*
X281100904Y-105879809D01*
X281481857Y-105841714D01*
X281443761Y-105879809D01*
X281405666Y-105956000D01*
X281405666Y-106146476D01*
X281443761Y-106222666D01*
X281481857Y-106260761D01*
X281558047Y-106298857D01*
X281748523Y-106298857D01*
X281824714Y-106260761D01*
X281862809Y-106222666D01*
X281900904Y-106146476D01*
X281900904Y-105956000D01*
X281862809Y-105879809D01*
X281824714Y-105841714D01*
X281367571Y-106984571D02*
X281900904Y-106984571D01*
X281367571Y-106641714D02*
X281786619Y-106641714D01*
X281862809Y-106679809D01*
X281900904Y-106756000D01*
X281900904Y-106870285D01*
X281862809Y-106946476D01*
X281824714Y-106984571D01*
X281900904Y-107784571D02*
X281900904Y-107327428D01*
X281900904Y-107556000D02*
X281100904Y-107556000D01*
X281215190Y-107479809D01*
X281291380Y-107403619D01*
X281329476Y-107327428D01*
X167577047Y-101346428D02*
X168338952Y-101346428D01*
X167958000Y-101727380D02*
X167958000Y-100965476D01*
X165037047Y-101346428D02*
X165798952Y-101346428D01*
X144254761Y-73728571D02*
X144302380Y-73871428D01*
X144302380Y-74109523D01*
X144254761Y-74204761D01*
X144207142Y-74252380D01*
X144111904Y-74300000D01*
X144016666Y-74300000D01*
X143921428Y-74252380D01*
X143873809Y-74204761D01*
X143826190Y-74109523D01*
X143778571Y-73919047D01*
X143730952Y-73823809D01*
X143683333Y-73776190D01*
X143588095Y-73728571D01*
X143492857Y-73728571D01*
X143397619Y-73776190D01*
X143350000Y-73823809D01*
X143302380Y-73919047D01*
X143302380Y-74157142D01*
X143350000Y-74300000D01*
X143302380Y-74633333D02*
X144302380Y-74871428D01*
X143588095Y-75061904D01*
X144302380Y-75252380D01*
X143302380Y-75490476D01*
X144397619Y-75633333D02*
X144397619Y-76395238D01*
X144302380Y-77204761D02*
X143826190Y-76871428D01*
X144302380Y-76633333D02*
X143302380Y-76633333D01*
X143302380Y-77014285D01*
X143350000Y-77109523D01*
X143397619Y-77157142D01*
X143492857Y-77204761D01*
X143635714Y-77204761D01*
X143730952Y-77157142D01*
X143778571Y-77109523D01*
X143826190Y-77014285D01*
X143826190Y-76633333D01*
X144254761Y-77585714D02*
X144302380Y-77728571D01*
X144302380Y-77966666D01*
X144254761Y-78061904D01*
X144207142Y-78109523D01*
X144111904Y-78157142D01*
X144016666Y-78157142D01*
X143921428Y-78109523D01*
X143873809Y-78061904D01*
X143826190Y-77966666D01*
X143778571Y-77776190D01*
X143730952Y-77680952D01*
X143683333Y-77633333D01*
X143588095Y-77585714D01*
X143492857Y-77585714D01*
X143397619Y-77633333D01*
X143350000Y-77680952D01*
X143302380Y-77776190D01*
X143302380Y-78014285D01*
X143350000Y-78157142D01*
X143302380Y-78442857D02*
X143302380Y-79014285D01*
X144302380Y-78728571D02*
X143302380Y-78728571D01*
X144302380Y-79871428D02*
X144302380Y-79300000D01*
X144302380Y-79585714D02*
X143302380Y-79585714D01*
X143445238Y-79490476D01*
X143540476Y-79395238D01*
X143588095Y-79300000D01*
X294271428Y-94360952D02*
X294271428Y-93599047D01*
X294652380Y-93980000D02*
X293890476Y-93980000D01*
X294271428Y-96900952D02*
X294271428Y-96139047D01*
X62650595Y-70302380D02*
X62650595Y-69302380D01*
X62079166Y-70302380D02*
X62507738Y-69730952D01*
X62079166Y-69302380D02*
X62650595Y-69873809D01*
X61126785Y-70302380D02*
X61698214Y-70302380D01*
X61412500Y-70302380D02*
X61412500Y-69302380D01*
X61507738Y-69445238D01*
X61602976Y-69540476D01*
X61698214Y-69588095D01*
X81700595Y-70302380D02*
X81700595Y-69302380D01*
X81129166Y-70302380D02*
X81557738Y-69730952D01*
X81129166Y-69302380D02*
X81700595Y-69873809D01*
X80748214Y-69397619D02*
X80700595Y-69350000D01*
X80605357Y-69302380D01*
X80367261Y-69302380D01*
X80272023Y-69350000D01*
X80224404Y-69397619D01*
X80176785Y-69492857D01*
X80176785Y-69588095D01*
X80224404Y-69730952D01*
X80795833Y-70302380D01*
X80176785Y-70302380D01*
X100750095Y-70302380D02*
X100750095Y-69302380D01*
X100178666Y-70302380D02*
X100607238Y-69730952D01*
X100178666Y-69302380D02*
X100750095Y-69873809D01*
X99845333Y-69302380D02*
X99226285Y-69302380D01*
X99559619Y-69683333D01*
X99416761Y-69683333D01*
X99321523Y-69730952D01*
X99273904Y-69778571D01*
X99226285Y-69873809D01*
X99226285Y-70111904D01*
X99273904Y-70207142D01*
X99321523Y-70254761D01*
X99416761Y-70302380D01*
X99702476Y-70302380D01*
X99797714Y-70254761D01*
X99845333Y-70207142D01*
X119800095Y-70302380D02*
X119800095Y-69302380D01*
X119228666Y-70302380D02*
X119657238Y-69730952D01*
X119228666Y-69302380D02*
X119800095Y-69873809D01*
X118371523Y-69635714D02*
X118371523Y-70302380D01*
X118609619Y-69254761D02*
X118847714Y-69969047D01*
X118228666Y-69969047D01*
X138850095Y-70302380D02*
X138850095Y-69302380D01*
X138278666Y-70302380D02*
X138707238Y-69730952D01*
X138278666Y-69302380D02*
X138850095Y-69873809D01*
X137373904Y-69302380D02*
X137850095Y-69302380D01*
X137897714Y-69778571D01*
X137850095Y-69730952D01*
X137754857Y-69683333D01*
X137516761Y-69683333D01*
X137421523Y-69730952D01*
X137373904Y-69778571D01*
X137326285Y-69873809D01*
X137326285Y-70111904D01*
X137373904Y-70207142D01*
X137421523Y-70254761D01*
X137516761Y-70302380D01*
X137754857Y-70302380D01*
X137850095Y-70254761D01*
X137897714Y-70207142D01*
X157900095Y-70302380D02*
X157900095Y-69302380D01*
X157328666Y-70302380D02*
X157757238Y-69730952D01*
X157328666Y-69302380D02*
X157900095Y-69873809D01*
X156471523Y-69302380D02*
X156662000Y-69302380D01*
X156757238Y-69350000D01*
X156804857Y-69397619D01*
X156900095Y-69540476D01*
X156947714Y-69730952D01*
X156947714Y-70111904D01*
X156900095Y-70207142D01*
X156852476Y-70254761D01*
X156757238Y-70302380D01*
X156566761Y-70302380D01*
X156471523Y-70254761D01*
X156423904Y-70207142D01*
X156376285Y-70111904D01*
X156376285Y-69873809D01*
X156423904Y-69778571D01*
X156471523Y-69730952D01*
X156566761Y-69683333D01*
X156757238Y-69683333D01*
X156852476Y-69730952D01*
X156900095Y-69778571D01*
X156947714Y-69873809D01*
X176950095Y-70302380D02*
X176950095Y-69302380D01*
X176378666Y-70302380D02*
X176807238Y-69730952D01*
X176378666Y-69302380D02*
X176950095Y-69873809D01*
X176045333Y-69302380D02*
X175378666Y-69302380D01*
X175807238Y-70302380D01*
X196000095Y-70302380D02*
X196000095Y-69302380D01*
X195428666Y-70302380D02*
X195857238Y-69730952D01*
X195428666Y-69302380D02*
X196000095Y-69873809D01*
X194857238Y-69730952D02*
X194952476Y-69683333D01*
X195000095Y-69635714D01*
X195047714Y-69540476D01*
X195047714Y-69492857D01*
X195000095Y-69397619D01*
X194952476Y-69350000D01*
X194857238Y-69302380D01*
X194666761Y-69302380D01*
X194571523Y-69350000D01*
X194523904Y-69397619D01*
X194476285Y-69492857D01*
X194476285Y-69540476D01*
X194523904Y-69635714D01*
X194571523Y-69683333D01*
X194666761Y-69730952D01*
X194857238Y-69730952D01*
X194952476Y-69778571D01*
X195000095Y-69826190D01*
X195047714Y-69921428D01*
X195047714Y-70111904D01*
X195000095Y-70207142D01*
X194952476Y-70254761D01*
X194857238Y-70302380D01*
X194666761Y-70302380D01*
X194571523Y-70254761D01*
X194523904Y-70207142D01*
X194476285Y-70111904D01*
X194476285Y-69921428D01*
X194523904Y-69826190D01*
X194571523Y-69778571D01*
X194666761Y-69730952D01*
X215050095Y-70302380D02*
X215050095Y-69302380D01*
X214478666Y-70302380D02*
X214907238Y-69730952D01*
X214478666Y-69302380D02*
X215050095Y-69873809D01*
X214002476Y-70302380D02*
X213812000Y-70302380D01*
X213716761Y-70254761D01*
X213669142Y-70207142D01*
X213573904Y-70064285D01*
X213526285Y-69873809D01*
X213526285Y-69492857D01*
X213573904Y-69397619D01*
X213621523Y-69350000D01*
X213716761Y-69302380D01*
X213907238Y-69302380D01*
X214002476Y-69350000D01*
X214050095Y-69397619D01*
X214097714Y-69492857D01*
X214097714Y-69730952D01*
X214050095Y-69826190D01*
X214002476Y-69873809D01*
X213907238Y-69921428D01*
X213716761Y-69921428D01*
X213621523Y-69873809D01*
X213573904Y-69826190D01*
X213526285Y-69730952D01*
X234576285Y-70302380D02*
X234576285Y-69302380D01*
X234004857Y-70302380D02*
X234433428Y-69730952D01*
X234004857Y-69302380D02*
X234576285Y-69873809D01*
X233052476Y-70302380D02*
X233623904Y-70302380D01*
X233338190Y-70302380D02*
X233338190Y-69302380D01*
X233433428Y-69445238D01*
X233528666Y-69540476D01*
X233623904Y-69588095D01*
X232433428Y-69302380D02*
X232338190Y-69302380D01*
X232242952Y-69350000D01*
X232195333Y-69397619D01*
X232147714Y-69492857D01*
X232100095Y-69683333D01*
X232100095Y-69921428D01*
X232147714Y-70111904D01*
X232195333Y-70207142D01*
X232242952Y-70254761D01*
X232338190Y-70302380D01*
X232433428Y-70302380D01*
X232528666Y-70254761D01*
X232576285Y-70207142D01*
X232623904Y-70111904D01*
X232671523Y-69921428D01*
X232671523Y-69683333D01*
X232623904Y-69492857D01*
X232576285Y-69397619D01*
X232528666Y-69350000D01*
X232433428Y-69302380D01*
X253626285Y-70302380D02*
X253626285Y-69302380D01*
X253054857Y-70302380D02*
X253483428Y-69730952D01*
X253054857Y-69302380D02*
X253626285Y-69873809D01*
X252102476Y-70302380D02*
X252673904Y-70302380D01*
X252388190Y-70302380D02*
X252388190Y-69302380D01*
X252483428Y-69445238D01*
X252578666Y-69540476D01*
X252673904Y-69588095D01*
X251150095Y-70302380D02*
X251721523Y-70302380D01*
X251435809Y-70302380D02*
X251435809Y-69302380D01*
X251531047Y-69445238D01*
X251626285Y-69540476D01*
X251721523Y-69588095D01*
X272676285Y-70302380D02*
X272676285Y-69302380D01*
X272104857Y-70302380D02*
X272533428Y-69730952D01*
X272104857Y-69302380D02*
X272676285Y-69873809D01*
X271152476Y-70302380D02*
X271723904Y-70302380D01*
X271438190Y-70302380D02*
X271438190Y-69302380D01*
X271533428Y-69445238D01*
X271628666Y-69540476D01*
X271723904Y-69588095D01*
X270771523Y-69397619D02*
X270723904Y-69350000D01*
X270628666Y-69302380D01*
X270390571Y-69302380D01*
X270295333Y-69350000D01*
X270247714Y-69397619D01*
X270200095Y-69492857D01*
X270200095Y-69588095D01*
X270247714Y-69730952D01*
X270819142Y-70302380D01*
X270200095Y-70302380D01*
X63126785Y-89352380D02*
X63126785Y-88352380D01*
X62555357Y-89352380D02*
X62983928Y-88780952D01*
X62555357Y-88352380D02*
X63126785Y-88923809D01*
X61602976Y-89352380D02*
X62174404Y-89352380D01*
X61888690Y-89352380D02*
X61888690Y-88352380D01*
X61983928Y-88495238D01*
X62079166Y-88590476D01*
X62174404Y-88638095D01*
X60745833Y-88685714D02*
X60745833Y-89352380D01*
X60983928Y-88304761D02*
X61222023Y-89019047D01*
X60602976Y-89019047D01*
X82176785Y-89352380D02*
X82176785Y-88352380D01*
X81605357Y-89352380D02*
X82033928Y-88780952D01*
X81605357Y-88352380D02*
X82176785Y-88923809D01*
X80652976Y-89352380D02*
X81224404Y-89352380D01*
X80938690Y-89352380D02*
X80938690Y-88352380D01*
X81033928Y-88495238D01*
X81129166Y-88590476D01*
X81224404Y-88638095D01*
X79748214Y-88352380D02*
X80224404Y-88352380D01*
X80272023Y-88828571D01*
X80224404Y-88780952D01*
X80129166Y-88733333D01*
X79891071Y-88733333D01*
X79795833Y-88780952D01*
X79748214Y-88828571D01*
X79700595Y-88923809D01*
X79700595Y-89161904D01*
X79748214Y-89257142D01*
X79795833Y-89304761D01*
X79891071Y-89352380D01*
X80129166Y-89352380D01*
X80224404Y-89304761D01*
X80272023Y-89257142D01*
X101226285Y-89352380D02*
X101226285Y-88352380D01*
X100654857Y-89352380D02*
X101083428Y-88780952D01*
X100654857Y-88352380D02*
X101226285Y-88923809D01*
X99702476Y-89352380D02*
X100273904Y-89352380D01*
X99988190Y-89352380D02*
X99988190Y-88352380D01*
X100083428Y-88495238D01*
X100178666Y-88590476D01*
X100273904Y-88638095D01*
X98845333Y-88352380D02*
X99035809Y-88352380D01*
X99131047Y-88400000D01*
X99178666Y-88447619D01*
X99273904Y-88590476D01*
X99321523Y-88780952D01*
X99321523Y-89161904D01*
X99273904Y-89257142D01*
X99226285Y-89304761D01*
X99131047Y-89352380D01*
X98940571Y-89352380D01*
X98845333Y-89304761D01*
X98797714Y-89257142D01*
X98750095Y-89161904D01*
X98750095Y-88923809D01*
X98797714Y-88828571D01*
X98845333Y-88780952D01*
X98940571Y-88733333D01*
X99131047Y-88733333D01*
X99226285Y-88780952D01*
X99273904Y-88828571D01*
X99321523Y-88923809D01*
X120276285Y-89352380D02*
X120276285Y-88352380D01*
X119704857Y-89352380D02*
X120133428Y-88780952D01*
X119704857Y-88352380D02*
X120276285Y-88923809D01*
X118752476Y-89352380D02*
X119323904Y-89352380D01*
X119038190Y-89352380D02*
X119038190Y-88352380D01*
X119133428Y-88495238D01*
X119228666Y-88590476D01*
X119323904Y-88638095D01*
X118419142Y-88352380D02*
X117752476Y-88352380D01*
X118181047Y-89352380D01*
X139326285Y-89352380D02*
X139326285Y-88352380D01*
X138754857Y-89352380D02*
X139183428Y-88780952D01*
X138754857Y-88352380D02*
X139326285Y-88923809D01*
X137802476Y-89352380D02*
X138373904Y-89352380D01*
X138088190Y-89352380D02*
X138088190Y-88352380D01*
X138183428Y-88495238D01*
X138278666Y-88590476D01*
X138373904Y-88638095D01*
X137231047Y-88780952D02*
X137326285Y-88733333D01*
X137373904Y-88685714D01*
X137421523Y-88590476D01*
X137421523Y-88542857D01*
X137373904Y-88447619D01*
X137326285Y-88400000D01*
X137231047Y-88352380D01*
X137040571Y-88352380D01*
X136945333Y-88400000D01*
X136897714Y-88447619D01*
X136850095Y-88542857D01*
X136850095Y-88590476D01*
X136897714Y-88685714D01*
X136945333Y-88733333D01*
X137040571Y-88780952D01*
X137231047Y-88780952D01*
X137326285Y-88828571D01*
X137373904Y-88876190D01*
X137421523Y-88971428D01*
X137421523Y-89161904D01*
X137373904Y-89257142D01*
X137326285Y-89304761D01*
X137231047Y-89352380D01*
X137040571Y-89352380D01*
X136945333Y-89304761D01*
X136897714Y-89257142D01*
X136850095Y-89161904D01*
X136850095Y-88971428D01*
X136897714Y-88876190D01*
X136945333Y-88828571D01*
X137040571Y-88780952D01*
X158376285Y-89352380D02*
X158376285Y-88352380D01*
X157804857Y-89352380D02*
X158233428Y-88780952D01*
X157804857Y-88352380D02*
X158376285Y-88923809D01*
X156852476Y-89352380D02*
X157423904Y-89352380D01*
X157138190Y-89352380D02*
X157138190Y-88352380D01*
X157233428Y-88495238D01*
X157328666Y-88590476D01*
X157423904Y-88638095D01*
X156376285Y-89352380D02*
X156185809Y-89352380D01*
X156090571Y-89304761D01*
X156042952Y-89257142D01*
X155947714Y-89114285D01*
X155900095Y-88923809D01*
X155900095Y-88542857D01*
X155947714Y-88447619D01*
X155995333Y-88400000D01*
X156090571Y-88352380D01*
X156281047Y-88352380D01*
X156376285Y-88400000D01*
X156423904Y-88447619D01*
X156471523Y-88542857D01*
X156471523Y-88780952D01*
X156423904Y-88876190D01*
X156376285Y-88923809D01*
X156281047Y-88971428D01*
X156090571Y-88971428D01*
X155995333Y-88923809D01*
X155947714Y-88876190D01*
X155900095Y-88780952D01*
X177426285Y-89352380D02*
X177426285Y-88352380D01*
X176854857Y-89352380D02*
X177283428Y-88780952D01*
X176854857Y-88352380D02*
X177426285Y-88923809D01*
X176473904Y-88447619D02*
X176426285Y-88400000D01*
X176331047Y-88352380D01*
X176092952Y-88352380D01*
X175997714Y-88400000D01*
X175950095Y-88447619D01*
X175902476Y-88542857D01*
X175902476Y-88638095D01*
X175950095Y-88780952D01*
X176521523Y-89352380D01*
X175902476Y-89352380D01*
X175283428Y-88352380D02*
X175188190Y-88352380D01*
X175092952Y-88400000D01*
X175045333Y-88447619D01*
X174997714Y-88542857D01*
X174950095Y-88733333D01*
X174950095Y-88971428D01*
X174997714Y-89161904D01*
X175045333Y-89257142D01*
X175092952Y-89304761D01*
X175188190Y-89352380D01*
X175283428Y-89352380D01*
X175378666Y-89304761D01*
X175426285Y-89257142D01*
X175473904Y-89161904D01*
X175521523Y-88971428D01*
X175521523Y-88733333D01*
X175473904Y-88542857D01*
X175426285Y-88447619D01*
X175378666Y-88400000D01*
X175283428Y-88352380D01*
X196476285Y-89352380D02*
X196476285Y-88352380D01*
X195904857Y-89352380D02*
X196333428Y-88780952D01*
X195904857Y-88352380D02*
X196476285Y-88923809D01*
X195523904Y-88447619D02*
X195476285Y-88400000D01*
X195381047Y-88352380D01*
X195142952Y-88352380D01*
X195047714Y-88400000D01*
X195000095Y-88447619D01*
X194952476Y-88542857D01*
X194952476Y-88638095D01*
X195000095Y-88780952D01*
X195571523Y-89352380D01*
X194952476Y-89352380D01*
X194000095Y-89352380D02*
X194571523Y-89352380D01*
X194285809Y-89352380D02*
X194285809Y-88352380D01*
X194381047Y-88495238D01*
X194476285Y-88590476D01*
X194571523Y-88638095D01*
X215526285Y-89352380D02*
X215526285Y-88352380D01*
X214954857Y-89352380D02*
X215383428Y-88780952D01*
X214954857Y-88352380D02*
X215526285Y-88923809D01*
X214573904Y-88447619D02*
X214526285Y-88400000D01*
X214431047Y-88352380D01*
X214192952Y-88352380D01*
X214097714Y-88400000D01*
X214050095Y-88447619D01*
X214002476Y-88542857D01*
X214002476Y-88638095D01*
X214050095Y-88780952D01*
X214621523Y-89352380D01*
X214002476Y-89352380D01*
X213621523Y-88447619D02*
X213573904Y-88400000D01*
X213478666Y-88352380D01*
X213240571Y-88352380D01*
X213145333Y-88400000D01*
X213097714Y-88447619D01*
X213050095Y-88542857D01*
X213050095Y-88638095D01*
X213097714Y-88780952D01*
X213669142Y-89352380D01*
X213050095Y-89352380D01*
X234576285Y-89352380D02*
X234576285Y-88352380D01*
X234004857Y-89352380D02*
X234433428Y-88780952D01*
X234004857Y-88352380D02*
X234576285Y-88923809D01*
X233623904Y-88447619D02*
X233576285Y-88400000D01*
X233481047Y-88352380D01*
X233242952Y-88352380D01*
X233147714Y-88400000D01*
X233100095Y-88447619D01*
X233052476Y-88542857D01*
X233052476Y-88638095D01*
X233100095Y-88780952D01*
X233671523Y-89352380D01*
X233052476Y-89352380D01*
X232719142Y-88352380D02*
X232100095Y-88352380D01*
X232433428Y-88733333D01*
X232290571Y-88733333D01*
X232195333Y-88780952D01*
X232147714Y-88828571D01*
X232100095Y-88923809D01*
X232100095Y-89161904D01*
X232147714Y-89257142D01*
X232195333Y-89304761D01*
X232290571Y-89352380D01*
X232576285Y-89352380D01*
X232671523Y-89304761D01*
X232719142Y-89257142D01*
X253626285Y-89352380D02*
X253626285Y-88352380D01*
X253054857Y-89352380D02*
X253483428Y-88780952D01*
X253054857Y-88352380D02*
X253626285Y-88923809D01*
X252673904Y-88447619D02*
X252626285Y-88400000D01*
X252531047Y-88352380D01*
X252292952Y-88352380D01*
X252197714Y-88400000D01*
X252150095Y-88447619D01*
X252102476Y-88542857D01*
X252102476Y-88638095D01*
X252150095Y-88780952D01*
X252721523Y-89352380D01*
X252102476Y-89352380D01*
X251245333Y-88685714D02*
X251245333Y-89352380D01*
X251483428Y-88304761D02*
X251721523Y-89019047D01*
X251102476Y-89019047D01*
X272676285Y-89352380D02*
X272676285Y-88352380D01*
X272104857Y-89352380D02*
X272533428Y-88780952D01*
X272104857Y-88352380D02*
X272676285Y-88923809D01*
X271723904Y-88447619D02*
X271676285Y-88400000D01*
X271581047Y-88352380D01*
X271342952Y-88352380D01*
X271247714Y-88400000D01*
X271200095Y-88447619D01*
X271152476Y-88542857D01*
X271152476Y-88638095D01*
X271200095Y-88780952D01*
X271771523Y-89352380D01*
X271152476Y-89352380D01*
X270247714Y-88352380D02*
X270723904Y-88352380D01*
X270771523Y-88828571D01*
X270723904Y-88780952D01*
X270628666Y-88733333D01*
X270390571Y-88733333D01*
X270295333Y-88780952D01*
X270247714Y-88828571D01*
X270200095Y-88923809D01*
X270200095Y-89161904D01*
X270247714Y-89257142D01*
X270295333Y-89304761D01*
X270390571Y-89352380D01*
X270628666Y-89352380D01*
X270723904Y-89304761D01*
X270771523Y-89257142D01*
X63126785Y-108402380D02*
X63126785Y-107402380D01*
X62555357Y-108402380D02*
X62983928Y-107830952D01*
X62555357Y-107402380D02*
X63126785Y-107973809D01*
X62174404Y-107497619D02*
X62126785Y-107450000D01*
X62031547Y-107402380D01*
X61793452Y-107402380D01*
X61698214Y-107450000D01*
X61650595Y-107497619D01*
X61602976Y-107592857D01*
X61602976Y-107688095D01*
X61650595Y-107830952D01*
X62222023Y-108402380D01*
X61602976Y-108402380D01*
X61269642Y-107402380D02*
X60602976Y-107402380D01*
X61031547Y-108402380D01*
X82176785Y-108402380D02*
X82176785Y-107402380D01*
X81605357Y-108402380D02*
X82033928Y-107830952D01*
X81605357Y-107402380D02*
X82176785Y-107973809D01*
X81224404Y-107497619D02*
X81176785Y-107450000D01*
X81081547Y-107402380D01*
X80843452Y-107402380D01*
X80748214Y-107450000D01*
X80700595Y-107497619D01*
X80652976Y-107592857D01*
X80652976Y-107688095D01*
X80700595Y-107830952D01*
X81272023Y-108402380D01*
X80652976Y-108402380D01*
X80081547Y-107830952D02*
X80176785Y-107783333D01*
X80224404Y-107735714D01*
X80272023Y-107640476D01*
X80272023Y-107592857D01*
X80224404Y-107497619D01*
X80176785Y-107450000D01*
X80081547Y-107402380D01*
X79891071Y-107402380D01*
X79795833Y-107450000D01*
X79748214Y-107497619D01*
X79700595Y-107592857D01*
X79700595Y-107640476D01*
X79748214Y-107735714D01*
X79795833Y-107783333D01*
X79891071Y-107830952D01*
X80081547Y-107830952D01*
X80176785Y-107878571D01*
X80224404Y-107926190D01*
X80272023Y-108021428D01*
X80272023Y-108211904D01*
X80224404Y-108307142D01*
X80176785Y-108354761D01*
X80081547Y-108402380D01*
X79891071Y-108402380D01*
X79795833Y-108354761D01*
X79748214Y-108307142D01*
X79700595Y-108211904D01*
X79700595Y-108021428D01*
X79748214Y-107926190D01*
X79795833Y-107878571D01*
X79891071Y-107830952D01*
X101226285Y-108402380D02*
X101226285Y-107402380D01*
X100654857Y-108402380D02*
X101083428Y-107830952D01*
X100654857Y-107402380D02*
X101226285Y-107973809D01*
X100273904Y-107497619D02*
X100226285Y-107450000D01*
X100131047Y-107402380D01*
X99892952Y-107402380D01*
X99797714Y-107450000D01*
X99750095Y-107497619D01*
X99702476Y-107592857D01*
X99702476Y-107688095D01*
X99750095Y-107830952D01*
X100321523Y-108402380D01*
X99702476Y-108402380D01*
X99226285Y-108402380D02*
X99035809Y-108402380D01*
X98940571Y-108354761D01*
X98892952Y-108307142D01*
X98797714Y-108164285D01*
X98750095Y-107973809D01*
X98750095Y-107592857D01*
X98797714Y-107497619D01*
X98845333Y-107450000D01*
X98940571Y-107402380D01*
X99131047Y-107402380D01*
X99226285Y-107450000D01*
X99273904Y-107497619D01*
X99321523Y-107592857D01*
X99321523Y-107830952D01*
X99273904Y-107926190D01*
X99226285Y-107973809D01*
X99131047Y-108021428D01*
X98940571Y-108021428D01*
X98845333Y-107973809D01*
X98797714Y-107926190D01*
X98750095Y-107830952D01*
X120276285Y-108402380D02*
X120276285Y-107402380D01*
X119704857Y-108402380D02*
X120133428Y-107830952D01*
X119704857Y-107402380D02*
X120276285Y-107973809D01*
X119371523Y-107402380D02*
X118752476Y-107402380D01*
X119085809Y-107783333D01*
X118942952Y-107783333D01*
X118847714Y-107830952D01*
X118800095Y-107878571D01*
X118752476Y-107973809D01*
X118752476Y-108211904D01*
X118800095Y-108307142D01*
X118847714Y-108354761D01*
X118942952Y-108402380D01*
X119228666Y-108402380D01*
X119323904Y-108354761D01*
X119371523Y-108307142D01*
X118133428Y-107402380D02*
X118038190Y-107402380D01*
X117942952Y-107450000D01*
X117895333Y-107497619D01*
X117847714Y-107592857D01*
X117800095Y-107783333D01*
X117800095Y-108021428D01*
X117847714Y-108211904D01*
X117895333Y-108307142D01*
X117942952Y-108354761D01*
X118038190Y-108402380D01*
X118133428Y-108402380D01*
X118228666Y-108354761D01*
X118276285Y-108307142D01*
X118323904Y-108211904D01*
X118371523Y-108021428D01*
X118371523Y-107783333D01*
X118323904Y-107592857D01*
X118276285Y-107497619D01*
X118228666Y-107450000D01*
X118133428Y-107402380D01*
X139326285Y-108402380D02*
X139326285Y-107402380D01*
X138754857Y-108402380D02*
X139183428Y-107830952D01*
X138754857Y-107402380D02*
X139326285Y-107973809D01*
X138421523Y-107402380D02*
X137802476Y-107402380D01*
X138135809Y-107783333D01*
X137992952Y-107783333D01*
X137897714Y-107830952D01*
X137850095Y-107878571D01*
X137802476Y-107973809D01*
X137802476Y-108211904D01*
X137850095Y-108307142D01*
X137897714Y-108354761D01*
X137992952Y-108402380D01*
X138278666Y-108402380D01*
X138373904Y-108354761D01*
X138421523Y-108307142D01*
X136850095Y-108402380D02*
X137421523Y-108402380D01*
X137135809Y-108402380D02*
X137135809Y-107402380D01*
X137231047Y-107545238D01*
X137326285Y-107640476D01*
X137421523Y-107688095D01*
X158376285Y-108402380D02*
X158376285Y-107402380D01*
X157804857Y-108402380D02*
X158233428Y-107830952D01*
X157804857Y-107402380D02*
X158376285Y-107973809D01*
X157471523Y-107402380D02*
X156852476Y-107402380D01*
X157185809Y-107783333D01*
X157042952Y-107783333D01*
X156947714Y-107830952D01*
X156900095Y-107878571D01*
X156852476Y-107973809D01*
X156852476Y-108211904D01*
X156900095Y-108307142D01*
X156947714Y-108354761D01*
X157042952Y-108402380D01*
X157328666Y-108402380D01*
X157423904Y-108354761D01*
X157471523Y-108307142D01*
X156471523Y-107497619D02*
X156423904Y-107450000D01*
X156328666Y-107402380D01*
X156090571Y-107402380D01*
X155995333Y-107450000D01*
X155947714Y-107497619D01*
X155900095Y-107592857D01*
X155900095Y-107688095D01*
X155947714Y-107830952D01*
X156519142Y-108402380D01*
X155900095Y-108402380D01*
X177426285Y-108402380D02*
X177426285Y-107402380D01*
X176854857Y-108402380D02*
X177283428Y-107830952D01*
X176854857Y-107402380D02*
X177426285Y-107973809D01*
X176521523Y-107402380D02*
X175902476Y-107402380D01*
X176235809Y-107783333D01*
X176092952Y-107783333D01*
X175997714Y-107830952D01*
X175950095Y-107878571D01*
X175902476Y-107973809D01*
X175902476Y-108211904D01*
X175950095Y-108307142D01*
X175997714Y-108354761D01*
X176092952Y-108402380D01*
X176378666Y-108402380D01*
X176473904Y-108354761D01*
X176521523Y-108307142D01*
X175569142Y-107402380D02*
X174950095Y-107402380D01*
X175283428Y-107783333D01*
X175140571Y-107783333D01*
X175045333Y-107830952D01*
X174997714Y-107878571D01*
X174950095Y-107973809D01*
X174950095Y-108211904D01*
X174997714Y-108307142D01*
X175045333Y-108354761D01*
X175140571Y-108402380D01*
X175426285Y-108402380D01*
X175521523Y-108354761D01*
X175569142Y-108307142D01*
X196476285Y-108402380D02*
X196476285Y-107402380D01*
X195904857Y-108402380D02*
X196333428Y-107830952D01*
X195904857Y-107402380D02*
X196476285Y-107973809D01*
X195571523Y-107402380D02*
X194952476Y-107402380D01*
X195285809Y-107783333D01*
X195142952Y-107783333D01*
X195047714Y-107830952D01*
X195000095Y-107878571D01*
X194952476Y-107973809D01*
X194952476Y-108211904D01*
X195000095Y-108307142D01*
X195047714Y-108354761D01*
X195142952Y-108402380D01*
X195428666Y-108402380D01*
X195523904Y-108354761D01*
X195571523Y-108307142D01*
X194095333Y-107735714D02*
X194095333Y-108402380D01*
X194333428Y-107354761D02*
X194571523Y-108069047D01*
X193952476Y-108069047D01*
X215526285Y-108402380D02*
X215526285Y-107402380D01*
X214954857Y-108402380D02*
X215383428Y-107830952D01*
X214954857Y-107402380D02*
X215526285Y-107973809D01*
X214621523Y-107402380D02*
X214002476Y-107402380D01*
X214335809Y-107783333D01*
X214192952Y-107783333D01*
X214097714Y-107830952D01*
X214050095Y-107878571D01*
X214002476Y-107973809D01*
X214002476Y-108211904D01*
X214050095Y-108307142D01*
X214097714Y-108354761D01*
X214192952Y-108402380D01*
X214478666Y-108402380D01*
X214573904Y-108354761D01*
X214621523Y-108307142D01*
X213097714Y-107402380D02*
X213573904Y-107402380D01*
X213621523Y-107878571D01*
X213573904Y-107830952D01*
X213478666Y-107783333D01*
X213240571Y-107783333D01*
X213145333Y-107830952D01*
X213097714Y-107878571D01*
X213050095Y-107973809D01*
X213050095Y-108211904D01*
X213097714Y-108307142D01*
X213145333Y-108354761D01*
X213240571Y-108402380D01*
X213478666Y-108402380D01*
X213573904Y-108354761D01*
X213621523Y-108307142D01*
X234576285Y-108402380D02*
X234576285Y-107402380D01*
X234004857Y-108402380D02*
X234433428Y-107830952D01*
X234004857Y-107402380D02*
X234576285Y-107973809D01*
X233671523Y-107402380D02*
X233052476Y-107402380D01*
X233385809Y-107783333D01*
X233242952Y-107783333D01*
X233147714Y-107830952D01*
X233100095Y-107878571D01*
X233052476Y-107973809D01*
X233052476Y-108211904D01*
X233100095Y-108307142D01*
X233147714Y-108354761D01*
X233242952Y-108402380D01*
X233528666Y-108402380D01*
X233623904Y-108354761D01*
X233671523Y-108307142D01*
X232195333Y-107402380D02*
X232385809Y-107402380D01*
X232481047Y-107450000D01*
X232528666Y-107497619D01*
X232623904Y-107640476D01*
X232671523Y-107830952D01*
X232671523Y-108211904D01*
X232623904Y-108307142D01*
X232576285Y-108354761D01*
X232481047Y-108402380D01*
X232290571Y-108402380D01*
X232195333Y-108354761D01*
X232147714Y-108307142D01*
X232100095Y-108211904D01*
X232100095Y-107973809D01*
X232147714Y-107878571D01*
X232195333Y-107830952D01*
X232290571Y-107783333D01*
X232481047Y-107783333D01*
X232576285Y-107830952D01*
X232623904Y-107878571D01*
X232671523Y-107973809D01*
X253626285Y-108402380D02*
X253626285Y-107402380D01*
X253054857Y-108402380D02*
X253483428Y-107830952D01*
X253054857Y-107402380D02*
X253626285Y-107973809D01*
X252721523Y-107402380D02*
X252102476Y-107402380D01*
X252435809Y-107783333D01*
X252292952Y-107783333D01*
X252197714Y-107830952D01*
X252150095Y-107878571D01*
X252102476Y-107973809D01*
X252102476Y-108211904D01*
X252150095Y-108307142D01*
X252197714Y-108354761D01*
X252292952Y-108402380D01*
X252578666Y-108402380D01*
X252673904Y-108354761D01*
X252721523Y-108307142D01*
X251769142Y-107402380D02*
X251102476Y-107402380D01*
X251531047Y-108402380D01*
X277138095Y-108427380D02*
X277138095Y-107427380D01*
X276566666Y-108427380D02*
X276995238Y-107855952D01*
X276566666Y-107427380D02*
X277138095Y-107998809D01*
X276376190Y-108522619D02*
X275614285Y-108522619D01*
X274852380Y-108427380D02*
X275423809Y-108427380D01*
X275138095Y-108427380D02*
X275138095Y-107427380D01*
X275233333Y-107570238D01*
X275328571Y-107665476D01*
X275423809Y-107713095D01*
X274423809Y-108332142D02*
X274376190Y-108379761D01*
X274423809Y-108427380D01*
X274471428Y-108379761D01*
X274423809Y-108332142D01*
X274423809Y-108427380D01*
X273995238Y-107522619D02*
X273947619Y-107475000D01*
X273852380Y-107427380D01*
X273614285Y-107427380D01*
X273519047Y-107475000D01*
X273471428Y-107522619D01*
X273423809Y-107617857D01*
X273423809Y-107713095D01*
X273471428Y-107855952D01*
X274042857Y-108427380D01*
X273423809Y-108427380D01*
X272519047Y-107427380D02*
X272995238Y-107427380D01*
X273042857Y-107903571D01*
X272995238Y-107855952D01*
X272900000Y-107808333D01*
X272661904Y-107808333D01*
X272566666Y-107855952D01*
X272519047Y-107903571D01*
X272471428Y-107998809D01*
X272471428Y-108236904D01*
X272519047Y-108332142D01*
X272566666Y-108379761D01*
X272661904Y-108427380D01*
X272900000Y-108427380D01*
X272995238Y-108379761D01*
X273042857Y-108332142D01*
X271614285Y-107760714D02*
X271614285Y-108427380D01*
X272042857Y-107760714D02*
X272042857Y-108284523D01*
X271995238Y-108379761D01*
X271900000Y-108427380D01*
X271757142Y-108427380D01*
X271661904Y-108379761D01*
X271614285Y-108332142D01*
X270614285Y-108427380D02*
X271185714Y-108427380D01*
X270900000Y-108427380D02*
X270900000Y-107427380D01*
X270995238Y-107570238D01*
X271090476Y-107665476D01*
X271185714Y-107713095D01*
X299370238Y-70302380D02*
X299370238Y-69302380D01*
X298798809Y-70302380D02*
X299227380Y-69730952D01*
X298798809Y-69302380D02*
X299370238Y-69873809D01*
X298608333Y-70397619D02*
X297846428Y-70397619D01*
X297275000Y-69778571D02*
X297132142Y-69826190D01*
X297084523Y-69873809D01*
X297036904Y-69969047D01*
X297036904Y-70111904D01*
X297084523Y-70207142D01*
X297132142Y-70254761D01*
X297227380Y-70302380D01*
X297608333Y-70302380D01*
X297608333Y-69302380D01*
X297275000Y-69302380D01*
X297179761Y-69350000D01*
X297132142Y-69397619D01*
X297084523Y-69492857D01*
X297084523Y-69588095D01*
X297132142Y-69683333D01*
X297179761Y-69730952D01*
X297275000Y-69778571D01*
X297608333Y-69778571D01*
X296036904Y-70207142D02*
X296084523Y-70254761D01*
X296227380Y-70302380D01*
X296322619Y-70302380D01*
X296465476Y-70254761D01*
X296560714Y-70159523D01*
X296608333Y-70064285D01*
X296655952Y-69873809D01*
X296655952Y-69730952D01*
X296608333Y-69540476D01*
X296560714Y-69445238D01*
X296465476Y-69350000D01*
X296322619Y-69302380D01*
X296227380Y-69302380D01*
X296084523Y-69350000D01*
X296036904Y-69397619D01*
X295608333Y-70302380D02*
X295608333Y-69302380D01*
X295036904Y-70302380D02*
X295465476Y-69730952D01*
X295036904Y-69302380D02*
X295608333Y-69873809D01*
X294655952Y-70254761D02*
X294513095Y-70302380D01*
X294275000Y-70302380D01*
X294179761Y-70254761D01*
X294132142Y-70207142D01*
X294084523Y-70111904D01*
X294084523Y-70016666D01*
X294132142Y-69921428D01*
X294179761Y-69873809D01*
X294275000Y-69826190D01*
X294465476Y-69778571D01*
X294560714Y-69730952D01*
X294608333Y-69683333D01*
X294655952Y-69588095D01*
X294655952Y-69492857D01*
X294608333Y-69397619D01*
X294560714Y-69350000D01*
X294465476Y-69302380D01*
X294227380Y-69302380D01*
X294084523Y-69350000D01*
X293655952Y-70302380D02*
X293655952Y-69302380D01*
X293275000Y-69302380D01*
X293179761Y-69350000D01*
X293132142Y-69397619D01*
X293084523Y-69492857D01*
X293084523Y-69635714D01*
X293132142Y-69730952D01*
X293179761Y-69778571D01*
X293275000Y-69826190D01*
X293655952Y-69826190D01*
X292084523Y-70207142D02*
X292132142Y-70254761D01*
X292275000Y-70302380D01*
X292370238Y-70302380D01*
X292513095Y-70254761D01*
X292608333Y-70159523D01*
X292655952Y-70064285D01*
X292703571Y-69873809D01*
X292703571Y-69730952D01*
X292655952Y-69540476D01*
X292608333Y-69445238D01*
X292513095Y-69350000D01*
X292370238Y-69302380D01*
X292275000Y-69302380D01*
X292132142Y-69350000D01*
X292084523Y-69397619D01*
X291132142Y-70302380D02*
X291703571Y-70302380D01*
X291417857Y-70302380D02*
X291417857Y-69302380D01*
X291513095Y-69445238D01*
X291608333Y-69540476D01*
X291703571Y-69588095D01*
X282036904Y-82928571D02*
X281236904Y-82928571D01*
X281236904Y-83119047D01*
X281275000Y-83233333D01*
X281351190Y-83309523D01*
X281427380Y-83347619D01*
X281579761Y-83385714D01*
X281694047Y-83385714D01*
X281846428Y-83347619D01*
X281922619Y-83309523D01*
X281998809Y-83233333D01*
X282036904Y-83119047D01*
X282036904Y-82928571D01*
X282113095Y-83538095D02*
X282113095Y-84147619D01*
X282036904Y-84338095D02*
X281236904Y-84338095D01*
X281998809Y-84680952D02*
X282036904Y-84795238D01*
X282036904Y-84985714D01*
X281998809Y-85061904D01*
X281960714Y-85100000D01*
X281884523Y-85138095D01*
X281808333Y-85138095D01*
X281732142Y-85100000D01*
X281694047Y-85061904D01*
X281655952Y-84985714D01*
X281617857Y-84833333D01*
X281579761Y-84757142D01*
X281541666Y-84719047D01*
X281465476Y-84680952D01*
X281389285Y-84680952D01*
X281313095Y-84719047D01*
X281275000Y-84757142D01*
X281236904Y-84833333D01*
X281236904Y-85023809D01*
X281275000Y-85138095D01*
X281236904Y-85633333D02*
X281236904Y-85785714D01*
X281275000Y-85861904D01*
X281351190Y-85938095D01*
X281503571Y-85976190D01*
X281770238Y-85976190D01*
X281922619Y-85938095D01*
X281998809Y-85861904D01*
X282036904Y-85785714D01*
X282036904Y-85633333D01*
X281998809Y-85557142D01*
X281922619Y-85480952D01*
X281770238Y-85442857D01*
X281503571Y-85442857D01*
X281351190Y-85480952D01*
X281275000Y-85557142D01*
X281236904Y-85633333D01*
X281617857Y-86319047D02*
X281617857Y-86585714D01*
X282036904Y-86700000D02*
X282036904Y-86319047D01*
X281236904Y-86319047D01*
X281236904Y-86700000D01*
X282036904Y-87042857D02*
X281236904Y-87042857D01*
X282036904Y-87500000D01*
X281236904Y-87500000D01*
X281236904Y-87766666D02*
X281236904Y-88223809D01*
X282036904Y-87995238D02*
X281236904Y-87995238D01*
X282036904Y-88947619D02*
X281655952Y-88680952D01*
X282036904Y-88490476D02*
X281236904Y-88490476D01*
X281236904Y-88795238D01*
X281275000Y-88871428D01*
X281313095Y-88909523D01*
X281389285Y-88947619D01*
X281503571Y-88947619D01*
X281579761Y-88909523D01*
X281617857Y-88871428D01*
X281655952Y-88795238D01*
X281655952Y-88490476D01*
X282036904Y-89709523D02*
X282036904Y-89252380D01*
X282036904Y-89480952D02*
X281236904Y-89480952D01*
X281351190Y-89404761D01*
X281427380Y-89328571D01*
X281465476Y-89252380D01*
D12*
X53747619Y-94474380D02*
X53652380Y-94474380D01*
X53557142Y-94522000D01*
X53509523Y-94569619D01*
X53461904Y-94664857D01*
X53414285Y-94855333D01*
X53414285Y-95093428D01*
X53461904Y-95283904D01*
X53509523Y-95379142D01*
X53557142Y-95426761D01*
X53652380Y-95474380D01*
X53747619Y-95474380D01*
X53842857Y-95426761D01*
X53890476Y-95379142D01*
X53938095Y-95283904D01*
X53985714Y-95093428D01*
X53985714Y-94855333D01*
X53938095Y-94664857D01*
X53890476Y-94569619D01*
X53842857Y-94522000D01*
X53747619Y-94474380D01*
X53747619Y-97174380D02*
X53652380Y-97174380D01*
X53557142Y-97222000D01*
X53509523Y-97269619D01*
X53461904Y-97364857D01*
X53414285Y-97555333D01*
X53414285Y-97793428D01*
X53461904Y-97983904D01*
X53509523Y-98079142D01*
X53557142Y-98126761D01*
X53652380Y-98174380D01*
X53747619Y-98174380D01*
X53842857Y-98126761D01*
X53890476Y-98079142D01*
X53938095Y-97983904D01*
X53985714Y-97793428D01*
X53985714Y-97555333D01*
X53938095Y-97364857D01*
X53890476Y-97269619D01*
X53842857Y-97222000D01*
X53747619Y-97174380D01*
X53647619Y-91074380D02*
X53552380Y-91074380D01*
X53457142Y-91122000D01*
X53409523Y-91169619D01*
X53361904Y-91264857D01*
X53314285Y-91455333D01*
X53314285Y-91693428D01*
X53361904Y-91883904D01*
X53409523Y-91979142D01*
X53457142Y-92026761D01*
X53552380Y-92074380D01*
X53647619Y-92074380D01*
X53742857Y-92026761D01*
X53790476Y-91979142D01*
X53838095Y-91883904D01*
X53885714Y-91693428D01*
X53885714Y-91455333D01*
X53838095Y-91264857D01*
X53790476Y-91169619D01*
X53742857Y-91122000D01*
X53647619Y-91074380D01*
D11*
X284633333Y-61604761D02*
X284490476Y-61652380D01*
X284252380Y-61652380D01*
X284157142Y-61604761D01*
X284109523Y-61557142D01*
X284061904Y-61461904D01*
X284061904Y-61366666D01*
X284109523Y-61271428D01*
X284157142Y-61223809D01*
X284252380Y-61176190D01*
X284442857Y-61128571D01*
X284538095Y-61080952D01*
X284585714Y-61033333D01*
X284633333Y-60938095D01*
X284633333Y-60842857D01*
X284585714Y-60747619D01*
X284538095Y-60700000D01*
X284442857Y-60652380D01*
X284204761Y-60652380D01*
X284061904Y-60700000D01*
X283728571Y-60652380D02*
X283490476Y-61652380D01*
X283300000Y-60938095D01*
X283109523Y-61652380D01*
X282871428Y-60652380D01*
X282538095Y-60747619D02*
X282490476Y-60700000D01*
X282395238Y-60652380D01*
X282157142Y-60652380D01*
X282061904Y-60700000D01*
X282014285Y-60747619D01*
X281966666Y-60842857D01*
X281966666Y-60938095D01*
X282014285Y-61080952D01*
X282585714Y-61652380D01*
X281966666Y-61652380D01*
M02*
