G04 #@! TF.GenerationSoftware,KiCad,Pcbnew,(5.1.5)-3*
G04 #@! TF.CreationDate,2020-01-08T01:13:46+02:00*
G04 #@! TF.ProjectId,PRKL30,50524b4c-3330-42e6-9b69-6361645f7063,rev?*
G04 #@! TF.SameCoordinates,Original*
G04 #@! TF.FileFunction,Legend,Top*
G04 #@! TF.FilePolarity,Positive*
%FSLAX46Y46*%
G04 Gerber Fmt 4.6, Leading zero omitted, Abs format (unit mm)*
G04 Created by KiCad (PCBNEW (5.1.5)-3) date 2020-01-08 01:13:46*
%MOMM*%
%LPD*%
G04 APERTURE LIST*
%ADD10C,0.150000*%
%ADD11C,0.381000*%
%ADD12C,0.120000*%
G04 APERTURE END LIST*
D10*
X38000488Y-80766274D02*
X37996602Y-80575837D01*
X37947049Y-80481590D01*
X37898469Y-80434953D01*
X37753698Y-80342649D01*
X37562290Y-80298927D01*
X37181417Y-80306700D01*
X37087170Y-80356252D01*
X37040533Y-80404833D01*
X36994867Y-80501023D01*
X36998753Y-80691459D01*
X37048306Y-80785706D01*
X37096886Y-80832343D01*
X37193076Y-80878009D01*
X37431122Y-80873151D01*
X37525368Y-80823599D01*
X37572006Y-80775018D01*
X37617672Y-80678828D01*
X37613785Y-80488392D01*
X37564233Y-80394145D01*
X37515652Y-80347508D01*
X37419462Y-80301842D01*
X37914986Y-81244308D02*
X37963567Y-81290946D01*
X38013119Y-81385192D01*
X38017977Y-81623238D01*
X37972311Y-81719428D01*
X37925674Y-81768009D01*
X37831427Y-81817561D01*
X37736209Y-81819504D01*
X37592410Y-81774810D01*
X37009441Y-81215160D01*
X37022072Y-81834078D01*
X37126035Y-82260617D02*
X37079397Y-82309198D01*
X37030816Y-82262561D01*
X37077454Y-82213980D01*
X37126035Y-82260617D01*
X37030816Y-82262561D01*
X37944135Y-82672582D02*
X37992715Y-82719220D01*
X38042268Y-82813466D01*
X38047126Y-83051512D01*
X38001460Y-83147702D01*
X37954822Y-83196283D01*
X37860576Y-83245835D01*
X37765357Y-83247778D01*
X37621558Y-83203084D01*
X37038589Y-82643434D01*
X37051220Y-83262352D01*
X37735237Y-84105714D02*
X37068709Y-84119317D01*
X38111252Y-83859896D02*
X37392257Y-83636424D01*
X37404888Y-84255343D01*
X38077246Y-84527395D02*
X38089877Y-85146314D01*
X37702202Y-84820823D01*
X37705117Y-84963650D01*
X37659451Y-85059840D01*
X37612814Y-85108421D01*
X37518567Y-85157973D01*
X37280521Y-85162831D01*
X37184332Y-85117165D01*
X37135751Y-85070528D01*
X37086198Y-84976281D01*
X37080369Y-84690627D01*
X37126035Y-84594437D01*
X37172672Y-84545856D01*
X37114375Y-86356946D02*
X37780903Y-86343344D01*
X37685685Y-86345287D02*
X37734266Y-86391924D01*
X37783818Y-86486171D01*
X37786733Y-86628998D01*
X37741067Y-86725188D01*
X37646820Y-86774741D01*
X37123120Y-86785428D01*
X37646820Y-86774741D02*
X37743010Y-86820407D01*
X37792563Y-86914653D01*
X37795477Y-87057481D01*
X37749812Y-87153670D01*
X37655565Y-87203223D01*
X37131864Y-87213911D01*
X37141581Y-87690002D02*
X37808108Y-87676399D01*
X37712890Y-87678343D02*
X37761471Y-87724980D01*
X37811023Y-87819227D01*
X37813938Y-87962054D01*
X37768272Y-88058244D01*
X37674026Y-88107796D01*
X37150325Y-88118484D01*
X37674026Y-88107796D02*
X37770215Y-88153462D01*
X37819768Y-88247709D01*
X37822683Y-88390536D01*
X37777017Y-88486726D01*
X37682770Y-88536279D01*
X37159070Y-88546966D01*
X38192527Y-53301826D02*
X39462527Y-115531826D01*
X98552000Y-52070000D02*
X37606229Y-53313791D01*
X99822000Y-114300000D02*
X38876229Y-115543791D01*
X39462527Y-115531826D02*
X38853243Y-114417522D01*
X39462527Y-115531826D02*
X40025841Y-114393591D01*
X38192527Y-53301826D02*
X37629213Y-54440061D01*
X38192527Y-53301826D02*
X38801811Y-54416130D01*
X175450294Y-131149554D02*
X175497960Y-131101983D01*
X175593246Y-131054458D01*
X175831341Y-131054696D01*
X175926531Y-131102409D01*
X175974103Y-131150076D01*
X176021627Y-131245361D01*
X176021532Y-131340599D01*
X175973771Y-131483409D01*
X175401774Y-132054268D01*
X176020821Y-132054885D01*
X176926578Y-131055786D02*
X176450388Y-131055312D01*
X176402295Y-131531455D01*
X176449961Y-131483883D01*
X176545247Y-131436359D01*
X176783342Y-131436596D01*
X176878532Y-131484310D01*
X176926104Y-131531977D01*
X176973628Y-131627262D01*
X176973391Y-131865357D01*
X176925677Y-131960548D01*
X176878011Y-132008119D01*
X176782725Y-132055644D01*
X176544630Y-132055406D01*
X176449440Y-132007693D01*
X176401868Y-131960026D01*
X177878959Y-131056735D02*
X177402769Y-131056261D01*
X177354675Y-131532403D01*
X177402342Y-131484832D01*
X177497627Y-131437308D01*
X177735722Y-131437545D01*
X177830913Y-131485259D01*
X177878485Y-131532925D01*
X177926009Y-131628211D01*
X177925772Y-131866306D01*
X177878058Y-131961496D01*
X177830391Y-132009068D01*
X177735106Y-132056592D01*
X177497011Y-132056355D01*
X177401820Y-132008641D01*
X177354248Y-131960975D01*
X178354248Y-131961971D02*
X178401820Y-132009637D01*
X178354153Y-132057209D01*
X178306581Y-132009542D01*
X178354248Y-131961971D01*
X178354153Y-132057209D01*
X179021815Y-131057873D02*
X179117053Y-131057968D01*
X179212244Y-131105682D01*
X179259816Y-131153348D01*
X179307340Y-131248634D01*
X179354769Y-131439157D01*
X179354532Y-131677253D01*
X179306723Y-131867681D01*
X179259009Y-131962872D01*
X179211343Y-132010443D01*
X179116057Y-132057968D01*
X179020819Y-132057873D01*
X178925629Y-132010159D01*
X178878057Y-131962492D01*
X178830533Y-131867207D01*
X178783104Y-131676683D01*
X178783341Y-131438588D01*
X178831150Y-131248160D01*
X178878863Y-131152969D01*
X178926530Y-131105397D01*
X179021815Y-131057873D01*
X180306533Y-132059153D02*
X179735105Y-132058584D01*
X180020819Y-132058869D02*
X180021815Y-131058869D01*
X179926435Y-131201632D01*
X179831102Y-131296775D01*
X179735816Y-131344299D01*
X181164671Y-131060008D02*
X180974195Y-131059818D01*
X180878910Y-131107342D01*
X180831243Y-131154914D01*
X180735863Y-131297676D01*
X180688054Y-131488105D01*
X180687675Y-131869057D01*
X180735199Y-131964342D01*
X180782771Y-132012009D01*
X180877961Y-132059723D01*
X181068437Y-132059912D01*
X181163723Y-132012388D01*
X181211389Y-131964816D01*
X181259103Y-131869626D01*
X181259340Y-131631531D01*
X181211816Y-131536245D01*
X181164245Y-131488579D01*
X181069054Y-131440865D01*
X180878578Y-131440675D01*
X180783292Y-131488199D01*
X180735626Y-131535771D01*
X180687912Y-131630962D01*
X182449389Y-132061288D02*
X182450053Y-131394621D01*
X182449958Y-131489859D02*
X182497625Y-131442288D01*
X182592910Y-131394764D01*
X182735767Y-131394906D01*
X182830958Y-131442620D01*
X182878482Y-131537905D01*
X182877960Y-132061715D01*
X182878482Y-131537905D02*
X182926196Y-131442715D01*
X183021481Y-131395191D01*
X183164338Y-131395333D01*
X183259529Y-131443047D01*
X183307053Y-131538332D01*
X183306532Y-132062141D01*
X183782722Y-132062616D02*
X183783386Y-131395949D01*
X183783291Y-131491187D02*
X183830957Y-131443616D01*
X183926243Y-131396092D01*
X184069100Y-131396234D01*
X184164291Y-131443948D01*
X184211815Y-131539233D01*
X184211293Y-132063043D01*
X184211815Y-131539233D02*
X184259529Y-131444043D01*
X184354814Y-131396519D01*
X184497671Y-131396661D01*
X184592862Y-131444375D01*
X184640386Y-131539660D01*
X184639864Y-132063469D01*
X52562184Y-130179537D02*
X307578184Y-130433537D01*
X52578000Y-114300000D02*
X52561600Y-130765958D01*
X307594000Y-114554000D02*
X307577600Y-131019958D01*
X307578184Y-130433537D02*
X306451097Y-131018835D01*
X307578184Y-130433537D02*
X306452265Y-129845995D01*
X52562184Y-130179537D02*
X53688103Y-130767079D01*
X52562184Y-130179537D02*
X53689271Y-129594239D01*
D11*
X106350000Y-54700000D02*
X108890000Y-54700000D01*
X106350000Y-52160000D02*
X106350000Y-54700000D01*
X91110000Y-82640000D02*
X91110000Y-52160000D01*
X108890000Y-82640000D02*
X91110000Y-82640000D01*
X108890000Y-52160000D02*
X108890000Y-82640000D01*
X91110000Y-52160000D02*
X108890000Y-52160000D01*
D12*
X64912500Y-66675000D02*
G75*
G03X64912500Y-66675000I-3000000J0D01*
G01*
X56012500Y-64675000D02*
X56012500Y-60575000D01*
X67812500Y-60575000D02*
X67812500Y-64675000D01*
X67812500Y-68675000D02*
X67812500Y-72775000D01*
X56012500Y-68675000D02*
X56012500Y-72775000D01*
X56012500Y-72775000D02*
X67812500Y-72775000D01*
X58112500Y-74175000D02*
X57812500Y-74475000D01*
X57812500Y-74475000D02*
X57812500Y-73875000D01*
X57812500Y-73875000D02*
X58112500Y-74175000D01*
X56012500Y-60575000D02*
X58412500Y-60575000D01*
X60612500Y-60575000D02*
X63212500Y-60575000D01*
X65412500Y-60575000D02*
X67812500Y-60575000D01*
X61412500Y-66675000D02*
X62412500Y-66675000D01*
X61912500Y-67175000D02*
X61912500Y-66175000D01*
D10*
X100228571Y-80290476D02*
X100228571Y-80623809D01*
X100752380Y-80623809D02*
X99752380Y-80623809D01*
X99752380Y-80147619D01*
X100704761Y-79385714D02*
X100752380Y-79480952D01*
X100752380Y-79671428D01*
X100704761Y-79766666D01*
X100609523Y-79814285D01*
X100228571Y-79814285D01*
X100133333Y-79766666D01*
X100085714Y-79671428D01*
X100085714Y-79480952D01*
X100133333Y-79385714D01*
X100228571Y-79338095D01*
X100323809Y-79338095D01*
X100419047Y-79814285D01*
X100752380Y-78480952D02*
X100228571Y-78480952D01*
X100133333Y-78528571D01*
X100085714Y-78623809D01*
X100085714Y-78814285D01*
X100133333Y-78909523D01*
X100704761Y-78480952D02*
X100752380Y-78576190D01*
X100752380Y-78814285D01*
X100704761Y-78909523D01*
X100609523Y-78957142D01*
X100514285Y-78957142D01*
X100419047Y-78909523D01*
X100371428Y-78814285D01*
X100371428Y-78576190D01*
X100323809Y-78480952D01*
X100085714Y-78147619D02*
X100085714Y-77766666D01*
X99752380Y-78004761D02*
X100609523Y-78004761D01*
X100704761Y-77957142D01*
X100752380Y-77861904D01*
X100752380Y-77766666D01*
X100752380Y-77433333D02*
X99752380Y-77433333D01*
X100752380Y-77004761D02*
X100228571Y-77004761D01*
X100133333Y-77052380D01*
X100085714Y-77147619D01*
X100085714Y-77290476D01*
X100133333Y-77385714D01*
X100180952Y-77433333D01*
X100704761Y-76147619D02*
X100752380Y-76242857D01*
X100752380Y-76433333D01*
X100704761Y-76528571D01*
X100609523Y-76576190D01*
X100228571Y-76576190D01*
X100133333Y-76528571D01*
X100085714Y-76433333D01*
X100085714Y-76242857D01*
X100133333Y-76147619D01*
X100228571Y-76100000D01*
X100323809Y-76100000D01*
X100419047Y-76576190D01*
X100752380Y-75671428D02*
X100085714Y-75671428D01*
X100276190Y-75671428D02*
X100180952Y-75623809D01*
X100133333Y-75576190D01*
X100085714Y-75480952D01*
X100085714Y-75385714D01*
X100752380Y-74528571D02*
X100752380Y-75100000D01*
X100752380Y-74814285D02*
X99752380Y-74814285D01*
X99895238Y-74909523D01*
X99990476Y-75004761D01*
X100038095Y-75100000D01*
X94609523Y-53952380D02*
X94276190Y-53476190D01*
X94038095Y-53952380D02*
X94038095Y-52952380D01*
X94419047Y-52952380D01*
X94514285Y-53000000D01*
X94561904Y-53047619D01*
X94609523Y-53142857D01*
X94609523Y-53285714D01*
X94561904Y-53380952D01*
X94514285Y-53428571D01*
X94419047Y-53476190D01*
X94038095Y-53476190D01*
X94990476Y-53666666D02*
X95466666Y-53666666D01*
X94895238Y-53952380D02*
X95228571Y-52952380D01*
X95561904Y-53952380D01*
X95800000Y-52952380D02*
X96038095Y-53952380D01*
X96228571Y-53238095D01*
X96419047Y-53952380D01*
X96657142Y-52952380D01*
X103361904Y-52952380D02*
X103933333Y-52952380D01*
X103647619Y-53952380D02*
X103647619Y-52952380D01*
X104171428Y-52952380D02*
X104838095Y-53952380D01*
X104838095Y-52952380D02*
X104171428Y-53952380D01*
X105409523Y-52952380D02*
X105504761Y-52952380D01*
X105600000Y-53000000D01*
X105647619Y-53047619D01*
X105695238Y-53142857D01*
X105742857Y-53333333D01*
X105742857Y-53571428D01*
X105695238Y-53761904D01*
X105647619Y-53857142D01*
X105600000Y-53904761D01*
X105504761Y-53952380D01*
X105409523Y-53952380D01*
X105314285Y-53904761D01*
X105266666Y-53857142D01*
X105219047Y-53761904D01*
X105171428Y-53571428D01*
X105171428Y-53333333D01*
X105219047Y-53142857D01*
X105266666Y-53047619D01*
X105314285Y-53000000D01*
X105409523Y-52952380D01*
X167577047Y-101346428D02*
X168338952Y-101346428D01*
X167958000Y-101727380D02*
X167958000Y-100965476D01*
X165037047Y-101346428D02*
X165798952Y-101346428D01*
X55164880Y-73970238D02*
X54164880Y-73970238D01*
X55164880Y-73398809D02*
X54593452Y-73827380D01*
X54164880Y-73398809D02*
X54736309Y-73970238D01*
X55260119Y-73208333D02*
X55260119Y-72446428D01*
X54641071Y-72208333D02*
X54641071Y-71875000D01*
X55164880Y-71732142D02*
X55164880Y-72208333D01*
X54164880Y-72208333D01*
X54164880Y-71732142D01*
X55164880Y-71303571D02*
X54164880Y-71303571D01*
X55164880Y-70732142D01*
X54164880Y-70732142D01*
X55069642Y-69684523D02*
X55117261Y-69732142D01*
X55164880Y-69875000D01*
X55164880Y-69970238D01*
X55117261Y-70113095D01*
X55022023Y-70208333D01*
X54926785Y-70255952D01*
X54736309Y-70303571D01*
X54593452Y-70303571D01*
X54402976Y-70255952D01*
X54307738Y-70208333D01*
X54212500Y-70113095D01*
X54164880Y-69970238D01*
X54164880Y-69875000D01*
X54212500Y-69732142D01*
X54260119Y-69684523D01*
X55164880Y-68732142D02*
X55164880Y-69303571D01*
X55164880Y-69017857D02*
X54164880Y-69017857D01*
X54307738Y-69113095D01*
X54402976Y-69208333D01*
X54450595Y-69303571D01*
X294271428Y-94360952D02*
X294271428Y-93599047D01*
X294652380Y-93980000D02*
X293890476Y-93980000D01*
X294271428Y-96900952D02*
X294271428Y-96139047D01*
M02*
