  0
SECTION
  2
HEADER
  9
$ANGBASE
  50
0.0
  9
$ANGDIR
  70
1
  9
$MEASUREMENT
  70
1
  0
ENDSEC
  0
SECTION
  2
TABLES
  0
TABLE
  2
LTYPE
  70
4
  0
LTYPE
  5
40F
  2
CONTINUOUS
  70
0
  3
Solid line
  72
65
  73
0
  40
0.0
  0
LTYPE
  5
410
  2
DASHDOT
 70
0
  3
Dash Dot ____ _ ____ _
 72
65
 73
4
 40
2.0
 49
1.25
 49
-0.25
 49
0.25
 49
-0.25
  0
LTYPE
  5
411
  2
DASHED
 70
0
  3
Dashed __ __ __ __ __
 72
65
 73
2
 40
0.75
 49
0.5
 49
-0.25
  0
LTYPE
  5
43B
  2
DOTTED
 70
0
  3
Dotted .  .  .  .
 72
65
 73
2
 40
0.2
 49
0.0
 49
-0.2
  0
ENDTAB
  0
TABLE
  2
STYLE
  70
4
  0
STYLE
  2
KICAD
  70
0
  40
0
  41
1
  42
1
  50
0
  71
0
  3
isocp.shx
  0
STYLE
  2
KICADB
  70
0
  40
0
  41
1
  42
1
  50
0
  71
0
  3
isocp.shx
  0
STYLE
  2
KICADI
  70
0
  40
0
  41
1
  42
1
  50
15
  71
0
  3
isocp.shx
  0
STYLE
  2
KICADBI
  70
0
  40
0
  41
1
  42
1
  50
15
  71
0
  3
isocp.shx
  0
ENDTAB
  0
TABLE
  2
LAYER
  70
1
  0
LAYER
  2
BLACK
  70
0
  62
7
  6
CONTINUOUS
  0
ENDTAB
  0
ENDSEC
  0
SECTION
  2
ENTITIES
0
LINE
8
BLACK
6
CONTINUOUS
10
287.597
20
-53.7619
11
287.604
21
-53.7633
0
LINE
8
BLACK
6
CONTINUOUS
10
287.604
20
-53.7633
11
287.611
21
-53.7646
0
LINE
8
BLACK
6
CONTINUOUS
10
287.611
20
-53.7646
11
287.648
21
-53.7759
0
LINE
8
BLACK
6
CONTINUOUS
10
287.648
20
-53.7759
11
287.649
21
-53.7762
0
LINE
8
BLACK
6
CONTINUOUS
10
287.649
20
-53.7762
11
287.655
21
-53.7789
0
LINE
8
BLACK
6
CONTINUOUS
10
287.655
20
-53.7789
11
287.661
21
-53.7815
0
LINE
8
BLACK
6
CONTINUOUS
10
287.661
20
-53.7815
11
287.696
21
-53.7998
0
LINE
8
BLACK
6
CONTINUOUS
10
287.696
20
-53.7998
11
287.696
21
-53.7998
0
LINE
8
BLACK
6
CONTINUOUS
10
287.696
20
-53.7998
11
287.697
21
-53.8003
0
LINE
8
BLACK
6
CONTINUOUS
10
287.697
20
-53.8003
11
287.702
21
-53.8041
0
LINE
8
BLACK
6
CONTINUOUS
10
287.702
20
-53.8041
11
287.708
21
-53.8079
0
LINE
8
BLACK
6
CONTINUOUS
10
287.708
20
-53.8079
11
287.738
21
-53.8326
0
LINE
8
BLACK
6
CONTINUOUS
10
287.738
20
-53.8326
11
287.739
21
-53.8332
0
LINE
8
BLACK
6
CONTINUOUS
10
287.739
20
-53.8332
11
287.744
21
-53.8381
0
LINE
8
BLACK
6
CONTINUOUS
10
287.744
20
-53.8381
11
287.749
21
-53.8429
0
LINE
8
BLACK
6
CONTINUOUS
10
287.749
20
-53.8429
11
287.774
21
-53.873
0
LINE
8
BLACK
6
CONTINUOUS
10
287.774
20
-53.873
11
287.774
21
-53.8738
0
LINE
8
BLACK
6
CONTINUOUS
10
287.774
20
-53.8738
11
287.778
21
-53.8794
0
LINE
8
BLACK
6
CONTINUOUS
10
287.778
20
-53.8794
11
287.782
21
-53.8851
0
LINE
8
BLACK
6
CONTINUOUS
10
287.782
20
-53.8851
11
287.8
21
-53.9194
0
LINE
8
BLACK
6
CONTINUOUS
10
287.8
20
-53.9194
11
287.8
21
-53.9194
0
LINE
8
BLACK
6
CONTINUOUS
10
287.8
20
-53.9194
11
287.8
21
-53.9194
0
LINE
8
BLACK
6
CONTINUOUS
10
287.8
20
-53.9194
11
287.801
21
-53.9203
0
LINE
8
BLACK
6
CONTINUOUS
10
287.801
20
-53.9203
11
287.803
21
-53.9267
0
LINE
8
BLACK
6
CONTINUOUS
10
287.803
20
-53.9267
11
287.806
21
-53.9329
0
LINE
8
BLACK
6
CONTINUOUS
10
287.806
20
-53.9329
11
287.818
21
-53.9702
0
LINE
8
BLACK
6
CONTINUOUS
10
287.818
20
-53.9702
11
287.818
21
-53.9702
0
LINE
8
BLACK
6
CONTINUOUS
10
287.818
20
-53.9702
11
287.818
21
-53.9702
0
LINE
8
BLACK
6
CONTINUOUS
10
287.818
20
-53.9702
11
287.818
21
-53.9712
0
LINE
8
BLACK
6
CONTINUOUS
10
287.818
20
-53.9712
11
287.819
21
-53.9779
0
LINE
8
BLACK
6
CONTINUOUS
10
287.819
20
-53.9779
11
287.821
21
-53.9845
0
LINE
8
BLACK
6
CONTINUOUS
10
287.821
20
-53.9845
11
287.825
21
-54.0234
0
LINE
8
BLACK
6
CONTINUOUS
10
287.825
20
-54.0234
11
287.825
21
-54.0244
0
LINE
8
BLACK
6
CONTINUOUS
10
287.825
20
-54.0244
11
287.825
21
-54.0257
0
LINE
8
BLACK
6
CONTINUOUS
10
287.825
20
-54.0257
11
287.825
21
-54.0289
0
LINE
8
BLACK
6
CONTINUOUS
10
287.825
20
-54.0289
11
287.825
21
-57.075
0
LINE
8
BLACK
6
CONTINUOUS
10
287.825
20
-57.075
11
306.204
21
-57.075
0
LINE
8
BLACK
6
CONTINUOUS
10
306.204
20
-57.075
11
306.207
21
-57.0754
0
LINE
8
BLACK
6
CONTINUOUS
10
306.207
20
-57.0754
11
306.207
21
-57.0754
0
LINE
8
BLACK
6
CONTINUOUS
10
306.207
20
-57.0754
11
306.402
21
-57.0944
0
LINE
8
BLACK
6
CONTINUOUS
10
306.402
20
-57.0944
11
306.402
21
-57.0944
0
LINE
8
BLACK
6
CONTINUOUS
10
306.402
20
-57.0944
11
306.402
21
-57.0944
0
LINE
8
BLACK
6
CONTINUOUS
10
306.402
20
-57.0944
11
306.403
21
-57.0945
0
LINE
8
BLACK
6
CONTINUOUS
10
306.403
20
-57.0945
11
306.409
21
-57.0959
0
LINE
8
BLACK
6
CONTINUOUS
10
306.409
20
-57.0959
11
306.416
21
-57.0972
0
LINE
8
BLACK
6
CONTINUOUS
10
306.416
20
-57.0972
11
306.603
21
-57.1537
0
LINE
8
BLACK
6
CONTINUOUS
10
306.603
20
-57.1537
11
306.603
21
-57.1537
0
LINE
8
BLACK
6
CONTINUOUS
10
306.603
20
-57.1537
11
306.603
21
-57.1537
0
LINE
8
BLACK
6
CONTINUOUS
10
306.603
20
-57.1537
11
306.604
21
-57.154
0
LINE
8
BLACK
6
CONTINUOUS
10
306.604
20
-57.154
11
306.61
21
-57.1566
0
LINE
8
BLACK
6
CONTINUOUS
10
306.61
20
-57.1566
11
306.616
21
-57.1592
0
LINE
8
BLACK
6
CONTINUOUS
10
306.616
20
-57.1592
11
306.789
21
-57.2509
0
LINE
8
BLACK
6
CONTINUOUS
10
306.789
20
-57.2509
11
306.789
21
-57.2509
0
LINE
8
BLACK
6
CONTINUOUS
10
306.789
20
-57.2509
11
306.79
21
-57.2514
0
LINE
8
BLACK
6
CONTINUOUS
10
306.79
20
-57.2514
11
306.795
21
-57.2552
0
LINE
8
BLACK
6
CONTINUOUS
10
306.795
20
-57.2552
11
306.801
21
-57.259
0
LINE
8
BLACK
6
CONTINUOUS
10
306.801
20
-57.259
11
306.952
21
-57.3823
0
LINE
8
BLACK
6
CONTINUOUS
10
306.952
20
-57.3823
11
306.953
21
-57.383
0
LINE
8
BLACK
6
CONTINUOUS
10
306.953
20
-57.383
11
306.958
21
-57.3878
0
LINE
8
BLACK
6
CONTINUOUS
10
306.958
20
-57.3878
11
306.962
21
-57.3926
0
LINE
8
BLACK
6
CONTINUOUS
10
306.962
20
-57.3926
11
307.087
21
-57.543
0
LINE
8
BLACK
6
CONTINUOUS
10
307.087
20
-57.543
11
307.087
21
-57.543
0
LINE
8
BLACK
6
CONTINUOUS
10
307.087
20
-57.543
11
307.087
21
-57.543
0
LINE
8
BLACK
6
CONTINUOUS
10
307.087
20
-57.543
11
307.087
21
-57.5438
0
LINE
8
BLACK
6
CONTINUOUS
10
307.087
20
-57.5438
11
307.091
21
-57.5495
0
LINE
8
BLACK
6
CONTINUOUS
10
307.091
20
-57.5495
11
307.095
21
-57.5551
0
LINE
8
BLACK
6
CONTINUOUS
10
307.095
20
-57.5551
11
307.188
21
-57.7268
0
LINE
8
BLACK
6
CONTINUOUS
10
307.188
20
-57.7268
11
307.188
21
-57.7277
0
LINE
8
BLACK
6
CONTINUOUS
10
307.188
20
-57.7277
11
307.191
21
-57.734
0
LINE
8
BLACK
6
CONTINUOUS
10
307.191
20
-57.734
11
307.194
21
-57.7403
0
LINE
8
BLACK
6
CONTINUOUS
10
307.194
20
-57.7403
11
307.251
21
-57.9267
0
LINE
8
BLACK
6
CONTINUOUS
10
307.251
20
-57.9267
11
307.252
21
-57.9277
0
LINE
8
BLACK
6
CONTINUOUS
10
307.252
20
-57.9277
11
307.253
21
-57.9344
0
LINE
8
BLACK
6
CONTINUOUS
10
307.253
20
-57.9344
11
307.254
21
-57.9411
0
LINE
8
BLACK
6
CONTINUOUS
10
307.254
20
-57.9411
11
307.275
21
-58.1352
0
LINE
8
BLACK
6
CONTINUOUS
10
307.275
20
-58.1352
11
307.275
21
-58.1362
0
LINE
8
BLACK
6
CONTINUOUS
10
307.275
20
-58.1362
11
307.275
21
-58.1395
0
LINE
8
BLACK
6
CONTINUOUS
10
307.275
20
-58.1395
11
307.275
21
-58.1428
0
LINE
8
BLACK
6
CONTINUOUS
10
307.275
20
-58.1428
11
307.275
21
-58.1462
0
LINE
8
BLACK
6
CONTINUOUS
10
307.275
20
-58.1462
11
307.275
21
-58.1463
0
LINE
8
BLACK
6
CONTINUOUS
10
307.275
20
-58.1463
11
307.275
21
-58.1494
0
LINE
8
BLACK
6
CONTINUOUS
10
307.275
20
-58.1494
11
307.275
21
-58.1497
0
LINE
8
BLACK
6
CONTINUOUS
10
307.275
20
-58.1497
11
307.275
21
-58.15
0
LINE
8
BLACK
6
CONTINUOUS
10
307.275
20
-58.15
11
307.305
21
-113.304
0
LINE
8
BLACK
6
CONTINUOUS
10
307.305
20
-113.304
11
307.305
21
-113.307
0
LINE
8
BLACK
6
CONTINUOUS
10
307.305
20
-113.307
11
307.305
21
-113.307
0
LINE
8
BLACK
6
CONTINUOUS
10
307.305
20
-113.307
11
307.286
21
-113.502
0
LINE
8
BLACK
6
CONTINUOUS
10
307.286
20
-113.502
11
307.286
21
-113.502
0
LINE
8
BLACK
6
CONTINUOUS
10
307.286
20
-113.502
11
307.286
21
-113.502
0
LINE
8
BLACK
6
CONTINUOUS
10
307.286
20
-113.502
11
307.285
21
-113.503
0
LINE
8
BLACK
6
CONTINUOUS
10
307.285
20
-113.503
11
307.284
21
-113.509
0
LINE
8
BLACK
6
CONTINUOUS
10
307.284
20
-113.509
11
307.283
21
-113.516
0
LINE
8
BLACK
6
CONTINUOUS
10
307.283
20
-113.516
11
307.226
21
-113.703
0
LINE
8
BLACK
6
CONTINUOUS
10
307.226
20
-113.703
11
307.226
21
-113.703
0
LINE
8
BLACK
6
CONTINUOUS
10
307.226
20
-113.703
11
307.226
21
-113.703
0
LINE
8
BLACK
6
CONTINUOUS
10
307.226
20
-113.703
11
307.226
21
-113.704
0
LINE
8
BLACK
6
CONTINUOUS
10
307.226
20
-113.704
11
307.223
21
-113.71
0
LINE
8
BLACK
6
CONTINUOUS
10
307.223
20
-113.71
11
307.221
21
-113.716
0
LINE
8
BLACK
6
CONTINUOUS
10
307.221
20
-113.716
11
307.129
21
-113.889
0
LINE
8
BLACK
6
CONTINUOUS
10
307.129
20
-113.889
11
307.129
21
-113.889
0
LINE
8
BLACK
6
CONTINUOUS
10
307.129
20
-113.889
11
307.129
21
-113.889
0
LINE
8
BLACK
6
CONTINUOUS
10
307.129
20
-113.889
11
307.129
21
-113.89
0
LINE
8
BLACK
6
CONTINUOUS
10
307.129
20
-113.89
11
307.125
21
-113.895
0
LINE
8
BLACK
6
CONTINUOUS
10
307.125
20
-113.895
11
307.121
21
-113.901
0
LINE
8
BLACK
6
CONTINUOUS
10
307.121
20
-113.901
11
306.998
21
-114.052
0
LINE
8
BLACK
6
CONTINUOUS
10
306.998
20
-114.052
11
306.997
21
-114.053
0
LINE
8
BLACK
6
CONTINUOUS
10
306.997
20
-114.053
11
306.992
21
-114.058
0
LINE
8
BLACK
6
CONTINUOUS
10
306.992
20
-114.058
11
306.987
21
-114.062
0
LINE
8
BLACK
6
CONTINUOUS
10
306.987
20
-114.062
11
306.837
21
-114.187
0
LINE
8
BLACK
6
CONTINUOUS
10
306.837
20
-114.187
11
306.837
21
-114.187
0
LINE
8
BLACK
6
CONTINUOUS
10
306.837
20
-114.187
11
306.837
21
-114.187
0
LINE
8
BLACK
6
CONTINUOUS
10
306.837
20
-114.187
11
306.836
21
-114.187
0
LINE
8
BLACK
6
CONTINUOUS
10
306.836
20
-114.187
11
306.831
21
-114.191
0
LINE
8
BLACK
6
CONTINUOUS
10
306.831
20
-114.191
11
306.825
21
-114.195
0
LINE
8
BLACK
6
CONTINUOUS
10
306.825
20
-114.195
11
306.653
21
-114.288
0
LINE
8
BLACK
6
CONTINUOUS
10
306.653
20
-114.288
11
306.652
21
-114.288
0
LINE
8
BLACK
6
CONTINUOUS
10
306.652
20
-114.288
11
306.646
21
-114.291
0
LINE
8
BLACK
6
CONTINUOUS
10
306.646
20
-114.291
11
306.64
21
-114.294
0
LINE
8
BLACK
6
CONTINUOUS
10
306.64
20
-114.294
11
306.453
21
-114.351
0
LINE
8
BLACK
6
CONTINUOUS
10
306.453
20
-114.351
11
306.453
21
-114.351
0
LINE
8
BLACK
6
CONTINUOUS
10
306.453
20
-114.351
11
306.452
21
-114.352
0
LINE
8
BLACK
6
CONTINUOUS
10
306.452
20
-114.352
11
306.446
21
-114.353
0
LINE
8
BLACK
6
CONTINUOUS
10
306.446
20
-114.353
11
306.439
21
-114.354
0
LINE
8
BLACK
6
CONTINUOUS
10
306.439
20
-114.354
11
306.245
21
-114.375
0
LINE
8
BLACK
6
CONTINUOUS
10
306.245
20
-114.375
11
306.244
21
-114.375
0
LINE
8
BLACK
6
CONTINUOUS
10
306.244
20
-114.375
11
306.24
21
-114.375
0
LINE
8
BLACK
6
CONTINUOUS
10
306.24
20
-114.375
11
306.237
21
-114.375
0
LINE
8
BLACK
6
CONTINUOUS
10
306.237
20
-114.375
11
306.234
21
-114.375
0
LINE
8
BLACK
6
CONTINUOUS
10
306.234
20
-114.375
11
306.234
21
-114.375
0
LINE
8
BLACK
6
CONTINUOUS
10
306.234
20
-114.375
11
306.23
21
-114.375
0
LINE
8
BLACK
6
CONTINUOUS
10
306.23
20
-114.375
11
53.3663
21
-114.375
0
LINE
8
BLACK
6
CONTINUOUS
10
53.3663
20
-114.375
11
53.3553
21
-114.374
0
LINE
8
BLACK
6
CONTINUOUS
10
53.3553
20
-114.374
11
53.355
21
-114.374
0
LINE
8
BLACK
6
CONTINUOUS
10
53.355
20
-114.374
11
53.1679
21
-114.354
0
LINE
8
BLACK
6
CONTINUOUS
10
53.1679
20
-114.354
11
53.1679
21
-114.354
0
LINE
8
BLACK
6
CONTINUOUS
10
53.1679
20
-114.354
11
53.1679
21
-114.354
0
LINE
8
BLACK
6
CONTINUOUS
10
53.1679
20
-114.354
11
53.1669
21
-114.353
0
LINE
8
BLACK
6
CONTINUOUS
10
53.1669
20
-114.353
11
53.1602
21
-114.352
0
LINE
8
BLACK
6
CONTINUOUS
10
53.1602
20
-114.352
11
53.1536
21
-114.351
0
LINE
8
BLACK
6
CONTINUOUS
10
53.1536
20
-114.351
11
52.9673
21
-114.292
0
LINE
8
BLACK
6
CONTINUOUS
10
52.9673
20
-114.292
11
52.9663
21
-114.292
0
LINE
8
BLACK
6
CONTINUOUS
10
52.9663
20
-114.292
11
52.9601
21
-114.289
0
LINE
8
BLACK
6
CONTINUOUS
10
52.9601
20
-114.289
11
52.9538
21
-114.287
0
LINE
8
BLACK
6
CONTINUOUS
10
52.9538
20
-114.287
11
52.7824
21
-114.193
0
LINE
8
BLACK
6
CONTINUOUS
10
52.7824
20
-114.193
11
52.7815
21
-114.193
0
LINE
8
BLACK
6
CONTINUOUS
10
52.7815
20
-114.193
11
52.7759
21
-114.189
0
LINE
8
BLACK
6
CONTINUOUS
10
52.7759
20
-114.189
11
52.7703
21
-114.185
0
LINE
8
BLACK
6
CONTINUOUS
10
52.7703
20
-114.185
11
52.6203
21
-114.06
0
LINE
8
BLACK
6
CONTINUOUS
10
52.6203
20
-114.06
11
52.6195
21
-114.059
0
LINE
8
BLACK
6
CONTINUOUS
10
52.6195
20
-114.059
11
52.6148
21
-114.055
0
LINE
8
BLACK
6
CONTINUOUS
10
52.6148
20
-114.055
11
52.61
21
-114.05
0
LINE
8
BLACK
6
CONTINUOUS
10
52.61
20
-114.05
11
52.4871
21
-113.898
0
LINE
8
BLACK
6
CONTINUOUS
10
52.4871
20
-113.898
11
52.4865
21
-113.897
0
LINE
8
BLACK
6
CONTINUOUS
10
52.4865
20
-113.897
11
52.4828
21
-113.892
0
LINE
8
BLACK
6
CONTINUOUS
10
52.4828
20
-113.892
11
52.4791
21
-113.886
0
LINE
8
BLACK
6
CONTINUOUS
10
52.4791
20
-113.886
11
52.388
21
-113.713
0
LINE
8
BLACK
6
CONTINUOUS
10
52.388
20
-113.713
11
52.3875
21
-113.712
0
LINE
8
BLACK
6
CONTINUOUS
10
52.3875
20
-113.712
11
52.385
21
-113.706
0
LINE
8
BLACK
6
CONTINUOUS
10
52.385
20
-113.706
11
52.3824
21
-113.7
0
LINE
8
BLACK
6
CONTINUOUS
10
52.3824
20
-113.7
11
52.3266
21
-113.513
0
LINE
8
BLACK
6
CONTINUOUS
10
52.3266
20
-113.513
11
52.3263
21
-113.512
0
LINE
8
BLACK
6
CONTINUOUS
10
52.3263
20
-113.512
11
52.3251
21
-113.505
0
LINE
8
BLACK
6
CONTINUOUS
10
52.3251
20
-113.505
11
52.3238
21
-113.498
0
LINE
8
BLACK
6
CONTINUOUS
10
52.3238
20
-113.498
11
52.3053
21
-113.307
0
LINE
8
BLACK
6
CONTINUOUS
10
52.3053
20
-113.307
11
52.3053
21
-113.307
0
LINE
8
BLACK
6
CONTINUOUS
10
52.3053
20
-113.307
11
52.305
21
-113.304
0
LINE
8
BLACK
6
CONTINUOUS
10
52.305
20
-113.304
11
52.305
21
-58.1363
0
LINE
8
BLACK
6
CONTINUOUS
10
52.305
20
-58.1363
11
52.3054
21
-58.1327
0
LINE
8
BLACK
6
CONTINUOUS
10
52.3054
20
-58.1327
11
52.3054
21
-58.1327
0
LINE
8
BLACK
6
CONTINUOUS
10
52.3054
20
-58.1327
11
52.3244
21
-57.9385
0
LINE
8
BLACK
6
CONTINUOUS
10
52.3244
20
-57.9385
11
52.3244
21
-57.9384
0
LINE
8
BLACK
6
CONTINUOUS
10
52.3244
20
-57.9384
11
52.3244
21
-57.9384
0
LINE
8
BLACK
6
CONTINUOUS
10
52.3244
20
-57.9384
11
52.3245
21
-57.9374
0
LINE
8
BLACK
6
CONTINUOUS
10
52.3245
20
-57.9374
11
52.3259
21
-57.9308
0
LINE
8
BLACK
6
CONTINUOUS
10
52.3259
20
-57.9308
11
52.3272
21
-57.9241
0
LINE
8
BLACK
6
CONTINUOUS
10
52.3272
20
-57.9241
11
52.3837
21
-57.7373
0
LINE
8
BLACK
6
CONTINUOUS
10
52.3837
20
-57.7373
11
52.3837
21
-57.7373
0
LINE
8
BLACK
6
CONTINUOUS
10
52.3837
20
-57.7373
11
52.3837
21
-57.7372
0
LINE
8
BLACK
6
CONTINUOUS
10
52.3837
20
-57.7372
11
52.384
21
-57.7363
0
LINE
8
BLACK
6
CONTINUOUS
10
52.384
20
-57.7363
11
52.3866
21
-57.73
0
LINE
8
BLACK
6
CONTINUOUS
10
52.3866
20
-57.73
11
52.3892
21
-57.7237
0
LINE
8
BLACK
6
CONTINUOUS
10
52.3892
20
-57.7237
11
52.4809
21
-57.5514
0
LINE
8
BLACK
6
CONTINUOUS
10
52.4809
20
-57.5514
11
52.4814
21
-57.5505
0
LINE
8
BLACK
6
CONTINUOUS
10
52.4814
20
-57.5505
11
52.4852
21
-57.5449
0
LINE
8
BLACK
6
CONTINUOUS
10
52.4852
20
-57.5449
11
52.489
21
-57.5392
0
LINE
8
BLACK
6
CONTINUOUS
10
52.489
20
-57.5392
11
52.6123
21
-57.388
0
LINE
8
BLACK
6
CONTINUOUS
10
52.6123
20
-57.388
11
52.613
21
-57.3872
0
LINE
8
BLACK
6
CONTINUOUS
10
52.613
20
-57.3872
11
52.6178
21
-57.3824
0
LINE
8
BLACK
6
CONTINUOUS
10
52.6178
20
-57.3824
11
52.6226
21
-57.3776
0
LINE
8
BLACK
6
CONTINUOUS
10
52.6226
20
-57.3776
11
52.773
21
-57.2532
0
LINE
8
BLACK
6
CONTINUOUS
10
52.773
20
-57.2532
11
52.773
21
-57.2532
0
LINE
8
BLACK
6
CONTINUOUS
10
52.773
20
-57.2532
11
52.773
21
-57.2532
0
LINE
8
BLACK
6
CONTINUOUS
10
52.773
20
-57.2532
11
52.7738
21
-57.2525
0
LINE
8
BLACK
6
CONTINUOUS
10
52.7738
20
-57.2525
11
52.7795
21
-57.2488
0
LINE
8
BLACK
6
CONTINUOUS
10
52.7795
20
-57.2488
11
52.7851
21
-57.245
0
LINE
8
BLACK
6
CONTINUOUS
10
52.7851
20
-57.245
11
52.9568
21
-57.1522
0
LINE
8
BLACK
6
CONTINUOUS
10
52.9568
20
-57.1522
11
52.9577
21
-57.1517
0
LINE
8
BLACK
6
CONTINUOUS
10
52.9577
20
-57.1517
11
52.964
21
-57.1491
0
LINE
8
BLACK
6
CONTINUOUS
10
52.964
20
-57.1491
11
52.9703
21
-57.1465
0
LINE
8
BLACK
6
CONTINUOUS
10
52.9703
20
-57.1465
11
53.1567
21
-57.0888
0
LINE
8
BLACK
6
CONTINUOUS
10
53.1567
20
-57.0888
11
53.1567
21
-57.0888
0
LINE
8
BLACK
6
CONTINUOUS
10
53.1567
20
-57.0888
11
53.1577
21
-57.0885
0
LINE
8
BLACK
6
CONTINUOUS
10
53.1577
20
-57.0885
11
53.1644
21
-57.0872
0
LINE
8
BLACK
6
CONTINUOUS
10
53.1644
20
-57.0872
11
53.1711
21
-57.0858
0
LINE
8
BLACK
6
CONTINUOUS
10
53.1711
20
-57.0858
11
53.3652
21
-57.0654
0
LINE
8
BLACK
6
CONTINUOUS
10
53.3652
20
-57.0654
11
53.3662
21
-57.0653
0
LINE
8
BLACK
6
CONTINUOUS
10
53.3662
20
-57.0653
11
53.3695
21
-57.0654
0
LINE
8
BLACK
6
CONTINUOUS
10
53.3695
20
-57.0654
11
53.3728
21
-57.065
0
LINE
8
BLACK
6
CONTINUOUS
10
53.3728
20
-57.065
11
53.3762
21
-57.065
0
LINE
8
BLACK
6
CONTINUOUS
10
53.3762
20
-57.065
11
53.3763
21
-57.065
0
LINE
8
BLACK
6
CONTINUOUS
10
53.3763
20
-57.065
11
87.7397
21
-57.075
0
LINE
8
BLACK
6
CONTINUOUS
10
87.7397
20
-57.075
11
87.7397
21
-57.075
0
LINE
8
BLACK
6
CONTINUOUS
10
87.7397
20
-57.075
11
87.7429
21
-57.075
0
LINE
8
BLACK
6
CONTINUOUS
10
87.7429
20
-57.075
11
87.9259
21
-57.0558
0
LINE
8
BLACK
6
CONTINUOUS
10
87.9259
20
-57.0558
11
88.0983
21
-57.0024
0
LINE
8
BLACK
6
CONTINUOUS
10
88.0983
20
-57.0024
11
88.2571
21
-56.9166
0
LINE
8
BLACK
6
CONTINUOUS
10
88.2571
20
-56.9166
11
88.3961
21
-56.8015
0
LINE
8
BLACK
6
CONTINUOUS
10
88.3961
20
-56.8015
11
88.5102
21
-56.6617
0
LINE
8
BLACK
6
CONTINUOUS
10
88.5102
20
-56.6617
11
88.5949
21
-56.5024
0
LINE
8
BLACK
6
CONTINUOUS
10
88.5949
20
-56.5024
11
88.647
21
-56.3296
0
LINE
8
BLACK
6
CONTINUOUS
10
88.647
20
-56.3296
11
88.665
21
-56.1463
0
LINE
8
BLACK
6
CONTINUOUS
10
88.665
20
-56.1463
11
88.665
21
-53.0663
0
LINE
8
BLACK
6
CONTINUOUS
10
88.665
20
-53.0663
11
88.6654
21
-53.0627
0
LINE
8
BLACK
6
CONTINUOUS
10
88.6654
20
-53.0627
11
88.6654
21
-53.0627
0
LINE
8
BLACK
6
CONTINUOUS
10
88.6654
20
-53.0627
11
88.6844
21
-52.8685
0
LINE
8
BLACK
6
CONTINUOUS
10
88.6844
20
-52.8685
11
88.6844
21
-52.8684
0
LINE
8
BLACK
6
CONTINUOUS
10
88.6844
20
-52.8684
11
88.6844
21
-52.8684
0
LINE
8
BLACK
6
CONTINUOUS
10
88.6844
20
-52.8684
11
88.6845
21
-52.8674
0
LINE
8
BLACK
6
CONTINUOUS
10
88.6845
20
-52.8674
11
88.6859
21
-52.8608
0
LINE
8
BLACK
6
CONTINUOUS
10
88.6859
20
-52.8608
11
88.6872
21
-52.8541
0
LINE
8
BLACK
6
CONTINUOUS
10
88.6872
20
-52.8541
11
88.7437
21
-52.6673
0
LINE
8
BLACK
6
CONTINUOUS
10
88.7437
20
-52.6673
11
88.7437
21
-52.6673
0
LINE
8
BLACK
6
CONTINUOUS
10
88.7437
20
-52.6673
11
88.7437
21
-52.6672
0
LINE
8
BLACK
6
CONTINUOUS
10
88.7437
20
-52.6672
11
88.744
21
-52.6663
0
LINE
8
BLACK
6
CONTINUOUS
10
88.744
20
-52.6663
11
88.7466
21
-52.66
0
LINE
8
BLACK
6
CONTINUOUS
10
88.7466
20
-52.66
11
88.7492
21
-52.6537
0
LINE
8
BLACK
6
CONTINUOUS
10
88.7492
20
-52.6537
11
88.8409
21
-52.4814
0
LINE
8
BLACK
6
CONTINUOUS
10
88.8409
20
-52.4814
11
88.8414
21
-52.4805
0
LINE
8
BLACK
6
CONTINUOUS
10
88.8414
20
-52.4805
11
88.8452
21
-52.4749
0
LINE
8
BLACK
6
CONTINUOUS
10
88.8452
20
-52.4749
11
88.849
21
-52.4692
0
LINE
8
BLACK
6
CONTINUOUS
10
88.849
20
-52.4692
11
88.9723
21
-52.318
0
LINE
8
BLACK
6
CONTINUOUS
10
88.9723
20
-52.318
11
88.973
21
-52.3172
0
LINE
8
BLACK
6
CONTINUOUS
10
88.973
20
-52.3172
11
88.9778
21
-52.3124
0
LINE
8
BLACK
6
CONTINUOUS
10
88.9778
20
-52.3124
11
88.9826
21
-52.3076
0
LINE
8
BLACK
6
CONTINUOUS
10
88.9826
20
-52.3076
11
89.133
21
-52.1832
0
LINE
8
BLACK
6
CONTINUOUS
10
89.133
20
-52.1832
11
89.133
21
-52.1832
0
LINE
8
BLACK
6
CONTINUOUS
10
89.133
20
-52.1832
11
89.133
21
-52.1832
0
LINE
8
BLACK
6
CONTINUOUS
10
89.133
20
-52.1832
11
89.1338
21
-52.1825
0
LINE
8
BLACK
6
CONTINUOUS
10
89.1338
20
-52.1825
11
89.1395
21
-52.1788
0
LINE
8
BLACK
6
CONTINUOUS
10
89.1395
20
-52.1788
11
89.1451
21
-52.175
0
LINE
8
BLACK
6
CONTINUOUS
10
89.1451
20
-52.175
11
89.3168
21
-52.0822
0
LINE
8
BLACK
6
CONTINUOUS
10
89.3168
20
-52.0822
11
89.3177
21
-52.0817
0
LINE
8
BLACK
6
CONTINUOUS
10
89.3177
20
-52.0817
11
89.324
21
-52.0791
0
LINE
8
BLACK
6
CONTINUOUS
10
89.324
20
-52.0791
11
89.3303
21
-52.0765
0
LINE
8
BLACK
6
CONTINUOUS
10
89.3303
20
-52.0765
11
89.5167
21
-52.0188
0
LINE
8
BLACK
6
CONTINUOUS
10
89.5167
20
-52.0188
11
89.5167
21
-52.0188
0
LINE
8
BLACK
6
CONTINUOUS
10
89.5167
20
-52.0188
11
89.5177
21
-52.0185
0
LINE
8
BLACK
6
CONTINUOUS
10
89.5177
20
-52.0185
11
89.5244
21
-52.0172
0
LINE
8
BLACK
6
CONTINUOUS
10
89.5244
20
-52.0172
11
89.5311
21
-52.0158
0
LINE
8
BLACK
6
CONTINUOUS
10
89.5311
20
-52.0158
11
89.7252
21
-51.9954
0
LINE
8
BLACK
6
CONTINUOUS
10
89.7252
20
-51.9954
11
89.7262
21
-51.9953
0
LINE
8
BLACK
6
CONTINUOUS
10
89.7262
20
-51.9953
11
89.7295
21
-51.9954
0
LINE
8
BLACK
6
CONTINUOUS
10
89.7295
20
-51.9954
11
89.7328
21
-51.995
0
LINE
8
BLACK
6
CONTINUOUS
10
89.7328
20
-51.995
11
89.7362
21
-51.995
0
LINE
8
BLACK
6
CONTINUOUS
10
89.7362
20
-51.995
11
89.7364
21
-51.995
0
LINE
8
BLACK
6
CONTINUOUS
10
89.7364
20
-51.995
11
89.7396
21
-51.995
0
LINE
8
BLACK
6
CONTINUOUS
10
89.7396
20
-51.995
11
89.7397
21
-51.995
0
LINE
8
BLACK
6
CONTINUOUS
10
89.7397
20
-51.995
11
89.7399
21
-51.995
0
LINE
8
BLACK
6
CONTINUOUS
10
89.7399
20
-51.995
11
110.594
21
-52.005
0
LINE
8
BLACK
6
CONTINUOUS
10
110.594
20
-52.005
11
110.597
21
-52.0053
0
LINE
8
BLACK
6
CONTINUOUS
10
110.597
20
-52.0053
11
110.597
21
-52.0053
0
LINE
8
BLACK
6
CONTINUOUS
10
110.597
20
-52.0053
11
110.792
21
-52.0244
0
LINE
8
BLACK
6
CONTINUOUS
10
110.792
20
-52.0244
11
110.792
21
-52.0244
0
LINE
8
BLACK
6
CONTINUOUS
10
110.792
20
-52.0244
11
110.792
21
-52.0244
0
LINE
8
BLACK
6
CONTINUOUS
10
110.792
20
-52.0244
11
110.793
21
-52.0245
0
LINE
8
BLACK
6
CONTINUOUS
10
110.793
20
-52.0245
11
110.799
21
-52.0259
0
LINE
8
BLACK
6
CONTINUOUS
10
110.799
20
-52.0259
11
110.806
21
-52.0272
0
LINE
8
BLACK
6
CONTINUOUS
10
110.806
20
-52.0272
11
110.993
21
-52.0836
0
LINE
8
BLACK
6
CONTINUOUS
10
110.993
20
-52.0836
11
110.994
21
-52.084
0
LINE
8
BLACK
6
CONTINUOUS
10
110.994
20
-52.084
11
111
21
-52.0866
0
LINE
8
BLACK
6
CONTINUOUS
10
111
20
-52.0866
11
111.006
21
-52.0892
0
LINE
8
BLACK
6
CONTINUOUS
10
111.006
20
-52.0892
11
111.179
21
-52.1808
0
LINE
8
BLACK
6
CONTINUOUS
10
111.179
20
-52.1808
11
111.179
21
-52.1808
0
LINE
8
BLACK
6
CONTINUOUS
10
111.179
20
-52.1808
11
111.179
21
-52.1809
0
LINE
8
BLACK
6
CONTINUOUS
10
111.179
20
-52.1809
11
111.18
21
-52.1813
0
LINE
8
BLACK
6
CONTINUOUS
10
111.18
20
-52.1813
11
111.185
21
-52.1852
0
LINE
8
BLACK
6
CONTINUOUS
10
111.185
20
-52.1852
11
111.191
21
-52.1889
0
LINE
8
BLACK
6
CONTINUOUS
10
111.191
20
-52.1889
11
111.342
21
-52.3123
0
LINE
8
BLACK
6
CONTINUOUS
10
111.342
20
-52.3123
11
111.342
21
-52.3123
0
LINE
8
BLACK
6
CONTINUOUS
10
111.342
20
-52.3123
11
111.342
21
-52.3123
0
LINE
8
BLACK
6
CONTINUOUS
10
111.342
20
-52.3123
11
111.343
21
-52.313
0
LINE
8
BLACK
6
CONTINUOUS
10
111.343
20
-52.313
11
111.348
21
-52.3178
0
LINE
8
BLACK
6
CONTINUOUS
10
111.348
20
-52.3178
11
111.352
21
-52.3226
0
LINE
8
BLACK
6
CONTINUOUS
10
111.352
20
-52.3226
11
111.477
21
-52.473
0
LINE
8
BLACK
6
CONTINUOUS
10
111.477
20
-52.473
11
111.477
21
-52.4738
0
LINE
8
BLACK
6
CONTINUOUS
10
111.477
20
-52.4738
11
111.481
21
-52.4795
0
LINE
8
BLACK
6
CONTINUOUS
10
111.481
20
-52.4795
11
111.485
21
-52.4851
0
LINE
8
BLACK
6
CONTINUOUS
10
111.485
20
-52.4851
11
111.578
21
-52.6568
0
LINE
8
BLACK
6
CONTINUOUS
10
111.578
20
-52.6568
11
111.578
21
-52.6577
0
LINE
8
BLACK
6
CONTINUOUS
10
111.578
20
-52.6577
11
111.581
21
-52.664
0
LINE
8
BLACK
6
CONTINUOUS
10
111.581
20
-52.664
11
111.584
21
-52.6703
0
LINE
8
BLACK
6
CONTINUOUS
10
111.584
20
-52.6703
11
111.641
21
-52.8567
0
LINE
8
BLACK
6
CONTINUOUS
10
111.641
20
-52.8567
11
111.642
21
-52.8577
0
LINE
8
BLACK
6
CONTINUOUS
10
111.642
20
-52.8577
11
111.643
21
-52.8644
0
LINE
8
BLACK
6
CONTINUOUS
10
111.643
20
-52.8644
11
111.644
21
-52.8711
0
LINE
8
BLACK
6
CONTINUOUS
10
111.644
20
-52.8711
11
111.665
21
-53.0652
0
LINE
8
BLACK
6
CONTINUOUS
10
111.665
20
-53.0652
11
111.665
21
-53.0662
0
LINE
8
BLACK
6
CONTINUOUS
10
111.665
20
-53.0662
11
111.665
21
-53.068
0
LINE
8
BLACK
6
CONTINUOUS
10
111.665
20
-53.068
11
111.665
21
-53.0713
0
LINE
8
BLACK
6
CONTINUOUS
10
111.665
20
-53.0713
11
111.665
21
-56.1497
0
LINE
8
BLACK
6
CONTINUOUS
10
111.665
20
-56.1497
11
111.665
21
-56.1529
0
LINE
8
BLACK
6
CONTINUOUS
10
111.665
20
-56.1529
11
111.684
21
-56.3359
0
LINE
8
BLACK
6
CONTINUOUS
10
111.684
20
-56.3359
11
111.738
21
-56.5083
0
LINE
8
BLACK
6
CONTINUOUS
10
111.738
20
-56.5083
11
111.823
21
-56.6671
0
LINE
8
BLACK
6
CONTINUOUS
10
111.823
20
-56.6671
11
111.938
21
-56.8061
0
LINE
8
BLACK
6
CONTINUOUS
10
111.938
20
-56.8061
11
112.078
21
-56.9202
0
LINE
8
BLACK
6
CONTINUOUS
10
112.078
20
-56.9202
11
112.238
21
-57.0049
0
LINE
8
BLACK
6
CONTINUOUS
10
112.238
20
-57.0049
11
112.41
21
-57.057
0
LINE
8
BLACK
6
CONTINUOUS
10
112.41
20
-57.057
11
112.594
21
-57.075
0
LINE
8
BLACK
6
CONTINUOUS
10
112.594
20
-57.075
11
278.775
21
-57.075
0
LINE
8
BLACK
6
CONTINUOUS
10
278.775
20
-57.075
11
278.775
21
-54.0389
0
LINE
8
BLACK
6
CONTINUOUS
10
278.775
20
-54.0389
11
278.775
21
-54.0371
0
LINE
8
BLACK
6
CONTINUOUS
10
278.775
20
-54.0371
11
278.777
21
-54
0
LINE
8
BLACK
6
CONTINUOUS
10
278.777
20
-54
11
278.777
21
-54
0
LINE
8
BLACK
6
CONTINUOUS
10
278.777
20
-54
11
278.777
21
-54
0
LINE
8
BLACK
6
CONTINUOUS
10
278.777
20
-54
11
278.777
21
-53.999
0
LINE
8
BLACK
6
CONTINUOUS
10
278.777
20
-53.999
11
278.778
21
-53.9923
0
LINE
8
BLACK
6
CONTINUOUS
10
278.778
20
-53.9923
11
278.779
21
-53.9855
0
LINE
8
BLACK
6
CONTINUOUS
10
278.779
20
-53.9855
11
278.789
21
-53.9477
0
LINE
8
BLACK
6
CONTINUOUS
10
278.789
20
-53.9477
11
278.789
21
-53.9477
0
LINE
8
BLACK
6
CONTINUOUS
10
278.789
20
-53.9477
11
278.789
21
-53.9476
0
LINE
8
BLACK
6
CONTINUOUS
10
278.789
20
-53.9476
11
278.789
21
-53.9466
0
LINE
8
BLACK
6
CONTINUOUS
10
278.789
20
-53.9466
11
278.791
21
-53.9403
0
LINE
8
BLACK
6
CONTINUOUS
10
278.791
20
-53.9403
11
278.794
21
-53.9339
0
LINE
8
BLACK
6
CONTINUOUS
10
278.794
20
-53.9339
11
278.81
21
-53.8985
0
LINE
8
BLACK
6
CONTINUOUS
10
278.81
20
-53.8985
11
278.811
21
-53.8976
0
LINE
8
BLACK
6
CONTINUOUS
10
278.811
20
-53.8976
11
278.814
21
-53.8918
0
LINE
8
BLACK
6
CONTINUOUS
10
278.814
20
-53.8918
11
278.818
21
-53.8859
0
LINE
8
BLACK
6
CONTINUOUS
10
278.818
20
-53.8859
11
278.841
21
-53.8545
0
LINE
8
BLACK
6
CONTINUOUS
10
278.841
20
-53.8545
11
278.841
21
-53.8545
0
LINE
8
BLACK
6
CONTINUOUS
10
278.841
20
-53.8545
11
278.841
21
-53.8545
0
LINE
8
BLACK
6
CONTINUOUS
10
278.841
20
-53.8545
11
278.841
21
-53.8537
0
LINE
8
BLACK
6
CONTINUOUS
10
278.841
20
-53.8537
11
278.846
21
-53.8487
0
LINE
8
BLACK
6
CONTINUOUS
10
278.846
20
-53.8487
11
278.851
21
-53.8436
0
LINE
8
BLACK
6
CONTINUOUS
10
278.851
20
-53.8436
11
278.879
21
-53.8173
0
LINE
8
BLACK
6
CONTINUOUS
10
278.879
20
-53.8173
11
278.88
21
-53.8166
0
LINE
8
BLACK
6
CONTINUOUS
10
278.88
20
-53.8166
11
278.886
21
-53.8125
0
LINE
8
BLACK
6
CONTINUOUS
10
278.886
20
-53.8125
11
278.891
21
-53.8085
0
LINE
8
BLACK
6
CONTINUOUS
10
278.891
20
-53.8085
11
278.924
21
-53.7882
0
LINE
8
BLACK
6
CONTINUOUS
10
278.924
20
-53.7882
11
278.924
21
-53.7882
0
LINE
8
BLACK
6
CONTINUOUS
10
278.924
20
-53.7882
11
278.924
21
-53.7882
0
LINE
8
BLACK
6
CONTINUOUS
10
278.924
20
-53.7882
11
278.925
21
-53.7877
0
LINE
8
BLACK
6
CONTINUOUS
10
278.925
20
-53.7877
11
278.932
21
-53.7848
0
LINE
8
BLACK
6
CONTINUOUS
10
278.932
20
-53.7848
11
278.938
21
-53.7819
0
LINE
8
BLACK
6
CONTINUOUS
10
278.938
20
-53.7819
11
278.974
21
-53.7685
0
LINE
8
BLACK
6
CONTINUOUS
10
278.974
20
-53.7685
11
278.974
21
-53.7685
0
LINE
8
BLACK
6
CONTINUOUS
10
278.974
20
-53.7685
11
278.974
21
-53.7685
0
LINE
8
BLACK
6
CONTINUOUS
10
278.974
20
-53.7685
11
278.975
21
-53.7681
0
LINE
8
BLACK
6
CONTINUOUS
10
278.975
20
-53.7681
11
278.982
21
-53.7665
0
LINE
8
BLACK
6
CONTINUOUS
10
278.982
20
-53.7665
11
278.988
21
-53.7648
0
LINE
8
BLACK
6
CONTINUOUS
10
278.988
20
-53.7648
11
279.027
21
-53.7588
0
LINE
8
BLACK
6
CONTINUOUS
10
279.027
20
-53.7588
11
279.028
21
-53.7587
0
LINE
8
BLACK
6
CONTINUOUS
10
279.028
20
-53.7587
11
279.032
21
-53.7585
0
LINE
8
BLACK
6
CONTINUOUS
10
279.032
20
-53.7585
11
279.036
21
-53.758
0
LINE
8
BLACK
6
CONTINUOUS
10
279.036
20
-53.758
11
279.045
21
-53.7577
0
LINE
8
BLACK
6
CONTINUOUS
10
279.045
20
-53.7577
11
279.046
21
-53.7576
0
LINE
8
BLACK
6
CONTINUOUS
10
279.046
20
-53.7576
11
287.554
21
-53.7576
0
LINE
8
BLACK
6
CONTINUOUS
10
287.554
20
-53.7576
11
287.557
21
-53.758
0
LINE
8
BLACK
6
CONTINUOUS
10
287.557
20
-53.758
11
287.557
21
-53.758
0
LINE
8
BLACK
6
CONTINUOUS
10
287.557
20
-53.758
11
287.596
21
-53.7618
0
LINE
8
BLACK
6
CONTINUOUS
10
287.596
20
-53.7618
11
287.596
21
-53.7618
0
LINE
8
BLACK
6
CONTINUOUS
10
287.596
20
-53.7618
11
287.597
21
-53.7619
0
LINE
8
BLACK
6
CONTINUOUS
10
87.9623
20
-57.2015
11
87.9556
21
-57.2028
0
LINE
8
BLACK
6
CONTINUOUS
10
87.9556
20
-57.2028
11
87.9489
21
-57.2042
0
LINE
8
BLACK
6
CONTINUOUS
10
87.9489
20
-57.2042
11
87.7548
21
-57.2246
0
LINE
8
BLACK
6
CONTINUOUS
10
87.7548
20
-57.2246
11
87.7538
21
-57.2247
0
LINE
8
BLACK
6
CONTINUOUS
10
87.7538
20
-57.2247
11
87.7505
21
-57.2246
0
LINE
8
BLACK
6
CONTINUOUS
10
87.7505
20
-57.2246
11
87.7472
21
-57.225
0
LINE
8
BLACK
6
CONTINUOUS
10
87.7472
20
-57.225
11
87.7438
21
-57.225
0
LINE
8
BLACK
6
CONTINUOUS
10
87.7438
20
-57.225
11
87.7437
21
-57.225
0
LINE
8
BLACK
6
CONTINUOUS
10
87.7437
20
-57.225
11
53.3803
21
-57.215
0
LINE
8
BLACK
6
CONTINUOUS
10
53.3803
20
-57.215
11
53.3803
21
-57.215
0
LINE
8
BLACK
6
CONTINUOUS
10
53.3803
20
-57.215
11
53.3771
21
-57.215
0
LINE
8
BLACK
6
CONTINUOUS
10
53.3771
20
-57.215
11
53.1941
21
-57.2342
0
LINE
8
BLACK
6
CONTINUOUS
10
53.1941
20
-57.2342
11
53.0217
21
-57.2876
0
LINE
8
BLACK
6
CONTINUOUS
10
53.0217
20
-57.2876
11
52.8629
21
-57.3734
0
LINE
8
BLACK
6
CONTINUOUS
10
52.8629
20
-57.3734
11
52.7239
21
-57.4885
0
LINE
8
BLACK
6
CONTINUOUS
10
52.7239
20
-57.4885
11
52.6098
21
-57.6283
0
LINE
8
BLACK
6
CONTINUOUS
10
52.6098
20
-57.6283
11
52.5251
21
-57.7876
0
LINE
8
BLACK
6
CONTINUOUS
10
52.5251
20
-57.7876
11
52.473
21
-57.9604
0
LINE
8
BLACK
6
CONTINUOUS
10
52.473
20
-57.9604
11
52.455
21
-58.1437
0
LINE
8
BLACK
6
CONTINUOUS
10
52.455
20
-58.1437
11
52.455
21
-113.296
0
LINE
8
BLACK
6
CONTINUOUS
10
52.455
20
-113.296
11
52.4724
21
-113.477
0
LINE
8
BLACK
6
CONTINUOUS
10
52.4724
20
-113.477
11
52.5241
21
-113.65
0
LINE
8
BLACK
6
CONTINUOUS
10
52.5241
20
-113.65
11
52.6083
21
-113.809
0
LINE
8
BLACK
6
CONTINUOUS
10
52.6083
20
-113.809
11
52.7219
21
-113.95
0
LINE
8
BLACK
6
CONTINUOUS
10
52.7219
20
-113.95
11
52.8606
21
-114.065
0
LINE
8
BLACK
6
CONTINUOUS
10
52.8606
20
-114.065
11
53.0191
21
-114.151
0
LINE
8
BLACK
6
CONTINUOUS
10
53.0191
20
-114.151
11
53.1913
21
-114.205
0
LINE
8
BLACK
6
CONTINUOUS
10
53.1913
20
-114.205
11
53.374
21
-114.225
0
LINE
8
BLACK
6
CONTINUOUS
10
53.374
20
-114.225
11
306.23
21
-114.225
0
LINE
8
BLACK
6
CONTINUOUS
10
306.23
20
-114.225
11
306.23
21
-114.225
0
LINE
8
BLACK
6
CONTINUOUS
10
306.23
20
-114.225
11
306.233
21
-114.225
0
LINE
8
BLACK
6
CONTINUOUS
10
306.233
20
-114.225
11
306.416
21
-114.206
0
LINE
8
BLACK
6
CONTINUOUS
10
306.416
20
-114.206
11
306.588
21
-114.152
0
LINE
8
BLACK
6
CONTINUOUS
10
306.588
20
-114.152
11
306.747
21
-114.067
0
LINE
8
BLACK
6
CONTINUOUS
10
306.747
20
-114.067
11
306.886
21
-113.952
0
LINE
8
BLACK
6
CONTINUOUS
10
306.886
20
-113.952
11
307
21
-113.812
0
LINE
8
BLACK
6
CONTINUOUS
10
307
20
-113.812
11
307.085
21
-113.652
0
LINE
8
BLACK
6
CONTINUOUS
10
307.085
20
-113.652
11
307.137
21
-113.48
0
LINE
8
BLACK
6
CONTINUOUS
10
307.137
20
-113.48
11
307.155
21
-113.296
0
LINE
8
BLACK
6
CONTINUOUS
10
307.155
20
-113.296
11
307.125
21
-58.1503
0
LINE
8
BLACK
6
CONTINUOUS
10
307.125
20
-58.1503
11
307.125
21
-58.1503
0
LINE
8
BLACK
6
CONTINUOUS
10
307.125
20
-58.1503
11
307.125
21
-58.1471
0
LINE
8
BLACK
6
CONTINUOUS
10
307.125
20
-58.1471
11
307.106
21
-57.9641
0
LINE
8
BLACK
6
CONTINUOUS
10
307.106
20
-57.9641
11
307.052
21
-57.7917
0
LINE
8
BLACK
6
CONTINUOUS
10
307.052
20
-57.7917
11
306.967
21
-57.6329
0
LINE
8
BLACK
6
CONTINUOUS
10
306.967
20
-57.6329
11
306.852
21
-57.4939
0
LINE
8
BLACK
6
CONTINUOUS
10
306.852
20
-57.4939
11
306.712
21
-57.3798
0
LINE
8
BLACK
6
CONTINUOUS
10
306.712
20
-57.3798
11
306.552
21
-57.2951
0
LINE
8
BLACK
6
CONTINUOUS
10
306.552
20
-57.2951
11
306.38
21
-57.243
0
LINE
8
BLACK
6
CONTINUOUS
10
306.38
20
-57.243
11
306.196
21
-57.225
0
LINE
8
BLACK
6
CONTINUOUS
10
306.196
20
-57.225
11
287.754
21
-57.225
0
LINE
8
BLACK
6
CONTINUOUS
10
287.754
20
-57.225
11
287.75
21
-57.2254
0
LINE
8
BLACK
6
CONTINUOUS
10
287.75
20
-57.2254
11
287.735
21
-57.2239
0
LINE
8
BLACK
6
CONTINUOUS
10
287.735
20
-57.2239
11
287.721
21
-57.2196
0
LINE
8
BLACK
6
CONTINUOUS
10
287.721
20
-57.2196
11
287.708
21
-57.2127
0
LINE
8
BLACK
6
CONTINUOUS
10
287.708
20
-57.2127
11
287.697
21
-57.2033
0
LINE
8
BLACK
6
CONTINUOUS
10
287.697
20
-57.2033
11
287.695
21
-57.2012
0
LINE
8
BLACK
6
CONTINUOUS
10
287.695
20
-57.2012
11
287.687
21
-57.1919
0
LINE
8
BLACK
6
CONTINUOUS
10
287.687
20
-57.1919
11
287.68
21
-57.1788
0
LINE
8
BLACK
6
CONTINUOUS
10
287.68
20
-57.1788
11
287.676
21
-57.1647
0
LINE
8
BLACK
6
CONTINUOUS
10
287.676
20
-57.1647
11
287.675
21
-57.15
0
LINE
8
BLACK
6
CONTINUOUS
10
287.675
20
-57.15
11
287.675
21
-57.1463
0
LINE
8
BLACK
6
CONTINUOUS
10
287.675
20
-57.1463
11
287.675
21
-54.0352
0
LINE
8
BLACK
6
CONTINUOUS
10
287.675
20
-54.0352
11
287.672
21
-54.0075
0
LINE
8
BLACK
6
CONTINUOUS
10
287.672
20
-54.0075
11
287.665
21
-53.9843
0
LINE
8
BLACK
6
CONTINUOUS
10
287.665
20
-53.9843
11
287.653
21
-53.9629
0
LINE
8
BLACK
6
CONTINUOUS
10
287.653
20
-53.9629
11
287.638
21
-53.9442
0
LINE
8
BLACK
6
CONTINUOUS
10
287.638
20
-53.9442
11
287.619
21
-53.9288
0
LINE
8
BLACK
6
CONTINUOUS
10
287.619
20
-53.9288
11
287.597
21
-53.9174
0
LINE
8
BLACK
6
CONTINUOUS
10
287.597
20
-53.9174
11
287.574
21
-53.9103
0
LINE
8
BLACK
6
CONTINUOUS
10
287.574
20
-53.9103
11
287.546
21
-53.9076
0
LINE
8
BLACK
6
CONTINUOUS
10
287.546
20
-53.9076
11
279.051
21
-53.9076
0
LINE
8
BLACK
6
CONTINUOUS
10
279.051
20
-53.9076
11
279.045
21
-53.9078
0
LINE
8
BLACK
6
CONTINUOUS
10
279.045
20
-53.9078
11
279.019
21
-53.9119
0
LINE
8
BLACK
6
CONTINUOUS
10
279.019
20
-53.9119
11
278.996
21
-53.9203
0
LINE
8
BLACK
6
CONTINUOUS
10
278.996
20
-53.9203
11
278.975
21
-53.9329
0
LINE
8
BLACK
6
CONTINUOUS
10
278.975
20
-53.9329
11
278.957
21
-53.9493
0
LINE
8
BLACK
6
CONTINUOUS
10
278.957
20
-53.9493
11
278.943
21
-53.9689
0
LINE
8
BLACK
6
CONTINUOUS
10
278.943
20
-53.9689
11
278.933
21
-53.9909
0
LINE
8
BLACK
6
CONTINUOUS
10
278.933
20
-53.9909
11
278.927
21
-54.0145
0
LINE
8
BLACK
6
CONTINUOUS
10
278.927
20
-54.0145
11
278.925
21
-54.0444
0
LINE
8
BLACK
6
CONTINUOUS
10
278.925
20
-54.0444
11
278.925
21
-57.1463
0
LINE
8
BLACK
6
CONTINUOUS
10
278.925
20
-57.1463
11
278.925
21
-57.15
0
LINE
8
BLACK
6
CONTINUOUS
10
278.925
20
-57.15
11
278.924
21
-57.1647
0
LINE
8
BLACK
6
CONTINUOUS
10
278.924
20
-57.1647
11
278.92
21
-57.1788
0
LINE
8
BLACK
6
CONTINUOUS
10
278.92
20
-57.1788
11
278.913
21
-57.1919
0
LINE
8
BLACK
6
CONTINUOUS
10
278.913
20
-57.1919
11
278.903
21
-57.2033
0
LINE
8
BLACK
6
CONTINUOUS
10
278.903
20
-57.2033
11
278.892
21
-57.2127
0
LINE
8
BLACK
6
CONTINUOUS
10
278.892
20
-57.2127
11
278.879
21
-57.2196
0
LINE
8
BLACK
6
CONTINUOUS
10
278.879
20
-57.2196
11
278.879
21
-57.2196
0
LINE
8
BLACK
6
CONTINUOUS
10
278.879
20
-57.2196
11
278.879
21
-57.2196
0
LINE
8
BLACK
6
CONTINUOUS
10
278.879
20
-57.2196
11
278.879
21
-57.2196
0
LINE
8
BLACK
6
CONTINUOUS
10
278.879
20
-57.2196
11
278.865
21
-57.2239
0
LINE
8
BLACK
6
CONTINUOUS
10
278.865
20
-57.2239
11
278.865
21
-57.2239
0
LINE
8
BLACK
6
CONTINUOUS
10
278.865
20
-57.2239
11
278.865
21
-57.2239
0
LINE
8
BLACK
6
CONTINUOUS
10
278.865
20
-57.2239
11
278.862
21
-57.2242
0
LINE
8
BLACK
6
CONTINUOUS
10
278.862
20
-57.2242
11
278.854
21
-57.225
0
LINE
8
BLACK
6
CONTINUOUS
10
278.854
20
-57.225
11
278.854
21
-57.225
0
LINE
8
BLACK
6
CONTINUOUS
10
278.854
20
-57.225
11
278.85
21
-57.2254
0
LINE
8
BLACK
6
CONTINUOUS
10
278.85
20
-57.2254
11
278.846
21
-57.225
0
LINE
8
BLACK
6
CONTINUOUS
10
278.846
20
-57.225
11
112.586
21
-57.225
0
LINE
8
BLACK
6
CONTINUOUS
10
112.586
20
-57.225
11
112.583
21
-57.2246
0
LINE
8
BLACK
6
CONTINUOUS
10
112.583
20
-57.2246
11
112.583
21
-57.2246
0
LINE
8
BLACK
6
CONTINUOUS
10
112.583
20
-57.2246
11
112.388
21
-57.2056
0
LINE
8
BLACK
6
CONTINUOUS
10
112.388
20
-57.2056
11
112.388
21
-57.2056
0
LINE
8
BLACK
6
CONTINUOUS
10
112.388
20
-57.2056
11
112.388
21
-57.2056
0
LINE
8
BLACK
6
CONTINUOUS
10
112.388
20
-57.2056
11
112.387
21
-57.2055
0
LINE
8
BLACK
6
CONTINUOUS
10
112.387
20
-57.2055
11
112.381
21
-57.2041
0
LINE
8
BLACK
6
CONTINUOUS
10
112.381
20
-57.2041
11
112.374
21
-57.2028
0
LINE
8
BLACK
6
CONTINUOUS
10
112.374
20
-57.2028
11
112.187
21
-57.1463
0
LINE
8
BLACK
6
CONTINUOUS
10
112.187
20
-57.1463
11
112.187
21
-57.1463
0
LINE
8
BLACK
6
CONTINUOUS
10
112.187
20
-57.1463
11
112.187
21
-57.1463
0
LINE
8
BLACK
6
CONTINUOUS
10
112.187
20
-57.1463
11
112.186
21
-57.146
0
LINE
8
BLACK
6
CONTINUOUS
10
112.186
20
-57.146
11
112.18
21
-57.1434
0
LINE
8
BLACK
6
CONTINUOUS
10
112.18
20
-57.1434
11
112.174
21
-57.1408
0
LINE
8
BLACK
6
CONTINUOUS
10
112.174
20
-57.1408
11
112.001
21
-57.0491
0
LINE
8
BLACK
6
CONTINUOUS
10
112.001
20
-57.0491
11
112.001
21
-57.0491
0
LINE
8
BLACK
6
CONTINUOUS
10
112.001
20
-57.0491
11
112.001
21
-57.0491
0
LINE
8
BLACK
6
CONTINUOUS
10
112.001
20
-57.0491
11
112
21
-57.0486
0
LINE
8
BLACK
6
CONTINUOUS
10
112
20
-57.0486
11
111.995
21
-57.0448
0
LINE
8
BLACK
6
CONTINUOUS
10
111.995
20
-57.0448
11
111.989
21
-57.041
0
LINE
8
BLACK
6
CONTINUOUS
10
111.989
20
-57.041
11
111.838
21
-56.9177
0
LINE
8
BLACK
6
CONTINUOUS
10
111.838
20
-56.9177
11
111.837
21
-56.917
0
LINE
8
BLACK
6
CONTINUOUS
10
111.837
20
-56.917
11
111.832
21
-56.9122
0
LINE
8
BLACK
6
CONTINUOUS
10
111.832
20
-56.9122
11
111.828
21
-56.9074
0
LINE
8
BLACK
6
CONTINUOUS
10
111.828
20
-56.9074
11
111.703
21
-56.757
0
LINE
8
BLACK
6
CONTINUOUS
10
111.703
20
-56.757
11
111.703
21
-56.757
0
LINE
8
BLACK
6
CONTINUOUS
10
111.703
20
-56.757
11
111.703
21
-56.757
0
LINE
8
BLACK
6
CONTINUOUS
10
111.703
20
-56.757
11
111.703
21
-56.7562
0
LINE
8
BLACK
6
CONTINUOUS
10
111.703
20
-56.7562
11
111.699
21
-56.7505
0
LINE
8
BLACK
6
CONTINUOUS
10
111.699
20
-56.7505
11
111.695
21
-56.7449
0
LINE
8
BLACK
6
CONTINUOUS
10
111.695
20
-56.7449
11
111.602
21
-56.5732
0
LINE
8
BLACK
6
CONTINUOUS
10
111.602
20
-56.5732
11
111.602
21
-56.5723
0
LINE
8
BLACK
6
CONTINUOUS
10
111.602
20
-56.5723
11
111.599
21
-56.566
0
LINE
8
BLACK
6
CONTINUOUS
10
111.599
20
-56.566
11
111.596
21
-56.5597
0
LINE
8
BLACK
6
CONTINUOUS
10
111.596
20
-56.5597
11
111.539
21
-56.3733
0
LINE
8
BLACK
6
CONTINUOUS
10
111.539
20
-56.3733
11
111.538
21
-56.3723
0
LINE
8
BLACK
6
CONTINUOUS
10
111.538
20
-56.3723
11
111.537
21
-56.3656
0
LINE
8
BLACK
6
CONTINUOUS
10
111.537
20
-56.3656
11
111.536
21
-56.3589
0
LINE
8
BLACK
6
CONTINUOUS
10
111.536
20
-56.3589
11
111.515
21
-56.1648
0
LINE
8
BLACK
6
CONTINUOUS
10
111.515
20
-56.1648
11
111.515
21
-56.1638
0
LINE
8
BLACK
6
CONTINUOUS
10
111.515
20
-56.1638
11
111.515
21
-56.1605
0
LINE
8
BLACK
6
CONTINUOUS
10
111.515
20
-56.1605
11
111.515
21
-56.1572
0
LINE
8
BLACK
6
CONTINUOUS
10
111.515
20
-56.1572
11
111.515
21
-56.1538
0
LINE
8
BLACK
6
CONTINUOUS
10
111.515
20
-56.1538
11
111.515
21
-56.1537
0
LINE
8
BLACK
6
CONTINUOUS
10
111.515
20
-56.1537
11
111.515
21
-53.0771
0
LINE
8
BLACK
6
CONTINUOUS
10
111.515
20
-53.0771
11
111.496
21
-52.8941
0
LINE
8
BLACK
6
CONTINUOUS
10
111.496
20
-52.8941
11
111.442
21
-52.7217
0
LINE
8
BLACK
6
CONTINUOUS
10
111.442
20
-52.7217
11
111.357
21
-52.5629
0
LINE
8
BLACK
6
CONTINUOUS
10
111.357
20
-52.5629
11
111.242
21
-52.4239
0
LINE
8
BLACK
6
CONTINUOUS
10
111.242
20
-52.4239
11
111.102
21
-52.3098
0
LINE
8
BLACK
6
CONTINUOUS
10
111.102
20
-52.3098
11
110.942
21
-52.2251
0
LINE
8
BLACK
6
CONTINUOUS
10
110.942
20
-52.2251
11
110.77
21
-52.173
0
LINE
8
BLACK
6
CONTINUOUS
10
110.77
20
-52.173
11
110.586
21
-52.155
0
LINE
8
BLACK
6
CONTINUOUS
10
110.586
20
-52.155
11
89.7403
21
-52.145
0
LINE
8
BLACK
6
CONTINUOUS
10
89.7403
20
-52.145
11
89.7403
21
-52.145
0
LINE
8
BLACK
6
CONTINUOUS
10
89.7403
20
-52.145
11
89.7371
21
-52.145
0
LINE
8
BLACK
6
CONTINUOUS
10
89.7371
20
-52.145
11
89.5541
21
-52.1642
0
LINE
8
BLACK
6
CONTINUOUS
10
89.5541
20
-52.1642
11
89.3817
21
-52.2176
0
LINE
8
BLACK
6
CONTINUOUS
10
89.3817
20
-52.2176
11
89.2229
21
-52.3034
0
LINE
8
BLACK
6
CONTINUOUS
10
89.2229
20
-52.3034
11
89.0839
21
-52.4185
0
LINE
8
BLACK
6
CONTINUOUS
10
89.0839
20
-52.4185
11
88.9698
21
-52.5583
0
LINE
8
BLACK
6
CONTINUOUS
10
88.9698
20
-52.5583
11
88.8851
21
-52.7176
0
LINE
8
BLACK
6
CONTINUOUS
10
88.8851
20
-52.7176
11
88.833
21
-52.8904
0
LINE
8
BLACK
6
CONTINUOUS
10
88.833
20
-52.8904
11
88.815
21
-53.0737
0
LINE
8
BLACK
6
CONTINUOUS
10
88.815
20
-53.0737
11
88.815
21
-56.1537
0
LINE
8
BLACK
6
CONTINUOUS
10
88.815
20
-56.1537
11
88.8146
21
-56.1573
0
LINE
8
BLACK
6
CONTINUOUS
10
88.8146
20
-56.1573
11
88.8146
21
-56.1573
0
LINE
8
BLACK
6
CONTINUOUS
10
88.8146
20
-56.1573
11
88.7956
21
-56.3515
0
LINE
8
BLACK
6
CONTINUOUS
10
88.7956
20
-56.3515
11
88.7956
21
-56.3516
0
LINE
8
BLACK
6
CONTINUOUS
10
88.7956
20
-56.3516
11
88.7956
21
-56.3516
0
LINE
8
BLACK
6
CONTINUOUS
10
88.7956
20
-56.3516
11
88.7955
21
-56.3526
0
LINE
8
BLACK
6
CONTINUOUS
10
88.7955
20
-56.3526
11
88.7941
21
-56.3592
0
LINE
8
BLACK
6
CONTINUOUS
10
88.7941
20
-56.3592
11
88.7928
21
-56.3659
0
LINE
8
BLACK
6
CONTINUOUS
10
88.7928
20
-56.3659
11
88.7363
21
-56.5527
0
LINE
8
BLACK
6
CONTINUOUS
10
88.7363
20
-56.5527
11
88.7363
21
-56.5527
0
LINE
8
BLACK
6
CONTINUOUS
10
88.7363
20
-56.5527
11
88.7363
21
-56.5528
0
LINE
8
BLACK
6
CONTINUOUS
10
88.7363
20
-56.5528
11
88.736
21
-56.5537
0
LINE
8
BLACK
6
CONTINUOUS
10
88.736
20
-56.5537
11
88.7334
21
-56.56
0
LINE
8
BLACK
6
CONTINUOUS
10
88.7334
20
-56.56
11
88.7308
21
-56.5663
0
LINE
8
BLACK
6
CONTINUOUS
10
88.7308
20
-56.5663
11
88.6391
21
-56.7386
0
LINE
8
BLACK
6
CONTINUOUS
10
88.6391
20
-56.7386
11
88.6391
21
-56.7386
0
LINE
8
BLACK
6
CONTINUOUS
10
88.6391
20
-56.7386
11
88.6391
21
-56.7386
0
LINE
8
BLACK
6
CONTINUOUS
10
88.6391
20
-56.7386
11
88.6386
21
-56.7395
0
LINE
8
BLACK
6
CONTINUOUS
10
88.6386
20
-56.7395
11
88.6348
21
-56.7451
0
LINE
8
BLACK
6
CONTINUOUS
10
88.6348
20
-56.7451
11
88.631
21
-56.7508
0
LINE
8
BLACK
6
CONTINUOUS
10
88.631
20
-56.7508
11
88.5077
21
-56.902
0
LINE
8
BLACK
6
CONTINUOUS
10
88.5077
20
-56.902
11
88.507
21
-56.9028
0
LINE
8
BLACK
6
CONTINUOUS
10
88.507
20
-56.9028
11
88.5022
21
-56.9076
0
LINE
8
BLACK
6
CONTINUOUS
10
88.5022
20
-56.9076
11
88.4974
21
-56.9124
0
LINE
8
BLACK
6
CONTINUOUS
10
88.4974
20
-56.9124
11
88.347
21
-57.0368
0
LINE
8
BLACK
6
CONTINUOUS
10
88.347
20
-57.0368
11
88.347
21
-57.0368
0
LINE
8
BLACK
6
CONTINUOUS
10
88.347
20
-57.0368
11
88.347
21
-57.0368
0
LINE
8
BLACK
6
CONTINUOUS
10
88.347
20
-57.0368
11
88.3462
21
-57.0375
0
LINE
8
BLACK
6
CONTINUOUS
10
88.3462
20
-57.0375
11
88.3405
21
-57.0412
0
LINE
8
BLACK
6
CONTINUOUS
10
88.3405
20
-57.0412
11
88.3349
21
-57.045
0
LINE
8
BLACK
6
CONTINUOUS
10
88.3349
20
-57.045
11
88.1632
21
-57.1378
0
LINE
8
BLACK
6
CONTINUOUS
10
88.1632
20
-57.1378
11
88.1623
21
-57.1383
0
LINE
8
BLACK
6
CONTINUOUS
10
88.1623
20
-57.1383
11
88.156
21
-57.1409
0
LINE
8
BLACK
6
CONTINUOUS
10
88.156
20
-57.1409
11
88.1497
21
-57.1435
0
LINE
8
BLACK
6
CONTINUOUS
10
88.1497
20
-57.1435
11
87.9633
21
-57.2012
0
LINE
8
BLACK
6
CONTINUOUS
10
87.9633
20
-57.2012
11
87.9633
21
-57.2012
0
LINE
8
BLACK
6
CONTINUOUS
10
87.9633
20
-57.2012
11
87.9623
21
-57.2015
  0
ENDSEC
  0
EOF
