M48
INCH
T1C0.0157
T2C0.0276
T3C0.0394
T4C0.0430
T5C0.0433
T6C0.0472
T7C0.0579
T8C0.0591
%
G90
G05
T1
X4.3892Y-2.4775
X7.79Y-3.5
X9.8696Y-2.3824
X10.0074Y-2.302
T2
X10.3Y-2.4665
X10.3Y-2.7735
X5.78Y-3.1244
X5.78Y-3.4315
X2.86Y-2.4865
X2.86Y-2.7935
X9.56Y-2.4665
X9.56Y-2.7735
X5.12Y-3.1471
X5.12Y-3.4542
X2.7677Y-2.4865
X2.7677Y-2.7935
X9.56Y-3.1644
X9.56Y-3.4715
X5.8634Y-3.9961
X5.8634Y-4.3031
X8.8Y-2.4665
X8.8Y-2.7735
X11.164Y-3.9668
X11.164Y-4.2739
X5.02Y-3.1465
X5.02Y-3.4535
X8.06Y-2.4665
X8.06Y-2.7735
X10.3258Y-3.9597
X10.3258Y-4.2668
X7.3Y-2.4665
X7.3Y-2.7735
X5.0118Y-3.9646
X5.0118Y-4.2717
X9.57Y-3.9465
X9.57Y-4.2535
X8.82Y-3.1528
X8.82Y-3.4598
X2.86Y-3.2465
X2.86Y-3.5535
X5.77Y-2.4765
X5.77Y-2.7835
X8.83Y-3.9629
X8.83Y-4.27
X8.07Y-3.1465
X8.07Y-3.4535
X2.76Y-3.2485
X2.76Y-3.5556
X8.0624Y-3.8589
X8.0624Y-4.166
X5.7646Y-3.9953
X5.7646Y-4.3024
X7.32Y-3.1428
X7.32Y-3.4498
X6.56Y-2.4665
X6.56Y-2.7735
X2.8661Y-3.9528
X2.8661Y-4.2598
X5.1102Y-3.9646
X5.1102Y-4.2717
X6.58Y-3.1385
X6.58Y-3.4456
X5.87Y-2.4765
X5.87Y-2.7835
X2.7677Y-3.9567
X2.7677Y-4.2638
X11.16Y-2.4585
X11.16Y-2.7656
X5.88Y-3.1244
X5.88Y-3.4315
X11.16Y-3.1765
X11.16Y-3.4835
X5.02Y-2.4644
X5.02Y-2.7715
X10.31Y-3.1744
X10.31Y-3.4815
X7.3126Y-3.9702
X7.3126Y-4.2772
X5.12Y-2.4665
X5.12Y-2.7735
T3
X2.3391Y-2.3494
X2.3391Y-2.9203
X2.4375Y-2.9203
X2.5359Y-2.3494
X2.5359Y-2.9203
T4
X2.1142Y-3.9173
X2.1102Y-3.6772
X2.1142Y-3.811
X3.637Y-2.2217
X3.637Y-2.3217
X3.637Y-2.4217
X3.637Y-2.5217
X3.637Y-2.6217
X3.637Y-2.7217
X3.637Y-2.8217
X3.637Y-2.9217
X3.637Y-3.0217
X3.637Y-3.1217
X3.637Y-3.2217
X3.637Y-3.3217
X4.237Y-2.2217
X4.237Y-2.3217
X4.237Y-2.4217
X4.237Y-2.5217
X4.237Y-2.6217
X4.237Y-2.7217
X4.237Y-2.8217
X4.237Y-2.9217
X4.237Y-3.0217
X4.237Y-3.1217
X4.237Y-3.2217
X4.237Y-3.3217
T5
X3.545Y-2.3
X3.545Y-2.4
X3.545Y-2.5
X3.545Y-2.6
X3.545Y-2.7
X3.545Y-2.8
X3.545Y-2.9
X3.545Y-3.0
X3.545Y-3.1
X3.545Y-3.2
X3.545Y-3.3
X3.545Y-3.4
X3.545Y-3.5
X3.545Y-3.6
X3.545Y-3.7
X3.545Y-3.8
X4.345Y-2.7
X4.345Y-2.8
X4.345Y-2.9
X4.345Y-3.0
X4.345Y-3.1
X4.345Y-3.2
X4.345Y-3.3
X4.345Y-3.4
X4.345Y-3.5
X4.345Y-3.6
X4.345Y-3.7
X4.345Y-3.8
T6
X11.625Y-2.3927
X11.8219Y-2.4754
X4.6875Y-2.3927
X4.8843Y-2.4754
X5.4375Y-2.3927
X5.6343Y-2.4754
X5.4375Y-3.1427
X5.6343Y-3.2254
X6.9375Y-3.1427
X7.1343Y-3.2254
X9.9375Y-3.1427
X10.1343Y-3.2254
X10.7835Y-3.8937
X10.9803Y-3.9764
X3.9375Y-2.3927
X4.1343Y-2.4754
X6.1875Y-2.3927
X6.3843Y-2.4754
X6.9375Y-2.3927
X7.1343Y-2.4754
X4.6875Y-3.1427
X4.8843Y-3.2254
X9.9375Y-3.8927
X10.1343Y-3.9754
X3.1875Y-2.3927
X3.3844Y-2.4754
X3.9375Y-3.1427
X4.1343Y-3.2254
X9.1875Y-2.3927
X9.3843Y-2.4754
X9.9375Y-2.3927
X10.1343Y-2.4754
X5.4375Y-3.8927
X5.6343Y-3.9754
X8.4375Y-3.8927
X8.6343Y-3.9754
X9.1875Y-3.8927
X9.3843Y-3.9754
X2.4375Y-2.3927
X2.6344Y-2.4754
X6.3657Y-4.2746
X6.5625Y-4.3573
X10.6875Y-2.3927
X10.8843Y-2.4754
X2.4375Y-3.1427
X2.6344Y-3.2254
X3.1875Y-3.1427
X3.3844Y-3.2254
X7.6875Y-3.1427
X7.8843Y-3.2254
X2.4375Y-3.8927
X2.6344Y-3.9754
X3.1875Y-3.8927
X3.3844Y-3.9754
X3.9375Y-3.8927
X4.1343Y-3.9754
X4.6875Y-3.8927
X4.8843Y-3.9754
X6.1875Y-3.8927
X6.3843Y-3.9754
X6.9375Y-3.8927
X7.1343Y-3.9754
X7.6875Y-3.8927
X7.8843Y-3.9754
X11.8701Y-3.9469
X11.9528Y-3.75
X7.6875Y-2.3927
X7.8843Y-2.4754
X8.4375Y-2.3927
X8.6343Y-2.4754
X6.1875Y-3.1427
X6.3843Y-3.2254
X8.4375Y-3.1427
X8.6343Y-3.2254
X9.1875Y-3.1427
X9.3843Y-3.2254
X10.6875Y-3.1427
X10.8843Y-3.2254
T7
X7.5375Y-3.275
X7.5891Y-3.2175
X7.7859Y-3.1978
X7.7875Y-3.175
X2.2875Y-4.025
X2.3391Y-3.9675
X2.5359Y-3.9478
X2.5375Y-3.925
X3.0375Y-4.025
X3.0891Y-3.9675
X3.2859Y-3.9478
X3.2875Y-3.925
X3.7875Y-4.025
X3.8391Y-3.9675
X4.0359Y-3.9478
X4.0375Y-3.925
X4.5375Y-4.025
X4.5891Y-3.9675
X4.7859Y-3.9478
X4.7875Y-3.925
X6.0375Y-4.025
X6.0891Y-3.9675
X6.2859Y-3.9478
X6.2875Y-3.925
X6.7875Y-4.025
X6.8391Y-3.9675
X7.0359Y-3.9478
X7.0375Y-3.925
X7.5375Y-4.025
X7.5891Y-3.9675
X7.7859Y-3.9478
X7.7875Y-3.925
X11.8205Y-3.6
X11.878Y-3.6516
X11.8976Y-3.8484
X11.9205Y-3.85
X7.5375Y-2.525
X7.5891Y-2.4675
X7.7859Y-2.4478
X7.7875Y-2.425
X8.2875Y-2.525
X8.3391Y-2.4675
X8.5359Y-2.4478
X8.5375Y-2.425
X6.0375Y-3.275
X6.0891Y-3.2175
X6.2859Y-3.1978
X6.2875Y-3.175
X8.2875Y-3.275
X8.3391Y-3.2175
X8.5359Y-3.1978
X8.5375Y-3.175
X9.0375Y-3.275
X9.0891Y-3.2175
X9.2859Y-3.1978
X9.2875Y-3.175
X10.5375Y-3.275
X10.5891Y-3.2175
X10.7859Y-3.1978
X10.7875Y-3.175
X11.475Y-2.525
X11.5266Y-2.4675
X11.7234Y-2.4478
X11.725Y-2.425
X4.5375Y-2.525
X4.5891Y-2.4675
X4.7859Y-2.4478
X4.7875Y-2.425
X5.2875Y-2.525
X5.3391Y-2.4675
X5.5359Y-2.4478
X5.5375Y-2.425
X5.2875Y-3.275
X5.3391Y-3.2175
X5.5359Y-3.1978
X5.5375Y-3.175
X6.7875Y-3.275
X6.8391Y-3.2175
X7.0359Y-3.1978
X7.0375Y-3.175
X9.7875Y-3.275
X9.8391Y-3.2175
X10.0359Y-3.1978
X10.0375Y-3.175
X10.6335Y-4.026
X10.685Y-3.9685
X10.8819Y-3.9488
X10.8835Y-3.926
X3.7875Y-2.525
X3.8391Y-2.4675
X4.0359Y-2.4478
X4.0375Y-2.425
X6.0375Y-2.525
X6.0891Y-2.4675
X6.2859Y-2.4478
X6.2875Y-2.425
X6.7875Y-2.525
X6.8391Y-2.4675
X7.0359Y-2.4478
X7.0375Y-2.425
X4.5375Y-3.275
X4.5891Y-3.2175
X4.7859Y-3.1978
X4.7875Y-3.175
X9.7875Y-4.025
X9.8391Y-3.9675
X10.0359Y-3.9478
X10.0375Y-3.925
X3.0375Y-2.525
X3.0891Y-2.4675
X3.2859Y-2.4478
X3.2875Y-2.425
X3.7875Y-3.275
X3.8391Y-3.2175
X4.0359Y-3.1978
X4.0375Y-3.175
X9.0375Y-2.525
X9.0891Y-2.4675
X9.2859Y-2.4478
X9.2875Y-2.425
X9.7875Y-2.525
X9.8391Y-2.4675
X10.0359Y-2.4478
X10.0375Y-2.425
X5.2875Y-4.025
X5.3391Y-3.9675
X5.5359Y-3.9478
X5.5375Y-3.925
X8.2875Y-4.025
X8.3391Y-3.9675
X8.5359Y-3.9478
X8.5375Y-3.925
X9.0375Y-4.025
X9.0891Y-3.9675
X9.2859Y-3.9478
X9.2875Y-3.925
X2.2875Y-2.525
X2.3391Y-2.4675
X2.5359Y-2.4478
X2.5375Y-2.425
X6.4625Y-4.325
X6.4641Y-4.3022
X6.6609Y-4.2825
X6.7125Y-4.225
X10.5375Y-2.525
X10.5891Y-2.4675
X10.7859Y-2.4478
X10.7875Y-2.425
X2.2875Y-3.275
X2.3391Y-3.2175
X2.5359Y-3.1978
X2.5375Y-3.175
X3.0375Y-3.275
X3.0891Y-3.2175
X3.2859Y-3.1978
X3.2875Y-3.175
T8
G00X2.217Y-2.6506
M15
G01X2.217Y-2.5994
M16
G05
G00X2.658Y-2.6506
M15
G01X2.658Y-2.5994
M16
G05
T0
M30
