  0
SECTION
  2
HEADER
  9
$ANGBASE
  50
0.0
  9
$ANGDIR
  70
1
  9
$MEASUREMENT
  70
1
  0
ENDSEC
  0
SECTION
  2
TABLES
  0
TABLE
  2
LTYPE
  70
4
  0
LTYPE
  5
40F
  2
CONTINUOUS
  70
0
  3
Solid line
  72
65
  73
0
  40
0.0
  0
LTYPE
  5
410
  2
DASHDOT
 70
0
  3
Dash Dot ____ _ ____ _
 72
65
 73
4
 40
2.0
 49
1.25
 49
-0.25
 49
0.25
 49
-0.25
  0
LTYPE
  5
411
  2
DASHED
 70
0
  3
Dashed __ __ __ __ __
 72
65
 73
2
 40
0.75
 49
0.5
 49
-0.25
  0
LTYPE
  5
43B
  2
DOTTED
 70
0
  3
Dotted .  .  .  .
 72
65
 73
2
 40
0.2
 49
0.0
 49
-0.2
  0
ENDTAB
  0
TABLE
  2
STYLE
  70
4
  0
STYLE
  2
KICAD
  70
0
  40
0
  41
1
  42
1
  50
0
  71
0
  3
isocp.shx
  0
STYLE
  2
KICADB
  70
0
  40
0
  41
1
  42
1
  50
0
  71
0
  3
isocp.shx
  0
STYLE
  2
KICADI
  70
0
  40
0
  41
1
  42
1
  50
15
  71
0
  3
isocp.shx
  0
STYLE
  2
KICADBI
  70
0
  40
0
  41
1
  42
1
  50
15
  71
0
  3
isocp.shx
  0
ENDTAB
  0
TABLE
  2
LAYER
  70
1
  0
LAYER
  2
BLACK
  70
0
  62
7
  6
CONTINUOUS
  0
ENDTAB
  0
ENDSEC
  0
SECTION
  2
ENTITIES
0
LINE
8
BLACK
6
CONTINUOUS
10
53.9556
20
-98.6574
11
54.1151
21
-98.7234
0
LINE
8
BLACK
6
CONTINUOUS
10
54.1151
20
-98.7234
11
54.2586
21
-98.8193
0
LINE
8
BLACK
6
CONTINUOUS
10
54.2586
20
-98.8193
11
54.3807
21
-98.9414
0
LINE
8
BLACK
6
CONTINUOUS
10
54.3807
20
-98.9414
11
54.4766
21
-99.0849
0
LINE
8
BLACK
6
CONTINUOUS
10
54.4766
20
-99.0849
11
54.5426
21
-99.2444
0
LINE
8
BLACK
6
CONTINUOUS
10
54.5426
20
-99.2444
11
54.5763
21
-99.4137
0
LINE
8
BLACK
6
CONTINUOUS
10
54.5763
20
-99.4137
11
54.5763
21
-99.5863
0
LINE
8
BLACK
6
CONTINUOUS
10
54.5763
20
-99.5863
11
54.5426
21
-99.7556
0
LINE
8
BLACK
6
CONTINUOUS
10
54.5426
20
-99.7556
11
54.4766
21
-99.9151
0
LINE
8
BLACK
6
CONTINUOUS
10
54.4766
20
-99.9151
11
54.3807
21
-100.059
0
LINE
8
BLACK
6
CONTINUOUS
10
54.3807
20
-100.059
11
54.2586
21
-100.181
0
LINE
8
BLACK
6
CONTINUOUS
10
54.2586
20
-100.181
11
54.1151
21
-100.277
0
LINE
8
BLACK
6
CONTINUOUS
10
54.1151
20
-100.277
11
53.9556
21
-100.343
0
LINE
8
BLACK
6
CONTINUOUS
10
53.9556
20
-100.343
11
53.7863
21
-100.376
0
LINE
8
BLACK
6
CONTINUOUS
10
53.7863
20
-100.376
11
53.6137
21
-100.376
0
LINE
8
BLACK
6
CONTINUOUS
10
53.6137
20
-100.376
11
53.4444
21
-100.343
0
LINE
8
BLACK
6
CONTINUOUS
10
53.4444
20
-100.343
11
53.2849
21
-100.277
0
LINE
8
BLACK
6
CONTINUOUS
10
53.2849
20
-100.277
11
53.1414
21
-100.181
0
LINE
8
BLACK
6
CONTINUOUS
10
53.1414
20
-100.181
11
53.0193
21
-100.059
0
LINE
8
BLACK
6
CONTINUOUS
10
53.0193
20
-100.059
11
52.9234
21
-99.9151
0
LINE
8
BLACK
6
CONTINUOUS
10
52.9234
20
-99.9151
11
52.8574
21
-99.7556
0
LINE
8
BLACK
6
CONTINUOUS
10
52.8574
20
-99.7556
11
52.8237
21
-99.5863
0
LINE
8
BLACK
6
CONTINUOUS
10
52.8237
20
-99.5863
11
52.8237
21
-99.4137
0
LINE
8
BLACK
6
CONTINUOUS
10
52.8237
20
-99.4137
11
52.8574
21
-99.2444
0
LINE
8
BLACK
6
CONTINUOUS
10
52.8574
20
-99.2444
11
52.9234
21
-99.0849
0
LINE
8
BLACK
6
CONTINUOUS
10
52.9234
20
-99.0849
11
53.0193
21
-98.9414
0
LINE
8
BLACK
6
CONTINUOUS
10
53.0193
20
-98.9414
11
53.1414
21
-98.8193
0
LINE
8
BLACK
6
CONTINUOUS
10
53.1414
20
-98.8193
11
53.2849
21
-98.7234
0
LINE
8
BLACK
6
CONTINUOUS
10
53.2849
20
-98.7234
11
53.4444
21
-98.6574
0
LINE
8
BLACK
6
CONTINUOUS
10
53.4444
20
-98.6574
11
53.6137
21
-98.6237
0
LINE
8
BLACK
6
CONTINUOUS
10
53.6137
20
-98.6237
11
53.7863
21
-98.6237
0
LINE
8
BLACK
6
CONTINUOUS
10
53.7863
20
-98.6237
11
53.9556
21
-98.6574
0
LINE
8
BLACK
6
CONTINUOUS
10
53.9556
20
-95.9574
11
54.1151
21
-96.0234
0
LINE
8
BLACK
6
CONTINUOUS
10
54.1151
20
-96.0234
11
54.2586
21
-96.1193
0
LINE
8
BLACK
6
CONTINUOUS
10
54.2586
20
-96.1193
11
54.3807
21
-96.2414
0
LINE
8
BLACK
6
CONTINUOUS
10
54.3807
20
-96.2414
11
54.4766
21
-96.3849
0
LINE
8
BLACK
6
CONTINUOUS
10
54.4766
20
-96.3849
11
54.5426
21
-96.5444
0
LINE
8
BLACK
6
CONTINUOUS
10
54.5426
20
-96.5444
11
54.5763
21
-96.7137
0
LINE
8
BLACK
6
CONTINUOUS
10
54.5763
20
-96.7137
11
54.5763
21
-96.8863
0
LINE
8
BLACK
6
CONTINUOUS
10
54.5763
20
-96.8863
11
54.5426
21
-97.0556
0
LINE
8
BLACK
6
CONTINUOUS
10
54.5426
20
-97.0556
11
54.4766
21
-97.2151
0
LINE
8
BLACK
6
CONTINUOUS
10
54.4766
20
-97.2151
11
54.3807
21
-97.3586
0
LINE
8
BLACK
6
CONTINUOUS
10
54.3807
20
-97.3586
11
54.2586
21
-97.4807
0
LINE
8
BLACK
6
CONTINUOUS
10
54.2586
20
-97.4807
11
54.1151
21
-97.5766
0
LINE
8
BLACK
6
CONTINUOUS
10
54.1151
20
-97.5766
11
53.9556
21
-97.6426
0
LINE
8
BLACK
6
CONTINUOUS
10
53.9556
20
-97.6426
11
53.7863
21
-97.6763
0
LINE
8
BLACK
6
CONTINUOUS
10
53.7863
20
-97.6763
11
53.6137
21
-97.6763
0
LINE
8
BLACK
6
CONTINUOUS
10
53.6137
20
-97.6763
11
53.4444
21
-97.6426
0
LINE
8
BLACK
6
CONTINUOUS
10
53.4444
20
-97.6426
11
53.2849
21
-97.5766
0
LINE
8
BLACK
6
CONTINUOUS
10
53.2849
20
-97.5766
11
53.1414
21
-97.4807
0
LINE
8
BLACK
6
CONTINUOUS
10
53.1414
20
-97.4807
11
53.0193
21
-97.3586
0
LINE
8
BLACK
6
CONTINUOUS
10
53.0193
20
-97.3586
11
52.9234
21
-97.2151
0
LINE
8
BLACK
6
CONTINUOUS
10
52.9234
20
-97.2151
11
52.8574
21
-97.0556
0
LINE
8
BLACK
6
CONTINUOUS
10
52.8574
20
-97.0556
11
52.8237
21
-96.8863
0
LINE
8
BLACK
6
CONTINUOUS
10
52.8237
20
-96.8863
11
52.8237
21
-96.7137
0
LINE
8
BLACK
6
CONTINUOUS
10
52.8237
20
-96.7137
11
52.8574
21
-96.5444
0
LINE
8
BLACK
6
CONTINUOUS
10
52.8574
20
-96.5444
11
52.9234
21
-96.3849
0
LINE
8
BLACK
6
CONTINUOUS
10
52.9234
20
-96.3849
11
53.0193
21
-96.2414
0
LINE
8
BLACK
6
CONTINUOUS
10
53.0193
20
-96.2414
11
53.1414
21
-96.1193
0
LINE
8
BLACK
6
CONTINUOUS
10
53.1414
20
-96.1193
11
53.2849
21
-96.0234
0
LINE
8
BLACK
6
CONTINUOUS
10
53.2849
20
-96.0234
11
53.4444
21
-95.9574
0
LINE
8
BLACK
6
CONTINUOUS
10
53.4444
20
-95.9574
11
53.6137
21
-95.9237
0
LINE
8
BLACK
6
CONTINUOUS
10
53.6137
20
-95.9237
11
53.7863
21
-95.9237
0
LINE
8
BLACK
6
CONTINUOUS
10
53.7863
20
-95.9237
11
53.9556
21
-95.9574
0
LINE
8
BLACK
6
CONTINUOUS
10
53.8556
20
-92.5574
11
54.0151
21
-92.6234
0
LINE
8
BLACK
6
CONTINUOUS
10
54.0151
20
-92.6234
11
54.1586
21
-92.7193
0
LINE
8
BLACK
6
CONTINUOUS
10
54.1586
20
-92.7193
11
54.2807
21
-92.8414
0
LINE
8
BLACK
6
CONTINUOUS
10
54.2807
20
-92.8414
11
54.3766
21
-92.9849
0
LINE
8
BLACK
6
CONTINUOUS
10
54.3766
20
-92.9849
11
54.4426
21
-93.1444
0
LINE
8
BLACK
6
CONTINUOUS
10
54.4426
20
-93.1444
11
54.4763
21
-93.3137
0
LINE
8
BLACK
6
CONTINUOUS
10
54.4763
20
-93.3137
11
54.4763
21
-93.4863
0
LINE
8
BLACK
6
CONTINUOUS
10
54.4763
20
-93.4863
11
54.4426
21
-93.6556
0
LINE
8
BLACK
6
CONTINUOUS
10
54.4426
20
-93.6556
11
54.3766
21
-93.8151
0
LINE
8
BLACK
6
CONTINUOUS
10
54.3766
20
-93.8151
11
54.2807
21
-93.9586
0
LINE
8
BLACK
6
CONTINUOUS
10
54.2807
20
-93.9586
11
54.1586
21
-94.0807
0
LINE
8
BLACK
6
CONTINUOUS
10
54.1586
20
-94.0807
11
54.0151
21
-94.1766
0
LINE
8
BLACK
6
CONTINUOUS
10
54.0151
20
-94.1766
11
53.8556
21
-94.2426
0
LINE
8
BLACK
6
CONTINUOUS
10
53.8556
20
-94.2426
11
53.6863
21
-94.2763
0
LINE
8
BLACK
6
CONTINUOUS
10
53.6863
20
-94.2763
11
53.5137
21
-94.2763
0
LINE
8
BLACK
6
CONTINUOUS
10
53.5137
20
-94.2763
11
53.3444
21
-94.2426
0
LINE
8
BLACK
6
CONTINUOUS
10
53.3444
20
-94.2426
11
53.1849
21
-94.1766
0
LINE
8
BLACK
6
CONTINUOUS
10
53.1849
20
-94.1766
11
53.0414
21
-94.0807
0
LINE
8
BLACK
6
CONTINUOUS
10
53.0414
20
-94.0807
11
52.9193
21
-93.9586
0
LINE
8
BLACK
6
CONTINUOUS
10
52.9193
20
-93.9586
11
52.8234
21
-93.8151
0
LINE
8
BLACK
6
CONTINUOUS
10
52.8234
20
-93.8151
11
52.7574
21
-93.6556
0
LINE
8
BLACK
6
CONTINUOUS
10
52.7574
20
-93.6556
11
52.7237
21
-93.4863
0
LINE
8
BLACK
6
CONTINUOUS
10
52.7237
20
-93.4863
11
52.7237
21
-93.3137
0
LINE
8
BLACK
6
CONTINUOUS
10
52.7237
20
-93.3137
11
52.7574
21
-93.1444
0
LINE
8
BLACK
6
CONTINUOUS
10
52.7574
20
-93.1444
11
52.8234
21
-92.9849
0
LINE
8
BLACK
6
CONTINUOUS
10
52.8234
20
-92.9849
11
52.9193
21
-92.8414
0
LINE
8
BLACK
6
CONTINUOUS
10
52.9193
20
-92.8414
11
53.0414
21
-92.7193
0
LINE
8
BLACK
6
CONTINUOUS
10
53.0414
20
-92.7193
11
53.1849
21
-92.6234
0
LINE
8
BLACK
6
CONTINUOUS
10
53.1849
20
-92.6234
11
53.3444
21
-92.5574
0
LINE
8
BLACK
6
CONTINUOUS
10
53.3444
20
-92.5574
11
53.5137
21
-92.5237
0
LINE
8
BLACK
6
CONTINUOUS
10
53.5137
20
-92.5237
11
53.6863
21
-92.5237
0
LINE
8
BLACK
6
CONTINUOUS
10
53.6863
20
-92.5237
11
53.8556
21
-92.5574
0
LINE
8
BLACK
6
CONTINUOUS
10
92.6356
20
-83.5274
11
92.7951
21
-83.5934
0
LINE
8
BLACK
6
CONTINUOUS
10
92.7951
20
-83.5934
11
92.9386
21
-83.6893
0
LINE
8
BLACK
6
CONTINUOUS
10
92.9386
20
-83.6893
11
93.0607
21
-83.8114
0
LINE
8
BLACK
6
CONTINUOUS
10
93.0607
20
-83.8114
11
93.1566
21
-83.9549
0
LINE
8
BLACK
6
CONTINUOUS
10
93.1566
20
-83.9549
11
93.2226
21
-84.1144
0
LINE
8
BLACK
6
CONTINUOUS
10
93.2226
20
-84.1144
11
93.2563
21
-84.2837
0
LINE
8
BLACK
6
CONTINUOUS
10
93.2563
20
-84.2837
11
93.2563
21
-84.4563
0
LINE
8
BLACK
6
CONTINUOUS
10
93.2563
20
-84.4563
11
93.2226
21
-84.6256
0
LINE
8
BLACK
6
CONTINUOUS
10
93.2226
20
-84.6256
11
93.1566
21
-84.7851
0
LINE
8
BLACK
6
CONTINUOUS
10
93.1566
20
-84.7851
11
93.0607
21
-84.9286
0
LINE
8
BLACK
6
CONTINUOUS
10
93.0607
20
-84.9286
11
92.9386
21
-85.0507
0
LINE
8
BLACK
6
CONTINUOUS
10
92.9386
20
-85.0507
11
92.7951
21
-85.1466
0
LINE
8
BLACK
6
CONTINUOUS
10
92.7951
20
-85.1466
11
92.6356
21
-85.2126
0
LINE
8
BLACK
6
CONTINUOUS
10
92.6356
20
-85.2126
11
92.4663
21
-85.2463
0
LINE
8
BLACK
6
CONTINUOUS
10
92.4663
20
-85.2463
11
92.2937
21
-85.2463
0
LINE
8
BLACK
6
CONTINUOUS
10
92.2937
20
-85.2463
11
92.1244
21
-85.2126
0
LINE
8
BLACK
6
CONTINUOUS
10
92.1244
20
-85.2126
11
91.9649
21
-85.1466
0
LINE
8
BLACK
6
CONTINUOUS
10
91.9649
20
-85.1466
11
91.8214
21
-85.0507
0
LINE
8
BLACK
6
CONTINUOUS
10
91.8214
20
-85.0507
11
91.6993
21
-84.9286
0
LINE
8
BLACK
6
CONTINUOUS
10
91.6993
20
-84.9286
11
91.6034
21
-84.7851
0
LINE
8
BLACK
6
CONTINUOUS
10
91.6034
20
-84.7851
11
91.5374
21
-84.6256
0
LINE
8
BLACK
6
CONTINUOUS
10
91.5374
20
-84.6256
11
91.5037
21
-84.4563
0
LINE
8
BLACK
6
CONTINUOUS
10
91.5037
20
-84.4563
11
91.5037
21
-84.2837
0
LINE
8
BLACK
6
CONTINUOUS
10
91.5037
20
-84.2837
11
91.5374
21
-84.1144
0
LINE
8
BLACK
6
CONTINUOUS
10
91.5374
20
-84.1144
11
91.6034
21
-83.9549
0
LINE
8
BLACK
6
CONTINUOUS
10
91.6034
20
-83.9549
11
91.6993
21
-83.8114
0
LINE
8
BLACK
6
CONTINUOUS
10
91.6993
20
-83.8114
11
91.8214
21
-83.6893
0
LINE
8
BLACK
6
CONTINUOUS
10
91.8214
20
-83.6893
11
91.9649
21
-83.5934
0
LINE
8
BLACK
6
CONTINUOUS
10
91.9649
20
-83.5934
11
92.1244
21
-83.5274
0
LINE
8
BLACK
6
CONTINUOUS
10
92.1244
20
-83.5274
11
92.2937
21
-83.4937
0
LINE
8
BLACK
6
CONTINUOUS
10
92.2937
20
-83.4937
11
92.4663
21
-83.4937
0
LINE
8
BLACK
6
CONTINUOUS
10
92.4663
20
-83.4937
11
92.6356
21
-83.5274
0
LINE
8
BLACK
6
CONTINUOUS
10
107.876
20
-83.5274
11
108.035
21
-83.5934
0
LINE
8
BLACK
6
CONTINUOUS
10
108.035
20
-83.5934
11
108.179
21
-83.6893
0
LINE
8
BLACK
6
CONTINUOUS
10
108.179
20
-83.6893
11
108.301
21
-83.8114
0
LINE
8
BLACK
6
CONTINUOUS
10
108.301
20
-83.8114
11
108.397
21
-83.9549
0
LINE
8
BLACK
6
CONTINUOUS
10
108.397
20
-83.9549
11
108.463
21
-84.1144
0
LINE
8
BLACK
6
CONTINUOUS
10
108.463
20
-84.1144
11
108.496
21
-84.2837
0
LINE
8
BLACK
6
CONTINUOUS
10
108.496
20
-84.2837
11
108.496
21
-84.4563
0
LINE
8
BLACK
6
CONTINUOUS
10
108.496
20
-84.4563
11
108.463
21
-84.6256
0
LINE
8
BLACK
6
CONTINUOUS
10
108.463
20
-84.6256
11
108.397
21
-84.7851
0
LINE
8
BLACK
6
CONTINUOUS
10
108.397
20
-84.7851
11
108.301
21
-84.9286
0
LINE
8
BLACK
6
CONTINUOUS
10
108.301
20
-84.9286
11
108.179
21
-85.0507
0
LINE
8
BLACK
6
CONTINUOUS
10
108.179
20
-85.0507
11
108.035
21
-85.1466
0
LINE
8
BLACK
6
CONTINUOUS
10
108.035
20
-85.1466
11
107.876
21
-85.2126
0
LINE
8
BLACK
6
CONTINUOUS
10
107.876
20
-85.2126
11
107.706
21
-85.2463
0
LINE
8
BLACK
6
CONTINUOUS
10
107.706
20
-85.2463
11
107.534
21
-85.2463
0
LINE
8
BLACK
6
CONTINUOUS
10
107.534
20
-85.2463
11
107.364
21
-85.2126
0
LINE
8
BLACK
6
CONTINUOUS
10
107.364
20
-85.2126
11
107.205
21
-85.1466
0
LINE
8
BLACK
6
CONTINUOUS
10
107.205
20
-85.1466
11
107.061
21
-85.0507
0
LINE
8
BLACK
6
CONTINUOUS
10
107.061
20
-85.0507
11
106.939
21
-84.9286
0
LINE
8
BLACK
6
CONTINUOUS
10
106.939
20
-84.9286
11
106.843
21
-84.7851
0
LINE
8
BLACK
6
CONTINUOUS
10
106.843
20
-84.7851
11
106.777
21
-84.6256
0
LINE
8
BLACK
6
CONTINUOUS
10
106.777
20
-84.6256
11
106.744
21
-84.4563
0
LINE
8
BLACK
6
CONTINUOUS
10
106.744
20
-84.4563
11
106.744
21
-84.2837
0
LINE
8
BLACK
6
CONTINUOUS
10
106.744
20
-84.2837
11
106.777
21
-84.1144
0
LINE
8
BLACK
6
CONTINUOUS
10
106.777
20
-84.1144
11
106.843
21
-83.9549
0
LINE
8
BLACK
6
CONTINUOUS
10
106.843
20
-83.9549
11
106.939
21
-83.8114
0
LINE
8
BLACK
6
CONTINUOUS
10
106.939
20
-83.8114
11
107.061
21
-83.6893
0
LINE
8
BLACK
6
CONTINUOUS
10
107.061
20
-83.6893
11
107.205
21
-83.5934
0
LINE
8
BLACK
6
CONTINUOUS
10
107.205
20
-83.5934
11
107.364
21
-83.5274
0
LINE
8
BLACK
6
CONTINUOUS
10
107.364
20
-83.5274
11
107.534
21
-83.4937
0
LINE
8
BLACK
6
CONTINUOUS
10
107.534
20
-83.4937
11
107.706
21
-83.4937
0
LINE
8
BLACK
6
CONTINUOUS
10
107.706
20
-83.4937
11
107.876
21
-83.5274
0
LINE
8
BLACK
6
CONTINUOUS
10
107.876
20
-80.9874
11
108.035
21
-81.0534
0
LINE
8
BLACK
6
CONTINUOUS
10
108.035
20
-81.0534
11
108.179
21
-81.1493
0
LINE
8
BLACK
6
CONTINUOUS
10
108.179
20
-81.1493
11
108.301
21
-81.2714
0
LINE
8
BLACK
6
CONTINUOUS
10
108.301
20
-81.2714
11
108.397
21
-81.4149
0
LINE
8
BLACK
6
CONTINUOUS
10
108.397
20
-81.4149
11
108.463
21
-81.5744
0
LINE
8
BLACK
6
CONTINUOUS
10
108.463
20
-81.5744
11
108.496
21
-81.7437
0
LINE
8
BLACK
6
CONTINUOUS
10
108.496
20
-81.7437
11
108.496
21
-81.9163
0
LINE
8
BLACK
6
CONTINUOUS
10
108.496
20
-81.9163
11
108.463
21
-82.0856
0
LINE
8
BLACK
6
CONTINUOUS
10
108.463
20
-82.0856
11
108.397
21
-82.2451
0
LINE
8
BLACK
6
CONTINUOUS
10
108.397
20
-82.2451
11
108.301
21
-82.3886
0
LINE
8
BLACK
6
CONTINUOUS
10
108.301
20
-82.3886
11
108.179
21
-82.5107
0
LINE
8
BLACK
6
CONTINUOUS
10
108.179
20
-82.5107
11
108.035
21
-82.6066
0
LINE
8
BLACK
6
CONTINUOUS
10
108.035
20
-82.6066
11
107.876
21
-82.6726
0
LINE
8
BLACK
6
CONTINUOUS
10
107.876
20
-82.6726
11
107.706
21
-82.7063
0
LINE
8
BLACK
6
CONTINUOUS
10
107.706
20
-82.7063
11
107.534
21
-82.7063
0
LINE
8
BLACK
6
CONTINUOUS
10
107.534
20
-82.7063
11
107.364
21
-82.6726
0
LINE
8
BLACK
6
CONTINUOUS
10
107.364
20
-82.6726
11
107.205
21
-82.6066
0
LINE
8
BLACK
6
CONTINUOUS
10
107.205
20
-82.6066
11
107.061
21
-82.5107
0
LINE
8
BLACK
6
CONTINUOUS
10
107.061
20
-82.5107
11
106.939
21
-82.3886
0
LINE
8
BLACK
6
CONTINUOUS
10
106.939
20
-82.3886
11
106.843
21
-82.2451
0
LINE
8
BLACK
6
CONTINUOUS
10
106.843
20
-82.2451
11
106.777
21
-82.0856
0
LINE
8
BLACK
6
CONTINUOUS
10
106.777
20
-82.0856
11
106.744
21
-81.9163
0
LINE
8
BLACK
6
CONTINUOUS
10
106.744
20
-81.9163
11
106.744
21
-81.7437
0
LINE
8
BLACK
6
CONTINUOUS
10
106.744
20
-81.7437
11
106.777
21
-81.5744
0
LINE
8
BLACK
6
CONTINUOUS
10
106.777
20
-81.5744
11
106.843
21
-81.4149
0
LINE
8
BLACK
6
CONTINUOUS
10
106.843
20
-81.4149
11
106.939
21
-81.2714
0
LINE
8
BLACK
6
CONTINUOUS
10
106.939
20
-81.2714
11
107.061
21
-81.1493
0
LINE
8
BLACK
6
CONTINUOUS
10
107.061
20
-81.1493
11
107.205
21
-81.0534
0
LINE
8
BLACK
6
CONTINUOUS
10
107.205
20
-81.0534
11
107.364
21
-80.9874
0
LINE
8
BLACK
6
CONTINUOUS
10
107.364
20
-80.9874
11
107.534
21
-80.9537
0
LINE
8
BLACK
6
CONTINUOUS
10
107.534
20
-80.9537
11
107.706
21
-80.9537
0
LINE
8
BLACK
6
CONTINUOUS
10
107.706
20
-80.9537
11
107.876
21
-80.9874
0
LINE
8
BLACK
6
CONTINUOUS
10
92.6356
20
-80.9874
11
92.7951
21
-81.0534
0
LINE
8
BLACK
6
CONTINUOUS
10
92.7951
20
-81.0534
11
92.9386
21
-81.1493
0
LINE
8
BLACK
6
CONTINUOUS
10
92.9386
20
-81.1493
11
93.0607
21
-81.2714
0
LINE
8
BLACK
6
CONTINUOUS
10
93.0607
20
-81.2714
11
93.1566
21
-81.4149
0
LINE
8
BLACK
6
CONTINUOUS
10
93.1566
20
-81.4149
11
93.2226
21
-81.5744
0
LINE
8
BLACK
6
CONTINUOUS
10
93.2226
20
-81.5744
11
93.2563
21
-81.7437
0
LINE
8
BLACK
6
CONTINUOUS
10
93.2563
20
-81.7437
11
93.2563
21
-81.9163
0
LINE
8
BLACK
6
CONTINUOUS
10
93.2563
20
-81.9163
11
93.2226
21
-82.0856
0
LINE
8
BLACK
6
CONTINUOUS
10
93.2226
20
-82.0856
11
93.1566
21
-82.2451
0
LINE
8
BLACK
6
CONTINUOUS
10
93.1566
20
-82.2451
11
93.0607
21
-82.3886
0
LINE
8
BLACK
6
CONTINUOUS
10
93.0607
20
-82.3886
11
92.9386
21
-82.5107
0
LINE
8
BLACK
6
CONTINUOUS
10
92.9386
20
-82.5107
11
92.7951
21
-82.6066
0
LINE
8
BLACK
6
CONTINUOUS
10
92.7951
20
-82.6066
11
92.6356
21
-82.6726
0
LINE
8
BLACK
6
CONTINUOUS
10
92.6356
20
-82.6726
11
92.4663
21
-82.7063
0
LINE
8
BLACK
6
CONTINUOUS
10
92.4663
20
-82.7063
11
92.2937
21
-82.7063
0
LINE
8
BLACK
6
CONTINUOUS
10
92.2937
20
-82.7063
11
92.1244
21
-82.6726
0
LINE
8
BLACK
6
CONTINUOUS
10
92.1244
20
-82.6726
11
91.9649
21
-82.6066
0
LINE
8
BLACK
6
CONTINUOUS
10
91.9649
20
-82.6066
11
91.8214
21
-82.5107
0
LINE
8
BLACK
6
CONTINUOUS
10
91.8214
20
-82.5107
11
91.6993
21
-82.3886
0
LINE
8
BLACK
6
CONTINUOUS
10
91.6993
20
-82.3886
11
91.6034
21
-82.2451
0
LINE
8
BLACK
6
CONTINUOUS
10
91.6034
20
-82.2451
11
91.5374
21
-82.0856
0
LINE
8
BLACK
6
CONTINUOUS
10
91.5374
20
-82.0856
11
91.5037
21
-81.9163
0
LINE
8
BLACK
6
CONTINUOUS
10
91.5037
20
-81.9163
11
91.5037
21
-81.7437
0
LINE
8
BLACK
6
CONTINUOUS
10
91.5037
20
-81.7437
11
91.5374
21
-81.5744
0
LINE
8
BLACK
6
CONTINUOUS
10
91.5374
20
-81.5744
11
91.6034
21
-81.4149
0
LINE
8
BLACK
6
CONTINUOUS
10
91.6034
20
-81.4149
11
91.6993
21
-81.2714
0
LINE
8
BLACK
6
CONTINUOUS
10
91.6993
20
-81.2714
11
91.8214
21
-81.1493
0
LINE
8
BLACK
6
CONTINUOUS
10
91.8214
20
-81.1493
11
91.9649
21
-81.0534
0
LINE
8
BLACK
6
CONTINUOUS
10
91.9649
20
-81.0534
11
92.1244
21
-80.9874
0
LINE
8
BLACK
6
CONTINUOUS
10
92.1244
20
-80.9874
11
92.2937
21
-80.9537
0
LINE
8
BLACK
6
CONTINUOUS
10
92.2937
20
-80.9537
11
92.4663
21
-80.9537
0
LINE
8
BLACK
6
CONTINUOUS
10
92.4663
20
-80.9537
11
92.6356
21
-80.9874
0
LINE
8
BLACK
6
CONTINUOUS
10
107.876
20
-78.4474
11
108.035
21
-78.5134
0
LINE
8
BLACK
6
CONTINUOUS
10
108.035
20
-78.5134
11
108.179
21
-78.6093
0
LINE
8
BLACK
6
CONTINUOUS
10
108.179
20
-78.6093
11
108.301
21
-78.7314
0
LINE
8
BLACK
6
CONTINUOUS
10
108.301
20
-78.7314
11
108.397
21
-78.8749
0
LINE
8
BLACK
6
CONTINUOUS
10
108.397
20
-78.8749
11
108.463
21
-79.0344
0
LINE
8
BLACK
6
CONTINUOUS
10
108.463
20
-79.0344
11
108.496
21
-79.2037
0
LINE
8
BLACK
6
CONTINUOUS
10
108.496
20
-79.2037
11
108.496
21
-79.3763
0
LINE
8
BLACK
6
CONTINUOUS
10
108.496
20
-79.3763
11
108.463
21
-79.5456
0
LINE
8
BLACK
6
CONTINUOUS
10
108.463
20
-79.5456
11
108.397
21
-79.7051
0
LINE
8
BLACK
6
CONTINUOUS
10
108.397
20
-79.7051
11
108.301
21
-79.8486
0
LINE
8
BLACK
6
CONTINUOUS
10
108.301
20
-79.8486
11
108.179
21
-79.9707
0
LINE
8
BLACK
6
CONTINUOUS
10
108.179
20
-79.9707
11
108.035
21
-80.0666
0
LINE
8
BLACK
6
CONTINUOUS
10
108.035
20
-80.0666
11
107.876
21
-80.1326
0
LINE
8
BLACK
6
CONTINUOUS
10
107.876
20
-80.1326
11
107.706
21
-80.1663
0
LINE
8
BLACK
6
CONTINUOUS
10
107.706
20
-80.1663
11
107.534
21
-80.1663
0
LINE
8
BLACK
6
CONTINUOUS
10
107.534
20
-80.1663
11
107.364
21
-80.1326
0
LINE
8
BLACK
6
CONTINUOUS
10
107.364
20
-80.1326
11
107.205
21
-80.0666
0
LINE
8
BLACK
6
CONTINUOUS
10
107.205
20
-80.0666
11
107.061
21
-79.9707
0
LINE
8
BLACK
6
CONTINUOUS
10
107.061
20
-79.9707
11
106.939
21
-79.8486
0
LINE
8
BLACK
6
CONTINUOUS
10
106.939
20
-79.8486
11
106.843
21
-79.7051
0
LINE
8
BLACK
6
CONTINUOUS
10
106.843
20
-79.7051
11
106.777
21
-79.5456
0
LINE
8
BLACK
6
CONTINUOUS
10
106.777
20
-79.5456
11
106.744
21
-79.3763
0
LINE
8
BLACK
6
CONTINUOUS
10
106.744
20
-79.3763
11
106.744
21
-79.2037
0
LINE
8
BLACK
6
CONTINUOUS
10
106.744
20
-79.2037
11
106.777
21
-79.0344
0
LINE
8
BLACK
6
CONTINUOUS
10
106.777
20
-79.0344
11
106.843
21
-78.8749
0
LINE
8
BLACK
6
CONTINUOUS
10
106.843
20
-78.8749
11
106.939
21
-78.7314
0
LINE
8
BLACK
6
CONTINUOUS
10
106.939
20
-78.7314
11
107.061
21
-78.6093
0
LINE
8
BLACK
6
CONTINUOUS
10
107.061
20
-78.6093
11
107.205
21
-78.5134
0
LINE
8
BLACK
6
CONTINUOUS
10
107.205
20
-78.5134
11
107.364
21
-78.4474
0
LINE
8
BLACK
6
CONTINUOUS
10
107.364
20
-78.4474
11
107.534
21
-78.4137
0
LINE
8
BLACK
6
CONTINUOUS
10
107.534
20
-78.4137
11
107.706
21
-78.4137
0
LINE
8
BLACK
6
CONTINUOUS
10
107.706
20
-78.4137
11
107.876
21
-78.4474
0
LINE
8
BLACK
6
CONTINUOUS
10
92.6356
20
-78.4474
11
92.7951
21
-78.5134
0
LINE
8
BLACK
6
CONTINUOUS
10
92.7951
20
-78.5134
11
92.9386
21
-78.6093
0
LINE
8
BLACK
6
CONTINUOUS
10
92.9386
20
-78.6093
11
93.0607
21
-78.7314
0
LINE
8
BLACK
6
CONTINUOUS
10
93.0607
20
-78.7314
11
93.1566
21
-78.8749
0
LINE
8
BLACK
6
CONTINUOUS
10
93.1566
20
-78.8749
11
93.2226
21
-79.0344
0
LINE
8
BLACK
6
CONTINUOUS
10
93.2226
20
-79.0344
11
93.2563
21
-79.2037
0
LINE
8
BLACK
6
CONTINUOUS
10
93.2563
20
-79.2037
11
93.2563
21
-79.3763
0
LINE
8
BLACK
6
CONTINUOUS
10
93.2563
20
-79.3763
11
93.2226
21
-79.5456
0
LINE
8
BLACK
6
CONTINUOUS
10
93.2226
20
-79.5456
11
93.1566
21
-79.7051
0
LINE
8
BLACK
6
CONTINUOUS
10
93.1566
20
-79.7051
11
93.0607
21
-79.8486
0
LINE
8
BLACK
6
CONTINUOUS
10
93.0607
20
-79.8486
11
92.9386
21
-79.9707
0
LINE
8
BLACK
6
CONTINUOUS
10
92.9386
20
-79.9707
11
92.7951
21
-80.0666
0
LINE
8
BLACK
6
CONTINUOUS
10
92.7951
20
-80.0666
11
92.6356
21
-80.1326
0
LINE
8
BLACK
6
CONTINUOUS
10
92.6356
20
-80.1326
11
92.4663
21
-80.1663
0
LINE
8
BLACK
6
CONTINUOUS
10
92.4663
20
-80.1663
11
92.2937
21
-80.1663
0
LINE
8
BLACK
6
CONTINUOUS
10
92.2937
20
-80.1663
11
92.1244
21
-80.1326
0
LINE
8
BLACK
6
CONTINUOUS
10
92.1244
20
-80.1326
11
91.9649
21
-80.0666
0
LINE
8
BLACK
6
CONTINUOUS
10
91.9649
20
-80.0666
11
91.8214
21
-79.9707
0
LINE
8
BLACK
6
CONTINUOUS
10
91.8214
20
-79.9707
11
91.6993
21
-79.8486
0
LINE
8
BLACK
6
CONTINUOUS
10
91.6993
20
-79.8486
11
91.6034
21
-79.7051
0
LINE
8
BLACK
6
CONTINUOUS
10
91.6034
20
-79.7051
11
91.5374
21
-79.5456
0
LINE
8
BLACK
6
CONTINUOUS
10
91.5374
20
-79.5456
11
91.5037
21
-79.3763
0
LINE
8
BLACK
6
CONTINUOUS
10
91.5037
20
-79.3763
11
91.5037
21
-79.2037
0
LINE
8
BLACK
6
CONTINUOUS
10
91.5037
20
-79.2037
11
91.5374
21
-79.0344
0
LINE
8
BLACK
6
CONTINUOUS
10
91.5374
20
-79.0344
11
91.6034
21
-78.8749
0
LINE
8
BLACK
6
CONTINUOUS
10
91.6034
20
-78.8749
11
91.6993
21
-78.7314
0
LINE
8
BLACK
6
CONTINUOUS
10
91.6993
20
-78.7314
11
91.8214
21
-78.6093
0
LINE
8
BLACK
6
CONTINUOUS
10
91.8214
20
-78.6093
11
91.9649
21
-78.5134
0
LINE
8
BLACK
6
CONTINUOUS
10
91.9649
20
-78.5134
11
92.1244
21
-78.4474
0
LINE
8
BLACK
6
CONTINUOUS
10
92.1244
20
-78.4474
11
92.2937
21
-78.4137
0
LINE
8
BLACK
6
CONTINUOUS
10
92.2937
20
-78.4137
11
92.4663
21
-78.4137
0
LINE
8
BLACK
6
CONTINUOUS
10
92.4663
20
-78.4137
11
92.6356
21
-78.4474
0
LINE
8
BLACK
6
CONTINUOUS
10
107.876
20
-75.9074
11
108.035
21
-75.9734
0
LINE
8
BLACK
6
CONTINUOUS
10
108.035
20
-75.9734
11
108.179
21
-76.0693
0
LINE
8
BLACK
6
CONTINUOUS
10
108.179
20
-76.0693
11
108.301
21
-76.1914
0
LINE
8
BLACK
6
CONTINUOUS
10
108.301
20
-76.1914
11
108.397
21
-76.3349
0
LINE
8
BLACK
6
CONTINUOUS
10
108.397
20
-76.3349
11
108.463
21
-76.4944
0
LINE
8
BLACK
6
CONTINUOUS
10
108.463
20
-76.4944
11
108.496
21
-76.6637
0
LINE
8
BLACK
6
CONTINUOUS
10
108.496
20
-76.6637
11
108.496
21
-76.8363
0
LINE
8
BLACK
6
CONTINUOUS
10
108.496
20
-76.8363
11
108.463
21
-77.0056
0
LINE
8
BLACK
6
CONTINUOUS
10
108.463
20
-77.0056
11
108.397
21
-77.1651
0
LINE
8
BLACK
6
CONTINUOUS
10
108.397
20
-77.1651
11
108.301
21
-77.3086
0
LINE
8
BLACK
6
CONTINUOUS
10
108.301
20
-77.3086
11
108.179
21
-77.4307
0
LINE
8
BLACK
6
CONTINUOUS
10
108.179
20
-77.4307
11
108.035
21
-77.5266
0
LINE
8
BLACK
6
CONTINUOUS
10
108.035
20
-77.5266
11
107.876
21
-77.5926
0
LINE
8
BLACK
6
CONTINUOUS
10
107.876
20
-77.5926
11
107.706
21
-77.6263
0
LINE
8
BLACK
6
CONTINUOUS
10
107.706
20
-77.6263
11
107.534
21
-77.6263
0
LINE
8
BLACK
6
CONTINUOUS
10
107.534
20
-77.6263
11
107.364
21
-77.5926
0
LINE
8
BLACK
6
CONTINUOUS
10
107.364
20
-77.5926
11
107.205
21
-77.5266
0
LINE
8
BLACK
6
CONTINUOUS
10
107.205
20
-77.5266
11
107.061
21
-77.4307
0
LINE
8
BLACK
6
CONTINUOUS
10
107.061
20
-77.4307
11
106.939
21
-77.3086
0
LINE
8
BLACK
6
CONTINUOUS
10
106.939
20
-77.3086
11
106.843
21
-77.1651
0
LINE
8
BLACK
6
CONTINUOUS
10
106.843
20
-77.1651
11
106.777
21
-77.0056
0
LINE
8
BLACK
6
CONTINUOUS
10
106.777
20
-77.0056
11
106.744
21
-76.8363
0
LINE
8
BLACK
6
CONTINUOUS
10
106.744
20
-76.8363
11
106.744
21
-76.6637
0
LINE
8
BLACK
6
CONTINUOUS
10
106.744
20
-76.6637
11
106.777
21
-76.4944
0
LINE
8
BLACK
6
CONTINUOUS
10
106.777
20
-76.4944
11
106.843
21
-76.3349
0
LINE
8
BLACK
6
CONTINUOUS
10
106.843
20
-76.3349
11
106.939
21
-76.1914
0
LINE
8
BLACK
6
CONTINUOUS
10
106.939
20
-76.1914
11
107.061
21
-76.0693
0
LINE
8
BLACK
6
CONTINUOUS
10
107.061
20
-76.0693
11
107.205
21
-75.9734
0
LINE
8
BLACK
6
CONTINUOUS
10
107.205
20
-75.9734
11
107.364
21
-75.9074
0
LINE
8
BLACK
6
CONTINUOUS
10
107.364
20
-75.9074
11
107.534
21
-75.8737
0
LINE
8
BLACK
6
CONTINUOUS
10
107.534
20
-75.8737
11
107.706
21
-75.8737
0
LINE
8
BLACK
6
CONTINUOUS
10
107.706
20
-75.8737
11
107.876
21
-75.9074
0
LINE
8
BLACK
6
CONTINUOUS
10
92.6356
20
-75.9074
11
92.7951
21
-75.9734
0
LINE
8
BLACK
6
CONTINUOUS
10
92.7951
20
-75.9734
11
92.9386
21
-76.0693
0
LINE
8
BLACK
6
CONTINUOUS
10
92.9386
20
-76.0693
11
93.0607
21
-76.1914
0
LINE
8
BLACK
6
CONTINUOUS
10
93.0607
20
-76.1914
11
93.1566
21
-76.3349
0
LINE
8
BLACK
6
CONTINUOUS
10
93.1566
20
-76.3349
11
93.2226
21
-76.4944
0
LINE
8
BLACK
6
CONTINUOUS
10
93.2226
20
-76.4944
11
93.2563
21
-76.6637
0
LINE
8
BLACK
6
CONTINUOUS
10
93.2563
20
-76.6637
11
93.2563
21
-76.8363
0
LINE
8
BLACK
6
CONTINUOUS
10
93.2563
20
-76.8363
11
93.2226
21
-77.0056
0
LINE
8
BLACK
6
CONTINUOUS
10
93.2226
20
-77.0056
11
93.1566
21
-77.1651
0
LINE
8
BLACK
6
CONTINUOUS
10
93.1566
20
-77.1651
11
93.0607
21
-77.3086
0
LINE
8
BLACK
6
CONTINUOUS
10
93.0607
20
-77.3086
11
92.9386
21
-77.4307
0
LINE
8
BLACK
6
CONTINUOUS
10
92.9386
20
-77.4307
11
92.7951
21
-77.5266
0
LINE
8
BLACK
6
CONTINUOUS
10
92.7951
20
-77.5266
11
92.6356
21
-77.5926
0
LINE
8
BLACK
6
CONTINUOUS
10
92.6356
20
-77.5926
11
92.4663
21
-77.6263
0
LINE
8
BLACK
6
CONTINUOUS
10
92.4663
20
-77.6263
11
92.2937
21
-77.6263
0
LINE
8
BLACK
6
CONTINUOUS
10
92.2937
20
-77.6263
11
92.1244
21
-77.5926
0
LINE
8
BLACK
6
CONTINUOUS
10
92.1244
20
-77.5926
11
91.9649
21
-77.5266
0
LINE
8
BLACK
6
CONTINUOUS
10
91.9649
20
-77.5266
11
91.8214
21
-77.4307
0
LINE
8
BLACK
6
CONTINUOUS
10
91.8214
20
-77.4307
11
91.6993
21
-77.3086
0
LINE
8
BLACK
6
CONTINUOUS
10
91.6993
20
-77.3086
11
91.6034
21
-77.1651
0
LINE
8
BLACK
6
CONTINUOUS
10
91.6034
20
-77.1651
11
91.5374
21
-77.0056
0
LINE
8
BLACK
6
CONTINUOUS
10
91.5374
20
-77.0056
11
91.5037
21
-76.8363
0
LINE
8
BLACK
6
CONTINUOUS
10
91.5037
20
-76.8363
11
91.5037
21
-76.6637
0
LINE
8
BLACK
6
CONTINUOUS
10
91.5037
20
-76.6637
11
91.5374
21
-76.4944
0
LINE
8
BLACK
6
CONTINUOUS
10
91.5374
20
-76.4944
11
91.6034
21
-76.3349
0
LINE
8
BLACK
6
CONTINUOUS
10
91.6034
20
-76.3349
11
91.6993
21
-76.1914
0
LINE
8
BLACK
6
CONTINUOUS
10
91.6993
20
-76.1914
11
91.8214
21
-76.0693
0
LINE
8
BLACK
6
CONTINUOUS
10
91.8214
20
-76.0693
11
91.9649
21
-75.9734
0
LINE
8
BLACK
6
CONTINUOUS
10
91.9649
20
-75.9734
11
92.1244
21
-75.9074
0
LINE
8
BLACK
6
CONTINUOUS
10
92.1244
20
-75.9074
11
92.2937
21
-75.8737
0
LINE
8
BLACK
6
CONTINUOUS
10
92.2937
20
-75.8737
11
92.4663
21
-75.8737
0
LINE
8
BLACK
6
CONTINUOUS
10
92.4663
20
-75.8737
11
92.6356
21
-75.9074
0
LINE
8
BLACK
6
CONTINUOUS
10
107.876
20
-73.3674
11
108.035
21
-73.4334
0
LINE
8
BLACK
6
CONTINUOUS
10
108.035
20
-73.4334
11
108.179
21
-73.5293
0
LINE
8
BLACK
6
CONTINUOUS
10
108.179
20
-73.5293
11
108.301
21
-73.6514
0
LINE
8
BLACK
6
CONTINUOUS
10
108.301
20
-73.6514
11
108.397
21
-73.7949
0
LINE
8
BLACK
6
CONTINUOUS
10
108.397
20
-73.7949
11
108.463
21
-73.9544
0
LINE
8
BLACK
6
CONTINUOUS
10
108.463
20
-73.9544
11
108.496
21
-74.1237
0
LINE
8
BLACK
6
CONTINUOUS
10
108.496
20
-74.1237
11
108.496
21
-74.2963
0
LINE
8
BLACK
6
CONTINUOUS
10
108.496
20
-74.2963
11
108.463
21
-74.4656
0
LINE
8
BLACK
6
CONTINUOUS
10
108.463
20
-74.4656
11
108.397
21
-74.6251
0
LINE
8
BLACK
6
CONTINUOUS
10
108.397
20
-74.6251
11
108.301
21
-74.7686
0
LINE
8
BLACK
6
CONTINUOUS
10
108.301
20
-74.7686
11
108.179
21
-74.8907
0
LINE
8
BLACK
6
CONTINUOUS
10
108.179
20
-74.8907
11
108.035
21
-74.9866
0
LINE
8
BLACK
6
CONTINUOUS
10
108.035
20
-74.9866
11
107.876
21
-75.0526
0
LINE
8
BLACK
6
CONTINUOUS
10
107.876
20
-75.0526
11
107.706
21
-75.0863
0
LINE
8
BLACK
6
CONTINUOUS
10
107.706
20
-75.0863
11
107.534
21
-75.0863
0
LINE
8
BLACK
6
CONTINUOUS
10
107.534
20
-75.0863
11
107.364
21
-75.0526
0
LINE
8
BLACK
6
CONTINUOUS
10
107.364
20
-75.0526
11
107.205
21
-74.9866
0
LINE
8
BLACK
6
CONTINUOUS
10
107.205
20
-74.9866
11
107.061
21
-74.8907
0
LINE
8
BLACK
6
CONTINUOUS
10
107.061
20
-74.8907
11
106.939
21
-74.7686
0
LINE
8
BLACK
6
CONTINUOUS
10
106.939
20
-74.7686
11
106.843
21
-74.6251
0
LINE
8
BLACK
6
CONTINUOUS
10
106.843
20
-74.6251
11
106.777
21
-74.4656
0
LINE
8
BLACK
6
CONTINUOUS
10
106.777
20
-74.4656
11
106.744
21
-74.2963
0
LINE
8
BLACK
6
CONTINUOUS
10
106.744
20
-74.2963
11
106.744
21
-74.1237
0
LINE
8
BLACK
6
CONTINUOUS
10
106.744
20
-74.1237
11
106.777
21
-73.9544
0
LINE
8
BLACK
6
CONTINUOUS
10
106.777
20
-73.9544
11
106.843
21
-73.7949
0
LINE
8
BLACK
6
CONTINUOUS
10
106.843
20
-73.7949
11
106.939
21
-73.6514
0
LINE
8
BLACK
6
CONTINUOUS
10
106.939
20
-73.6514
11
107.061
21
-73.5293
0
LINE
8
BLACK
6
CONTINUOUS
10
107.061
20
-73.5293
11
107.205
21
-73.4334
0
LINE
8
BLACK
6
CONTINUOUS
10
107.205
20
-73.4334
11
107.364
21
-73.3674
0
LINE
8
BLACK
6
CONTINUOUS
10
107.364
20
-73.3674
11
107.534
21
-73.3337
0
LINE
8
BLACK
6
CONTINUOUS
10
107.534
20
-73.3337
11
107.706
21
-73.3337
0
LINE
8
BLACK
6
CONTINUOUS
10
107.706
20
-73.3337
11
107.876
21
-73.3674
0
LINE
8
BLACK
6
CONTINUOUS
10
92.6356
20
-73.3674
11
92.7951
21
-73.4334
0
LINE
8
BLACK
6
CONTINUOUS
10
92.7951
20
-73.4334
11
92.9386
21
-73.5293
0
LINE
8
BLACK
6
CONTINUOUS
10
92.9386
20
-73.5293
11
93.0607
21
-73.6514
0
LINE
8
BLACK
6
CONTINUOUS
10
93.0607
20
-73.6514
11
93.1566
21
-73.7949
0
LINE
8
BLACK
6
CONTINUOUS
10
93.1566
20
-73.7949
11
93.2226
21
-73.9544
0
LINE
8
BLACK
6
CONTINUOUS
10
93.2226
20
-73.9544
11
93.2563
21
-74.1237
0
LINE
8
BLACK
6
CONTINUOUS
10
93.2563
20
-74.1237
11
93.2563
21
-74.2963
0
LINE
8
BLACK
6
CONTINUOUS
10
93.2563
20
-74.2963
11
93.2226
21
-74.4656
0
LINE
8
BLACK
6
CONTINUOUS
10
93.2226
20
-74.4656
11
93.1566
21
-74.6251
0
LINE
8
BLACK
6
CONTINUOUS
10
93.1566
20
-74.6251
11
93.0607
21
-74.7686
0
LINE
8
BLACK
6
CONTINUOUS
10
93.0607
20
-74.7686
11
92.9386
21
-74.8907
0
LINE
8
BLACK
6
CONTINUOUS
10
92.9386
20
-74.8907
11
92.7951
21
-74.9866
0
LINE
8
BLACK
6
CONTINUOUS
10
92.7951
20
-74.9866
11
92.6356
21
-75.0526
0
LINE
8
BLACK
6
CONTINUOUS
10
92.6356
20
-75.0526
11
92.4663
21
-75.0863
0
LINE
8
BLACK
6
CONTINUOUS
10
92.4663
20
-75.0863
11
92.2937
21
-75.0863
0
LINE
8
BLACK
6
CONTINUOUS
10
92.2937
20
-75.0863
11
92.1244
21
-75.0526
0
LINE
8
BLACK
6
CONTINUOUS
10
92.1244
20
-75.0526
11
91.9649
21
-74.9866
0
LINE
8
BLACK
6
CONTINUOUS
10
91.9649
20
-74.9866
11
91.8214
21
-74.8907
0
LINE
8
BLACK
6
CONTINUOUS
10
91.8214
20
-74.8907
11
91.6993
21
-74.7686
0
LINE
8
BLACK
6
CONTINUOUS
10
91.6993
20
-74.7686
11
91.6034
21
-74.6251
0
LINE
8
BLACK
6
CONTINUOUS
10
91.6034
20
-74.6251
11
91.5374
21
-74.4656
0
LINE
8
BLACK
6
CONTINUOUS
10
91.5374
20
-74.4656
11
91.5037
21
-74.2963
0
LINE
8
BLACK
6
CONTINUOUS
10
91.5037
20
-74.2963
11
91.5037
21
-74.1237
0
LINE
8
BLACK
6
CONTINUOUS
10
91.5037
20
-74.1237
11
91.5374
21
-73.9544
0
LINE
8
BLACK
6
CONTINUOUS
10
91.5374
20
-73.9544
11
91.6034
21
-73.7949
0
LINE
8
BLACK
6
CONTINUOUS
10
91.6034
20
-73.7949
11
91.6993
21
-73.6514
0
LINE
8
BLACK
6
CONTINUOUS
10
91.6993
20
-73.6514
11
91.8214
21
-73.5293
0
LINE
8
BLACK
6
CONTINUOUS
10
91.8214
20
-73.5293
11
91.9649
21
-73.4334
0
LINE
8
BLACK
6
CONTINUOUS
10
91.9649
20
-73.4334
11
92.1244
21
-73.3674
0
LINE
8
BLACK
6
CONTINUOUS
10
92.1244
20
-73.3674
11
92.2937
21
-73.3337
0
LINE
8
BLACK
6
CONTINUOUS
10
92.2937
20
-73.3337
11
92.4663
21
-73.3337
0
LINE
8
BLACK
6
CONTINUOUS
10
92.4663
20
-73.3337
11
92.6356
21
-73.3674
0
LINE
8
BLACK
6
CONTINUOUS
10
107.876
20
-70.8274
11
108.035
21
-70.8934
0
LINE
8
BLACK
6
CONTINUOUS
10
108.035
20
-70.8934
11
108.179
21
-70.9893
0
LINE
8
BLACK
6
CONTINUOUS
10
108.179
20
-70.9893
11
108.301
21
-71.1114
0
LINE
8
BLACK
6
CONTINUOUS
10
108.301
20
-71.1114
11
108.397
21
-71.2549
0
LINE
8
BLACK
6
CONTINUOUS
10
108.397
20
-71.2549
11
108.463
21
-71.4144
0
LINE
8
BLACK
6
CONTINUOUS
10
108.463
20
-71.4144
11
108.496
21
-71.5837
0
LINE
8
BLACK
6
CONTINUOUS
10
108.496
20
-71.5837
11
108.496
21
-71.7563
0
LINE
8
BLACK
6
CONTINUOUS
10
108.496
20
-71.7563
11
108.463
21
-71.9256
0
LINE
8
BLACK
6
CONTINUOUS
10
108.463
20
-71.9256
11
108.397
21
-72.0851
0
LINE
8
BLACK
6
CONTINUOUS
10
108.397
20
-72.0851
11
108.301
21
-72.2286
0
LINE
8
BLACK
6
CONTINUOUS
10
108.301
20
-72.2286
11
108.179
21
-72.3507
0
LINE
8
BLACK
6
CONTINUOUS
10
108.179
20
-72.3507
11
108.035
21
-72.4466
0
LINE
8
BLACK
6
CONTINUOUS
10
108.035
20
-72.4466
11
107.876
21
-72.5126
0
LINE
8
BLACK
6
CONTINUOUS
10
107.876
20
-72.5126
11
107.706
21
-72.5463
0
LINE
8
BLACK
6
CONTINUOUS
10
107.706
20
-72.5463
11
107.534
21
-72.5463
0
LINE
8
BLACK
6
CONTINUOUS
10
107.534
20
-72.5463
11
107.364
21
-72.5126
0
LINE
8
BLACK
6
CONTINUOUS
10
107.364
20
-72.5126
11
107.205
21
-72.4466
0
LINE
8
BLACK
6
CONTINUOUS
10
107.205
20
-72.4466
11
107.061
21
-72.3507
0
LINE
8
BLACK
6
CONTINUOUS
10
107.061
20
-72.3507
11
106.939
21
-72.2286
0
LINE
8
BLACK
6
CONTINUOUS
10
106.939
20
-72.2286
11
106.843
21
-72.0851
0
LINE
8
BLACK
6
CONTINUOUS
10
106.843
20
-72.0851
11
106.777
21
-71.9256
0
LINE
8
BLACK
6
CONTINUOUS
10
106.777
20
-71.9256
11
106.744
21
-71.7563
0
LINE
8
BLACK
6
CONTINUOUS
10
106.744
20
-71.7563
11
106.744
21
-71.5837
0
LINE
8
BLACK
6
CONTINUOUS
10
106.744
20
-71.5837
11
106.777
21
-71.4144
0
LINE
8
BLACK
6
CONTINUOUS
10
106.777
20
-71.4144
11
106.843
21
-71.2549
0
LINE
8
BLACK
6
CONTINUOUS
10
106.843
20
-71.2549
11
106.939
21
-71.1114
0
LINE
8
BLACK
6
CONTINUOUS
10
106.939
20
-71.1114
11
107.061
21
-70.9893
0
LINE
8
BLACK
6
CONTINUOUS
10
107.061
20
-70.9893
11
107.205
21
-70.8934
0
LINE
8
BLACK
6
CONTINUOUS
10
107.205
20
-70.8934
11
107.364
21
-70.8274
0
LINE
8
BLACK
6
CONTINUOUS
10
107.364
20
-70.8274
11
107.534
21
-70.7937
0
LINE
8
BLACK
6
CONTINUOUS
10
107.534
20
-70.7937
11
107.706
21
-70.7937
0
LINE
8
BLACK
6
CONTINUOUS
10
107.706
20
-70.7937
11
107.876
21
-70.8274
0
LINE
8
BLACK
6
CONTINUOUS
10
92.6356
20
-70.8274
11
92.7951
21
-70.8934
0
LINE
8
BLACK
6
CONTINUOUS
10
92.7951
20
-70.8934
11
92.9386
21
-70.9893
0
LINE
8
BLACK
6
CONTINUOUS
10
92.9386
20
-70.9893
11
93.0607
21
-71.1114
0
LINE
8
BLACK
6
CONTINUOUS
10
93.0607
20
-71.1114
11
93.1566
21
-71.2549
0
LINE
8
BLACK
6
CONTINUOUS
10
93.1566
20
-71.2549
11
93.2226
21
-71.4144
0
LINE
8
BLACK
6
CONTINUOUS
10
93.2226
20
-71.4144
11
93.2563
21
-71.5837
0
LINE
8
BLACK
6
CONTINUOUS
10
93.2563
20
-71.5837
11
93.2563
21
-71.7563
0
LINE
8
BLACK
6
CONTINUOUS
10
93.2563
20
-71.7563
11
93.2226
21
-71.9256
0
LINE
8
BLACK
6
CONTINUOUS
10
93.2226
20
-71.9256
11
93.1566
21
-72.0851
0
LINE
8
BLACK
6
CONTINUOUS
10
93.1566
20
-72.0851
11
93.0607
21
-72.2286
0
LINE
8
BLACK
6
CONTINUOUS
10
93.0607
20
-72.2286
11
92.9386
21
-72.3507
0
LINE
8
BLACK
6
CONTINUOUS
10
92.9386
20
-72.3507
11
92.7951
21
-72.4466
0
LINE
8
BLACK
6
CONTINUOUS
10
92.7951
20
-72.4466
11
92.6356
21
-72.5126
0
LINE
8
BLACK
6
CONTINUOUS
10
92.6356
20
-72.5126
11
92.4663
21
-72.5463
0
LINE
8
BLACK
6
CONTINUOUS
10
92.4663
20
-72.5463
11
92.2937
21
-72.5463
0
LINE
8
BLACK
6
CONTINUOUS
10
92.2937
20
-72.5463
11
92.1244
21
-72.5126
0
LINE
8
BLACK
6
CONTINUOUS
10
92.1244
20
-72.5126
11
91.9649
21
-72.4466
0
LINE
8
BLACK
6
CONTINUOUS
10
91.9649
20
-72.4466
11
91.8214
21
-72.3507
0
LINE
8
BLACK
6
CONTINUOUS
10
91.8214
20
-72.3507
11
91.6993
21
-72.2286
0
LINE
8
BLACK
6
CONTINUOUS
10
91.6993
20
-72.2286
11
91.6034
21
-72.0851
0
LINE
8
BLACK
6
CONTINUOUS
10
91.6034
20
-72.0851
11
91.5374
21
-71.9256
0
LINE
8
BLACK
6
CONTINUOUS
10
91.5374
20
-71.9256
11
91.5037
21
-71.7563
0
LINE
8
BLACK
6
CONTINUOUS
10
91.5037
20
-71.7563
11
91.5037
21
-71.5837
0
LINE
8
BLACK
6
CONTINUOUS
10
91.5037
20
-71.5837
11
91.5374
21
-71.4144
0
LINE
8
BLACK
6
CONTINUOUS
10
91.5374
20
-71.4144
11
91.6034
21
-71.2549
0
LINE
8
BLACK
6
CONTINUOUS
10
91.6034
20
-71.2549
11
91.6993
21
-71.1114
0
LINE
8
BLACK
6
CONTINUOUS
10
91.6993
20
-71.1114
11
91.8214
21
-70.9893
0
LINE
8
BLACK
6
CONTINUOUS
10
91.8214
20
-70.9893
11
91.9649
21
-70.8934
0
LINE
8
BLACK
6
CONTINUOUS
10
91.9649
20
-70.8934
11
92.1244
21
-70.8274
0
LINE
8
BLACK
6
CONTINUOUS
10
92.1244
20
-70.8274
11
92.2937
21
-70.7937
0
LINE
8
BLACK
6
CONTINUOUS
10
92.2937
20
-70.7937
11
92.4663
21
-70.7937
0
LINE
8
BLACK
6
CONTINUOUS
10
92.4663
20
-70.7937
11
92.6356
21
-70.8274
0
LINE
8
BLACK
6
CONTINUOUS
10
107.876
20
-68.2874
11
108.035
21
-68.3534
0
LINE
8
BLACK
6
CONTINUOUS
10
108.035
20
-68.3534
11
108.179
21
-68.4493
0
LINE
8
BLACK
6
CONTINUOUS
10
108.179
20
-68.4493
11
108.301
21
-68.5714
0
LINE
8
BLACK
6
CONTINUOUS
10
108.301
20
-68.5714
11
108.397
21
-68.7149
0
LINE
8
BLACK
6
CONTINUOUS
10
108.397
20
-68.7149
11
108.463
21
-68.8744
0
LINE
8
BLACK
6
CONTINUOUS
10
108.463
20
-68.8744
11
108.496
21
-69.0437
0
LINE
8
BLACK
6
CONTINUOUS
10
108.496
20
-69.0437
11
108.496
21
-69.2163
0
LINE
8
BLACK
6
CONTINUOUS
10
108.496
20
-69.2163
11
108.463
21
-69.3856
0
LINE
8
BLACK
6
CONTINUOUS
10
108.463
20
-69.3856
11
108.397
21
-69.5451
0
LINE
8
BLACK
6
CONTINUOUS
10
108.397
20
-69.5451
11
108.301
21
-69.6886
0
LINE
8
BLACK
6
CONTINUOUS
10
108.301
20
-69.6886
11
108.179
21
-69.8107
0
LINE
8
BLACK
6
CONTINUOUS
10
108.179
20
-69.8107
11
108.035
21
-69.9066
0
LINE
8
BLACK
6
CONTINUOUS
10
108.035
20
-69.9066
11
107.876
21
-69.9726
0
LINE
8
BLACK
6
CONTINUOUS
10
107.876
20
-69.9726
11
107.706
21
-70.0063
0
LINE
8
BLACK
6
CONTINUOUS
10
107.706
20
-70.0063
11
107.534
21
-70.0063
0
LINE
8
BLACK
6
CONTINUOUS
10
107.534
20
-70.0063
11
107.364
21
-69.9726
0
LINE
8
BLACK
6
CONTINUOUS
10
107.364
20
-69.9726
11
107.205
21
-69.9066
0
LINE
8
BLACK
6
CONTINUOUS
10
107.205
20
-69.9066
11
107.061
21
-69.8107
0
LINE
8
BLACK
6
CONTINUOUS
10
107.061
20
-69.8107
11
106.939
21
-69.6886
0
LINE
8
BLACK
6
CONTINUOUS
10
106.939
20
-69.6886
11
106.843
21
-69.5451
0
LINE
8
BLACK
6
CONTINUOUS
10
106.843
20
-69.5451
11
106.777
21
-69.3856
0
LINE
8
BLACK
6
CONTINUOUS
10
106.777
20
-69.3856
11
106.744
21
-69.2163
0
LINE
8
BLACK
6
CONTINUOUS
10
106.744
20
-69.2163
11
106.744
21
-69.0437
0
LINE
8
BLACK
6
CONTINUOUS
10
106.744
20
-69.0437
11
106.777
21
-68.8744
0
LINE
8
BLACK
6
CONTINUOUS
10
106.777
20
-68.8744
11
106.843
21
-68.7149
0
LINE
8
BLACK
6
CONTINUOUS
10
106.843
20
-68.7149
11
106.939
21
-68.5714
0
LINE
8
BLACK
6
CONTINUOUS
10
106.939
20
-68.5714
11
107.061
21
-68.4493
0
LINE
8
BLACK
6
CONTINUOUS
10
107.061
20
-68.4493
11
107.205
21
-68.3534
0
LINE
8
BLACK
6
CONTINUOUS
10
107.205
20
-68.3534
11
107.364
21
-68.2874
0
LINE
8
BLACK
6
CONTINUOUS
10
107.364
20
-68.2874
11
107.534
21
-68.2537
0
LINE
8
BLACK
6
CONTINUOUS
10
107.534
20
-68.2537
11
107.706
21
-68.2537
0
LINE
8
BLACK
6
CONTINUOUS
10
107.706
20
-68.2537
11
107.876
21
-68.2874
0
LINE
8
BLACK
6
CONTINUOUS
10
92.6356
20
-68.2874
11
92.7951
21
-68.3534
0
LINE
8
BLACK
6
CONTINUOUS
10
92.7951
20
-68.3534
11
92.9386
21
-68.4493
0
LINE
8
BLACK
6
CONTINUOUS
10
92.9386
20
-68.4493
11
93.0607
21
-68.5714
0
LINE
8
BLACK
6
CONTINUOUS
10
93.0607
20
-68.5714
11
93.1566
21
-68.7149
0
LINE
8
BLACK
6
CONTINUOUS
10
93.1566
20
-68.7149
11
93.2226
21
-68.8744
0
LINE
8
BLACK
6
CONTINUOUS
10
93.2226
20
-68.8744
11
93.2563
21
-69.0437
0
LINE
8
BLACK
6
CONTINUOUS
10
93.2563
20
-69.0437
11
93.2563
21
-69.2163
0
LINE
8
BLACK
6
CONTINUOUS
10
93.2563
20
-69.2163
11
93.2226
21
-69.3856
0
LINE
8
BLACK
6
CONTINUOUS
10
93.2226
20
-69.3856
11
93.1566
21
-69.5451
0
LINE
8
BLACK
6
CONTINUOUS
10
93.1566
20
-69.5451
11
93.0607
21
-69.6886
0
LINE
8
BLACK
6
CONTINUOUS
10
93.0607
20
-69.6886
11
92.9386
21
-69.8107
0
LINE
8
BLACK
6
CONTINUOUS
10
92.9386
20
-69.8107
11
92.7951
21
-69.9066
0
LINE
8
BLACK
6
CONTINUOUS
10
92.7951
20
-69.9066
11
92.6356
21
-69.9726
0
LINE
8
BLACK
6
CONTINUOUS
10
92.6356
20
-69.9726
11
92.4663
21
-70.0063
0
LINE
8
BLACK
6
CONTINUOUS
10
92.4663
20
-70.0063
11
92.2937
21
-70.0063
0
LINE
8
BLACK
6
CONTINUOUS
10
92.2937
20
-70.0063
11
92.1244
21
-69.9726
0
LINE
8
BLACK
6
CONTINUOUS
10
92.1244
20
-69.9726
11
91.9649
21
-69.9066
0
LINE
8
BLACK
6
CONTINUOUS
10
91.9649
20
-69.9066
11
91.8214
21
-69.8107
0
LINE
8
BLACK
6
CONTINUOUS
10
91.8214
20
-69.8107
11
91.6993
21
-69.6886
0
LINE
8
BLACK
6
CONTINUOUS
10
91.6993
20
-69.6886
11
91.6034
21
-69.5451
0
LINE
8
BLACK
6
CONTINUOUS
10
91.6034
20
-69.5451
11
91.5374
21
-69.3856
0
LINE
8
BLACK
6
CONTINUOUS
10
91.5374
20
-69.3856
11
91.5037
21
-69.2163
0
LINE
8
BLACK
6
CONTINUOUS
10
91.5037
20
-69.2163
11
91.5037
21
-69.0437
0
LINE
8
BLACK
6
CONTINUOUS
10
91.5037
20
-69.0437
11
91.5374
21
-68.8744
0
LINE
8
BLACK
6
CONTINUOUS
10
91.5374
20
-68.8744
11
91.6034
21
-68.7149
0
LINE
8
BLACK
6
CONTINUOUS
10
91.6034
20
-68.7149
11
91.6993
21
-68.5714
0
LINE
8
BLACK
6
CONTINUOUS
10
91.6993
20
-68.5714
11
91.8214
21
-68.4493
0
LINE
8
BLACK
6
CONTINUOUS
10
91.8214
20
-68.4493
11
91.9649
21
-68.3534
0
LINE
8
BLACK
6
CONTINUOUS
10
91.9649
20
-68.3534
11
92.1244
21
-68.2874
0
LINE
8
BLACK
6
CONTINUOUS
10
92.1244
20
-68.2874
11
92.2937
21
-68.2537
0
LINE
8
BLACK
6
CONTINUOUS
10
92.2937
20
-68.2537
11
92.4663
21
-68.2537
0
LINE
8
BLACK
6
CONTINUOUS
10
92.4663
20
-68.2537
11
92.6356
21
-68.2874
0
LINE
8
BLACK
6
CONTINUOUS
10
107.876
20
-65.7474
11
108.035
21
-65.8134
0
LINE
8
BLACK
6
CONTINUOUS
10
108.035
20
-65.8134
11
108.179
21
-65.9093
0
LINE
8
BLACK
6
CONTINUOUS
10
108.179
20
-65.9093
11
108.301
21
-66.0314
0
LINE
8
BLACK
6
CONTINUOUS
10
108.301
20
-66.0314
11
108.397
21
-66.1749
0
LINE
8
BLACK
6
CONTINUOUS
10
108.397
20
-66.1749
11
108.463
21
-66.3344
0
LINE
8
BLACK
6
CONTINUOUS
10
108.463
20
-66.3344
11
108.496
21
-66.5037
0
LINE
8
BLACK
6
CONTINUOUS
10
108.496
20
-66.5037
11
108.496
21
-66.6763
0
LINE
8
BLACK
6
CONTINUOUS
10
108.496
20
-66.6763
11
108.463
21
-66.8456
0
LINE
8
BLACK
6
CONTINUOUS
10
108.463
20
-66.8456
11
108.397
21
-67.0051
0
LINE
8
BLACK
6
CONTINUOUS
10
108.397
20
-67.0051
11
108.301
21
-67.1486
0
LINE
8
BLACK
6
CONTINUOUS
10
108.301
20
-67.1486
11
108.179
21
-67.2707
0
LINE
8
BLACK
6
CONTINUOUS
10
108.179
20
-67.2707
11
108.035
21
-67.3666
0
LINE
8
BLACK
6
CONTINUOUS
10
108.035
20
-67.3666
11
107.876
21
-67.4326
0
LINE
8
BLACK
6
CONTINUOUS
10
107.876
20
-67.4326
11
107.706
21
-67.4663
0
LINE
8
BLACK
6
CONTINUOUS
10
107.706
20
-67.4663
11
107.534
21
-67.4663
0
LINE
8
BLACK
6
CONTINUOUS
10
107.534
20
-67.4663
11
107.364
21
-67.4326
0
LINE
8
BLACK
6
CONTINUOUS
10
107.364
20
-67.4326
11
107.205
21
-67.3666
0
LINE
8
BLACK
6
CONTINUOUS
10
107.205
20
-67.3666
11
107.061
21
-67.2707
0
LINE
8
BLACK
6
CONTINUOUS
10
107.061
20
-67.2707
11
106.939
21
-67.1486
0
LINE
8
BLACK
6
CONTINUOUS
10
106.939
20
-67.1486
11
106.843
21
-67.0051
0
LINE
8
BLACK
6
CONTINUOUS
10
106.843
20
-67.0051
11
106.777
21
-66.8456
0
LINE
8
BLACK
6
CONTINUOUS
10
106.777
20
-66.8456
11
106.744
21
-66.6763
0
LINE
8
BLACK
6
CONTINUOUS
10
106.744
20
-66.6763
11
106.744
21
-66.5037
0
LINE
8
BLACK
6
CONTINUOUS
10
106.744
20
-66.5037
11
106.777
21
-66.3344
0
LINE
8
BLACK
6
CONTINUOUS
10
106.777
20
-66.3344
11
106.843
21
-66.1749
0
LINE
8
BLACK
6
CONTINUOUS
10
106.843
20
-66.1749
11
106.939
21
-66.0314
0
LINE
8
BLACK
6
CONTINUOUS
10
106.939
20
-66.0314
11
107.061
21
-65.9093
0
LINE
8
BLACK
6
CONTINUOUS
10
107.061
20
-65.9093
11
107.205
21
-65.8134
0
LINE
8
BLACK
6
CONTINUOUS
10
107.205
20
-65.8134
11
107.364
21
-65.7474
0
LINE
8
BLACK
6
CONTINUOUS
10
107.364
20
-65.7474
11
107.534
21
-65.7137
0
LINE
8
BLACK
6
CONTINUOUS
10
107.534
20
-65.7137
11
107.706
21
-65.7137
0
LINE
8
BLACK
6
CONTINUOUS
10
107.706
20
-65.7137
11
107.876
21
-65.7474
0
LINE
8
BLACK
6
CONTINUOUS
10
92.6356
20
-65.7474
11
92.7951
21
-65.8134
0
LINE
8
BLACK
6
CONTINUOUS
10
92.7951
20
-65.8134
11
92.9386
21
-65.9093
0
LINE
8
BLACK
6
CONTINUOUS
10
92.9386
20
-65.9093
11
93.0607
21
-66.0314
0
LINE
8
BLACK
6
CONTINUOUS
10
93.0607
20
-66.0314
11
93.1566
21
-66.1749
0
LINE
8
BLACK
6
CONTINUOUS
10
93.1566
20
-66.1749
11
93.2226
21
-66.3344
0
LINE
8
BLACK
6
CONTINUOUS
10
93.2226
20
-66.3344
11
93.2563
21
-66.5037
0
LINE
8
BLACK
6
CONTINUOUS
10
93.2563
20
-66.5037
11
93.2563
21
-66.6763
0
LINE
8
BLACK
6
CONTINUOUS
10
93.2563
20
-66.6763
11
93.2226
21
-66.8456
0
LINE
8
BLACK
6
CONTINUOUS
10
93.2226
20
-66.8456
11
93.1566
21
-67.0051
0
LINE
8
BLACK
6
CONTINUOUS
10
93.1566
20
-67.0051
11
93.0607
21
-67.1486
0
LINE
8
BLACK
6
CONTINUOUS
10
93.0607
20
-67.1486
11
92.9386
21
-67.2707
0
LINE
8
BLACK
6
CONTINUOUS
10
92.9386
20
-67.2707
11
92.7951
21
-67.3666
0
LINE
8
BLACK
6
CONTINUOUS
10
92.7951
20
-67.3666
11
92.6356
21
-67.4326
0
LINE
8
BLACK
6
CONTINUOUS
10
92.6356
20
-67.4326
11
92.4663
21
-67.4663
0
LINE
8
BLACK
6
CONTINUOUS
10
92.4663
20
-67.4663
11
92.2937
21
-67.4663
0
LINE
8
BLACK
6
CONTINUOUS
10
92.2937
20
-67.4663
11
92.1244
21
-67.4326
0
LINE
8
BLACK
6
CONTINUOUS
10
92.1244
20
-67.4326
11
91.9649
21
-67.3666
0
LINE
8
BLACK
6
CONTINUOUS
10
91.9649
20
-67.3666
11
91.8214
21
-67.2707
0
LINE
8
BLACK
6
CONTINUOUS
10
91.8214
20
-67.2707
11
91.6993
21
-67.1486
0
LINE
8
BLACK
6
CONTINUOUS
10
91.6993
20
-67.1486
11
91.6034
21
-67.0051
0
LINE
8
BLACK
6
CONTINUOUS
10
91.6034
20
-67.0051
11
91.5374
21
-66.8456
0
LINE
8
BLACK
6
CONTINUOUS
10
91.5374
20
-66.8456
11
91.5037
21
-66.6763
0
LINE
8
BLACK
6
CONTINUOUS
10
91.5037
20
-66.6763
11
91.5037
21
-66.5037
0
LINE
8
BLACK
6
CONTINUOUS
10
91.5037
20
-66.5037
11
91.5374
21
-66.3344
0
LINE
8
BLACK
6
CONTINUOUS
10
91.5374
20
-66.3344
11
91.6034
21
-66.1749
0
LINE
8
BLACK
6
CONTINUOUS
10
91.6034
20
-66.1749
11
91.6993
21
-66.0314
0
LINE
8
BLACK
6
CONTINUOUS
10
91.6993
20
-66.0314
11
91.8214
21
-65.9093
0
LINE
8
BLACK
6
CONTINUOUS
10
91.8214
20
-65.9093
11
91.9649
21
-65.8134
0
LINE
8
BLACK
6
CONTINUOUS
10
91.9649
20
-65.8134
11
92.1244
21
-65.7474
0
LINE
8
BLACK
6
CONTINUOUS
10
92.1244
20
-65.7474
11
92.2937
21
-65.7137
0
LINE
8
BLACK
6
CONTINUOUS
10
92.2937
20
-65.7137
11
92.4663
21
-65.7137
0
LINE
8
BLACK
6
CONTINUOUS
10
92.4663
20
-65.7137
11
92.6356
21
-65.7474
0
LINE
8
BLACK
6
CONTINUOUS
10
61.9243
20
-66.1159
11
61.9356
21
-66.1193
0
LINE
8
BLACK
6
CONTINUOUS
10
61.9356
20
-66.1193
11
61.946
21
-66.1249
0
LINE
8
BLACK
6
CONTINUOUS
10
61.946
20
-66.1249
11
61.9551
21
-66.1324
0
LINE
8
BLACK
6
CONTINUOUS
10
61.9551
20
-66.1324
11
61.9626
21
-66.1415
0
LINE
8
BLACK
6
CONTINUOUS
10
61.9626
20
-66.1415
11
61.9682
21
-66.1519
0
LINE
8
BLACK
6
CONTINUOUS
10
61.9682
20
-66.1519
11
61.9716
21
-66.1632
0
LINE
8
BLACK
6
CONTINUOUS
10
61.9716
20
-66.1632
11
61.9725
21
-66.1721
0
LINE
8
BLACK
6
CONTINUOUS
10
61.9725
20
-66.1721
11
61.9725
21
-66.615
0
LINE
8
BLACK
6
CONTINUOUS
10
61.9725
20
-66.615
11
62.4154
21
-66.615
0
LINE
8
BLACK
6
CONTINUOUS
10
62.4154
20
-66.615
11
62.4243
21
-66.6159
0
LINE
8
BLACK
6
CONTINUOUS
10
62.4243
20
-66.6159
11
62.4356
21
-66.6193
0
LINE
8
BLACK
6
CONTINUOUS
10
62.4356
20
-66.6193
11
62.446
21
-66.6249
0
LINE
8
BLACK
6
CONTINUOUS
10
62.446
20
-66.6249
11
62.4551
21
-66.6324
0
LINE
8
BLACK
6
CONTINUOUS
10
62.4551
20
-66.6324
11
62.4626
21
-66.6415
0
LINE
8
BLACK
6
CONTINUOUS
10
62.4626
20
-66.6415
11
62.4682
21
-66.6519
0
LINE
8
BLACK
6
CONTINUOUS
10
62.4682
20
-66.6519
11
62.4716
21
-66.6632
0
LINE
8
BLACK
6
CONTINUOUS
10
62.4716
20
-66.6632
11
62.4728
21
-66.675
0
LINE
8
BLACK
6
CONTINUOUS
10
62.4728
20
-66.675
11
62.4716
21
-66.6868
0
LINE
8
BLACK
6
CONTINUOUS
10
62.4716
20
-66.6868
11
62.4682
21
-66.6981
0
LINE
8
BLACK
6
CONTINUOUS
10
62.4682
20
-66.6981
11
62.4626
21
-66.7085
0
LINE
8
BLACK
6
CONTINUOUS
10
62.4626
20
-66.7085
11
62.4551
21
-66.7176
0
LINE
8
BLACK
6
CONTINUOUS
10
62.4551
20
-66.7176
11
62.446
21
-66.7251
0
LINE
8
BLACK
6
CONTINUOUS
10
62.446
20
-66.7251
11
62.4356
21
-66.7307
0
LINE
8
BLACK
6
CONTINUOUS
10
62.4356
20
-66.7307
11
62.4243
21
-66.7341
0
LINE
8
BLACK
6
CONTINUOUS
10
62.4243
20
-66.7341
11
62.4154
21
-66.735
0
LINE
8
BLACK
6
CONTINUOUS
10
62.4154
20
-66.735
11
61.9725
21
-66.735
0
LINE
8
BLACK
6
CONTINUOUS
10
61.9725
20
-66.735
11
61.9725
21
-67.1779
0
LINE
8
BLACK
6
CONTINUOUS
10
61.9725
20
-67.1779
11
61.9716
21
-67.1868
0
LINE
8
BLACK
6
CONTINUOUS
10
61.9716
20
-67.1868
11
61.9682
21
-67.1981
0
LINE
8
BLACK
6
CONTINUOUS
10
61.9682
20
-67.1981
11
61.9626
21
-67.2085
0
LINE
8
BLACK
6
CONTINUOUS
10
61.9626
20
-67.2085
11
61.9551
21
-67.2176
0
LINE
8
BLACK
6
CONTINUOUS
10
61.9551
20
-67.2176
11
61.946
21
-67.2251
0
LINE
8
BLACK
6
CONTINUOUS
10
61.946
20
-67.2251
11
61.9356
21
-67.2307
0
LINE
8
BLACK
6
CONTINUOUS
10
61.9356
20
-67.2307
11
61.9243
21
-67.2341
0
LINE
8
BLACK
6
CONTINUOUS
10
61.9243
20
-67.2341
11
61.9125
21
-67.2353
0
LINE
8
BLACK
6
CONTINUOUS
10
61.9125
20
-67.2353
11
61.9007
21
-67.2341
0
LINE
8
BLACK
6
CONTINUOUS
10
61.9007
20
-67.2341
11
61.8894
21
-67.2307
0
LINE
8
BLACK
6
CONTINUOUS
10
61.8894
20
-67.2307
11
61.879
21
-67.2251
0
LINE
8
BLACK
6
CONTINUOUS
10
61.879
20
-67.2251
11
61.8699
21
-67.2176
0
LINE
8
BLACK
6
CONTINUOUS
10
61.8699
20
-67.2176
11
61.8624
21
-67.2085
0
LINE
8
BLACK
6
CONTINUOUS
10
61.8624
20
-67.2085
11
61.8568
21
-67.1981
0
LINE
8
BLACK
6
CONTINUOUS
10
61.8568
20
-67.1981
11
61.8534
21
-67.1868
0
LINE
8
BLACK
6
CONTINUOUS
10
61.8534
20
-67.1868
11
61.8525
21
-67.1779
0
LINE
8
BLACK
6
CONTINUOUS
10
61.8525
20
-67.1779
11
61.8525
21
-66.735
0
LINE
8
BLACK
6
CONTINUOUS
10
61.8525
20
-66.735
11
61.4096
21
-66.735
0
LINE
8
BLACK
6
CONTINUOUS
10
61.4096
20
-66.735
11
61.4007
21
-66.7341
0
LINE
8
BLACK
6
CONTINUOUS
10
61.4007
20
-66.7341
11
61.3894
21
-66.7307
0
LINE
8
BLACK
6
CONTINUOUS
10
61.3894
20
-66.7307
11
61.379
21
-66.7251
0
LINE
8
BLACK
6
CONTINUOUS
10
61.379
20
-66.7251
11
61.3699
21
-66.7176
0
LINE
8
BLACK
6
CONTINUOUS
10
61.3699
20
-66.7176
11
61.3624
21
-66.7085
0
LINE
8
BLACK
6
CONTINUOUS
10
61.3624
20
-66.7085
11
61.3568
21
-66.6981
0
LINE
8
BLACK
6
CONTINUOUS
10
61.3568
20
-66.6981
11
61.3534
21
-66.6868
0
LINE
8
BLACK
6
CONTINUOUS
10
61.3534
20
-66.6868
11
61.3522
21
-66.675
0
LINE
8
BLACK
6
CONTINUOUS
10
61.3522
20
-66.675
11
61.3534
21
-66.6632
0
LINE
8
BLACK
6
CONTINUOUS
10
61.3534
20
-66.6632
11
61.3568
21
-66.6519
0
LINE
8
BLACK
6
CONTINUOUS
10
61.3568
20
-66.6519
11
61.3624
21
-66.6415
0
LINE
8
BLACK
6
CONTINUOUS
10
61.3624
20
-66.6415
11
61.3699
21
-66.6324
0
LINE
8
BLACK
6
CONTINUOUS
10
61.3699
20
-66.6324
11
61.379
21
-66.6249
0
LINE
8
BLACK
6
CONTINUOUS
10
61.379
20
-66.6249
11
61.3894
21
-66.6193
0
LINE
8
BLACK
6
CONTINUOUS
10
61.3894
20
-66.6193
11
61.4007
21
-66.6159
0
LINE
8
BLACK
6
CONTINUOUS
10
61.4007
20
-66.6159
11
61.4096
21
-66.615
0
LINE
8
BLACK
6
CONTINUOUS
10
61.4096
20
-66.615
11
61.8525
21
-66.615
0
LINE
8
BLACK
6
CONTINUOUS
10
61.8525
20
-66.615
11
61.8525
21
-66.1721
0
LINE
8
BLACK
6
CONTINUOUS
10
61.8525
20
-66.1721
11
61.8534
21
-66.1632
0
LINE
8
BLACK
6
CONTINUOUS
10
61.8534
20
-66.1632
11
61.8568
21
-66.1519
0
LINE
8
BLACK
6
CONTINUOUS
10
61.8568
20
-66.1519
11
61.8624
21
-66.1415
0
LINE
8
BLACK
6
CONTINUOUS
10
61.8624
20
-66.1415
11
61.8699
21
-66.1324
0
LINE
8
BLACK
6
CONTINUOUS
10
61.8699
20
-66.1324
11
61.879
21
-66.1249
0
LINE
8
BLACK
6
CONTINUOUS
10
61.879
20
-66.1249
11
61.8894
21
-66.1193
0
LINE
8
BLACK
6
CONTINUOUS
10
61.8894
20
-66.1193
11
61.9007
21
-66.1159
0
LINE
8
BLACK
6
CONTINUOUS
10
61.9007
20
-66.1159
11
61.9125
21
-66.1147
0
LINE
8
BLACK
6
CONTINUOUS
10
61.9125
20
-66.1147
11
61.9243
21
-66.1159
0
LINE
8
BLACK
6
CONTINUOUS
10
107.876
20
-63.2074
11
108.035
21
-63.2734
0
LINE
8
BLACK
6
CONTINUOUS
10
108.035
20
-63.2734
11
108.179
21
-63.3693
0
LINE
8
BLACK
6
CONTINUOUS
10
108.179
20
-63.3693
11
108.301
21
-63.4914
0
LINE
8
BLACK
6
CONTINUOUS
10
108.301
20
-63.4914
11
108.397
21
-63.6349
0
LINE
8
BLACK
6
CONTINUOUS
10
108.397
20
-63.6349
11
108.463
21
-63.7944
0
LINE
8
BLACK
6
CONTINUOUS
10
108.463
20
-63.7944
11
108.496
21
-63.9637
0
LINE
8
BLACK
6
CONTINUOUS
10
108.496
20
-63.9637
11
108.496
21
-64.1363
0
LINE
8
BLACK
6
CONTINUOUS
10
108.496
20
-64.1363
11
108.463
21
-64.3056
0
LINE
8
BLACK
6
CONTINUOUS
10
108.463
20
-64.3056
11
108.397
21
-64.4651
0
LINE
8
BLACK
6
CONTINUOUS
10
108.397
20
-64.4651
11
108.301
21
-64.6086
0
LINE
8
BLACK
6
CONTINUOUS
10
108.301
20
-64.6086
11
108.179
21
-64.7307
0
LINE
8
BLACK
6
CONTINUOUS
10
108.179
20
-64.7307
11
108.035
21
-64.8266
0
LINE
8
BLACK
6
CONTINUOUS
10
108.035
20
-64.8266
11
107.876
21
-64.8926
0
LINE
8
BLACK
6
CONTINUOUS
10
107.876
20
-64.8926
11
107.706
21
-64.9263
0
LINE
8
BLACK
6
CONTINUOUS
10
107.706
20
-64.9263
11
107.534
21
-64.9263
0
LINE
8
BLACK
6
CONTINUOUS
10
107.534
20
-64.9263
11
107.364
21
-64.8926
0
LINE
8
BLACK
6
CONTINUOUS
10
107.364
20
-64.8926
11
107.205
21
-64.8266
0
LINE
8
BLACK
6
CONTINUOUS
10
107.205
20
-64.8266
11
107.061
21
-64.7307
0
LINE
8
BLACK
6
CONTINUOUS
10
107.061
20
-64.7307
11
106.939
21
-64.6086
0
LINE
8
BLACK
6
CONTINUOUS
10
106.939
20
-64.6086
11
106.843
21
-64.4651
0
LINE
8
BLACK
6
CONTINUOUS
10
106.843
20
-64.4651
11
106.777
21
-64.3056
0
LINE
8
BLACK
6
CONTINUOUS
10
106.777
20
-64.3056
11
106.744
21
-64.1363
0
LINE
8
BLACK
6
CONTINUOUS
10
106.744
20
-64.1363
11
106.744
21
-63.9637
0
LINE
8
BLACK
6
CONTINUOUS
10
106.744
20
-63.9637
11
106.777
21
-63.7944
0
LINE
8
BLACK
6
CONTINUOUS
10
106.777
20
-63.7944
11
106.843
21
-63.6349
0
LINE
8
BLACK
6
CONTINUOUS
10
106.843
20
-63.6349
11
106.939
21
-63.4914
0
LINE
8
BLACK
6
CONTINUOUS
10
106.939
20
-63.4914
11
107.061
21
-63.3693
0
LINE
8
BLACK
6
CONTINUOUS
10
107.061
20
-63.3693
11
107.205
21
-63.2734
0
LINE
8
BLACK
6
CONTINUOUS
10
107.205
20
-63.2734
11
107.364
21
-63.2074
0
LINE
8
BLACK
6
CONTINUOUS
10
107.364
20
-63.2074
11
107.534
21
-63.1737
0
LINE
8
BLACK
6
CONTINUOUS
10
107.534
20
-63.1737
11
107.706
21
-63.1737
0
LINE
8
BLACK
6
CONTINUOUS
10
107.706
20
-63.1737
11
107.876
21
-63.2074
0
LINE
8
BLACK
6
CONTINUOUS
10
92.6356
20
-63.2074
11
92.7951
21
-63.2734
0
LINE
8
BLACK
6
CONTINUOUS
10
92.7951
20
-63.2734
11
92.9386
21
-63.3693
0
LINE
8
BLACK
6
CONTINUOUS
10
92.9386
20
-63.3693
11
93.0607
21
-63.4914
0
LINE
8
BLACK
6
CONTINUOUS
10
93.0607
20
-63.4914
11
93.1566
21
-63.6349
0
LINE
8
BLACK
6
CONTINUOUS
10
93.1566
20
-63.6349
11
93.2226
21
-63.7944
0
LINE
8
BLACK
6
CONTINUOUS
10
93.2226
20
-63.7944
11
93.2563
21
-63.9637
0
LINE
8
BLACK
6
CONTINUOUS
10
93.2563
20
-63.9637
11
93.2563
21
-64.1363
0
LINE
8
BLACK
6
CONTINUOUS
10
93.2563
20
-64.1363
11
93.2226
21
-64.3056
0
LINE
8
BLACK
6
CONTINUOUS
10
93.2226
20
-64.3056
11
93.1566
21
-64.4651
0
LINE
8
BLACK
6
CONTINUOUS
10
93.1566
20
-64.4651
11
93.0607
21
-64.6086
0
LINE
8
BLACK
6
CONTINUOUS
10
93.0607
20
-64.6086
11
92.9386
21
-64.7307
0
LINE
8
BLACK
6
CONTINUOUS
10
92.9386
20
-64.7307
11
92.7951
21
-64.8266
0
LINE
8
BLACK
6
CONTINUOUS
10
92.7951
20
-64.8266
11
92.6356
21
-64.8926
0
LINE
8
BLACK
6
CONTINUOUS
10
92.6356
20
-64.8926
11
92.4663
21
-64.9263
0
LINE
8
BLACK
6
CONTINUOUS
10
92.4663
20
-64.9263
11
92.2937
21
-64.9263
0
LINE
8
BLACK
6
CONTINUOUS
10
92.2937
20
-64.9263
11
92.1244
21
-64.8926
0
LINE
8
BLACK
6
CONTINUOUS
10
92.1244
20
-64.8926
11
91.9649
21
-64.8266
0
LINE
8
BLACK
6
CONTINUOUS
10
91.9649
20
-64.8266
11
91.8214
21
-64.7307
0
LINE
8
BLACK
6
CONTINUOUS
10
91.8214
20
-64.7307
11
91.6993
21
-64.6086
0
LINE
8
BLACK
6
CONTINUOUS
10
91.6993
20
-64.6086
11
91.6034
21
-64.4651
0
LINE
8
BLACK
6
CONTINUOUS
10
91.6034
20
-64.4651
11
91.5374
21
-64.3056
0
LINE
8
BLACK
6
CONTINUOUS
10
91.5374
20
-64.3056
11
91.5037
21
-64.1363
0
LINE
8
BLACK
6
CONTINUOUS
10
91.5037
20
-64.1363
11
91.5037
21
-63.9637
0
LINE
8
BLACK
6
CONTINUOUS
10
91.5037
20
-63.9637
11
91.5374
21
-63.7944
0
LINE
8
BLACK
6
CONTINUOUS
10
91.5374
20
-63.7944
11
91.6034
21
-63.6349
0
LINE
8
BLACK
6
CONTINUOUS
10
91.6034
20
-63.6349
11
91.6993
21
-63.4914
0
LINE
8
BLACK
6
CONTINUOUS
10
91.6993
20
-63.4914
11
91.8214
21
-63.3693
0
LINE
8
BLACK
6
CONTINUOUS
10
91.8214
20
-63.3693
11
91.9649
21
-63.2734
0
LINE
8
BLACK
6
CONTINUOUS
10
91.9649
20
-63.2734
11
92.1244
21
-63.2074
0
LINE
8
BLACK
6
CONTINUOUS
10
92.1244
20
-63.2074
11
92.2937
21
-63.1737
0
LINE
8
BLACK
6
CONTINUOUS
10
92.2937
20
-63.1737
11
92.4663
21
-63.1737
0
LINE
8
BLACK
6
CONTINUOUS
10
92.4663
20
-63.1737
11
92.6356
21
-63.2074
0
LINE
8
BLACK
6
CONTINUOUS
10
107.876
20
-60.6674
11
108.035
21
-60.7334
0
LINE
8
BLACK
6
CONTINUOUS
10
108.035
20
-60.7334
11
108.179
21
-60.8293
0
LINE
8
BLACK
6
CONTINUOUS
10
108.179
20
-60.8293
11
108.301
21
-60.9514
0
LINE
8
BLACK
6
CONTINUOUS
10
108.301
20
-60.9514
11
108.397
21
-61.0949
0
LINE
8
BLACK
6
CONTINUOUS
10
108.397
20
-61.0949
11
108.463
21
-61.2544
0
LINE
8
BLACK
6
CONTINUOUS
10
108.463
20
-61.2544
11
108.496
21
-61.4237
0
LINE
8
BLACK
6
CONTINUOUS
10
108.496
20
-61.4237
11
108.496
21
-61.5963
0
LINE
8
BLACK
6
CONTINUOUS
10
108.496
20
-61.5963
11
108.463
21
-61.7656
0
LINE
8
BLACK
6
CONTINUOUS
10
108.463
20
-61.7656
11
108.397
21
-61.9251
0
LINE
8
BLACK
6
CONTINUOUS
10
108.397
20
-61.9251
11
108.301
21
-62.0686
0
LINE
8
BLACK
6
CONTINUOUS
10
108.301
20
-62.0686
11
108.179
21
-62.1907
0
LINE
8
BLACK
6
CONTINUOUS
10
108.179
20
-62.1907
11
108.035
21
-62.2866
0
LINE
8
BLACK
6
CONTINUOUS
10
108.035
20
-62.2866
11
107.876
21
-62.3526
0
LINE
8
BLACK
6
CONTINUOUS
10
107.876
20
-62.3526
11
107.706
21
-62.3863
0
LINE
8
BLACK
6
CONTINUOUS
10
107.706
20
-62.3863
11
107.534
21
-62.3863
0
LINE
8
BLACK
6
CONTINUOUS
10
107.534
20
-62.3863
11
107.364
21
-62.3526
0
LINE
8
BLACK
6
CONTINUOUS
10
107.364
20
-62.3526
11
107.205
21
-62.2866
0
LINE
8
BLACK
6
CONTINUOUS
10
107.205
20
-62.2866
11
107.061
21
-62.1907
0
LINE
8
BLACK
6
CONTINUOUS
10
107.061
20
-62.1907
11
106.939
21
-62.0686
0
LINE
8
BLACK
6
CONTINUOUS
10
106.939
20
-62.0686
11
106.843
21
-61.9251
0
LINE
8
BLACK
6
CONTINUOUS
10
106.843
20
-61.9251
11
106.777
21
-61.7656
0
LINE
8
BLACK
6
CONTINUOUS
10
106.777
20
-61.7656
11
106.744
21
-61.5963
0
LINE
8
BLACK
6
CONTINUOUS
10
106.744
20
-61.5963
11
106.744
21
-61.4237
0
LINE
8
BLACK
6
CONTINUOUS
10
106.744
20
-61.4237
11
106.777
21
-61.2544
0
LINE
8
BLACK
6
CONTINUOUS
10
106.777
20
-61.2544
11
106.843
21
-61.0949
0
LINE
8
BLACK
6
CONTINUOUS
10
106.843
20
-61.0949
11
106.939
21
-60.9514
0
LINE
8
BLACK
6
CONTINUOUS
10
106.939
20
-60.9514
11
107.061
21
-60.8293
0
LINE
8
BLACK
6
CONTINUOUS
10
107.061
20
-60.8293
11
107.205
21
-60.7334
0
LINE
8
BLACK
6
CONTINUOUS
10
107.205
20
-60.7334
11
107.364
21
-60.6674
0
LINE
8
BLACK
6
CONTINUOUS
10
107.364
20
-60.6674
11
107.534
21
-60.6337
0
LINE
8
BLACK
6
CONTINUOUS
10
107.534
20
-60.6337
11
107.706
21
-60.6337
0
LINE
8
BLACK
6
CONTINUOUS
10
107.706
20
-60.6337
11
107.876
21
-60.6674
0
LINE
8
BLACK
6
CONTINUOUS
10
92.6356
20
-60.6674
11
92.7951
21
-60.7334
0
LINE
8
BLACK
6
CONTINUOUS
10
92.7951
20
-60.7334
11
92.9386
21
-60.8293
0
LINE
8
BLACK
6
CONTINUOUS
10
92.9386
20
-60.8293
11
93.0607
21
-60.9514
0
LINE
8
BLACK
6
CONTINUOUS
10
93.0607
20
-60.9514
11
93.1566
21
-61.0949
0
LINE
8
BLACK
6
CONTINUOUS
10
93.1566
20
-61.0949
11
93.2226
21
-61.2544
0
LINE
8
BLACK
6
CONTINUOUS
10
93.2226
20
-61.2544
11
93.2563
21
-61.4237
0
LINE
8
BLACK
6
CONTINUOUS
10
93.2563
20
-61.4237
11
93.2563
21
-61.5963
0
LINE
8
BLACK
6
CONTINUOUS
10
93.2563
20
-61.5963
11
93.2226
21
-61.7656
0
LINE
8
BLACK
6
CONTINUOUS
10
93.2226
20
-61.7656
11
93.1566
21
-61.9251
0
LINE
8
BLACK
6
CONTINUOUS
10
93.1566
20
-61.9251
11
93.0607
21
-62.0686
0
LINE
8
BLACK
6
CONTINUOUS
10
93.0607
20
-62.0686
11
92.9386
21
-62.1907
0
LINE
8
BLACK
6
CONTINUOUS
10
92.9386
20
-62.1907
11
92.7951
21
-62.2866
0
LINE
8
BLACK
6
CONTINUOUS
10
92.7951
20
-62.2866
11
92.6356
21
-62.3526
0
LINE
8
BLACK
6
CONTINUOUS
10
92.6356
20
-62.3526
11
92.4663
21
-62.3863
0
LINE
8
BLACK
6
CONTINUOUS
10
92.4663
20
-62.3863
11
92.2937
21
-62.3863
0
LINE
8
BLACK
6
CONTINUOUS
10
92.2937
20
-62.3863
11
92.1244
21
-62.3526
0
LINE
8
BLACK
6
CONTINUOUS
10
92.1244
20
-62.3526
11
91.9649
21
-62.2866
0
LINE
8
BLACK
6
CONTINUOUS
10
91.9649
20
-62.2866
11
91.8214
21
-62.1907
0
LINE
8
BLACK
6
CONTINUOUS
10
91.8214
20
-62.1907
11
91.6993
21
-62.0686
0
LINE
8
BLACK
6
CONTINUOUS
10
91.6993
20
-62.0686
11
91.6034
21
-61.9251
0
LINE
8
BLACK
6
CONTINUOUS
10
91.6034
20
-61.9251
11
91.5374
21
-61.7656
0
LINE
8
BLACK
6
CONTINUOUS
10
91.5374
20
-61.7656
11
91.5037
21
-61.5963
0
LINE
8
BLACK
6
CONTINUOUS
10
91.5037
20
-61.5963
11
91.5037
21
-61.4237
0
LINE
8
BLACK
6
CONTINUOUS
10
91.5037
20
-61.4237
11
91.5374
21
-61.2544
0
LINE
8
BLACK
6
CONTINUOUS
10
91.5374
20
-61.2544
11
91.6034
21
-61.0949
0
LINE
8
BLACK
6
CONTINUOUS
10
91.6034
20
-61.0949
11
91.6993
21
-60.9514
0
LINE
8
BLACK
6
CONTINUOUS
10
91.6993
20
-60.9514
11
91.8214
21
-60.8293
0
LINE
8
BLACK
6
CONTINUOUS
10
91.8214
20
-60.8293
11
91.9649
21
-60.7334
0
LINE
8
BLACK
6
CONTINUOUS
10
91.9649
20
-60.7334
11
92.1244
21
-60.6674
0
LINE
8
BLACK
6
CONTINUOUS
10
92.1244
20
-60.6674
11
92.2937
21
-60.6337
0
LINE
8
BLACK
6
CONTINUOUS
10
92.2937
20
-60.6337
11
92.4663
21
-60.6337
0
LINE
8
BLACK
6
CONTINUOUS
10
92.4663
20
-60.6337
11
92.6356
21
-60.6674
0
LINE
8
BLACK
6
CONTINUOUS
10
107.876
20
-58.1274
11
108.035
21
-58.1934
0
LINE
8
BLACK
6
CONTINUOUS
10
108.035
20
-58.1934
11
108.179
21
-58.2893
0
LINE
8
BLACK
6
CONTINUOUS
10
108.179
20
-58.2893
11
108.301
21
-58.4114
0
LINE
8
BLACK
6
CONTINUOUS
10
108.301
20
-58.4114
11
108.397
21
-58.5549
0
LINE
8
BLACK
6
CONTINUOUS
10
108.397
20
-58.5549
11
108.463
21
-58.7144
0
LINE
8
BLACK
6
CONTINUOUS
10
108.463
20
-58.7144
11
108.496
21
-58.8837
0
LINE
8
BLACK
6
CONTINUOUS
10
108.496
20
-58.8837
11
108.496
21
-59.0563
0
LINE
8
BLACK
6
CONTINUOUS
10
108.496
20
-59.0563
11
108.463
21
-59.2256
0
LINE
8
BLACK
6
CONTINUOUS
10
108.463
20
-59.2256
11
108.397
21
-59.3851
0
LINE
8
BLACK
6
CONTINUOUS
10
108.397
20
-59.3851
11
108.301
21
-59.5286
0
LINE
8
BLACK
6
CONTINUOUS
10
108.301
20
-59.5286
11
108.179
21
-59.6507
0
LINE
8
BLACK
6
CONTINUOUS
10
108.179
20
-59.6507
11
108.035
21
-59.7466
0
LINE
8
BLACK
6
CONTINUOUS
10
108.035
20
-59.7466
11
107.876
21
-59.8126
0
LINE
8
BLACK
6
CONTINUOUS
10
107.876
20
-59.8126
11
107.706
21
-59.8463
0
LINE
8
BLACK
6
CONTINUOUS
10
107.706
20
-59.8463
11
107.534
21
-59.8463
0
LINE
8
BLACK
6
CONTINUOUS
10
107.534
20
-59.8463
11
107.364
21
-59.8126
0
LINE
8
BLACK
6
CONTINUOUS
10
107.364
20
-59.8126
11
107.205
21
-59.7466
0
LINE
8
BLACK
6
CONTINUOUS
10
107.205
20
-59.7466
11
107.061
21
-59.6507
0
LINE
8
BLACK
6
CONTINUOUS
10
107.061
20
-59.6507
11
106.939
21
-59.5286
0
LINE
8
BLACK
6
CONTINUOUS
10
106.939
20
-59.5286
11
106.843
21
-59.3851
0
LINE
8
BLACK
6
CONTINUOUS
10
106.843
20
-59.3851
11
106.777
21
-59.2256
0
LINE
8
BLACK
6
CONTINUOUS
10
106.777
20
-59.2256
11
106.744
21
-59.0563
0
LINE
8
BLACK
6
CONTINUOUS
10
106.744
20
-59.0563
11
106.744
21
-58.8837
0
LINE
8
BLACK
6
CONTINUOUS
10
106.744
20
-58.8837
11
106.777
21
-58.7144
0
LINE
8
BLACK
6
CONTINUOUS
10
106.777
20
-58.7144
11
106.843
21
-58.5549
0
LINE
8
BLACK
6
CONTINUOUS
10
106.843
20
-58.5549
11
106.939
21
-58.4114
0
LINE
8
BLACK
6
CONTINUOUS
10
106.939
20
-58.4114
11
107.061
21
-58.2893
0
LINE
8
BLACK
6
CONTINUOUS
10
107.061
20
-58.2893
11
107.205
21
-58.1934
0
LINE
8
BLACK
6
CONTINUOUS
10
107.205
20
-58.1934
11
107.364
21
-58.1274
0
LINE
8
BLACK
6
CONTINUOUS
10
107.364
20
-58.1274
11
107.534
21
-58.0937
0
LINE
8
BLACK
6
CONTINUOUS
10
107.534
20
-58.0937
11
107.706
21
-58.0937
0
LINE
8
BLACK
6
CONTINUOUS
10
107.706
20
-58.0937
11
107.876
21
-58.1274
0
LINE
8
BLACK
6
CONTINUOUS
10
92.6356
20
-58.1274
11
92.7951
21
-58.1934
0
LINE
8
BLACK
6
CONTINUOUS
10
92.7951
20
-58.1934
11
92.9386
21
-58.2893
0
LINE
8
BLACK
6
CONTINUOUS
10
92.9386
20
-58.2893
11
93.0607
21
-58.4114
0
LINE
8
BLACK
6
CONTINUOUS
10
93.0607
20
-58.4114
11
93.1566
21
-58.5549
0
LINE
8
BLACK
6
CONTINUOUS
10
93.1566
20
-58.5549
11
93.2226
21
-58.7144
0
LINE
8
BLACK
6
CONTINUOUS
10
93.2226
20
-58.7144
11
93.2563
21
-58.8837
0
LINE
8
BLACK
6
CONTINUOUS
10
93.2563
20
-58.8837
11
93.2563
21
-59.0563
0
LINE
8
BLACK
6
CONTINUOUS
10
93.2563
20
-59.0563
11
93.2226
21
-59.2256
0
LINE
8
BLACK
6
CONTINUOUS
10
93.2226
20
-59.2256
11
93.1566
21
-59.3851
0
LINE
8
BLACK
6
CONTINUOUS
10
93.1566
20
-59.3851
11
93.0607
21
-59.5286
0
LINE
8
BLACK
6
CONTINUOUS
10
93.0607
20
-59.5286
11
92.9386
21
-59.6507
0
LINE
8
BLACK
6
CONTINUOUS
10
92.9386
20
-59.6507
11
92.7951
21
-59.7466
0
LINE
8
BLACK
6
CONTINUOUS
10
92.7951
20
-59.7466
11
92.6356
21
-59.8126
0
LINE
8
BLACK
6
CONTINUOUS
10
92.6356
20
-59.8126
11
92.4663
21
-59.8463
0
LINE
8
BLACK
6
CONTINUOUS
10
92.4663
20
-59.8463
11
92.2937
21
-59.8463
0
LINE
8
BLACK
6
CONTINUOUS
10
92.2937
20
-59.8463
11
92.1244
21
-59.8126
0
LINE
8
BLACK
6
CONTINUOUS
10
92.1244
20
-59.8126
11
91.9649
21
-59.7466
0
LINE
8
BLACK
6
CONTINUOUS
10
91.9649
20
-59.7466
11
91.8214
21
-59.6507
0
LINE
8
BLACK
6
CONTINUOUS
10
91.8214
20
-59.6507
11
91.6993
21
-59.5286
0
LINE
8
BLACK
6
CONTINUOUS
10
91.6993
20
-59.5286
11
91.6034
21
-59.3851
0
LINE
8
BLACK
6
CONTINUOUS
10
91.6034
20
-59.3851
11
91.5374
21
-59.2256
0
LINE
8
BLACK
6
CONTINUOUS
10
91.5374
20
-59.2256
11
91.5037
21
-59.0563
0
LINE
8
BLACK
6
CONTINUOUS
10
91.5037
20
-59.0563
11
91.5037
21
-58.8837
0
LINE
8
BLACK
6
CONTINUOUS
10
91.5037
20
-58.8837
11
91.5374
21
-58.7144
0
LINE
8
BLACK
6
CONTINUOUS
10
91.5374
20
-58.7144
11
91.6034
21
-58.5549
0
LINE
8
BLACK
6
CONTINUOUS
10
91.6034
20
-58.5549
11
91.6993
21
-58.4114
0
LINE
8
BLACK
6
CONTINUOUS
10
91.6993
20
-58.4114
11
91.8214
21
-58.2893
0
LINE
8
BLACK
6
CONTINUOUS
10
91.8214
20
-58.2893
11
91.9649
21
-58.1934
0
LINE
8
BLACK
6
CONTINUOUS
10
91.9649
20
-58.1934
11
92.1244
21
-58.1274
0
LINE
8
BLACK
6
CONTINUOUS
10
92.1244
20
-58.1274
11
92.2937
21
-58.0937
0
LINE
8
BLACK
6
CONTINUOUS
10
92.2937
20
-58.0937
11
92.4663
21
-58.0937
0
LINE
8
BLACK
6
CONTINUOUS
10
92.4663
20
-58.0937
11
92.6356
21
-58.1274
0
LINE
8
BLACK
6
CONTINUOUS
10
107.876
20
-55.5874
11
108.035
21
-55.6534
0
LINE
8
BLACK
6
CONTINUOUS
10
108.035
20
-55.6534
11
108.179
21
-55.7493
0
LINE
8
BLACK
6
CONTINUOUS
10
108.179
20
-55.7493
11
108.301
21
-55.8714
0
LINE
8
BLACK
6
CONTINUOUS
10
108.301
20
-55.8714
11
108.397
21
-56.0149
0
LINE
8
BLACK
6
CONTINUOUS
10
108.397
20
-56.0149
11
108.463
21
-56.1744
0
LINE
8
BLACK
6
CONTINUOUS
10
108.463
20
-56.1744
11
108.496
21
-56.3437
0
LINE
8
BLACK
6
CONTINUOUS
10
108.496
20
-56.3437
11
108.496
21
-56.5163
0
LINE
8
BLACK
6
CONTINUOUS
10
108.496
20
-56.5163
11
108.463
21
-56.6856
0
LINE
8
BLACK
6
CONTINUOUS
10
108.463
20
-56.6856
11
108.397
21
-56.8451
0
LINE
8
BLACK
6
CONTINUOUS
10
108.397
20
-56.8451
11
108.301
21
-56.9886
0
LINE
8
BLACK
6
CONTINUOUS
10
108.301
20
-56.9886
11
108.179
21
-57.1107
0
LINE
8
BLACK
6
CONTINUOUS
10
108.179
20
-57.1107
11
108.035
21
-57.2066
0
LINE
8
BLACK
6
CONTINUOUS
10
108.035
20
-57.2066
11
107.876
21
-57.2726
0
LINE
8
BLACK
6
CONTINUOUS
10
107.876
20
-57.2726
11
107.706
21
-57.3063
0
LINE
8
BLACK
6
CONTINUOUS
10
107.706
20
-57.3063
11
107.534
21
-57.3063
0
LINE
8
BLACK
6
CONTINUOUS
10
107.534
20
-57.3063
11
107.364
21
-57.2726
0
LINE
8
BLACK
6
CONTINUOUS
10
107.364
20
-57.2726
11
107.205
21
-57.2066
0
LINE
8
BLACK
6
CONTINUOUS
10
107.205
20
-57.2066
11
107.061
21
-57.1107
0
LINE
8
BLACK
6
CONTINUOUS
10
107.061
20
-57.1107
11
106.939
21
-56.9886
0
LINE
8
BLACK
6
CONTINUOUS
10
106.939
20
-56.9886
11
106.843
21
-56.8451
0
LINE
8
BLACK
6
CONTINUOUS
10
106.843
20
-56.8451
11
106.777
21
-56.6856
0
LINE
8
BLACK
6
CONTINUOUS
10
106.777
20
-56.6856
11
106.744
21
-56.5163
0
LINE
8
BLACK
6
CONTINUOUS
10
106.744
20
-56.5163
11
106.744
21
-56.3437
0
LINE
8
BLACK
6
CONTINUOUS
10
106.744
20
-56.3437
11
106.777
21
-56.1744
0
LINE
8
BLACK
6
CONTINUOUS
10
106.777
20
-56.1744
11
106.843
21
-56.0149
0
LINE
8
BLACK
6
CONTINUOUS
10
106.843
20
-56.0149
11
106.939
21
-55.8714
0
LINE
8
BLACK
6
CONTINUOUS
10
106.939
20
-55.8714
11
107.061
21
-55.7493
0
LINE
8
BLACK
6
CONTINUOUS
10
107.061
20
-55.7493
11
107.205
21
-55.6534
0
LINE
8
BLACK
6
CONTINUOUS
10
107.205
20
-55.6534
11
107.364
21
-55.5874
0
LINE
8
BLACK
6
CONTINUOUS
10
107.364
20
-55.5874
11
107.534
21
-55.5537
0
LINE
8
BLACK
6
CONTINUOUS
10
107.534
20
-55.5537
11
107.706
21
-55.5537
0
LINE
8
BLACK
6
CONTINUOUS
10
107.706
20
-55.5537
11
107.876
21
-55.5874
0
LINE
8
BLACK
6
CONTINUOUS
10
93.2563
20
-57.3063
11
91.5037
21
-57.3063
0
LINE
8
BLACK
6
CONTINUOUS
10
91.5037
20
-57.3063
11
91.5037
21
-55.5537
0
LINE
8
BLACK
6
CONTINUOUS
10
91.5037
20
-55.5537
11
93.2563
21
-55.5537
0
LINE
8
BLACK
6
CONTINUOUS
10
93.2563
20
-55.5537
11
93.2563
21
-57.3063
  0
ENDSEC
  0
EOF
