  0
SECTION
  2
HEADER
  9
$ANGBASE
  50
0.0
  9
$ANGDIR
  70
1
  9
$MEASUREMENT
  70
1
  0
ENDSEC
  0
SECTION
  2
TABLES
  0
TABLE
  2
LTYPE
  70
4
  0
LTYPE
  5
40F
  2
CONTINUOUS
  70
0
  3
Solid line
  72
65
  73
0
  40
0.0
  0
LTYPE
  5
410
  2
DASHDOT
 70
0
  3
Dash Dot ____ _ ____ _
 72
65
 73
4
 40
2.0
 49
1.25
 49
-0.25
 49
0.25
 49
-0.25
  0
LTYPE
  5
411
  2
DASHED
 70
0
  3
Dashed __ __ __ __ __
 72
65
 73
2
 40
0.75
 49
0.5
 49
-0.25
  0
LTYPE
  5
43B
  2
DOTTED
 70
0
  3
Dotted .  .  .  .
 72
65
 73
2
 40
0.2
 49
0.0
 49
-0.2
  0
ENDTAB
  0
TABLE
  2
STYLE
  70
4
  0
STYLE
  2
KICAD
  70
0
  40
0
  41
1
  42
1
  50
0
  71
0
  3
isocp.shx
  0
STYLE
  2
KICADB
  70
0
  40
0
  41
1
  42
1
  50
0
  71
0
  3
isocp.shx
  0
STYLE
  2
KICADI
  70
0
  40
0
  41
1
  42
1
  50
15
  71
0
  3
isocp.shx
  0
STYLE
  2
KICADBI
  70
0
  40
0
  41
1
  42
1
  50
15
  71
0
  3
isocp.shx
  0
ENDTAB
  0
TABLE
  2
LAYER
  70
1
  0
LAYER
  2
BLACK
  70
0
  62
7
  6
CONTINUOUS
  0
ENDTAB
  0
ENDSEC
  0
SECTION
  2
ENTITIES
0
LINE
8
BLACK
6
CONTINUOUS
10
149.53
20
-107.575
11
148.33
21
-107.575
0
LINE
8
BLACK
6
CONTINUOUS
10
148.33
20
-107.575
11
148.33
21
-106.375
0
LINE
8
BLACK
6
CONTINUOUS
10
148.33
20
-106.375
11
149.53
21
-106.375
0
LINE
8
BLACK
6
CONTINUOUS
10
149.53
20
-106.375
11
149.53
21
-107.575
0
LINE
8
BLACK
6
CONTINUOUS
10
147.02
20
-107.555
11
145.82
21
-107.555
0
LINE
8
BLACK
6
CONTINUOUS
10
145.82
20
-107.555
11
145.82
21
-106.355
0
LINE
8
BLACK
6
CONTINUOUS
10
145.82
20
-106.355
11
147.02
21
-106.355
0
LINE
8
BLACK
6
CONTINUOUS
10
147.02
20
-106.355
11
147.02
21
-107.555
0
LINE
8
BLACK
6
CONTINUOUS
10
186.34
20
-106.917
11
185.14
21
-106.917
0
LINE
8
BLACK
6
CONTINUOUS
10
185.14
20
-106.917
11
185.14
21
-105.717
0
LINE
8
BLACK
6
CONTINUOUS
10
185.14
20
-105.717
11
186.34
21
-105.717
0
LINE
8
BLACK
6
CONTINUOUS
10
186.34
20
-105.717
11
186.34
21
-106.917
0
LINE
8
BLACK
6
CONTINUOUS
10
284.166
20
-106.831
11
282.966
21
-106.831
0
LINE
8
BLACK
6
CONTINUOUS
10
282.966
20
-106.831
11
282.966
21
-105.631
0
LINE
8
BLACK
6
CONTINUOUS
10
282.966
20
-105.631
11
284.166
21
-105.631
0
LINE
8
BLACK
6
CONTINUOUS
10
284.166
20
-105.631
11
284.166
21
-106.831
0
LINE
8
BLACK
6
CONTINUOUS
10
130.4
20
-106.775
11
129.2
21
-106.775
0
LINE
8
BLACK
6
CONTINUOUS
10
129.2
20
-106.775
11
129.2
21
-105.575
0
LINE
8
BLACK
6
CONTINUOUS
10
129.2
20
-105.575
11
130.4
21
-105.575
0
LINE
8
BLACK
6
CONTINUOUS
10
130.4
20
-105.575
11
130.4
21
-106.775
0
LINE
8
BLACK
6
CONTINUOUS
10
127.9
20
-106.775
11
126.7
21
-106.775
0
LINE
8
BLACK
6
CONTINUOUS
10
126.7
20
-106.775
11
126.7
21
-105.575
0
LINE
8
BLACK
6
CONTINUOUS
10
126.7
20
-105.575
11
127.9
21
-105.575
0
LINE
8
BLACK
6
CONTINUOUS
10
127.9
20
-105.575
11
127.9
21
-106.775
0
LINE
8
BLACK
6
CONTINUOUS
10
224.882
20
-106.733
11
223.682
21
-106.733
0
LINE
8
BLACK
6
CONTINUOUS
10
223.682
20
-106.733
11
223.682
21
-105.533
0
LINE
8
BLACK
6
CONTINUOUS
10
223.682
20
-105.533
11
224.882
21
-105.533
0
LINE
8
BLACK
6
CONTINUOUS
10
224.882
20
-105.533
11
224.882
21
-106.733
0
LINE
8
BLACK
6
CONTINUOUS
10
262.876
20
-106.651
11
261.676
21
-106.651
0
LINE
8
BLACK
6
CONTINUOUS
10
261.676
20
-106.651
11
261.676
21
-105.451
0
LINE
8
BLACK
6
CONTINUOUS
10
261.676
20
-105.451
11
262.876
21
-105.451
0
LINE
8
BLACK
6
CONTINUOUS
10
262.876
20
-105.451
11
262.876
21
-106.651
0
LINE
8
BLACK
6
CONTINUOUS
10
70.9
20
-106.575
11
69.7
21
-106.575
0
LINE
8
BLACK
6
CONTINUOUS
10
69.7
20
-106.575
11
69.7
21
-105.375
0
LINE
8
BLACK
6
CONTINUOUS
10
69.7
20
-105.375
11
70.9
21
-105.375
0
LINE
8
BLACK
6
CONTINUOUS
10
70.9
20
-105.375
11
70.9
21
-106.575
0
LINE
8
BLACK
6
CONTINUOUS
10
73.4
20
-106.475
11
72.2
21
-106.475
0
LINE
8
BLACK
6
CONTINUOUS
10
72.2
20
-106.475
11
72.2
21
-105.275
0
LINE
8
BLACK
6
CONTINUOUS
10
72.2
20
-105.275
11
73.4
21
-105.275
0
LINE
8
BLACK
6
CONTINUOUS
10
73.4
20
-105.275
11
73.4
21
-106.475
0
LINE
8
BLACK
6
CONTINUOUS
10
243.678
20
-106.315
11
242.478
21
-106.315
0
LINE
8
BLACK
6
CONTINUOUS
10
242.478
20
-106.315
11
242.478
21
-105.115
0
LINE
8
BLACK
6
CONTINUOUS
10
242.478
20
-105.115
11
243.678
21
-105.115
0
LINE
8
BLACK
6
CONTINUOUS
10
243.678
20
-105.115
11
243.678
21
-106.315
0
LINE
8
BLACK
6
CONTINUOUS
10
149.53
20
-104.425
11
148.33
21
-104.425
0
LINE
8
BLACK
6
CONTINUOUS
10
148.33
20
-104.425
11
148.33
21
-103.225
0
LINE
8
BLACK
6
CONTINUOUS
10
148.33
20
-103.225
11
149.53
21
-103.225
0
LINE
8
BLACK
6
CONTINUOUS
10
149.53
20
-103.225
11
149.53
21
-104.425
0
LINE
8
BLACK
6
CONTINUOUS
10
147.02
20
-104.405
11
145.82
21
-104.405
0
LINE
8
BLACK
6
CONTINUOUS
10
145.82
20
-104.405
11
145.82
21
-103.205
0
LINE
8
BLACK
6
CONTINUOUS
10
145.82
20
-103.205
11
147.02
21
-103.205
0
LINE
8
BLACK
6
CONTINUOUS
10
147.02
20
-103.205
11
147.02
21
-104.405
0
LINE
8
BLACK
6
CONTINUOUS
10
205.386
20
-104.091
11
204.186
21
-104.091
0
LINE
8
BLACK
6
CONTINUOUS
10
204.186
20
-104.091
11
204.186
21
-102.891
0
LINE
8
BLACK
6
CONTINUOUS
10
204.186
20
-102.891
11
205.386
21
-102.891
0
LINE
8
BLACK
6
CONTINUOUS
10
205.386
20
-102.891
11
205.386
21
-104.091
0
LINE
8
BLACK
6
CONTINUOUS
10
186.34
20
-103.767
11
185.14
21
-103.767
0
LINE
8
BLACK
6
CONTINUOUS
10
185.14
20
-103.767
11
185.14
21
-102.567
0
LINE
8
BLACK
6
CONTINUOUS
10
185.14
20
-102.567
11
186.34
21
-102.567
0
LINE
8
BLACK
6
CONTINUOUS
10
186.34
20
-102.567
11
186.34
21
-103.767
0
LINE
8
BLACK
6
CONTINUOUS
10
284.166
20
-103.681
11
282.966
21
-103.681
0
LINE
8
BLACK
6
CONTINUOUS
10
282.966
20
-103.681
11
282.966
21
-102.481
0
LINE
8
BLACK
6
CONTINUOUS
10
282.966
20
-102.481
11
284.166
21
-102.481
0
LINE
8
BLACK
6
CONTINUOUS
10
284.166
20
-102.481
11
284.166
21
-103.681
0
LINE
8
BLACK
6
CONTINUOUS
10
127.9
20
-103.625
11
126.7
21
-103.625
0
LINE
8
BLACK
6
CONTINUOUS
10
126.7
20
-103.625
11
126.7
21
-102.425
0
LINE
8
BLACK
6
CONTINUOUS
10
126.7
20
-102.425
11
127.9
21
-102.425
0
LINE
8
BLACK
6
CONTINUOUS
10
127.9
20
-102.425
11
127.9
21
-103.625
0
LINE
8
BLACK
6
CONTINUOUS
10
130.4
20
-103.625
11
129.2
21
-103.625
0
LINE
8
BLACK
6
CONTINUOUS
10
129.2
20
-103.625
11
129.2
21
-102.425
0
LINE
8
BLACK
6
CONTINUOUS
10
129.2
20
-102.425
11
130.4
21
-102.425
0
LINE
8
BLACK
6
CONTINUOUS
10
130.4
20
-102.425
11
130.4
21
-103.625
0
LINE
8
BLACK
6
CONTINUOUS
10
224.882
20
-103.583
11
223.682
21
-103.583
0
LINE
8
BLACK
6
CONTINUOUS
10
223.682
20
-103.583
11
223.682
21
-102.383
0
LINE
8
BLACK
6
CONTINUOUS
10
223.682
20
-102.383
11
224.882
21
-102.383
0
LINE
8
BLACK
6
CONTINUOUS
10
224.882
20
-102.383
11
224.882
21
-103.583
0
LINE
8
BLACK
6
CONTINUOUS
10
262.876
20
-103.501
11
261.676
21
-103.501
0
LINE
8
BLACK
6
CONTINUOUS
10
261.676
20
-103.501
11
261.676
21
-102.301
0
LINE
8
BLACK
6
CONTINUOUS
10
261.676
20
-102.301
11
262.876
21
-102.301
0
LINE
8
BLACK
6
CONTINUOUS
10
262.876
20
-102.301
11
262.876
21
-103.501
0
LINE
8
BLACK
6
CONTINUOUS
10
70.9
20
-103.425
11
69.7
21
-103.425
0
LINE
8
BLACK
6
CONTINUOUS
10
69.7
20
-103.425
11
69.7
21
-102.225
0
LINE
8
BLACK
6
CONTINUOUS
10
69.7
20
-102.225
11
70.9
21
-102.225
0
LINE
8
BLACK
6
CONTINUOUS
10
70.9
20
-102.225
11
70.9
21
-103.425
0
LINE
8
BLACK
6
CONTINUOUS
10
73.4
20
-103.325
11
72.2
21
-103.325
0
LINE
8
BLACK
6
CONTINUOUS
10
72.2
20
-103.325
11
72.2
21
-102.125
0
LINE
8
BLACK
6
CONTINUOUS
10
72.2
20
-102.125
11
73.4
21
-102.125
0
LINE
8
BLACK
6
CONTINUOUS
10
73.4
20
-102.125
11
73.4
21
-103.325
0
LINE
8
BLACK
6
CONTINUOUS
10
243.678
20
-103.165
11
242.478
21
-103.165
0
LINE
8
BLACK
6
CONTINUOUS
10
242.478
20
-103.165
11
242.478
21
-101.965
0
LINE
8
BLACK
6
CONTINUOUS
10
242.478
20
-101.965
11
243.678
21
-101.965
0
LINE
8
BLACK
6
CONTINUOUS
10
243.678
20
-101.965
11
243.678
21
-103.165
0
LINE
8
BLACK
6
CONTINUOUS
10
205.386
20
-100.941
11
204.186
21
-100.941
0
LINE
8
BLACK
6
CONTINUOUS
10
204.186
20
-100.941
11
204.186
21
-99.741
0
LINE
8
BLACK
6
CONTINUOUS
10
204.186
20
-99.741
11
205.386
21
-99.741
0
LINE
8
BLACK
6
CONTINUOUS
10
205.386
20
-99.741
11
205.386
21
-100.941
0
LINE
8
BLACK
6
CONTINUOUS
10
70.704
20
-88.586
11
69.504
21
-88.586
0
LINE
8
BLACK
6
CONTINUOUS
10
69.504
20
-88.586
11
69.504
21
-87.386
0
LINE
8
BLACK
6
CONTINUOUS
10
69.504
20
-87.386
11
70.704
21
-87.386
0
LINE
8
BLACK
6
CONTINUOUS
10
70.704
20
-87.386
11
70.704
21
-88.586
0
LINE
8
BLACK
6
CONTINUOUS
10
73.244
20
-88.535
11
72.044
21
-88.535
0
LINE
8
BLACK
6
CONTINUOUS
10
72.044
20
-88.535
11
72.044
21
-87.335
0
LINE
8
BLACK
6
CONTINUOUS
10
72.044
20
-87.335
11
73.244
21
-87.335
0
LINE
8
BLACK
6
CONTINUOUS
10
73.244
20
-87.335
11
73.244
21
-88.535
0
LINE
8
BLACK
6
CONTINUOUS
10
284.064
20
-86.757
11
282.864
21
-86.757
0
LINE
8
BLACK
6
CONTINUOUS
10
282.864
20
-86.757
11
282.864
21
-85.557
0
LINE
8
BLACK
6
CONTINUOUS
10
282.864
20
-85.557
11
284.064
21
-85.557
0
LINE
8
BLACK
6
CONTINUOUS
10
284.064
20
-85.557
11
284.064
21
-86.757
0
LINE
8
BLACK
6
CONTINUOUS
10
262.474
20
-86.706
11
261.274
21
-86.706
0
LINE
8
BLACK
6
CONTINUOUS
10
261.274
20
-86.706
11
261.274
21
-85.506
0
LINE
8
BLACK
6
CONTINUOUS
10
261.274
20
-85.506
11
262.474
21
-85.506
0
LINE
8
BLACK
6
CONTINUOUS
10
262.474
20
-85.506
11
262.474
21
-86.706
0
LINE
8
BLACK
6
CONTINUOUS
10
243.424
20
-86.452
11
242.224
21
-86.452
0
LINE
8
BLACK
6
CONTINUOUS
10
242.224
20
-86.452
11
242.224
21
-85.252
0
LINE
8
BLACK
6
CONTINUOUS
10
242.224
20
-85.252
11
243.424
21
-85.252
0
LINE
8
BLACK
6
CONTINUOUS
10
243.424
20
-85.252
11
243.424
21
-86.452
0
LINE
8
BLACK
6
CONTINUOUS
10
224.628
20
-86.155
11
223.428
21
-86.155
0
LINE
8
BLACK
6
CONTINUOUS
10
223.428
20
-86.155
11
223.428
21
-84.955
0
LINE
8
BLACK
6
CONTINUOUS
10
223.428
20
-84.955
11
224.628
21
-84.955
0
LINE
8
BLACK
6
CONTINUOUS
10
224.628
20
-84.955
11
224.628
21
-86.155
0
LINE
8
BLACK
6
CONTINUOUS
10
130.648
20
-86.011
11
129.448
21
-86.011
0
LINE
8
BLACK
6
CONTINUOUS
10
129.448
20
-86.011
11
129.448
21
-84.811
0
LINE
8
BLACK
6
CONTINUOUS
10
129.448
20
-84.811
11
130.648
21
-84.811
0
LINE
8
BLACK
6
CONTINUOUS
10
130.648
20
-84.811
11
130.648
21
-86.011
0
LINE
8
BLACK
6
CONTINUOUS
10
128.108
20
-85.995
11
126.908
21
-85.995
0
LINE
8
BLACK
6
CONTINUOUS
10
126.908
20
-85.995
11
126.908
21
-84.795
0
LINE
8
BLACK
6
CONTINUOUS
10
126.908
20
-84.795
11
128.108
21
-84.795
0
LINE
8
BLACK
6
CONTINUOUS
10
128.108
20
-84.795
11
128.108
21
-85.995
0
LINE
8
BLACK
6
CONTINUOUS
10
205.578
20
-85.995
11
204.378
21
-85.995
0
LINE
8
BLACK
6
CONTINUOUS
10
204.378
20
-85.995
11
204.378
21
-84.795
0
LINE
8
BLACK
6
CONTINUOUS
10
204.378
20
-84.795
11
205.578
21
-84.795
0
LINE
8
BLACK
6
CONTINUOUS
10
205.578
20
-84.795
11
205.578
21
-85.995
0
LINE
8
BLACK
6
CONTINUOUS
10
186.528
20
-85.901
11
185.328
21
-85.901
0
LINE
8
BLACK
6
CONTINUOUS
10
185.328
20
-85.901
11
185.328
21
-84.701
0
LINE
8
BLACK
6
CONTINUOUS
10
185.328
20
-84.701
11
186.528
21
-84.701
0
LINE
8
BLACK
6
CONTINUOUS
10
186.528
20
-84.701
11
186.528
21
-85.901
0
LINE
8
BLACK
6
CONTINUOUS
10
167.732
20
-85.792
11
166.532
21
-85.792
0
LINE
8
BLACK
6
CONTINUOUS
10
166.532
20
-85.792
11
166.532
21
-84.592
0
LINE
8
BLACK
6
CONTINUOUS
10
166.532
20
-84.592
11
167.732
21
-84.592
0
LINE
8
BLACK
6
CONTINUOUS
10
167.732
20
-84.592
11
167.732
21
-85.792
0
LINE
8
BLACK
6
CONTINUOUS
10
70.704
20
-85.436
11
69.504
21
-85.436
0
LINE
8
BLACK
6
CONTINUOUS
10
69.504
20
-85.436
11
69.504
21
-84.236
0
LINE
8
BLACK
6
CONTINUOUS
10
69.504
20
-84.236
11
70.704
21
-84.236
0
LINE
8
BLACK
6
CONTINUOUS
10
70.704
20
-84.236
11
70.704
21
-85.436
0
LINE
8
BLACK
6
CONTINUOUS
10
147.412
20
-85.436
11
146.212
21
-85.436
0
LINE
8
BLACK
6
CONTINUOUS
10
146.212
20
-85.436
11
146.212
21
-84.236
0
LINE
8
BLACK
6
CONTINUOUS
10
146.212
20
-84.236
11
147.412
21
-84.236
0
LINE
8
BLACK
6
CONTINUOUS
10
147.412
20
-84.236
11
147.412
21
-85.436
0
LINE
8
BLACK
6
CONTINUOUS
10
149.952
20
-85.436
11
148.752
21
-85.436
0
LINE
8
BLACK
6
CONTINUOUS
10
148.752
20
-85.436
11
148.752
21
-84.236
0
LINE
8
BLACK
6
CONTINUOUS
10
148.752
20
-84.236
11
149.952
21
-84.236
0
LINE
8
BLACK
6
CONTINUOUS
10
149.952
20
-84.236
11
149.952
21
-85.436
0
LINE
8
BLACK
6
CONTINUOUS
10
73.244
20
-85.385
11
72.044
21
-85.385
0
LINE
8
BLACK
6
CONTINUOUS
10
72.044
20
-85.385
11
72.044
21
-84.185
0
LINE
8
BLACK
6
CONTINUOUS
10
72.044
20
-84.185
11
73.244
21
-84.185
0
LINE
8
BLACK
6
CONTINUOUS
10
73.244
20
-84.185
11
73.244
21
-85.385
0
LINE
8
BLACK
6
CONTINUOUS
10
284.064
20
-83.607
11
282.864
21
-83.607
0
LINE
8
BLACK
6
CONTINUOUS
10
282.864
20
-83.607
11
282.864
21
-82.407
0
LINE
8
BLACK
6
CONTINUOUS
10
282.864
20
-82.407
11
284.064
21
-82.407
0
LINE
8
BLACK
6
CONTINUOUS
10
284.064
20
-82.407
11
284.064
21
-83.607
0
LINE
8
BLACK
6
CONTINUOUS
10
262.474
20
-83.556
11
261.274
21
-83.556
0
LINE
8
BLACK
6
CONTINUOUS
10
261.274
20
-83.556
11
261.274
21
-82.356
0
LINE
8
BLACK
6
CONTINUOUS
10
261.274
20
-82.356
11
262.474
21
-82.356
0
LINE
8
BLACK
6
CONTINUOUS
10
262.474
20
-82.356
11
262.474
21
-83.556
0
LINE
8
BLACK
6
CONTINUOUS
10
243.424
20
-83.302
11
242.224
21
-83.302
0
LINE
8
BLACK
6
CONTINUOUS
10
242.224
20
-83.302
11
242.224
21
-82.102
0
LINE
8
BLACK
6
CONTINUOUS
10
242.224
20
-82.102
11
243.424
21
-82.102
0
LINE
8
BLACK
6
CONTINUOUS
10
243.424
20
-82.102
11
243.424
21
-83.302
0
LINE
8
BLACK
6
CONTINUOUS
10
224.628
20
-83.005
11
223.428
21
-83.005
0
LINE
8
BLACK
6
CONTINUOUS
10
223.428
20
-83.005
11
223.428
21
-81.805
0
LINE
8
BLACK
6
CONTINUOUS
10
223.428
20
-81.805
11
224.628
21
-81.805
0
LINE
8
BLACK
6
CONTINUOUS
10
224.628
20
-81.805
11
224.628
21
-83.005
0
LINE
8
BLACK
6
CONTINUOUS
10
130.648
20
-82.861
11
129.448
21
-82.861
0
LINE
8
BLACK
6
CONTINUOUS
10
129.448
20
-82.861
11
129.448
21
-81.661
0
LINE
8
BLACK
6
CONTINUOUS
10
129.448
20
-81.661
11
130.648
21
-81.661
0
LINE
8
BLACK
6
CONTINUOUS
10
130.648
20
-81.661
11
130.648
21
-82.861
0
LINE
8
BLACK
6
CONTINUOUS
10
128.108
20
-82.845
11
126.908
21
-82.845
0
LINE
8
BLACK
6
CONTINUOUS
10
126.908
20
-82.845
11
126.908
21
-81.645
0
LINE
8
BLACK
6
CONTINUOUS
10
126.908
20
-81.645
11
128.108
21
-81.645
0
LINE
8
BLACK
6
CONTINUOUS
10
128.108
20
-81.645
11
128.108
21
-82.845
0
LINE
8
BLACK
6
CONTINUOUS
10
205.578
20
-82.845
11
204.378
21
-82.845
0
LINE
8
BLACK
6
CONTINUOUS
10
204.378
20
-82.845
11
204.378
21
-81.645
0
LINE
8
BLACK
6
CONTINUOUS
10
204.378
20
-81.645
11
205.578
21
-81.645
0
LINE
8
BLACK
6
CONTINUOUS
10
205.578
20
-81.645
11
205.578
21
-82.845
0
LINE
8
BLACK
6
CONTINUOUS
10
186.528
20
-82.751
11
185.328
21
-82.751
0
LINE
8
BLACK
6
CONTINUOUS
10
185.328
20
-82.751
11
185.328
21
-81.551
0
LINE
8
BLACK
6
CONTINUOUS
10
185.328
20
-81.551
11
186.528
21
-81.551
0
LINE
8
BLACK
6
CONTINUOUS
10
186.528
20
-81.551
11
186.528
21
-82.751
0
LINE
8
BLACK
6
CONTINUOUS
10
167.732
20
-82.642
11
166.532
21
-82.642
0
LINE
8
BLACK
6
CONTINUOUS
10
166.532
20
-82.642
11
166.532
21
-81.442
0
LINE
8
BLACK
6
CONTINUOUS
10
166.532
20
-81.442
11
167.732
21
-81.442
0
LINE
8
BLACK
6
CONTINUOUS
10
167.732
20
-81.442
11
167.732
21
-82.642
0
LINE
8
BLACK
6
CONTINUOUS
10
149.952
20
-82.286
11
148.752
21
-82.286
0
LINE
8
BLACK
6
CONTINUOUS
10
148.752
20
-82.286
11
148.752
21
-81.086
0
LINE
8
BLACK
6
CONTINUOUS
10
148.752
20
-81.086
11
149.952
21
-81.086
0
LINE
8
BLACK
6
CONTINUOUS
10
149.952
20
-81.086
11
149.952
21
-82.286
0
LINE
8
BLACK
6
CONTINUOUS
10
147.412
20
-82.286
11
146.212
21
-82.286
0
LINE
8
BLACK
6
CONTINUOUS
10
146.212
20
-82.286
11
146.212
21
-81.086
0
LINE
8
BLACK
6
CONTINUOUS
10
146.212
20
-81.086
11
147.412
21
-81.086
0
LINE
8
BLACK
6
CONTINUOUS
10
147.412
20
-81.086
11
147.412
21
-82.286
0
LINE
8
BLACK
6
CONTINUOUS
10
259.574
20
-78.6
11
257.874
21
-78.6
0
LINE
8
BLACK
6
CONTINUOUS
10
257.874
20
-78.6
11
257.874
21
-77.6
0
LINE
8
BLACK
6
CONTINUOUS
10
257.874
20
-77.6
11
259.574
21
-77.6
0
LINE
8
BLACK
6
CONTINUOUS
10
259.574
20
-77.6
11
259.574
21
-78.6
0
LINE
8
BLACK
6
CONTINUOUS
10
265.874
20
-78.6
11
264.174
21
-78.6
0
LINE
8
BLACK
6
CONTINUOUS
10
264.174
20
-78.6
11
264.174
21
-77.6
0
LINE
8
BLACK
6
CONTINUOUS
10
264.174
20
-77.6
11
265.874
21
-77.6
0
LINE
8
BLACK
6
CONTINUOUS
10
265.874
20
-77.6
11
265.874
21
-78.6
0
LINE
8
BLACK
6
CONTINUOUS
10
259.574
20
-74.8
11
257.874
21
-74.8
0
LINE
8
BLACK
6
CONTINUOUS
10
257.874
20
-74.8
11
257.874
21
-73.8
0
LINE
8
BLACK
6
CONTINUOUS
10
257.874
20
-73.8
11
259.574
21
-73.8
0
LINE
8
BLACK
6
CONTINUOUS
10
259.574
20
-73.8
11
259.574
21
-74.8
0
LINE
8
BLACK
6
CONTINUOUS
10
265.874
20
-74.8
11
264.174
21
-74.8
0
LINE
8
BLACK
6
CONTINUOUS
10
264.174
20
-74.8
11
264.174
21
-73.8
0
LINE
8
BLACK
6
CONTINUOUS
10
264.174
20
-73.8
11
265.874
21
-73.8
0
LINE
8
BLACK
6
CONTINUOUS
10
265.874
20
-73.8
11
265.874
21
-74.8
0
LINE
8
BLACK
6
CONTINUOUS
10
73.244
20
-69.231
11
72.044
21
-69.231
0
LINE
8
BLACK
6
CONTINUOUS
10
72.044
20
-69.231
11
72.044
21
-68.031
0
LINE
8
BLACK
6
CONTINUOUS
10
72.044
20
-68.031
11
73.244
21
-68.031
0
LINE
8
BLACK
6
CONTINUOUS
10
73.244
20
-68.031
11
73.244
21
-69.231
0
LINE
8
BLACK
6
CONTINUOUS
10
70.9
20
-69.231
11
69.7
21
-69.231
0
LINE
8
BLACK
6
CONTINUOUS
10
69.7
20
-69.231
11
69.7
21
-68.031
0
LINE
8
BLACK
6
CONTINUOUS
10
69.7
20
-68.031
11
70.9
21
-68.031
0
LINE
8
BLACK
6
CONTINUOUS
10
70.9
20
-68.031
11
70.9
21
-69.231
0
LINE
8
BLACK
6
CONTINUOUS
10
147.158
20
-68.977
11
145.958
21
-68.977
0
LINE
8
BLACK
6
CONTINUOUS
10
145.958
20
-68.977
11
145.958
21
-67.777
0
LINE
8
BLACK
6
CONTINUOUS
10
145.958
20
-67.777
11
147.158
21
-67.777
0
LINE
8
BLACK
6
CONTINUOUS
10
147.158
20
-67.777
11
147.158
21
-68.977
0
LINE
8
BLACK
6
CONTINUOUS
10
149.698
20
-68.977
11
148.498
21
-68.977
0
LINE
8
BLACK
6
CONTINUOUS
10
148.498
20
-68.977
11
148.498
21
-67.777
0
LINE
8
BLACK
6
CONTINUOUS
10
148.498
20
-67.777
11
149.698
21
-67.777
0
LINE
8
BLACK
6
CONTINUOUS
10
149.698
20
-67.777
11
149.698
21
-68.977
0
LINE
8
BLACK
6
CONTINUOUS
10
262.22
20
-68.723
11
261.02
21
-68.723
0
LINE
8
BLACK
6
CONTINUOUS
10
261.02
20
-68.723
11
261.02
21
-67.523
0
LINE
8
BLACK
6
CONTINUOUS
10
261.02
20
-67.523
11
262.22
21
-67.523
0
LINE
8
BLACK
6
CONTINUOUS
10
262.22
20
-67.523
11
262.22
21
-68.723
0
LINE
8
BLACK
6
CONTINUOUS
10
243.424
20
-68.723
11
242.224
21
-68.723
0
LINE
8
BLACK
6
CONTINUOUS
10
242.224
20
-68.723
11
242.224
21
-67.523
0
LINE
8
BLACK
6
CONTINUOUS
10
242.224
20
-67.523
11
243.424
21
-67.523
0
LINE
8
BLACK
6
CONTINUOUS
10
243.424
20
-67.523
11
243.424
21
-68.723
0
LINE
8
BLACK
6
CONTINUOUS
10
224.12
20
-68.723
11
222.92
21
-68.723
0
LINE
8
BLACK
6
CONTINUOUS
10
222.92
20
-68.723
11
222.92
21
-67.523
0
LINE
8
BLACK
6
CONTINUOUS
10
222.92
20
-67.523
11
224.12
21
-67.523
0
LINE
8
BLACK
6
CONTINUOUS
10
224.12
20
-67.523
11
224.12
21
-68.723
0
LINE
8
BLACK
6
CONTINUOUS
10
205.324
20
-68.723
11
204.124
21
-68.723
0
LINE
8
BLACK
6
CONTINUOUS
10
204.124
20
-68.723
11
204.124
21
-67.523
0
LINE
8
BLACK
6
CONTINUOUS
10
204.124
20
-67.523
11
205.324
21
-67.523
0
LINE
8
BLACK
6
CONTINUOUS
10
205.324
20
-67.523
11
205.324
21
-68.723
0
LINE
8
BLACK
6
CONTINUOUS
10
186.02
20
-68.723
11
184.82
21
-68.723
0
LINE
8
BLACK
6
CONTINUOUS
10
184.82
20
-68.723
11
184.82
21
-67.523
0
LINE
8
BLACK
6
CONTINUOUS
10
184.82
20
-67.523
11
186.02
21
-67.523
0
LINE
8
BLACK
6
CONTINUOUS
10
186.02
20
-67.523
11
186.02
21
-68.723
0
LINE
8
BLACK
6
CONTINUOUS
10
167.224
20
-68.723
11
166.024
21
-68.723
0
LINE
8
BLACK
6
CONTINUOUS
10
166.024
20
-68.723
11
166.024
21
-67.523
0
LINE
8
BLACK
6
CONTINUOUS
10
166.024
20
-67.523
11
167.224
21
-67.523
0
LINE
8
BLACK
6
CONTINUOUS
10
167.224
20
-67.523
11
167.224
21
-68.723
0
LINE
8
BLACK
6
CONTINUOUS
10
130.648
20
-68.723
11
129.448
21
-68.723
0
LINE
8
BLACK
6
CONTINUOUS
10
129.448
20
-68.723
11
129.448
21
-67.523
0
LINE
8
BLACK
6
CONTINUOUS
10
129.448
20
-67.523
11
130.648
21
-67.523
0
LINE
8
BLACK
6
CONTINUOUS
10
130.648
20
-67.523
11
130.648
21
-68.723
0
LINE
8
BLACK
6
CONTINUOUS
10
128.108
20
-68.672
11
126.908
21
-68.672
0
LINE
8
BLACK
6
CONTINUOUS
10
126.908
20
-68.672
11
126.908
21
-67.472
0
LINE
8
BLACK
6
CONTINUOUS
10
126.908
20
-67.472
11
128.108
21
-67.472
0
LINE
8
BLACK
6
CONTINUOUS
10
128.108
20
-67.472
11
128.108
21
-68.672
0
LINE
8
BLACK
6
CONTINUOUS
10
284.064
20
-68.52
11
282.864
21
-68.52
0
LINE
8
BLACK
6
CONTINUOUS
10
282.864
20
-68.52
11
282.864
21
-67.32
0
LINE
8
BLACK
6
CONTINUOUS
10
282.864
20
-67.32
11
284.064
21
-67.32
0
LINE
8
BLACK
6
CONTINUOUS
10
284.064
20
-67.32
11
284.064
21
-68.52
0
LINE
8
BLACK
6
CONTINUOUS
10
73.244
20
-66.081
11
72.044
21
-66.081
0
LINE
8
BLACK
6
CONTINUOUS
10
72.044
20
-66.081
11
72.044
21
-64.881
0
LINE
8
BLACK
6
CONTINUOUS
10
72.044
20
-64.881
11
73.244
21
-64.881
0
LINE
8
BLACK
6
CONTINUOUS
10
73.244
20
-64.881
11
73.244
21
-66.081
0
LINE
8
BLACK
6
CONTINUOUS
10
70.9
20
-66.081
11
69.7
21
-66.081
0
LINE
8
BLACK
6
CONTINUOUS
10
69.7
20
-66.081
11
69.7
21
-64.881
0
LINE
8
BLACK
6
CONTINUOUS
10
69.7
20
-64.881
11
70.9
21
-64.881
0
LINE
8
BLACK
6
CONTINUOUS
10
70.9
20
-64.881
11
70.9
21
-66.081
0
LINE
8
BLACK
6
CONTINUOUS
10
149.698
20
-65.827
11
148.498
21
-65.827
0
LINE
8
BLACK
6
CONTINUOUS
10
148.498
20
-65.827
11
148.498
21
-64.627
0
LINE
8
BLACK
6
CONTINUOUS
10
148.498
20
-64.627
11
149.698
21
-64.627
0
LINE
8
BLACK
6
CONTINUOUS
10
149.698
20
-64.627
11
149.698
21
-65.827
0
LINE
8
BLACK
6
CONTINUOUS
10
147.158
20
-65.827
11
145.958
21
-65.827
0
LINE
8
BLACK
6
CONTINUOUS
10
145.958
20
-65.827
11
145.958
21
-64.627
0
LINE
8
BLACK
6
CONTINUOUS
10
145.958
20
-64.627
11
147.158
21
-64.627
0
LINE
8
BLACK
6
CONTINUOUS
10
147.158
20
-64.627
11
147.158
21
-65.827
0
LINE
8
BLACK
6
CONTINUOUS
10
262.22
20
-65.573
11
261.02
21
-65.573
0
LINE
8
BLACK
6
CONTINUOUS
10
261.02
20
-65.573
11
261.02
21
-64.373
0
LINE
8
BLACK
6
CONTINUOUS
10
261.02
20
-64.373
11
262.22
21
-64.373
0
LINE
8
BLACK
6
CONTINUOUS
10
262.22
20
-64.373
11
262.22
21
-65.573
0
LINE
8
BLACK
6
CONTINUOUS
10
243.424
20
-65.573
11
242.224
21
-65.573
0
LINE
8
BLACK
6
CONTINUOUS
10
242.224
20
-65.573
11
242.224
21
-64.373
0
LINE
8
BLACK
6
CONTINUOUS
10
242.224
20
-64.373
11
243.424
21
-64.373
0
LINE
8
BLACK
6
CONTINUOUS
10
243.424
20
-64.373
11
243.424
21
-65.573
0
LINE
8
BLACK
6
CONTINUOUS
10
224.12
20
-65.573
11
222.92
21
-65.573
0
LINE
8
BLACK
6
CONTINUOUS
10
222.92
20
-65.573
11
222.92
21
-64.373
0
LINE
8
BLACK
6
CONTINUOUS
10
222.92
20
-64.373
11
224.12
21
-64.373
0
LINE
8
BLACK
6
CONTINUOUS
10
224.12
20
-64.373
11
224.12
21
-65.573
0
LINE
8
BLACK
6
CONTINUOUS
10
205.324
20
-65.573
11
204.124
21
-65.573
0
LINE
8
BLACK
6
CONTINUOUS
10
204.124
20
-65.573
11
204.124
21
-64.373
0
LINE
8
BLACK
6
CONTINUOUS
10
204.124
20
-64.373
11
205.324
21
-64.373
0
LINE
8
BLACK
6
CONTINUOUS
10
205.324
20
-64.373
11
205.324
21
-65.573
0
LINE
8
BLACK
6
CONTINUOUS
10
186.02
20
-65.573
11
184.82
21
-65.573
0
LINE
8
BLACK
6
CONTINUOUS
10
184.82
20
-65.573
11
184.82
21
-64.373
0
LINE
8
BLACK
6
CONTINUOUS
10
184.82
20
-64.373
11
186.02
21
-64.373
0
LINE
8
BLACK
6
CONTINUOUS
10
186.02
20
-64.373
11
186.02
21
-65.573
0
LINE
8
BLACK
6
CONTINUOUS
10
167.224
20
-65.573
11
166.024
21
-65.573
0
LINE
8
BLACK
6
CONTINUOUS
10
166.024
20
-65.573
11
166.024
21
-64.373
0
LINE
8
BLACK
6
CONTINUOUS
10
166.024
20
-64.373
11
167.224
21
-64.373
0
LINE
8
BLACK
6
CONTINUOUS
10
167.224
20
-64.373
11
167.224
21
-65.573
0
LINE
8
BLACK
6
CONTINUOUS
10
130.648
20
-65.573
11
129.448
21
-65.573
0
LINE
8
BLACK
6
CONTINUOUS
10
129.448
20
-65.573
11
129.448
21
-64.373
0
LINE
8
BLACK
6
CONTINUOUS
10
129.448
20
-64.373
11
130.648
21
-64.373
0
LINE
8
BLACK
6
CONTINUOUS
10
130.648
20
-64.373
11
130.648
21
-65.573
0
LINE
8
BLACK
6
CONTINUOUS
10
128.108
20
-65.522
11
126.908
21
-65.522
0
LINE
8
BLACK
6
CONTINUOUS
10
126.908
20
-65.522
11
126.908
21
-64.322
0
LINE
8
BLACK
6
CONTINUOUS
10
126.908
20
-64.322
11
128.108
21
-64.322
0
LINE
8
BLACK
6
CONTINUOUS
10
128.108
20
-64.322
11
128.108
21
-65.522
0
LINE
8
BLACK
6
CONTINUOUS
10
284.064
20
-65.37
11
282.864
21
-65.37
0
LINE
8
BLACK
6
CONTINUOUS
10
282.864
20
-65.37
11
282.864
21
-64.17
0
LINE
8
BLACK
6
CONTINUOUS
10
282.864
20
-64.17
11
284.064
21
-64.17
0
LINE
8
BLACK
6
CONTINUOUS
10
284.064
20
-64.17
11
284.064
21
-65.37
0
LINE
8
BLACK
6
CONTINUOUS
10
281.4
20
-58.1226
11
280.7
21
-58.1226
0
LINE
8
BLACK
6
CONTINUOUS
10
280.7
20
-58.1226
11
280.7
21
-56.6226
0
LINE
8
BLACK
6
CONTINUOUS
10
280.7
20
-56.6226
11
281.4
21
-56.6226
0
LINE
8
BLACK
6
CONTINUOUS
10
281.4
20
-56.6226
11
281.4
21
-58.1226
0
LINE
8
BLACK
6
CONTINUOUS
10
284.4
20
-58.1226
11
283.7
21
-58.1226
0
LINE
8
BLACK
6
CONTINUOUS
10
283.7
20
-58.1226
11
283.7
21
-56.6226
0
LINE
8
BLACK
6
CONTINUOUS
10
283.7
20
-56.6226
11
284.4
21
-56.6226
0
LINE
8
BLACK
6
CONTINUOUS
10
284.4
20
-56.6226
11
284.4
21
-58.1226
0
LINE
8
BLACK
6
CONTINUOUS
10
285.9
20
-58.1226
11
285.2
21
-58.1226
0
LINE
8
BLACK
6
CONTINUOUS
10
285.2
20
-58.1226
11
285.2
21
-56.6226
0
LINE
8
BLACK
6
CONTINUOUS
10
285.2
20
-56.6226
11
285.9
21
-56.6226
0
LINE
8
BLACK
6
CONTINUOUS
10
285.9
20
-56.6226
11
285.9
21
-58.1226
0
LINE
8
BLACK
6
CONTINUOUS
10
287.45
20
-57.1226
11
286.45
21
-57.1226
0
LINE
8
BLACK
6
CONTINUOUS
10
286.45
20
-57.1226
11
286.45
21
-56.3226
0
LINE
8
BLACK
6
CONTINUOUS
10
286.45
20
-56.3226
11
287.45
21
-56.3226
0
LINE
8
BLACK
6
CONTINUOUS
10
287.45
20
-56.3226
11
287.45
21
-57.1226
0
LINE
8
BLACK
6
CONTINUOUS
10
280.15
20
-57.1226
11
279.15
21
-57.1226
0
LINE
8
BLACK
6
CONTINUOUS
10
279.15
20
-57.1226
11
279.15
21
-56.3226
0
LINE
8
BLACK
6
CONTINUOUS
10
279.15
20
-56.3226
11
280.15
21
-56.3226
0
LINE
8
BLACK
6
CONTINUOUS
10
280.15
20
-56.3226
11
280.15
21
-57.1226
0
LINE
8
BLACK
6
CONTINUOUS
10
280.15
20
-54.9126
11
279.15
21
-54.9126
0
LINE
8
BLACK
6
CONTINUOUS
10
279.15
20
-54.9126
11
279.15
21
-54.1126
0
LINE
8
BLACK
6
CONTINUOUS
10
279.15
20
-54.1126
11
280.15
21
-54.1126
0
LINE
8
BLACK
6
CONTINUOUS
10
280.15
20
-54.1126
11
280.15
21
-54.9126
0
LINE
8
BLACK
6
CONTINUOUS
10
287.45
20
-54.9126
11
286.45
21
-54.9126
0
LINE
8
BLACK
6
CONTINUOUS
10
286.45
20
-54.9126
11
286.45
21
-54.1126
0
LINE
8
BLACK
6
CONTINUOUS
10
286.45
20
-54.1126
11
287.45
21
-54.1126
0
LINE
8
BLACK
6
CONTINUOUS
10
287.45
20
-54.1126
11
287.45
21
-54.9126
  0
ENDSEC
  0
EOF
