M48
INCH,TZ
T1C0.0276
T2C0.0390
T3C0.0394
T4C0.0430
T5C0.0472
T6C0.0579
T7C0.0591
%
G90
G05
T1
X9.5591Y-3.9291
X9.5591Y-4.2362
X9.0394Y-3.7874
X9.3465Y-3.7874
X10.5354Y-2.9646
X10.8425Y-2.9646
X3.7874Y-3.7717
X4.0945Y-3.7717
X10.3071Y-3.9488
X10.3071Y-4.2559
X2.7677Y-2.7008
X2.7677Y-3.0079
X5.2913Y-3.7835
X5.5984Y-3.7835
X7.7283Y-3.7835
X8.0354Y-3.7835
X10.4016Y-3.8071
X10.7087Y-3.8071
X8.811Y-3.9291
X8.811Y-4.2362
X8.063Y-3.9291
X8.063Y-4.2362
X3.7913Y-2.9685
X4.0984Y-2.9685
X3.0315Y-3.7717
X3.3386Y-3.7717
X11.4843Y-2.9606
X11.7913Y-2.9606
X9.7992Y-3.7874
X10.1063Y-3.7874
X7.3228Y-3.9724
X7.3228Y-4.2795
X3.5591Y-3.9882
X3.5591Y-4.2953
X3.0433Y-2.9843
X3.3504Y-2.9843
X6.0394Y-2.9724
X6.3465Y-2.9724
X8.4213Y-3.7756
X8.7283Y-3.7756
X8.2795Y-2.9724
X8.5866Y-2.9724
X4.3071Y-4.0079
X4.3071Y-4.315
X5.811Y-4.0079
X5.811Y-4.315
X4.5315Y-2.9685
X4.8386Y-2.9685
X5.2717Y-2.9685
X5.5787Y-2.9685
X9.7913Y-2.9606
X10.0984Y-2.9606
X9.0354Y-2.9606
X9.3425Y-2.9606
X11.1535Y-3.9567
X11.1535Y-4.2638
X6.5433Y-3.8071
X6.8504Y-3.8071
X7.5433Y-2.9724
X7.8504Y-2.9724
X6.563Y-3.1811
X6.563Y-3.4882
X2.811Y-3.9882
X2.811Y-4.2953
X11.1732Y-3.3583
X11.1732Y-3.6654
X5.063Y-4.0079
X5.063Y-4.315
X6.7874Y-2.9724
X7.0945Y-2.9724
X2.3465Y-3.7756
X2.6535Y-3.7756
X4.5433Y-3.7795
X4.8504Y-3.7795
X7.1811Y-3.7874
X7.4882Y-3.7874
T2
X11.5205Y-3.7
X11.5205Y-3.8
X6.5125Y-3.925
X6.6125Y-3.925
T3
X2.3391Y-2.3494
X2.3391Y-2.9203
X2.4375Y-2.9203
X2.5359Y-2.3494
X2.5359Y-2.9203
T4
X2.1102Y-3.6772
X3.637Y-2.3831
X3.637Y-2.4831
X3.637Y-2.5831
X3.637Y-2.6831
X3.637Y-2.7831
X3.637Y-2.8831
X3.637Y-2.9831
X3.637Y-3.0831
X3.637Y-3.1831
X3.637Y-3.2831
X3.637Y-3.3831
X3.637Y-3.4831
X4.237Y-2.3831
X4.237Y-2.4831
X4.237Y-2.5831
X4.237Y-2.6831
X4.237Y-2.7831
X4.237Y-2.8831
X4.237Y-2.9831
X4.237Y-3.0831
X4.237Y-3.1831
X4.237Y-3.2831
X4.237Y-3.3831
X4.237Y-3.4831
X2.1142Y-3.811
X2.1142Y-3.9173
T5
X8.4375Y-3.8927
X8.6344Y-3.9754
X10.6875Y-2.3927
X10.8844Y-2.4754
X9.9375Y-3.8927
X10.1344Y-3.9754
X6.1875Y-2.3927
X6.3844Y-2.4754
X11.8701Y-3.9469
X11.9528Y-3.75
X6.3656Y-4.2746
X6.5625Y-4.3573
X4.6875Y-3.8927
X4.8844Y-3.9754
X6.1875Y-3.8927
X6.3844Y-3.9754
X2.4375Y-3.1427
X2.6344Y-3.2254
X9.1875Y-3.8927
X9.3844Y-3.9754
X8.4375Y-2.3927
X8.6344Y-2.4754
X11.625Y-2.3927
X11.8219Y-2.4754
X4.6875Y-2.3927
X4.8844Y-2.4754
X5.4375Y-3.8927
X5.6344Y-3.9754
X9.1875Y-2.3927
X9.3844Y-2.4754
X7.6875Y-3.8927
X7.8844Y-3.9754
X5.4375Y-3.1427
X5.6344Y-3.2254
X10.7835Y-3.8937
X10.9803Y-3.9764
X6.9375Y-2.3927
X7.1344Y-2.4754
X3.9375Y-3.8927
X4.1344Y-3.9754
X7.6875Y-3.1427
X7.8844Y-3.2254
X5.4375Y-2.3927
X5.6344Y-2.4754
X9.9375Y-3.1427
X10.1344Y-3.2254
X7.6875Y-2.3927
X7.8844Y-2.4754
X3.1875Y-3.8927
X3.3844Y-3.9754
X3.9375Y-2.3927
X4.1344Y-2.4754
X3.9375Y-3.1427
X4.1344Y-3.2254
X6.9375Y-3.8927
X7.1344Y-3.9754
X4.6875Y-3.1427
X4.8844Y-3.2254
X8.4375Y-3.1427
X8.6344Y-3.2254
X6.9375Y-3.1427
X7.1344Y-3.2254
X9.9375Y-2.3927
X10.1344Y-2.4754
X3.1875Y-2.3927
X3.3844Y-2.4754
X9.1875Y-3.1427
X9.3844Y-3.2254
X2.4375Y-3.8927
X2.6344Y-3.9754
X3.1875Y-3.1427
X3.3844Y-3.2254
X10.6875Y-3.1427
X10.8844Y-3.2254
X6.1875Y-3.1427
X6.3844Y-3.2254
X2.4375Y-2.3927
X2.6344Y-2.4754
T6
X9.7875Y-3.275
X9.8391Y-3.2175
X10.0359Y-3.1978
X10.0375Y-3.175
X7.5375Y-2.525
X7.5891Y-2.4675
X7.7859Y-2.4478
X7.7875Y-2.425
X3.0375Y-4.025
X3.0891Y-3.9675
X3.2859Y-3.9478
X3.2875Y-3.925
X3.7875Y-2.525
X3.8391Y-2.4675
X4.0359Y-2.4478
X4.0375Y-2.425
X3.7875Y-3.275
X3.8391Y-3.2175
X4.0359Y-3.1978
X4.0375Y-3.175
X6.7875Y-4.025
X6.8391Y-3.9675
X7.0359Y-3.9478
X7.0375Y-3.925
X4.5375Y-3.275
X4.5891Y-3.2175
X4.7859Y-3.1978
X4.7875Y-3.175
X8.2875Y-3.275
X8.3391Y-3.2175
X8.5359Y-3.1978
X8.5375Y-3.175
X6.7875Y-3.275
X6.8391Y-3.2175
X7.0359Y-3.1978
X7.0375Y-3.175
X9.7875Y-2.525
X9.8391Y-2.4675
X10.0359Y-2.4478
X10.0375Y-2.425
X3.0375Y-2.525
X3.0891Y-2.4675
X3.2859Y-2.4478
X3.2875Y-2.425
X9.0375Y-3.275
X9.0891Y-3.2175
X9.2859Y-3.1978
X9.2875Y-3.175
X2.2875Y-4.025
X2.3391Y-3.9675
X2.5359Y-3.9478
X2.5375Y-3.925
X3.0375Y-3.275
X3.0891Y-3.2175
X3.2859Y-3.1978
X3.2875Y-3.175
X10.5375Y-3.275
X10.5891Y-3.2175
X10.7859Y-3.1978
X10.7875Y-3.175
X6.0375Y-3.275
X6.0891Y-3.2175
X6.2859Y-3.1978
X6.2875Y-3.175
X2.2875Y-2.525
X2.3391Y-2.4675
X2.5359Y-2.4478
X2.5375Y-2.425
X8.2875Y-4.025
X8.3391Y-3.9675
X8.5359Y-3.9478
X8.5375Y-3.925
X10.5375Y-2.525
X10.5891Y-2.4675
X10.7859Y-2.4478
X10.7875Y-2.425
X9.7875Y-4.025
X9.8391Y-3.9675
X10.0359Y-3.9478
X10.0375Y-3.925
X6.0375Y-2.525
X6.0891Y-2.4675
X6.2859Y-2.4478
X6.2875Y-2.425
X11.8205Y-3.6
X11.878Y-3.6516
X11.8976Y-3.8484
X11.9205Y-3.85
X6.4625Y-4.325
X6.4641Y-4.3022
X6.6609Y-4.2825
X6.7125Y-4.225
X4.5375Y-4.025
X4.5891Y-3.9675
X4.7859Y-3.9478
X4.7875Y-3.925
X6.0375Y-4.025
X6.0891Y-3.9675
X6.2859Y-3.9478
X6.2875Y-3.925
X2.2875Y-3.275
X2.3391Y-3.2175
X2.5359Y-3.1978
X2.5375Y-3.175
X9.0375Y-4.025
X9.0891Y-3.9675
X9.2859Y-3.9478
X9.2875Y-3.925
X8.2875Y-2.525
X8.3391Y-2.4675
X8.5359Y-2.4478
X8.5375Y-2.425
X11.475Y-2.525
X11.5266Y-2.4675
X11.7234Y-2.4478
X11.725Y-2.425
X4.5375Y-2.525
X4.5891Y-2.4675
X4.7859Y-2.4478
X4.7875Y-2.425
X5.2875Y-4.025
X5.3391Y-3.9675
X5.5359Y-3.9478
X5.5375Y-3.925
X9.0375Y-2.525
X9.0891Y-2.4675
X9.2859Y-2.4478
X9.2875Y-2.425
X7.5375Y-4.025
X7.5891Y-3.9675
X7.7859Y-3.9478
X7.7875Y-3.925
X5.2875Y-3.275
X5.3391Y-3.2175
X5.5359Y-3.1978
X5.5375Y-3.175
X10.6335Y-4.026
X10.685Y-3.9685
X10.8819Y-3.9488
X10.8835Y-3.926
X6.7875Y-2.525
X6.8391Y-2.4675
X7.0359Y-2.4478
X7.0375Y-2.425
X3.7875Y-4.025
X3.8391Y-3.9675
X4.0359Y-3.9478
X4.0375Y-3.925
X7.5375Y-3.275
X7.5891Y-3.2175
X7.7859Y-3.1978
X7.7875Y-3.175
X5.2875Y-2.525
X5.3391Y-2.4675
X5.5359Y-2.4478
X5.5375Y-2.425
T7
X2.217Y-2.6506G85X2.217Y-2.5994
G05
X2.658Y-2.6506G85X2.658Y-2.5994
G05
T0
M30
