G04 #@! TF.GenerationSoftware,KiCad,Pcbnew,(5.0.1)-3*
G04 #@! TF.CreationDate,2020-01-05T19:02:12+02:00*
G04 #@! TF.ProjectId,Memekeeb,4D656D656B6565622E6B696361645F70,rev?*
G04 #@! TF.SameCoordinates,Original*
G04 #@! TF.FileFunction,Legend,Bot*
G04 #@! TF.FilePolarity,Positive*
%FSLAX46Y46*%
G04 Gerber Fmt 4.6, Leading zero omitted, Abs format (unit mm)*
G04 Created by KiCad (PCBNEW (5.0.1)-3) date 01/05/20 19:02:12*
%MOMM*%
%LPD*%
G01*
G04 APERTURE LIST*
%ADD10C,0.300000*%
%ADD11C,0.200000*%
%ADD12C,0.381000*%
%ADD13C,0.120000*%
%ADD14C,0.150000*%
G04 APERTURE END LIST*
D10*
X56757142Y-99271428D02*
X55557142Y-98985714D01*
X56414285Y-98757142D01*
X55557142Y-98528571D01*
X56757142Y-98242857D01*
X55614285Y-97842857D02*
X55557142Y-97671428D01*
X55557142Y-97385714D01*
X55614285Y-97271428D01*
X55671428Y-97214285D01*
X55785714Y-97157142D01*
X55900000Y-97157142D01*
X56014285Y-97214285D01*
X56071428Y-97271428D01*
X56128571Y-97385714D01*
X56185714Y-97614285D01*
X56242857Y-97728571D01*
X56300000Y-97785714D01*
X56414285Y-97842857D01*
X56528571Y-97842857D01*
X56642857Y-97785714D01*
X56700000Y-97728571D01*
X56757142Y-97614285D01*
X56757142Y-97328571D01*
X56700000Y-97157142D01*
X56642857Y-96700000D02*
X56700000Y-96642857D01*
X56757142Y-96528571D01*
X56757142Y-96242857D01*
X56700000Y-96128571D01*
X56642857Y-96071428D01*
X56528571Y-96014285D01*
X56414285Y-96014285D01*
X56242857Y-96071428D01*
X55557142Y-96757142D01*
X55557142Y-96014285D01*
X56242857Y-95328571D02*
X56300000Y-95442857D01*
X56357142Y-95500000D01*
X56471428Y-95557142D01*
X56528571Y-95557142D01*
X56642857Y-95500000D01*
X56700000Y-95442857D01*
X56757142Y-95328571D01*
X56757142Y-95100000D01*
X56700000Y-94985714D01*
X56642857Y-94928571D01*
X56528571Y-94871428D01*
X56471428Y-94871428D01*
X56357142Y-94928571D01*
X56300000Y-94985714D01*
X56242857Y-95100000D01*
X56242857Y-95328571D01*
X56185714Y-95442857D01*
X56128571Y-95500000D01*
X56014285Y-95557142D01*
X55785714Y-95557142D01*
X55671428Y-95500000D01*
X55614285Y-95442857D01*
X55557142Y-95328571D01*
X55557142Y-95100000D01*
X55614285Y-94985714D01*
X55671428Y-94928571D01*
X55785714Y-94871428D01*
X56014285Y-94871428D01*
X56128571Y-94928571D01*
X56185714Y-94985714D01*
X56242857Y-95100000D01*
X55557142Y-93728571D02*
X55557142Y-94414285D01*
X55557142Y-94071428D02*
X56757142Y-94071428D01*
X56585714Y-94185714D01*
X56471428Y-94300000D01*
X56414285Y-94414285D01*
X56642857Y-93271428D02*
X56700000Y-93214285D01*
X56757142Y-93100000D01*
X56757142Y-92814285D01*
X56700000Y-92700000D01*
X56642857Y-92642857D01*
X56528571Y-92585714D01*
X56414285Y-92585714D01*
X56242857Y-92642857D01*
X55557142Y-93328571D01*
X55557142Y-92585714D01*
D11*
G04 #@! TO.C,D1*
X69100000Y-69700000D02*
X69100000Y-75500000D01*
X71500000Y-69700000D02*
X69100000Y-69700000D01*
X71500000Y-75500000D02*
X71500000Y-69700000D01*
X71500000Y-75425000D02*
X69100000Y-75425000D01*
X71500000Y-75300000D02*
X69100000Y-75300000D01*
X69100000Y-75525000D02*
X71500000Y-75525000D01*
X71500000Y-75125000D02*
X69100000Y-75125000D01*
X71500000Y-74950000D02*
X69100000Y-74950000D01*
X71500000Y-74775000D02*
X69100000Y-74775000D01*
G04 #@! TO.C,D2*
X84000000Y-74600000D02*
X78200000Y-74600000D01*
X84000000Y-77000000D02*
X84000000Y-74600000D01*
X78200000Y-77000000D02*
X84000000Y-77000000D01*
X78275000Y-77000000D02*
X78275000Y-74600000D01*
X78400000Y-77000000D02*
X78400000Y-74600000D01*
X78175000Y-74600000D02*
X78175000Y-77000000D01*
X78575000Y-77000000D02*
X78575000Y-74600000D01*
X78750000Y-77000000D02*
X78750000Y-74600000D01*
X78925000Y-77000000D02*
X78925000Y-74600000D01*
G04 #@! TO.C,D3*
X103000000Y-74200000D02*
X97200000Y-74200000D01*
X103000000Y-76600000D02*
X103000000Y-74200000D01*
X97200000Y-76600000D02*
X103000000Y-76600000D01*
X97275000Y-76600000D02*
X97275000Y-74200000D01*
X97400000Y-76600000D02*
X97400000Y-74200000D01*
X97175000Y-74200000D02*
X97175000Y-76600000D01*
X97575000Y-76600000D02*
X97575000Y-74200000D01*
X97750000Y-76600000D02*
X97750000Y-74200000D01*
X97925000Y-76600000D02*
X97925000Y-74200000D01*
G04 #@! TO.C,D4*
X121800000Y-74200000D02*
X116000000Y-74200000D01*
X121800000Y-76600000D02*
X121800000Y-74200000D01*
X116000000Y-76600000D02*
X121800000Y-76600000D01*
X116075000Y-76600000D02*
X116075000Y-74200000D01*
X116200000Y-76600000D02*
X116200000Y-74200000D01*
X115975000Y-74200000D02*
X115975000Y-76600000D01*
X116375000Y-76600000D02*
X116375000Y-74200000D01*
X116550000Y-76600000D02*
X116550000Y-74200000D01*
X116725000Y-76600000D02*
X116725000Y-74200000D01*
G04 #@! TO.C,D5*
X140600000Y-74200000D02*
X134800000Y-74200000D01*
X140600000Y-76600000D02*
X140600000Y-74200000D01*
X134800000Y-76600000D02*
X140600000Y-76600000D01*
X134875000Y-76600000D02*
X134875000Y-74200000D01*
X135000000Y-76600000D02*
X135000000Y-74200000D01*
X134775000Y-74200000D02*
X134775000Y-76600000D01*
X135175000Y-76600000D02*
X135175000Y-74200000D01*
X135350000Y-76600000D02*
X135350000Y-74200000D01*
X135525000Y-76600000D02*
X135525000Y-74200000D01*
G04 #@! TO.C,D6*
X155025000Y-76700000D02*
X155025000Y-74300000D01*
X154850000Y-76700000D02*
X154850000Y-74300000D01*
X154675000Y-76700000D02*
X154675000Y-74300000D01*
X154275000Y-74300000D02*
X154275000Y-76700000D01*
X154500000Y-76700000D02*
X154500000Y-74300000D01*
X154375000Y-76700000D02*
X154375000Y-74300000D01*
X154300000Y-76700000D02*
X160100000Y-76700000D01*
X160100000Y-76700000D02*
X160100000Y-74300000D01*
X160100000Y-74300000D02*
X154300000Y-74300000D01*
G04 #@! TO.C,D7*
X174025000Y-76700000D02*
X174025000Y-74300000D01*
X173850000Y-76700000D02*
X173850000Y-74300000D01*
X173675000Y-76700000D02*
X173675000Y-74300000D01*
X173275000Y-74300000D02*
X173275000Y-76700000D01*
X173500000Y-76700000D02*
X173500000Y-74300000D01*
X173375000Y-76700000D02*
X173375000Y-74300000D01*
X173300000Y-76700000D02*
X179100000Y-76700000D01*
X179100000Y-76700000D02*
X179100000Y-74300000D01*
X179100000Y-74300000D02*
X173300000Y-74300000D01*
G04 #@! TO.C,D8*
X193225000Y-76700000D02*
X193225000Y-74300000D01*
X193050000Y-76700000D02*
X193050000Y-74300000D01*
X192875000Y-76700000D02*
X192875000Y-74300000D01*
X192475000Y-74300000D02*
X192475000Y-76700000D01*
X192700000Y-76700000D02*
X192700000Y-74300000D01*
X192575000Y-76700000D02*
X192575000Y-74300000D01*
X192500000Y-76700000D02*
X198300000Y-76700000D01*
X198300000Y-76700000D02*
X198300000Y-74300000D01*
X198300000Y-74300000D02*
X192500000Y-74300000D01*
G04 #@! TO.C,D9*
X211925000Y-76700000D02*
X211925000Y-74300000D01*
X211750000Y-76700000D02*
X211750000Y-74300000D01*
X211575000Y-76700000D02*
X211575000Y-74300000D01*
X211175000Y-74300000D02*
X211175000Y-76700000D01*
X211400000Y-76700000D02*
X211400000Y-74300000D01*
X211275000Y-76700000D02*
X211275000Y-74300000D01*
X211200000Y-76700000D02*
X217000000Y-76700000D01*
X217000000Y-76700000D02*
X217000000Y-74300000D01*
X217000000Y-74300000D02*
X211200000Y-74300000D01*
G04 #@! TO.C,D10*
X231125000Y-76400000D02*
X231125000Y-74000000D01*
X230950000Y-76400000D02*
X230950000Y-74000000D01*
X230775000Y-76400000D02*
X230775000Y-74000000D01*
X230375000Y-74000000D02*
X230375000Y-76400000D01*
X230600000Y-76400000D02*
X230600000Y-74000000D01*
X230475000Y-76400000D02*
X230475000Y-74000000D01*
X230400000Y-76400000D02*
X236200000Y-76400000D01*
X236200000Y-76400000D02*
X236200000Y-74000000D01*
X236200000Y-74000000D02*
X230400000Y-74000000D01*
G04 #@! TO.C,D11*
X250325000Y-76400000D02*
X250325000Y-74000000D01*
X250150000Y-76400000D02*
X250150000Y-74000000D01*
X249975000Y-76400000D02*
X249975000Y-74000000D01*
X249575000Y-74000000D02*
X249575000Y-76400000D01*
X249800000Y-76400000D02*
X249800000Y-74000000D01*
X249675000Y-76400000D02*
X249675000Y-74000000D01*
X249600000Y-76400000D02*
X255400000Y-76400000D01*
X255400000Y-76400000D02*
X255400000Y-74000000D01*
X255400000Y-74000000D02*
X249600000Y-74000000D01*
G04 #@! TO.C,D12*
X269225000Y-76500000D02*
X269225000Y-74100000D01*
X269050000Y-76500000D02*
X269050000Y-74100000D01*
X268875000Y-76500000D02*
X268875000Y-74100000D01*
X268475000Y-74100000D02*
X268475000Y-76500000D01*
X268700000Y-76500000D02*
X268700000Y-74100000D01*
X268575000Y-76500000D02*
X268575000Y-74100000D01*
X268500000Y-76500000D02*
X274300000Y-76500000D01*
X274300000Y-76500000D02*
X274300000Y-74100000D01*
X274300000Y-74100000D02*
X268500000Y-74100000D01*
G04 #@! TO.C,D13*
X293325000Y-76400000D02*
X293325000Y-74000000D01*
X293150000Y-76400000D02*
X293150000Y-74000000D01*
X292975000Y-76400000D02*
X292975000Y-74000000D01*
X292575000Y-74000000D02*
X292575000Y-76400000D01*
X292800000Y-76400000D02*
X292800000Y-74000000D01*
X292675000Y-76400000D02*
X292675000Y-74000000D01*
X292600000Y-76400000D02*
X298400000Y-76400000D01*
X298400000Y-76400000D02*
X298400000Y-74000000D01*
X298400000Y-74000000D02*
X292600000Y-74000000D01*
G04 #@! TO.C,D14*
X65775000Y-94700000D02*
X65775000Y-97100000D01*
X65950000Y-94700000D02*
X65950000Y-97100000D01*
X66125000Y-94700000D02*
X66125000Y-97100000D01*
X66525000Y-97100000D02*
X66525000Y-94700000D01*
X66300000Y-94700000D02*
X66300000Y-97100000D01*
X66425000Y-94700000D02*
X66425000Y-97100000D01*
X66500000Y-94700000D02*
X60700000Y-94700000D01*
X60700000Y-94700000D02*
X60700000Y-97100000D01*
X60700000Y-97100000D02*
X66500000Y-97100000D01*
G04 #@! TO.C,D15*
X78625000Y-97000000D02*
X78625000Y-94600000D01*
X78450000Y-97000000D02*
X78450000Y-94600000D01*
X78275000Y-97000000D02*
X78275000Y-94600000D01*
X77875000Y-94600000D02*
X77875000Y-97000000D01*
X78100000Y-97000000D02*
X78100000Y-94600000D01*
X77975000Y-97000000D02*
X77975000Y-94600000D01*
X77900000Y-97000000D02*
X83700000Y-97000000D01*
X83700000Y-97000000D02*
X83700000Y-94600000D01*
X83700000Y-94600000D02*
X77900000Y-94600000D01*
G04 #@! TO.C,D16*
X97825000Y-97000000D02*
X97825000Y-94600000D01*
X97650000Y-97000000D02*
X97650000Y-94600000D01*
X97475000Y-97000000D02*
X97475000Y-94600000D01*
X97075000Y-94600000D02*
X97075000Y-97000000D01*
X97300000Y-97000000D02*
X97300000Y-94600000D01*
X97175000Y-97000000D02*
X97175000Y-94600000D01*
X97100000Y-97000000D02*
X102900000Y-97000000D01*
X102900000Y-97000000D02*
X102900000Y-94600000D01*
X102900000Y-94600000D02*
X97100000Y-94600000D01*
G04 #@! TO.C,D17*
X117025000Y-97200000D02*
X117025000Y-94800000D01*
X116850000Y-97200000D02*
X116850000Y-94800000D01*
X116675000Y-97200000D02*
X116675000Y-94800000D01*
X116275000Y-94800000D02*
X116275000Y-97200000D01*
X116500000Y-97200000D02*
X116500000Y-94800000D01*
X116375000Y-97200000D02*
X116375000Y-94800000D01*
X116300000Y-97200000D02*
X122100000Y-97200000D01*
X122100000Y-97200000D02*
X122100000Y-94800000D01*
X122100000Y-94800000D02*
X116300000Y-94800000D01*
G04 #@! TO.C,D18*
X136025000Y-97300000D02*
X136025000Y-94900000D01*
X135850000Y-97300000D02*
X135850000Y-94900000D01*
X135675000Y-97300000D02*
X135675000Y-94900000D01*
X135275000Y-94900000D02*
X135275000Y-97300000D01*
X135500000Y-97300000D02*
X135500000Y-94900000D01*
X135375000Y-97300000D02*
X135375000Y-94900000D01*
X135300000Y-97300000D02*
X141100000Y-97300000D01*
X141100000Y-97300000D02*
X141100000Y-94900000D01*
X141100000Y-94900000D02*
X135300000Y-94900000D01*
G04 #@! TO.C,D19*
X167900000Y-86975000D02*
X165500000Y-86975000D01*
X167900000Y-87150000D02*
X165500000Y-87150000D01*
X167900000Y-87325000D02*
X165500000Y-87325000D01*
X165500000Y-87725000D02*
X167900000Y-87725000D01*
X167900000Y-87500000D02*
X165500000Y-87500000D01*
X167900000Y-87625000D02*
X165500000Y-87625000D01*
X167900000Y-87700000D02*
X167900000Y-81900000D01*
X167900000Y-81900000D02*
X165500000Y-81900000D01*
X165500000Y-81900000D02*
X165500000Y-87700000D01*
G04 #@! TO.C,D20*
X184025000Y-97400000D02*
X184025000Y-95000000D01*
X183850000Y-97400000D02*
X183850000Y-95000000D01*
X183675000Y-97400000D02*
X183675000Y-95000000D01*
X183275000Y-95000000D02*
X183275000Y-97400000D01*
X183500000Y-97400000D02*
X183500000Y-95000000D01*
X183375000Y-97400000D02*
X183375000Y-95000000D01*
X183300000Y-97400000D02*
X189100000Y-97400000D01*
X189100000Y-97400000D02*
X189100000Y-95000000D01*
X189100000Y-95000000D02*
X183300000Y-95000000D01*
G04 #@! TO.C,D21*
X203000000Y-94900000D02*
X197200000Y-94900000D01*
X203000000Y-97300000D02*
X203000000Y-94900000D01*
X197200000Y-97300000D02*
X203000000Y-97300000D01*
X197275000Y-97300000D02*
X197275000Y-94900000D01*
X197400000Y-97300000D02*
X197400000Y-94900000D01*
X197175000Y-94900000D02*
X197175000Y-97300000D01*
X197575000Y-97300000D02*
X197575000Y-94900000D01*
X197750000Y-97300000D02*
X197750000Y-94900000D01*
X197925000Y-97300000D02*
X197925000Y-94900000D01*
G04 #@! TO.C,D22*
X220600000Y-94700000D02*
X214800000Y-94700000D01*
X220600000Y-97100000D02*
X220600000Y-94700000D01*
X214800000Y-97100000D02*
X220600000Y-97100000D01*
X214875000Y-97100000D02*
X214875000Y-94700000D01*
X215000000Y-97100000D02*
X215000000Y-94700000D01*
X214775000Y-94700000D02*
X214775000Y-97100000D01*
X215175000Y-97100000D02*
X215175000Y-94700000D01*
X215350000Y-97100000D02*
X215350000Y-94700000D01*
X215525000Y-97100000D02*
X215525000Y-94700000D01*
G04 #@! TO.C,D23*
X236300000Y-95000000D02*
X230500000Y-95000000D01*
X236300000Y-97400000D02*
X236300000Y-95000000D01*
X230500000Y-97400000D02*
X236300000Y-97400000D01*
X230575000Y-97400000D02*
X230575000Y-95000000D01*
X230700000Y-97400000D02*
X230700000Y-95000000D01*
X230475000Y-95000000D02*
X230475000Y-97400000D01*
X230875000Y-97400000D02*
X230875000Y-95000000D01*
X231050000Y-97400000D02*
X231050000Y-95000000D01*
X231225000Y-97400000D02*
X231225000Y-95000000D01*
G04 #@! TO.C,D24*
X255600000Y-95000000D02*
X249800000Y-95000000D01*
X255600000Y-97400000D02*
X255600000Y-95000000D01*
X249800000Y-97400000D02*
X255600000Y-97400000D01*
X249875000Y-97400000D02*
X249875000Y-95000000D01*
X250000000Y-97400000D02*
X250000000Y-95000000D01*
X249775000Y-95000000D02*
X249775000Y-97400000D01*
X250175000Y-97400000D02*
X250175000Y-95000000D01*
X250350000Y-97400000D02*
X250350000Y-95000000D01*
X250525000Y-97400000D02*
X250525000Y-95000000D01*
G04 #@! TO.C,D25*
X270900000Y-95500000D02*
X265100000Y-95500000D01*
X270900000Y-97900000D02*
X270900000Y-95500000D01*
X265100000Y-97900000D02*
X270900000Y-97900000D01*
X265175000Y-97900000D02*
X265175000Y-95500000D01*
X265300000Y-97900000D02*
X265300000Y-95500000D01*
X265075000Y-95500000D02*
X265075000Y-97900000D01*
X265475000Y-97900000D02*
X265475000Y-95500000D01*
X265650000Y-97900000D02*
X265650000Y-95500000D01*
X265825000Y-97900000D02*
X265825000Y-95500000D01*
G04 #@! TO.C,D27*
X70200000Y-102400000D02*
X70200000Y-108200000D01*
X72600000Y-102400000D02*
X70200000Y-102400000D01*
X72600000Y-108200000D02*
X72600000Y-102400000D01*
X72600000Y-108125000D02*
X70200000Y-108125000D01*
X72600000Y-108000000D02*
X70200000Y-108000000D01*
X70200000Y-108225000D02*
X72600000Y-108225000D01*
X72600000Y-107825000D02*
X70200000Y-107825000D01*
X72600000Y-107650000D02*
X70200000Y-107650000D01*
X72600000Y-107475000D02*
X70200000Y-107475000D01*
G04 #@! TO.C,D28*
X89200000Y-102400000D02*
X89200000Y-108200000D01*
X91600000Y-102400000D02*
X89200000Y-102400000D01*
X91600000Y-108200000D02*
X91600000Y-102400000D01*
X91600000Y-108125000D02*
X89200000Y-108125000D01*
X91600000Y-108000000D02*
X89200000Y-108000000D01*
X89200000Y-108225000D02*
X91600000Y-108225000D01*
X91600000Y-107825000D02*
X89200000Y-107825000D01*
X91600000Y-107650000D02*
X89200000Y-107650000D01*
X91600000Y-107475000D02*
X89200000Y-107475000D01*
G04 #@! TO.C,D29*
X108200000Y-102900000D02*
X108200000Y-108700000D01*
X110600000Y-102900000D02*
X108200000Y-102900000D01*
X110600000Y-108700000D02*
X110600000Y-102900000D01*
X110600000Y-108625000D02*
X108200000Y-108625000D01*
X110600000Y-108500000D02*
X108200000Y-108500000D01*
X108200000Y-108725000D02*
X110600000Y-108725000D01*
X110600000Y-108325000D02*
X108200000Y-108325000D01*
X110600000Y-108150000D02*
X108200000Y-108150000D01*
X110600000Y-107975000D02*
X108200000Y-107975000D01*
G04 #@! TO.C,D30*
X127400000Y-102900000D02*
X127400000Y-108700000D01*
X129800000Y-102900000D02*
X127400000Y-102900000D01*
X129800000Y-108700000D02*
X129800000Y-102900000D01*
X129800000Y-108625000D02*
X127400000Y-108625000D01*
X129800000Y-108500000D02*
X127400000Y-108500000D01*
X127400000Y-108725000D02*
X129800000Y-108725000D01*
X129800000Y-108325000D02*
X127400000Y-108325000D01*
X129800000Y-108150000D02*
X127400000Y-108150000D01*
X129800000Y-107975000D02*
X127400000Y-107975000D01*
G04 #@! TO.C,D31*
X146400000Y-102900000D02*
X146400000Y-108700000D01*
X148800000Y-102900000D02*
X146400000Y-102900000D01*
X148800000Y-108700000D02*
X148800000Y-102900000D01*
X148800000Y-108625000D02*
X146400000Y-108625000D01*
X148800000Y-108500000D02*
X146400000Y-108500000D01*
X146400000Y-108725000D02*
X148800000Y-108725000D01*
X148800000Y-108325000D02*
X146400000Y-108325000D01*
X148800000Y-108150000D02*
X146400000Y-108150000D01*
X148800000Y-107975000D02*
X146400000Y-107975000D01*
G04 #@! TO.C,D32*
X172900000Y-95500000D02*
X167100000Y-95500000D01*
X172900000Y-97900000D02*
X172900000Y-95500000D01*
X167100000Y-97900000D02*
X172900000Y-97900000D01*
X167175000Y-97900000D02*
X167175000Y-95500000D01*
X167300000Y-97900000D02*
X167300000Y-95500000D01*
X167075000Y-95500000D02*
X167075000Y-97900000D01*
X167475000Y-97900000D02*
X167475000Y-95500000D01*
X167650000Y-97900000D02*
X167650000Y-95500000D01*
X167825000Y-97900000D02*
X167825000Y-95500000D01*
G04 #@! TO.C,D33*
X184800000Y-102000000D02*
X184800000Y-107800000D01*
X187200000Y-102000000D02*
X184800000Y-102000000D01*
X187200000Y-107800000D02*
X187200000Y-102000000D01*
X187200000Y-107725000D02*
X184800000Y-107725000D01*
X187200000Y-107600000D02*
X184800000Y-107600000D01*
X184800000Y-107825000D02*
X187200000Y-107825000D01*
X187200000Y-107425000D02*
X184800000Y-107425000D01*
X187200000Y-107250000D02*
X184800000Y-107250000D01*
X187200000Y-107075000D02*
X184800000Y-107075000D01*
G04 #@! TO.C,D34*
X203600000Y-100900000D02*
X203600000Y-106700000D01*
X206000000Y-100900000D02*
X203600000Y-100900000D01*
X206000000Y-106700000D02*
X206000000Y-100900000D01*
X206000000Y-106625000D02*
X203600000Y-106625000D01*
X206000000Y-106500000D02*
X203600000Y-106500000D01*
X203600000Y-106725000D02*
X206000000Y-106725000D01*
X206000000Y-106325000D02*
X203600000Y-106325000D01*
X206000000Y-106150000D02*
X203600000Y-106150000D01*
X206000000Y-105975000D02*
X203600000Y-105975000D01*
G04 #@! TO.C,D35*
X222600000Y-100900000D02*
X222600000Y-106700000D01*
X225000000Y-100900000D02*
X222600000Y-100900000D01*
X225000000Y-106700000D02*
X225000000Y-100900000D01*
X225000000Y-106625000D02*
X222600000Y-106625000D01*
X225000000Y-106500000D02*
X222600000Y-106500000D01*
X222600000Y-106725000D02*
X225000000Y-106725000D01*
X225000000Y-106325000D02*
X222600000Y-106325000D01*
X225000000Y-106150000D02*
X222600000Y-106150000D01*
X225000000Y-105975000D02*
X222600000Y-105975000D01*
G04 #@! TO.C,D36*
X244000000Y-105975000D02*
X241600000Y-105975000D01*
X244000000Y-106150000D02*
X241600000Y-106150000D01*
X244000000Y-106325000D02*
X241600000Y-106325000D01*
X241600000Y-106725000D02*
X244000000Y-106725000D01*
X244000000Y-106500000D02*
X241600000Y-106500000D01*
X244000000Y-106625000D02*
X241600000Y-106625000D01*
X244000000Y-106700000D02*
X244000000Y-100900000D01*
X244000000Y-100900000D02*
X241600000Y-100900000D01*
X241600000Y-100900000D02*
X241600000Y-106700000D01*
G04 #@! TO.C,D37*
X260600000Y-101925000D02*
X263000000Y-101925000D01*
X260600000Y-101750000D02*
X263000000Y-101750000D01*
X260600000Y-101575000D02*
X263000000Y-101575000D01*
X263000000Y-101175000D02*
X260600000Y-101175000D01*
X260600000Y-101400000D02*
X263000000Y-101400000D01*
X260600000Y-101275000D02*
X263000000Y-101275000D01*
X260600000Y-101200000D02*
X260600000Y-107000000D01*
X260600000Y-107000000D02*
X263000000Y-107000000D01*
X263000000Y-107000000D02*
X263000000Y-101200000D01*
G04 #@! TO.C,D_1.25u1*
X282100000Y-102125000D02*
X284500000Y-102125000D01*
X282100000Y-101950000D02*
X284500000Y-101950000D01*
X282100000Y-101775000D02*
X284500000Y-101775000D01*
X284500000Y-101375000D02*
X282100000Y-101375000D01*
X282100000Y-101600000D02*
X284500000Y-101600000D01*
X282100000Y-101475000D02*
X284500000Y-101475000D01*
X282100000Y-101400000D02*
X282100000Y-107200000D01*
X282100000Y-107200000D02*
X284500000Y-107200000D01*
X284500000Y-107200000D02*
X284500000Y-101400000D01*
D12*
G04 #@! TO.C,MCU_Pro_Micr0*
X108890000Y-59260000D02*
X91110000Y-59260000D01*
X91110000Y-59260000D02*
X91110000Y-89740000D01*
X91110000Y-89740000D02*
X108890000Y-89740000D01*
X108890000Y-89740000D02*
X108890000Y-59260000D01*
X93650000Y-59260000D02*
X93650000Y-61800000D01*
X93650000Y-61800000D02*
X91110000Y-61800000D01*
D13*
G04 #@! TO.C,SW_RST1*
X149900000Y-75100000D02*
X150350000Y-75550000D01*
X149900000Y-78500000D02*
X150350000Y-78050000D01*
X145300000Y-78500000D02*
X144850000Y-78050000D01*
X145300000Y-75100000D02*
X144850000Y-75550000D01*
X146600000Y-79550000D02*
X148600000Y-79550000D01*
X150350000Y-75550000D02*
X150350000Y-78050000D01*
X146600000Y-74050000D02*
X148600000Y-74050000D01*
X144850000Y-75550000D02*
X144850000Y-78050000D01*
D11*
G04 #@! TO.C,D_ISOENTR1*
X282600000Y-86925000D02*
X285000000Y-86925000D01*
X282600000Y-86750000D02*
X285000000Y-86750000D01*
X282600000Y-86575000D02*
X285000000Y-86575000D01*
X285000000Y-86175000D02*
X282600000Y-86175000D01*
X282600000Y-86400000D02*
X285000000Y-86400000D01*
X282600000Y-86275000D02*
X285000000Y-86275000D01*
X282600000Y-86200000D02*
X282600000Y-92000000D01*
X282600000Y-92000000D02*
X285000000Y-92000000D01*
X285000000Y-92000000D02*
X285000000Y-86200000D01*
G04 #@! TO.C,D1*
D14*
X68736904Y-71909523D02*
X67936904Y-71909523D01*
X67936904Y-72100000D01*
X67975000Y-72214285D01*
X68051190Y-72290476D01*
X68127380Y-72328571D01*
X68279761Y-72366666D01*
X68394047Y-72366666D01*
X68546428Y-72328571D01*
X68622619Y-72290476D01*
X68698809Y-72214285D01*
X68736904Y-72100000D01*
X68736904Y-71909523D01*
X68736904Y-73128571D02*
X68736904Y-72671428D01*
X68736904Y-72900000D02*
X67936904Y-72900000D01*
X68051190Y-72823809D01*
X68127380Y-72747619D01*
X68165476Y-72671428D01*
G04 #@! TO.C,D2*
X81790476Y-74236904D02*
X81790476Y-73436904D01*
X81600000Y-73436904D01*
X81485714Y-73475000D01*
X81409523Y-73551190D01*
X81371428Y-73627380D01*
X81333333Y-73779761D01*
X81333333Y-73894047D01*
X81371428Y-74046428D01*
X81409523Y-74122619D01*
X81485714Y-74198809D01*
X81600000Y-74236904D01*
X81790476Y-74236904D01*
X81028571Y-73513095D02*
X80990476Y-73475000D01*
X80914285Y-73436904D01*
X80723809Y-73436904D01*
X80647619Y-73475000D01*
X80609523Y-73513095D01*
X80571428Y-73589285D01*
X80571428Y-73665476D01*
X80609523Y-73779761D01*
X81066666Y-74236904D01*
X80571428Y-74236904D01*
G04 #@! TO.C,D3*
X100790476Y-73836904D02*
X100790476Y-73036904D01*
X100600000Y-73036904D01*
X100485714Y-73075000D01*
X100409523Y-73151190D01*
X100371428Y-73227380D01*
X100333333Y-73379761D01*
X100333333Y-73494047D01*
X100371428Y-73646428D01*
X100409523Y-73722619D01*
X100485714Y-73798809D01*
X100600000Y-73836904D01*
X100790476Y-73836904D01*
X100066666Y-73036904D02*
X99571428Y-73036904D01*
X99838095Y-73341666D01*
X99723809Y-73341666D01*
X99647619Y-73379761D01*
X99609523Y-73417857D01*
X99571428Y-73494047D01*
X99571428Y-73684523D01*
X99609523Y-73760714D01*
X99647619Y-73798809D01*
X99723809Y-73836904D01*
X99952380Y-73836904D01*
X100028571Y-73798809D01*
X100066666Y-73760714D01*
G04 #@! TO.C,D4*
X119590476Y-73836904D02*
X119590476Y-73036904D01*
X119400000Y-73036904D01*
X119285714Y-73075000D01*
X119209523Y-73151190D01*
X119171428Y-73227380D01*
X119133333Y-73379761D01*
X119133333Y-73494047D01*
X119171428Y-73646428D01*
X119209523Y-73722619D01*
X119285714Y-73798809D01*
X119400000Y-73836904D01*
X119590476Y-73836904D01*
X118447619Y-73303571D02*
X118447619Y-73836904D01*
X118638095Y-72998809D02*
X118828571Y-73570238D01*
X118333333Y-73570238D01*
G04 #@! TO.C,D5*
X138390476Y-73836904D02*
X138390476Y-73036904D01*
X138200000Y-73036904D01*
X138085714Y-73075000D01*
X138009523Y-73151190D01*
X137971428Y-73227380D01*
X137933333Y-73379761D01*
X137933333Y-73494047D01*
X137971428Y-73646428D01*
X138009523Y-73722619D01*
X138085714Y-73798809D01*
X138200000Y-73836904D01*
X138390476Y-73836904D01*
X137209523Y-73036904D02*
X137590476Y-73036904D01*
X137628571Y-73417857D01*
X137590476Y-73379761D01*
X137514285Y-73341666D01*
X137323809Y-73341666D01*
X137247619Y-73379761D01*
X137209523Y-73417857D01*
X137171428Y-73494047D01*
X137171428Y-73684523D01*
X137209523Y-73760714D01*
X137247619Y-73798809D01*
X137323809Y-73836904D01*
X137514285Y-73836904D01*
X137590476Y-73798809D01*
X137628571Y-73760714D01*
G04 #@! TO.C,D6*
X157890476Y-73936904D02*
X157890476Y-73136904D01*
X157700000Y-73136904D01*
X157585714Y-73175000D01*
X157509523Y-73251190D01*
X157471428Y-73327380D01*
X157433333Y-73479761D01*
X157433333Y-73594047D01*
X157471428Y-73746428D01*
X157509523Y-73822619D01*
X157585714Y-73898809D01*
X157700000Y-73936904D01*
X157890476Y-73936904D01*
X156747619Y-73136904D02*
X156900000Y-73136904D01*
X156976190Y-73175000D01*
X157014285Y-73213095D01*
X157090476Y-73327380D01*
X157128571Y-73479761D01*
X157128571Y-73784523D01*
X157090476Y-73860714D01*
X157052380Y-73898809D01*
X156976190Y-73936904D01*
X156823809Y-73936904D01*
X156747619Y-73898809D01*
X156709523Y-73860714D01*
X156671428Y-73784523D01*
X156671428Y-73594047D01*
X156709523Y-73517857D01*
X156747619Y-73479761D01*
X156823809Y-73441666D01*
X156976190Y-73441666D01*
X157052380Y-73479761D01*
X157090476Y-73517857D01*
X157128571Y-73594047D01*
G04 #@! TO.C,D7*
X176890476Y-73936904D02*
X176890476Y-73136904D01*
X176700000Y-73136904D01*
X176585714Y-73175000D01*
X176509523Y-73251190D01*
X176471428Y-73327380D01*
X176433333Y-73479761D01*
X176433333Y-73594047D01*
X176471428Y-73746428D01*
X176509523Y-73822619D01*
X176585714Y-73898809D01*
X176700000Y-73936904D01*
X176890476Y-73936904D01*
X176166666Y-73136904D02*
X175633333Y-73136904D01*
X175976190Y-73936904D01*
G04 #@! TO.C,D8*
X196090476Y-73936904D02*
X196090476Y-73136904D01*
X195900000Y-73136904D01*
X195785714Y-73175000D01*
X195709523Y-73251190D01*
X195671428Y-73327380D01*
X195633333Y-73479761D01*
X195633333Y-73594047D01*
X195671428Y-73746428D01*
X195709523Y-73822619D01*
X195785714Y-73898809D01*
X195900000Y-73936904D01*
X196090476Y-73936904D01*
X195176190Y-73479761D02*
X195252380Y-73441666D01*
X195290476Y-73403571D01*
X195328571Y-73327380D01*
X195328571Y-73289285D01*
X195290476Y-73213095D01*
X195252380Y-73175000D01*
X195176190Y-73136904D01*
X195023809Y-73136904D01*
X194947619Y-73175000D01*
X194909523Y-73213095D01*
X194871428Y-73289285D01*
X194871428Y-73327380D01*
X194909523Y-73403571D01*
X194947619Y-73441666D01*
X195023809Y-73479761D01*
X195176190Y-73479761D01*
X195252380Y-73517857D01*
X195290476Y-73555952D01*
X195328571Y-73632142D01*
X195328571Y-73784523D01*
X195290476Y-73860714D01*
X195252380Y-73898809D01*
X195176190Y-73936904D01*
X195023809Y-73936904D01*
X194947619Y-73898809D01*
X194909523Y-73860714D01*
X194871428Y-73784523D01*
X194871428Y-73632142D01*
X194909523Y-73555952D01*
X194947619Y-73517857D01*
X195023809Y-73479761D01*
G04 #@! TO.C,D9*
X214790476Y-73936904D02*
X214790476Y-73136904D01*
X214600000Y-73136904D01*
X214485714Y-73175000D01*
X214409523Y-73251190D01*
X214371428Y-73327380D01*
X214333333Y-73479761D01*
X214333333Y-73594047D01*
X214371428Y-73746428D01*
X214409523Y-73822619D01*
X214485714Y-73898809D01*
X214600000Y-73936904D01*
X214790476Y-73936904D01*
X213952380Y-73936904D02*
X213800000Y-73936904D01*
X213723809Y-73898809D01*
X213685714Y-73860714D01*
X213609523Y-73746428D01*
X213571428Y-73594047D01*
X213571428Y-73289285D01*
X213609523Y-73213095D01*
X213647619Y-73175000D01*
X213723809Y-73136904D01*
X213876190Y-73136904D01*
X213952380Y-73175000D01*
X213990476Y-73213095D01*
X214028571Y-73289285D01*
X214028571Y-73479761D01*
X213990476Y-73555952D01*
X213952380Y-73594047D01*
X213876190Y-73632142D01*
X213723809Y-73632142D01*
X213647619Y-73594047D01*
X213609523Y-73555952D01*
X213571428Y-73479761D01*
G04 #@! TO.C,D10*
X234371428Y-73636904D02*
X234371428Y-72836904D01*
X234180952Y-72836904D01*
X234066666Y-72875000D01*
X233990476Y-72951190D01*
X233952380Y-73027380D01*
X233914285Y-73179761D01*
X233914285Y-73294047D01*
X233952380Y-73446428D01*
X233990476Y-73522619D01*
X234066666Y-73598809D01*
X234180952Y-73636904D01*
X234371428Y-73636904D01*
X233152380Y-73636904D02*
X233609523Y-73636904D01*
X233380952Y-73636904D02*
X233380952Y-72836904D01*
X233457142Y-72951190D01*
X233533333Y-73027380D01*
X233609523Y-73065476D01*
X232657142Y-72836904D02*
X232580952Y-72836904D01*
X232504761Y-72875000D01*
X232466666Y-72913095D01*
X232428571Y-72989285D01*
X232390476Y-73141666D01*
X232390476Y-73332142D01*
X232428571Y-73484523D01*
X232466666Y-73560714D01*
X232504761Y-73598809D01*
X232580952Y-73636904D01*
X232657142Y-73636904D01*
X232733333Y-73598809D01*
X232771428Y-73560714D01*
X232809523Y-73484523D01*
X232847619Y-73332142D01*
X232847619Y-73141666D01*
X232809523Y-72989285D01*
X232771428Y-72913095D01*
X232733333Y-72875000D01*
X232657142Y-72836904D01*
G04 #@! TO.C,D11*
X253571428Y-73636904D02*
X253571428Y-72836904D01*
X253380952Y-72836904D01*
X253266666Y-72875000D01*
X253190476Y-72951190D01*
X253152380Y-73027380D01*
X253114285Y-73179761D01*
X253114285Y-73294047D01*
X253152380Y-73446428D01*
X253190476Y-73522619D01*
X253266666Y-73598809D01*
X253380952Y-73636904D01*
X253571428Y-73636904D01*
X252352380Y-73636904D02*
X252809523Y-73636904D01*
X252580952Y-73636904D02*
X252580952Y-72836904D01*
X252657142Y-72951190D01*
X252733333Y-73027380D01*
X252809523Y-73065476D01*
X251590476Y-73636904D02*
X252047619Y-73636904D01*
X251819047Y-73636904D02*
X251819047Y-72836904D01*
X251895238Y-72951190D01*
X251971428Y-73027380D01*
X252047619Y-73065476D01*
G04 #@! TO.C,D12*
X272471428Y-73736904D02*
X272471428Y-72936904D01*
X272280952Y-72936904D01*
X272166666Y-72975000D01*
X272090476Y-73051190D01*
X272052380Y-73127380D01*
X272014285Y-73279761D01*
X272014285Y-73394047D01*
X272052380Y-73546428D01*
X272090476Y-73622619D01*
X272166666Y-73698809D01*
X272280952Y-73736904D01*
X272471428Y-73736904D01*
X271252380Y-73736904D02*
X271709523Y-73736904D01*
X271480952Y-73736904D02*
X271480952Y-72936904D01*
X271557142Y-73051190D01*
X271633333Y-73127380D01*
X271709523Y-73165476D01*
X270947619Y-73013095D02*
X270909523Y-72975000D01*
X270833333Y-72936904D01*
X270642857Y-72936904D01*
X270566666Y-72975000D01*
X270528571Y-73013095D01*
X270490476Y-73089285D01*
X270490476Y-73165476D01*
X270528571Y-73279761D01*
X270985714Y-73736904D01*
X270490476Y-73736904D01*
G04 #@! TO.C,D13*
X296571428Y-73636904D02*
X296571428Y-72836904D01*
X296380952Y-72836904D01*
X296266666Y-72875000D01*
X296190476Y-72951190D01*
X296152380Y-73027380D01*
X296114285Y-73179761D01*
X296114285Y-73294047D01*
X296152380Y-73446428D01*
X296190476Y-73522619D01*
X296266666Y-73598809D01*
X296380952Y-73636904D01*
X296571428Y-73636904D01*
X295352380Y-73636904D02*
X295809523Y-73636904D01*
X295580952Y-73636904D02*
X295580952Y-72836904D01*
X295657142Y-72951190D01*
X295733333Y-73027380D01*
X295809523Y-73065476D01*
X295085714Y-72836904D02*
X294590476Y-72836904D01*
X294857142Y-73141666D01*
X294742857Y-73141666D01*
X294666666Y-73179761D01*
X294628571Y-73217857D01*
X294590476Y-73294047D01*
X294590476Y-73484523D01*
X294628571Y-73560714D01*
X294666666Y-73598809D01*
X294742857Y-73636904D01*
X294971428Y-73636904D01*
X295047619Y-73598809D01*
X295085714Y-73560714D01*
G04 #@! TO.C,D14*
X64471428Y-98186904D02*
X64471428Y-97386904D01*
X64280952Y-97386904D01*
X64166666Y-97425000D01*
X64090476Y-97501190D01*
X64052380Y-97577380D01*
X64014285Y-97729761D01*
X64014285Y-97844047D01*
X64052380Y-97996428D01*
X64090476Y-98072619D01*
X64166666Y-98148809D01*
X64280952Y-98186904D01*
X64471428Y-98186904D01*
X63252380Y-98186904D02*
X63709523Y-98186904D01*
X63480952Y-98186904D02*
X63480952Y-97386904D01*
X63557142Y-97501190D01*
X63633333Y-97577380D01*
X63709523Y-97615476D01*
X62566666Y-97653571D02*
X62566666Y-98186904D01*
X62757142Y-97348809D02*
X62947619Y-97920238D01*
X62452380Y-97920238D01*
G04 #@! TO.C,D15*
X81871428Y-94236904D02*
X81871428Y-93436904D01*
X81680952Y-93436904D01*
X81566666Y-93475000D01*
X81490476Y-93551190D01*
X81452380Y-93627380D01*
X81414285Y-93779761D01*
X81414285Y-93894047D01*
X81452380Y-94046428D01*
X81490476Y-94122619D01*
X81566666Y-94198809D01*
X81680952Y-94236904D01*
X81871428Y-94236904D01*
X80652380Y-94236904D02*
X81109523Y-94236904D01*
X80880952Y-94236904D02*
X80880952Y-93436904D01*
X80957142Y-93551190D01*
X81033333Y-93627380D01*
X81109523Y-93665476D01*
X79928571Y-93436904D02*
X80309523Y-93436904D01*
X80347619Y-93817857D01*
X80309523Y-93779761D01*
X80233333Y-93741666D01*
X80042857Y-93741666D01*
X79966666Y-93779761D01*
X79928571Y-93817857D01*
X79890476Y-93894047D01*
X79890476Y-94084523D01*
X79928571Y-94160714D01*
X79966666Y-94198809D01*
X80042857Y-94236904D01*
X80233333Y-94236904D01*
X80309523Y-94198809D01*
X80347619Y-94160714D01*
G04 #@! TO.C,D16*
X101071428Y-94236904D02*
X101071428Y-93436904D01*
X100880952Y-93436904D01*
X100766666Y-93475000D01*
X100690476Y-93551190D01*
X100652380Y-93627380D01*
X100614285Y-93779761D01*
X100614285Y-93894047D01*
X100652380Y-94046428D01*
X100690476Y-94122619D01*
X100766666Y-94198809D01*
X100880952Y-94236904D01*
X101071428Y-94236904D01*
X99852380Y-94236904D02*
X100309523Y-94236904D01*
X100080952Y-94236904D02*
X100080952Y-93436904D01*
X100157142Y-93551190D01*
X100233333Y-93627380D01*
X100309523Y-93665476D01*
X99166666Y-93436904D02*
X99319047Y-93436904D01*
X99395238Y-93475000D01*
X99433333Y-93513095D01*
X99509523Y-93627380D01*
X99547619Y-93779761D01*
X99547619Y-94084523D01*
X99509523Y-94160714D01*
X99471428Y-94198809D01*
X99395238Y-94236904D01*
X99242857Y-94236904D01*
X99166666Y-94198809D01*
X99128571Y-94160714D01*
X99090476Y-94084523D01*
X99090476Y-93894047D01*
X99128571Y-93817857D01*
X99166666Y-93779761D01*
X99242857Y-93741666D01*
X99395238Y-93741666D01*
X99471428Y-93779761D01*
X99509523Y-93817857D01*
X99547619Y-93894047D01*
G04 #@! TO.C,D17*
X120271428Y-94436904D02*
X120271428Y-93636904D01*
X120080952Y-93636904D01*
X119966666Y-93675000D01*
X119890476Y-93751190D01*
X119852380Y-93827380D01*
X119814285Y-93979761D01*
X119814285Y-94094047D01*
X119852380Y-94246428D01*
X119890476Y-94322619D01*
X119966666Y-94398809D01*
X120080952Y-94436904D01*
X120271428Y-94436904D01*
X119052380Y-94436904D02*
X119509523Y-94436904D01*
X119280952Y-94436904D02*
X119280952Y-93636904D01*
X119357142Y-93751190D01*
X119433333Y-93827380D01*
X119509523Y-93865476D01*
X118785714Y-93636904D02*
X118252380Y-93636904D01*
X118595238Y-94436904D01*
G04 #@! TO.C,D18*
X139271428Y-94536904D02*
X139271428Y-93736904D01*
X139080952Y-93736904D01*
X138966666Y-93775000D01*
X138890476Y-93851190D01*
X138852380Y-93927380D01*
X138814285Y-94079761D01*
X138814285Y-94194047D01*
X138852380Y-94346428D01*
X138890476Y-94422619D01*
X138966666Y-94498809D01*
X139080952Y-94536904D01*
X139271428Y-94536904D01*
X138052380Y-94536904D02*
X138509523Y-94536904D01*
X138280952Y-94536904D02*
X138280952Y-93736904D01*
X138357142Y-93851190D01*
X138433333Y-93927380D01*
X138509523Y-93965476D01*
X137595238Y-94079761D02*
X137671428Y-94041666D01*
X137709523Y-94003571D01*
X137747619Y-93927380D01*
X137747619Y-93889285D01*
X137709523Y-93813095D01*
X137671428Y-93775000D01*
X137595238Y-93736904D01*
X137442857Y-93736904D01*
X137366666Y-93775000D01*
X137328571Y-93813095D01*
X137290476Y-93889285D01*
X137290476Y-93927380D01*
X137328571Y-94003571D01*
X137366666Y-94041666D01*
X137442857Y-94079761D01*
X137595238Y-94079761D01*
X137671428Y-94117857D01*
X137709523Y-94155952D01*
X137747619Y-94232142D01*
X137747619Y-94384523D01*
X137709523Y-94460714D01*
X137671428Y-94498809D01*
X137595238Y-94536904D01*
X137442857Y-94536904D01*
X137366666Y-94498809D01*
X137328571Y-94460714D01*
X137290476Y-94384523D01*
X137290476Y-94232142D01*
X137328571Y-94155952D01*
X137366666Y-94117857D01*
X137442857Y-94079761D01*
G04 #@! TO.C,D19*
X165136904Y-83728571D02*
X164336904Y-83728571D01*
X164336904Y-83919047D01*
X164375000Y-84033333D01*
X164451190Y-84109523D01*
X164527380Y-84147619D01*
X164679761Y-84185714D01*
X164794047Y-84185714D01*
X164946428Y-84147619D01*
X165022619Y-84109523D01*
X165098809Y-84033333D01*
X165136904Y-83919047D01*
X165136904Y-83728571D01*
X165136904Y-84947619D02*
X165136904Y-84490476D01*
X165136904Y-84719047D02*
X164336904Y-84719047D01*
X164451190Y-84642857D01*
X164527380Y-84566666D01*
X164565476Y-84490476D01*
X165136904Y-85328571D02*
X165136904Y-85480952D01*
X165098809Y-85557142D01*
X165060714Y-85595238D01*
X164946428Y-85671428D01*
X164794047Y-85709523D01*
X164489285Y-85709523D01*
X164413095Y-85671428D01*
X164375000Y-85633333D01*
X164336904Y-85557142D01*
X164336904Y-85404761D01*
X164375000Y-85328571D01*
X164413095Y-85290476D01*
X164489285Y-85252380D01*
X164679761Y-85252380D01*
X164755952Y-85290476D01*
X164794047Y-85328571D01*
X164832142Y-85404761D01*
X164832142Y-85557142D01*
X164794047Y-85633333D01*
X164755952Y-85671428D01*
X164679761Y-85709523D01*
G04 #@! TO.C,D20*
X187271428Y-94636904D02*
X187271428Y-93836904D01*
X187080952Y-93836904D01*
X186966666Y-93875000D01*
X186890476Y-93951190D01*
X186852380Y-94027380D01*
X186814285Y-94179761D01*
X186814285Y-94294047D01*
X186852380Y-94446428D01*
X186890476Y-94522619D01*
X186966666Y-94598809D01*
X187080952Y-94636904D01*
X187271428Y-94636904D01*
X186509523Y-93913095D02*
X186471428Y-93875000D01*
X186395238Y-93836904D01*
X186204761Y-93836904D01*
X186128571Y-93875000D01*
X186090476Y-93913095D01*
X186052380Y-93989285D01*
X186052380Y-94065476D01*
X186090476Y-94179761D01*
X186547619Y-94636904D01*
X186052380Y-94636904D01*
X185557142Y-93836904D02*
X185480952Y-93836904D01*
X185404761Y-93875000D01*
X185366666Y-93913095D01*
X185328571Y-93989285D01*
X185290476Y-94141666D01*
X185290476Y-94332142D01*
X185328571Y-94484523D01*
X185366666Y-94560714D01*
X185404761Y-94598809D01*
X185480952Y-94636904D01*
X185557142Y-94636904D01*
X185633333Y-94598809D01*
X185671428Y-94560714D01*
X185709523Y-94484523D01*
X185747619Y-94332142D01*
X185747619Y-94141666D01*
X185709523Y-93989285D01*
X185671428Y-93913095D01*
X185633333Y-93875000D01*
X185557142Y-93836904D01*
G04 #@! TO.C,D21*
X201171428Y-94536904D02*
X201171428Y-93736904D01*
X200980952Y-93736904D01*
X200866666Y-93775000D01*
X200790476Y-93851190D01*
X200752380Y-93927380D01*
X200714285Y-94079761D01*
X200714285Y-94194047D01*
X200752380Y-94346428D01*
X200790476Y-94422619D01*
X200866666Y-94498809D01*
X200980952Y-94536904D01*
X201171428Y-94536904D01*
X200409523Y-93813095D02*
X200371428Y-93775000D01*
X200295238Y-93736904D01*
X200104761Y-93736904D01*
X200028571Y-93775000D01*
X199990476Y-93813095D01*
X199952380Y-93889285D01*
X199952380Y-93965476D01*
X199990476Y-94079761D01*
X200447619Y-94536904D01*
X199952380Y-94536904D01*
X199190476Y-94536904D02*
X199647619Y-94536904D01*
X199419047Y-94536904D02*
X199419047Y-93736904D01*
X199495238Y-93851190D01*
X199571428Y-93927380D01*
X199647619Y-93965476D01*
G04 #@! TO.C,D22*
X218771428Y-94336904D02*
X218771428Y-93536904D01*
X218580952Y-93536904D01*
X218466666Y-93575000D01*
X218390476Y-93651190D01*
X218352380Y-93727380D01*
X218314285Y-93879761D01*
X218314285Y-93994047D01*
X218352380Y-94146428D01*
X218390476Y-94222619D01*
X218466666Y-94298809D01*
X218580952Y-94336904D01*
X218771428Y-94336904D01*
X218009523Y-93613095D02*
X217971428Y-93575000D01*
X217895238Y-93536904D01*
X217704761Y-93536904D01*
X217628571Y-93575000D01*
X217590476Y-93613095D01*
X217552380Y-93689285D01*
X217552380Y-93765476D01*
X217590476Y-93879761D01*
X218047619Y-94336904D01*
X217552380Y-94336904D01*
X217247619Y-93613095D02*
X217209523Y-93575000D01*
X217133333Y-93536904D01*
X216942857Y-93536904D01*
X216866666Y-93575000D01*
X216828571Y-93613095D01*
X216790476Y-93689285D01*
X216790476Y-93765476D01*
X216828571Y-93879761D01*
X217285714Y-94336904D01*
X216790476Y-94336904D01*
G04 #@! TO.C,D23*
X234471428Y-94636904D02*
X234471428Y-93836904D01*
X234280952Y-93836904D01*
X234166666Y-93875000D01*
X234090476Y-93951190D01*
X234052380Y-94027380D01*
X234014285Y-94179761D01*
X234014285Y-94294047D01*
X234052380Y-94446428D01*
X234090476Y-94522619D01*
X234166666Y-94598809D01*
X234280952Y-94636904D01*
X234471428Y-94636904D01*
X233709523Y-93913095D02*
X233671428Y-93875000D01*
X233595238Y-93836904D01*
X233404761Y-93836904D01*
X233328571Y-93875000D01*
X233290476Y-93913095D01*
X233252380Y-93989285D01*
X233252380Y-94065476D01*
X233290476Y-94179761D01*
X233747619Y-94636904D01*
X233252380Y-94636904D01*
X232985714Y-93836904D02*
X232490476Y-93836904D01*
X232757142Y-94141666D01*
X232642857Y-94141666D01*
X232566666Y-94179761D01*
X232528571Y-94217857D01*
X232490476Y-94294047D01*
X232490476Y-94484523D01*
X232528571Y-94560714D01*
X232566666Y-94598809D01*
X232642857Y-94636904D01*
X232871428Y-94636904D01*
X232947619Y-94598809D01*
X232985714Y-94560714D01*
G04 #@! TO.C,D24*
X253771428Y-94636904D02*
X253771428Y-93836904D01*
X253580952Y-93836904D01*
X253466666Y-93875000D01*
X253390476Y-93951190D01*
X253352380Y-94027380D01*
X253314285Y-94179761D01*
X253314285Y-94294047D01*
X253352380Y-94446428D01*
X253390476Y-94522619D01*
X253466666Y-94598809D01*
X253580952Y-94636904D01*
X253771428Y-94636904D01*
X253009523Y-93913095D02*
X252971428Y-93875000D01*
X252895238Y-93836904D01*
X252704761Y-93836904D01*
X252628571Y-93875000D01*
X252590476Y-93913095D01*
X252552380Y-93989285D01*
X252552380Y-94065476D01*
X252590476Y-94179761D01*
X253047619Y-94636904D01*
X252552380Y-94636904D01*
X251866666Y-94103571D02*
X251866666Y-94636904D01*
X252057142Y-93798809D02*
X252247619Y-94370238D01*
X251752380Y-94370238D01*
G04 #@! TO.C,D25*
X269071428Y-95136904D02*
X269071428Y-94336904D01*
X268880952Y-94336904D01*
X268766666Y-94375000D01*
X268690476Y-94451190D01*
X268652380Y-94527380D01*
X268614285Y-94679761D01*
X268614285Y-94794047D01*
X268652380Y-94946428D01*
X268690476Y-95022619D01*
X268766666Y-95098809D01*
X268880952Y-95136904D01*
X269071428Y-95136904D01*
X268309523Y-94413095D02*
X268271428Y-94375000D01*
X268195238Y-94336904D01*
X268004761Y-94336904D01*
X267928571Y-94375000D01*
X267890476Y-94413095D01*
X267852380Y-94489285D01*
X267852380Y-94565476D01*
X267890476Y-94679761D01*
X268347619Y-95136904D01*
X267852380Y-95136904D01*
X267128571Y-94336904D02*
X267509523Y-94336904D01*
X267547619Y-94717857D01*
X267509523Y-94679761D01*
X267433333Y-94641666D01*
X267242857Y-94641666D01*
X267166666Y-94679761D01*
X267128571Y-94717857D01*
X267090476Y-94794047D01*
X267090476Y-94984523D01*
X267128571Y-95060714D01*
X267166666Y-95098809D01*
X267242857Y-95136904D01*
X267433333Y-95136904D01*
X267509523Y-95098809D01*
X267547619Y-95060714D01*
G04 #@! TO.C,D27*
X69836904Y-104228571D02*
X69036904Y-104228571D01*
X69036904Y-104419047D01*
X69075000Y-104533333D01*
X69151190Y-104609523D01*
X69227380Y-104647619D01*
X69379761Y-104685714D01*
X69494047Y-104685714D01*
X69646428Y-104647619D01*
X69722619Y-104609523D01*
X69798809Y-104533333D01*
X69836904Y-104419047D01*
X69836904Y-104228571D01*
X69113095Y-104990476D02*
X69075000Y-105028571D01*
X69036904Y-105104761D01*
X69036904Y-105295238D01*
X69075000Y-105371428D01*
X69113095Y-105409523D01*
X69189285Y-105447619D01*
X69265476Y-105447619D01*
X69379761Y-105409523D01*
X69836904Y-104952380D01*
X69836904Y-105447619D01*
X69036904Y-105714285D02*
X69036904Y-106247619D01*
X69836904Y-105904761D01*
G04 #@! TO.C,D28*
X88836904Y-104228571D02*
X88036904Y-104228571D01*
X88036904Y-104419047D01*
X88075000Y-104533333D01*
X88151190Y-104609523D01*
X88227380Y-104647619D01*
X88379761Y-104685714D01*
X88494047Y-104685714D01*
X88646428Y-104647619D01*
X88722619Y-104609523D01*
X88798809Y-104533333D01*
X88836904Y-104419047D01*
X88836904Y-104228571D01*
X88113095Y-104990476D02*
X88075000Y-105028571D01*
X88036904Y-105104761D01*
X88036904Y-105295238D01*
X88075000Y-105371428D01*
X88113095Y-105409523D01*
X88189285Y-105447619D01*
X88265476Y-105447619D01*
X88379761Y-105409523D01*
X88836904Y-104952380D01*
X88836904Y-105447619D01*
X88379761Y-105904761D02*
X88341666Y-105828571D01*
X88303571Y-105790476D01*
X88227380Y-105752380D01*
X88189285Y-105752380D01*
X88113095Y-105790476D01*
X88075000Y-105828571D01*
X88036904Y-105904761D01*
X88036904Y-106057142D01*
X88075000Y-106133333D01*
X88113095Y-106171428D01*
X88189285Y-106209523D01*
X88227380Y-106209523D01*
X88303571Y-106171428D01*
X88341666Y-106133333D01*
X88379761Y-106057142D01*
X88379761Y-105904761D01*
X88417857Y-105828571D01*
X88455952Y-105790476D01*
X88532142Y-105752380D01*
X88684523Y-105752380D01*
X88760714Y-105790476D01*
X88798809Y-105828571D01*
X88836904Y-105904761D01*
X88836904Y-106057142D01*
X88798809Y-106133333D01*
X88760714Y-106171428D01*
X88684523Y-106209523D01*
X88532142Y-106209523D01*
X88455952Y-106171428D01*
X88417857Y-106133333D01*
X88379761Y-106057142D01*
G04 #@! TO.C,D29*
X107836904Y-104728571D02*
X107036904Y-104728571D01*
X107036904Y-104919047D01*
X107075000Y-105033333D01*
X107151190Y-105109523D01*
X107227380Y-105147619D01*
X107379761Y-105185714D01*
X107494047Y-105185714D01*
X107646428Y-105147619D01*
X107722619Y-105109523D01*
X107798809Y-105033333D01*
X107836904Y-104919047D01*
X107836904Y-104728571D01*
X107113095Y-105490476D02*
X107075000Y-105528571D01*
X107036904Y-105604761D01*
X107036904Y-105795238D01*
X107075000Y-105871428D01*
X107113095Y-105909523D01*
X107189285Y-105947619D01*
X107265476Y-105947619D01*
X107379761Y-105909523D01*
X107836904Y-105452380D01*
X107836904Y-105947619D01*
X107836904Y-106328571D02*
X107836904Y-106480952D01*
X107798809Y-106557142D01*
X107760714Y-106595238D01*
X107646428Y-106671428D01*
X107494047Y-106709523D01*
X107189285Y-106709523D01*
X107113095Y-106671428D01*
X107075000Y-106633333D01*
X107036904Y-106557142D01*
X107036904Y-106404761D01*
X107075000Y-106328571D01*
X107113095Y-106290476D01*
X107189285Y-106252380D01*
X107379761Y-106252380D01*
X107455952Y-106290476D01*
X107494047Y-106328571D01*
X107532142Y-106404761D01*
X107532142Y-106557142D01*
X107494047Y-106633333D01*
X107455952Y-106671428D01*
X107379761Y-106709523D01*
G04 #@! TO.C,D30*
X127036904Y-104728571D02*
X126236904Y-104728571D01*
X126236904Y-104919047D01*
X126275000Y-105033333D01*
X126351190Y-105109523D01*
X126427380Y-105147619D01*
X126579761Y-105185714D01*
X126694047Y-105185714D01*
X126846428Y-105147619D01*
X126922619Y-105109523D01*
X126998809Y-105033333D01*
X127036904Y-104919047D01*
X127036904Y-104728571D01*
X126236904Y-105452380D02*
X126236904Y-105947619D01*
X126541666Y-105680952D01*
X126541666Y-105795238D01*
X126579761Y-105871428D01*
X126617857Y-105909523D01*
X126694047Y-105947619D01*
X126884523Y-105947619D01*
X126960714Y-105909523D01*
X126998809Y-105871428D01*
X127036904Y-105795238D01*
X127036904Y-105566666D01*
X126998809Y-105490476D01*
X126960714Y-105452380D01*
X126236904Y-106442857D02*
X126236904Y-106519047D01*
X126275000Y-106595238D01*
X126313095Y-106633333D01*
X126389285Y-106671428D01*
X126541666Y-106709523D01*
X126732142Y-106709523D01*
X126884523Y-106671428D01*
X126960714Y-106633333D01*
X126998809Y-106595238D01*
X127036904Y-106519047D01*
X127036904Y-106442857D01*
X126998809Y-106366666D01*
X126960714Y-106328571D01*
X126884523Y-106290476D01*
X126732142Y-106252380D01*
X126541666Y-106252380D01*
X126389285Y-106290476D01*
X126313095Y-106328571D01*
X126275000Y-106366666D01*
X126236904Y-106442857D01*
G04 #@! TO.C,D31*
X146036904Y-104728571D02*
X145236904Y-104728571D01*
X145236904Y-104919047D01*
X145275000Y-105033333D01*
X145351190Y-105109523D01*
X145427380Y-105147619D01*
X145579761Y-105185714D01*
X145694047Y-105185714D01*
X145846428Y-105147619D01*
X145922619Y-105109523D01*
X145998809Y-105033333D01*
X146036904Y-104919047D01*
X146036904Y-104728571D01*
X145236904Y-105452380D02*
X145236904Y-105947619D01*
X145541666Y-105680952D01*
X145541666Y-105795238D01*
X145579761Y-105871428D01*
X145617857Y-105909523D01*
X145694047Y-105947619D01*
X145884523Y-105947619D01*
X145960714Y-105909523D01*
X145998809Y-105871428D01*
X146036904Y-105795238D01*
X146036904Y-105566666D01*
X145998809Y-105490476D01*
X145960714Y-105452380D01*
X146036904Y-106709523D02*
X146036904Y-106252380D01*
X146036904Y-106480952D02*
X145236904Y-106480952D01*
X145351190Y-106404761D01*
X145427380Y-106328571D01*
X145465476Y-106252380D01*
G04 #@! TO.C,D32*
X171071428Y-95136904D02*
X171071428Y-94336904D01*
X170880952Y-94336904D01*
X170766666Y-94375000D01*
X170690476Y-94451190D01*
X170652380Y-94527380D01*
X170614285Y-94679761D01*
X170614285Y-94794047D01*
X170652380Y-94946428D01*
X170690476Y-95022619D01*
X170766666Y-95098809D01*
X170880952Y-95136904D01*
X171071428Y-95136904D01*
X170347619Y-94336904D02*
X169852380Y-94336904D01*
X170119047Y-94641666D01*
X170004761Y-94641666D01*
X169928571Y-94679761D01*
X169890476Y-94717857D01*
X169852380Y-94794047D01*
X169852380Y-94984523D01*
X169890476Y-95060714D01*
X169928571Y-95098809D01*
X170004761Y-95136904D01*
X170233333Y-95136904D01*
X170309523Y-95098809D01*
X170347619Y-95060714D01*
X169547619Y-94413095D02*
X169509523Y-94375000D01*
X169433333Y-94336904D01*
X169242857Y-94336904D01*
X169166666Y-94375000D01*
X169128571Y-94413095D01*
X169090476Y-94489285D01*
X169090476Y-94565476D01*
X169128571Y-94679761D01*
X169585714Y-95136904D01*
X169090476Y-95136904D01*
G04 #@! TO.C,D33*
X184436904Y-103828571D02*
X183636904Y-103828571D01*
X183636904Y-104019047D01*
X183675000Y-104133333D01*
X183751190Y-104209523D01*
X183827380Y-104247619D01*
X183979761Y-104285714D01*
X184094047Y-104285714D01*
X184246428Y-104247619D01*
X184322619Y-104209523D01*
X184398809Y-104133333D01*
X184436904Y-104019047D01*
X184436904Y-103828571D01*
X183636904Y-104552380D02*
X183636904Y-105047619D01*
X183941666Y-104780952D01*
X183941666Y-104895238D01*
X183979761Y-104971428D01*
X184017857Y-105009523D01*
X184094047Y-105047619D01*
X184284523Y-105047619D01*
X184360714Y-105009523D01*
X184398809Y-104971428D01*
X184436904Y-104895238D01*
X184436904Y-104666666D01*
X184398809Y-104590476D01*
X184360714Y-104552380D01*
X183636904Y-105314285D02*
X183636904Y-105809523D01*
X183941666Y-105542857D01*
X183941666Y-105657142D01*
X183979761Y-105733333D01*
X184017857Y-105771428D01*
X184094047Y-105809523D01*
X184284523Y-105809523D01*
X184360714Y-105771428D01*
X184398809Y-105733333D01*
X184436904Y-105657142D01*
X184436904Y-105428571D01*
X184398809Y-105352380D01*
X184360714Y-105314285D01*
G04 #@! TO.C,D34*
X203236904Y-102728571D02*
X202436904Y-102728571D01*
X202436904Y-102919047D01*
X202475000Y-103033333D01*
X202551190Y-103109523D01*
X202627380Y-103147619D01*
X202779761Y-103185714D01*
X202894047Y-103185714D01*
X203046428Y-103147619D01*
X203122619Y-103109523D01*
X203198809Y-103033333D01*
X203236904Y-102919047D01*
X203236904Y-102728571D01*
X202436904Y-103452380D02*
X202436904Y-103947619D01*
X202741666Y-103680952D01*
X202741666Y-103795238D01*
X202779761Y-103871428D01*
X202817857Y-103909523D01*
X202894047Y-103947619D01*
X203084523Y-103947619D01*
X203160714Y-103909523D01*
X203198809Y-103871428D01*
X203236904Y-103795238D01*
X203236904Y-103566666D01*
X203198809Y-103490476D01*
X203160714Y-103452380D01*
X202703571Y-104633333D02*
X203236904Y-104633333D01*
X202398809Y-104442857D02*
X202970238Y-104252380D01*
X202970238Y-104747619D01*
G04 #@! TO.C,D35*
X222236904Y-102728571D02*
X221436904Y-102728571D01*
X221436904Y-102919047D01*
X221475000Y-103033333D01*
X221551190Y-103109523D01*
X221627380Y-103147619D01*
X221779761Y-103185714D01*
X221894047Y-103185714D01*
X222046428Y-103147619D01*
X222122619Y-103109523D01*
X222198809Y-103033333D01*
X222236904Y-102919047D01*
X222236904Y-102728571D01*
X221436904Y-103452380D02*
X221436904Y-103947619D01*
X221741666Y-103680952D01*
X221741666Y-103795238D01*
X221779761Y-103871428D01*
X221817857Y-103909523D01*
X221894047Y-103947619D01*
X222084523Y-103947619D01*
X222160714Y-103909523D01*
X222198809Y-103871428D01*
X222236904Y-103795238D01*
X222236904Y-103566666D01*
X222198809Y-103490476D01*
X222160714Y-103452380D01*
X221436904Y-104671428D02*
X221436904Y-104290476D01*
X221817857Y-104252380D01*
X221779761Y-104290476D01*
X221741666Y-104366666D01*
X221741666Y-104557142D01*
X221779761Y-104633333D01*
X221817857Y-104671428D01*
X221894047Y-104709523D01*
X222084523Y-104709523D01*
X222160714Y-104671428D01*
X222198809Y-104633333D01*
X222236904Y-104557142D01*
X222236904Y-104366666D01*
X222198809Y-104290476D01*
X222160714Y-104252380D01*
G04 #@! TO.C,D36*
X241236904Y-102728571D02*
X240436904Y-102728571D01*
X240436904Y-102919047D01*
X240475000Y-103033333D01*
X240551190Y-103109523D01*
X240627380Y-103147619D01*
X240779761Y-103185714D01*
X240894047Y-103185714D01*
X241046428Y-103147619D01*
X241122619Y-103109523D01*
X241198809Y-103033333D01*
X241236904Y-102919047D01*
X241236904Y-102728571D01*
X240436904Y-103452380D02*
X240436904Y-103947619D01*
X240741666Y-103680952D01*
X240741666Y-103795238D01*
X240779761Y-103871428D01*
X240817857Y-103909523D01*
X240894047Y-103947619D01*
X241084523Y-103947619D01*
X241160714Y-103909523D01*
X241198809Y-103871428D01*
X241236904Y-103795238D01*
X241236904Y-103566666D01*
X241198809Y-103490476D01*
X241160714Y-103452380D01*
X240436904Y-104633333D02*
X240436904Y-104480952D01*
X240475000Y-104404761D01*
X240513095Y-104366666D01*
X240627380Y-104290476D01*
X240779761Y-104252380D01*
X241084523Y-104252380D01*
X241160714Y-104290476D01*
X241198809Y-104328571D01*
X241236904Y-104404761D01*
X241236904Y-104557142D01*
X241198809Y-104633333D01*
X241160714Y-104671428D01*
X241084523Y-104709523D01*
X240894047Y-104709523D01*
X240817857Y-104671428D01*
X240779761Y-104633333D01*
X240741666Y-104557142D01*
X240741666Y-104404761D01*
X240779761Y-104328571D01*
X240817857Y-104290476D01*
X240894047Y-104252380D01*
G04 #@! TO.C,D37*
X264086904Y-103228571D02*
X263286904Y-103228571D01*
X263286904Y-103419047D01*
X263325000Y-103533333D01*
X263401190Y-103609523D01*
X263477380Y-103647619D01*
X263629761Y-103685714D01*
X263744047Y-103685714D01*
X263896428Y-103647619D01*
X263972619Y-103609523D01*
X264048809Y-103533333D01*
X264086904Y-103419047D01*
X264086904Y-103228571D01*
X263286904Y-103952380D02*
X263286904Y-104447619D01*
X263591666Y-104180952D01*
X263591666Y-104295238D01*
X263629761Y-104371428D01*
X263667857Y-104409523D01*
X263744047Y-104447619D01*
X263934523Y-104447619D01*
X264010714Y-104409523D01*
X264048809Y-104371428D01*
X264086904Y-104295238D01*
X264086904Y-104066666D01*
X264048809Y-103990476D01*
X264010714Y-103952380D01*
X263286904Y-104714285D02*
X263286904Y-105247619D01*
X264086904Y-104904761D01*
G04 #@! TO.C,D_1.25u1*
X285586904Y-101809523D02*
X284786904Y-101809523D01*
X284786904Y-102000000D01*
X284825000Y-102114285D01*
X284901190Y-102190476D01*
X284977380Y-102228571D01*
X285129761Y-102266666D01*
X285244047Y-102266666D01*
X285396428Y-102228571D01*
X285472619Y-102190476D01*
X285548809Y-102114285D01*
X285586904Y-102000000D01*
X285586904Y-101809523D01*
X285663095Y-102419047D02*
X285663095Y-103028571D01*
X285586904Y-103638095D02*
X285586904Y-103180952D01*
X285586904Y-103409523D02*
X284786904Y-103409523D01*
X284901190Y-103333333D01*
X284977380Y-103257142D01*
X285015476Y-103180952D01*
X285510714Y-103980952D02*
X285548809Y-104019047D01*
X285586904Y-103980952D01*
X285548809Y-103942857D01*
X285510714Y-103980952D01*
X285586904Y-103980952D01*
X284863095Y-104323809D02*
X284825000Y-104361904D01*
X284786904Y-104438095D01*
X284786904Y-104628571D01*
X284825000Y-104704761D01*
X284863095Y-104742857D01*
X284939285Y-104780952D01*
X285015476Y-104780952D01*
X285129761Y-104742857D01*
X285586904Y-104285714D01*
X285586904Y-104780952D01*
X284786904Y-105504761D02*
X284786904Y-105123809D01*
X285167857Y-105085714D01*
X285129761Y-105123809D01*
X285091666Y-105200000D01*
X285091666Y-105390476D01*
X285129761Y-105466666D01*
X285167857Y-105504761D01*
X285244047Y-105542857D01*
X285434523Y-105542857D01*
X285510714Y-105504761D01*
X285548809Y-105466666D01*
X285586904Y-105390476D01*
X285586904Y-105200000D01*
X285548809Y-105123809D01*
X285510714Y-105085714D01*
X285053571Y-106228571D02*
X285586904Y-106228571D01*
X285053571Y-105885714D02*
X285472619Y-105885714D01*
X285548809Y-105923809D01*
X285586904Y-106000000D01*
X285586904Y-106114285D01*
X285548809Y-106190476D01*
X285510714Y-106228571D01*
X285586904Y-107028571D02*
X285586904Y-106571428D01*
X285586904Y-106800000D02*
X284786904Y-106800000D01*
X284901190Y-106723809D01*
X284977380Y-106647619D01*
X285015476Y-106571428D01*
G04 #@! TO.C,K_2Uspc1*
X167576547Y-101346428D02*
X168338452Y-101346428D01*
X167957500Y-101727380D02*
X167957500Y-100965476D01*
X165036547Y-101346428D02*
X165798452Y-101346428D01*
G04 #@! TO.C,MCU_Pro_Micr0*
X96638095Y-60052380D02*
X96066666Y-60052380D01*
X96352380Y-61052380D02*
X96352380Y-60052380D01*
X95828571Y-60052380D02*
X95161904Y-61052380D01*
X95161904Y-60052380D02*
X95828571Y-61052380D01*
X94590476Y-60052380D02*
X94495238Y-60052380D01*
X94400000Y-60100000D01*
X94352380Y-60147619D01*
X94304761Y-60242857D01*
X94257142Y-60433333D01*
X94257142Y-60671428D01*
X94304761Y-60861904D01*
X94352380Y-60957142D01*
X94400000Y-61004761D01*
X94495238Y-61052380D01*
X94590476Y-61052380D01*
X94685714Y-61004761D01*
X94733333Y-60957142D01*
X94780952Y-60861904D01*
X94828571Y-60671428D01*
X94828571Y-60433333D01*
X94780952Y-60242857D01*
X94733333Y-60147619D01*
X94685714Y-60100000D01*
X94590476Y-60052380D01*
X105390476Y-61052380D02*
X105723809Y-60576190D01*
X105961904Y-61052380D02*
X105961904Y-60052380D01*
X105580952Y-60052380D01*
X105485714Y-60100000D01*
X105438095Y-60147619D01*
X105390476Y-60242857D01*
X105390476Y-60385714D01*
X105438095Y-60480952D01*
X105485714Y-60528571D01*
X105580952Y-60576190D01*
X105961904Y-60576190D01*
X105009523Y-60766666D02*
X104533333Y-60766666D01*
X105104761Y-61052380D02*
X104771428Y-60052380D01*
X104438095Y-61052380D01*
X104200000Y-60052380D02*
X103961904Y-61052380D01*
X103771428Y-60338095D01*
X103580952Y-61052380D01*
X103342857Y-60052380D01*
G04 #@! TO.C,SW_RST1*
X144254761Y-73728571D02*
X144302380Y-73871428D01*
X144302380Y-74109523D01*
X144254761Y-74204761D01*
X144207142Y-74252380D01*
X144111904Y-74300000D01*
X144016666Y-74300000D01*
X143921428Y-74252380D01*
X143873809Y-74204761D01*
X143826190Y-74109523D01*
X143778571Y-73919047D01*
X143730952Y-73823809D01*
X143683333Y-73776190D01*
X143588095Y-73728571D01*
X143492857Y-73728571D01*
X143397619Y-73776190D01*
X143350000Y-73823809D01*
X143302380Y-73919047D01*
X143302380Y-74157142D01*
X143350000Y-74300000D01*
X143302380Y-74633333D02*
X144302380Y-74871428D01*
X143588095Y-75061904D01*
X144302380Y-75252380D01*
X143302380Y-75490476D01*
X144397619Y-75633333D02*
X144397619Y-76395238D01*
X144302380Y-77204761D02*
X143826190Y-76871428D01*
X144302380Y-76633333D02*
X143302380Y-76633333D01*
X143302380Y-77014285D01*
X143350000Y-77109523D01*
X143397619Y-77157142D01*
X143492857Y-77204761D01*
X143635714Y-77204761D01*
X143730952Y-77157142D01*
X143778571Y-77109523D01*
X143826190Y-77014285D01*
X143826190Y-76633333D01*
X144254761Y-77585714D02*
X144302380Y-77728571D01*
X144302380Y-77966666D01*
X144254761Y-78061904D01*
X144207142Y-78109523D01*
X144111904Y-78157142D01*
X144016666Y-78157142D01*
X143921428Y-78109523D01*
X143873809Y-78061904D01*
X143826190Y-77966666D01*
X143778571Y-77776190D01*
X143730952Y-77680952D01*
X143683333Y-77633333D01*
X143588095Y-77585714D01*
X143492857Y-77585714D01*
X143397619Y-77633333D01*
X143350000Y-77680952D01*
X143302380Y-77776190D01*
X143302380Y-78014285D01*
X143350000Y-78157142D01*
X143302380Y-78442857D02*
X143302380Y-79014285D01*
X144302380Y-78728571D02*
X143302380Y-78728571D01*
X144302380Y-79871428D02*
X144302380Y-79300000D01*
X144302380Y-79585714D02*
X143302380Y-79585714D01*
X143445238Y-79490476D01*
X143540476Y-79395238D01*
X143588095Y-79300000D01*
G04 #@! TO.C,K_ISOENTER1*
X294271428Y-94360952D02*
X294271428Y-93599047D01*
X294652380Y-93980000D02*
X293890476Y-93980000D01*
X294271428Y-96900952D02*
X294271428Y-96139047D01*
G04 #@! TO.C,K1*
X62650595Y-70302380D02*
X62650595Y-69302380D01*
X62079166Y-70302380D02*
X62507738Y-69730952D01*
X62079166Y-69302380D02*
X62650595Y-69873809D01*
X61126785Y-70302380D02*
X61698214Y-70302380D01*
X61412500Y-70302380D02*
X61412500Y-69302380D01*
X61507738Y-69445238D01*
X61602976Y-69540476D01*
X61698214Y-69588095D01*
G04 #@! TO.C,K2*
X81700595Y-70302380D02*
X81700595Y-69302380D01*
X81129166Y-70302380D02*
X81557738Y-69730952D01*
X81129166Y-69302380D02*
X81700595Y-69873809D01*
X80748214Y-69397619D02*
X80700595Y-69350000D01*
X80605357Y-69302380D01*
X80367261Y-69302380D01*
X80272023Y-69350000D01*
X80224404Y-69397619D01*
X80176785Y-69492857D01*
X80176785Y-69588095D01*
X80224404Y-69730952D01*
X80795833Y-70302380D01*
X80176785Y-70302380D01*
G04 #@! TO.C,K3*
X100750595Y-70302380D02*
X100750595Y-69302380D01*
X100179166Y-70302380D02*
X100607738Y-69730952D01*
X100179166Y-69302380D02*
X100750595Y-69873809D01*
X99845833Y-69302380D02*
X99226785Y-69302380D01*
X99560119Y-69683333D01*
X99417261Y-69683333D01*
X99322023Y-69730952D01*
X99274404Y-69778571D01*
X99226785Y-69873809D01*
X99226785Y-70111904D01*
X99274404Y-70207142D01*
X99322023Y-70254761D01*
X99417261Y-70302380D01*
X99702976Y-70302380D01*
X99798214Y-70254761D01*
X99845833Y-70207142D01*
G04 #@! TO.C,K4*
X119800595Y-70302380D02*
X119800595Y-69302380D01*
X119229166Y-70302380D02*
X119657738Y-69730952D01*
X119229166Y-69302380D02*
X119800595Y-69873809D01*
X118372023Y-69635714D02*
X118372023Y-70302380D01*
X118610119Y-69254761D02*
X118848214Y-69969047D01*
X118229166Y-69969047D01*
G04 #@! TO.C,K5*
X138850595Y-70302380D02*
X138850595Y-69302380D01*
X138279166Y-70302380D02*
X138707738Y-69730952D01*
X138279166Y-69302380D02*
X138850595Y-69873809D01*
X137374404Y-69302380D02*
X137850595Y-69302380D01*
X137898214Y-69778571D01*
X137850595Y-69730952D01*
X137755357Y-69683333D01*
X137517261Y-69683333D01*
X137422023Y-69730952D01*
X137374404Y-69778571D01*
X137326785Y-69873809D01*
X137326785Y-70111904D01*
X137374404Y-70207142D01*
X137422023Y-70254761D01*
X137517261Y-70302380D01*
X137755357Y-70302380D01*
X137850595Y-70254761D01*
X137898214Y-70207142D01*
G04 #@! TO.C,K6*
X157900595Y-70302380D02*
X157900595Y-69302380D01*
X157329166Y-70302380D02*
X157757738Y-69730952D01*
X157329166Y-69302380D02*
X157900595Y-69873809D01*
X156472023Y-69302380D02*
X156662500Y-69302380D01*
X156757738Y-69350000D01*
X156805357Y-69397619D01*
X156900595Y-69540476D01*
X156948214Y-69730952D01*
X156948214Y-70111904D01*
X156900595Y-70207142D01*
X156852976Y-70254761D01*
X156757738Y-70302380D01*
X156567261Y-70302380D01*
X156472023Y-70254761D01*
X156424404Y-70207142D01*
X156376785Y-70111904D01*
X156376785Y-69873809D01*
X156424404Y-69778571D01*
X156472023Y-69730952D01*
X156567261Y-69683333D01*
X156757738Y-69683333D01*
X156852976Y-69730952D01*
X156900595Y-69778571D01*
X156948214Y-69873809D01*
G04 #@! TO.C,K7*
X176950595Y-70302380D02*
X176950595Y-69302380D01*
X176379166Y-70302380D02*
X176807738Y-69730952D01*
X176379166Y-69302380D02*
X176950595Y-69873809D01*
X176045833Y-69302380D02*
X175379166Y-69302380D01*
X175807738Y-70302380D01*
G04 #@! TO.C,K8*
X196000595Y-70302380D02*
X196000595Y-69302380D01*
X195429166Y-70302380D02*
X195857738Y-69730952D01*
X195429166Y-69302380D02*
X196000595Y-69873809D01*
X194857738Y-69730952D02*
X194952976Y-69683333D01*
X195000595Y-69635714D01*
X195048214Y-69540476D01*
X195048214Y-69492857D01*
X195000595Y-69397619D01*
X194952976Y-69350000D01*
X194857738Y-69302380D01*
X194667261Y-69302380D01*
X194572023Y-69350000D01*
X194524404Y-69397619D01*
X194476785Y-69492857D01*
X194476785Y-69540476D01*
X194524404Y-69635714D01*
X194572023Y-69683333D01*
X194667261Y-69730952D01*
X194857738Y-69730952D01*
X194952976Y-69778571D01*
X195000595Y-69826190D01*
X195048214Y-69921428D01*
X195048214Y-70111904D01*
X195000595Y-70207142D01*
X194952976Y-70254761D01*
X194857738Y-70302380D01*
X194667261Y-70302380D01*
X194572023Y-70254761D01*
X194524404Y-70207142D01*
X194476785Y-70111904D01*
X194476785Y-69921428D01*
X194524404Y-69826190D01*
X194572023Y-69778571D01*
X194667261Y-69730952D01*
G04 #@! TO.C,K9*
X215050595Y-70302380D02*
X215050595Y-69302380D01*
X214479166Y-70302380D02*
X214907738Y-69730952D01*
X214479166Y-69302380D02*
X215050595Y-69873809D01*
X214002976Y-70302380D02*
X213812500Y-70302380D01*
X213717261Y-70254761D01*
X213669642Y-70207142D01*
X213574404Y-70064285D01*
X213526785Y-69873809D01*
X213526785Y-69492857D01*
X213574404Y-69397619D01*
X213622023Y-69350000D01*
X213717261Y-69302380D01*
X213907738Y-69302380D01*
X214002976Y-69350000D01*
X214050595Y-69397619D01*
X214098214Y-69492857D01*
X214098214Y-69730952D01*
X214050595Y-69826190D01*
X214002976Y-69873809D01*
X213907738Y-69921428D01*
X213717261Y-69921428D01*
X213622023Y-69873809D01*
X213574404Y-69826190D01*
X213526785Y-69730952D01*
G04 #@! TO.C,K10*
X234576785Y-70302380D02*
X234576785Y-69302380D01*
X234005357Y-70302380D02*
X234433928Y-69730952D01*
X234005357Y-69302380D02*
X234576785Y-69873809D01*
X233052976Y-70302380D02*
X233624404Y-70302380D01*
X233338690Y-70302380D02*
X233338690Y-69302380D01*
X233433928Y-69445238D01*
X233529166Y-69540476D01*
X233624404Y-69588095D01*
X232433928Y-69302380D02*
X232338690Y-69302380D01*
X232243452Y-69350000D01*
X232195833Y-69397619D01*
X232148214Y-69492857D01*
X232100595Y-69683333D01*
X232100595Y-69921428D01*
X232148214Y-70111904D01*
X232195833Y-70207142D01*
X232243452Y-70254761D01*
X232338690Y-70302380D01*
X232433928Y-70302380D01*
X232529166Y-70254761D01*
X232576785Y-70207142D01*
X232624404Y-70111904D01*
X232672023Y-69921428D01*
X232672023Y-69683333D01*
X232624404Y-69492857D01*
X232576785Y-69397619D01*
X232529166Y-69350000D01*
X232433928Y-69302380D01*
G04 #@! TO.C,K11*
X253626785Y-70302380D02*
X253626785Y-69302380D01*
X253055357Y-70302380D02*
X253483928Y-69730952D01*
X253055357Y-69302380D02*
X253626785Y-69873809D01*
X252102976Y-70302380D02*
X252674404Y-70302380D01*
X252388690Y-70302380D02*
X252388690Y-69302380D01*
X252483928Y-69445238D01*
X252579166Y-69540476D01*
X252674404Y-69588095D01*
X251150595Y-70302380D02*
X251722023Y-70302380D01*
X251436309Y-70302380D02*
X251436309Y-69302380D01*
X251531547Y-69445238D01*
X251626785Y-69540476D01*
X251722023Y-69588095D01*
G04 #@! TO.C,K12*
X272676785Y-70302380D02*
X272676785Y-69302380D01*
X272105357Y-70302380D02*
X272533928Y-69730952D01*
X272105357Y-69302380D02*
X272676785Y-69873809D01*
X271152976Y-70302380D02*
X271724404Y-70302380D01*
X271438690Y-70302380D02*
X271438690Y-69302380D01*
X271533928Y-69445238D01*
X271629166Y-69540476D01*
X271724404Y-69588095D01*
X270772023Y-69397619D02*
X270724404Y-69350000D01*
X270629166Y-69302380D01*
X270391071Y-69302380D01*
X270295833Y-69350000D01*
X270248214Y-69397619D01*
X270200595Y-69492857D01*
X270200595Y-69588095D01*
X270248214Y-69730952D01*
X270819642Y-70302380D01*
X270200595Y-70302380D01*
G04 #@! TO.C,K14*
X63126785Y-89352380D02*
X63126785Y-88352380D01*
X62555357Y-89352380D02*
X62983928Y-88780952D01*
X62555357Y-88352380D02*
X63126785Y-88923809D01*
X61602976Y-89352380D02*
X62174404Y-89352380D01*
X61888690Y-89352380D02*
X61888690Y-88352380D01*
X61983928Y-88495238D01*
X62079166Y-88590476D01*
X62174404Y-88638095D01*
X60745833Y-88685714D02*
X60745833Y-89352380D01*
X60983928Y-88304761D02*
X61222023Y-89019047D01*
X60602976Y-89019047D01*
G04 #@! TO.C,K15*
X82176785Y-89352380D02*
X82176785Y-88352380D01*
X81605357Y-89352380D02*
X82033928Y-88780952D01*
X81605357Y-88352380D02*
X82176785Y-88923809D01*
X80652976Y-89352380D02*
X81224404Y-89352380D01*
X80938690Y-89352380D02*
X80938690Y-88352380D01*
X81033928Y-88495238D01*
X81129166Y-88590476D01*
X81224404Y-88638095D01*
X79748214Y-88352380D02*
X80224404Y-88352380D01*
X80272023Y-88828571D01*
X80224404Y-88780952D01*
X80129166Y-88733333D01*
X79891071Y-88733333D01*
X79795833Y-88780952D01*
X79748214Y-88828571D01*
X79700595Y-88923809D01*
X79700595Y-89161904D01*
X79748214Y-89257142D01*
X79795833Y-89304761D01*
X79891071Y-89352380D01*
X80129166Y-89352380D01*
X80224404Y-89304761D01*
X80272023Y-89257142D01*
G04 #@! TO.C,K16*
X101226785Y-89352380D02*
X101226785Y-88352380D01*
X100655357Y-89352380D02*
X101083928Y-88780952D01*
X100655357Y-88352380D02*
X101226785Y-88923809D01*
X99702976Y-89352380D02*
X100274404Y-89352380D01*
X99988690Y-89352380D02*
X99988690Y-88352380D01*
X100083928Y-88495238D01*
X100179166Y-88590476D01*
X100274404Y-88638095D01*
X98845833Y-88352380D02*
X99036309Y-88352380D01*
X99131547Y-88400000D01*
X99179166Y-88447619D01*
X99274404Y-88590476D01*
X99322023Y-88780952D01*
X99322023Y-89161904D01*
X99274404Y-89257142D01*
X99226785Y-89304761D01*
X99131547Y-89352380D01*
X98941071Y-89352380D01*
X98845833Y-89304761D01*
X98798214Y-89257142D01*
X98750595Y-89161904D01*
X98750595Y-88923809D01*
X98798214Y-88828571D01*
X98845833Y-88780952D01*
X98941071Y-88733333D01*
X99131547Y-88733333D01*
X99226785Y-88780952D01*
X99274404Y-88828571D01*
X99322023Y-88923809D01*
G04 #@! TO.C,K17*
X120276785Y-89352380D02*
X120276785Y-88352380D01*
X119705357Y-89352380D02*
X120133928Y-88780952D01*
X119705357Y-88352380D02*
X120276785Y-88923809D01*
X118752976Y-89352380D02*
X119324404Y-89352380D01*
X119038690Y-89352380D02*
X119038690Y-88352380D01*
X119133928Y-88495238D01*
X119229166Y-88590476D01*
X119324404Y-88638095D01*
X118419642Y-88352380D02*
X117752976Y-88352380D01*
X118181547Y-89352380D01*
G04 #@! TO.C,K18*
X139326785Y-89352380D02*
X139326785Y-88352380D01*
X138755357Y-89352380D02*
X139183928Y-88780952D01*
X138755357Y-88352380D02*
X139326785Y-88923809D01*
X137802976Y-89352380D02*
X138374404Y-89352380D01*
X138088690Y-89352380D02*
X138088690Y-88352380D01*
X138183928Y-88495238D01*
X138279166Y-88590476D01*
X138374404Y-88638095D01*
X137231547Y-88780952D02*
X137326785Y-88733333D01*
X137374404Y-88685714D01*
X137422023Y-88590476D01*
X137422023Y-88542857D01*
X137374404Y-88447619D01*
X137326785Y-88400000D01*
X137231547Y-88352380D01*
X137041071Y-88352380D01*
X136945833Y-88400000D01*
X136898214Y-88447619D01*
X136850595Y-88542857D01*
X136850595Y-88590476D01*
X136898214Y-88685714D01*
X136945833Y-88733333D01*
X137041071Y-88780952D01*
X137231547Y-88780952D01*
X137326785Y-88828571D01*
X137374404Y-88876190D01*
X137422023Y-88971428D01*
X137422023Y-89161904D01*
X137374404Y-89257142D01*
X137326785Y-89304761D01*
X137231547Y-89352380D01*
X137041071Y-89352380D01*
X136945833Y-89304761D01*
X136898214Y-89257142D01*
X136850595Y-89161904D01*
X136850595Y-88971428D01*
X136898214Y-88876190D01*
X136945833Y-88828571D01*
X137041071Y-88780952D01*
G04 #@! TO.C,K19*
X158376785Y-89352380D02*
X158376785Y-88352380D01*
X157805357Y-89352380D02*
X158233928Y-88780952D01*
X157805357Y-88352380D02*
X158376785Y-88923809D01*
X156852976Y-89352380D02*
X157424404Y-89352380D01*
X157138690Y-89352380D02*
X157138690Y-88352380D01*
X157233928Y-88495238D01*
X157329166Y-88590476D01*
X157424404Y-88638095D01*
X156376785Y-89352380D02*
X156186309Y-89352380D01*
X156091071Y-89304761D01*
X156043452Y-89257142D01*
X155948214Y-89114285D01*
X155900595Y-88923809D01*
X155900595Y-88542857D01*
X155948214Y-88447619D01*
X155995833Y-88400000D01*
X156091071Y-88352380D01*
X156281547Y-88352380D01*
X156376785Y-88400000D01*
X156424404Y-88447619D01*
X156472023Y-88542857D01*
X156472023Y-88780952D01*
X156424404Y-88876190D01*
X156376785Y-88923809D01*
X156281547Y-88971428D01*
X156091071Y-88971428D01*
X155995833Y-88923809D01*
X155948214Y-88876190D01*
X155900595Y-88780952D01*
G04 #@! TO.C,K20*
X177426785Y-89352380D02*
X177426785Y-88352380D01*
X176855357Y-89352380D02*
X177283928Y-88780952D01*
X176855357Y-88352380D02*
X177426785Y-88923809D01*
X176474404Y-88447619D02*
X176426785Y-88400000D01*
X176331547Y-88352380D01*
X176093452Y-88352380D01*
X175998214Y-88400000D01*
X175950595Y-88447619D01*
X175902976Y-88542857D01*
X175902976Y-88638095D01*
X175950595Y-88780952D01*
X176522023Y-89352380D01*
X175902976Y-89352380D01*
X175283928Y-88352380D02*
X175188690Y-88352380D01*
X175093452Y-88400000D01*
X175045833Y-88447619D01*
X174998214Y-88542857D01*
X174950595Y-88733333D01*
X174950595Y-88971428D01*
X174998214Y-89161904D01*
X175045833Y-89257142D01*
X175093452Y-89304761D01*
X175188690Y-89352380D01*
X175283928Y-89352380D01*
X175379166Y-89304761D01*
X175426785Y-89257142D01*
X175474404Y-89161904D01*
X175522023Y-88971428D01*
X175522023Y-88733333D01*
X175474404Y-88542857D01*
X175426785Y-88447619D01*
X175379166Y-88400000D01*
X175283928Y-88352380D01*
G04 #@! TO.C,K21*
X196476785Y-89352380D02*
X196476785Y-88352380D01*
X195905357Y-89352380D02*
X196333928Y-88780952D01*
X195905357Y-88352380D02*
X196476785Y-88923809D01*
X195524404Y-88447619D02*
X195476785Y-88400000D01*
X195381547Y-88352380D01*
X195143452Y-88352380D01*
X195048214Y-88400000D01*
X195000595Y-88447619D01*
X194952976Y-88542857D01*
X194952976Y-88638095D01*
X195000595Y-88780952D01*
X195572023Y-89352380D01*
X194952976Y-89352380D01*
X194000595Y-89352380D02*
X194572023Y-89352380D01*
X194286309Y-89352380D02*
X194286309Y-88352380D01*
X194381547Y-88495238D01*
X194476785Y-88590476D01*
X194572023Y-88638095D01*
G04 #@! TO.C,K22*
X215526785Y-89352380D02*
X215526785Y-88352380D01*
X214955357Y-89352380D02*
X215383928Y-88780952D01*
X214955357Y-88352380D02*
X215526785Y-88923809D01*
X214574404Y-88447619D02*
X214526785Y-88400000D01*
X214431547Y-88352380D01*
X214193452Y-88352380D01*
X214098214Y-88400000D01*
X214050595Y-88447619D01*
X214002976Y-88542857D01*
X214002976Y-88638095D01*
X214050595Y-88780952D01*
X214622023Y-89352380D01*
X214002976Y-89352380D01*
X213622023Y-88447619D02*
X213574404Y-88400000D01*
X213479166Y-88352380D01*
X213241071Y-88352380D01*
X213145833Y-88400000D01*
X213098214Y-88447619D01*
X213050595Y-88542857D01*
X213050595Y-88638095D01*
X213098214Y-88780952D01*
X213669642Y-89352380D01*
X213050595Y-89352380D01*
G04 #@! TO.C,K23*
X234576785Y-89352380D02*
X234576785Y-88352380D01*
X234005357Y-89352380D02*
X234433928Y-88780952D01*
X234005357Y-88352380D02*
X234576785Y-88923809D01*
X233624404Y-88447619D02*
X233576785Y-88400000D01*
X233481547Y-88352380D01*
X233243452Y-88352380D01*
X233148214Y-88400000D01*
X233100595Y-88447619D01*
X233052976Y-88542857D01*
X233052976Y-88638095D01*
X233100595Y-88780952D01*
X233672023Y-89352380D01*
X233052976Y-89352380D01*
X232719642Y-88352380D02*
X232100595Y-88352380D01*
X232433928Y-88733333D01*
X232291071Y-88733333D01*
X232195833Y-88780952D01*
X232148214Y-88828571D01*
X232100595Y-88923809D01*
X232100595Y-89161904D01*
X232148214Y-89257142D01*
X232195833Y-89304761D01*
X232291071Y-89352380D01*
X232576785Y-89352380D01*
X232672023Y-89304761D01*
X232719642Y-89257142D01*
G04 #@! TO.C,K24*
X253626785Y-89352380D02*
X253626785Y-88352380D01*
X253055357Y-89352380D02*
X253483928Y-88780952D01*
X253055357Y-88352380D02*
X253626785Y-88923809D01*
X252674404Y-88447619D02*
X252626785Y-88400000D01*
X252531547Y-88352380D01*
X252293452Y-88352380D01*
X252198214Y-88400000D01*
X252150595Y-88447619D01*
X252102976Y-88542857D01*
X252102976Y-88638095D01*
X252150595Y-88780952D01*
X252722023Y-89352380D01*
X252102976Y-89352380D01*
X251245833Y-88685714D02*
X251245833Y-89352380D01*
X251483928Y-88304761D02*
X251722023Y-89019047D01*
X251102976Y-89019047D01*
G04 #@! TO.C,K25*
X272676785Y-89352380D02*
X272676785Y-88352380D01*
X272105357Y-89352380D02*
X272533928Y-88780952D01*
X272105357Y-88352380D02*
X272676785Y-88923809D01*
X271724404Y-88447619D02*
X271676785Y-88400000D01*
X271581547Y-88352380D01*
X271343452Y-88352380D01*
X271248214Y-88400000D01*
X271200595Y-88447619D01*
X271152976Y-88542857D01*
X271152976Y-88638095D01*
X271200595Y-88780952D01*
X271772023Y-89352380D01*
X271152976Y-89352380D01*
X270248214Y-88352380D02*
X270724404Y-88352380D01*
X270772023Y-88828571D01*
X270724404Y-88780952D01*
X270629166Y-88733333D01*
X270391071Y-88733333D01*
X270295833Y-88780952D01*
X270248214Y-88828571D01*
X270200595Y-88923809D01*
X270200595Y-89161904D01*
X270248214Y-89257142D01*
X270295833Y-89304761D01*
X270391071Y-89352380D01*
X270629166Y-89352380D01*
X270724404Y-89304761D01*
X270772023Y-89257142D01*
G04 #@! TO.C,K27*
X63126785Y-108402380D02*
X63126785Y-107402380D01*
X62555357Y-108402380D02*
X62983928Y-107830952D01*
X62555357Y-107402380D02*
X63126785Y-107973809D01*
X62174404Y-107497619D02*
X62126785Y-107450000D01*
X62031547Y-107402380D01*
X61793452Y-107402380D01*
X61698214Y-107450000D01*
X61650595Y-107497619D01*
X61602976Y-107592857D01*
X61602976Y-107688095D01*
X61650595Y-107830952D01*
X62222023Y-108402380D01*
X61602976Y-108402380D01*
X61269642Y-107402380D02*
X60602976Y-107402380D01*
X61031547Y-108402380D01*
G04 #@! TO.C,K28*
X82176785Y-108402380D02*
X82176785Y-107402380D01*
X81605357Y-108402380D02*
X82033928Y-107830952D01*
X81605357Y-107402380D02*
X82176785Y-107973809D01*
X81224404Y-107497619D02*
X81176785Y-107450000D01*
X81081547Y-107402380D01*
X80843452Y-107402380D01*
X80748214Y-107450000D01*
X80700595Y-107497619D01*
X80652976Y-107592857D01*
X80652976Y-107688095D01*
X80700595Y-107830952D01*
X81272023Y-108402380D01*
X80652976Y-108402380D01*
X80081547Y-107830952D02*
X80176785Y-107783333D01*
X80224404Y-107735714D01*
X80272023Y-107640476D01*
X80272023Y-107592857D01*
X80224404Y-107497619D01*
X80176785Y-107450000D01*
X80081547Y-107402380D01*
X79891071Y-107402380D01*
X79795833Y-107450000D01*
X79748214Y-107497619D01*
X79700595Y-107592857D01*
X79700595Y-107640476D01*
X79748214Y-107735714D01*
X79795833Y-107783333D01*
X79891071Y-107830952D01*
X80081547Y-107830952D01*
X80176785Y-107878571D01*
X80224404Y-107926190D01*
X80272023Y-108021428D01*
X80272023Y-108211904D01*
X80224404Y-108307142D01*
X80176785Y-108354761D01*
X80081547Y-108402380D01*
X79891071Y-108402380D01*
X79795833Y-108354761D01*
X79748214Y-108307142D01*
X79700595Y-108211904D01*
X79700595Y-108021428D01*
X79748214Y-107926190D01*
X79795833Y-107878571D01*
X79891071Y-107830952D01*
G04 #@! TO.C,K29*
X101226785Y-108402380D02*
X101226785Y-107402380D01*
X100655357Y-108402380D02*
X101083928Y-107830952D01*
X100655357Y-107402380D02*
X101226785Y-107973809D01*
X100274404Y-107497619D02*
X100226785Y-107450000D01*
X100131547Y-107402380D01*
X99893452Y-107402380D01*
X99798214Y-107450000D01*
X99750595Y-107497619D01*
X99702976Y-107592857D01*
X99702976Y-107688095D01*
X99750595Y-107830952D01*
X100322023Y-108402380D01*
X99702976Y-108402380D01*
X99226785Y-108402380D02*
X99036309Y-108402380D01*
X98941071Y-108354761D01*
X98893452Y-108307142D01*
X98798214Y-108164285D01*
X98750595Y-107973809D01*
X98750595Y-107592857D01*
X98798214Y-107497619D01*
X98845833Y-107450000D01*
X98941071Y-107402380D01*
X99131547Y-107402380D01*
X99226785Y-107450000D01*
X99274404Y-107497619D01*
X99322023Y-107592857D01*
X99322023Y-107830952D01*
X99274404Y-107926190D01*
X99226785Y-107973809D01*
X99131547Y-108021428D01*
X98941071Y-108021428D01*
X98845833Y-107973809D01*
X98798214Y-107926190D01*
X98750595Y-107830952D01*
G04 #@! TO.C,K30*
X120276785Y-108402380D02*
X120276785Y-107402380D01*
X119705357Y-108402380D02*
X120133928Y-107830952D01*
X119705357Y-107402380D02*
X120276785Y-107973809D01*
X119372023Y-107402380D02*
X118752976Y-107402380D01*
X119086309Y-107783333D01*
X118943452Y-107783333D01*
X118848214Y-107830952D01*
X118800595Y-107878571D01*
X118752976Y-107973809D01*
X118752976Y-108211904D01*
X118800595Y-108307142D01*
X118848214Y-108354761D01*
X118943452Y-108402380D01*
X119229166Y-108402380D01*
X119324404Y-108354761D01*
X119372023Y-108307142D01*
X118133928Y-107402380D02*
X118038690Y-107402380D01*
X117943452Y-107450000D01*
X117895833Y-107497619D01*
X117848214Y-107592857D01*
X117800595Y-107783333D01*
X117800595Y-108021428D01*
X117848214Y-108211904D01*
X117895833Y-108307142D01*
X117943452Y-108354761D01*
X118038690Y-108402380D01*
X118133928Y-108402380D01*
X118229166Y-108354761D01*
X118276785Y-108307142D01*
X118324404Y-108211904D01*
X118372023Y-108021428D01*
X118372023Y-107783333D01*
X118324404Y-107592857D01*
X118276785Y-107497619D01*
X118229166Y-107450000D01*
X118133928Y-107402380D01*
G04 #@! TO.C,K31*
X139326785Y-108402380D02*
X139326785Y-107402380D01*
X138755357Y-108402380D02*
X139183928Y-107830952D01*
X138755357Y-107402380D02*
X139326785Y-107973809D01*
X138422023Y-107402380D02*
X137802976Y-107402380D01*
X138136309Y-107783333D01*
X137993452Y-107783333D01*
X137898214Y-107830952D01*
X137850595Y-107878571D01*
X137802976Y-107973809D01*
X137802976Y-108211904D01*
X137850595Y-108307142D01*
X137898214Y-108354761D01*
X137993452Y-108402380D01*
X138279166Y-108402380D01*
X138374404Y-108354761D01*
X138422023Y-108307142D01*
X136850595Y-108402380D02*
X137422023Y-108402380D01*
X137136309Y-108402380D02*
X137136309Y-107402380D01*
X137231547Y-107545238D01*
X137326785Y-107640476D01*
X137422023Y-107688095D01*
G04 #@! TO.C,K32*
X158376785Y-108402380D02*
X158376785Y-107402380D01*
X157805357Y-108402380D02*
X158233928Y-107830952D01*
X157805357Y-107402380D02*
X158376785Y-107973809D01*
X157472023Y-107402380D02*
X156852976Y-107402380D01*
X157186309Y-107783333D01*
X157043452Y-107783333D01*
X156948214Y-107830952D01*
X156900595Y-107878571D01*
X156852976Y-107973809D01*
X156852976Y-108211904D01*
X156900595Y-108307142D01*
X156948214Y-108354761D01*
X157043452Y-108402380D01*
X157329166Y-108402380D01*
X157424404Y-108354761D01*
X157472023Y-108307142D01*
X156472023Y-107497619D02*
X156424404Y-107450000D01*
X156329166Y-107402380D01*
X156091071Y-107402380D01*
X155995833Y-107450000D01*
X155948214Y-107497619D01*
X155900595Y-107592857D01*
X155900595Y-107688095D01*
X155948214Y-107830952D01*
X156519642Y-108402380D01*
X155900595Y-108402380D01*
G04 #@! TO.C,K33*
X177426785Y-108402380D02*
X177426785Y-107402380D01*
X176855357Y-108402380D02*
X177283928Y-107830952D01*
X176855357Y-107402380D02*
X177426785Y-107973809D01*
X176522023Y-107402380D02*
X175902976Y-107402380D01*
X176236309Y-107783333D01*
X176093452Y-107783333D01*
X175998214Y-107830952D01*
X175950595Y-107878571D01*
X175902976Y-107973809D01*
X175902976Y-108211904D01*
X175950595Y-108307142D01*
X175998214Y-108354761D01*
X176093452Y-108402380D01*
X176379166Y-108402380D01*
X176474404Y-108354761D01*
X176522023Y-108307142D01*
X175569642Y-107402380D02*
X174950595Y-107402380D01*
X175283928Y-107783333D01*
X175141071Y-107783333D01*
X175045833Y-107830952D01*
X174998214Y-107878571D01*
X174950595Y-107973809D01*
X174950595Y-108211904D01*
X174998214Y-108307142D01*
X175045833Y-108354761D01*
X175141071Y-108402380D01*
X175426785Y-108402380D01*
X175522023Y-108354761D01*
X175569642Y-108307142D01*
G04 #@! TO.C,K34*
X196476785Y-108402380D02*
X196476785Y-107402380D01*
X195905357Y-108402380D02*
X196333928Y-107830952D01*
X195905357Y-107402380D02*
X196476785Y-107973809D01*
X195572023Y-107402380D02*
X194952976Y-107402380D01*
X195286309Y-107783333D01*
X195143452Y-107783333D01*
X195048214Y-107830952D01*
X195000595Y-107878571D01*
X194952976Y-107973809D01*
X194952976Y-108211904D01*
X195000595Y-108307142D01*
X195048214Y-108354761D01*
X195143452Y-108402380D01*
X195429166Y-108402380D01*
X195524404Y-108354761D01*
X195572023Y-108307142D01*
X194095833Y-107735714D02*
X194095833Y-108402380D01*
X194333928Y-107354761D02*
X194572023Y-108069047D01*
X193952976Y-108069047D01*
G04 #@! TO.C,K35*
X215526785Y-108402380D02*
X215526785Y-107402380D01*
X214955357Y-108402380D02*
X215383928Y-107830952D01*
X214955357Y-107402380D02*
X215526785Y-107973809D01*
X214622023Y-107402380D02*
X214002976Y-107402380D01*
X214336309Y-107783333D01*
X214193452Y-107783333D01*
X214098214Y-107830952D01*
X214050595Y-107878571D01*
X214002976Y-107973809D01*
X214002976Y-108211904D01*
X214050595Y-108307142D01*
X214098214Y-108354761D01*
X214193452Y-108402380D01*
X214479166Y-108402380D01*
X214574404Y-108354761D01*
X214622023Y-108307142D01*
X213098214Y-107402380D02*
X213574404Y-107402380D01*
X213622023Y-107878571D01*
X213574404Y-107830952D01*
X213479166Y-107783333D01*
X213241071Y-107783333D01*
X213145833Y-107830952D01*
X213098214Y-107878571D01*
X213050595Y-107973809D01*
X213050595Y-108211904D01*
X213098214Y-108307142D01*
X213145833Y-108354761D01*
X213241071Y-108402380D01*
X213479166Y-108402380D01*
X213574404Y-108354761D01*
X213622023Y-108307142D01*
G04 #@! TO.C,K36*
X234576785Y-108402380D02*
X234576785Y-107402380D01*
X234005357Y-108402380D02*
X234433928Y-107830952D01*
X234005357Y-107402380D02*
X234576785Y-107973809D01*
X233672023Y-107402380D02*
X233052976Y-107402380D01*
X233386309Y-107783333D01*
X233243452Y-107783333D01*
X233148214Y-107830952D01*
X233100595Y-107878571D01*
X233052976Y-107973809D01*
X233052976Y-108211904D01*
X233100595Y-108307142D01*
X233148214Y-108354761D01*
X233243452Y-108402380D01*
X233529166Y-108402380D01*
X233624404Y-108354761D01*
X233672023Y-108307142D01*
X232195833Y-107402380D02*
X232386309Y-107402380D01*
X232481547Y-107450000D01*
X232529166Y-107497619D01*
X232624404Y-107640476D01*
X232672023Y-107830952D01*
X232672023Y-108211904D01*
X232624404Y-108307142D01*
X232576785Y-108354761D01*
X232481547Y-108402380D01*
X232291071Y-108402380D01*
X232195833Y-108354761D01*
X232148214Y-108307142D01*
X232100595Y-108211904D01*
X232100595Y-107973809D01*
X232148214Y-107878571D01*
X232195833Y-107830952D01*
X232291071Y-107783333D01*
X232481547Y-107783333D01*
X232576785Y-107830952D01*
X232624404Y-107878571D01*
X232672023Y-107973809D01*
G04 #@! TO.C,K37*
X253626785Y-108402380D02*
X253626785Y-107402380D01*
X253055357Y-108402380D02*
X253483928Y-107830952D01*
X253055357Y-107402380D02*
X253626785Y-107973809D01*
X252722023Y-107402380D02*
X252102976Y-107402380D01*
X252436309Y-107783333D01*
X252293452Y-107783333D01*
X252198214Y-107830952D01*
X252150595Y-107878571D01*
X252102976Y-107973809D01*
X252102976Y-108211904D01*
X252150595Y-108307142D01*
X252198214Y-108354761D01*
X252293452Y-108402380D01*
X252579166Y-108402380D01*
X252674404Y-108354761D01*
X252722023Y-108307142D01*
X251769642Y-107402380D02*
X251102976Y-107402380D01*
X251531547Y-108402380D01*
G04 #@! TO.C,K_1.25u1*
X277138095Y-108427380D02*
X277138095Y-107427380D01*
X276566666Y-108427380D02*
X276995238Y-107855952D01*
X276566666Y-107427380D02*
X277138095Y-107998809D01*
X276376190Y-108522619D02*
X275614285Y-108522619D01*
X274852380Y-108427380D02*
X275423809Y-108427380D01*
X275138095Y-108427380D02*
X275138095Y-107427380D01*
X275233333Y-107570238D01*
X275328571Y-107665476D01*
X275423809Y-107713095D01*
X274423809Y-108332142D02*
X274376190Y-108379761D01*
X274423809Y-108427380D01*
X274471428Y-108379761D01*
X274423809Y-108332142D01*
X274423809Y-108427380D01*
X273995238Y-107522619D02*
X273947619Y-107475000D01*
X273852380Y-107427380D01*
X273614285Y-107427380D01*
X273519047Y-107475000D01*
X273471428Y-107522619D01*
X273423809Y-107617857D01*
X273423809Y-107713095D01*
X273471428Y-107855952D01*
X274042857Y-108427380D01*
X273423809Y-108427380D01*
X272519047Y-107427380D02*
X272995238Y-107427380D01*
X273042857Y-107903571D01*
X272995238Y-107855952D01*
X272900000Y-107808333D01*
X272661904Y-107808333D01*
X272566666Y-107855952D01*
X272519047Y-107903571D01*
X272471428Y-107998809D01*
X272471428Y-108236904D01*
X272519047Y-108332142D01*
X272566666Y-108379761D01*
X272661904Y-108427380D01*
X272900000Y-108427380D01*
X272995238Y-108379761D01*
X273042857Y-108332142D01*
X271614285Y-107760714D02*
X271614285Y-108427380D01*
X272042857Y-107760714D02*
X272042857Y-108284523D01*
X271995238Y-108379761D01*
X271900000Y-108427380D01*
X271757142Y-108427380D01*
X271661904Y-108379761D01*
X271614285Y-108332142D01*
X270614285Y-108427380D02*
X271185714Y-108427380D01*
X270900000Y-108427380D02*
X270900000Y-107427380D01*
X270995238Y-107570238D01*
X271090476Y-107665476D01*
X271185714Y-107713095D01*
G04 #@! TO.C,K_BCKSPC1*
X299370238Y-70302380D02*
X299370238Y-69302380D01*
X298798809Y-70302380D02*
X299227380Y-69730952D01*
X298798809Y-69302380D02*
X299370238Y-69873809D01*
X298608333Y-70397619D02*
X297846428Y-70397619D01*
X297275000Y-69778571D02*
X297132142Y-69826190D01*
X297084523Y-69873809D01*
X297036904Y-69969047D01*
X297036904Y-70111904D01*
X297084523Y-70207142D01*
X297132142Y-70254761D01*
X297227380Y-70302380D01*
X297608333Y-70302380D01*
X297608333Y-69302380D01*
X297275000Y-69302380D01*
X297179761Y-69350000D01*
X297132142Y-69397619D01*
X297084523Y-69492857D01*
X297084523Y-69588095D01*
X297132142Y-69683333D01*
X297179761Y-69730952D01*
X297275000Y-69778571D01*
X297608333Y-69778571D01*
X296036904Y-70207142D02*
X296084523Y-70254761D01*
X296227380Y-70302380D01*
X296322619Y-70302380D01*
X296465476Y-70254761D01*
X296560714Y-70159523D01*
X296608333Y-70064285D01*
X296655952Y-69873809D01*
X296655952Y-69730952D01*
X296608333Y-69540476D01*
X296560714Y-69445238D01*
X296465476Y-69350000D01*
X296322619Y-69302380D01*
X296227380Y-69302380D01*
X296084523Y-69350000D01*
X296036904Y-69397619D01*
X295608333Y-70302380D02*
X295608333Y-69302380D01*
X295036904Y-70302380D02*
X295465476Y-69730952D01*
X295036904Y-69302380D02*
X295608333Y-69873809D01*
X294655952Y-70254761D02*
X294513095Y-70302380D01*
X294275000Y-70302380D01*
X294179761Y-70254761D01*
X294132142Y-70207142D01*
X294084523Y-70111904D01*
X294084523Y-70016666D01*
X294132142Y-69921428D01*
X294179761Y-69873809D01*
X294275000Y-69826190D01*
X294465476Y-69778571D01*
X294560714Y-69730952D01*
X294608333Y-69683333D01*
X294655952Y-69588095D01*
X294655952Y-69492857D01*
X294608333Y-69397619D01*
X294560714Y-69350000D01*
X294465476Y-69302380D01*
X294227380Y-69302380D01*
X294084523Y-69350000D01*
X293655952Y-70302380D02*
X293655952Y-69302380D01*
X293275000Y-69302380D01*
X293179761Y-69350000D01*
X293132142Y-69397619D01*
X293084523Y-69492857D01*
X293084523Y-69635714D01*
X293132142Y-69730952D01*
X293179761Y-69778571D01*
X293275000Y-69826190D01*
X293655952Y-69826190D01*
X292084523Y-70207142D02*
X292132142Y-70254761D01*
X292275000Y-70302380D01*
X292370238Y-70302380D01*
X292513095Y-70254761D01*
X292608333Y-70159523D01*
X292655952Y-70064285D01*
X292703571Y-69873809D01*
X292703571Y-69730952D01*
X292655952Y-69540476D01*
X292608333Y-69445238D01*
X292513095Y-69350000D01*
X292370238Y-69302380D01*
X292275000Y-69302380D01*
X292132142Y-69350000D01*
X292084523Y-69397619D01*
X291132142Y-70302380D02*
X291703571Y-70302380D01*
X291417857Y-70302380D02*
X291417857Y-69302380D01*
X291513095Y-69445238D01*
X291608333Y-69540476D01*
X291703571Y-69588095D01*
G04 #@! TO.C,D_ISOENTR1*
X286086904Y-85828571D02*
X285286904Y-85828571D01*
X285286904Y-86019047D01*
X285325000Y-86133333D01*
X285401190Y-86209523D01*
X285477380Y-86247619D01*
X285629761Y-86285714D01*
X285744047Y-86285714D01*
X285896428Y-86247619D01*
X285972619Y-86209523D01*
X286048809Y-86133333D01*
X286086904Y-86019047D01*
X286086904Y-85828571D01*
X286163095Y-86438095D02*
X286163095Y-87047619D01*
X286086904Y-87238095D02*
X285286904Y-87238095D01*
X286048809Y-87580952D02*
X286086904Y-87695238D01*
X286086904Y-87885714D01*
X286048809Y-87961904D01*
X286010714Y-88000000D01*
X285934523Y-88038095D01*
X285858333Y-88038095D01*
X285782142Y-88000000D01*
X285744047Y-87961904D01*
X285705952Y-87885714D01*
X285667857Y-87733333D01*
X285629761Y-87657142D01*
X285591666Y-87619047D01*
X285515476Y-87580952D01*
X285439285Y-87580952D01*
X285363095Y-87619047D01*
X285325000Y-87657142D01*
X285286904Y-87733333D01*
X285286904Y-87923809D01*
X285325000Y-88038095D01*
X285286904Y-88533333D02*
X285286904Y-88685714D01*
X285325000Y-88761904D01*
X285401190Y-88838095D01*
X285553571Y-88876190D01*
X285820238Y-88876190D01*
X285972619Y-88838095D01*
X286048809Y-88761904D01*
X286086904Y-88685714D01*
X286086904Y-88533333D01*
X286048809Y-88457142D01*
X285972619Y-88380952D01*
X285820238Y-88342857D01*
X285553571Y-88342857D01*
X285401190Y-88380952D01*
X285325000Y-88457142D01*
X285286904Y-88533333D01*
X285667857Y-89219047D02*
X285667857Y-89485714D01*
X286086904Y-89600000D02*
X286086904Y-89219047D01*
X285286904Y-89219047D01*
X285286904Y-89600000D01*
X286086904Y-89942857D02*
X285286904Y-89942857D01*
X286086904Y-90400000D01*
X285286904Y-90400000D01*
X285286904Y-90666666D02*
X285286904Y-91123809D01*
X286086904Y-90895238D02*
X285286904Y-90895238D01*
X286086904Y-91847619D02*
X285705952Y-91580952D01*
X286086904Y-91390476D02*
X285286904Y-91390476D01*
X285286904Y-91695238D01*
X285325000Y-91771428D01*
X285363095Y-91809523D01*
X285439285Y-91847619D01*
X285553571Y-91847619D01*
X285629761Y-91809523D01*
X285667857Y-91771428D01*
X285705952Y-91695238D01*
X285705952Y-91390476D01*
X286086904Y-92609523D02*
X286086904Y-92152380D01*
X286086904Y-92380952D02*
X285286904Y-92380952D01*
X285401190Y-92304761D01*
X285477380Y-92228571D01*
X285515476Y-92152380D01*
G04 #@! TO.C,LED_DATA1*
D11*
X55200000Y-95474380D02*
X55200000Y-94474380D01*
X54961904Y-94474380D01*
X54819047Y-94522000D01*
X54723809Y-94617238D01*
X54676190Y-94712476D01*
X54628571Y-94902952D01*
X54628571Y-95045809D01*
X54676190Y-95236285D01*
X54723809Y-95331523D01*
X54819047Y-95426761D01*
X54961904Y-95474380D01*
X55200000Y-95474380D01*
X54247619Y-95188666D02*
X53771428Y-95188666D01*
X54342857Y-95474380D02*
X54009523Y-94474380D01*
X53676190Y-95474380D01*
X53485714Y-94474380D02*
X52914285Y-94474380D01*
X53200000Y-95474380D02*
X53200000Y-94474380D01*
X52628571Y-95188666D02*
X52152380Y-95188666D01*
X52723809Y-95474380D02*
X52390476Y-94474380D01*
X52057142Y-95474380D01*
G04 #@! TO.C,LED_GND1*
X54461904Y-97222000D02*
X54557142Y-97174380D01*
X54700000Y-97174380D01*
X54842857Y-97222000D01*
X54938095Y-97317238D01*
X54985714Y-97412476D01*
X55033333Y-97602952D01*
X55033333Y-97745809D01*
X54985714Y-97936285D01*
X54938095Y-98031523D01*
X54842857Y-98126761D01*
X54700000Y-98174380D01*
X54604761Y-98174380D01*
X54461904Y-98126761D01*
X54414285Y-98079142D01*
X54414285Y-97745809D01*
X54604761Y-97745809D01*
X53985714Y-98174380D02*
X53985714Y-97174380D01*
X53414285Y-98174380D01*
X53414285Y-97174380D01*
X52938095Y-98174380D02*
X52938095Y-97174380D01*
X52700000Y-97174380D01*
X52557142Y-97222000D01*
X52461904Y-97317238D01*
X52414285Y-97412476D01*
X52366666Y-97602952D01*
X52366666Y-97745809D01*
X52414285Y-97936285D01*
X52461904Y-98031523D01*
X52557142Y-98126761D01*
X52700000Y-98174380D01*
X52938095Y-98174380D01*
G04 #@! TO.C,LED_PWR1*
X54933333Y-92074380D02*
X54933333Y-91074380D01*
X54552380Y-91074380D01*
X54457142Y-91122000D01*
X54409523Y-91169619D01*
X54361904Y-91264857D01*
X54361904Y-91407714D01*
X54409523Y-91502952D01*
X54457142Y-91550571D01*
X54552380Y-91598190D01*
X54933333Y-91598190D01*
X54028571Y-91074380D02*
X53790476Y-92074380D01*
X53600000Y-91360095D01*
X53409523Y-92074380D01*
X53171428Y-91074380D01*
X52219047Y-92074380D02*
X52552380Y-91598190D01*
X52790476Y-92074380D02*
X52790476Y-91074380D01*
X52409523Y-91074380D01*
X52314285Y-91122000D01*
X52266666Y-91169619D01*
X52219047Y-91264857D01*
X52219047Y-91407714D01*
X52266666Y-91502952D01*
X52314285Y-91550571D01*
X52409523Y-91598190D01*
X52790476Y-91598190D01*
G04 #@! TD*
M02*
