G04 #@! TF.GenerationSoftware,KiCad,Pcbnew,(5.0.1)-3*
G04 #@! TF.CreationDate,2020-01-05T19:02:12+02:00*
G04 #@! TF.ProjectId,Memekeeb,4D656D656B6565622E6B696361645F70,rev?*
G04 #@! TF.SameCoordinates,Original*
G04 #@! TF.FileFunction,Legend,Top*
G04 #@! TF.FilePolarity,Positive*
%FSLAX46Y46*%
G04 Gerber Fmt 4.6, Leading zero omitted, Abs format (unit mm)*
G04 Created by KiCad (PCBNEW (5.0.1)-3) date 01/05/20 19:02:12*
%MOMM*%
%LPD*%
G01*
G04 APERTURE LIST*
%ADD10C,0.120000*%
%ADD11C,0.150000*%
G04 APERTURE END LIST*
D10*
G04 #@! TO.C,K_ENC1*
X64912500Y-66675000D02*
G75*
G03X64912500Y-66675000I-3000000J0D01*
G01*
X56012500Y-64675000D02*
X56012500Y-60575000D01*
X67812500Y-60575000D02*
X67812500Y-64675000D01*
X67812500Y-68675000D02*
X67812500Y-72775000D01*
X56012500Y-68675000D02*
X56012500Y-72775000D01*
X56012500Y-72775000D02*
X67812500Y-72775000D01*
X58112500Y-74175000D02*
X57812500Y-74475000D01*
X57812500Y-74475000D02*
X57812500Y-73875000D01*
X57812500Y-73875000D02*
X58112500Y-74175000D01*
X56012500Y-60575000D02*
X58412500Y-60575000D01*
X60612500Y-60575000D02*
X63212500Y-60575000D01*
X65412500Y-60575000D02*
X67812500Y-60575000D01*
X61412500Y-66675000D02*
X62412500Y-66675000D01*
X61912500Y-67175000D02*
X61912500Y-66175000D01*
G04 #@! TO.C,K_2Uspc1*
D11*
X167576547Y-101346428D02*
X168338452Y-101346428D01*
X167957500Y-101727380D02*
X167957500Y-100965476D01*
X165036547Y-101346428D02*
X165798452Y-101346428D01*
G04 #@! TO.C,K_ENC1*
X55164880Y-73970238D02*
X54164880Y-73970238D01*
X55164880Y-73398809D02*
X54593452Y-73827380D01*
X54164880Y-73398809D02*
X54736309Y-73970238D01*
X55260119Y-73208333D02*
X55260119Y-72446428D01*
X54641071Y-72208333D02*
X54641071Y-71875000D01*
X55164880Y-71732142D02*
X55164880Y-72208333D01*
X54164880Y-72208333D01*
X54164880Y-71732142D01*
X55164880Y-71303571D02*
X54164880Y-71303571D01*
X55164880Y-70732142D01*
X54164880Y-70732142D01*
X55069642Y-69684523D02*
X55117261Y-69732142D01*
X55164880Y-69875000D01*
X55164880Y-69970238D01*
X55117261Y-70113095D01*
X55022023Y-70208333D01*
X54926785Y-70255952D01*
X54736309Y-70303571D01*
X54593452Y-70303571D01*
X54402976Y-70255952D01*
X54307738Y-70208333D01*
X54212500Y-70113095D01*
X54164880Y-69970238D01*
X54164880Y-69875000D01*
X54212500Y-69732142D01*
X54260119Y-69684523D01*
X55164880Y-68732142D02*
X55164880Y-69303571D01*
X55164880Y-69017857D02*
X54164880Y-69017857D01*
X54307738Y-69113095D01*
X54402976Y-69208333D01*
X54450595Y-69303571D01*
G04 #@! TO.C,K_ISOENTER1*
X294271428Y-94360952D02*
X294271428Y-93599047D01*
X294652380Y-93980000D02*
X293890476Y-93980000D01*
X294271428Y-96900952D02*
X294271428Y-96139047D01*
G04 #@! TD*
M02*
