G04 #@! TF.GenerationSoftware,KiCad,Pcbnew,(5.0.1)-3*
G04 #@! TF.CreationDate,2020-01-08T22:36:58+02:00*
G04 #@! TF.ProjectId,PRKL30,50524B4C33302E6B696361645F706362,rev?*
G04 #@! TF.SameCoordinates,Original*
G04 #@! TF.FileFunction,Legend,Top*
G04 #@! TF.FilePolarity,Positive*
%FSLAX46Y46*%
G04 Gerber Fmt 4.6, Leading zero omitted, Abs format (unit mm)*
G04 Created by KiCad (PCBNEW (5.0.1)-3) date 01/08/20 22:36:58*
%MOMM*%
%LPD*%
G01*
G04 APERTURE LIST*
%ADD10C,0.381000*%
%ADD11C,0.120000*%
%ADD12C,0.150000*%
G04 APERTURE END LIST*
D10*
G04 #@! TO.C,MCU_Pro_Micr0*
X106350000Y-54700000D02*
X108890000Y-54700000D01*
X106350000Y-52160000D02*
X106350000Y-54700000D01*
X91110000Y-82640000D02*
X91110000Y-52160000D01*
X108890000Y-82640000D02*
X91110000Y-82640000D01*
X108890000Y-52160000D02*
X108890000Y-82640000D01*
X91110000Y-52160000D02*
X108890000Y-52160000D01*
D11*
G04 #@! TO.C,K_ENC1*
X64912500Y-66675000D02*
G75*
G03X64912500Y-66675000I-3000000J0D01*
G01*
X56012500Y-64675000D02*
X56012500Y-60575000D01*
X67812500Y-60575000D02*
X67812500Y-64675000D01*
X67812500Y-68675000D02*
X67812500Y-72775000D01*
X56012500Y-68675000D02*
X56012500Y-72775000D01*
X56012500Y-72775000D02*
X67812500Y-72775000D01*
X58112500Y-74175000D02*
X57812500Y-74475000D01*
X57812500Y-74475000D02*
X57812500Y-73875000D01*
X57812500Y-73875000D02*
X58112500Y-74175000D01*
X56012500Y-60575000D02*
X58412500Y-60575000D01*
X60612500Y-60575000D02*
X63212500Y-60575000D01*
X65412500Y-60575000D02*
X67812500Y-60575000D01*
X61412500Y-66675000D02*
X62412500Y-66675000D01*
X61912500Y-67175000D02*
X61912500Y-66175000D01*
G04 #@! TO.C,K_ISOENTER1*
D12*
X294271428Y-96900952D02*
X294271428Y-96139047D01*
X294271428Y-94360952D02*
X294271428Y-93599047D01*
X294652380Y-93980000D02*
X293890476Y-93980000D01*
G04 #@! TO.C,Feather1*
X100228571Y-80290476D02*
X100228571Y-80623809D01*
X100752380Y-80623809D02*
X99752380Y-80623809D01*
X99752380Y-80147619D01*
X100704761Y-79385714D02*
X100752380Y-79480952D01*
X100752380Y-79671428D01*
X100704761Y-79766666D01*
X100609523Y-79814285D01*
X100228571Y-79814285D01*
X100133333Y-79766666D01*
X100085714Y-79671428D01*
X100085714Y-79480952D01*
X100133333Y-79385714D01*
X100228571Y-79338095D01*
X100323809Y-79338095D01*
X100419047Y-79814285D01*
X100752380Y-78480952D02*
X100228571Y-78480952D01*
X100133333Y-78528571D01*
X100085714Y-78623809D01*
X100085714Y-78814285D01*
X100133333Y-78909523D01*
X100704761Y-78480952D02*
X100752380Y-78576190D01*
X100752380Y-78814285D01*
X100704761Y-78909523D01*
X100609523Y-78957142D01*
X100514285Y-78957142D01*
X100419047Y-78909523D01*
X100371428Y-78814285D01*
X100371428Y-78576190D01*
X100323809Y-78480952D01*
X100085714Y-78147619D02*
X100085714Y-77766666D01*
X99752380Y-78004761D02*
X100609523Y-78004761D01*
X100704761Y-77957142D01*
X100752380Y-77861904D01*
X100752380Y-77766666D01*
X100752380Y-77433333D02*
X99752380Y-77433333D01*
X100752380Y-77004761D02*
X100228571Y-77004761D01*
X100133333Y-77052380D01*
X100085714Y-77147619D01*
X100085714Y-77290476D01*
X100133333Y-77385714D01*
X100180952Y-77433333D01*
X100704761Y-76147619D02*
X100752380Y-76242857D01*
X100752380Y-76433333D01*
X100704761Y-76528571D01*
X100609523Y-76576190D01*
X100228571Y-76576190D01*
X100133333Y-76528571D01*
X100085714Y-76433333D01*
X100085714Y-76242857D01*
X100133333Y-76147619D01*
X100228571Y-76100000D01*
X100323809Y-76100000D01*
X100419047Y-76576190D01*
X100752380Y-75671428D02*
X100085714Y-75671428D01*
X100276190Y-75671428D02*
X100180952Y-75623809D01*
X100133333Y-75576190D01*
X100085714Y-75480952D01*
X100085714Y-75385714D01*
X100752380Y-74528571D02*
X100752380Y-75100000D01*
X100752380Y-74814285D02*
X99752380Y-74814285D01*
X99895238Y-74909523D01*
X99990476Y-75004761D01*
X100038095Y-75100000D01*
G04 #@! TO.C,MCU_Pro_Micr0*
X94609523Y-53952380D02*
X94276190Y-53476190D01*
X94038095Y-53952380D02*
X94038095Y-52952380D01*
X94419047Y-52952380D01*
X94514285Y-53000000D01*
X94561904Y-53047619D01*
X94609523Y-53142857D01*
X94609523Y-53285714D01*
X94561904Y-53380952D01*
X94514285Y-53428571D01*
X94419047Y-53476190D01*
X94038095Y-53476190D01*
X94990476Y-53666666D02*
X95466666Y-53666666D01*
X94895238Y-53952380D02*
X95228571Y-52952380D01*
X95561904Y-53952380D01*
X95800000Y-52952380D02*
X96038095Y-53952380D01*
X96228571Y-53238095D01*
X96419047Y-53952380D01*
X96657142Y-52952380D01*
X103361904Y-52952380D02*
X103933333Y-52952380D01*
X103647619Y-53952380D02*
X103647619Y-52952380D01*
X104171428Y-52952380D02*
X104838095Y-53952380D01*
X104838095Y-52952380D02*
X104171428Y-53952380D01*
X105409523Y-52952380D02*
X105504761Y-52952380D01*
X105600000Y-53000000D01*
X105647619Y-53047619D01*
X105695238Y-53142857D01*
X105742857Y-53333333D01*
X105742857Y-53571428D01*
X105695238Y-53761904D01*
X105647619Y-53857142D01*
X105600000Y-53904761D01*
X105504761Y-53952380D01*
X105409523Y-53952380D01*
X105314285Y-53904761D01*
X105266666Y-53857142D01*
X105219047Y-53761904D01*
X105171428Y-53571428D01*
X105171428Y-53333333D01*
X105219047Y-53142857D01*
X105266666Y-53047619D01*
X105314285Y-53000000D01*
X105409523Y-52952380D01*
G04 #@! TO.C,K_2Uspc1*
X167577047Y-101346428D02*
X168338952Y-101346428D01*
X167958000Y-101727380D02*
X167958000Y-100965476D01*
X165037047Y-101346428D02*
X165798952Y-101346428D01*
G04 #@! TO.C,K_ENC1*
X55164880Y-73970238D02*
X54164880Y-73970238D01*
X55164880Y-73398809D02*
X54593452Y-73827380D01*
X54164880Y-73398809D02*
X54736309Y-73970238D01*
X55260119Y-73208333D02*
X55260119Y-72446428D01*
X54641071Y-72208333D02*
X54641071Y-71875000D01*
X55164880Y-71732142D02*
X55164880Y-72208333D01*
X54164880Y-72208333D01*
X54164880Y-71732142D01*
X55164880Y-71303571D02*
X54164880Y-71303571D01*
X55164880Y-70732142D01*
X54164880Y-70732142D01*
X55069642Y-69684523D02*
X55117261Y-69732142D01*
X55164880Y-69875000D01*
X55164880Y-69970238D01*
X55117261Y-70113095D01*
X55022023Y-70208333D01*
X54926785Y-70255952D01*
X54736309Y-70303571D01*
X54593452Y-70303571D01*
X54402976Y-70255952D01*
X54307738Y-70208333D01*
X54212500Y-70113095D01*
X54164880Y-69970238D01*
X54164880Y-69875000D01*
X54212500Y-69732142D01*
X54260119Y-69684523D01*
X55164880Y-68732142D02*
X55164880Y-69303571D01*
X55164880Y-69017857D02*
X54164880Y-69017857D01*
X54307738Y-69113095D01*
X54402976Y-69208333D01*
X54450595Y-69303571D01*
G04 #@! TD*
M02*
