G04 #@! TF.GenerationSoftware,KiCad,Pcbnew,(5.0.1)-3*
G04 #@! TF.CreationDate,2020-02-03T22:22:31+02:00*
G04 #@! TF.ProjectId,PRKL30,50524B4C33302E6B696361645F706362,rev?*
G04 #@! TF.SameCoordinates,Original*
G04 #@! TF.FileFunction,Legend,Top*
G04 #@! TF.FilePolarity,Positive*
%FSLAX46Y46*%
G04 Gerber Fmt 4.6, Leading zero omitted, Abs format (unit mm)*
G04 Created by KiCad (PCBNEW (5.0.1)-3) date 02/03/20 22:22:31*
%MOMM*%
%LPD*%
G01*
G04 APERTURE LIST*
%ADD10C,0.120000*%
%ADD11C,0.150000*%
G04 APERTURE END LIST*
D10*
G04 #@! TO.C,K_ENC1*
X61412500Y-66675000D02*
X62412500Y-66675000D01*
X61912500Y-67175000D02*
X61912500Y-66175000D01*
G04 #@! TO.C,M2_1*
D11*
X69753333Y-73472380D02*
X69753333Y-72472380D01*
X70086666Y-73186666D01*
X70420000Y-72472380D01*
X70420000Y-73472380D01*
X70848571Y-72567619D02*
X70896190Y-72520000D01*
X70991428Y-72472380D01*
X71229523Y-72472380D01*
X71324761Y-72520000D01*
X71372380Y-72567619D01*
X71420000Y-72662857D01*
X71420000Y-72758095D01*
X71372380Y-72900952D01*
X70800952Y-73472380D01*
X71420000Y-73472380D01*
X71610476Y-73567619D02*
X72372380Y-73567619D01*
X73134285Y-73472380D02*
X72562857Y-73472380D01*
X72848571Y-73472380D02*
X72848571Y-72472380D01*
X72753333Y-72615238D01*
X72658095Y-72710476D01*
X72562857Y-72758095D01*
G04 #@! TO.C,M2_3*
X126859333Y-72028380D02*
X126859333Y-71028380D01*
X127192666Y-71742666D01*
X127526000Y-71028380D01*
X127526000Y-72028380D01*
X127954571Y-71123619D02*
X128002190Y-71076000D01*
X128097428Y-71028380D01*
X128335523Y-71028380D01*
X128430761Y-71076000D01*
X128478380Y-71123619D01*
X128526000Y-71218857D01*
X128526000Y-71314095D01*
X128478380Y-71456952D01*
X127906952Y-72028380D01*
X128526000Y-72028380D01*
X128716476Y-72123619D02*
X129478380Y-72123619D01*
X129621238Y-71028380D02*
X130240285Y-71028380D01*
X129906952Y-71409333D01*
X130049809Y-71409333D01*
X130145047Y-71456952D01*
X130192666Y-71504571D01*
X130240285Y-71599809D01*
X130240285Y-71837904D01*
X130192666Y-71933142D01*
X130145047Y-71980761D01*
X130049809Y-72028380D01*
X129764095Y-72028380D01*
X129668857Y-71980761D01*
X129621238Y-71933142D01*
G04 #@! TO.C,M2_2*
X88783333Y-104452380D02*
X88783333Y-103452380D01*
X89116666Y-104166666D01*
X89450000Y-103452380D01*
X89450000Y-104452380D01*
X89878571Y-103547619D02*
X89926190Y-103500000D01*
X90021428Y-103452380D01*
X90259523Y-103452380D01*
X90354761Y-103500000D01*
X90402380Y-103547619D01*
X90450000Y-103642857D01*
X90450000Y-103738095D01*
X90402380Y-103880952D01*
X89830952Y-104452380D01*
X90450000Y-104452380D01*
X90640476Y-104547619D02*
X91402380Y-104547619D01*
X91592857Y-103547619D02*
X91640476Y-103500000D01*
X91735714Y-103452380D01*
X91973809Y-103452380D01*
X92069047Y-103500000D01*
X92116666Y-103547619D01*
X92164285Y-103642857D01*
X92164285Y-103738095D01*
X92116666Y-103880952D01*
X91545238Y-104452380D01*
X92164285Y-104452380D01*
G04 #@! TO.C,M2_6*
X241233333Y-73282380D02*
X241233333Y-72282380D01*
X241566666Y-72996666D01*
X241900000Y-72282380D01*
X241900000Y-73282380D01*
X242328571Y-72377619D02*
X242376190Y-72330000D01*
X242471428Y-72282380D01*
X242709523Y-72282380D01*
X242804761Y-72330000D01*
X242852380Y-72377619D01*
X242900000Y-72472857D01*
X242900000Y-72568095D01*
X242852380Y-72710952D01*
X242280952Y-73282380D01*
X242900000Y-73282380D01*
X243090476Y-73377619D02*
X243852380Y-73377619D01*
X244519047Y-72282380D02*
X244328571Y-72282380D01*
X244233333Y-72330000D01*
X244185714Y-72377619D01*
X244090476Y-72520476D01*
X244042857Y-72710952D01*
X244042857Y-73091904D01*
X244090476Y-73187142D01*
X244138095Y-73234761D01*
X244233333Y-73282380D01*
X244423809Y-73282380D01*
X244519047Y-73234761D01*
X244566666Y-73187142D01*
X244614285Y-73091904D01*
X244614285Y-72853809D01*
X244566666Y-72758571D01*
X244519047Y-72710952D01*
X244423809Y-72663333D01*
X244233333Y-72663333D01*
X244138095Y-72710952D01*
X244090476Y-72758571D01*
X244042857Y-72853809D01*
G04 #@! TO.C,M2_5*
X203143333Y-106792380D02*
X203143333Y-105792380D01*
X203476666Y-106506666D01*
X203810000Y-105792380D01*
X203810000Y-106792380D01*
X204238571Y-105887619D02*
X204286190Y-105840000D01*
X204381428Y-105792380D01*
X204619523Y-105792380D01*
X204714761Y-105840000D01*
X204762380Y-105887619D01*
X204810000Y-105982857D01*
X204810000Y-106078095D01*
X204762380Y-106220952D01*
X204190952Y-106792380D01*
X204810000Y-106792380D01*
X205000476Y-106887619D02*
X205762380Y-106887619D01*
X206476666Y-105792380D02*
X206000476Y-105792380D01*
X205952857Y-106268571D01*
X206000476Y-106220952D01*
X206095714Y-106173333D01*
X206333809Y-106173333D01*
X206429047Y-106220952D01*
X206476666Y-106268571D01*
X206524285Y-106363809D01*
X206524285Y-106601904D01*
X206476666Y-106697142D01*
X206429047Y-106744761D01*
X206333809Y-106792380D01*
X206095714Y-106792380D01*
X206000476Y-106744761D01*
X205952857Y-106697142D01*
G04 #@! TO.C,M2_7*
X294843333Y-74672380D02*
X294843333Y-73672380D01*
X295176666Y-74386666D01*
X295510000Y-73672380D01*
X295510000Y-74672380D01*
X295938571Y-73767619D02*
X295986190Y-73720000D01*
X296081428Y-73672380D01*
X296319523Y-73672380D01*
X296414761Y-73720000D01*
X296462380Y-73767619D01*
X296510000Y-73862857D01*
X296510000Y-73958095D01*
X296462380Y-74100952D01*
X295890952Y-74672380D01*
X296510000Y-74672380D01*
X296700476Y-74767619D02*
X297462380Y-74767619D01*
X297605238Y-73672380D02*
X298271904Y-73672380D01*
X297843333Y-74672380D01*
G04 #@! TO.C,M2_4*
X202979333Y-72188380D02*
X202979333Y-71188380D01*
X203312666Y-71902666D01*
X203646000Y-71188380D01*
X203646000Y-72188380D01*
X204074571Y-71283619D02*
X204122190Y-71236000D01*
X204217428Y-71188380D01*
X204455523Y-71188380D01*
X204550761Y-71236000D01*
X204598380Y-71283619D01*
X204646000Y-71378857D01*
X204646000Y-71474095D01*
X204598380Y-71616952D01*
X204026952Y-72188380D01*
X204646000Y-72188380D01*
X204836476Y-72283619D02*
X205598380Y-72283619D01*
X206265047Y-71521714D02*
X206265047Y-72188380D01*
X206026952Y-71140761D02*
X205788857Y-71855047D01*
X206407904Y-71855047D01*
G04 #@! TD*
M02*
