G04 #@! TF.GenerationSoftware,KiCad,Pcbnew,(5.0.1)-3*
G04 #@! TF.CreationDate,2020-01-28T19:02:16+02:00*
G04 #@! TF.ProjectId,PRKL30,50524B4C33302E6B696361645F706362,rev?*
G04 #@! TF.SameCoordinates,Original*
G04 #@! TF.FileFunction,Copper,L2,Bot,Signal*
G04 #@! TF.FilePolarity,Positive*
%FSLAX46Y46*%
G04 Gerber Fmt 4.6, Leading zero omitted, Abs format (unit mm)*
G04 Created by KiCad (PCBNEW (5.0.1)-3) date 01/28/20 19:02:16*
%MOMM*%
%LPD*%
G01*
G04 APERTURE LIST*
G04 #@! TA.AperFunction,ComponentPad*
%ADD10R,1.905000X1.905000*%
G04 #@! TD*
G04 #@! TA.AperFunction,ComponentPad*
%ADD11C,1.905000*%
G04 #@! TD*
G04 #@! TA.AperFunction,ComponentPad*
%ADD12C,2.000000*%
G04 #@! TD*
G04 #@! TA.AperFunction,ComponentPad*
%ADD13C,2.250000*%
G04 #@! TD*
G04 #@! TA.AperFunction,Conductor*
%ADD14C,2.250000*%
G04 #@! TD*
G04 #@! TA.AperFunction,ComponentPad*
%ADD15C,1.600000*%
G04 #@! TD*
G04 #@! TA.AperFunction,Conductor*
%ADD16R,0.500000X2.500000*%
G04 #@! TD*
G04 #@! TA.AperFunction,ComponentPad*
%ADD17R,1.600000X1.600000*%
G04 #@! TD*
G04 #@! TA.AperFunction,SMDPad,CuDef*
%ADD18R,1.200000X1.200000*%
G04 #@! TD*
G04 #@! TA.AperFunction,ComponentPad*
%ADD19C,1.752600*%
G04 #@! TD*
G04 #@! TA.AperFunction,ComponentPad*
%ADD20R,1.752600X1.752600*%
G04 #@! TD*
G04 #@! TA.AperFunction,Conductor*
%ADD21R,2.500000X0.500000*%
G04 #@! TD*
G04 #@! TA.AperFunction,ComponentPad*
%ADD22R,2.000000X2.000000*%
G04 #@! TD*
G04 #@! TA.AperFunction,ComponentPad*
%ADD23R,2.000000X3.200000*%
G04 #@! TD*
G04 #@! TA.AperFunction,SMDPad,CuDef*
%ADD24R,1.000000X1.700000*%
G04 #@! TD*
G04 #@! TA.AperFunction,SMDPad,CuDef*
%ADD25R,0.700000X1.500000*%
G04 #@! TD*
G04 #@! TA.AperFunction,SMDPad,CuDef*
%ADD26R,1.000000X0.800000*%
G04 #@! TD*
G04 #@! TA.AperFunction,ComponentPad*
%ADD27C,4.000000*%
G04 #@! TD*
G04 #@! TA.AperFunction,ViaPad*
%ADD28C,0.800000*%
G04 #@! TD*
G04 #@! TA.AperFunction,Conductor*
%ADD29C,0.250000*%
G04 #@! TD*
G04 APERTURE END LIST*
D10*
G04 #@! TO.P,K_ISOENTER1,4*
G04 #@! TO.N,N/C*
X292620000Y-96520000D03*
D11*
G04 #@! TO.P,K_ISOENTER1,3*
X292620000Y-93980000D03*
D12*
G04 #@! TO.P,K_ISOENTER1,1*
G04 #@! TO.N,ColF*
X303600000Y-95250000D03*
G04 #@! TO.P,K_ISOENTER1,2*
G04 #@! TO.N,Net-(D_ISOENTR1-Pad2)*
X301500000Y-100250000D03*
D13*
G04 #@! TO.P,K_ISOENTER1,1*
G04 #@! TO.N,ColF*
X301700000Y-92750000D03*
X300970004Y-92094995D03*
D14*
G04 #@! TD*
G04 #@! TO.N,ColF*
G04 #@! TO.C,K_ISOENTER1*
X300240000Y-91440000D02*
X301700008Y-92749990D01*
D13*
G04 #@! TO.P,K_ISOENTER1,2*
G04 #@! TO.N,Net-(D_ISOENTR1-Pad2)*
X302780000Y-97790000D03*
X302490016Y-97769771D03*
D14*
G04 #@! TD*
G04 #@! TO.N,Net-(D_ISOENTR1-Pad2)*
G04 #@! TO.C,K_ISOENTER1*
X302200000Y-97750000D02*
X302780032Y-97789542D01*
D15*
G04 #@! TO.P,Feather1,1*
G04 #@! TO.N,Net-(Feather1-Pad1)*
X90005000Y-68710000D03*
G04 #@! TO.P,Feather1,2*
G04 #@! TO.N,DP1*
X90005000Y-71250000D03*
G04 #@! TO.P,Feather1,3*
G04 #@! TO.N,RGB_PWR*
X90005000Y-73790000D03*
G04 #@! TO.P,Feather1,4*
G04 #@! TO.N,ColE*
X90005000Y-76330000D03*
G04 #@! TO.P,Feather1,5*
G04 #@! TO.N,ColD*
X90005000Y-78870000D03*
G04 #@! TO.P,Feather1,6*
G04 #@! TO.N,ColC*
X90005000Y-81410000D03*
G04 #@! TO.P,Feather1,7*
G04 #@! TO.N,ColF*
X90005000Y-83950000D03*
G04 #@! TO.P,Feather1,8*
G04 #@! TO.N,ColG*
X90005000Y-86490000D03*
G04 #@! TO.P,Feather1,9*
G04 #@! TO.N,ColH*
X90005000Y-89030000D03*
G04 #@! TO.P,Feather1,12*
G04 #@! TO.N,ColB*
X90005000Y-96650000D03*
G04 #@! TO.P,Feather1,10*
G04 #@! TO.N,ColI*
X90005000Y-91570000D03*
G04 #@! TO.P,Feather1,11*
G04 #@! TO.N,ColJ*
X90005000Y-94110000D03*
G04 #@! TO.P,Feather1,13*
G04 #@! TO.N,RST*
X110325000Y-58550000D03*
G04 #@! TO.P,Feather1,14*
G04 #@! TO.N,Net-(Feather1-Pad14)*
X110325000Y-61090000D03*
G04 #@! TO.P,Feather1,15*
G04 #@! TO.N,Net-(Feather1-Pad15)*
X110325000Y-63630000D03*
G04 #@! TO.P,Feather1,16*
G04 #@! TO.N,GND*
X110325000Y-66170000D03*
G04 #@! TO.P,Feather1,17*
G04 #@! TO.N,EncA*
X110325000Y-68710000D03*
G04 #@! TO.P,Feather1,18*
G04 #@! TO.N,EncB*
X110325000Y-71250000D03*
G04 #@! TO.P,Feather1,19*
G04 #@! TO.N,RGB*
X110325000Y-73790000D03*
G04 #@! TO.P,Feather1,20*
G04 #@! TO.N,RowA*
X110325000Y-76330000D03*
G04 #@! TO.P,Feather1,21*
G04 #@! TO.N,RowB*
X110325000Y-78870000D03*
G04 #@! TO.P,Feather1,22*
G04 #@! TO.N,RowC*
X110325000Y-81410000D03*
G04 #@! TO.P,Feather1,23*
G04 #@! TO.N,Net-(Feather1-Pad23)*
X110325000Y-83950000D03*
G04 #@! TO.P,Feather1,24*
G04 #@! TO.N,Net-(Feather1-Pad24)*
X110325000Y-86490000D03*
G04 #@! TO.P,Feather1,25*
G04 #@! TO.N,Net-(Feather1-Pad25)*
X110325000Y-89030000D03*
G04 #@! TO.P,Feather1,26*
G04 #@! TO.N,RowD*
X110325000Y-91570000D03*
G04 #@! TO.P,Feather1,27*
G04 #@! TO.N,ColA*
X110325000Y-94110000D03*
G04 #@! TO.P,Feather1,28*
G04 #@! TO.N,Net-(Feather1-Pad28)*
X110325000Y-96650000D03*
G04 #@! TD*
D16*
G04 #@! TO.N,Net-(D4-Pad2)*
G04 #@! TO.C,D4*
X127508000Y-64864000D03*
G04 #@! TO.N,RowA*
X127508000Y-70264000D03*
D15*
G04 #@! TD*
G04 #@! TO.P,D4,2*
G04 #@! TO.N,Net-(D4-Pad2)*
X127508000Y-63664000D03*
D17*
G04 #@! TO.P,D4,1*
G04 #@! TO.N,RowA*
X127508000Y-71464000D03*
D18*
X127508000Y-69139000D03*
G04 #@! TO.P,D4,2*
G04 #@! TO.N,Net-(D4-Pad2)*
X127508000Y-65989000D03*
G04 #@! TD*
D19*
G04 #@! TO.P,MCU_Pro_Micr0,24*
G04 #@! TO.N,RGB_PWR*
X92380000Y-53430000D03*
G04 #@! TO.P,MCU_Pro_Micr0,12*
G04 #@! TO.N,ColB*
X107620000Y-81370000D03*
G04 #@! TO.P,MCU_Pro_Micr0,23*
G04 #@! TO.N,GND*
X92380000Y-55970000D03*
G04 #@! TO.P,MCU_Pro_Micr0,22*
G04 #@! TO.N,RST*
X92380000Y-58510000D03*
G04 #@! TO.P,MCU_Pro_Micr0,21*
G04 #@! TO.N,Net-(MCU_Pro_Micr0-Pad21)*
X92380000Y-61050000D03*
G04 #@! TO.P,MCU_Pro_Micr0,20*
G04 #@! TO.N,ColE*
X92380000Y-63590000D03*
G04 #@! TO.P,MCU_Pro_Micr0,19*
G04 #@! TO.N,ColD*
X92380000Y-66130000D03*
G04 #@! TO.P,MCU_Pro_Micr0,18*
G04 #@! TO.N,ColC*
X92380000Y-68670000D03*
G04 #@! TO.P,MCU_Pro_Micr0,17*
G04 #@! TO.N,ColF*
X92380000Y-71210000D03*
G04 #@! TO.P,MCU_Pro_Micr0,16*
G04 #@! TO.N,ColG*
X92380000Y-73750000D03*
G04 #@! TO.P,MCU_Pro_Micr0,15*
G04 #@! TO.N,ColH*
X92380000Y-76290000D03*
G04 #@! TO.P,MCU_Pro_Micr0,14*
G04 #@! TO.N,ColI*
X92380000Y-78830000D03*
G04 #@! TO.P,MCU_Pro_Micr0,13*
G04 #@! TO.N,ColJ*
X92380000Y-81370000D03*
G04 #@! TO.P,MCU_Pro_Micr0,11*
G04 #@! TO.N,ColA*
X107620000Y-78830000D03*
G04 #@! TO.P,MCU_Pro_Micr0,10*
G04 #@! TO.N,RowD*
X107620000Y-76290000D03*
G04 #@! TO.P,MCU_Pro_Micr0,9*
G04 #@! TO.N,RowC*
X107620000Y-73750000D03*
G04 #@! TO.P,MCU_Pro_Micr0,8*
G04 #@! TO.N,RowB*
X107620000Y-71210000D03*
G04 #@! TO.P,MCU_Pro_Micr0,7*
G04 #@! TO.N,RowA*
X107620000Y-68670000D03*
G04 #@! TO.P,MCU_Pro_Micr0,6*
G04 #@! TO.N,Net-(MCU_Pro_Micr0-Pad6)*
X107620000Y-66130000D03*
G04 #@! TO.P,MCU_Pro_Micr0,5*
G04 #@! TO.N,RGB*
X107620000Y-63590000D03*
G04 #@! TO.P,MCU_Pro_Micr0,4*
G04 #@! TO.N,Net-(MCU_Pro_Micr0-Pad4)*
X107620000Y-61050000D03*
G04 #@! TO.P,MCU_Pro_Micr0,3*
G04 #@! TO.N,Net-(MCU_Pro_Micr0-Pad3)*
X107620000Y-58510000D03*
G04 #@! TO.P,MCU_Pro_Micr0,2*
G04 #@! TO.N,EncB*
X107620000Y-55970000D03*
D20*
G04 #@! TO.P,MCU_Pro_Micr0,1*
G04 #@! TO.N,EncA*
X107620000Y-53430000D03*
G04 #@! TD*
D16*
G04 #@! TO.N,Net-(D1-Pad2)*
G04 #@! TO.C,D1*
X70300000Y-64356000D03*
G04 #@! TO.N,RowA*
X70300000Y-69756000D03*
D15*
G04 #@! TD*
G04 #@! TO.P,D1,2*
G04 #@! TO.N,Net-(D1-Pad2)*
X70300000Y-63156000D03*
D17*
G04 #@! TO.P,D1,1*
G04 #@! TO.N,RowA*
X70300000Y-70956000D03*
D18*
X70300000Y-68631000D03*
G04 #@! TO.P,D1,2*
G04 #@! TO.N,Net-(D1-Pad2)*
X70300000Y-65481000D03*
G04 #@! TD*
D16*
G04 #@! TO.N,Net-(D2-Pad2)*
G04 #@! TO.C,D2*
X72644000Y-64356000D03*
G04 #@! TO.N,RowA*
X72644000Y-69756000D03*
D15*
G04 #@! TD*
G04 #@! TO.P,D2,2*
G04 #@! TO.N,Net-(D2-Pad2)*
X72644000Y-63156000D03*
D17*
G04 #@! TO.P,D2,1*
G04 #@! TO.N,RowA*
X72644000Y-70956000D03*
D18*
X72644000Y-68631000D03*
G04 #@! TO.P,D2,2*
G04 #@! TO.N,Net-(D2-Pad2)*
X72644000Y-65481000D03*
G04 #@! TD*
D21*
G04 #@! TO.N,Net-(D3-Pad2)*
G04 #@! TO.C,D3*
X85100000Y-75300000D03*
G04 #@! TO.N,RowA*
X79700000Y-75300000D03*
D15*
G04 #@! TD*
G04 #@! TO.P,D3,2*
G04 #@! TO.N,Net-(D3-Pad2)*
X86300000Y-75300000D03*
D17*
G04 #@! TO.P,D3,1*
G04 #@! TO.N,RowA*
X78500000Y-75300000D03*
D18*
X80825000Y-75300000D03*
G04 #@! TO.P,D3,2*
G04 #@! TO.N,Net-(D3-Pad2)*
X83975000Y-75300000D03*
G04 #@! TD*
D16*
G04 #@! TO.N,Net-(D5-Pad2)*
G04 #@! TO.C,D5*
X130048000Y-64864000D03*
G04 #@! TO.N,RowA*
X130048000Y-70264000D03*
D15*
G04 #@! TD*
G04 #@! TO.P,D5,2*
G04 #@! TO.N,Net-(D5-Pad2)*
X130048000Y-63664000D03*
D17*
G04 #@! TO.P,D5,1*
G04 #@! TO.N,RowA*
X130048000Y-71464000D03*
D18*
X130048000Y-69139000D03*
G04 #@! TO.P,D5,2*
G04 #@! TO.N,Net-(D5-Pad2)*
X130048000Y-65989000D03*
G04 #@! TD*
G04 #@! TO.P,D6,2*
G04 #@! TO.N,Net-(D6-Pad2)*
X147828000Y-65481000D03*
G04 #@! TO.P,D6,1*
G04 #@! TO.N,RowA*
X147828000Y-68631000D03*
D17*
X147828000Y-70956000D03*
D15*
G04 #@! TO.P,D6,2*
G04 #@! TO.N,Net-(D6-Pad2)*
X147828000Y-63156000D03*
D16*
G04 #@! TD*
G04 #@! TO.N,RowA*
G04 #@! TO.C,D6*
X147828000Y-69756000D03*
G04 #@! TO.N,Net-(D6-Pad2)*
G04 #@! TO.C,D6*
X147828000Y-64356000D03*
G04 #@! TD*
D18*
G04 #@! TO.P,D7,2*
G04 #@! TO.N,Net-(D7-Pad2)*
X166624000Y-64973000D03*
G04 #@! TO.P,D7,1*
G04 #@! TO.N,RowA*
X166624000Y-68123000D03*
D17*
X166624000Y-70448000D03*
D15*
G04 #@! TO.P,D7,2*
G04 #@! TO.N,Net-(D7-Pad2)*
X166624000Y-62648000D03*
D16*
G04 #@! TD*
G04 #@! TO.N,RowA*
G04 #@! TO.C,D7*
X166624000Y-69248000D03*
G04 #@! TO.N,Net-(D7-Pad2)*
G04 #@! TO.C,D7*
X166624000Y-63848000D03*
G04 #@! TD*
D18*
G04 #@! TO.P,D8,2*
G04 #@! TO.N,Net-(D8-Pad2)*
X185420000Y-64973000D03*
G04 #@! TO.P,D8,1*
G04 #@! TO.N,RowA*
X185420000Y-68123000D03*
D17*
X185420000Y-70448000D03*
D15*
G04 #@! TO.P,D8,2*
G04 #@! TO.N,Net-(D8-Pad2)*
X185420000Y-62648000D03*
D16*
G04 #@! TD*
G04 #@! TO.N,RowA*
G04 #@! TO.C,D8*
X185420000Y-69248000D03*
G04 #@! TO.N,Net-(D8-Pad2)*
G04 #@! TO.C,D8*
X185420000Y-63848000D03*
G04 #@! TD*
D18*
G04 #@! TO.P,D9,2*
G04 #@! TO.N,Net-(D9-Pad2)*
X204724000Y-64973000D03*
G04 #@! TO.P,D9,1*
G04 #@! TO.N,RowA*
X204724000Y-68123000D03*
D17*
X204724000Y-70448000D03*
D15*
G04 #@! TO.P,D9,2*
G04 #@! TO.N,Net-(D9-Pad2)*
X204724000Y-62648000D03*
D16*
G04 #@! TD*
G04 #@! TO.N,RowA*
G04 #@! TO.C,D9*
X204724000Y-69248000D03*
G04 #@! TO.N,Net-(D9-Pad2)*
G04 #@! TO.C,D9*
X204724000Y-63848000D03*
G04 #@! TD*
D18*
G04 #@! TO.P,D10,2*
G04 #@! TO.N,Net-(D10-Pad2)*
X223520000Y-64973000D03*
G04 #@! TO.P,D10,1*
G04 #@! TO.N,RowA*
X223520000Y-68123000D03*
D17*
X223520000Y-70448000D03*
D15*
G04 #@! TO.P,D10,2*
G04 #@! TO.N,Net-(D10-Pad2)*
X223520000Y-62648000D03*
D16*
G04 #@! TD*
G04 #@! TO.N,RowA*
G04 #@! TO.C,D10*
X223520000Y-69248000D03*
G04 #@! TO.N,Net-(D10-Pad2)*
G04 #@! TO.C,D10*
X223520000Y-63848000D03*
G04 #@! TD*
D18*
G04 #@! TO.P,D11,2*
G04 #@! TO.N,Net-(D11-Pad2)*
X242824000Y-64973000D03*
G04 #@! TO.P,D11,1*
G04 #@! TO.N,RowD*
X242824000Y-68123000D03*
D17*
X242824000Y-70448000D03*
D15*
G04 #@! TO.P,D11,2*
G04 #@! TO.N,Net-(D11-Pad2)*
X242824000Y-62648000D03*
D16*
G04 #@! TD*
G04 #@! TO.N,RowD*
G04 #@! TO.C,D11*
X242824000Y-69248000D03*
G04 #@! TO.N,Net-(D11-Pad2)*
G04 #@! TO.C,D11*
X242824000Y-63848000D03*
G04 #@! TD*
D18*
G04 #@! TO.P,D12,2*
G04 #@! TO.N,Net-(D12-Pad2)*
X261620000Y-64973000D03*
G04 #@! TO.P,D12,1*
G04 #@! TO.N,RowD*
X261620000Y-68123000D03*
D17*
X261620000Y-70448000D03*
D15*
G04 #@! TO.P,D12,2*
G04 #@! TO.N,Net-(D12-Pad2)*
X261620000Y-62648000D03*
D16*
G04 #@! TD*
G04 #@! TO.N,RowD*
G04 #@! TO.C,D12*
X261620000Y-69248000D03*
G04 #@! TO.N,Net-(D12-Pad2)*
G04 #@! TO.C,D12*
X261620000Y-63848000D03*
G04 #@! TD*
D18*
G04 #@! TO.P,D13,2*
G04 #@! TO.N,Net-(D13-Pad2)*
X283464000Y-65989000D03*
G04 #@! TO.P,D13,1*
G04 #@! TO.N,RowD*
X283464000Y-69139000D03*
D17*
X283464000Y-71464000D03*
D15*
G04 #@! TO.P,D13,2*
G04 #@! TO.N,Net-(D13-Pad2)*
X283464000Y-63664000D03*
D16*
G04 #@! TD*
G04 #@! TO.N,RowD*
G04 #@! TO.C,D13*
X283464000Y-70264000D03*
G04 #@! TO.N,Net-(D13-Pad2)*
G04 #@! TO.C,D13*
X283464000Y-64864000D03*
G04 #@! TD*
D18*
G04 #@! TO.P,D14,2*
G04 #@! TO.N,Net-(D14-Pad2)*
X70104000Y-84836000D03*
G04 #@! TO.P,D14,1*
G04 #@! TO.N,RowB*
X70104000Y-87986000D03*
D17*
X70104000Y-90311000D03*
D15*
G04 #@! TO.P,D14,2*
G04 #@! TO.N,Net-(D14-Pad2)*
X70104000Y-82511000D03*
D16*
G04 #@! TD*
G04 #@! TO.N,RowB*
G04 #@! TO.C,D14*
X70104000Y-89111000D03*
G04 #@! TO.N,Net-(D14-Pad2)*
G04 #@! TO.C,D14*
X70104000Y-83711000D03*
G04 #@! TD*
D18*
G04 #@! TO.P,D15,2*
G04 #@! TO.N,Net-(D15-Pad2)*
X72644000Y-84785000D03*
G04 #@! TO.P,D15,1*
G04 #@! TO.N,RowB*
X72644000Y-87935000D03*
D17*
X72644000Y-90260000D03*
D15*
G04 #@! TO.P,D15,2*
G04 #@! TO.N,Net-(D15-Pad2)*
X72644000Y-82460000D03*
D16*
G04 #@! TD*
G04 #@! TO.N,RowB*
G04 #@! TO.C,D15*
X72644000Y-89060000D03*
G04 #@! TO.N,Net-(D15-Pad2)*
G04 #@! TO.C,D15*
X72644000Y-83660000D03*
G04 #@! TD*
D18*
G04 #@! TO.P,D16,2*
G04 #@! TO.N,Net-(D16-Pad2)*
X121463000Y-74676000D03*
G04 #@! TO.P,D16,1*
G04 #@! TO.N,RowB*
X118313000Y-74676000D03*
D17*
X115988000Y-74676000D03*
D15*
G04 #@! TO.P,D16,2*
G04 #@! TO.N,Net-(D16-Pad2)*
X123788000Y-74676000D03*
D21*
G04 #@! TD*
G04 #@! TO.N,RowB*
G04 #@! TO.C,D16*
X117188000Y-74676000D03*
G04 #@! TO.N,Net-(D16-Pad2)*
G04 #@! TO.C,D16*
X122588000Y-74676000D03*
G04 #@! TD*
D18*
G04 #@! TO.P,D17,2*
G04 #@! TO.N,Net-(D17-Pad2)*
X127296000Y-82261000D03*
G04 #@! TO.P,D17,1*
G04 #@! TO.N,RowB*
X127296000Y-85411000D03*
D17*
X127296000Y-87736000D03*
D15*
G04 #@! TO.P,D17,2*
G04 #@! TO.N,Net-(D17-Pad2)*
X127296000Y-79936000D03*
D16*
G04 #@! TD*
G04 #@! TO.N,RowB*
G04 #@! TO.C,D17*
X127296000Y-86536000D03*
G04 #@! TO.N,Net-(D17-Pad2)*
G04 #@! TO.C,D17*
X127296000Y-81136000D03*
G04 #@! TD*
D18*
G04 #@! TO.P,D18,2*
G04 #@! TO.N,Net-(D18-Pad2)*
X129856000Y-82246000D03*
G04 #@! TO.P,D18,1*
G04 #@! TO.N,RowB*
X129856000Y-85396000D03*
D17*
X129856000Y-87721000D03*
D15*
G04 #@! TO.P,D18,2*
G04 #@! TO.N,Net-(D18-Pad2)*
X129856000Y-79921000D03*
D16*
G04 #@! TD*
G04 #@! TO.N,RowB*
G04 #@! TO.C,D18*
X129856000Y-86521000D03*
G04 #@! TO.N,Net-(D18-Pad2)*
G04 #@! TO.C,D18*
X129856000Y-81121000D03*
G04 #@! TD*
D18*
G04 #@! TO.P,D19,2*
G04 #@! TO.N,Net-(D19-Pad2)*
X166700000Y-83125000D03*
G04 #@! TO.P,D19,1*
G04 #@! TO.N,RowB*
X166700000Y-86275000D03*
D17*
X166700000Y-88600000D03*
D15*
G04 #@! TO.P,D19,2*
G04 #@! TO.N,Net-(D19-Pad2)*
X166700000Y-80800000D03*
D16*
G04 #@! TD*
G04 #@! TO.N,RowB*
G04 #@! TO.C,D19*
X166700000Y-87400000D03*
G04 #@! TO.N,Net-(D19-Pad2)*
G04 #@! TO.C,D19*
X166700000Y-82000000D03*
G04 #@! TD*
D18*
G04 #@! TO.P,D20,2*
G04 #@! TO.N,Net-(D20-Pad2)*
X185800000Y-83025000D03*
G04 #@! TO.P,D20,1*
G04 #@! TO.N,RowB*
X185800000Y-86175000D03*
D17*
X185800000Y-88500000D03*
D15*
G04 #@! TO.P,D20,2*
G04 #@! TO.N,Net-(D20-Pad2)*
X185800000Y-80700000D03*
D16*
G04 #@! TD*
G04 #@! TO.N,RowB*
G04 #@! TO.C,D20*
X185800000Y-87300000D03*
G04 #@! TO.N,Net-(D20-Pad2)*
G04 #@! TO.C,D20*
X185800000Y-81900000D03*
G04 #@! TD*
G04 #@! TO.N,Net-(D21-Pad2)*
G04 #@! TO.C,D21*
X204800000Y-82500000D03*
G04 #@! TO.N,RowB*
X204800000Y-87900000D03*
D15*
G04 #@! TD*
G04 #@! TO.P,D21,2*
G04 #@! TO.N,Net-(D21-Pad2)*
X204800000Y-81300000D03*
D17*
G04 #@! TO.P,D21,1*
G04 #@! TO.N,RowB*
X204800000Y-89100000D03*
D18*
X204800000Y-86775000D03*
G04 #@! TO.P,D21,2*
G04 #@! TO.N,Net-(D21-Pad2)*
X204800000Y-83625000D03*
G04 #@! TD*
D16*
G04 #@! TO.N,Net-(D22-Pad2)*
G04 #@! TO.C,D22*
X224000000Y-82600000D03*
G04 #@! TO.N,RowB*
X224000000Y-88000000D03*
D15*
G04 #@! TD*
G04 #@! TO.P,D22,2*
G04 #@! TO.N,Net-(D22-Pad2)*
X224000000Y-81400000D03*
D17*
G04 #@! TO.P,D22,1*
G04 #@! TO.N,RowB*
X224000000Y-89200000D03*
D18*
X224000000Y-86875000D03*
G04 #@! TO.P,D22,2*
G04 #@! TO.N,Net-(D22-Pad2)*
X224000000Y-83725000D03*
G04 #@! TD*
D16*
G04 #@! TO.N,Net-(D23-Pad2)*
G04 #@! TO.C,D23*
X243300000Y-82500000D03*
G04 #@! TO.N,RowB*
X243300000Y-87900000D03*
D15*
G04 #@! TD*
G04 #@! TO.P,D23,2*
G04 #@! TO.N,Net-(D23-Pad2)*
X243300000Y-81300000D03*
D17*
G04 #@! TO.P,D23,1*
G04 #@! TO.N,RowB*
X243300000Y-89100000D03*
D18*
X243300000Y-86775000D03*
G04 #@! TO.P,D23,2*
G04 #@! TO.N,Net-(D23-Pad2)*
X243300000Y-83625000D03*
G04 #@! TD*
D16*
G04 #@! TO.N,Net-(D24-Pad2)*
G04 #@! TO.C,D24*
X260880000Y-82610000D03*
G04 #@! TO.N,RowD*
X260880000Y-88010000D03*
D15*
G04 #@! TD*
G04 #@! TO.P,D24,2*
G04 #@! TO.N,Net-(D24-Pad2)*
X260880000Y-81410000D03*
D17*
G04 #@! TO.P,D24,1*
G04 #@! TO.N,RowD*
X260880000Y-89210000D03*
D18*
X260880000Y-86885000D03*
G04 #@! TO.P,D24,2*
G04 #@! TO.N,Net-(D24-Pad2)*
X260880000Y-83735000D03*
G04 #@! TD*
D16*
G04 #@! TO.N,Net-(D25-Pad2)*
G04 #@! TO.C,D25*
X263260000Y-82550000D03*
G04 #@! TO.N,RowD*
X263260000Y-87950000D03*
D15*
G04 #@! TD*
G04 #@! TO.P,D25,2*
G04 #@! TO.N,Net-(D25-Pad2)*
X263260000Y-81350000D03*
D17*
G04 #@! TO.P,D25,1*
G04 #@! TO.N,RowD*
X263260000Y-89150000D03*
D18*
X263260000Y-86825000D03*
G04 #@! TO.P,D25,2*
G04 #@! TO.N,Net-(D25-Pad2)*
X263260000Y-83675000D03*
G04 #@! TD*
D16*
G04 #@! TO.N,Net-(D27-Pad2)*
G04 #@! TO.C,D27*
X70300000Y-101700000D03*
G04 #@! TO.N,RowC*
X70300000Y-107100000D03*
D15*
G04 #@! TD*
G04 #@! TO.P,D27,2*
G04 #@! TO.N,Net-(D27-Pad2)*
X70300000Y-100500000D03*
D17*
G04 #@! TO.P,D27,1*
G04 #@! TO.N,RowC*
X70300000Y-108300000D03*
D18*
X70300000Y-105975000D03*
G04 #@! TO.P,D27,2*
G04 #@! TO.N,Net-(D27-Pad2)*
X70300000Y-102825000D03*
G04 #@! TD*
D16*
G04 #@! TO.N,Net-(D28-Pad2)*
G04 #@! TO.C,D28*
X72800000Y-101600000D03*
G04 #@! TO.N,RowC*
X72800000Y-107000000D03*
D15*
G04 #@! TD*
G04 #@! TO.P,D28,2*
G04 #@! TO.N,Net-(D28-Pad2)*
X72800000Y-100400000D03*
D17*
G04 #@! TO.P,D28,1*
G04 #@! TO.N,RowC*
X72800000Y-108200000D03*
D18*
X72800000Y-105875000D03*
G04 #@! TO.P,D28,2*
G04 #@! TO.N,Net-(D28-Pad2)*
X72800000Y-102725000D03*
G04 #@! TD*
D16*
G04 #@! TO.N,Net-(D29-Pad2)*
G04 #@! TO.C,D29*
X127300000Y-101900000D03*
G04 #@! TO.N,RowC*
X127300000Y-107300000D03*
D15*
G04 #@! TD*
G04 #@! TO.P,D29,2*
G04 #@! TO.N,Net-(D29-Pad2)*
X127300000Y-100700000D03*
D17*
G04 #@! TO.P,D29,1*
G04 #@! TO.N,RowC*
X127300000Y-108500000D03*
D18*
X127300000Y-106175000D03*
G04 #@! TO.P,D29,2*
G04 #@! TO.N,Net-(D29-Pad2)*
X127300000Y-103025000D03*
G04 #@! TD*
D16*
G04 #@! TO.N,Net-(D30-Pad2)*
G04 #@! TO.C,D30*
X129800000Y-101900000D03*
G04 #@! TO.N,RowC*
X129800000Y-107300000D03*
D15*
G04 #@! TD*
G04 #@! TO.P,D30,2*
G04 #@! TO.N,Net-(D30-Pad2)*
X129800000Y-100700000D03*
D17*
G04 #@! TO.P,D30,1*
G04 #@! TO.N,RowC*
X129800000Y-108500000D03*
D18*
X129800000Y-106175000D03*
G04 #@! TO.P,D30,2*
G04 #@! TO.N,Net-(D30-Pad2)*
X129800000Y-103025000D03*
G04 #@! TD*
D16*
G04 #@! TO.N,Net-(D31-Pad2)*
G04 #@! TO.C,D31*
X146420000Y-102680000D03*
G04 #@! TO.N,RowC*
X146420000Y-108080000D03*
D15*
G04 #@! TD*
G04 #@! TO.P,D31,2*
G04 #@! TO.N,Net-(D31-Pad2)*
X146420000Y-101480000D03*
D17*
G04 #@! TO.P,D31,1*
G04 #@! TO.N,RowC*
X146420000Y-109280000D03*
D18*
X146420000Y-106955000D03*
G04 #@! TO.P,D31,2*
G04 #@! TO.N,Net-(D31-Pad2)*
X146420000Y-103805000D03*
G04 #@! TD*
D16*
G04 #@! TO.N,Net-(D32-Pad2)*
G04 #@! TO.C,D32*
X148930000Y-102700000D03*
G04 #@! TO.N,RowC*
X148930000Y-108100000D03*
D15*
G04 #@! TD*
G04 #@! TO.P,D32,2*
G04 #@! TO.N,Net-(D32-Pad2)*
X148930000Y-101500000D03*
D17*
G04 #@! TO.P,D32,1*
G04 #@! TO.N,RowC*
X148930000Y-109300000D03*
D18*
X148930000Y-106975000D03*
G04 #@! TO.P,D32,2*
G04 #@! TO.N,Net-(D32-Pad2)*
X148930000Y-103825000D03*
G04 #@! TD*
D16*
G04 #@! TO.N,Net-(D33-Pad2)*
G04 #@! TO.C,D33*
X185740000Y-98410000D03*
G04 #@! TO.N,RowC*
X185740000Y-103810000D03*
D15*
G04 #@! TD*
G04 #@! TO.P,D33,2*
G04 #@! TO.N,Net-(D33-Pad2)*
X185740000Y-97210000D03*
D17*
G04 #@! TO.P,D33,1*
G04 #@! TO.N,RowC*
X185740000Y-105010000D03*
D18*
X185740000Y-102685000D03*
G04 #@! TO.P,D33,2*
G04 #@! TO.N,Net-(D33-Pad2)*
X185740000Y-99535000D03*
G04 #@! TD*
D16*
G04 #@! TO.N,Net-(D34-Pad2)*
G04 #@! TO.C,D34*
X204870000Y-98580000D03*
G04 #@! TO.N,RowC*
X204870000Y-103980000D03*
D15*
G04 #@! TD*
G04 #@! TO.P,D34,2*
G04 #@! TO.N,Net-(D34-Pad2)*
X204870000Y-97380000D03*
D17*
G04 #@! TO.P,D34,1*
G04 #@! TO.N,RowC*
X204870000Y-105180000D03*
D18*
X204870000Y-102855000D03*
G04 #@! TO.P,D34,2*
G04 #@! TO.N,Net-(D34-Pad2)*
X204870000Y-99705000D03*
G04 #@! TD*
D16*
G04 #@! TO.N,Net-(D35-Pad2)*
G04 #@! TO.C,D35*
X224000000Y-98410000D03*
G04 #@! TO.N,RowC*
X224000000Y-103810000D03*
D15*
G04 #@! TD*
G04 #@! TO.P,D35,2*
G04 #@! TO.N,Net-(D35-Pad2)*
X224000000Y-97210000D03*
D17*
G04 #@! TO.P,D35,1*
G04 #@! TO.N,RowC*
X224000000Y-105010000D03*
D18*
X224000000Y-102685000D03*
G04 #@! TO.P,D35,2*
G04 #@! TO.N,Net-(D35-Pad2)*
X224000000Y-99535000D03*
G04 #@! TD*
G04 #@! TO.P,D36,2*
G04 #@! TO.N,Net-(D36-Pad2)*
X242850000Y-99785000D03*
G04 #@! TO.P,D36,1*
G04 #@! TO.N,RowC*
X242850000Y-102935000D03*
D17*
X242850000Y-105260000D03*
D15*
G04 #@! TO.P,D36,2*
G04 #@! TO.N,Net-(D36-Pad2)*
X242850000Y-97460000D03*
D16*
G04 #@! TD*
G04 #@! TO.N,RowC*
G04 #@! TO.C,D36*
X242850000Y-104060000D03*
G04 #@! TO.N,Net-(D36-Pad2)*
G04 #@! TO.C,D36*
X242850000Y-98660000D03*
G04 #@! TD*
D18*
G04 #@! TO.P,D37,2*
G04 #@! TO.N,Net-(D37-Pad2)*
X261980000Y-99990000D03*
G04 #@! TO.P,D37,1*
G04 #@! TO.N,RowD*
X261980000Y-103140000D03*
D17*
X261980000Y-105465000D03*
D15*
G04 #@! TO.P,D37,2*
G04 #@! TO.N,Net-(D37-Pad2)*
X261980000Y-97665000D03*
D16*
G04 #@! TD*
G04 #@! TO.N,RowD*
G04 #@! TO.C,D37*
X261980000Y-104265000D03*
G04 #@! TO.N,Net-(D37-Pad2)*
G04 #@! TO.C,D37*
X261980000Y-98865000D03*
G04 #@! TD*
D18*
G04 #@! TO.P,D_1.25u1,2*
G04 #@! TO.N,Net-(D_1.25u1-Pad2)*
X283464000Y-103581000D03*
G04 #@! TO.P,D_1.25u1,1*
G04 #@! TO.N,RowD*
X283464000Y-106731000D03*
D17*
X283464000Y-109056000D03*
D15*
G04 #@! TO.P,D_1.25u1,2*
G04 #@! TO.N,Net-(D_1.25u1-Pad2)*
X283464000Y-101256000D03*
D16*
G04 #@! TD*
G04 #@! TO.N,RowD*
G04 #@! TO.C,D_1.25u1*
X283464000Y-107856000D03*
G04 #@! TO.N,Net-(D_1.25u1-Pad2)*
G04 #@! TO.C,D_1.25u1*
X283464000Y-102456000D03*
G04 #@! TD*
D13*
G04 #@! TO.P,K_2Uspc1,2*
G04 #@! TO.N,Net-(D32-Pad2)*
X164168229Y-109565016D03*
D14*
G04 #@! TD*
G04 #@! TO.N,Net-(D32-Pad2)*
G04 #@! TO.C,K_2Uspc1*
X164188000Y-109275000D02*
X164148458Y-109855032D01*
D13*
G04 #@! TO.P,K_2Uspc1,2*
G04 #@! TO.N,Net-(D32-Pad2)*
X164148000Y-109855000D03*
G04 #@! TO.P,K_2Uspc1,1*
G04 #@! TO.N,ColF*
X169843005Y-108045004D03*
D14*
G04 #@! TD*
G04 #@! TO.N,ColF*
G04 #@! TO.C,K_2Uspc1*
X170498000Y-107315000D02*
X169188010Y-108775008D01*
D13*
G04 #@! TO.P,K_2Uspc1,1*
G04 #@! TO.N,ColF*
X169188000Y-108775000D03*
D12*
G04 #@! TO.P,K_2Uspc1,2*
G04 #@! TO.N,Net-(D32-Pad2)*
X161688000Y-108575000D03*
G04 #@! TO.P,K_2Uspc1,1*
G04 #@! TO.N,ColF*
X166688000Y-110675000D03*
D11*
G04 #@! TO.P,K_2Uspc1,3*
G04 #@! TO.N,N/C*
X167958000Y-99695000D03*
D10*
G04 #@! TO.P,K_2Uspc1,4*
X165418000Y-99695000D03*
G04 #@! TD*
D22*
G04 #@! TO.P,K_ENC1,A*
G04 #@! TO.N,EncA*
X59412500Y-74175000D03*
D12*
G04 #@! TO.P,K_ENC1,C*
G04 #@! TO.N,GND*
X61912500Y-74175000D03*
G04 #@! TO.P,K_ENC1,B*
G04 #@! TO.N,EncB*
X64412500Y-74175000D03*
D23*
G04 #@! TO.P,K_ENC1,MP*
G04 #@! TO.N,N/C*
X56312500Y-66675000D03*
X67512500Y-66675000D03*
D12*
G04 #@! TO.P,K_ENC1,S2*
G04 #@! TO.N,RowA*
X59412500Y-59675000D03*
G04 #@! TO.P,K_ENC1,S1*
G04 #@! TO.N,ColA*
X64412500Y-59675000D03*
G04 #@! TD*
D24*
G04 #@! TO.P,SW_RST1,1*
G04 #@! TO.N,GND*
X145700000Y-73650000D03*
X145700000Y-79950000D03*
G04 #@! TO.P,SW_RST1,2*
G04 #@! TO.N,RST*
X149500000Y-73650000D03*
X149500000Y-79950000D03*
G04 #@! TD*
D13*
G04 #@! TO.P,K1,1*
G04 #@! TO.N,ColA*
X64432271Y-61884984D03*
D14*
G04 #@! TD*
G04 #@! TO.N,ColA*
G04 #@! TO.C,K1*
X64412500Y-62175000D02*
X64452042Y-61594968D01*
D13*
G04 #@! TO.P,K1,1*
G04 #@! TO.N,ColA*
X64452500Y-61595000D03*
G04 #@! TO.P,K1,2*
G04 #@! TO.N,Net-(D1-Pad2)*
X58757495Y-63404996D03*
D14*
G04 #@! TD*
G04 #@! TO.N,Net-(D1-Pad2)*
G04 #@! TO.C,K1*
X58102500Y-64135000D02*
X59412490Y-62674992D01*
D13*
G04 #@! TO.P,K1,2*
G04 #@! TO.N,Net-(D1-Pad2)*
X59412500Y-62675000D03*
D12*
G04 #@! TO.P,K1,1*
G04 #@! TO.N,ColA*
X66912500Y-62875000D03*
G04 #@! TO.P,K1,2*
G04 #@! TO.N,Net-(D1-Pad2)*
X61912500Y-60775000D03*
G04 #@! TD*
G04 #@! TO.P,K2,2*
G04 #@! TO.N,Net-(D2-Pad2)*
X80962500Y-60775000D03*
G04 #@! TO.P,K2,1*
G04 #@! TO.N,ColB*
X85962500Y-62875000D03*
D13*
G04 #@! TO.P,K2,2*
G04 #@! TO.N,Net-(D2-Pad2)*
X78462500Y-62675000D03*
X77807495Y-63404996D03*
D14*
G04 #@! TD*
G04 #@! TO.N,Net-(D2-Pad2)*
G04 #@! TO.C,K2*
X77152500Y-64135000D02*
X78462490Y-62674992D01*
D13*
G04 #@! TO.P,K2,1*
G04 #@! TO.N,ColB*
X83502500Y-61595000D03*
X83482271Y-61884984D03*
D14*
G04 #@! TD*
G04 #@! TO.N,ColB*
G04 #@! TO.C,K2*
X83462500Y-62175000D02*
X83502042Y-61594968D01*
D13*
G04 #@! TO.P,K3,1*
G04 #@! TO.N,ColC*
X102531771Y-61884984D03*
D14*
G04 #@! TD*
G04 #@! TO.N,ColC*
G04 #@! TO.C,K3*
X102512000Y-62175000D02*
X102551542Y-61594968D01*
D13*
G04 #@! TO.P,K3,1*
G04 #@! TO.N,ColC*
X102552000Y-61595000D03*
G04 #@! TO.P,K3,2*
G04 #@! TO.N,Net-(D3-Pad2)*
X96856995Y-63404996D03*
D14*
G04 #@! TD*
G04 #@! TO.N,Net-(D3-Pad2)*
G04 #@! TO.C,K3*
X96202000Y-64135000D02*
X97511990Y-62674992D01*
D13*
G04 #@! TO.P,K3,2*
G04 #@! TO.N,Net-(D3-Pad2)*
X97512000Y-62675000D03*
D12*
G04 #@! TO.P,K3,1*
G04 #@! TO.N,ColC*
X105012000Y-62875000D03*
G04 #@! TO.P,K3,2*
G04 #@! TO.N,Net-(D3-Pad2)*
X100012000Y-60775000D03*
G04 #@! TD*
G04 #@! TO.P,K4,2*
G04 #@! TO.N,Net-(D4-Pad2)*
X119062000Y-60775000D03*
G04 #@! TO.P,K4,1*
G04 #@! TO.N,ColD*
X124062000Y-62875000D03*
D13*
G04 #@! TO.P,K4,2*
G04 #@! TO.N,Net-(D4-Pad2)*
X116562000Y-62675000D03*
X115906995Y-63404996D03*
D14*
G04 #@! TD*
G04 #@! TO.N,Net-(D4-Pad2)*
G04 #@! TO.C,K4*
X115252000Y-64135000D02*
X116561990Y-62674992D01*
D13*
G04 #@! TO.P,K4,1*
G04 #@! TO.N,ColD*
X121602000Y-61595000D03*
X121581771Y-61884984D03*
D14*
G04 #@! TD*
G04 #@! TO.N,ColD*
G04 #@! TO.C,K4*
X121562000Y-62175000D02*
X121601542Y-61594968D01*
D12*
G04 #@! TO.P,K5,2*
G04 #@! TO.N,Net-(D5-Pad2)*
X138112000Y-60775000D03*
G04 #@! TO.P,K5,1*
G04 #@! TO.N,ColE*
X143112000Y-62875000D03*
D13*
G04 #@! TO.P,K5,2*
G04 #@! TO.N,Net-(D5-Pad2)*
X135612000Y-62675000D03*
X134956995Y-63404996D03*
D14*
G04 #@! TD*
G04 #@! TO.N,Net-(D5-Pad2)*
G04 #@! TO.C,K5*
X134302000Y-64135000D02*
X135611990Y-62674992D01*
D13*
G04 #@! TO.P,K5,1*
G04 #@! TO.N,ColE*
X140652000Y-61595000D03*
X140631771Y-61884984D03*
D14*
G04 #@! TD*
G04 #@! TO.N,ColE*
G04 #@! TO.C,K5*
X140612000Y-62175000D02*
X140651542Y-61594968D01*
D12*
G04 #@! TO.P,K6,2*
G04 #@! TO.N,Net-(D6-Pad2)*
X157162000Y-60775000D03*
G04 #@! TO.P,K6,1*
G04 #@! TO.N,ColF*
X162162000Y-62875000D03*
D13*
G04 #@! TO.P,K6,2*
G04 #@! TO.N,Net-(D6-Pad2)*
X154662000Y-62675000D03*
X154006995Y-63404996D03*
D14*
G04 #@! TD*
G04 #@! TO.N,Net-(D6-Pad2)*
G04 #@! TO.C,K6*
X153352000Y-64135000D02*
X154661990Y-62674992D01*
D13*
G04 #@! TO.P,K6,1*
G04 #@! TO.N,ColF*
X159702000Y-61595000D03*
X159681771Y-61884984D03*
D14*
G04 #@! TD*
G04 #@! TO.N,ColF*
G04 #@! TO.C,K6*
X159662000Y-62175000D02*
X159701542Y-61594968D01*
D12*
G04 #@! TO.P,K7,2*
G04 #@! TO.N,Net-(D7-Pad2)*
X176212000Y-60775000D03*
G04 #@! TO.P,K7,1*
G04 #@! TO.N,ColG*
X181212000Y-62875000D03*
D13*
G04 #@! TO.P,K7,2*
G04 #@! TO.N,Net-(D7-Pad2)*
X173712000Y-62675000D03*
X173056995Y-63404996D03*
D14*
G04 #@! TD*
G04 #@! TO.N,Net-(D7-Pad2)*
G04 #@! TO.C,K7*
X172402000Y-64135000D02*
X173711990Y-62674992D01*
D13*
G04 #@! TO.P,K7,1*
G04 #@! TO.N,ColG*
X178752000Y-61595000D03*
X178731771Y-61884984D03*
D14*
G04 #@! TD*
G04 #@! TO.N,ColG*
G04 #@! TO.C,K7*
X178712000Y-62175000D02*
X178751542Y-61594968D01*
D12*
G04 #@! TO.P,K8,2*
G04 #@! TO.N,Net-(D8-Pad2)*
X195262000Y-60775000D03*
G04 #@! TO.P,K8,1*
G04 #@! TO.N,ColH*
X200262000Y-62875000D03*
D13*
G04 #@! TO.P,K8,2*
G04 #@! TO.N,Net-(D8-Pad2)*
X192762000Y-62675000D03*
X192106995Y-63404996D03*
D14*
G04 #@! TD*
G04 #@! TO.N,Net-(D8-Pad2)*
G04 #@! TO.C,K8*
X191452000Y-64135000D02*
X192761990Y-62674992D01*
D13*
G04 #@! TO.P,K8,1*
G04 #@! TO.N,ColH*
X197802000Y-61595000D03*
X197781771Y-61884984D03*
D14*
G04 #@! TD*
G04 #@! TO.N,ColH*
G04 #@! TO.C,K8*
X197762000Y-62175000D02*
X197801542Y-61594968D01*
D12*
G04 #@! TO.P,K9,2*
G04 #@! TO.N,Net-(D9-Pad2)*
X214312000Y-60775000D03*
G04 #@! TO.P,K9,1*
G04 #@! TO.N,ColI*
X219312000Y-62875000D03*
D13*
G04 #@! TO.P,K9,2*
G04 #@! TO.N,Net-(D9-Pad2)*
X211812000Y-62675000D03*
X211156995Y-63404996D03*
D14*
G04 #@! TD*
G04 #@! TO.N,Net-(D9-Pad2)*
G04 #@! TO.C,K9*
X210502000Y-64135000D02*
X211811990Y-62674992D01*
D13*
G04 #@! TO.P,K9,1*
G04 #@! TO.N,ColI*
X216852000Y-61595000D03*
X216831771Y-61884984D03*
D14*
G04 #@! TD*
G04 #@! TO.N,ColI*
G04 #@! TO.C,K9*
X216812000Y-62175000D02*
X216851542Y-61594968D01*
D13*
G04 #@! TO.P,K10,1*
G04 #@! TO.N,ColJ*
X235881771Y-61884984D03*
D14*
G04 #@! TD*
G04 #@! TO.N,ColJ*
G04 #@! TO.C,K10*
X235862000Y-62175000D02*
X235901542Y-61594968D01*
D13*
G04 #@! TO.P,K10,1*
G04 #@! TO.N,ColJ*
X235902000Y-61595000D03*
G04 #@! TO.P,K10,2*
G04 #@! TO.N,Net-(D10-Pad2)*
X230206995Y-63404996D03*
D14*
G04 #@! TD*
G04 #@! TO.N,Net-(D10-Pad2)*
G04 #@! TO.C,K10*
X229552000Y-64135000D02*
X230861990Y-62674992D01*
D13*
G04 #@! TO.P,K10,2*
G04 #@! TO.N,Net-(D10-Pad2)*
X230862000Y-62675000D03*
D12*
G04 #@! TO.P,K10,1*
G04 #@! TO.N,ColJ*
X238362000Y-62875000D03*
G04 #@! TO.P,K10,2*
G04 #@! TO.N,Net-(D10-Pad2)*
X233362000Y-60775000D03*
G04 #@! TD*
G04 #@! TO.P,K11,2*
G04 #@! TO.N,Net-(D11-Pad2)*
X252412000Y-60775000D03*
G04 #@! TO.P,K11,1*
G04 #@! TO.N,ColA*
X257412000Y-62875000D03*
D13*
G04 #@! TO.P,K11,2*
G04 #@! TO.N,Net-(D11-Pad2)*
X249912000Y-62675000D03*
X249256995Y-63404996D03*
D14*
G04 #@! TD*
G04 #@! TO.N,Net-(D11-Pad2)*
G04 #@! TO.C,K11*
X248602000Y-64135000D02*
X249911990Y-62674992D01*
D13*
G04 #@! TO.P,K11,1*
G04 #@! TO.N,ColA*
X254952000Y-61595000D03*
X254931771Y-61884984D03*
D14*
G04 #@! TD*
G04 #@! TO.N,ColA*
G04 #@! TO.C,K11*
X254912000Y-62175000D02*
X254951542Y-61594968D01*
D12*
G04 #@! TO.P,K12,2*
G04 #@! TO.N,Net-(D12-Pad2)*
X271462000Y-60775000D03*
G04 #@! TO.P,K12,1*
G04 #@! TO.N,ColB*
X276462000Y-62875000D03*
D13*
G04 #@! TO.P,K12,2*
G04 #@! TO.N,Net-(D12-Pad2)*
X268962000Y-62675000D03*
X268306995Y-63404996D03*
D14*
G04 #@! TD*
G04 #@! TO.N,Net-(D12-Pad2)*
G04 #@! TO.C,K12*
X267652000Y-64135000D02*
X268961990Y-62674992D01*
D13*
G04 #@! TO.P,K12,1*
G04 #@! TO.N,ColB*
X274002000Y-61595000D03*
X273981771Y-61884984D03*
D14*
G04 #@! TD*
G04 #@! TO.N,ColB*
G04 #@! TO.C,K12*
X273962000Y-62175000D02*
X274001542Y-61594968D01*
D12*
G04 #@! TO.P,K14,2*
G04 #@! TO.N,Net-(D14-Pad2)*
X61912500Y-79825000D03*
G04 #@! TO.P,K14,1*
G04 #@! TO.N,ColA*
X66912500Y-81925000D03*
D13*
G04 #@! TO.P,K14,2*
G04 #@! TO.N,Net-(D14-Pad2)*
X59412500Y-81725000D03*
X58757495Y-82454996D03*
D14*
G04 #@! TD*
G04 #@! TO.N,Net-(D14-Pad2)*
G04 #@! TO.C,K14*
X58102500Y-83185000D02*
X59412490Y-81724992D01*
D13*
G04 #@! TO.P,K14,1*
G04 #@! TO.N,ColA*
X64452500Y-80645000D03*
X64432271Y-80934984D03*
D14*
G04 #@! TD*
G04 #@! TO.N,ColA*
G04 #@! TO.C,K14*
X64412500Y-81225000D02*
X64452042Y-80644968D01*
D12*
G04 #@! TO.P,K15,2*
G04 #@! TO.N,Net-(D15-Pad2)*
X80962500Y-79825000D03*
G04 #@! TO.P,K15,1*
G04 #@! TO.N,ColB*
X85962500Y-81925000D03*
D13*
G04 #@! TO.P,K15,2*
G04 #@! TO.N,Net-(D15-Pad2)*
X78462500Y-81725000D03*
X77807495Y-82454996D03*
D14*
G04 #@! TD*
G04 #@! TO.N,Net-(D15-Pad2)*
G04 #@! TO.C,K15*
X77152500Y-83185000D02*
X78462490Y-81724992D01*
D13*
G04 #@! TO.P,K15,1*
G04 #@! TO.N,ColB*
X83502500Y-80645000D03*
X83482271Y-80934984D03*
D14*
G04 #@! TD*
G04 #@! TO.N,ColB*
G04 #@! TO.C,K15*
X83462500Y-81225000D02*
X83502042Y-80644968D01*
D12*
G04 #@! TO.P,K16,2*
G04 #@! TO.N,Net-(D16-Pad2)*
X100012000Y-79825000D03*
G04 #@! TO.P,K16,1*
G04 #@! TO.N,ColC*
X105012000Y-81925000D03*
D13*
G04 #@! TO.P,K16,2*
G04 #@! TO.N,Net-(D16-Pad2)*
X97512000Y-81725000D03*
X96856995Y-82454996D03*
D14*
G04 #@! TD*
G04 #@! TO.N,Net-(D16-Pad2)*
G04 #@! TO.C,K16*
X96202000Y-83185000D02*
X97511990Y-81724992D01*
D13*
G04 #@! TO.P,K16,1*
G04 #@! TO.N,ColC*
X102552000Y-80645000D03*
X102531771Y-80934984D03*
D14*
G04 #@! TD*
G04 #@! TO.N,ColC*
G04 #@! TO.C,K16*
X102512000Y-81225000D02*
X102551542Y-80644968D01*
D12*
G04 #@! TO.P,K17,2*
G04 #@! TO.N,Net-(D17-Pad2)*
X119062000Y-79825000D03*
G04 #@! TO.P,K17,1*
G04 #@! TO.N,ColD*
X124062000Y-81925000D03*
D13*
G04 #@! TO.P,K17,2*
G04 #@! TO.N,Net-(D17-Pad2)*
X116562000Y-81725000D03*
X115906995Y-82454996D03*
D14*
G04 #@! TD*
G04 #@! TO.N,Net-(D17-Pad2)*
G04 #@! TO.C,K17*
X115252000Y-83185000D02*
X116561990Y-81724992D01*
D13*
G04 #@! TO.P,K17,1*
G04 #@! TO.N,ColD*
X121602000Y-80645000D03*
X121581771Y-80934984D03*
D14*
G04 #@! TD*
G04 #@! TO.N,ColD*
G04 #@! TO.C,K17*
X121562000Y-81225000D02*
X121601542Y-80644968D01*
D12*
G04 #@! TO.P,K18,2*
G04 #@! TO.N,Net-(D18-Pad2)*
X138112000Y-79825000D03*
G04 #@! TO.P,K18,1*
G04 #@! TO.N,ColE*
X143112000Y-81925000D03*
D13*
G04 #@! TO.P,K18,2*
G04 #@! TO.N,Net-(D18-Pad2)*
X135612000Y-81725000D03*
X134956995Y-82454996D03*
D14*
G04 #@! TD*
G04 #@! TO.N,Net-(D18-Pad2)*
G04 #@! TO.C,K18*
X134302000Y-83185000D02*
X135611990Y-81724992D01*
D13*
G04 #@! TO.P,K18,1*
G04 #@! TO.N,ColE*
X140652000Y-80645000D03*
X140631771Y-80934984D03*
D14*
G04 #@! TD*
G04 #@! TO.N,ColE*
G04 #@! TO.C,K18*
X140612000Y-81225000D02*
X140651542Y-80644968D01*
D12*
G04 #@! TO.P,K19,2*
G04 #@! TO.N,Net-(D19-Pad2)*
X157162000Y-79825000D03*
G04 #@! TO.P,K19,1*
G04 #@! TO.N,ColF*
X162162000Y-81925000D03*
D13*
G04 #@! TO.P,K19,2*
G04 #@! TO.N,Net-(D19-Pad2)*
X154662000Y-81725000D03*
X154006995Y-82454996D03*
D14*
G04 #@! TD*
G04 #@! TO.N,Net-(D19-Pad2)*
G04 #@! TO.C,K19*
X153352000Y-83185000D02*
X154661990Y-81724992D01*
D13*
G04 #@! TO.P,K19,1*
G04 #@! TO.N,ColF*
X159702000Y-80645000D03*
X159681771Y-80934984D03*
D14*
G04 #@! TD*
G04 #@! TO.N,ColF*
G04 #@! TO.C,K19*
X159662000Y-81225000D02*
X159701542Y-80644968D01*
D12*
G04 #@! TO.P,K20,2*
G04 #@! TO.N,Net-(D20-Pad2)*
X176212000Y-79825000D03*
G04 #@! TO.P,K20,1*
G04 #@! TO.N,ColG*
X181212000Y-81925000D03*
D13*
G04 #@! TO.P,K20,2*
G04 #@! TO.N,Net-(D20-Pad2)*
X173712000Y-81725000D03*
X173056995Y-82454996D03*
D14*
G04 #@! TD*
G04 #@! TO.N,Net-(D20-Pad2)*
G04 #@! TO.C,K20*
X172402000Y-83185000D02*
X173711990Y-81724992D01*
D13*
G04 #@! TO.P,K20,1*
G04 #@! TO.N,ColG*
X178752000Y-80645000D03*
X178731771Y-80934984D03*
D14*
G04 #@! TD*
G04 #@! TO.N,ColG*
G04 #@! TO.C,K20*
X178712000Y-81225000D02*
X178751542Y-80644968D01*
D12*
G04 #@! TO.P,K21,2*
G04 #@! TO.N,Net-(D21-Pad2)*
X195262000Y-79825000D03*
G04 #@! TO.P,K21,1*
G04 #@! TO.N,ColH*
X200262000Y-81925000D03*
D13*
G04 #@! TO.P,K21,2*
G04 #@! TO.N,Net-(D21-Pad2)*
X192762000Y-81725000D03*
X192106995Y-82454996D03*
D14*
G04 #@! TD*
G04 #@! TO.N,Net-(D21-Pad2)*
G04 #@! TO.C,K21*
X191452000Y-83185000D02*
X192761990Y-81724992D01*
D13*
G04 #@! TO.P,K21,1*
G04 #@! TO.N,ColH*
X197802000Y-80645000D03*
X197781771Y-80934984D03*
D14*
G04 #@! TD*
G04 #@! TO.N,ColH*
G04 #@! TO.C,K21*
X197762000Y-81225000D02*
X197801542Y-80644968D01*
D13*
G04 #@! TO.P,K22,1*
G04 #@! TO.N,ColI*
X216831771Y-80934984D03*
D14*
G04 #@! TD*
G04 #@! TO.N,ColI*
G04 #@! TO.C,K22*
X216812000Y-81225000D02*
X216851542Y-80644968D01*
D13*
G04 #@! TO.P,K22,1*
G04 #@! TO.N,ColI*
X216852000Y-80645000D03*
G04 #@! TO.P,K22,2*
G04 #@! TO.N,Net-(D22-Pad2)*
X211156995Y-82454996D03*
D14*
G04 #@! TD*
G04 #@! TO.N,Net-(D22-Pad2)*
G04 #@! TO.C,K22*
X210502000Y-83185000D02*
X211811990Y-81724992D01*
D13*
G04 #@! TO.P,K22,2*
G04 #@! TO.N,Net-(D22-Pad2)*
X211812000Y-81725000D03*
D12*
G04 #@! TO.P,K22,1*
G04 #@! TO.N,ColI*
X219312000Y-81925000D03*
G04 #@! TO.P,K22,2*
G04 #@! TO.N,Net-(D22-Pad2)*
X214312000Y-79825000D03*
G04 #@! TD*
D13*
G04 #@! TO.P,K23,1*
G04 #@! TO.N,ColJ*
X235881771Y-80934984D03*
D14*
G04 #@! TD*
G04 #@! TO.N,ColJ*
G04 #@! TO.C,K23*
X235862000Y-81225000D02*
X235901542Y-80644968D01*
D13*
G04 #@! TO.P,K23,1*
G04 #@! TO.N,ColJ*
X235902000Y-80645000D03*
G04 #@! TO.P,K23,2*
G04 #@! TO.N,Net-(D23-Pad2)*
X230206995Y-82454996D03*
D14*
G04 #@! TD*
G04 #@! TO.N,Net-(D23-Pad2)*
G04 #@! TO.C,K23*
X229552000Y-83185000D02*
X230861990Y-81724992D01*
D13*
G04 #@! TO.P,K23,2*
G04 #@! TO.N,Net-(D23-Pad2)*
X230862000Y-81725000D03*
D12*
G04 #@! TO.P,K23,1*
G04 #@! TO.N,ColJ*
X238362000Y-81925000D03*
G04 #@! TO.P,K23,2*
G04 #@! TO.N,Net-(D23-Pad2)*
X233362000Y-79825000D03*
G04 #@! TD*
D13*
G04 #@! TO.P,K24,1*
G04 #@! TO.N,ColD*
X254931771Y-80934984D03*
D14*
G04 #@! TD*
G04 #@! TO.N,ColD*
G04 #@! TO.C,K24*
X254912000Y-81225000D02*
X254951542Y-80644968D01*
D13*
G04 #@! TO.P,K24,1*
G04 #@! TO.N,ColD*
X254952000Y-80645000D03*
G04 #@! TO.P,K24,2*
G04 #@! TO.N,Net-(D24-Pad2)*
X249256995Y-82454996D03*
D14*
G04 #@! TD*
G04 #@! TO.N,Net-(D24-Pad2)*
G04 #@! TO.C,K24*
X248602000Y-83185000D02*
X249911990Y-81724992D01*
D13*
G04 #@! TO.P,K24,2*
G04 #@! TO.N,Net-(D24-Pad2)*
X249912000Y-81725000D03*
D12*
G04 #@! TO.P,K24,1*
G04 #@! TO.N,ColD*
X257412000Y-81925000D03*
G04 #@! TO.P,K24,2*
G04 #@! TO.N,Net-(D24-Pad2)*
X252412000Y-79825000D03*
G04 #@! TD*
D13*
G04 #@! TO.P,K25,1*
G04 #@! TO.N,ColE*
X273981771Y-80934984D03*
D14*
G04 #@! TD*
G04 #@! TO.N,ColE*
G04 #@! TO.C,K25*
X273962000Y-81225000D02*
X274001542Y-80644968D01*
D13*
G04 #@! TO.P,K25,1*
G04 #@! TO.N,ColE*
X274002000Y-80645000D03*
G04 #@! TO.P,K25,2*
G04 #@! TO.N,Net-(D25-Pad2)*
X268306995Y-82454996D03*
D14*
G04 #@! TD*
G04 #@! TO.N,Net-(D25-Pad2)*
G04 #@! TO.C,K25*
X267652000Y-83185000D02*
X268961990Y-81724992D01*
D13*
G04 #@! TO.P,K25,2*
G04 #@! TO.N,Net-(D25-Pad2)*
X268962000Y-81725000D03*
D12*
G04 #@! TO.P,K25,1*
G04 #@! TO.N,ColE*
X276462000Y-81925000D03*
G04 #@! TO.P,K25,2*
G04 #@! TO.N,Net-(D25-Pad2)*
X271462000Y-79825000D03*
G04 #@! TD*
D13*
G04 #@! TO.P,K27,1*
G04 #@! TO.N,ColA*
X64432271Y-99984984D03*
D14*
G04 #@! TD*
G04 #@! TO.N,ColA*
G04 #@! TO.C,K27*
X64412500Y-100275000D02*
X64452042Y-99694968D01*
D13*
G04 #@! TO.P,K27,1*
G04 #@! TO.N,ColA*
X64452500Y-99695000D03*
G04 #@! TO.P,K27,2*
G04 #@! TO.N,Net-(D27-Pad2)*
X58757495Y-101504996D03*
D14*
G04 #@! TD*
G04 #@! TO.N,Net-(D27-Pad2)*
G04 #@! TO.C,K27*
X58102500Y-102235000D02*
X59412490Y-100774992D01*
D13*
G04 #@! TO.P,K27,2*
G04 #@! TO.N,Net-(D27-Pad2)*
X59412500Y-100775000D03*
D12*
G04 #@! TO.P,K27,1*
G04 #@! TO.N,ColA*
X66912500Y-100975000D03*
G04 #@! TO.P,K27,2*
G04 #@! TO.N,Net-(D27-Pad2)*
X61912500Y-98875000D03*
G04 #@! TD*
D13*
G04 #@! TO.P,K28,1*
G04 #@! TO.N,ColB*
X83482271Y-99984984D03*
D14*
G04 #@! TD*
G04 #@! TO.N,ColB*
G04 #@! TO.C,K28*
X83462500Y-100275000D02*
X83502042Y-99694968D01*
D13*
G04 #@! TO.P,K28,1*
G04 #@! TO.N,ColB*
X83502500Y-99695000D03*
G04 #@! TO.P,K28,2*
G04 #@! TO.N,Net-(D28-Pad2)*
X77807495Y-101504996D03*
D14*
G04 #@! TD*
G04 #@! TO.N,Net-(D28-Pad2)*
G04 #@! TO.C,K28*
X77152500Y-102235000D02*
X78462490Y-100774992D01*
D13*
G04 #@! TO.P,K28,2*
G04 #@! TO.N,Net-(D28-Pad2)*
X78462500Y-100775000D03*
D12*
G04 #@! TO.P,K28,1*
G04 #@! TO.N,ColB*
X85962500Y-100975000D03*
G04 #@! TO.P,K28,2*
G04 #@! TO.N,Net-(D28-Pad2)*
X80962500Y-98875000D03*
G04 #@! TD*
D13*
G04 #@! TO.P,K29,1*
G04 #@! TO.N,ColC*
X102531771Y-99984984D03*
D14*
G04 #@! TD*
G04 #@! TO.N,ColC*
G04 #@! TO.C,K29*
X102512000Y-100275000D02*
X102551542Y-99694968D01*
D13*
G04 #@! TO.P,K29,1*
G04 #@! TO.N,ColC*
X102552000Y-99695000D03*
G04 #@! TO.P,K29,2*
G04 #@! TO.N,Net-(D29-Pad2)*
X96856995Y-101504996D03*
D14*
G04 #@! TD*
G04 #@! TO.N,Net-(D29-Pad2)*
G04 #@! TO.C,K29*
X96202000Y-102235000D02*
X97511990Y-100774992D01*
D13*
G04 #@! TO.P,K29,2*
G04 #@! TO.N,Net-(D29-Pad2)*
X97512000Y-100775000D03*
D12*
G04 #@! TO.P,K29,1*
G04 #@! TO.N,ColC*
X105012000Y-100975000D03*
G04 #@! TO.P,K29,2*
G04 #@! TO.N,Net-(D29-Pad2)*
X100012000Y-98875000D03*
G04 #@! TD*
D13*
G04 #@! TO.P,K30,1*
G04 #@! TO.N,ColD*
X121581771Y-99984984D03*
D14*
G04 #@! TD*
G04 #@! TO.N,ColD*
G04 #@! TO.C,K30*
X121562000Y-100275000D02*
X121601542Y-99694968D01*
D13*
G04 #@! TO.P,K30,1*
G04 #@! TO.N,ColD*
X121602000Y-99695000D03*
G04 #@! TO.P,K30,2*
G04 #@! TO.N,Net-(D30-Pad2)*
X115906995Y-101504996D03*
D14*
G04 #@! TD*
G04 #@! TO.N,Net-(D30-Pad2)*
G04 #@! TO.C,K30*
X115252000Y-102235000D02*
X116561990Y-100774992D01*
D13*
G04 #@! TO.P,K30,2*
G04 #@! TO.N,Net-(D30-Pad2)*
X116562000Y-100775000D03*
D12*
G04 #@! TO.P,K30,1*
G04 #@! TO.N,ColD*
X124062000Y-100975000D03*
G04 #@! TO.P,K30,2*
G04 #@! TO.N,Net-(D30-Pad2)*
X119062000Y-98875000D03*
G04 #@! TD*
D13*
G04 #@! TO.P,K31,1*
G04 #@! TO.N,ColE*
X140631771Y-99984984D03*
D14*
G04 #@! TD*
G04 #@! TO.N,ColE*
G04 #@! TO.C,K31*
X140612000Y-100275000D02*
X140651542Y-99694968D01*
D13*
G04 #@! TO.P,K31,1*
G04 #@! TO.N,ColE*
X140652000Y-99695000D03*
G04 #@! TO.P,K31,2*
G04 #@! TO.N,Net-(D31-Pad2)*
X134956995Y-101504996D03*
D14*
G04 #@! TD*
G04 #@! TO.N,Net-(D31-Pad2)*
G04 #@! TO.C,K31*
X134302000Y-102235000D02*
X135611990Y-100774992D01*
D13*
G04 #@! TO.P,K31,2*
G04 #@! TO.N,Net-(D31-Pad2)*
X135612000Y-100775000D03*
D12*
G04 #@! TO.P,K31,1*
G04 #@! TO.N,ColE*
X143112000Y-100975000D03*
G04 #@! TO.P,K31,2*
G04 #@! TO.N,Net-(D31-Pad2)*
X138112000Y-98875000D03*
G04 #@! TD*
G04 #@! TO.P,K32,2*
G04 #@! TO.N,Net-(D32-Pad2)*
X157162000Y-98875000D03*
G04 #@! TO.P,K32,1*
G04 #@! TO.N,ColF*
X162162000Y-100975000D03*
D13*
G04 #@! TO.P,K32,2*
G04 #@! TO.N,Net-(D32-Pad2)*
X154662000Y-100775000D03*
X154006995Y-101504996D03*
D14*
G04 #@! TD*
G04 #@! TO.N,Net-(D32-Pad2)*
G04 #@! TO.C,K32*
X153352000Y-102235000D02*
X154661990Y-100774992D01*
D13*
G04 #@! TO.P,K32,1*
G04 #@! TO.N,ColF*
X159702000Y-99695000D03*
X159681771Y-99984984D03*
D14*
G04 #@! TD*
G04 #@! TO.N,ColF*
G04 #@! TO.C,K32*
X159662000Y-100275000D02*
X159701542Y-99694968D01*
D13*
G04 #@! TO.P,K33,1*
G04 #@! TO.N,ColG*
X178731771Y-99984984D03*
D14*
G04 #@! TD*
G04 #@! TO.N,ColG*
G04 #@! TO.C,K33*
X178712000Y-100275000D02*
X178751542Y-99694968D01*
D13*
G04 #@! TO.P,K33,1*
G04 #@! TO.N,ColG*
X178752000Y-99695000D03*
G04 #@! TO.P,K33,2*
G04 #@! TO.N,Net-(D33-Pad2)*
X173056995Y-101504996D03*
D14*
G04 #@! TD*
G04 #@! TO.N,Net-(D33-Pad2)*
G04 #@! TO.C,K33*
X172402000Y-102235000D02*
X173711990Y-100774992D01*
D13*
G04 #@! TO.P,K33,2*
G04 #@! TO.N,Net-(D33-Pad2)*
X173712000Y-100775000D03*
D12*
G04 #@! TO.P,K33,1*
G04 #@! TO.N,ColG*
X181212000Y-100975000D03*
G04 #@! TO.P,K33,2*
G04 #@! TO.N,Net-(D33-Pad2)*
X176212000Y-98875000D03*
G04 #@! TD*
D13*
G04 #@! TO.P,K34,1*
G04 #@! TO.N,ColH*
X197781771Y-99984984D03*
D14*
G04 #@! TD*
G04 #@! TO.N,ColH*
G04 #@! TO.C,K34*
X197762000Y-100275000D02*
X197801542Y-99694968D01*
D13*
G04 #@! TO.P,K34,1*
G04 #@! TO.N,ColH*
X197802000Y-99695000D03*
G04 #@! TO.P,K34,2*
G04 #@! TO.N,Net-(D34-Pad2)*
X192106995Y-101504996D03*
D14*
G04 #@! TD*
G04 #@! TO.N,Net-(D34-Pad2)*
G04 #@! TO.C,K34*
X191452000Y-102235000D02*
X192761990Y-100774992D01*
D13*
G04 #@! TO.P,K34,2*
G04 #@! TO.N,Net-(D34-Pad2)*
X192762000Y-100775000D03*
D12*
G04 #@! TO.P,K34,1*
G04 #@! TO.N,ColH*
X200262000Y-100975000D03*
G04 #@! TO.P,K34,2*
G04 #@! TO.N,Net-(D34-Pad2)*
X195262000Y-98875000D03*
G04 #@! TD*
D13*
G04 #@! TO.P,K35,1*
G04 #@! TO.N,ColI*
X216831771Y-99984984D03*
D14*
G04 #@! TD*
G04 #@! TO.N,ColI*
G04 #@! TO.C,K35*
X216812000Y-100275000D02*
X216851542Y-99694968D01*
D13*
G04 #@! TO.P,K35,1*
G04 #@! TO.N,ColI*
X216852000Y-99695000D03*
G04 #@! TO.P,K35,2*
G04 #@! TO.N,Net-(D35-Pad2)*
X211156995Y-101504996D03*
D14*
G04 #@! TD*
G04 #@! TO.N,Net-(D35-Pad2)*
G04 #@! TO.C,K35*
X210502000Y-102235000D02*
X211811990Y-100774992D01*
D13*
G04 #@! TO.P,K35,2*
G04 #@! TO.N,Net-(D35-Pad2)*
X211812000Y-100775000D03*
D12*
G04 #@! TO.P,K35,1*
G04 #@! TO.N,ColI*
X219312000Y-100975000D03*
G04 #@! TO.P,K35,2*
G04 #@! TO.N,Net-(D35-Pad2)*
X214312000Y-98875000D03*
G04 #@! TD*
D13*
G04 #@! TO.P,K36,1*
G04 #@! TO.N,ColJ*
X235881771Y-99984984D03*
D14*
G04 #@! TD*
G04 #@! TO.N,ColJ*
G04 #@! TO.C,K36*
X235862000Y-100275000D02*
X235901542Y-99694968D01*
D13*
G04 #@! TO.P,K36,1*
G04 #@! TO.N,ColJ*
X235902000Y-99695000D03*
G04 #@! TO.P,K36,2*
G04 #@! TO.N,Net-(D36-Pad2)*
X230206995Y-101504996D03*
D14*
G04 #@! TD*
G04 #@! TO.N,Net-(D36-Pad2)*
G04 #@! TO.C,K36*
X229552000Y-102235000D02*
X230861990Y-100774992D01*
D13*
G04 #@! TO.P,K36,2*
G04 #@! TO.N,Net-(D36-Pad2)*
X230862000Y-100775000D03*
D12*
G04 #@! TO.P,K36,1*
G04 #@! TO.N,ColJ*
X238362000Y-100975000D03*
G04 #@! TO.P,K36,2*
G04 #@! TO.N,Net-(D36-Pad2)*
X233362000Y-98875000D03*
G04 #@! TD*
D13*
G04 #@! TO.P,K37,1*
G04 #@! TO.N,ColG*
X254931771Y-99984984D03*
D14*
G04 #@! TD*
G04 #@! TO.N,ColG*
G04 #@! TO.C,K37*
X254912000Y-100275000D02*
X254951542Y-99694968D01*
D13*
G04 #@! TO.P,K37,1*
G04 #@! TO.N,ColG*
X254952000Y-99695000D03*
G04 #@! TO.P,K37,2*
G04 #@! TO.N,Net-(D37-Pad2)*
X249256995Y-101504996D03*
D14*
G04 #@! TD*
G04 #@! TO.N,Net-(D37-Pad2)*
G04 #@! TO.C,K37*
X248602000Y-102235000D02*
X249911990Y-100774992D01*
D13*
G04 #@! TO.P,K37,2*
G04 #@! TO.N,Net-(D37-Pad2)*
X249912000Y-100775000D03*
D12*
G04 #@! TO.P,K37,1*
G04 #@! TO.N,ColG*
X257412000Y-100975000D03*
G04 #@! TO.P,K37,2*
G04 #@! TO.N,Net-(D37-Pad2)*
X252412000Y-98875000D03*
G04 #@! TD*
D13*
G04 #@! TO.P,K_1.25u1,1*
G04 #@! TO.N,ColH*
X276419771Y-100009984D03*
D14*
G04 #@! TD*
G04 #@! TO.N,ColH*
G04 #@! TO.C,K_1.25u1*
X276400000Y-100300000D02*
X276439542Y-99719968D01*
D13*
G04 #@! TO.P,K_1.25u1,1*
G04 #@! TO.N,ColH*
X276440000Y-99720000D03*
G04 #@! TO.P,K_1.25u1,2*
G04 #@! TO.N,Net-(D_1.25u1-Pad2)*
X270744995Y-101529996D03*
D14*
G04 #@! TD*
G04 #@! TO.N,Net-(D_1.25u1-Pad2)*
G04 #@! TO.C,K_1.25u1*
X270090000Y-102260000D02*
X271399990Y-100799992D01*
D13*
G04 #@! TO.P,K_1.25u1,2*
G04 #@! TO.N,Net-(D_1.25u1-Pad2)*
X271400000Y-100800000D03*
D12*
G04 #@! TO.P,K_1.25u1,1*
G04 #@! TO.N,ColH*
X278900000Y-101000000D03*
G04 #@! TO.P,K_1.25u1,2*
G04 #@! TO.N,Net-(D_1.25u1-Pad2)*
X273900000Y-98900000D03*
G04 #@! TD*
D13*
G04 #@! TO.P,K_BCKSPC1,1*
G04 #@! TO.N,ColC*
X297794771Y-61884984D03*
D14*
G04 #@! TD*
G04 #@! TO.N,ColC*
G04 #@! TO.C,K_BCKSPC1*
X297775000Y-62175000D02*
X297814542Y-61594968D01*
D13*
G04 #@! TO.P,K_BCKSPC1,1*
G04 #@! TO.N,ColC*
X297815000Y-61595000D03*
G04 #@! TO.P,K_BCKSPC1,2*
G04 #@! TO.N,Net-(D13-Pad2)*
X292119995Y-63404996D03*
D14*
G04 #@! TD*
G04 #@! TO.N,Net-(D13-Pad2)*
G04 #@! TO.C,K_BCKSPC1*
X291465000Y-64135000D02*
X292774990Y-62674992D01*
D13*
G04 #@! TO.P,K_BCKSPC1,2*
G04 #@! TO.N,Net-(D13-Pad2)*
X292775000Y-62675000D03*
D12*
G04 #@! TO.P,K_BCKSPC1,1*
G04 #@! TO.N,ColC*
X300275000Y-62875000D03*
G04 #@! TO.P,K_BCKSPC1,2*
G04 #@! TO.N,Net-(D13-Pad2)*
X295275000Y-60775000D03*
G04 #@! TD*
D18*
G04 #@! TO.P,D_ISOENTR1,2*
G04 #@! TO.N,Net-(D_ISOENTR1-Pad2)*
X283600000Y-84725000D03*
G04 #@! TO.P,D_ISOENTR1,1*
G04 #@! TO.N,RowD*
X283600000Y-87875000D03*
D17*
X283600000Y-90200000D03*
D15*
G04 #@! TO.P,D_ISOENTR1,2*
G04 #@! TO.N,Net-(D_ISOENTR1-Pad2)*
X283600000Y-82400000D03*
D16*
G04 #@! TD*
G04 #@! TO.N,RowD*
G04 #@! TO.C,D_ISOENTR1*
X283600000Y-89000000D03*
G04 #@! TO.N,Net-(D_ISOENTR1-Pad2)*
G04 #@! TO.C,D_ISOENTR1*
X283600000Y-83600000D03*
G04 #@! TD*
D19*
G04 #@! TO.P,LED_DATA1,1*
G04 #@! TO.N,RGB*
X53700000Y-96800000D03*
G04 #@! TD*
G04 #@! TO.P,LED_GND1,1*
G04 #@! TO.N,GND*
X53700000Y-99500000D03*
G04 #@! TD*
G04 #@! TO.P,LED_PWR1,1*
G04 #@! TO.N,RGB_PWR*
X53600000Y-93400000D03*
G04 #@! TD*
D25*
G04 #@! TO.P,SW2,1*
G04 #@! TO.N,DP1*
X281050000Y-59430000D03*
G04 #@! TO.P,SW2,2*
G04 #@! TO.N,GND*
X284050000Y-59430000D03*
G04 #@! TO.P,SW2,3*
G04 #@! TO.N,Net-(SW2-Pad3)*
X285550000Y-59430000D03*
D26*
G04 #@! TO.P,SW2,*
G04 #@! TO.N,*
X279650000Y-56570000D03*
X286950000Y-56570000D03*
X286950000Y-58780000D03*
X279650000Y-58780000D03*
G04 #@! TD*
D27*
G04 #@! TO.P,M3_1,1*
G04 #@! TO.N,N/C*
X71420000Y-76220000D03*
G04 #@! TD*
G04 #@! TO.P,M3_3,1*
G04 #@! TO.N,N/C*
X128520000Y-76250000D03*
G04 #@! TD*
G04 #@! TO.P,M3_4,1*
G04 #@! TO.N,N/C*
X185390000Y-76190000D03*
G04 #@! TD*
G04 #@! TO.P,M3_2,1*
G04 #@! TO.N,N/C*
X90450000Y-107200000D03*
G04 #@! TD*
G04 #@! TO.P,M3_6,1*
G04 #@! TO.N,N/C*
X242900000Y-76030000D03*
G04 #@! TD*
G04 #@! TO.P,M3_5,1*
G04 #@! TO.N,N/C*
X204810000Y-109540000D03*
G04 #@! TD*
G04 #@! TO.P,M3_7,1*
G04 #@! TO.N,N/C*
X296510000Y-77420000D03*
G04 #@! TD*
D28*
G04 #@! TO.N,Net-(D3-Pad2)*
X86867100Y-69561900D03*
G04 #@! TO.N,RowB*
X106372500Y-79788700D03*
X113696000Y-80976000D03*
X112606000Y-79776000D03*
G04 #@! TO.N,ColE*
X87539600Y-68319300D03*
X105451300Y-61271900D03*
G04 #@! TO.N,ColH*
X87875200Y-79648900D03*
G04 #@! TO.N,EncA*
X103232700Y-56909900D03*
G04 #@! TO.N,GND*
X141942500Y-68717200D03*
G04 #@! TO.N,RGB*
X64896400Y-72548300D03*
X112597300Y-69480500D03*
G04 #@! TD*
D29*
G04 #@! TO.N,Net-(D1-Pad2)*
X70300000Y-63156000D02*
X70300000Y-64356000D01*
X61912500Y-60775000D02*
X61912500Y-60215900D01*
X61912500Y-60215900D02*
X63778700Y-58349700D01*
X63778700Y-58349700D02*
X65493700Y-58349700D01*
X65493700Y-58349700D02*
X70300000Y-63156000D01*
X61912500Y-60775000D02*
X60012500Y-62675000D01*
X60012500Y-62675000D02*
X59412500Y-62675000D01*
X70300000Y-65481000D02*
X70300000Y-64356000D01*
X58102500Y-63985000D02*
X59412500Y-62675000D01*
X58102500Y-64135000D02*
X58102500Y-63985000D01*
G04 #@! TO.N,Net-(D2-Pad2)*
X72644000Y-63156000D02*
X73267400Y-63156000D01*
X72644000Y-63156000D02*
X72644000Y-64356000D01*
X80962500Y-60775000D02*
X79062500Y-62675000D01*
X79062500Y-62675000D02*
X78462500Y-62675000D01*
X72644000Y-65481000D02*
X72644000Y-64356000D01*
X77152500Y-63985000D02*
X78462500Y-62675000D01*
X77152500Y-64135000D02*
X77152500Y-63985000D01*
X74754370Y-64135000D02*
X77152500Y-64135000D01*
X73775370Y-63156000D02*
X74754370Y-64135000D01*
X72644000Y-63156000D02*
X73775370Y-63156000D01*
G04 #@! TO.N,Net-(D3-Pad2)*
X97512000Y-62675000D02*
X97512000Y-63348700D01*
X97512000Y-63348700D02*
X97674600Y-63511300D01*
X100012000Y-60775000D02*
X99412000Y-60775000D01*
X99412000Y-60775000D02*
X97512000Y-62675000D01*
X86675300Y-75300000D02*
X86675300Y-69753700D01*
X86675300Y-69753700D02*
X86867100Y-69561900D01*
X86300000Y-75300000D02*
X86675300Y-75300000D01*
X85100000Y-75300000D02*
X86300000Y-75300000D01*
X85100000Y-75300000D02*
X83975000Y-75300000D01*
X96202000Y-63985000D02*
X97512000Y-62675000D01*
X96202000Y-64135000D02*
X96202000Y-63985000D01*
G04 #@! TO.N,Net-(D4-Pad2)*
X119062000Y-60775000D02*
X119721300Y-60115700D01*
X119721300Y-60115700D02*
X123959700Y-60115700D01*
X123959700Y-60115700D02*
X127508000Y-63664000D01*
X116562000Y-62675000D02*
X117162000Y-62675000D01*
X117162000Y-62675000D02*
X119062000Y-60775000D01*
X116724600Y-63511300D02*
X116562000Y-63348700D01*
X116562000Y-63348700D02*
X116562000Y-62675000D01*
X127508000Y-63664000D02*
X127508000Y-64864000D01*
X127508000Y-65989000D02*
X127508000Y-64864000D01*
X115252000Y-63985000D02*
X116562000Y-62675000D01*
X115252000Y-64135000D02*
X115252000Y-63985000D01*
G04 #@! TO.N,Net-(D5-Pad2)*
X135612000Y-62675000D02*
X136212000Y-62675000D01*
X136212000Y-62675000D02*
X138112000Y-60775000D01*
X135774600Y-63511300D02*
X135612000Y-63348700D01*
X135612000Y-63348700D02*
X135612000Y-62675000D01*
X130048000Y-63664000D02*
X130048000Y-64864000D01*
X130048000Y-65989000D02*
X130048000Y-64864000D01*
X134302000Y-63985000D02*
X135612000Y-62675000D01*
X134302000Y-64135000D02*
X134302000Y-63985000D01*
G04 #@! TO.N,Net-(D6-Pad2)*
X154662000Y-62675000D02*
X155262000Y-62675000D01*
X155262000Y-62675000D02*
X157162000Y-60775000D01*
X147828000Y-64356000D02*
X147828000Y-63156000D01*
X147828000Y-64356000D02*
X147828000Y-65481000D01*
X153352000Y-63985000D02*
X154662000Y-62675000D01*
X153352000Y-64135000D02*
X153352000Y-63985000D01*
G04 #@! TO.N,Net-(D7-Pad2)*
X176212000Y-60775000D02*
X174312000Y-62675000D01*
X174312000Y-62675000D02*
X173712000Y-62675000D01*
X166624000Y-63848000D02*
X166624000Y-62648000D01*
X166624000Y-63848000D02*
X166624000Y-64973000D01*
X172402000Y-63985000D02*
X173712000Y-62675000D01*
X172402000Y-64135000D02*
X172402000Y-63985000D01*
X170539700Y-62272700D02*
X172402000Y-64135000D01*
X166624000Y-62648000D02*
X166624000Y-62272700D01*
X166624000Y-62272700D02*
X170539700Y-62272700D01*
G04 #@! TO.N,Net-(D8-Pad2)*
X195262000Y-60775000D02*
X193362000Y-62675000D01*
X193362000Y-62675000D02*
X192762000Y-62675000D01*
X185420000Y-63848000D02*
X185420000Y-62648000D01*
X185420000Y-63848000D02*
X185420000Y-64973000D01*
X189589700Y-62272700D02*
X191452000Y-64135000D01*
X185420000Y-62648000D02*
X185420000Y-62272700D01*
X185420000Y-62272700D02*
X189589700Y-62272700D01*
X191452000Y-63985000D02*
X192762000Y-62675000D01*
X191452000Y-64135000D02*
X191452000Y-63985000D01*
G04 #@! TO.N,Net-(D9-Pad2)*
X214312000Y-60775000D02*
X212412000Y-62675000D01*
X212412000Y-62675000D02*
X211812000Y-62675000D01*
X204724000Y-63848000D02*
X204724000Y-62648000D01*
X204724000Y-63848000D02*
X204724000Y-64973000D01*
X210502000Y-63985000D02*
X211812000Y-62675000D01*
X210502000Y-64135000D02*
X210502000Y-63985000D01*
X208639700Y-62272700D02*
X210502000Y-64135000D01*
X204724000Y-62648000D02*
X204724000Y-62272700D01*
X204724000Y-62272700D02*
X208639700Y-62272700D01*
G04 #@! TO.N,Net-(D10-Pad2)*
X230862000Y-62675000D02*
X230862000Y-63348700D01*
X230862000Y-63348700D02*
X231024600Y-63511300D01*
X233362000Y-60775000D02*
X232762000Y-60775000D01*
X232762000Y-60775000D02*
X230862000Y-62675000D01*
X223520000Y-63848000D02*
X223520000Y-62648000D01*
X223520000Y-63848000D02*
X223520000Y-64973000D01*
X229552000Y-63985000D02*
X230862000Y-62675000D01*
X229552000Y-64135000D02*
X229552000Y-63985000D01*
X227689700Y-62272700D02*
X229552000Y-64135000D01*
X223520000Y-62648000D02*
X223520000Y-62272700D01*
X223520000Y-62272700D02*
X227689700Y-62272700D01*
G04 #@! TO.N,Net-(D11-Pad2)*
X252412000Y-60775000D02*
X250512000Y-62675000D01*
X250512000Y-62675000D02*
X249912000Y-62675000D01*
X242824000Y-63848000D02*
X242824000Y-62648000D01*
X242824000Y-63848000D02*
X242824000Y-64973000D01*
X246739700Y-62272700D02*
X248602000Y-64135000D01*
X242824000Y-62648000D02*
X242824000Y-62272700D01*
X242824000Y-62272700D02*
X246739700Y-62272700D01*
X248602000Y-63985000D02*
X249912000Y-62675000D01*
X248602000Y-64135000D02*
X248602000Y-63985000D01*
G04 #@! TO.N,Net-(D12-Pad2)*
X271462000Y-60775000D02*
X269562000Y-62675000D01*
X269562000Y-62675000D02*
X268962000Y-62675000D01*
X261620000Y-63848000D02*
X261620000Y-62648000D01*
X261620000Y-63848000D02*
X261620000Y-64973000D01*
X265789700Y-62272700D02*
X267652000Y-64135000D01*
X261620000Y-62648000D02*
X261620000Y-62272700D01*
X261620000Y-62272700D02*
X265789700Y-62272700D01*
X267652000Y-63985000D02*
X268962000Y-62675000D01*
X267652000Y-64135000D02*
X267652000Y-63985000D01*
G04 #@! TO.N,Net-(D13-Pad2)*
X292775000Y-62675000D02*
X292775000Y-63348700D01*
X292775000Y-63348700D02*
X292937600Y-63511300D01*
X295275000Y-60775000D02*
X294675000Y-60775000D01*
X294675000Y-60775000D02*
X292775000Y-62675000D01*
X283464000Y-63664000D02*
X283464000Y-64864000D01*
X283464000Y-64864000D02*
X283464000Y-65989000D01*
X291465000Y-63985000D02*
X292775000Y-62675000D01*
X291465000Y-64135000D02*
X291465000Y-63985000D01*
G04 #@! TO.N,Net-(D14-Pad2)*
X59575100Y-82561300D02*
X59412500Y-82398700D01*
X59412500Y-82398700D02*
X59412500Y-81725000D01*
X70104000Y-82511000D02*
X70104000Y-83711000D01*
X70104000Y-83711000D02*
X70104000Y-84836000D01*
X58102500Y-83035000D02*
X59412500Y-81725000D01*
X58102500Y-83185000D02*
X58102500Y-83035000D01*
G04 #@! TO.N,Net-(D15-Pad2)*
X80962500Y-79825000D02*
X79062500Y-81725000D01*
X79062500Y-81725000D02*
X78462500Y-81725000D01*
X72644000Y-82460000D02*
X73013400Y-82460000D01*
X72644000Y-82460000D02*
X72644000Y-83660000D01*
X72644000Y-83660000D02*
X72644000Y-84785000D01*
X77152500Y-83035000D02*
X78462500Y-81725000D01*
X77152500Y-83185000D02*
X77152500Y-83035000D01*
X74500370Y-83185000D02*
X77152500Y-83185000D01*
X73775370Y-82460000D02*
X74500370Y-83185000D01*
X72644000Y-82460000D02*
X73775370Y-82460000D01*
G04 #@! TO.N,Net-(D16-Pad2)*
X97674600Y-82561300D02*
X97512000Y-82398700D01*
X97512000Y-82398700D02*
X97512000Y-81725000D01*
X122588000Y-74676000D02*
X121463000Y-74676000D01*
X123788000Y-74676000D02*
X122588000Y-74676000D01*
X96202000Y-83035000D02*
X97512000Y-81725000D01*
X96202000Y-83185000D02*
X96202000Y-83035000D01*
G04 #@! TO.N,Net-(D17-Pad2)*
X116562000Y-81725000D02*
X117162000Y-81725000D01*
X117162000Y-81725000D02*
X119062000Y-79825000D01*
X127800000Y-81200000D02*
X127800000Y-82400000D01*
X127800000Y-82400000D02*
X127800000Y-83525000D01*
G04 #@! TO.N,Net-(D19-Pad2)*
X154824600Y-82561300D02*
X154662000Y-82398700D01*
X154662000Y-82398700D02*
X154662000Y-81725000D01*
X154662000Y-81725000D02*
X155262000Y-81725000D01*
X155262000Y-81725000D02*
X157162000Y-79825000D01*
X166700000Y-80800000D02*
X166700000Y-82000000D01*
X166700000Y-82000000D02*
X166700000Y-83125000D01*
X153352000Y-83035000D02*
X154662000Y-81725000D01*
X153352000Y-83185000D02*
X153352000Y-83035000D01*
G04 #@! TO.N,Net-(D20-Pad2)*
X173874600Y-82561300D02*
X173712000Y-82398700D01*
X173712000Y-82398700D02*
X173712000Y-81725000D01*
X185800000Y-80700000D02*
X185800000Y-81900000D01*
X185800000Y-81900000D02*
X185800000Y-83025000D01*
X173712000Y-81725000D02*
X174312000Y-81725000D01*
X174312000Y-81725000D02*
X176212000Y-79825000D01*
X172402000Y-83035000D02*
X173712000Y-81725000D01*
X172402000Y-83185000D02*
X172402000Y-83035000D01*
G04 #@! TO.N,Net-(D21-Pad2)*
X204800000Y-82500000D02*
X204800000Y-83625000D01*
X192924600Y-82561300D02*
X192762000Y-82398700D01*
X192762000Y-82398700D02*
X192762000Y-81725000D01*
X204800000Y-81300000D02*
X204800000Y-82500000D01*
X191452000Y-83035000D02*
X192762000Y-81725000D01*
X191452000Y-83185000D02*
X191452000Y-83035000D01*
G04 #@! TO.N,Net-(D22-Pad2)*
X211812000Y-81725000D02*
X211812000Y-82398700D01*
X211812000Y-82398700D02*
X211974600Y-82561300D01*
X214312000Y-79825000D02*
X213712000Y-79825000D01*
X213712000Y-79825000D02*
X211812000Y-81725000D01*
X224000000Y-81400000D02*
X224000000Y-82600000D01*
X224000000Y-83725000D02*
X224000000Y-82600000D01*
X210502000Y-83035000D02*
X211812000Y-81725000D01*
X210502000Y-83185000D02*
X210502000Y-83035000D01*
G04 #@! TO.N,Net-(D23-Pad2)*
X230862000Y-81725000D02*
X230862000Y-82398700D01*
X230862000Y-82398700D02*
X231024600Y-82561300D01*
X233362000Y-79825000D02*
X232762000Y-79825000D01*
X232762000Y-79825000D02*
X230862000Y-81725000D01*
X243300000Y-81300000D02*
X243300000Y-82500000D01*
X243300000Y-83625000D02*
X243300000Y-82500000D01*
X229552000Y-83035000D02*
X230862000Y-81725000D01*
X229552000Y-83185000D02*
X229552000Y-83035000D01*
G04 #@! TO.N,Net-(D24-Pad2)*
X252412000Y-79825000D02*
X253044900Y-79192100D01*
X253044900Y-79192100D02*
X258662100Y-79192100D01*
X258662100Y-79192100D02*
X260880000Y-81410000D01*
X252412000Y-79825000D02*
X251812000Y-79825000D01*
X251812000Y-79825000D02*
X249912000Y-81725000D01*
X249912000Y-81725000D02*
X249912000Y-82398700D01*
X249912000Y-82398700D02*
X250074600Y-82561300D01*
X260880000Y-82610000D02*
X260880000Y-83735000D01*
X260880000Y-81410000D02*
X260880000Y-82610000D01*
X248602000Y-83035000D02*
X249912000Y-81725000D01*
X248602000Y-83185000D02*
X248602000Y-83035000D01*
G04 #@! TO.N,Net-(D25-Pad2)*
X268962000Y-81725000D02*
X268962000Y-82398700D01*
X268962000Y-82398700D02*
X269124600Y-82561300D01*
X271462000Y-79825000D02*
X270862000Y-79825000D01*
X270862000Y-79825000D02*
X268962000Y-81725000D01*
X263260000Y-82550000D02*
X263260000Y-81350000D01*
X263260000Y-81350000D02*
X263860000Y-81350000D01*
X263860000Y-81350000D02*
X263941500Y-81268500D01*
X263260000Y-83675000D02*
X263260000Y-82550000D01*
X266226370Y-83185000D02*
X267652000Y-83185000D01*
X264391370Y-81350000D02*
X266226370Y-83185000D01*
X263260000Y-81350000D02*
X264391370Y-81350000D01*
X267652000Y-83035000D02*
X268962000Y-81725000D01*
X267652000Y-83185000D02*
X267652000Y-83035000D01*
G04 #@! TO.N,Net-(D27-Pad2)*
X59412500Y-100775000D02*
X59412500Y-101448700D01*
X59412500Y-101448700D02*
X59575100Y-101611300D01*
X61912500Y-98875000D02*
X61312500Y-98875000D01*
X61312500Y-98875000D02*
X59412500Y-100775000D01*
X61912500Y-98875000D02*
X62562400Y-98225100D01*
X62562400Y-98225100D02*
X68025100Y-98225100D01*
X68025100Y-98225100D02*
X70300000Y-100500000D01*
X70300000Y-101700000D02*
X70300000Y-102825000D01*
X70300000Y-100500000D02*
X70300000Y-101700000D01*
X58102500Y-102085000D02*
X59412500Y-100775000D01*
X58102500Y-102235000D02*
X58102500Y-102085000D01*
G04 #@! TO.N,Net-(D28-Pad2)*
X78462500Y-100775000D02*
X78462500Y-101448700D01*
X78462500Y-101448700D02*
X78625100Y-101611300D01*
X80962500Y-98875000D02*
X80362500Y-98875000D01*
X80362500Y-98875000D02*
X78462500Y-100775000D01*
X72800000Y-101600000D02*
X72800000Y-100400000D01*
X72800000Y-102725000D02*
X72800000Y-101600000D01*
X75216200Y-100298700D02*
X77152500Y-102235000D01*
X73461700Y-100298700D02*
X75216200Y-100298700D01*
X72800000Y-100400000D02*
X73360400Y-100400000D01*
X73360400Y-100400000D02*
X73461700Y-100298700D01*
X77152500Y-102085000D02*
X78462500Y-100775000D01*
X77152500Y-102235000D02*
X77152500Y-102085000D01*
G04 #@! TO.N,Net-(D29-Pad2)*
X97512000Y-100775000D02*
X97512000Y-101448700D01*
X97512000Y-101448700D02*
X97674600Y-101611300D01*
X100012000Y-98875000D02*
X99412000Y-98875000D01*
X99412000Y-98875000D02*
X97512000Y-100775000D01*
X127300000Y-100700000D02*
X127300000Y-101900000D01*
X127300000Y-103025000D02*
X127300000Y-101900000D01*
X96202000Y-102085000D02*
X97512000Y-100775000D01*
X96202000Y-102235000D02*
X96202000Y-102085000D01*
G04 #@! TO.N,Net-(D30-Pad2)*
X119062000Y-100408500D02*
X119062000Y-98875000D01*
X128874700Y-103025000D02*
X128874700Y-103140800D01*
X128874700Y-103140800D02*
X128065200Y-103950300D01*
X128065200Y-103950300D02*
X125737300Y-103950300D01*
X125737300Y-103950300D02*
X124577600Y-102790600D01*
X124577600Y-102790600D02*
X121444100Y-102790600D01*
X121444100Y-102790600D02*
X119062000Y-100408500D01*
X119062000Y-100408500D02*
X116928500Y-100408500D01*
X116928500Y-100408500D02*
X116562000Y-100775000D01*
X129337400Y-103025000D02*
X129800000Y-102562400D01*
X129800000Y-102562400D02*
X129800000Y-101900000D01*
X129337400Y-103025000D02*
X128874700Y-103025000D01*
X129800000Y-103025000D02*
X129337400Y-103025000D01*
X129800000Y-100700000D02*
X129800000Y-101900000D01*
X115252000Y-102085000D02*
X116562000Y-100775000D01*
X115252000Y-102235000D02*
X115252000Y-102085000D01*
G04 #@! TO.N,Net-(D31-Pad2)*
X138112000Y-98875000D02*
X137512000Y-98875000D01*
X137512000Y-98875000D02*
X135612000Y-100775000D01*
X146420000Y-102680000D02*
X146420000Y-101480000D01*
X146420000Y-103805000D02*
X146420000Y-102680000D01*
X134302000Y-102085000D02*
X135612000Y-100775000D01*
X134302000Y-102235000D02*
X134302000Y-102085000D01*
G04 #@! TO.N,Net-(D32-Pad2)*
X154662000Y-100775000D02*
X154662000Y-101448700D01*
X154662000Y-101448700D02*
X154824600Y-101611300D01*
X156042500Y-100347100D02*
X155089900Y-100347100D01*
X155089900Y-100347100D02*
X154662000Y-100775000D01*
X164188000Y-109275000D02*
X162714500Y-109174600D01*
X162714500Y-109174600D02*
X162287600Y-109174600D01*
X162287600Y-109174600D02*
X161688000Y-108575000D01*
X164148000Y-109855000D02*
X164188000Y-109815000D01*
X164188000Y-109815000D02*
X164188000Y-109275000D01*
X161688000Y-108575000D02*
X159811100Y-106698100D01*
X159811100Y-106698100D02*
X159811100Y-104115700D01*
X159811100Y-104115700D02*
X156042500Y-100347100D01*
X148930000Y-101500000D02*
X149222900Y-101500000D01*
X148930000Y-101500000D02*
X148930000Y-102700000D01*
X148930000Y-103825000D02*
X148930000Y-102700000D01*
X156042500Y-100347100D02*
X156042500Y-99994500D01*
X156042500Y-99994500D02*
X157162000Y-98875000D01*
X152617000Y-101500000D02*
X153352000Y-102235000D01*
X148930000Y-101500000D02*
X152617000Y-101500000D01*
X153352000Y-102085000D02*
X154662000Y-100775000D01*
X153352000Y-102235000D02*
X153352000Y-102085000D01*
G04 #@! TO.N,Net-(D33-Pad2)*
X185740000Y-98410000D02*
X185740000Y-97210000D01*
X185277400Y-99535000D02*
X185740000Y-99072400D01*
X185740000Y-99072400D02*
X185740000Y-98410000D01*
X185277400Y-99535000D02*
X184814700Y-99535000D01*
X185740000Y-99535000D02*
X185277400Y-99535000D01*
X175422400Y-99664600D02*
X174312000Y-100775000D01*
X174312000Y-100775000D02*
X173712000Y-100775000D01*
X176212000Y-98875000D02*
X175422400Y-99664600D01*
X175422400Y-99664600D02*
X178058200Y-102300400D01*
X178058200Y-102300400D02*
X182049300Y-102300400D01*
X182049300Y-102300400D02*
X184814700Y-99535000D01*
X172402000Y-102085000D02*
X173712000Y-100775000D01*
X172402000Y-102235000D02*
X172402000Y-102085000D01*
G04 #@! TO.N,Net-(D34-Pad2)*
X195262000Y-98875000D02*
X194662000Y-98875000D01*
X194662000Y-98875000D02*
X192762000Y-100775000D01*
X204870000Y-98580000D02*
X204870000Y-97380000D01*
X204870000Y-99705000D02*
X204870000Y-98580000D01*
G04 #@! TO.N,Net-(D35-Pad2)*
X214312000Y-98875000D02*
X213712000Y-98875000D01*
X213712000Y-98875000D02*
X211812000Y-100775000D01*
X224000000Y-98410000D02*
X224000000Y-97210000D01*
X224000000Y-99535000D02*
X224000000Y-98410000D01*
G04 #@! TO.N,Net-(D36-Pad2)*
X242850000Y-97460000D02*
X242850000Y-98660000D01*
X242850000Y-98660000D02*
X242850000Y-99785000D01*
G04 #@! TO.N,Net-(D37-Pad2)*
X252412000Y-98875000D02*
X253046700Y-98240300D01*
X252412000Y-98875000D02*
X251812000Y-98875000D01*
X251812000Y-98875000D02*
X249912000Y-100775000D01*
X249912000Y-100775000D02*
X249912000Y-101448700D01*
X249912000Y-101448700D02*
X250074600Y-101611300D01*
X248602000Y-102085000D02*
X249912000Y-100775000D01*
X248602000Y-102235000D02*
X248602000Y-102085000D01*
X261980000Y-98865000D02*
X261980000Y-99990000D01*
X253622000Y-97665000D02*
X261980000Y-97665000D01*
X252412000Y-98875000D02*
X253622000Y-97665000D01*
X261980000Y-98865000D02*
X261980000Y-97665000D01*
G04 #@! TO.N,RowA*
X127508000Y-70264000D02*
X127508000Y-70905600D01*
X127508000Y-70905600D02*
X126784400Y-71629200D01*
X126784400Y-71629200D02*
X118048900Y-71629200D01*
X118048900Y-71629200D02*
X117080000Y-72598100D01*
X117080000Y-72598100D02*
X116265500Y-72598100D01*
X116265500Y-72598100D02*
X116014500Y-72849100D01*
X116014500Y-72849100D02*
X115377600Y-72849100D01*
X115377600Y-72849100D02*
X115126400Y-73100300D01*
X115126400Y-73100300D02*
X114874100Y-73100300D01*
X114874100Y-73100300D02*
X114874000Y-73100400D01*
X114874000Y-73100400D02*
X114866600Y-73100400D01*
X114866600Y-73100400D02*
X114668600Y-73298400D01*
X114668600Y-73298400D02*
X114451000Y-73298400D01*
X114451000Y-73298400D02*
X113631600Y-74117800D01*
X113631600Y-74117800D02*
X112537200Y-74117800D01*
X112537200Y-74117800D02*
X110776900Y-75878100D01*
X127508000Y-70264000D02*
X127508000Y-69139000D01*
X127508000Y-70905600D02*
X127508000Y-71464000D01*
X110325000Y-76330000D02*
X110776900Y-75878100D01*
X110776900Y-75878100D02*
X108958300Y-74059600D01*
X108958300Y-74059600D02*
X108958300Y-70008300D01*
X108958300Y-70008300D02*
X107620000Y-68670000D01*
X70546700Y-67459000D02*
X70300000Y-67705700D01*
X59412500Y-59675000D02*
X61219800Y-57867700D01*
X61219800Y-57867700D02*
X66603600Y-57867700D01*
X66603600Y-57867700D02*
X71472000Y-62736100D01*
X71472000Y-62736100D02*
X71472000Y-66533700D01*
X71472000Y-66533700D02*
X70546700Y-67459000D01*
X70546700Y-67459000D02*
X71718700Y-68631000D01*
X72644000Y-68631000D02*
X71718700Y-68631000D01*
X166624000Y-70448000D02*
X166624000Y-69248000D01*
X72644000Y-70956000D02*
X73769300Y-70956000D01*
X78500000Y-75300000D02*
X77374700Y-75300000D01*
X77374700Y-75300000D02*
X73769300Y-71694600D01*
X73769300Y-71694600D02*
X73769300Y-70956000D01*
X79700000Y-75300000D02*
X78500000Y-75300000D01*
X72644000Y-70956000D02*
X72644000Y-69756000D01*
X70300000Y-68631000D02*
X70300000Y-67705700D01*
X70300000Y-70956000D02*
X70300000Y-69756000D01*
X70300000Y-68631000D02*
X70300000Y-69756000D01*
X72644000Y-68631000D02*
X72644000Y-69756000D01*
X80825000Y-75300000D02*
X79700000Y-75300000D01*
X130048000Y-71464000D02*
X130048000Y-70264000D01*
X130048000Y-69139000D02*
X130048000Y-70264000D01*
X147828000Y-70956000D02*
X147828000Y-69756000D01*
X147828000Y-69756000D02*
X147828000Y-68631000D01*
X166624000Y-69248000D02*
X166624000Y-68123000D01*
X185420000Y-70448000D02*
X185420000Y-69248000D01*
X185420000Y-69248000D02*
X185420000Y-68123000D01*
X204724000Y-70448000D02*
X204724000Y-69248000D01*
X204724000Y-69248000D02*
X204724000Y-68123000D01*
X223520000Y-70448000D02*
X223520000Y-69248000D01*
X223520000Y-69248000D02*
X223520000Y-68123000D01*
G04 #@! TO.N,RowB*
X107620000Y-71210000D02*
X106372500Y-72457500D01*
X106372500Y-72457500D02*
X106372500Y-79788700D01*
X185800000Y-88500000D02*
X203074700Y-88500000D01*
X203074700Y-88500000D02*
X203674700Y-89100000D01*
X185800000Y-88500000D02*
X185800000Y-87300000D01*
X204800000Y-89100000D02*
X203674700Y-89100000D01*
X204800000Y-87900000D02*
X204800000Y-89100000D01*
X118313000Y-74676000D02*
X119238300Y-74676000D01*
X115988000Y-74676000D02*
X117188000Y-74676000D01*
X204800000Y-86775000D02*
X204800000Y-87900000D01*
X224000000Y-89200000D02*
X224000000Y-88000000D01*
X224000000Y-86875000D02*
X224000000Y-88000000D01*
X243300000Y-89100000D02*
X243300000Y-87900000D01*
X243300000Y-86775000D02*
X243300000Y-87900000D01*
X72644000Y-89060000D02*
X72644000Y-87935000D01*
X70104000Y-90311000D02*
X70104000Y-89111000D01*
X70104000Y-89111000D02*
X70104000Y-87986000D01*
X72644000Y-90260000D02*
X72644000Y-89060000D01*
X117188000Y-74676000D02*
X118313000Y-74676000D01*
X166700000Y-88600000D02*
X166700000Y-87400000D01*
X166700000Y-87400000D02*
X166700000Y-86275000D01*
X185800000Y-87300000D02*
X185800000Y-86175000D01*
X113696000Y-80976000D02*
X113696000Y-80866000D01*
X113696000Y-80866000D02*
X112606000Y-79776000D01*
G04 #@! TO.N,RowC*
X110325000Y-81410000D02*
X111459900Y-80275100D01*
X111459900Y-80275100D02*
X111459900Y-78413300D01*
X111459900Y-78413300D02*
X110649600Y-77603000D01*
X110649600Y-77603000D02*
X110000900Y-77603000D01*
X110000900Y-77603000D02*
X108983600Y-76585700D01*
X108983600Y-76585700D02*
X108983600Y-75113600D01*
X108983600Y-75113600D02*
X107620000Y-73750000D01*
X111934600Y-105186200D02*
X111934600Y-83019600D01*
X111934600Y-83019600D02*
X110325000Y-81410000D01*
X111934600Y-105186200D02*
X107192900Y-109927900D01*
X107192900Y-109927900D02*
X75371900Y-109927900D01*
X75371900Y-109927900D02*
X73925300Y-108481300D01*
X73925300Y-108481300D02*
X73925300Y-108200000D01*
X127300000Y-105724700D02*
X126868600Y-105724700D01*
X126868600Y-105724700D02*
X125490200Y-107103100D01*
X125490200Y-107103100D02*
X113851500Y-107103100D01*
X113851500Y-107103100D02*
X111934600Y-105186200D01*
X127300000Y-106175000D02*
X127300000Y-105724700D01*
X127300000Y-107300000D02*
X127300000Y-106175000D01*
X127300000Y-108500000D02*
X127300000Y-107300000D01*
X72800000Y-108200000D02*
X73925300Y-108200000D01*
X72800000Y-107000000D02*
X72800000Y-108200000D01*
X241724700Y-105260000D02*
X239884600Y-107100100D01*
X239884600Y-107100100D02*
X227215400Y-107100100D01*
X227215400Y-107100100D02*
X225125300Y-105010000D01*
X242850000Y-105260000D02*
X241724700Y-105260000D01*
X242850000Y-105260000D02*
X242850000Y-104060000D01*
X224000000Y-105010000D02*
X225125300Y-105010000D01*
X185740000Y-105010000D02*
X186865300Y-105010000D01*
X204870000Y-105180000D02*
X203744700Y-105180000D01*
X203744700Y-105180000D02*
X201829500Y-107095200D01*
X201829500Y-107095200D02*
X188950500Y-107095200D01*
X188950500Y-107095200D02*
X186865300Y-105010000D01*
X204870000Y-103980000D02*
X204870000Y-105180000D01*
X224000000Y-105010000D02*
X224000000Y-103810000D01*
X148930000Y-108100000D02*
X148930000Y-106975000D01*
X185740000Y-105010000D02*
X185740000Y-103810000D01*
X72800000Y-105875000D02*
X72800000Y-107000000D01*
X70300000Y-108300000D02*
X70300000Y-107100000D01*
X70300000Y-105975000D02*
X70300000Y-107100000D01*
X129800000Y-106175000D02*
X129800000Y-107300000D01*
X130362700Y-108500000D02*
X129800000Y-107937300D01*
X129800000Y-107937300D02*
X129800000Y-107300000D01*
X130362700Y-108500000D02*
X130925300Y-108500000D01*
X129800000Y-108500000D02*
X130362700Y-108500000D01*
X146420000Y-108009700D02*
X146420000Y-108080000D01*
X146420000Y-106955000D02*
X146420000Y-108009700D01*
X146420000Y-108009700D02*
X131415600Y-108009700D01*
X131415600Y-108009700D02*
X130925300Y-108500000D01*
X146420000Y-109280000D02*
X146420000Y-108080000D01*
X148930000Y-108100000D02*
X148930000Y-109300000D01*
X185740000Y-102685000D02*
X185740000Y-103810000D01*
X204870000Y-102855000D02*
X204870000Y-103980000D01*
X224000000Y-102685000D02*
X224000000Y-103810000D01*
X242850000Y-104060000D02*
X242850000Y-102935000D01*
G04 #@! TO.N,ColA*
X110325000Y-94110000D02*
X108371100Y-92156100D01*
X108371100Y-92156100D02*
X108371100Y-85596500D01*
X108371100Y-85596500D02*
X106377900Y-83603300D01*
X106377900Y-83603300D02*
X106377900Y-80857100D01*
X106377900Y-80857100D02*
X107620000Y-79615000D01*
X107620000Y-79615000D02*
X107620000Y-78830000D01*
X65632500Y-80645000D02*
X65789400Y-80488100D01*
X65789400Y-80488100D02*
X65789400Y-63571100D01*
X65789400Y-63571100D02*
X66485500Y-62875000D01*
X66912500Y-100975000D02*
X66485500Y-100975000D01*
X66485500Y-100975000D02*
X65886000Y-100375500D01*
X65886000Y-100375500D02*
X65886000Y-100375400D01*
X64412500Y-100275000D02*
X65886000Y-100375400D01*
X66485500Y-62875000D02*
X65886000Y-62275500D01*
X65886000Y-62275500D02*
X65886000Y-62275400D01*
X66912500Y-62875000D02*
X66485500Y-62875000D01*
X65632500Y-80645000D02*
X66912500Y-81925000D01*
X64452500Y-80645000D02*
X65632500Y-80645000D01*
X64412500Y-62175000D02*
X65886000Y-62275400D01*
X64412500Y-81225000D02*
X64452500Y-81185000D01*
X64452500Y-81185000D02*
X64452500Y-80645000D01*
X64452500Y-61595000D02*
X64412500Y-61555000D01*
X64412500Y-61555000D02*
X64412500Y-59675000D01*
X64452500Y-61595000D02*
X64412500Y-61635000D01*
X64412500Y-61635000D02*
X64412500Y-62175000D01*
X64452500Y-99695000D02*
X64412500Y-99735000D01*
X64412500Y-99735000D02*
X64412500Y-100275000D01*
G04 #@! TO.N,ColB*
X85962500Y-100375400D02*
X85962500Y-100975000D01*
X90005000Y-96650000D02*
X86279600Y-100375400D01*
X86279600Y-100375400D02*
X85962500Y-100375400D01*
X85962500Y-100375400D02*
X84936000Y-100375400D01*
X83462500Y-100275000D02*
X84936000Y-100375400D01*
X85962500Y-81925000D02*
X87654100Y-83616600D01*
X87654100Y-83616600D02*
X87654100Y-94299100D01*
X87654100Y-94299100D02*
X90005000Y-96650000D01*
X85962500Y-62875000D02*
X85535500Y-62875000D01*
X85535500Y-62875000D02*
X84936000Y-62275500D01*
X84936000Y-62275500D02*
X84936000Y-62275400D01*
X83502500Y-80645000D02*
X83049600Y-80192100D01*
X83049600Y-80192100D02*
X83049600Y-67952400D01*
X83049600Y-67952400D02*
X85962500Y-65039500D01*
X85962500Y-65039500D02*
X85962500Y-62875000D01*
X83462500Y-62175000D02*
X84936000Y-62275400D01*
X274002000Y-61595000D02*
X273962000Y-61635000D01*
X273962000Y-61635000D02*
X273962000Y-62175000D01*
X273962000Y-62175000D02*
X275435500Y-62275400D01*
X275435500Y-62275400D02*
X275862400Y-62275400D01*
X275862400Y-62275400D02*
X276462000Y-62875000D01*
X83502500Y-99695000D02*
X83462500Y-99735000D01*
X83462500Y-99735000D02*
X83462500Y-100275000D01*
X83502500Y-61595000D02*
X83462500Y-61635000D01*
X83462500Y-61635000D02*
X83462500Y-62175000D01*
G04 #@! TO.N,ColC*
X102512000Y-62175000D02*
X103985500Y-62275400D01*
X103985500Y-62275400D02*
X104412400Y-62275400D01*
X104412400Y-62275400D02*
X105012000Y-62875000D01*
X93850000Y-69372300D02*
X94026500Y-69372300D01*
X94026500Y-69372300D02*
X101223800Y-62175000D01*
X101223800Y-62175000D02*
X102512000Y-62175000D01*
X102410300Y-82717600D02*
X102410300Y-99553300D01*
X102410300Y-99553300D02*
X102552000Y-99695000D01*
X102512000Y-81225000D02*
X102410300Y-82717600D01*
X93850000Y-69372300D02*
X93850000Y-71755200D01*
X93850000Y-71755200D02*
X102552000Y-80457200D01*
X102552000Y-80457200D02*
X102552000Y-80645000D01*
X93850000Y-69372300D02*
X93082300Y-69372300D01*
X93082300Y-69372300D02*
X92380000Y-68670000D01*
X297775000Y-62175000D02*
X299248500Y-62275400D01*
X299248500Y-62275400D02*
X299675400Y-62275400D01*
X299675400Y-62275400D02*
X300275000Y-62875000D01*
X297775000Y-62175000D02*
X297775000Y-61635000D01*
X297775000Y-61635000D02*
X297815000Y-61595000D01*
X102552000Y-61595000D02*
X102512000Y-61635000D01*
X102512000Y-61635000D02*
X102512000Y-62175000D01*
X102512000Y-100275000D02*
X103985500Y-100375400D01*
X103985500Y-100375400D02*
X104412400Y-100375400D01*
X104412400Y-100375400D02*
X105012000Y-100975000D01*
X102552000Y-99695000D02*
X102512000Y-99735000D01*
X102512000Y-99735000D02*
X102512000Y-100275000D01*
G04 #@! TO.N,ColD*
X92380000Y-66130000D02*
X91138800Y-67371200D01*
X91138800Y-67371200D02*
X91138800Y-77615400D01*
X91138800Y-77615400D02*
X90005000Y-78749200D01*
X90005000Y-78749200D02*
X90005000Y-78870000D01*
X121972000Y-81925000D02*
X121972000Y-99325000D01*
X121972000Y-99325000D02*
X121602000Y-99695000D01*
X121602000Y-80645000D02*
X121602000Y-80490400D01*
X121602000Y-80490400D02*
X118732800Y-77621200D01*
X118732800Y-77621200D02*
X116809100Y-77621200D01*
X116809100Y-77621200D02*
X114855200Y-75667300D01*
X114855200Y-75667300D02*
X114855200Y-73748700D01*
X114855200Y-73748700D02*
X115053200Y-73550700D01*
X115053200Y-73550700D02*
X127553500Y-73550700D01*
X127553500Y-73550700D02*
X128633400Y-72470800D01*
X128633400Y-72470800D02*
X128633400Y-68555900D01*
X128633400Y-68555900D02*
X128291100Y-68213600D01*
X128291100Y-68213600D02*
X128060000Y-68213600D01*
X128060000Y-68213600D02*
X124062000Y-64215600D01*
X124062000Y-64215600D02*
X124062000Y-62875000D01*
X121562000Y-62175000D02*
X123035500Y-62275400D01*
X121562000Y-81225000D02*
X121602000Y-81185000D01*
X121602000Y-81185000D02*
X121602000Y-80645000D01*
X121562000Y-81225000D02*
X121972000Y-81635000D01*
X121972000Y-81635000D02*
X121972000Y-81925000D01*
X121972000Y-81925000D02*
X124062000Y-81925000D01*
X124062000Y-62875000D02*
X123635000Y-62875000D01*
X123635000Y-62875000D02*
X123035500Y-62275500D01*
X123035500Y-62275500D02*
X123035500Y-62275400D01*
X254952000Y-80645000D02*
X254912000Y-80685000D01*
X254912000Y-80685000D02*
X254912000Y-81225000D01*
X121602000Y-61595000D02*
X121562000Y-61635000D01*
X121562000Y-61635000D02*
X121562000Y-62175000D01*
G04 #@! TO.N,ColE*
X87539600Y-68319300D02*
X87843400Y-68623100D01*
X87843400Y-68623100D02*
X87843400Y-74168400D01*
X87843400Y-74168400D02*
X90005000Y-76330000D01*
X92380000Y-63590000D02*
X92380000Y-63045800D01*
X92380000Y-63045800D02*
X96018600Y-59407200D01*
X96018600Y-59407200D02*
X103586600Y-59407200D01*
X103586600Y-59407200D02*
X105451300Y-61271900D01*
X143112000Y-62875000D02*
X140607400Y-62875000D01*
X140607400Y-62875000D02*
X140561100Y-62921300D01*
X140561100Y-62921300D02*
X140510300Y-63667600D01*
X140612000Y-62175000D02*
X140561100Y-62921300D01*
X140652000Y-80645000D02*
X140652000Y-63809300D01*
X140652000Y-63809300D02*
X140510300Y-63667600D01*
X140612000Y-100275000D02*
X140652000Y-100235000D01*
X140652000Y-100235000D02*
X140652000Y-99695000D01*
X143112000Y-81925000D02*
X140652000Y-84385000D01*
X140652000Y-84385000D02*
X140652000Y-99695000D01*
X142085500Y-81325400D02*
X142512400Y-81325400D01*
X142512400Y-81325400D02*
X143112000Y-81925000D01*
X140612000Y-81225000D02*
X142085500Y-81325400D01*
X273962000Y-81225000D02*
X275435500Y-81325400D01*
X275435500Y-81325400D02*
X275862400Y-81325400D01*
X275862400Y-81325400D02*
X276462000Y-81925000D01*
X274002000Y-80645000D02*
X273962000Y-80685000D01*
X273962000Y-80685000D02*
X273962000Y-81225000D01*
G04 #@! TO.N,ColF*
X92380000Y-71210000D02*
X98497500Y-77327500D01*
X98497500Y-77327500D02*
X98497500Y-80471000D01*
X98497500Y-80471000D02*
X98973800Y-80947300D01*
X98973800Y-80947300D02*
X98973800Y-83380800D01*
X98973800Y-83380800D02*
X93493300Y-88861300D01*
X93493300Y-88861300D02*
X93493300Y-92248700D01*
X93493300Y-92248700D02*
X90467700Y-95274300D01*
X90467700Y-95274300D02*
X89566600Y-95274300D01*
X89566600Y-95274300D02*
X88817800Y-94525500D01*
X88817800Y-94525500D02*
X88817800Y-91089500D01*
X88817800Y-91089500D02*
X89607300Y-90300000D01*
X89607300Y-90300000D02*
X90393900Y-90300000D01*
X90393900Y-90300000D02*
X91154200Y-89539700D01*
X91154200Y-89539700D02*
X91154200Y-85099200D01*
X91154200Y-85099200D02*
X90005000Y-83950000D01*
X159702000Y-100255000D02*
X161442000Y-100255000D01*
X161442000Y-100255000D02*
X162162000Y-100975000D01*
X159662000Y-100275000D02*
X159682000Y-100255000D01*
X159682000Y-100255000D02*
X159702000Y-100255000D01*
X159702000Y-100255000D02*
X159702000Y-99695000D01*
X169404100Y-106333500D02*
X169404100Y-104186300D01*
X169404100Y-104186300D02*
X166192800Y-100975000D01*
X166192800Y-100975000D02*
X162162000Y-100975000D01*
X169188000Y-108775000D02*
X169188000Y-106549600D01*
X169188000Y-106549600D02*
X169404100Y-106333500D01*
X301700000Y-92750000D02*
X301700000Y-93350000D01*
X301700000Y-93350000D02*
X303600000Y-95250000D01*
X162162000Y-62875000D02*
X159657400Y-62875000D01*
X159657400Y-62875000D02*
X159611100Y-62921300D01*
X159611100Y-62921300D02*
X159560300Y-63667600D01*
X159662000Y-62175000D02*
X159611100Y-62921300D01*
X159702000Y-80645000D02*
X159702000Y-63809300D01*
X159702000Y-63809300D02*
X159560300Y-63667600D01*
X159662000Y-81225000D02*
X159662000Y-80685000D01*
X159662000Y-80685000D02*
X159702000Y-80645000D01*
X159662000Y-81225000D02*
X161135500Y-81325400D01*
X161135500Y-81325400D02*
X161562400Y-81325400D01*
X161562400Y-81325400D02*
X162162000Y-81925000D01*
X159702000Y-99695000D02*
X159702000Y-84385000D01*
X159702000Y-84385000D02*
X162162000Y-81925000D01*
X170498000Y-107315000D02*
X169404100Y-106333500D01*
X300390000Y-91440000D02*
X301700000Y-92750000D01*
X300240000Y-91440000D02*
X300390000Y-91440000D01*
G04 #@! TO.N,ColG*
X90005000Y-86490000D02*
X88825700Y-85310700D01*
X88825700Y-85310700D02*
X88825700Y-80961500D01*
X88825700Y-80961500D02*
X89731500Y-80055700D01*
X89731500Y-80055700D02*
X90419200Y-80055700D01*
X90419200Y-80055700D02*
X91154200Y-79320700D01*
X91154200Y-79320700D02*
X91154200Y-78293700D01*
X91154200Y-78293700D02*
X91887900Y-77560000D01*
X91887900Y-77560000D02*
X92840100Y-77560000D01*
X92840100Y-77560000D02*
X93618700Y-76781400D01*
X93618700Y-76781400D02*
X93618700Y-74988700D01*
X93618700Y-74988700D02*
X92380000Y-73750000D01*
X254952000Y-99695000D02*
X254912000Y-99735000D01*
X254912000Y-99735000D02*
X254912000Y-100275000D01*
X181212000Y-81925000D02*
X182913700Y-83626700D01*
X182913700Y-83626700D02*
X182913700Y-95533300D01*
X182913700Y-95533300D02*
X178752000Y-99695000D01*
X178752000Y-81205000D02*
X180492000Y-81205000D01*
X180492000Y-81205000D02*
X181212000Y-81925000D01*
X181212000Y-62875000D02*
X178707400Y-62875000D01*
X178707400Y-62875000D02*
X178661100Y-62921300D01*
X178661100Y-62921300D02*
X178610300Y-63667600D01*
X178712000Y-62175000D02*
X178661100Y-62921300D01*
X178752000Y-80645000D02*
X178752000Y-63809300D01*
X178752000Y-63809300D02*
X178610300Y-63667600D01*
X178752000Y-81205000D02*
X178752000Y-80645000D01*
X254912000Y-100275000D02*
X256385500Y-100375400D01*
X256385500Y-100375400D02*
X256812400Y-100375400D01*
X256812400Y-100375400D02*
X257412000Y-100975000D01*
X178752000Y-61595000D02*
X178712000Y-61635000D01*
X178712000Y-61635000D02*
X178712000Y-62175000D01*
X178752000Y-99695000D02*
X178712000Y-99735000D01*
X178712000Y-99735000D02*
X178712000Y-100275000D01*
X178712000Y-81225000D02*
X178732000Y-81205000D01*
X178732000Y-81205000D02*
X178752000Y-81205000D01*
G04 #@! TO.N,ColH*
X87875200Y-79648900D02*
X88375300Y-80149000D01*
X88375300Y-80149000D02*
X88375300Y-87400300D01*
X88375300Y-87400300D02*
X90005000Y-89030000D01*
X200262000Y-100375400D02*
X200262000Y-100975000D01*
X202349100Y-98887900D02*
X200861600Y-100375400D01*
X200861600Y-100375400D02*
X200262000Y-100375400D01*
X200262000Y-100375400D02*
X199235500Y-100375400D01*
X197762000Y-100275000D02*
X199235500Y-100375400D01*
X202349100Y-98887900D02*
X204091600Y-100630400D01*
X204091600Y-100630400D02*
X204343200Y-100630400D01*
X204343200Y-100630400D02*
X206788800Y-103076000D01*
X206788800Y-103076000D02*
X206788800Y-104485800D01*
X206788800Y-104485800D02*
X209898000Y-107595000D01*
X209898000Y-107595000D02*
X267758900Y-107595000D01*
X267758900Y-107595000D02*
X275053900Y-100300000D01*
X275053900Y-100300000D02*
X276400000Y-100300000D01*
X200262000Y-81925000D02*
X202887400Y-84550400D01*
X202887400Y-84550400D02*
X204311500Y-84550400D01*
X204311500Y-84550400D02*
X205925400Y-86164300D01*
X205925400Y-86164300D02*
X205925400Y-94112400D01*
X205925400Y-94112400D02*
X202349100Y-97688700D01*
X202349100Y-97688700D02*
X202349100Y-98887900D01*
X197802000Y-81205000D02*
X199542000Y-81205000D01*
X199542000Y-81205000D02*
X200262000Y-81925000D01*
X276400000Y-100300000D02*
X277873500Y-100400400D01*
X277873500Y-100400400D02*
X278300400Y-100400400D01*
X278300400Y-100400400D02*
X278900000Y-101000000D01*
X197762000Y-81225000D02*
X197782000Y-81205000D01*
X197782000Y-81205000D02*
X197802000Y-81205000D01*
X197802000Y-81205000D02*
X197802000Y-80645000D01*
X276440000Y-99720000D02*
X276400000Y-99760000D01*
X276400000Y-99760000D02*
X276400000Y-100300000D01*
X197762000Y-62175000D02*
X197660300Y-63667600D01*
X197802000Y-80645000D02*
X197802000Y-63809300D01*
X197802000Y-63809300D02*
X197660300Y-63667600D01*
X197762000Y-62175000D02*
X199235500Y-62275400D01*
X199235500Y-62275400D02*
X199662400Y-62275400D01*
X199662400Y-62275400D02*
X200262000Y-62875000D01*
X197802000Y-61595000D02*
X197762000Y-61635000D01*
X197762000Y-61635000D02*
X197762000Y-62175000D01*
X197802000Y-99695000D02*
X197762000Y-99735000D01*
X197762000Y-99735000D02*
X197762000Y-100275000D01*
G04 #@! TO.N,ColI*
X90005000Y-91570000D02*
X91604600Y-89970400D01*
X91604600Y-89970400D02*
X91604600Y-84186600D01*
X91604600Y-84186600D02*
X91154400Y-83736400D01*
X91154400Y-83736400D02*
X91154400Y-80055600D01*
X91154400Y-80055600D02*
X92380000Y-78830000D01*
X216812000Y-81225000D02*
X218285500Y-81325400D01*
X218285500Y-81325400D02*
X218712400Y-81325400D01*
X218712400Y-81325400D02*
X219312000Y-81925000D01*
X216852000Y-80645000D02*
X216812000Y-80685000D01*
X216812000Y-80685000D02*
X216812000Y-81225000D01*
X216812000Y-100275000D02*
X218285500Y-100375400D01*
X219312000Y-100975000D02*
X218885000Y-100975000D01*
X218885000Y-100975000D02*
X218285500Y-100375500D01*
X218285500Y-100375500D02*
X218285500Y-100375400D01*
X219312000Y-81925000D02*
X221000200Y-83613200D01*
X221000200Y-83613200D02*
X221000200Y-92606600D01*
X221000200Y-92606600D02*
X225181400Y-96787800D01*
X225181400Y-96787800D02*
X225181400Y-100056900D01*
X225181400Y-100056900D02*
X224263300Y-100975000D01*
X224263300Y-100975000D02*
X219312000Y-100975000D01*
X217592000Y-62875000D02*
X216852000Y-62135000D01*
X219312000Y-62875000D02*
X217592000Y-62875000D01*
X217592000Y-62875000D02*
X217592000Y-79905000D01*
X217592000Y-79905000D02*
X216852000Y-80645000D01*
X216852000Y-62135000D02*
X216852000Y-61595000D01*
X216812000Y-62175000D02*
X216852000Y-62135000D01*
X216852000Y-99695000D02*
X216812000Y-99735000D01*
X216812000Y-99735000D02*
X216812000Y-100275000D01*
G04 #@! TO.N,ColJ*
X90005000Y-94110000D02*
X92380000Y-91735000D01*
X92380000Y-91735000D02*
X92380000Y-81370000D01*
X235902000Y-61595000D02*
X235862000Y-61635000D01*
X235862000Y-61635000D02*
X235862000Y-62175000D01*
X235862000Y-62175000D02*
X237335500Y-62275400D01*
X235902000Y-99695000D02*
X235902000Y-83958000D01*
X235902000Y-83958000D02*
X237935000Y-81925000D01*
X235862000Y-100275000D02*
X235862000Y-99735000D01*
X235862000Y-99735000D02*
X235902000Y-99695000D01*
X237935000Y-81925000D02*
X237335500Y-81325500D01*
X237335500Y-81325500D02*
X237335500Y-81325400D01*
X238362000Y-81925000D02*
X237935000Y-81925000D01*
X238362000Y-62875000D02*
X237935000Y-62875000D01*
X237935000Y-62875000D02*
X237335500Y-62275500D01*
X237335500Y-62275500D02*
X237335500Y-62275400D01*
X235862000Y-62175000D02*
X235760300Y-63667600D01*
X235902000Y-80645000D02*
X235902000Y-63809300D01*
X235902000Y-63809300D02*
X235760300Y-63667600D01*
X235862000Y-81225000D02*
X235862000Y-80685000D01*
X235862000Y-80685000D02*
X235902000Y-80645000D01*
X235862000Y-81225000D02*
X237335500Y-81325400D01*
G04 #@! TO.N,Net-(D_1.25u1-Pad2)*
X271400000Y-100800000D02*
X271400000Y-101473700D01*
X271400000Y-101473700D02*
X271562600Y-101636300D01*
X273900000Y-98900000D02*
X273300000Y-98900000D01*
X273300000Y-98900000D02*
X271400000Y-100800000D01*
X273900000Y-98900000D02*
X274536800Y-98263200D01*
X274536800Y-98263200D02*
X280471200Y-98263200D01*
X280471200Y-98263200D02*
X283464000Y-101256000D01*
X283464000Y-101256000D02*
X283464000Y-102456000D01*
X283464000Y-102456000D02*
X283464000Y-103581000D01*
X270090000Y-102110000D02*
X271400000Y-100800000D01*
X270090000Y-102260000D02*
X270090000Y-102110000D01*
G04 #@! TO.N,EncA*
X110325000Y-68710000D02*
X109028100Y-67413100D01*
X109028100Y-67413100D02*
X109028100Y-65789900D01*
X109028100Y-65789900D02*
X108098200Y-64860000D01*
X108098200Y-64860000D02*
X107117900Y-64860000D01*
X107117900Y-64860000D02*
X106337500Y-64079600D01*
X106337500Y-64079600D02*
X106337500Y-60014700D01*
X106337500Y-60014700D02*
X103232700Y-56909900D01*
G04 #@! TO.N,GND*
X145700000Y-72474700D02*
X141942500Y-68717200D01*
X110325000Y-66170000D02*
X109199600Y-65044600D01*
X109199600Y-65044600D02*
X109199600Y-60914400D01*
X109199600Y-60914400D02*
X108065200Y-59780000D01*
X108065200Y-59780000D02*
X107167700Y-59780000D01*
X107167700Y-59780000D02*
X103357700Y-55970000D01*
X103357700Y-55970000D02*
X92380000Y-55970000D01*
X61912500Y-74175000D02*
X60547800Y-75539700D01*
X60547800Y-75539700D02*
X60547800Y-80687500D01*
X60547800Y-80687500D02*
X60891600Y-81031300D01*
X60891600Y-81031300D02*
X60891600Y-83135300D01*
X60891600Y-83135300D02*
X59410000Y-84616900D01*
X59410000Y-84616900D02*
X59410000Y-93790000D01*
X59410000Y-93790000D02*
X53700000Y-99500000D01*
X145700000Y-73650000D02*
X145700000Y-72474700D01*
X145700000Y-79950000D02*
X145700000Y-81125300D01*
X284050000Y-59430000D02*
X284050000Y-60505300D01*
X284050000Y-60505300D02*
X275301300Y-60505300D01*
X275301300Y-60505300D02*
X274200900Y-59404900D01*
X274200900Y-59404900D02*
X153224000Y-59404900D01*
X153224000Y-59404900D02*
X150418000Y-62210900D01*
X150418000Y-62210900D02*
X150418000Y-80845700D01*
X150418000Y-80845700D02*
X150138400Y-81125300D01*
X150138400Y-81125300D02*
X145700000Y-81125300D01*
X145700000Y-79950000D02*
X145700000Y-73650000D01*
G04 #@! TO.N,EncB*
X110325000Y-71250000D02*
X111450900Y-70124100D01*
X111450900Y-70124100D02*
X111450900Y-60589900D01*
X111450900Y-60589900D02*
X110589400Y-59728400D01*
X110589400Y-59728400D02*
X109862500Y-59728400D01*
X109862500Y-59728400D02*
X108958300Y-58824200D01*
X108958300Y-58824200D02*
X108958300Y-57308300D01*
X108958300Y-57308300D02*
X107620000Y-55970000D01*
G04 #@! TO.N,RST*
X149500000Y-73650000D02*
X149500000Y-72474700D01*
X149500000Y-72474700D02*
X147281200Y-72474700D01*
X147281200Y-72474700D02*
X145422400Y-70615900D01*
X145422400Y-70615900D02*
X145422400Y-63237500D01*
X145422400Y-63237500D02*
X140734900Y-58550000D01*
X140734900Y-58550000D02*
X110325000Y-58550000D01*
X149500000Y-79950000D02*
X149500000Y-73650000D01*
G04 #@! TO.N,RowD*
X261980000Y-104265000D02*
X261980000Y-103140000D01*
X261980000Y-104265000D02*
X261980000Y-105465000D01*
X107620000Y-76290000D02*
X109159300Y-77829300D01*
X109159300Y-77829300D02*
X109159300Y-90404300D01*
X109159300Y-90404300D02*
X110325000Y-91570000D01*
X261620000Y-70448000D02*
X261620000Y-71573300D01*
X263260000Y-86825000D02*
X263260000Y-85899700D01*
X263260000Y-85899700D02*
X262040100Y-84679800D01*
X262040100Y-84679800D02*
X262040100Y-71993400D01*
X262040100Y-71993400D02*
X261620000Y-71573300D01*
X263260000Y-87950000D02*
X263260000Y-86825000D01*
X282432600Y-85782300D02*
X282432600Y-73620700D01*
X282432600Y-73620700D02*
X283464000Y-72589300D01*
X283600000Y-86949700D02*
X282432600Y-85782300D01*
X263260000Y-88550000D02*
X279664900Y-88550000D01*
X279664900Y-88550000D02*
X282432600Y-85782300D01*
X263260000Y-88550000D02*
X263260000Y-89150000D01*
X263260000Y-87950000D02*
X263260000Y-88550000D01*
X283464000Y-71464000D02*
X283464000Y-72589300D01*
X283600000Y-87875000D02*
X283600000Y-86949700D01*
X283600000Y-89000000D02*
X283600000Y-87875000D01*
X260880000Y-88010000D02*
X260880000Y-89210000D01*
X283600000Y-90200000D02*
X283600000Y-89000000D01*
X283464000Y-107856000D02*
X283464000Y-109056000D01*
X283464000Y-106731000D02*
X283464000Y-107856000D01*
X242824000Y-70448000D02*
X242824000Y-70823300D01*
X242824000Y-69248000D02*
X242824000Y-70448000D01*
X261620000Y-69923000D02*
X261620000Y-70448000D01*
X261620000Y-69248000D02*
X261620000Y-69923000D01*
X261620000Y-69923000D02*
X244299600Y-69923000D01*
X244299600Y-69923000D02*
X243399300Y-70823300D01*
X243399300Y-70823300D02*
X242824000Y-70823300D01*
X260880000Y-86885000D02*
X260880000Y-88010000D01*
X242824000Y-69248000D02*
X242824000Y-68123000D01*
X261620000Y-69248000D02*
X261620000Y-68123000D01*
X283464000Y-71464000D02*
X283464000Y-70264000D01*
X283464000Y-70264000D02*
X283464000Y-69139000D01*
X283464000Y-106731000D02*
X283464000Y-105805700D01*
X283464000Y-105805700D02*
X284607800Y-104661900D01*
X284607800Y-104661900D02*
X284607800Y-92333100D01*
X284607800Y-92333100D02*
X283600000Y-91325300D01*
X283600000Y-90200000D02*
X283600000Y-91325300D01*
X260880000Y-90260000D02*
X263766000Y-93146000D01*
X260880000Y-89210000D02*
X260880000Y-90260000D01*
X261980000Y-104415000D02*
X261980000Y-105465000D01*
X263766000Y-102629000D02*
X261980000Y-104415000D01*
X263766000Y-93146000D02*
X263766000Y-102629000D01*
G04 #@! TO.N,Net-(D_ISOENTR1-Pad2)*
X283600000Y-83600000D02*
X283600000Y-84725000D01*
X283600000Y-84725000D02*
X285242400Y-84725000D01*
X285242400Y-84725000D02*
X295252600Y-94735200D01*
X295252600Y-94735200D02*
X295252600Y-96106700D01*
X295252600Y-96106700D02*
X299395900Y-100250000D01*
X299395900Y-100250000D02*
X301500000Y-100250000D01*
X302200000Y-97750000D02*
X302099600Y-99223500D01*
X283600000Y-82400000D02*
X283600000Y-83600000D01*
X301500000Y-100250000D02*
X302099600Y-99650400D01*
X302099600Y-99650400D02*
X302099600Y-99223500D01*
G04 #@! TO.N,RGB*
X53700000Y-96800000D02*
X54883100Y-95616900D01*
X54883100Y-95616900D02*
X54883100Y-76171600D01*
X54883100Y-76171600D02*
X58506400Y-72548300D01*
X58506400Y-72548300D02*
X64896400Y-72548300D01*
X110325000Y-73790000D02*
X112597300Y-71517700D01*
X112597300Y-71517700D02*
X112597300Y-69480500D01*
G04 #@! TO.N,RGB_PWR*
X90005000Y-73790000D02*
X88402900Y-72187900D01*
X88402900Y-72187900D02*
X88402900Y-57407100D01*
X88402900Y-57407100D02*
X92380000Y-53430000D01*
G04 #@! TO.N,DP1*
X90005000Y-71250000D02*
X88853300Y-70098300D01*
X88853300Y-70098300D02*
X88853300Y-57792300D01*
X88853300Y-57792300D02*
X91890000Y-54755600D01*
X91890000Y-54755600D02*
X109282200Y-54755600D01*
X109282200Y-54755600D02*
X112027200Y-57500600D01*
X112027200Y-57500600D02*
X276819800Y-57500600D01*
X276819800Y-57500600D02*
X278824600Y-59505400D01*
X278824600Y-59505400D02*
X280974600Y-59505400D01*
X280974600Y-59505400D02*
X281050000Y-59430000D01*
G04 #@! TD*
M02*
