G04 #@! TF.GenerationSoftware,KiCad,Pcbnew,(5.1.5-0-10_14)*
G04 #@! TF.CreationDate,2021-05-19T21:25:40+03:00*
G04 #@! TF.ProjectId,PRKL30,50524b4c-3330-42e6-9b69-6361645f7063,rev?*
G04 #@! TF.SameCoordinates,Original*
G04 #@! TF.FileFunction,Paste,Bot*
G04 #@! TF.FilePolarity,Positive*
%FSLAX46Y46*%
G04 Gerber Fmt 4.6, Leading zero omitted, Abs format (unit mm)*
G04 Created by KiCad (PCBNEW (5.1.5-0-10_14)) date 2021-05-19 21:25:40*
%MOMM*%
%LPD*%
G04 APERTURE LIST*
%ADD10R,1.200000X1.200000*%
%ADD11R,1.700000X1.000000*%
%ADD12R,0.700000X1.500000*%
%ADD13R,1.000000X0.800000*%
G04 APERTURE END LIST*
D10*
X146558000Y-68377000D03*
X146558000Y-65227000D03*
X130048000Y-68123000D03*
X130048000Y-64973000D03*
X70300000Y-68631000D03*
X70300000Y-65481000D03*
X72644000Y-68631000D03*
X72644000Y-65481000D03*
X127508000Y-68072000D03*
X127508000Y-64922000D03*
X149098000Y-65227000D03*
X149098000Y-68377000D03*
X166624000Y-64973000D03*
X166624000Y-68123000D03*
X185420000Y-64973000D03*
X185420000Y-68123000D03*
X204724000Y-64973000D03*
X204724000Y-68123000D03*
X223520000Y-64973000D03*
X223520000Y-68123000D03*
X242824000Y-64973000D03*
X242824000Y-68123000D03*
X261620000Y-64973000D03*
X261620000Y-68123000D03*
X283464000Y-64770000D03*
X283464000Y-67920000D03*
X70104000Y-84836000D03*
X70104000Y-87986000D03*
X72644000Y-84785000D03*
X72644000Y-87935000D03*
X127508000Y-82245000D03*
X127508000Y-85395000D03*
X130048000Y-82261000D03*
X130048000Y-85411000D03*
X146812000Y-81686000D03*
X146812000Y-84836000D03*
X149352000Y-81686000D03*
X149352000Y-84836000D03*
X167132000Y-82042000D03*
X167132000Y-85192000D03*
X185928000Y-85301000D03*
X185928000Y-82151000D03*
X204978000Y-85395000D03*
X204978000Y-82245000D03*
X224028000Y-85555000D03*
X224028000Y-82405000D03*
X242824000Y-85852000D03*
X242824000Y-82702000D03*
X261874000Y-86106000D03*
X261874000Y-82956000D03*
X70300000Y-105975000D03*
X70300000Y-102825000D03*
X72800000Y-105875000D03*
X72800000Y-102725000D03*
X127300000Y-106175000D03*
X127300000Y-103025000D03*
X129800000Y-106175000D03*
X129800000Y-103025000D03*
X146420000Y-106955000D03*
X146420000Y-103805000D03*
X148930000Y-106975000D03*
X148930000Y-103825000D03*
X185740000Y-106317000D03*
X185740000Y-103167000D03*
X204786000Y-103491000D03*
X204786000Y-100341000D03*
X224282000Y-106133000D03*
X224282000Y-102983000D03*
X243078000Y-102565000D03*
X243078000Y-105715000D03*
X262276000Y-102901000D03*
X262276000Y-106051000D03*
X283566000Y-103081000D03*
X283566000Y-106231000D03*
D11*
X258724000Y-78100000D03*
X265024000Y-78100000D03*
X258724000Y-74300000D03*
X265024000Y-74300000D03*
D10*
X283464000Y-83007000D03*
X283464000Y-86157000D03*
D12*
X281050000Y-57372600D03*
X284050000Y-57372600D03*
X285550000Y-57372600D03*
D13*
X279650000Y-54512600D03*
X286950000Y-54512600D03*
X286950000Y-56722600D03*
X279650000Y-56722600D03*
M02*
