G04 #@! TF.GenerationSoftware,KiCad,Pcbnew,(5.0.1)-3*
G04 #@! TF.CreationDate,2020-02-03T22:22:32+02:00*
G04 #@! TF.ProjectId,PRKL30,50524B4C33302E6B696361645F706362,rev?*
G04 #@! TF.SameCoordinates,Original*
G04 #@! TF.FileFunction,Profile,NP*
%FSLAX46Y46*%
G04 Gerber Fmt 4.6, Leading zero omitted, Abs format (unit mm)*
G04 Created by KiCad (PCBNEW (5.0.1)-3) date 02/03/20 22:22:32*
%MOMM*%
%LPD*%
G01*
G04 APERTURE LIST*
%ADD10C,0.200000*%
%ADD11C,0.150000*%
G04 APERTURE END LIST*
D10*
X278846000Y-52036000D02*
X278846000Y-57126000D01*
X287756000Y-52046000D02*
X287756000Y-57126000D01*
D11*
X88740000Y-56150000D02*
G75*
G02X87740000Y-57150000I-1000000J0D01*
G01*
X52380000Y-58140000D02*
G75*
G02X53380000Y-57140000I1000000J0D01*
G01*
X279050000Y-50784600D02*
X287550000Y-50784600D01*
X287750000Y-52044600D02*
X287750000Y-50984600D01*
X278850000Y-52044600D02*
X278850250Y-50994588D01*
X278850250Y-50994588D02*
G75*
G02X279050000Y-50784600I199750J9988D01*
G01*
X287550000Y-50784600D02*
G75*
G02X287750000Y-50984600I0J-200000D01*
G01*
X306230000Y-114300000D02*
X53370000Y-114299950D01*
X52380000Y-113300000D02*
X52380000Y-58140000D01*
X53380000Y-57140000D02*
X87740000Y-57150000D01*
X88740000Y-56150000D02*
X88740000Y-53070000D01*
X111590000Y-56150000D02*
X111590000Y-53075000D01*
X89740000Y-52070000D02*
X110590000Y-52079988D01*
X112590000Y-57150000D02*
X278850000Y-57150000D01*
X287750000Y-57150000D02*
X306200000Y-57150000D01*
X307200000Y-58150000D02*
X307230000Y-113300000D01*
X307230000Y-113300000D02*
G75*
G02X306230000Y-114300000I-1000000J0D01*
G01*
X53370000Y-114299950D02*
G75*
G02X52380000Y-113300000I10000J999950D01*
G01*
X112590000Y-57150000D02*
G75*
G02X111590000Y-56150000I0J1000000D01*
G01*
X110590000Y-52079988D02*
G75*
G02X111590000Y-53075000I0J-1000012D01*
G01*
X88740000Y-53070000D02*
G75*
G02X89740000Y-52070000I1000000J0D01*
G01*
X306200000Y-57150000D02*
G75*
G02X307200000Y-58150000I0J-1000000D01*
G01*
M02*
