M48
INCH,TZ
T1C0.0354
T2C0.0472
T3C0.0669
T4C0.0689
T5C0.0866
T6C0.1200
T7C0.1570
%
G90
G05
T1
X11.0945Y-2.0695
X11.2126Y-2.0695
T2
X10.482Y-3.5404
X5.982Y-4.2904
X9.732Y-3.5404
X2.232Y-3.5404
X5.232Y-2.7904
X7.482Y-4.2904
X5.982Y-3.5404
X5.232Y-3.5404
X2.232Y-2.7904
X5.982Y-2.7904
X4.482Y-2.7904
X2.982Y-4.2904
X4.482Y-4.2904
X4.482Y-3.5404
X9.732Y-2.7904
X6.732Y-4.2904
X11.5551Y-3.5445
X8.232Y-4.2904
X8.982Y-3.5404
X6.768Y-3.9596
X10.482Y-2.7904
X8.982Y-2.7904
X6.732Y-2.7904
X9.732Y-4.2904
X3.732Y-4.2904
X10.578Y-4.2913
X8.232Y-3.5404
X8.232Y-2.7904
X3.732Y-2.7904
X11.4195Y-2.7904
X2.232Y-4.2904
X5.232Y-4.2904
X7.482Y-3.5404
X3.732Y-3.5404
X7.482Y-2.7904
X2.982Y-2.7904
X8.982Y-4.2904
X6.732Y-3.5404
X2.982Y-3.5404
T3
X3.7209Y-2.625
X4.154Y-2.625
X11.4085Y-2.625
X11.8415Y-2.625
X2.221Y-4.125
X2.654Y-4.125
X5.2209Y-4.125
X5.654Y-4.125
X7.4709Y-3.375
X7.904Y-3.375
X3.7209Y-3.375
X4.154Y-3.375
X7.4709Y-2.625
X7.904Y-2.625
X2.971Y-2.625
X3.404Y-2.625
X8.9709Y-4.125
X9.404Y-4.125
X6.7209Y-3.375
X7.154Y-3.375
X2.971Y-3.375
X3.404Y-3.375
X10.4709Y-3.375
X10.904Y-3.375
X5.9709Y-4.125
X6.404Y-4.125
X9.7209Y-3.375
X10.154Y-3.375
X2.221Y-3.375
X2.654Y-3.375
X5.2209Y-2.625
X5.654Y-2.625
X7.4709Y-4.125
X7.904Y-4.125
X5.9709Y-3.375
X6.404Y-3.375
X5.2209Y-3.375
X5.654Y-3.375
X2.221Y-2.625
X2.654Y-2.625
X5.9709Y-2.625
X6.404Y-2.625
X4.4709Y-2.625
X4.904Y-2.625
X2.971Y-4.125
X3.404Y-4.125
X4.4709Y-4.125
X4.904Y-4.125
X4.4709Y-3.375
X4.904Y-3.375
X9.7209Y-2.625
X10.154Y-2.625
X6.7209Y-4.125
X7.154Y-4.125
X11.7205Y-3.5335
X11.7205Y-3.9665
X8.2209Y-4.125
X8.654Y-4.125
X8.9709Y-3.375
X9.404Y-3.375
X6.346Y-4.125
X6.7791Y-4.125
X10.4709Y-2.625
X10.904Y-2.625
X8.9709Y-2.625
X9.404Y-2.625
X6.7209Y-2.625
X7.154Y-2.625
X9.7209Y-4.125
X10.154Y-4.125
X3.7209Y-4.125
X4.154Y-4.125
X10.5669Y-4.126
X11.Y-4.126
X8.2209Y-3.375
X8.654Y-3.375
X8.2209Y-2.625
X8.654Y-2.625
T4
X6.7375Y-4.125
X7.1375Y-4.125
X11.7205Y-3.55
X11.7205Y-3.95
X8.2375Y-4.125
X8.6375Y-4.125
X8.9875Y-3.375
X9.3875Y-3.375
X6.3625Y-4.125
X6.7625Y-4.125
X10.4875Y-2.625
X10.8875Y-2.625
X8.9875Y-2.625
X9.3875Y-2.625
X6.7375Y-2.625
X7.1375Y-2.625
X9.7375Y-4.125
X10.1375Y-4.125
X3.7375Y-4.125
X4.1375Y-4.125
X10.5835Y-4.126
X10.9835Y-4.126
X8.2375Y-3.375
X8.6375Y-3.375
X8.2375Y-2.625
X8.6375Y-2.625
X3.7375Y-2.625
X4.1375Y-2.625
X11.425Y-2.625
X11.825Y-2.625
X2.2375Y-4.125
X2.6375Y-4.125
X5.2375Y-4.125
X5.6375Y-4.125
X7.4875Y-3.375
X7.8875Y-3.375
X3.7375Y-3.375
X4.1375Y-3.375
X7.4875Y-2.625
X7.8875Y-2.625
X2.9875Y-2.625
X3.3875Y-2.625
X8.9875Y-4.125
X9.3875Y-4.125
X6.7375Y-3.375
X7.1375Y-3.375
X2.9875Y-3.375
X3.3875Y-3.375
X10.4875Y-3.375
X10.8875Y-3.375
X5.9875Y-4.125
X6.3875Y-4.125
X9.7375Y-3.375
X10.1375Y-3.375
X2.2375Y-3.375
X2.6375Y-3.375
X5.2375Y-2.625
X5.6375Y-2.625
X7.4875Y-4.125
X7.8875Y-4.125
X5.9875Y-3.375
X6.3875Y-3.375
X5.2375Y-3.375
X5.6375Y-3.375
X2.2375Y-2.625
X2.6375Y-2.625
X5.9875Y-2.625
X6.3875Y-2.625
X4.4875Y-2.625
X4.8875Y-2.625
X2.9875Y-4.125
X3.3875Y-4.125
X4.4875Y-4.125
X4.8875Y-4.125
X4.4875Y-3.375
X4.8875Y-3.375
X9.7375Y-2.625
X10.1375Y-2.625
T5
X8.0569Y-2.9502
X11.6736Y-3.048
X9.563Y-2.9933
X5.0601Y-2.9439
X3.561Y-4.2205
X8.0634Y-4.3126
X2.8118Y-3.0008
T6
X11.9955Y-3.28
X11.9955Y-4.22
X6.0925Y-4.4
X7.0325Y-4.4
T7
X3.9375Y-3.375
X7.6875Y-2.625
X3.1875Y-2.625
X9.1875Y-4.125
X6.9375Y-3.375
X3.1875Y-3.375
X10.6875Y-3.375
X6.1875Y-4.125
X9.9375Y-3.375
X2.4375Y-3.375
X5.4375Y-2.625
X7.6875Y-4.125
X6.1875Y-3.375
X5.4375Y-3.375
X2.4375Y-2.625
X6.1875Y-2.625
X4.6875Y-2.625
X3.1875Y-4.125
X4.6875Y-4.125
X4.6875Y-3.375
X9.9375Y-2.625
X6.9375Y-4.125
X11.3955Y-3.28
X11.3955Y-4.22
X11.7205Y-3.75
X8.4375Y-4.125
X9.1875Y-3.375
X6.0925Y-3.8
X6.5625Y-4.125
X7.0325Y-3.8
X10.6875Y-2.625
X9.1875Y-2.625
X6.9375Y-2.625
X9.9375Y-4.125
X3.9375Y-4.125
X10.7835Y-4.126
X8.4375Y-3.375
X8.4375Y-2.625
X3.9375Y-2.625
X11.625Y-2.625
X2.4375Y-4.125
X5.4375Y-4.125
X7.6875Y-3.375
T0
M30
