G04 #@! TF.GenerationSoftware,KiCad,Pcbnew,(5.0.1)-3*
G04 #@! TF.CreationDate,2020-02-03T22:22:31+02:00*
G04 #@! TF.ProjectId,PRKL30,50524B4C33302E6B696361645F706362,rev?*
G04 #@! TF.SameCoordinates,Original*
G04 #@! TF.FileFunction,Copper,L2,Bot,Signal*
G04 #@! TF.FilePolarity,Positive*
%FSLAX46Y46*%
G04 Gerber Fmt 4.6, Leading zero omitted, Abs format (unit mm)*
G04 Created by KiCad (PCBNEW (5.0.1)-3) date 02/03/20 22:22:31*
%MOMM*%
%LPD*%
G01*
G04 APERTURE LIST*
G04 #@! TA.AperFunction,Conductor*
%ADD10R,0.500000X2.500000*%
G04 #@! TD*
G04 #@! TA.AperFunction,ComponentPad*
%ADD11C,1.600000*%
G04 #@! TD*
G04 #@! TA.AperFunction,ComponentPad*
%ADD12R,1.600000X1.600000*%
G04 #@! TD*
G04 #@! TA.AperFunction,SMDPad,CuDef*
%ADD13R,1.200000X1.200000*%
G04 #@! TD*
G04 #@! TA.AperFunction,ComponentPad*
%ADD14R,2.000000X2.000000*%
G04 #@! TD*
G04 #@! TA.AperFunction,ComponentPad*
%ADD15C,2.000000*%
G04 #@! TD*
G04 #@! TA.AperFunction,ComponentPad*
%ADD16R,2.000000X3.200000*%
G04 #@! TD*
G04 #@! TA.AperFunction,ComponentPad*
%ADD17C,2.250000*%
G04 #@! TD*
G04 #@! TA.AperFunction,Conductor*
%ADD18C,2.250000*%
G04 #@! TD*
G04 #@! TA.AperFunction,ComponentPad*
%ADD19C,1.752600*%
G04 #@! TD*
G04 #@! TA.AperFunction,ComponentPad*
%ADD20R,1.752600X1.752600*%
G04 #@! TD*
G04 #@! TA.AperFunction,SMDPad,CuDef*
%ADD21R,1.700000X1.000000*%
G04 #@! TD*
G04 #@! TA.AperFunction,SMDPad,CuDef*
%ADD22R,0.700000X1.500000*%
G04 #@! TD*
G04 #@! TA.AperFunction,SMDPad,CuDef*
%ADD23R,1.000000X0.800000*%
G04 #@! TD*
G04 #@! TA.AperFunction,ViaPad*
%ADD24C,0.800000*%
G04 #@! TD*
G04 #@! TA.AperFunction,Conductor*
%ADD25C,0.250000*%
G04 #@! TD*
G04 APERTURE END LIST*
D10*
G04 #@! TO.N,Net-(D5-Pad2)*
G04 #@! TO.C,D5*
X146558000Y-64102000D03*
G04 #@! TO.N,RowA*
X146558000Y-69502000D03*
D11*
G04 #@! TD*
G04 #@! TO.P,D5,2*
G04 #@! TO.N,Net-(D5-Pad2)*
X146558000Y-62902000D03*
D12*
G04 #@! TO.P,D5,1*
G04 #@! TO.N,RowA*
X146558000Y-70702000D03*
D13*
X146558000Y-68377000D03*
G04 #@! TO.P,D5,2*
G04 #@! TO.N,Net-(D5-Pad2)*
X146558000Y-65227000D03*
G04 #@! TD*
D14*
G04 #@! TO.P,K_ENC1,A*
G04 #@! TO.N,EncA*
X59412500Y-74175000D03*
D15*
G04 #@! TO.P,K_ENC1,C*
G04 #@! TO.N,GND*
X61912500Y-74175000D03*
G04 #@! TO.P,K_ENC1,B*
G04 #@! TO.N,EncB*
X64412500Y-74175000D03*
D16*
G04 #@! TO.P,K_ENC1,MP*
G04 #@! TO.N,N/C*
X56312500Y-66675000D03*
X67512500Y-66675000D03*
D15*
G04 #@! TO.P,K_ENC1,S2*
G04 #@! TO.N,RowA*
X59412500Y-59675000D03*
G04 #@! TO.P,K_ENC1,S1*
G04 #@! TO.N,ColA*
X64412500Y-59675000D03*
G04 #@! TD*
D11*
G04 #@! TO.P,Feather1,1*
G04 #@! TO.N,Net-(Feather1-Pad1)*
X110363000Y-68580000D03*
G04 #@! TO.P,Feather1,2*
G04 #@! TO.N,DP1*
X110363000Y-71120000D03*
G04 #@! TO.P,Feather1,3*
G04 #@! TO.N,RGB_PWR*
X110363000Y-73660000D03*
G04 #@! TO.P,Feather1,4*
G04 #@! TO.N,ColE*
X110363000Y-76200000D03*
G04 #@! TO.P,Feather1,5*
G04 #@! TO.N,ColD*
X110363000Y-78740000D03*
G04 #@! TO.P,Feather1,6*
G04 #@! TO.N,ColC*
X110363000Y-81280000D03*
G04 #@! TO.P,Feather1,7*
G04 #@! TO.N,ColF*
X110363000Y-83820000D03*
G04 #@! TO.P,Feather1,8*
G04 #@! TO.N,ColG*
X110363000Y-86360000D03*
G04 #@! TO.P,Feather1,9*
G04 #@! TO.N,ColH*
X110363000Y-88900000D03*
G04 #@! TO.P,Feather1,12*
G04 #@! TO.N,ColB*
X110363000Y-96520000D03*
G04 #@! TO.P,Feather1,10*
G04 #@! TO.N,ColI*
X110363000Y-91440000D03*
G04 #@! TO.P,Feather1,11*
G04 #@! TO.N,ColJ*
X110363000Y-93980000D03*
G04 #@! TO.P,Feather1,13*
G04 #@! TO.N,RST*
X90043000Y-58420000D03*
G04 #@! TO.P,Feather1,14*
G04 #@! TO.N,Net-(Feather1-Pad14)*
X90043000Y-60960000D03*
G04 #@! TO.P,Feather1,15*
G04 #@! TO.N,Net-(Feather1-Pad15)*
X90043000Y-63500000D03*
G04 #@! TO.P,Feather1,16*
G04 #@! TO.N,GND*
X90043000Y-66040000D03*
G04 #@! TO.P,Feather1,17*
G04 #@! TO.N,EncA*
X90043000Y-68580000D03*
G04 #@! TO.P,Feather1,18*
G04 #@! TO.N,EncB*
X90043000Y-71120000D03*
G04 #@! TO.P,Feather1,19*
G04 #@! TO.N,RGB*
X90043000Y-73660000D03*
G04 #@! TO.P,Feather1,20*
G04 #@! TO.N,RowA*
X90043000Y-76200000D03*
G04 #@! TO.P,Feather1,21*
G04 #@! TO.N,RowB*
X90043000Y-78740000D03*
G04 #@! TO.P,Feather1,22*
G04 #@! TO.N,RowC*
X90043000Y-81280000D03*
G04 #@! TO.P,Feather1,23*
G04 #@! TO.N,Net-(Feather1-Pad23)*
X90043000Y-83820000D03*
G04 #@! TO.P,Feather1,24*
G04 #@! TO.N,Net-(Feather1-Pad24)*
X90043000Y-86360000D03*
G04 #@! TO.P,Feather1,25*
G04 #@! TO.N,Net-(Feather1-Pad25)*
X90043000Y-88900000D03*
G04 #@! TO.P,Feather1,26*
G04 #@! TO.N,RowD*
X90043000Y-91440000D03*
G04 #@! TO.P,Feather1,27*
G04 #@! TO.N,ColA*
X90043000Y-93980000D03*
G04 #@! TO.P,Feather1,28*
G04 #@! TO.N,Net-(Feather1-Pad28)*
X90043000Y-96520000D03*
G04 #@! TD*
D17*
G04 #@! TO.P,K_2Uspc1,2*
G04 #@! TO.N,Net-(D32-Pad2)*
X164168229Y-109565016D03*
D18*
G04 #@! TD*
G04 #@! TO.N,Net-(D32-Pad2)*
G04 #@! TO.C,K_2Uspc1*
X164188000Y-109275000D02*
X164148458Y-109855032D01*
D17*
G04 #@! TO.P,K_2Uspc1,2*
G04 #@! TO.N,Net-(D32-Pad2)*
X164148000Y-109855000D03*
G04 #@! TO.P,K_2Uspc1,1*
G04 #@! TO.N,ColF*
X169843005Y-108045004D03*
D18*
G04 #@! TD*
G04 #@! TO.N,ColF*
G04 #@! TO.C,K_2Uspc1*
X170498000Y-107315000D02*
X169188010Y-108775008D01*
D17*
G04 #@! TO.P,K_2Uspc1,1*
G04 #@! TO.N,ColF*
X169188000Y-108775000D03*
D15*
G04 #@! TO.P,K_2Uspc1,2*
G04 #@! TO.N,Net-(D32-Pad2)*
X161688000Y-108575000D03*
G04 #@! TO.P,K_2Uspc1,1*
G04 #@! TO.N,ColF*
X166688000Y-110675000D03*
G04 #@! TD*
G04 #@! TO.P,K_ISOENTER1,1*
G04 #@! TO.N,ColF*
X303600000Y-95250000D03*
G04 #@! TO.P,K_ISOENTER1,2*
G04 #@! TO.N,Net-(D_ISOENTR1-Pad2)*
X301500000Y-100250000D03*
D17*
G04 #@! TO.P,K_ISOENTER1,1*
G04 #@! TO.N,ColF*
X301700000Y-92750000D03*
X300970004Y-92094995D03*
D18*
G04 #@! TD*
G04 #@! TO.N,ColF*
G04 #@! TO.C,K_ISOENTER1*
X300240000Y-91440000D02*
X301700008Y-92749990D01*
D17*
G04 #@! TO.P,K_ISOENTER1,2*
G04 #@! TO.N,Net-(D_ISOENTR1-Pad2)*
X302780000Y-97790000D03*
X302490016Y-97769771D03*
D18*
G04 #@! TD*
G04 #@! TO.N,Net-(D_ISOENTR1-Pad2)*
G04 #@! TO.C,K_ISOENTER1*
X302200000Y-97750000D02*
X302780032Y-97789542D01*
D10*
G04 #@! TO.N,Net-(D4-Pad2)*
G04 #@! TO.C,D4*
X130048000Y-63848000D03*
G04 #@! TO.N,RowA*
X130048000Y-69248000D03*
D11*
G04 #@! TD*
G04 #@! TO.P,D4,2*
G04 #@! TO.N,Net-(D4-Pad2)*
X130048000Y-62648000D03*
D12*
G04 #@! TO.P,D4,1*
G04 #@! TO.N,RowA*
X130048000Y-70448000D03*
D13*
X130048000Y-68123000D03*
G04 #@! TO.P,D4,2*
G04 #@! TO.N,Net-(D4-Pad2)*
X130048000Y-64973000D03*
G04 #@! TD*
D19*
G04 #@! TO.P,MCU_Pro_Micr0,24*
G04 #@! TO.N,RGB_PWR*
X107620000Y-56430000D03*
G04 #@! TO.P,MCU_Pro_Micr0,12*
G04 #@! TO.N,ColB*
X92380000Y-84370000D03*
G04 #@! TO.P,MCU_Pro_Micr0,23*
G04 #@! TO.N,GND*
X107620000Y-58970000D03*
G04 #@! TO.P,MCU_Pro_Micr0,22*
G04 #@! TO.N,RST*
X107620000Y-61510000D03*
G04 #@! TO.P,MCU_Pro_Micr0,21*
G04 #@! TO.N,Net-(MCU_Pro_Micr0-Pad21)*
X107620000Y-64050000D03*
G04 #@! TO.P,MCU_Pro_Micr0,20*
G04 #@! TO.N,ColE*
X107620000Y-66590000D03*
G04 #@! TO.P,MCU_Pro_Micr0,19*
G04 #@! TO.N,ColD*
X107620000Y-69130000D03*
G04 #@! TO.P,MCU_Pro_Micr0,18*
G04 #@! TO.N,ColC*
X107620000Y-71670000D03*
G04 #@! TO.P,MCU_Pro_Micr0,17*
G04 #@! TO.N,ColF*
X107620000Y-74210000D03*
G04 #@! TO.P,MCU_Pro_Micr0,16*
G04 #@! TO.N,ColG*
X107620000Y-76750000D03*
G04 #@! TO.P,MCU_Pro_Micr0,15*
G04 #@! TO.N,ColH*
X107620000Y-79290000D03*
G04 #@! TO.P,MCU_Pro_Micr0,14*
G04 #@! TO.N,ColI*
X107620000Y-81830000D03*
G04 #@! TO.P,MCU_Pro_Micr0,13*
G04 #@! TO.N,ColJ*
X107620000Y-84370000D03*
G04 #@! TO.P,MCU_Pro_Micr0,11*
G04 #@! TO.N,ColA*
X92380000Y-81830000D03*
G04 #@! TO.P,MCU_Pro_Micr0,10*
G04 #@! TO.N,RowD*
X92380000Y-79290000D03*
G04 #@! TO.P,MCU_Pro_Micr0,9*
G04 #@! TO.N,RowC*
X92380000Y-76750000D03*
G04 #@! TO.P,MCU_Pro_Micr0,8*
G04 #@! TO.N,RowB*
X92380000Y-74210000D03*
G04 #@! TO.P,MCU_Pro_Micr0,7*
G04 #@! TO.N,RowA*
X92380000Y-71670000D03*
G04 #@! TO.P,MCU_Pro_Micr0,6*
G04 #@! TO.N,Net-(MCU_Pro_Micr0-Pad6)*
X92380000Y-69130000D03*
G04 #@! TO.P,MCU_Pro_Micr0,5*
G04 #@! TO.N,RGB*
X92380000Y-66590000D03*
G04 #@! TO.P,MCU_Pro_Micr0,4*
G04 #@! TO.N,Net-(MCU_Pro_Micr0-Pad4)*
X92380000Y-64050000D03*
G04 #@! TO.P,MCU_Pro_Micr0,3*
G04 #@! TO.N,Net-(MCU_Pro_Micr0-Pad3)*
X92380000Y-61510000D03*
G04 #@! TO.P,MCU_Pro_Micr0,2*
G04 #@! TO.N,EncB*
X92380000Y-58970000D03*
D20*
G04 #@! TO.P,MCU_Pro_Micr0,1*
G04 #@! TO.N,EncA*
X92380000Y-56430000D03*
G04 #@! TD*
D10*
G04 #@! TO.N,Net-(D1-Pad2)*
G04 #@! TO.C,D1*
X70300000Y-64356000D03*
G04 #@! TO.N,RowA*
X70300000Y-69756000D03*
D11*
G04 #@! TD*
G04 #@! TO.P,D1,2*
G04 #@! TO.N,Net-(D1-Pad2)*
X70300000Y-63156000D03*
D12*
G04 #@! TO.P,D1,1*
G04 #@! TO.N,RowA*
X70300000Y-70956000D03*
D13*
X70300000Y-68631000D03*
G04 #@! TO.P,D1,2*
G04 #@! TO.N,Net-(D1-Pad2)*
X70300000Y-65481000D03*
G04 #@! TD*
D10*
G04 #@! TO.N,Net-(D2-Pad2)*
G04 #@! TO.C,D2*
X72644000Y-64356000D03*
G04 #@! TO.N,RowA*
X72644000Y-69756000D03*
D11*
G04 #@! TD*
G04 #@! TO.P,D2,2*
G04 #@! TO.N,Net-(D2-Pad2)*
X72644000Y-63156000D03*
D12*
G04 #@! TO.P,D2,1*
G04 #@! TO.N,RowA*
X72644000Y-70956000D03*
D13*
X72644000Y-68631000D03*
G04 #@! TO.P,D2,2*
G04 #@! TO.N,Net-(D2-Pad2)*
X72644000Y-65481000D03*
G04 #@! TD*
D10*
G04 #@! TO.N,Net-(D3-Pad2)*
G04 #@! TO.C,D3*
X127508000Y-63797000D03*
G04 #@! TO.N,RowA*
X127508000Y-69197000D03*
D11*
G04 #@! TD*
G04 #@! TO.P,D3,2*
G04 #@! TO.N,Net-(D3-Pad2)*
X127508000Y-62597000D03*
D12*
G04 #@! TO.P,D3,1*
G04 #@! TO.N,RowA*
X127508000Y-70397000D03*
D13*
X127508000Y-68072000D03*
G04 #@! TO.P,D3,2*
G04 #@! TO.N,Net-(D3-Pad2)*
X127508000Y-64922000D03*
G04 #@! TD*
G04 #@! TO.P,D6,2*
G04 #@! TO.N,Net-(D6-Pad2)*
X149098000Y-65227000D03*
G04 #@! TO.P,D6,1*
G04 #@! TO.N,RowA*
X149098000Y-68377000D03*
D12*
X149098000Y-70702000D03*
D11*
G04 #@! TO.P,D6,2*
G04 #@! TO.N,Net-(D6-Pad2)*
X149098000Y-62902000D03*
D10*
G04 #@! TD*
G04 #@! TO.N,RowA*
G04 #@! TO.C,D6*
X149098000Y-69502000D03*
G04 #@! TO.N,Net-(D6-Pad2)*
G04 #@! TO.C,D6*
X149098000Y-64102000D03*
G04 #@! TD*
D13*
G04 #@! TO.P,D7,2*
G04 #@! TO.N,Net-(D7-Pad2)*
X166624000Y-64973000D03*
G04 #@! TO.P,D7,1*
G04 #@! TO.N,RowA*
X166624000Y-68123000D03*
D12*
X166624000Y-70448000D03*
D11*
G04 #@! TO.P,D7,2*
G04 #@! TO.N,Net-(D7-Pad2)*
X166624000Y-62648000D03*
D10*
G04 #@! TD*
G04 #@! TO.N,RowA*
G04 #@! TO.C,D7*
X166624000Y-69248000D03*
G04 #@! TO.N,Net-(D7-Pad2)*
G04 #@! TO.C,D7*
X166624000Y-63848000D03*
G04 #@! TD*
D13*
G04 #@! TO.P,D8,2*
G04 #@! TO.N,Net-(D8-Pad2)*
X185420000Y-64973000D03*
G04 #@! TO.P,D8,1*
G04 #@! TO.N,RowA*
X185420000Y-68123000D03*
D12*
X185420000Y-70448000D03*
D11*
G04 #@! TO.P,D8,2*
G04 #@! TO.N,Net-(D8-Pad2)*
X185420000Y-62648000D03*
D10*
G04 #@! TD*
G04 #@! TO.N,RowA*
G04 #@! TO.C,D8*
X185420000Y-69248000D03*
G04 #@! TO.N,Net-(D8-Pad2)*
G04 #@! TO.C,D8*
X185420000Y-63848000D03*
G04 #@! TD*
D13*
G04 #@! TO.P,D9,2*
G04 #@! TO.N,Net-(D9-Pad2)*
X204724000Y-64973000D03*
G04 #@! TO.P,D9,1*
G04 #@! TO.N,RowA*
X204724000Y-68123000D03*
D12*
X204724000Y-70448000D03*
D11*
G04 #@! TO.P,D9,2*
G04 #@! TO.N,Net-(D9-Pad2)*
X204724000Y-62648000D03*
D10*
G04 #@! TD*
G04 #@! TO.N,RowA*
G04 #@! TO.C,D9*
X204724000Y-69248000D03*
G04 #@! TO.N,Net-(D9-Pad2)*
G04 #@! TO.C,D9*
X204724000Y-63848000D03*
G04 #@! TD*
D13*
G04 #@! TO.P,D10,2*
G04 #@! TO.N,Net-(D10-Pad2)*
X223520000Y-64973000D03*
G04 #@! TO.P,D10,1*
G04 #@! TO.N,RowA*
X223520000Y-68123000D03*
D12*
X223520000Y-70448000D03*
D11*
G04 #@! TO.P,D10,2*
G04 #@! TO.N,Net-(D10-Pad2)*
X223520000Y-62648000D03*
D10*
G04 #@! TD*
G04 #@! TO.N,RowA*
G04 #@! TO.C,D10*
X223520000Y-69248000D03*
G04 #@! TO.N,Net-(D10-Pad2)*
G04 #@! TO.C,D10*
X223520000Y-63848000D03*
G04 #@! TD*
D13*
G04 #@! TO.P,D11,2*
G04 #@! TO.N,Net-(D11-Pad2)*
X242824000Y-64973000D03*
G04 #@! TO.P,D11,1*
G04 #@! TO.N,RowD*
X242824000Y-68123000D03*
D12*
X242824000Y-70448000D03*
D11*
G04 #@! TO.P,D11,2*
G04 #@! TO.N,Net-(D11-Pad2)*
X242824000Y-62648000D03*
D10*
G04 #@! TD*
G04 #@! TO.N,RowD*
G04 #@! TO.C,D11*
X242824000Y-69248000D03*
G04 #@! TO.N,Net-(D11-Pad2)*
G04 #@! TO.C,D11*
X242824000Y-63848000D03*
G04 #@! TD*
D13*
G04 #@! TO.P,D12,2*
G04 #@! TO.N,Net-(D12-Pad2)*
X261620000Y-64973000D03*
G04 #@! TO.P,D12,1*
G04 #@! TO.N,RowD*
X261620000Y-68123000D03*
D12*
X261620000Y-70448000D03*
D11*
G04 #@! TO.P,D12,2*
G04 #@! TO.N,Net-(D12-Pad2)*
X261620000Y-62648000D03*
D10*
G04 #@! TD*
G04 #@! TO.N,RowD*
G04 #@! TO.C,D12*
X261620000Y-69248000D03*
G04 #@! TO.N,Net-(D12-Pad2)*
G04 #@! TO.C,D12*
X261620000Y-63848000D03*
G04 #@! TD*
D13*
G04 #@! TO.P,D13,2*
G04 #@! TO.N,Net-(D13-Pad2)*
X283464000Y-64770000D03*
G04 #@! TO.P,D13,1*
G04 #@! TO.N,RowD*
X283464000Y-67920000D03*
D12*
X283464000Y-70245000D03*
D11*
G04 #@! TO.P,D13,2*
G04 #@! TO.N,Net-(D13-Pad2)*
X283464000Y-62445000D03*
D10*
G04 #@! TD*
G04 #@! TO.N,RowD*
G04 #@! TO.C,D13*
X283464000Y-69045000D03*
G04 #@! TO.N,Net-(D13-Pad2)*
G04 #@! TO.C,D13*
X283464000Y-63645000D03*
G04 #@! TD*
D13*
G04 #@! TO.P,D14,2*
G04 #@! TO.N,Net-(D14-Pad2)*
X70104000Y-84836000D03*
G04 #@! TO.P,D14,1*
G04 #@! TO.N,RowB*
X70104000Y-87986000D03*
D12*
X70104000Y-90311000D03*
D11*
G04 #@! TO.P,D14,2*
G04 #@! TO.N,Net-(D14-Pad2)*
X70104000Y-82511000D03*
D10*
G04 #@! TD*
G04 #@! TO.N,RowB*
G04 #@! TO.C,D14*
X70104000Y-89111000D03*
G04 #@! TO.N,Net-(D14-Pad2)*
G04 #@! TO.C,D14*
X70104000Y-83711000D03*
G04 #@! TD*
D13*
G04 #@! TO.P,D15,2*
G04 #@! TO.N,Net-(D15-Pad2)*
X72644000Y-84785000D03*
G04 #@! TO.P,D15,1*
G04 #@! TO.N,RowB*
X72644000Y-87935000D03*
D12*
X72644000Y-90260000D03*
D11*
G04 #@! TO.P,D15,2*
G04 #@! TO.N,Net-(D15-Pad2)*
X72644000Y-82460000D03*
D10*
G04 #@! TD*
G04 #@! TO.N,RowB*
G04 #@! TO.C,D15*
X72644000Y-89060000D03*
G04 #@! TO.N,Net-(D15-Pad2)*
G04 #@! TO.C,D15*
X72644000Y-83660000D03*
G04 #@! TD*
D13*
G04 #@! TO.P,D16,2*
G04 #@! TO.N,Net-(D16-Pad2)*
X127508000Y-82245000D03*
G04 #@! TO.P,D16,1*
G04 #@! TO.N,RowB*
X127508000Y-85395000D03*
D12*
X127508000Y-87720000D03*
D11*
G04 #@! TO.P,D16,2*
G04 #@! TO.N,Net-(D16-Pad2)*
X127508000Y-79920000D03*
D10*
G04 #@! TD*
G04 #@! TO.N,RowB*
G04 #@! TO.C,D16*
X127508000Y-86520000D03*
G04 #@! TO.N,Net-(D16-Pad2)*
G04 #@! TO.C,D16*
X127508000Y-81120000D03*
G04 #@! TD*
D13*
G04 #@! TO.P,D17,2*
G04 #@! TO.N,Net-(D17-Pad2)*
X130048000Y-82261000D03*
G04 #@! TO.P,D17,1*
G04 #@! TO.N,RowB*
X130048000Y-85411000D03*
D12*
X130048000Y-87736000D03*
D11*
G04 #@! TO.P,D17,2*
G04 #@! TO.N,Net-(D17-Pad2)*
X130048000Y-79936000D03*
D10*
G04 #@! TD*
G04 #@! TO.N,RowB*
G04 #@! TO.C,D17*
X130048000Y-86536000D03*
G04 #@! TO.N,Net-(D17-Pad2)*
G04 #@! TO.C,D17*
X130048000Y-81136000D03*
G04 #@! TD*
D13*
G04 #@! TO.P,D18,2*
G04 #@! TO.N,Net-(D18-Pad2)*
X146812000Y-81686000D03*
G04 #@! TO.P,D18,1*
G04 #@! TO.N,RowB*
X146812000Y-84836000D03*
D12*
X146812000Y-87161000D03*
D11*
G04 #@! TO.P,D18,2*
G04 #@! TO.N,Net-(D18-Pad2)*
X146812000Y-79361000D03*
D10*
G04 #@! TD*
G04 #@! TO.N,RowB*
G04 #@! TO.C,D18*
X146812000Y-85961000D03*
G04 #@! TO.N,Net-(D18-Pad2)*
G04 #@! TO.C,D18*
X146812000Y-80561000D03*
G04 #@! TD*
D13*
G04 #@! TO.P,D19,2*
G04 #@! TO.N,Net-(D19-Pad2)*
X149352000Y-81686000D03*
G04 #@! TO.P,D19,1*
G04 #@! TO.N,RowB*
X149352000Y-84836000D03*
D12*
X149352000Y-87161000D03*
D11*
G04 #@! TO.P,D19,2*
G04 #@! TO.N,Net-(D19-Pad2)*
X149352000Y-79361000D03*
D10*
G04 #@! TD*
G04 #@! TO.N,RowB*
G04 #@! TO.C,D19*
X149352000Y-85961000D03*
G04 #@! TO.N,Net-(D19-Pad2)*
G04 #@! TO.C,D19*
X149352000Y-80561000D03*
G04 #@! TD*
D13*
G04 #@! TO.P,D20,2*
G04 #@! TO.N,Net-(D20-Pad2)*
X167132000Y-82042000D03*
G04 #@! TO.P,D20,1*
G04 #@! TO.N,RowB*
X167132000Y-85192000D03*
D12*
X167132000Y-87517000D03*
D11*
G04 #@! TO.P,D20,2*
G04 #@! TO.N,Net-(D20-Pad2)*
X167132000Y-79717000D03*
D10*
G04 #@! TD*
G04 #@! TO.N,RowB*
G04 #@! TO.C,D20*
X167132000Y-86317000D03*
G04 #@! TO.N,Net-(D20-Pad2)*
G04 #@! TO.C,D20*
X167132000Y-80917000D03*
G04 #@! TD*
G04 #@! TO.N,Net-(D21-Pad2)*
G04 #@! TO.C,D21*
X185928000Y-81026000D03*
G04 #@! TO.N,RowB*
X185928000Y-86426000D03*
D11*
G04 #@! TD*
G04 #@! TO.P,D21,2*
G04 #@! TO.N,Net-(D21-Pad2)*
X185928000Y-79826000D03*
D12*
G04 #@! TO.P,D21,1*
G04 #@! TO.N,RowB*
X185928000Y-87626000D03*
D13*
X185928000Y-85301000D03*
G04 #@! TO.P,D21,2*
G04 #@! TO.N,Net-(D21-Pad2)*
X185928000Y-82151000D03*
G04 #@! TD*
D10*
G04 #@! TO.N,Net-(D22-Pad2)*
G04 #@! TO.C,D22*
X204978000Y-81120000D03*
G04 #@! TO.N,RowB*
X204978000Y-86520000D03*
D11*
G04 #@! TD*
G04 #@! TO.P,D22,2*
G04 #@! TO.N,Net-(D22-Pad2)*
X204978000Y-79920000D03*
D12*
G04 #@! TO.P,D22,1*
G04 #@! TO.N,RowB*
X204978000Y-87720000D03*
D13*
X204978000Y-85395000D03*
G04 #@! TO.P,D22,2*
G04 #@! TO.N,Net-(D22-Pad2)*
X204978000Y-82245000D03*
G04 #@! TD*
D10*
G04 #@! TO.N,Net-(D23-Pad2)*
G04 #@! TO.C,D23*
X224028000Y-81280000D03*
G04 #@! TO.N,RowB*
X224028000Y-86680000D03*
D11*
G04 #@! TD*
G04 #@! TO.P,D23,2*
G04 #@! TO.N,Net-(D23-Pad2)*
X224028000Y-80080000D03*
D12*
G04 #@! TO.P,D23,1*
G04 #@! TO.N,RowB*
X224028000Y-87880000D03*
D13*
X224028000Y-85555000D03*
G04 #@! TO.P,D23,2*
G04 #@! TO.N,Net-(D23-Pad2)*
X224028000Y-82405000D03*
G04 #@! TD*
D10*
G04 #@! TO.N,Net-(D24-Pad2)*
G04 #@! TO.C,D24*
X242824000Y-81577000D03*
G04 #@! TO.N,RowD*
X242824000Y-86977000D03*
D11*
G04 #@! TD*
G04 #@! TO.P,D24,2*
G04 #@! TO.N,Net-(D24-Pad2)*
X242824000Y-80377000D03*
D12*
G04 #@! TO.P,D24,1*
G04 #@! TO.N,RowD*
X242824000Y-88177000D03*
D13*
X242824000Y-85852000D03*
G04 #@! TO.P,D24,2*
G04 #@! TO.N,Net-(D24-Pad2)*
X242824000Y-82702000D03*
G04 #@! TD*
D10*
G04 #@! TO.N,Net-(D25-Pad2)*
G04 #@! TO.C,D25*
X261874000Y-81831000D03*
G04 #@! TO.N,RowD*
X261874000Y-87231000D03*
D11*
G04 #@! TD*
G04 #@! TO.P,D25,2*
G04 #@! TO.N,Net-(D25-Pad2)*
X261874000Y-80631000D03*
D12*
G04 #@! TO.P,D25,1*
G04 #@! TO.N,RowD*
X261874000Y-88431000D03*
D13*
X261874000Y-86106000D03*
G04 #@! TO.P,D25,2*
G04 #@! TO.N,Net-(D25-Pad2)*
X261874000Y-82956000D03*
G04 #@! TD*
D10*
G04 #@! TO.N,Net-(D27-Pad2)*
G04 #@! TO.C,D27*
X70300000Y-101700000D03*
G04 #@! TO.N,RowC*
X70300000Y-107100000D03*
D11*
G04 #@! TD*
G04 #@! TO.P,D27,2*
G04 #@! TO.N,Net-(D27-Pad2)*
X70300000Y-100500000D03*
D12*
G04 #@! TO.P,D27,1*
G04 #@! TO.N,RowC*
X70300000Y-108300000D03*
D13*
X70300000Y-105975000D03*
G04 #@! TO.P,D27,2*
G04 #@! TO.N,Net-(D27-Pad2)*
X70300000Y-102825000D03*
G04 #@! TD*
D10*
G04 #@! TO.N,Net-(D28-Pad2)*
G04 #@! TO.C,D28*
X72800000Y-101600000D03*
G04 #@! TO.N,RowC*
X72800000Y-107000000D03*
D11*
G04 #@! TD*
G04 #@! TO.P,D28,2*
G04 #@! TO.N,Net-(D28-Pad2)*
X72800000Y-100400000D03*
D12*
G04 #@! TO.P,D28,1*
G04 #@! TO.N,RowC*
X72800000Y-108200000D03*
D13*
X72800000Y-105875000D03*
G04 #@! TO.P,D28,2*
G04 #@! TO.N,Net-(D28-Pad2)*
X72800000Y-102725000D03*
G04 #@! TD*
D10*
G04 #@! TO.N,Net-(D29-Pad2)*
G04 #@! TO.C,D29*
X127300000Y-101900000D03*
G04 #@! TO.N,RowC*
X127300000Y-107300000D03*
D11*
G04 #@! TD*
G04 #@! TO.P,D29,2*
G04 #@! TO.N,Net-(D29-Pad2)*
X127300000Y-100700000D03*
D12*
G04 #@! TO.P,D29,1*
G04 #@! TO.N,RowC*
X127300000Y-108500000D03*
D13*
X127300000Y-106175000D03*
G04 #@! TO.P,D29,2*
G04 #@! TO.N,Net-(D29-Pad2)*
X127300000Y-103025000D03*
G04 #@! TD*
D10*
G04 #@! TO.N,Net-(D30-Pad2)*
G04 #@! TO.C,D30*
X129800000Y-101900000D03*
G04 #@! TO.N,RowC*
X129800000Y-107300000D03*
D11*
G04 #@! TD*
G04 #@! TO.P,D30,2*
G04 #@! TO.N,Net-(D30-Pad2)*
X129800000Y-100700000D03*
D12*
G04 #@! TO.P,D30,1*
G04 #@! TO.N,RowC*
X129800000Y-108500000D03*
D13*
X129800000Y-106175000D03*
G04 #@! TO.P,D30,2*
G04 #@! TO.N,Net-(D30-Pad2)*
X129800000Y-103025000D03*
G04 #@! TD*
D10*
G04 #@! TO.N,Net-(D31-Pad2)*
G04 #@! TO.C,D31*
X146420000Y-102680000D03*
G04 #@! TO.N,RowC*
X146420000Y-108080000D03*
D11*
G04 #@! TD*
G04 #@! TO.P,D31,2*
G04 #@! TO.N,Net-(D31-Pad2)*
X146420000Y-101480000D03*
D12*
G04 #@! TO.P,D31,1*
G04 #@! TO.N,RowC*
X146420000Y-109280000D03*
D13*
X146420000Y-106955000D03*
G04 #@! TO.P,D31,2*
G04 #@! TO.N,Net-(D31-Pad2)*
X146420000Y-103805000D03*
G04 #@! TD*
D10*
G04 #@! TO.N,Net-(D32-Pad2)*
G04 #@! TO.C,D32*
X148930000Y-102700000D03*
G04 #@! TO.N,RowC*
X148930000Y-108100000D03*
D11*
G04 #@! TD*
G04 #@! TO.P,D32,2*
G04 #@! TO.N,Net-(D32-Pad2)*
X148930000Y-101500000D03*
D12*
G04 #@! TO.P,D32,1*
G04 #@! TO.N,RowC*
X148930000Y-109300000D03*
D13*
X148930000Y-106975000D03*
G04 #@! TO.P,D32,2*
G04 #@! TO.N,Net-(D32-Pad2)*
X148930000Y-103825000D03*
G04 #@! TD*
D10*
G04 #@! TO.N,Net-(D33-Pad2)*
G04 #@! TO.C,D33*
X185740000Y-102042000D03*
G04 #@! TO.N,RowC*
X185740000Y-107442000D03*
D11*
G04 #@! TD*
G04 #@! TO.P,D33,2*
G04 #@! TO.N,Net-(D33-Pad2)*
X185740000Y-100842000D03*
D12*
G04 #@! TO.P,D33,1*
G04 #@! TO.N,RowC*
X185740000Y-108642000D03*
D13*
X185740000Y-106317000D03*
G04 #@! TO.P,D33,2*
G04 #@! TO.N,Net-(D33-Pad2)*
X185740000Y-103167000D03*
G04 #@! TD*
D10*
G04 #@! TO.N,Net-(D34-Pad2)*
G04 #@! TO.C,D34*
X204786000Y-99216000D03*
G04 #@! TO.N,RowC*
X204786000Y-104616000D03*
D11*
G04 #@! TD*
G04 #@! TO.P,D34,2*
G04 #@! TO.N,Net-(D34-Pad2)*
X204786000Y-98016000D03*
D12*
G04 #@! TO.P,D34,1*
G04 #@! TO.N,RowC*
X204786000Y-105816000D03*
D13*
X204786000Y-103491000D03*
G04 #@! TO.P,D34,2*
G04 #@! TO.N,Net-(D34-Pad2)*
X204786000Y-100341000D03*
G04 #@! TD*
D10*
G04 #@! TO.N,Net-(D35-Pad2)*
G04 #@! TO.C,D35*
X224282000Y-101858000D03*
G04 #@! TO.N,RowC*
X224282000Y-107258000D03*
D11*
G04 #@! TD*
G04 #@! TO.P,D35,2*
G04 #@! TO.N,Net-(D35-Pad2)*
X224282000Y-100658000D03*
D12*
G04 #@! TO.P,D35,1*
G04 #@! TO.N,RowC*
X224282000Y-108458000D03*
D13*
X224282000Y-106133000D03*
G04 #@! TO.P,D35,2*
G04 #@! TO.N,Net-(D35-Pad2)*
X224282000Y-102983000D03*
G04 #@! TD*
G04 #@! TO.P,D36,2*
G04 #@! TO.N,Net-(D36-Pad2)*
X243078000Y-102565000D03*
G04 #@! TO.P,D36,1*
G04 #@! TO.N,RowC*
X243078000Y-105715000D03*
D12*
X243078000Y-108040000D03*
D11*
G04 #@! TO.P,D36,2*
G04 #@! TO.N,Net-(D36-Pad2)*
X243078000Y-100240000D03*
D10*
G04 #@! TD*
G04 #@! TO.N,RowC*
G04 #@! TO.C,D36*
X243078000Y-106840000D03*
G04 #@! TO.N,Net-(D36-Pad2)*
G04 #@! TO.C,D36*
X243078000Y-101440000D03*
G04 #@! TD*
D13*
G04 #@! TO.P,D37,2*
G04 #@! TO.N,Net-(D37-Pad2)*
X262276000Y-102901000D03*
G04 #@! TO.P,D37,1*
G04 #@! TO.N,RowD*
X262276000Y-106051000D03*
D12*
X262276000Y-108376000D03*
D11*
G04 #@! TO.P,D37,2*
G04 #@! TO.N,Net-(D37-Pad2)*
X262276000Y-100576000D03*
D10*
G04 #@! TD*
G04 #@! TO.N,RowD*
G04 #@! TO.C,D37*
X262276000Y-107176000D03*
G04 #@! TO.N,Net-(D37-Pad2)*
G04 #@! TO.C,D37*
X262276000Y-101776000D03*
G04 #@! TD*
D13*
G04 #@! TO.P,D_1.25u1,2*
G04 #@! TO.N,Net-(D_1.25u1-Pad2)*
X283566000Y-103081000D03*
G04 #@! TO.P,D_1.25u1,1*
G04 #@! TO.N,RowD*
X283566000Y-106231000D03*
D12*
X283566000Y-108556000D03*
D11*
G04 #@! TO.P,D_1.25u1,2*
G04 #@! TO.N,Net-(D_1.25u1-Pad2)*
X283566000Y-100756000D03*
D10*
G04 #@! TD*
G04 #@! TO.N,RowD*
G04 #@! TO.C,D_1.25u1*
X283566000Y-107356000D03*
G04 #@! TO.N,Net-(D_1.25u1-Pad2)*
G04 #@! TO.C,D_1.25u1*
X283566000Y-101956000D03*
G04 #@! TD*
D21*
G04 #@! TO.P,SW_RST1,1*
G04 #@! TO.N,GND*
X258724000Y-78100000D03*
X265024000Y-78100000D03*
G04 #@! TO.P,SW_RST1,2*
G04 #@! TO.N,RST*
X258724000Y-74300000D03*
X265024000Y-74300000D03*
G04 #@! TD*
D17*
G04 #@! TO.P,K1,1*
G04 #@! TO.N,ColA*
X64432271Y-61884984D03*
D18*
G04 #@! TD*
G04 #@! TO.N,ColA*
G04 #@! TO.C,K1*
X64412500Y-62175000D02*
X64452042Y-61594968D01*
D17*
G04 #@! TO.P,K1,1*
G04 #@! TO.N,ColA*
X64452500Y-61595000D03*
G04 #@! TO.P,K1,2*
G04 #@! TO.N,Net-(D1-Pad2)*
X58757495Y-63404996D03*
D18*
G04 #@! TD*
G04 #@! TO.N,Net-(D1-Pad2)*
G04 #@! TO.C,K1*
X58102500Y-64135000D02*
X59412490Y-62674992D01*
D17*
G04 #@! TO.P,K1,2*
G04 #@! TO.N,Net-(D1-Pad2)*
X59412500Y-62675000D03*
D15*
G04 #@! TO.P,K1,1*
G04 #@! TO.N,ColA*
X66912500Y-62875000D03*
G04 #@! TO.P,K1,2*
G04 #@! TO.N,Net-(D1-Pad2)*
X61912500Y-60775000D03*
G04 #@! TD*
G04 #@! TO.P,K2,2*
G04 #@! TO.N,Net-(D2-Pad2)*
X80962500Y-60775000D03*
G04 #@! TO.P,K2,1*
G04 #@! TO.N,ColB*
X85962500Y-62875000D03*
D17*
G04 #@! TO.P,K2,2*
G04 #@! TO.N,Net-(D2-Pad2)*
X78462500Y-62675000D03*
X77807495Y-63404996D03*
D18*
G04 #@! TD*
G04 #@! TO.N,Net-(D2-Pad2)*
G04 #@! TO.C,K2*
X77152500Y-64135000D02*
X78462490Y-62674992D01*
D17*
G04 #@! TO.P,K2,1*
G04 #@! TO.N,ColB*
X83502500Y-61595000D03*
X83482271Y-61884984D03*
D18*
G04 #@! TD*
G04 #@! TO.N,ColB*
G04 #@! TO.C,K2*
X83462500Y-62175000D02*
X83502042Y-61594968D01*
D17*
G04 #@! TO.P,K3,1*
G04 #@! TO.N,ColC*
X102531771Y-61884984D03*
D18*
G04 #@! TD*
G04 #@! TO.N,ColC*
G04 #@! TO.C,K3*
X102512000Y-62175000D02*
X102551542Y-61594968D01*
D17*
G04 #@! TO.P,K3,1*
G04 #@! TO.N,ColC*
X102552000Y-61595000D03*
G04 #@! TO.P,K3,2*
G04 #@! TO.N,Net-(D3-Pad2)*
X96856995Y-63404996D03*
D18*
G04 #@! TD*
G04 #@! TO.N,Net-(D3-Pad2)*
G04 #@! TO.C,K3*
X96202000Y-64135000D02*
X97511990Y-62674992D01*
D17*
G04 #@! TO.P,K3,2*
G04 #@! TO.N,Net-(D3-Pad2)*
X97512000Y-62675000D03*
D15*
G04 #@! TO.P,K3,1*
G04 #@! TO.N,ColC*
X105012000Y-62875000D03*
G04 #@! TO.P,K3,2*
G04 #@! TO.N,Net-(D3-Pad2)*
X100012000Y-60775000D03*
G04 #@! TD*
G04 #@! TO.P,K4,2*
G04 #@! TO.N,Net-(D4-Pad2)*
X119062000Y-60775000D03*
G04 #@! TO.P,K4,1*
G04 #@! TO.N,ColD*
X124062000Y-62875000D03*
D17*
G04 #@! TO.P,K4,2*
G04 #@! TO.N,Net-(D4-Pad2)*
X116562000Y-62675000D03*
X115906995Y-63404996D03*
D18*
G04 #@! TD*
G04 #@! TO.N,Net-(D4-Pad2)*
G04 #@! TO.C,K4*
X115252000Y-64135000D02*
X116561990Y-62674992D01*
D17*
G04 #@! TO.P,K4,1*
G04 #@! TO.N,ColD*
X121602000Y-61595000D03*
X121581771Y-61884984D03*
D18*
G04 #@! TD*
G04 #@! TO.N,ColD*
G04 #@! TO.C,K4*
X121562000Y-62175000D02*
X121601542Y-61594968D01*
D15*
G04 #@! TO.P,K5,2*
G04 #@! TO.N,Net-(D5-Pad2)*
X138112000Y-60775000D03*
G04 #@! TO.P,K5,1*
G04 #@! TO.N,ColE*
X143112000Y-62875000D03*
D17*
G04 #@! TO.P,K5,2*
G04 #@! TO.N,Net-(D5-Pad2)*
X135612000Y-62675000D03*
X134956995Y-63404996D03*
D18*
G04 #@! TD*
G04 #@! TO.N,Net-(D5-Pad2)*
G04 #@! TO.C,K5*
X134302000Y-64135000D02*
X135611990Y-62674992D01*
D17*
G04 #@! TO.P,K5,1*
G04 #@! TO.N,ColE*
X140652000Y-61595000D03*
X140631771Y-61884984D03*
D18*
G04 #@! TD*
G04 #@! TO.N,ColE*
G04 #@! TO.C,K5*
X140612000Y-62175000D02*
X140651542Y-61594968D01*
D15*
G04 #@! TO.P,K6,2*
G04 #@! TO.N,Net-(D6-Pad2)*
X157162000Y-60775000D03*
G04 #@! TO.P,K6,1*
G04 #@! TO.N,ColF*
X162162000Y-62875000D03*
D17*
G04 #@! TO.P,K6,2*
G04 #@! TO.N,Net-(D6-Pad2)*
X154662000Y-62675000D03*
X154006995Y-63404996D03*
D18*
G04 #@! TD*
G04 #@! TO.N,Net-(D6-Pad2)*
G04 #@! TO.C,K6*
X153352000Y-64135000D02*
X154661990Y-62674992D01*
D17*
G04 #@! TO.P,K6,1*
G04 #@! TO.N,ColF*
X159702000Y-61595000D03*
X159681771Y-61884984D03*
D18*
G04 #@! TD*
G04 #@! TO.N,ColF*
G04 #@! TO.C,K6*
X159662000Y-62175000D02*
X159701542Y-61594968D01*
D15*
G04 #@! TO.P,K7,2*
G04 #@! TO.N,Net-(D7-Pad2)*
X176212000Y-60775000D03*
G04 #@! TO.P,K7,1*
G04 #@! TO.N,ColG*
X181212000Y-62875000D03*
D17*
G04 #@! TO.P,K7,2*
G04 #@! TO.N,Net-(D7-Pad2)*
X173712000Y-62675000D03*
X173056995Y-63404996D03*
D18*
G04 #@! TD*
G04 #@! TO.N,Net-(D7-Pad2)*
G04 #@! TO.C,K7*
X172402000Y-64135000D02*
X173711990Y-62674992D01*
D17*
G04 #@! TO.P,K7,1*
G04 #@! TO.N,ColG*
X178752000Y-61595000D03*
X178731771Y-61884984D03*
D18*
G04 #@! TD*
G04 #@! TO.N,ColG*
G04 #@! TO.C,K7*
X178712000Y-62175000D02*
X178751542Y-61594968D01*
D15*
G04 #@! TO.P,K8,2*
G04 #@! TO.N,Net-(D8-Pad2)*
X195262000Y-60775000D03*
G04 #@! TO.P,K8,1*
G04 #@! TO.N,ColH*
X200262000Y-62875000D03*
D17*
G04 #@! TO.P,K8,2*
G04 #@! TO.N,Net-(D8-Pad2)*
X192762000Y-62675000D03*
X192106995Y-63404996D03*
D18*
G04 #@! TD*
G04 #@! TO.N,Net-(D8-Pad2)*
G04 #@! TO.C,K8*
X191452000Y-64135000D02*
X192761990Y-62674992D01*
D17*
G04 #@! TO.P,K8,1*
G04 #@! TO.N,ColH*
X197802000Y-61595000D03*
X197781771Y-61884984D03*
D18*
G04 #@! TD*
G04 #@! TO.N,ColH*
G04 #@! TO.C,K8*
X197762000Y-62175000D02*
X197801542Y-61594968D01*
D15*
G04 #@! TO.P,K9,2*
G04 #@! TO.N,Net-(D9-Pad2)*
X214312000Y-60775000D03*
G04 #@! TO.P,K9,1*
G04 #@! TO.N,ColI*
X219312000Y-62875000D03*
D17*
G04 #@! TO.P,K9,2*
G04 #@! TO.N,Net-(D9-Pad2)*
X211812000Y-62675000D03*
X211156995Y-63404996D03*
D18*
G04 #@! TD*
G04 #@! TO.N,Net-(D9-Pad2)*
G04 #@! TO.C,K9*
X210502000Y-64135000D02*
X211811990Y-62674992D01*
D17*
G04 #@! TO.P,K9,1*
G04 #@! TO.N,ColI*
X216852000Y-61595000D03*
X216831771Y-61884984D03*
D18*
G04 #@! TD*
G04 #@! TO.N,ColI*
G04 #@! TO.C,K9*
X216812000Y-62175000D02*
X216851542Y-61594968D01*
D17*
G04 #@! TO.P,K10,1*
G04 #@! TO.N,ColJ*
X235881771Y-61884984D03*
D18*
G04 #@! TD*
G04 #@! TO.N,ColJ*
G04 #@! TO.C,K10*
X235862000Y-62175000D02*
X235901542Y-61594968D01*
D17*
G04 #@! TO.P,K10,1*
G04 #@! TO.N,ColJ*
X235902000Y-61595000D03*
G04 #@! TO.P,K10,2*
G04 #@! TO.N,Net-(D10-Pad2)*
X230206995Y-63404996D03*
D18*
G04 #@! TD*
G04 #@! TO.N,Net-(D10-Pad2)*
G04 #@! TO.C,K10*
X229552000Y-64135000D02*
X230861990Y-62674992D01*
D17*
G04 #@! TO.P,K10,2*
G04 #@! TO.N,Net-(D10-Pad2)*
X230862000Y-62675000D03*
D15*
G04 #@! TO.P,K10,1*
G04 #@! TO.N,ColJ*
X238362000Y-62875000D03*
G04 #@! TO.P,K10,2*
G04 #@! TO.N,Net-(D10-Pad2)*
X233362000Y-60775000D03*
G04 #@! TD*
G04 #@! TO.P,K11,2*
G04 #@! TO.N,Net-(D11-Pad2)*
X252412000Y-60775000D03*
G04 #@! TO.P,K11,1*
G04 #@! TO.N,ColA*
X257412000Y-62875000D03*
D17*
G04 #@! TO.P,K11,2*
G04 #@! TO.N,Net-(D11-Pad2)*
X249912000Y-62675000D03*
X249256995Y-63404996D03*
D18*
G04 #@! TD*
G04 #@! TO.N,Net-(D11-Pad2)*
G04 #@! TO.C,K11*
X248602000Y-64135000D02*
X249911990Y-62674992D01*
D17*
G04 #@! TO.P,K11,1*
G04 #@! TO.N,ColA*
X254952000Y-61595000D03*
X254931771Y-61884984D03*
D18*
G04 #@! TD*
G04 #@! TO.N,ColA*
G04 #@! TO.C,K11*
X254912000Y-62175000D02*
X254951542Y-61594968D01*
D15*
G04 #@! TO.P,K12,2*
G04 #@! TO.N,Net-(D12-Pad2)*
X271462000Y-60775000D03*
G04 #@! TO.P,K12,1*
G04 #@! TO.N,ColB*
X276462000Y-62875000D03*
D17*
G04 #@! TO.P,K12,2*
G04 #@! TO.N,Net-(D12-Pad2)*
X268962000Y-62675000D03*
X268306995Y-63404996D03*
D18*
G04 #@! TD*
G04 #@! TO.N,Net-(D12-Pad2)*
G04 #@! TO.C,K12*
X267652000Y-64135000D02*
X268961990Y-62674992D01*
D17*
G04 #@! TO.P,K12,1*
G04 #@! TO.N,ColB*
X274002000Y-61595000D03*
X273981771Y-61884984D03*
D18*
G04 #@! TD*
G04 #@! TO.N,ColB*
G04 #@! TO.C,K12*
X273962000Y-62175000D02*
X274001542Y-61594968D01*
D15*
G04 #@! TO.P,K14,2*
G04 #@! TO.N,Net-(D14-Pad2)*
X61912500Y-79825000D03*
G04 #@! TO.P,K14,1*
G04 #@! TO.N,ColA*
X66912500Y-81925000D03*
D17*
G04 #@! TO.P,K14,2*
G04 #@! TO.N,Net-(D14-Pad2)*
X59412500Y-81725000D03*
X58757495Y-82454996D03*
D18*
G04 #@! TD*
G04 #@! TO.N,Net-(D14-Pad2)*
G04 #@! TO.C,K14*
X58102500Y-83185000D02*
X59412490Y-81724992D01*
D17*
G04 #@! TO.P,K14,1*
G04 #@! TO.N,ColA*
X64452500Y-80645000D03*
X64432271Y-80934984D03*
D18*
G04 #@! TD*
G04 #@! TO.N,ColA*
G04 #@! TO.C,K14*
X64412500Y-81225000D02*
X64452042Y-80644968D01*
D15*
G04 #@! TO.P,K15,2*
G04 #@! TO.N,Net-(D15-Pad2)*
X80962500Y-79825000D03*
G04 #@! TO.P,K15,1*
G04 #@! TO.N,ColB*
X85962500Y-81925000D03*
D17*
G04 #@! TO.P,K15,2*
G04 #@! TO.N,Net-(D15-Pad2)*
X78462500Y-81725000D03*
X77807495Y-82454996D03*
D18*
G04 #@! TD*
G04 #@! TO.N,Net-(D15-Pad2)*
G04 #@! TO.C,K15*
X77152500Y-83185000D02*
X78462490Y-81724992D01*
D17*
G04 #@! TO.P,K15,1*
G04 #@! TO.N,ColB*
X83502500Y-80645000D03*
X83482271Y-80934984D03*
D18*
G04 #@! TD*
G04 #@! TO.N,ColB*
G04 #@! TO.C,K15*
X83462500Y-81225000D02*
X83502042Y-80644968D01*
D15*
G04 #@! TO.P,K16,2*
G04 #@! TO.N,Net-(D16-Pad2)*
X100012000Y-79825000D03*
G04 #@! TO.P,K16,1*
G04 #@! TO.N,ColC*
X105012000Y-81925000D03*
D17*
G04 #@! TO.P,K16,2*
G04 #@! TO.N,Net-(D16-Pad2)*
X97512000Y-81725000D03*
X96856995Y-82454996D03*
D18*
G04 #@! TD*
G04 #@! TO.N,Net-(D16-Pad2)*
G04 #@! TO.C,K16*
X96202000Y-83185000D02*
X97511990Y-81724992D01*
D17*
G04 #@! TO.P,K16,1*
G04 #@! TO.N,ColC*
X102552000Y-80645000D03*
X102531771Y-80934984D03*
D18*
G04 #@! TD*
G04 #@! TO.N,ColC*
G04 #@! TO.C,K16*
X102512000Y-81225000D02*
X102551542Y-80644968D01*
D15*
G04 #@! TO.P,K17,2*
G04 #@! TO.N,Net-(D17-Pad2)*
X119062000Y-79825000D03*
G04 #@! TO.P,K17,1*
G04 #@! TO.N,ColD*
X124062000Y-81925000D03*
D17*
G04 #@! TO.P,K17,2*
G04 #@! TO.N,Net-(D17-Pad2)*
X116562000Y-81725000D03*
X115906995Y-82454996D03*
D18*
G04 #@! TD*
G04 #@! TO.N,Net-(D17-Pad2)*
G04 #@! TO.C,K17*
X115252000Y-83185000D02*
X116561990Y-81724992D01*
D17*
G04 #@! TO.P,K17,1*
G04 #@! TO.N,ColD*
X121602000Y-80645000D03*
X121581771Y-80934984D03*
D18*
G04 #@! TD*
G04 #@! TO.N,ColD*
G04 #@! TO.C,K17*
X121562000Y-81225000D02*
X121601542Y-80644968D01*
D15*
G04 #@! TO.P,K18,2*
G04 #@! TO.N,Net-(D18-Pad2)*
X138112000Y-79825000D03*
G04 #@! TO.P,K18,1*
G04 #@! TO.N,ColE*
X143112000Y-81925000D03*
D17*
G04 #@! TO.P,K18,2*
G04 #@! TO.N,Net-(D18-Pad2)*
X135612000Y-81725000D03*
X134956995Y-82454996D03*
D18*
G04 #@! TD*
G04 #@! TO.N,Net-(D18-Pad2)*
G04 #@! TO.C,K18*
X134302000Y-83185000D02*
X135611990Y-81724992D01*
D17*
G04 #@! TO.P,K18,1*
G04 #@! TO.N,ColE*
X140652000Y-80645000D03*
X140631771Y-80934984D03*
D18*
G04 #@! TD*
G04 #@! TO.N,ColE*
G04 #@! TO.C,K18*
X140612000Y-81225000D02*
X140651542Y-80644968D01*
D15*
G04 #@! TO.P,K19,2*
G04 #@! TO.N,Net-(D19-Pad2)*
X157162000Y-79825000D03*
G04 #@! TO.P,K19,1*
G04 #@! TO.N,ColF*
X162162000Y-81925000D03*
D17*
G04 #@! TO.P,K19,2*
G04 #@! TO.N,Net-(D19-Pad2)*
X154662000Y-81725000D03*
X154006995Y-82454996D03*
D18*
G04 #@! TD*
G04 #@! TO.N,Net-(D19-Pad2)*
G04 #@! TO.C,K19*
X153352000Y-83185000D02*
X154661990Y-81724992D01*
D17*
G04 #@! TO.P,K19,1*
G04 #@! TO.N,ColF*
X159702000Y-80645000D03*
X159681771Y-80934984D03*
D18*
G04 #@! TD*
G04 #@! TO.N,ColF*
G04 #@! TO.C,K19*
X159662000Y-81225000D02*
X159701542Y-80644968D01*
D15*
G04 #@! TO.P,K20,2*
G04 #@! TO.N,Net-(D20-Pad2)*
X176212000Y-79825000D03*
G04 #@! TO.P,K20,1*
G04 #@! TO.N,ColG*
X181212000Y-81925000D03*
D17*
G04 #@! TO.P,K20,2*
G04 #@! TO.N,Net-(D20-Pad2)*
X173712000Y-81725000D03*
X173056995Y-82454996D03*
D18*
G04 #@! TD*
G04 #@! TO.N,Net-(D20-Pad2)*
G04 #@! TO.C,K20*
X172402000Y-83185000D02*
X173711990Y-81724992D01*
D17*
G04 #@! TO.P,K20,1*
G04 #@! TO.N,ColG*
X178752000Y-80645000D03*
X178731771Y-80934984D03*
D18*
G04 #@! TD*
G04 #@! TO.N,ColG*
G04 #@! TO.C,K20*
X178712000Y-81225000D02*
X178751542Y-80644968D01*
D15*
G04 #@! TO.P,K21,2*
G04 #@! TO.N,Net-(D21-Pad2)*
X195262000Y-79825000D03*
G04 #@! TO.P,K21,1*
G04 #@! TO.N,ColH*
X200262000Y-81925000D03*
D17*
G04 #@! TO.P,K21,2*
G04 #@! TO.N,Net-(D21-Pad2)*
X192762000Y-81725000D03*
X192106995Y-82454996D03*
D18*
G04 #@! TD*
G04 #@! TO.N,Net-(D21-Pad2)*
G04 #@! TO.C,K21*
X191452000Y-83185000D02*
X192761990Y-81724992D01*
D17*
G04 #@! TO.P,K21,1*
G04 #@! TO.N,ColH*
X197802000Y-80645000D03*
X197781771Y-80934984D03*
D18*
G04 #@! TD*
G04 #@! TO.N,ColH*
G04 #@! TO.C,K21*
X197762000Y-81225000D02*
X197801542Y-80644968D01*
D17*
G04 #@! TO.P,K22,1*
G04 #@! TO.N,ColI*
X216831771Y-80934984D03*
D18*
G04 #@! TD*
G04 #@! TO.N,ColI*
G04 #@! TO.C,K22*
X216812000Y-81225000D02*
X216851542Y-80644968D01*
D17*
G04 #@! TO.P,K22,1*
G04 #@! TO.N,ColI*
X216852000Y-80645000D03*
G04 #@! TO.P,K22,2*
G04 #@! TO.N,Net-(D22-Pad2)*
X211156995Y-82454996D03*
D18*
G04 #@! TD*
G04 #@! TO.N,Net-(D22-Pad2)*
G04 #@! TO.C,K22*
X210502000Y-83185000D02*
X211811990Y-81724992D01*
D17*
G04 #@! TO.P,K22,2*
G04 #@! TO.N,Net-(D22-Pad2)*
X211812000Y-81725000D03*
D15*
G04 #@! TO.P,K22,1*
G04 #@! TO.N,ColI*
X219312000Y-81925000D03*
G04 #@! TO.P,K22,2*
G04 #@! TO.N,Net-(D22-Pad2)*
X214312000Y-79825000D03*
G04 #@! TD*
D17*
G04 #@! TO.P,K23,1*
G04 #@! TO.N,ColJ*
X235881771Y-80934984D03*
D18*
G04 #@! TD*
G04 #@! TO.N,ColJ*
G04 #@! TO.C,K23*
X235862000Y-81225000D02*
X235901542Y-80644968D01*
D17*
G04 #@! TO.P,K23,1*
G04 #@! TO.N,ColJ*
X235902000Y-80645000D03*
G04 #@! TO.P,K23,2*
G04 #@! TO.N,Net-(D23-Pad2)*
X230206995Y-82454996D03*
D18*
G04 #@! TD*
G04 #@! TO.N,Net-(D23-Pad2)*
G04 #@! TO.C,K23*
X229552000Y-83185000D02*
X230861990Y-81724992D01*
D17*
G04 #@! TO.P,K23,2*
G04 #@! TO.N,Net-(D23-Pad2)*
X230862000Y-81725000D03*
D15*
G04 #@! TO.P,K23,1*
G04 #@! TO.N,ColJ*
X238362000Y-81925000D03*
G04 #@! TO.P,K23,2*
G04 #@! TO.N,Net-(D23-Pad2)*
X233362000Y-79825000D03*
G04 #@! TD*
D17*
G04 #@! TO.P,K24,1*
G04 #@! TO.N,ColD*
X254931771Y-80934984D03*
D18*
G04 #@! TD*
G04 #@! TO.N,ColD*
G04 #@! TO.C,K24*
X254912000Y-81225000D02*
X254951542Y-80644968D01*
D17*
G04 #@! TO.P,K24,1*
G04 #@! TO.N,ColD*
X254952000Y-80645000D03*
G04 #@! TO.P,K24,2*
G04 #@! TO.N,Net-(D24-Pad2)*
X249256995Y-82454996D03*
D18*
G04 #@! TD*
G04 #@! TO.N,Net-(D24-Pad2)*
G04 #@! TO.C,K24*
X248602000Y-83185000D02*
X249911990Y-81724992D01*
D17*
G04 #@! TO.P,K24,2*
G04 #@! TO.N,Net-(D24-Pad2)*
X249912000Y-81725000D03*
D15*
G04 #@! TO.P,K24,1*
G04 #@! TO.N,ColD*
X257412000Y-81925000D03*
G04 #@! TO.P,K24,2*
G04 #@! TO.N,Net-(D24-Pad2)*
X252412000Y-79825000D03*
G04 #@! TD*
D17*
G04 #@! TO.P,K25,1*
G04 #@! TO.N,ColE*
X273981771Y-80934984D03*
D18*
G04 #@! TD*
G04 #@! TO.N,ColE*
G04 #@! TO.C,K25*
X273962000Y-81225000D02*
X274001542Y-80644968D01*
D17*
G04 #@! TO.P,K25,1*
G04 #@! TO.N,ColE*
X274002000Y-80645000D03*
G04 #@! TO.P,K25,2*
G04 #@! TO.N,Net-(D25-Pad2)*
X268306995Y-82454996D03*
D18*
G04 #@! TD*
G04 #@! TO.N,Net-(D25-Pad2)*
G04 #@! TO.C,K25*
X267652000Y-83185000D02*
X268961990Y-81724992D01*
D17*
G04 #@! TO.P,K25,2*
G04 #@! TO.N,Net-(D25-Pad2)*
X268962000Y-81725000D03*
D15*
G04 #@! TO.P,K25,1*
G04 #@! TO.N,ColE*
X276462000Y-81925000D03*
G04 #@! TO.P,K25,2*
G04 #@! TO.N,Net-(D25-Pad2)*
X271462000Y-79825000D03*
G04 #@! TD*
D17*
G04 #@! TO.P,K27,1*
G04 #@! TO.N,ColA*
X64432271Y-99984984D03*
D18*
G04 #@! TD*
G04 #@! TO.N,ColA*
G04 #@! TO.C,K27*
X64412500Y-100275000D02*
X64452042Y-99694968D01*
D17*
G04 #@! TO.P,K27,1*
G04 #@! TO.N,ColA*
X64452500Y-99695000D03*
G04 #@! TO.P,K27,2*
G04 #@! TO.N,Net-(D27-Pad2)*
X58757495Y-101504996D03*
D18*
G04 #@! TD*
G04 #@! TO.N,Net-(D27-Pad2)*
G04 #@! TO.C,K27*
X58102500Y-102235000D02*
X59412490Y-100774992D01*
D17*
G04 #@! TO.P,K27,2*
G04 #@! TO.N,Net-(D27-Pad2)*
X59412500Y-100775000D03*
D15*
G04 #@! TO.P,K27,1*
G04 #@! TO.N,ColA*
X66912500Y-100975000D03*
G04 #@! TO.P,K27,2*
G04 #@! TO.N,Net-(D27-Pad2)*
X61912500Y-98875000D03*
G04 #@! TD*
D17*
G04 #@! TO.P,K28,1*
G04 #@! TO.N,ColB*
X83482271Y-99984984D03*
D18*
G04 #@! TD*
G04 #@! TO.N,ColB*
G04 #@! TO.C,K28*
X83462500Y-100275000D02*
X83502042Y-99694968D01*
D17*
G04 #@! TO.P,K28,1*
G04 #@! TO.N,ColB*
X83502500Y-99695000D03*
G04 #@! TO.P,K28,2*
G04 #@! TO.N,Net-(D28-Pad2)*
X77807495Y-101504996D03*
D18*
G04 #@! TD*
G04 #@! TO.N,Net-(D28-Pad2)*
G04 #@! TO.C,K28*
X77152500Y-102235000D02*
X78462490Y-100774992D01*
D17*
G04 #@! TO.P,K28,2*
G04 #@! TO.N,Net-(D28-Pad2)*
X78462500Y-100775000D03*
D15*
G04 #@! TO.P,K28,1*
G04 #@! TO.N,ColB*
X85962500Y-100975000D03*
G04 #@! TO.P,K28,2*
G04 #@! TO.N,Net-(D28-Pad2)*
X80962500Y-98875000D03*
G04 #@! TD*
D17*
G04 #@! TO.P,K29,1*
G04 #@! TO.N,ColC*
X102531771Y-99984984D03*
D18*
G04 #@! TD*
G04 #@! TO.N,ColC*
G04 #@! TO.C,K29*
X102512000Y-100275000D02*
X102551542Y-99694968D01*
D17*
G04 #@! TO.P,K29,1*
G04 #@! TO.N,ColC*
X102552000Y-99695000D03*
G04 #@! TO.P,K29,2*
G04 #@! TO.N,Net-(D29-Pad2)*
X96856995Y-101504996D03*
D18*
G04 #@! TD*
G04 #@! TO.N,Net-(D29-Pad2)*
G04 #@! TO.C,K29*
X96202000Y-102235000D02*
X97511990Y-100774992D01*
D17*
G04 #@! TO.P,K29,2*
G04 #@! TO.N,Net-(D29-Pad2)*
X97512000Y-100775000D03*
D15*
G04 #@! TO.P,K29,1*
G04 #@! TO.N,ColC*
X105012000Y-100975000D03*
G04 #@! TO.P,K29,2*
G04 #@! TO.N,Net-(D29-Pad2)*
X100012000Y-98875000D03*
G04 #@! TD*
D17*
G04 #@! TO.P,K30,1*
G04 #@! TO.N,ColD*
X121581771Y-99984984D03*
D18*
G04 #@! TD*
G04 #@! TO.N,ColD*
G04 #@! TO.C,K30*
X121562000Y-100275000D02*
X121601542Y-99694968D01*
D17*
G04 #@! TO.P,K30,1*
G04 #@! TO.N,ColD*
X121602000Y-99695000D03*
G04 #@! TO.P,K30,2*
G04 #@! TO.N,Net-(D30-Pad2)*
X115906995Y-101504996D03*
D18*
G04 #@! TD*
G04 #@! TO.N,Net-(D30-Pad2)*
G04 #@! TO.C,K30*
X115252000Y-102235000D02*
X116561990Y-100774992D01*
D17*
G04 #@! TO.P,K30,2*
G04 #@! TO.N,Net-(D30-Pad2)*
X116562000Y-100775000D03*
D15*
G04 #@! TO.P,K30,1*
G04 #@! TO.N,ColD*
X124062000Y-100975000D03*
G04 #@! TO.P,K30,2*
G04 #@! TO.N,Net-(D30-Pad2)*
X119062000Y-98875000D03*
G04 #@! TD*
D17*
G04 #@! TO.P,K31,1*
G04 #@! TO.N,ColE*
X140631771Y-99984984D03*
D18*
G04 #@! TD*
G04 #@! TO.N,ColE*
G04 #@! TO.C,K31*
X140612000Y-100275000D02*
X140651542Y-99694968D01*
D17*
G04 #@! TO.P,K31,1*
G04 #@! TO.N,ColE*
X140652000Y-99695000D03*
G04 #@! TO.P,K31,2*
G04 #@! TO.N,Net-(D31-Pad2)*
X134956995Y-101504996D03*
D18*
G04 #@! TD*
G04 #@! TO.N,Net-(D31-Pad2)*
G04 #@! TO.C,K31*
X134302000Y-102235000D02*
X135611990Y-100774992D01*
D17*
G04 #@! TO.P,K31,2*
G04 #@! TO.N,Net-(D31-Pad2)*
X135612000Y-100775000D03*
D15*
G04 #@! TO.P,K31,1*
G04 #@! TO.N,ColE*
X143112000Y-100975000D03*
G04 #@! TO.P,K31,2*
G04 #@! TO.N,Net-(D31-Pad2)*
X138112000Y-98875000D03*
G04 #@! TD*
G04 #@! TO.P,K32,2*
G04 #@! TO.N,Net-(D32-Pad2)*
X157162000Y-98875000D03*
G04 #@! TO.P,K32,1*
G04 #@! TO.N,ColF*
X162162000Y-100975000D03*
D17*
G04 #@! TO.P,K32,2*
G04 #@! TO.N,Net-(D32-Pad2)*
X154662000Y-100775000D03*
X154006995Y-101504996D03*
D18*
G04 #@! TD*
G04 #@! TO.N,Net-(D32-Pad2)*
G04 #@! TO.C,K32*
X153352000Y-102235000D02*
X154661990Y-100774992D01*
D17*
G04 #@! TO.P,K32,1*
G04 #@! TO.N,ColF*
X159702000Y-99695000D03*
X159681771Y-99984984D03*
D18*
G04 #@! TD*
G04 #@! TO.N,ColF*
G04 #@! TO.C,K32*
X159662000Y-100275000D02*
X159701542Y-99694968D01*
D17*
G04 #@! TO.P,K33,1*
G04 #@! TO.N,ColG*
X178731771Y-99984984D03*
D18*
G04 #@! TD*
G04 #@! TO.N,ColG*
G04 #@! TO.C,K33*
X178712000Y-100275000D02*
X178751542Y-99694968D01*
D17*
G04 #@! TO.P,K33,1*
G04 #@! TO.N,ColG*
X178752000Y-99695000D03*
G04 #@! TO.P,K33,2*
G04 #@! TO.N,Net-(D33-Pad2)*
X173056995Y-101504996D03*
D18*
G04 #@! TD*
G04 #@! TO.N,Net-(D33-Pad2)*
G04 #@! TO.C,K33*
X172402000Y-102235000D02*
X173711990Y-100774992D01*
D17*
G04 #@! TO.P,K33,2*
G04 #@! TO.N,Net-(D33-Pad2)*
X173712000Y-100775000D03*
D15*
G04 #@! TO.P,K33,1*
G04 #@! TO.N,ColG*
X181212000Y-100975000D03*
G04 #@! TO.P,K33,2*
G04 #@! TO.N,Net-(D33-Pad2)*
X176212000Y-98875000D03*
G04 #@! TD*
D17*
G04 #@! TO.P,K34,1*
G04 #@! TO.N,ColH*
X197781771Y-99984984D03*
D18*
G04 #@! TD*
G04 #@! TO.N,ColH*
G04 #@! TO.C,K34*
X197762000Y-100275000D02*
X197801542Y-99694968D01*
D17*
G04 #@! TO.P,K34,1*
G04 #@! TO.N,ColH*
X197802000Y-99695000D03*
G04 #@! TO.P,K34,2*
G04 #@! TO.N,Net-(D34-Pad2)*
X192106995Y-101504996D03*
D18*
G04 #@! TD*
G04 #@! TO.N,Net-(D34-Pad2)*
G04 #@! TO.C,K34*
X191452000Y-102235000D02*
X192761990Y-100774992D01*
D17*
G04 #@! TO.P,K34,2*
G04 #@! TO.N,Net-(D34-Pad2)*
X192762000Y-100775000D03*
D15*
G04 #@! TO.P,K34,1*
G04 #@! TO.N,ColH*
X200262000Y-100975000D03*
G04 #@! TO.P,K34,2*
G04 #@! TO.N,Net-(D34-Pad2)*
X195262000Y-98875000D03*
G04 #@! TD*
D17*
G04 #@! TO.P,K35,1*
G04 #@! TO.N,ColI*
X216831771Y-99984984D03*
D18*
G04 #@! TD*
G04 #@! TO.N,ColI*
G04 #@! TO.C,K35*
X216812000Y-100275000D02*
X216851542Y-99694968D01*
D17*
G04 #@! TO.P,K35,1*
G04 #@! TO.N,ColI*
X216852000Y-99695000D03*
G04 #@! TO.P,K35,2*
G04 #@! TO.N,Net-(D35-Pad2)*
X211156995Y-101504996D03*
D18*
G04 #@! TD*
G04 #@! TO.N,Net-(D35-Pad2)*
G04 #@! TO.C,K35*
X210502000Y-102235000D02*
X211811990Y-100774992D01*
D17*
G04 #@! TO.P,K35,2*
G04 #@! TO.N,Net-(D35-Pad2)*
X211812000Y-100775000D03*
D15*
G04 #@! TO.P,K35,1*
G04 #@! TO.N,ColI*
X219312000Y-100975000D03*
G04 #@! TO.P,K35,2*
G04 #@! TO.N,Net-(D35-Pad2)*
X214312000Y-98875000D03*
G04 #@! TD*
D17*
G04 #@! TO.P,K36,1*
G04 #@! TO.N,ColJ*
X235881771Y-99984984D03*
D18*
G04 #@! TD*
G04 #@! TO.N,ColJ*
G04 #@! TO.C,K36*
X235862000Y-100275000D02*
X235901542Y-99694968D01*
D17*
G04 #@! TO.P,K36,1*
G04 #@! TO.N,ColJ*
X235902000Y-99695000D03*
G04 #@! TO.P,K36,2*
G04 #@! TO.N,Net-(D36-Pad2)*
X230206995Y-101504996D03*
D18*
G04 #@! TD*
G04 #@! TO.N,Net-(D36-Pad2)*
G04 #@! TO.C,K36*
X229552000Y-102235000D02*
X230861990Y-100774992D01*
D17*
G04 #@! TO.P,K36,2*
G04 #@! TO.N,Net-(D36-Pad2)*
X230862000Y-100775000D03*
D15*
G04 #@! TO.P,K36,1*
G04 #@! TO.N,ColJ*
X238362000Y-100975000D03*
G04 #@! TO.P,K36,2*
G04 #@! TO.N,Net-(D36-Pad2)*
X233362000Y-98875000D03*
G04 #@! TD*
D17*
G04 #@! TO.P,K37,1*
G04 #@! TO.N,ColG*
X254931771Y-99984984D03*
D18*
G04 #@! TD*
G04 #@! TO.N,ColG*
G04 #@! TO.C,K37*
X254912000Y-100275000D02*
X254951542Y-99694968D01*
D17*
G04 #@! TO.P,K37,1*
G04 #@! TO.N,ColG*
X254952000Y-99695000D03*
G04 #@! TO.P,K37,2*
G04 #@! TO.N,Net-(D37-Pad2)*
X249256995Y-101504996D03*
D18*
G04 #@! TD*
G04 #@! TO.N,Net-(D37-Pad2)*
G04 #@! TO.C,K37*
X248602000Y-102235000D02*
X249911990Y-100774992D01*
D17*
G04 #@! TO.P,K37,2*
G04 #@! TO.N,Net-(D37-Pad2)*
X249912000Y-100775000D03*
D15*
G04 #@! TO.P,K37,1*
G04 #@! TO.N,ColG*
X257412000Y-100975000D03*
G04 #@! TO.P,K37,2*
G04 #@! TO.N,Net-(D37-Pad2)*
X252412000Y-98875000D03*
G04 #@! TD*
D17*
G04 #@! TO.P,K_1.25u1,1*
G04 #@! TO.N,ColH*
X276419771Y-100009984D03*
D18*
G04 #@! TD*
G04 #@! TO.N,ColH*
G04 #@! TO.C,K_1.25u1*
X276400000Y-100300000D02*
X276439542Y-99719968D01*
D17*
G04 #@! TO.P,K_1.25u1,1*
G04 #@! TO.N,ColH*
X276440000Y-99720000D03*
G04 #@! TO.P,K_1.25u1,2*
G04 #@! TO.N,Net-(D_1.25u1-Pad2)*
X270744995Y-101529996D03*
D18*
G04 #@! TD*
G04 #@! TO.N,Net-(D_1.25u1-Pad2)*
G04 #@! TO.C,K_1.25u1*
X270090000Y-102260000D02*
X271399990Y-100799992D01*
D17*
G04 #@! TO.P,K_1.25u1,2*
G04 #@! TO.N,Net-(D_1.25u1-Pad2)*
X271400000Y-100800000D03*
D15*
G04 #@! TO.P,K_1.25u1,1*
G04 #@! TO.N,ColH*
X278900000Y-101000000D03*
G04 #@! TO.P,K_1.25u1,2*
G04 #@! TO.N,Net-(D_1.25u1-Pad2)*
X273900000Y-98900000D03*
G04 #@! TD*
D17*
G04 #@! TO.P,K_BCKSPC1,1*
G04 #@! TO.N,ColC*
X297794771Y-61884984D03*
D18*
G04 #@! TD*
G04 #@! TO.N,ColC*
G04 #@! TO.C,K_BCKSPC1*
X297775000Y-62175000D02*
X297814542Y-61594968D01*
D17*
G04 #@! TO.P,K_BCKSPC1,1*
G04 #@! TO.N,ColC*
X297815000Y-61595000D03*
G04 #@! TO.P,K_BCKSPC1,2*
G04 #@! TO.N,Net-(D13-Pad2)*
X292119995Y-63404996D03*
D18*
G04 #@! TD*
G04 #@! TO.N,Net-(D13-Pad2)*
G04 #@! TO.C,K_BCKSPC1*
X291465000Y-64135000D02*
X292774990Y-62674992D01*
D17*
G04 #@! TO.P,K_BCKSPC1,2*
G04 #@! TO.N,Net-(D13-Pad2)*
X292775000Y-62675000D03*
D15*
G04 #@! TO.P,K_BCKSPC1,1*
G04 #@! TO.N,ColC*
X300275000Y-62875000D03*
G04 #@! TO.P,K_BCKSPC1,2*
G04 #@! TO.N,Net-(D13-Pad2)*
X295275000Y-60775000D03*
G04 #@! TD*
D13*
G04 #@! TO.P,D_ISOENTR1,2*
G04 #@! TO.N,Net-(D_ISOENTR1-Pad2)*
X283464000Y-83007000D03*
G04 #@! TO.P,D_ISOENTR1,1*
G04 #@! TO.N,RowD*
X283464000Y-86157000D03*
D12*
X283464000Y-88482000D03*
D11*
G04 #@! TO.P,D_ISOENTR1,2*
G04 #@! TO.N,Net-(D_ISOENTR1-Pad2)*
X283464000Y-80682000D03*
D10*
G04 #@! TD*
G04 #@! TO.N,RowD*
G04 #@! TO.C,D_ISOENTR1*
X283464000Y-87282000D03*
G04 #@! TO.N,Net-(D_ISOENTR1-Pad2)*
G04 #@! TO.C,D_ISOENTR1*
X283464000Y-81882000D03*
G04 #@! TD*
D19*
G04 #@! TO.P,LED_DATA1,1*
G04 #@! TO.N,RGB*
X53700000Y-96800000D03*
G04 #@! TD*
G04 #@! TO.P,LED_GND1,1*
G04 #@! TO.N,GND*
X53700000Y-99500000D03*
G04 #@! TD*
G04 #@! TO.P,LED_PWR1,1*
G04 #@! TO.N,RGB_PWR*
X53600000Y-93400000D03*
G04 #@! TD*
D22*
G04 #@! TO.P,SW2,1*
G04 #@! TO.N,DP1*
X281050000Y-54324600D03*
G04 #@! TO.P,SW2,2*
G04 #@! TO.N,GND*
X284050000Y-54324600D03*
G04 #@! TO.P,SW2,3*
G04 #@! TO.N,Net-(SW2-Pad3)*
X285550000Y-54324600D03*
D23*
G04 #@! TO.P,SW2,*
G04 #@! TO.N,*
X279650000Y-51464600D03*
X286950000Y-51464600D03*
X286950000Y-53674600D03*
X279650000Y-53674600D03*
G04 #@! TD*
D24*
G04 #@! TO.N,ColH*
X197866100Y-88900000D03*
G04 #@! TO.N,GND*
X254188400Y-58471200D03*
G04 #@! TO.N,RGB_PWR*
X111486300Y-62927800D03*
G04 #@! TO.N,DP1*
X250687900Y-60512400D03*
G04 #@! TD*
D25*
G04 #@! TO.N,Net-(D1-Pad2)*
X61912500Y-60775000D02*
X61912500Y-60289000D01*
X61912500Y-60289000D02*
X63867700Y-58333800D01*
X63867700Y-58333800D02*
X65477800Y-58333800D01*
X65477800Y-58333800D02*
X70300000Y-63156000D01*
X59412500Y-62675000D02*
X60012500Y-62675000D01*
X60012500Y-62675000D02*
X61912500Y-60775000D01*
X70300000Y-65481000D02*
X70300000Y-64356000D01*
X70300000Y-63156000D02*
X70300000Y-64356000D01*
X58102500Y-63985000D02*
X59412500Y-62675000D01*
X58102500Y-64135000D02*
X58102500Y-63985000D01*
G04 #@! TO.N,Net-(D2-Pad2)*
X80962500Y-60775000D02*
X79062500Y-62675000D01*
X79062500Y-62675000D02*
X78462500Y-62675000D01*
X77152500Y-64135000D02*
X74588700Y-61834700D01*
X72644000Y-63156000D02*
X73267400Y-63156000D01*
X73267400Y-63156000D02*
X74588700Y-61834700D01*
X72644000Y-63156000D02*
X72644000Y-64356000D01*
X72644000Y-65481000D02*
X72644000Y-64356000D01*
X77152500Y-63985000D02*
X78462500Y-62675000D01*
X77152500Y-64135000D02*
X77152500Y-63985000D01*
G04 #@! TO.N,Net-(D3-Pad2)*
X100012000Y-60775000D02*
X99412000Y-60775000D01*
X99412000Y-60775000D02*
X97512000Y-62675000D01*
X127508000Y-62597000D02*
X124331400Y-59420400D01*
X124331400Y-59420400D02*
X112139900Y-59420400D01*
X112139900Y-59420400D02*
X108835500Y-62724800D01*
X108835500Y-62724800D02*
X106855500Y-62724800D01*
X106855500Y-62724800D02*
X104238700Y-60108000D01*
X104238700Y-60108000D02*
X100679000Y-60108000D01*
X100679000Y-60108000D02*
X100012000Y-60775000D01*
X127508000Y-62597000D02*
X127508000Y-63797000D01*
X127508000Y-64922000D02*
X127508000Y-63797000D01*
X96202000Y-63985000D02*
X97512000Y-62675000D01*
X96202000Y-64135000D02*
X96202000Y-63985000D01*
G04 #@! TO.N,Net-(D4-Pad2)*
X116724600Y-63511300D02*
X116562000Y-63348700D01*
X116562000Y-63348700D02*
X116562000Y-62675000D01*
X130048000Y-63848000D02*
X130048000Y-64973000D01*
X130048000Y-62648000D02*
X130048000Y-63848000D01*
X115252000Y-63985000D02*
X116562000Y-62675000D01*
X115252000Y-64135000D02*
X115252000Y-63985000D01*
G04 #@! TO.N,Net-(D5-Pad2)*
X135612000Y-62675000D02*
X136212000Y-62675000D01*
X136212000Y-62675000D02*
X138112000Y-60775000D01*
X135774600Y-63511300D02*
X135612000Y-63348700D01*
X135612000Y-63348700D02*
X135612000Y-62675000D01*
X146558000Y-65227000D02*
X146558000Y-64102000D01*
X146558000Y-62902000D02*
X146558000Y-64102000D01*
X138112000Y-60775000D02*
X138758600Y-60128400D01*
X138758600Y-60128400D02*
X143784400Y-60128400D01*
X143784400Y-60128400D02*
X146558000Y-62902000D01*
X134302000Y-63985000D02*
X135612000Y-62675000D01*
X134302000Y-64135000D02*
X134302000Y-63985000D01*
G04 #@! TO.N,Net-(D6-Pad2)*
X157162000Y-60775000D02*
X155262000Y-62675000D01*
X155262000Y-62675000D02*
X154662000Y-62675000D01*
X153352000Y-64135000D02*
X150788200Y-61834700D01*
X149098000Y-62902000D02*
X149720900Y-62902000D01*
X149720900Y-62902000D02*
X150788200Y-61834700D01*
X149098000Y-62902000D02*
X149098000Y-64102000D01*
X149098000Y-64102000D02*
X149098000Y-65227000D01*
X153352000Y-63985000D02*
X154662000Y-62675000D01*
X153352000Y-64135000D02*
X153352000Y-63985000D01*
G04 #@! TO.N,Net-(D7-Pad2)*
X176212000Y-60775000D02*
X174312000Y-62675000D01*
X174312000Y-62675000D02*
X173712000Y-62675000D01*
X172402000Y-64135000D02*
X169838200Y-61834700D01*
X166624000Y-62648000D02*
X166624000Y-62272700D01*
X166624000Y-63848000D02*
X166624000Y-62648000D01*
X169838200Y-61834700D02*
X169400200Y-62272700D01*
X169400200Y-62272700D02*
X166624000Y-62272700D01*
X166624000Y-63848000D02*
X166624000Y-64973000D01*
X172402000Y-63985000D02*
X173712000Y-62675000D01*
X172402000Y-64135000D02*
X172402000Y-63985000D01*
G04 #@! TO.N,Net-(D8-Pad2)*
X195262000Y-60775000D02*
X193362000Y-62675000D01*
X193362000Y-62675000D02*
X192762000Y-62675000D01*
X191452000Y-64135000D02*
X188888200Y-61834700D01*
X185420000Y-62648000D02*
X185420000Y-62272700D01*
X185420000Y-63848000D02*
X185420000Y-62648000D01*
X188888200Y-61834700D02*
X188450200Y-62272700D01*
X188450200Y-62272700D02*
X185420000Y-62272700D01*
X185420000Y-63848000D02*
X185420000Y-64973000D01*
X191452000Y-63985000D02*
X192762000Y-62675000D01*
X191452000Y-64135000D02*
X191452000Y-63985000D01*
G04 #@! TO.N,Net-(D9-Pad2)*
X214312000Y-60775000D02*
X212412000Y-62675000D01*
X212412000Y-62675000D02*
X211812000Y-62675000D01*
X210502000Y-64135000D02*
X207938200Y-61834700D01*
X204724000Y-62648000D02*
X204724000Y-62272700D01*
X204724000Y-63848000D02*
X204724000Y-62648000D01*
X207938200Y-61834700D02*
X207500200Y-62272700D01*
X207500200Y-62272700D02*
X204724000Y-62272700D01*
X204724000Y-63848000D02*
X204724000Y-64973000D01*
X210502000Y-63985000D02*
X211812000Y-62675000D01*
X210502000Y-64135000D02*
X210502000Y-63985000D01*
G04 #@! TO.N,Net-(D10-Pad2)*
X223520000Y-62648000D02*
X223520000Y-62272700D01*
X223520000Y-63848000D02*
X223520000Y-62648000D01*
X226988200Y-61834700D02*
X226550200Y-62272700D01*
X226550200Y-62272700D02*
X223520000Y-62272700D01*
X229552000Y-64135000D02*
X226988200Y-61834700D01*
X223520000Y-63848000D02*
X223520000Y-64973000D01*
X230862000Y-62675000D02*
X230862000Y-63348700D01*
X230862000Y-63348700D02*
X231024600Y-63511300D01*
X233362000Y-60775000D02*
X232762000Y-60775000D01*
X232762000Y-60775000D02*
X230862000Y-62675000D01*
X229552000Y-63985000D02*
X230862000Y-62675000D01*
X229552000Y-64135000D02*
X229552000Y-63985000D01*
G04 #@! TO.N,Net-(D11-Pad2)*
X252412000Y-60775000D02*
X250512000Y-62675000D01*
X250512000Y-62675000D02*
X249912000Y-62675000D01*
X248602000Y-64135000D02*
X246038200Y-61834700D01*
X242824000Y-62648000D02*
X242824000Y-62272700D01*
X242824000Y-63848000D02*
X242824000Y-62648000D01*
X246038200Y-61834700D02*
X245600200Y-62272700D01*
X245600200Y-62272700D02*
X242824000Y-62272700D01*
X242824000Y-63848000D02*
X242824000Y-64973000D01*
X248602000Y-63985000D02*
X249912000Y-62675000D01*
X248602000Y-64135000D02*
X248602000Y-63985000D01*
G04 #@! TO.N,Net-(D12-Pad2)*
X271462000Y-60775000D02*
X269562000Y-62675000D01*
X269562000Y-62675000D02*
X268962000Y-62675000D01*
X261620000Y-63848000D02*
X261620000Y-62648000D01*
X261620000Y-63848000D02*
X261620000Y-64973000D01*
X267652000Y-63985000D02*
X268962000Y-62675000D01*
X267652000Y-64135000D02*
X267652000Y-63985000D01*
G04 #@! TO.N,Net-(D13-Pad2)*
X283464000Y-62445000D02*
X283464000Y-62069700D01*
X283464000Y-63645000D02*
X283464000Y-62445000D01*
X288901200Y-61834700D02*
X288666200Y-62069700D01*
X288666200Y-62069700D02*
X283464000Y-62069700D01*
X292775000Y-62675000D02*
X292775000Y-63348700D01*
X292775000Y-63348700D02*
X292937600Y-63511300D01*
X295275000Y-60775000D02*
X294675000Y-60775000D01*
X294675000Y-60775000D02*
X292775000Y-62675000D01*
X291465000Y-64135000D02*
X288901200Y-61834700D01*
X283464000Y-63645000D02*
X283464000Y-64770000D01*
X291465000Y-63985000D02*
X292775000Y-62675000D01*
X291465000Y-64135000D02*
X291465000Y-63985000D01*
G04 #@! TO.N,Net-(D14-Pad2)*
X70104000Y-82511000D02*
X70104000Y-83711000D01*
X70104000Y-83711000D02*
X70104000Y-84836000D01*
G04 #@! TO.N,Net-(D15-Pad2)*
X80962500Y-79825000D02*
X79062500Y-81725000D01*
X79062500Y-81725000D02*
X78462500Y-81725000D01*
X77152500Y-83185000D02*
X74588700Y-80884700D01*
X72644000Y-82460000D02*
X72644000Y-83660000D01*
X72644000Y-82460000D02*
X73013400Y-82460000D01*
X73013400Y-82460000D02*
X74588700Y-80884700D01*
X72644000Y-83660000D02*
X72644000Y-84785000D01*
X77152500Y-83035000D02*
X78462500Y-81725000D01*
X77152500Y-83185000D02*
X77152500Y-83035000D01*
G04 #@! TO.N,Net-(D16-Pad2)*
X97512000Y-81725000D02*
X98112000Y-81725000D01*
X98112000Y-81725000D02*
X100012000Y-79825000D01*
X97674600Y-82561300D02*
X97512000Y-82398700D01*
X97512000Y-82398700D02*
X97512000Y-81725000D01*
X127508000Y-81120000D02*
X127508000Y-82245000D01*
X127508000Y-79920000D02*
X127508000Y-81120000D01*
G04 #@! TO.N,Net-(D17-Pad2)*
X119062000Y-79825000D02*
X120104500Y-78782500D01*
X120104500Y-78782500D02*
X128894500Y-78782500D01*
X128894500Y-78782500D02*
X130048000Y-79936000D01*
X116562000Y-81725000D02*
X117162000Y-81725000D01*
X117162000Y-81725000D02*
X119062000Y-79825000D01*
X116724600Y-82561300D02*
X116562000Y-82398700D01*
X116562000Y-82398700D02*
X116562000Y-81725000D01*
X130048000Y-79936000D02*
X130048000Y-81136000D01*
X130048000Y-81136000D02*
X130048000Y-82261000D01*
X115252000Y-83035000D02*
X116562000Y-81725000D01*
X115252000Y-83185000D02*
X115252000Y-83035000D01*
G04 #@! TO.N,Net-(D18-Pad2)*
X135774600Y-82561300D02*
X135612000Y-82398700D01*
X135612000Y-82398700D02*
X135612000Y-81725000D01*
X146812000Y-79361000D02*
X146812000Y-80561000D01*
X146812000Y-80561000D02*
X146812000Y-81686000D01*
X134302000Y-83035000D02*
X135612000Y-81725000D01*
X134302000Y-83185000D02*
X134302000Y-83035000D01*
G04 #@! TO.N,Net-(D19-Pad2)*
X157162000Y-79825000D02*
X155262000Y-81725000D01*
X155262000Y-81725000D02*
X154662000Y-81725000D01*
X153352000Y-83185000D02*
X150788200Y-80884700D01*
X149352000Y-80884800D02*
X149352000Y-81686000D01*
X149352000Y-80561000D02*
X149352000Y-80884800D01*
X149352000Y-80884800D02*
X150788100Y-80884800D01*
X150788100Y-80884800D02*
X150788200Y-80884700D01*
X149352000Y-79361000D02*
X149352000Y-80561000D01*
X153352000Y-83035000D02*
X154662000Y-81725000D01*
X153352000Y-83185000D02*
X153352000Y-83035000D01*
G04 #@! TO.N,Net-(D20-Pad2)*
X176212000Y-79825000D02*
X174312000Y-81725000D01*
X174312000Y-81725000D02*
X173712000Y-81725000D01*
X172402000Y-83185000D02*
X169838200Y-80884700D01*
X167132000Y-79717000D02*
X167132000Y-79341700D01*
X167132000Y-79717000D02*
X167132000Y-80917000D01*
X167132000Y-80917000D02*
X167132000Y-82042000D01*
X167132000Y-79341700D02*
X167563400Y-79341700D01*
X167563400Y-79341700D02*
X169106500Y-80884800D01*
X169106500Y-80884800D02*
X169838100Y-80884800D01*
X169838100Y-80884800D02*
X169838200Y-80884700D01*
X172402000Y-83035000D02*
X173712000Y-81725000D01*
X172402000Y-83185000D02*
X172402000Y-83035000D01*
G04 #@! TO.N,Net-(D21-Pad2)*
X195262000Y-79825000D02*
X193362000Y-81725000D01*
X193362000Y-81725000D02*
X192762000Y-81725000D01*
X191452000Y-83185000D02*
X188888200Y-80884700D01*
X185928000Y-79826000D02*
X185928000Y-79450700D01*
X185928000Y-79826000D02*
X185928000Y-81026000D01*
X185928000Y-81026000D02*
X185928000Y-82151000D01*
X185928000Y-79450700D02*
X186359400Y-79450700D01*
X186359400Y-79450700D02*
X187793500Y-80884800D01*
X187793500Y-80884800D02*
X188888100Y-80884800D01*
X188888100Y-80884800D02*
X188888200Y-80884700D01*
X191452000Y-83035000D02*
X192762000Y-81725000D01*
X191452000Y-83185000D02*
X191452000Y-83035000D01*
G04 #@! TO.N,Net-(D22-Pad2)*
X214312000Y-79825000D02*
X213712000Y-79825000D01*
X213712000Y-79825000D02*
X211812000Y-81725000D01*
X204978000Y-79920000D02*
X204978000Y-79544700D01*
X204978000Y-79920000D02*
X204978000Y-81120000D01*
X204978000Y-81120000D02*
X204978000Y-82245000D01*
X204978000Y-79544700D02*
X205409400Y-79544700D01*
X205409400Y-79544700D02*
X206749500Y-80884800D01*
X206749500Y-80884800D02*
X207938100Y-80884800D01*
X207938100Y-80884800D02*
X207938200Y-80884700D01*
X210502000Y-83185000D02*
X207938200Y-80884700D01*
X211812000Y-81725000D02*
X211812000Y-82398700D01*
X211812000Y-82398700D02*
X211974600Y-82561300D01*
X210502000Y-83035000D02*
X211812000Y-81725000D01*
X210502000Y-83185000D02*
X210502000Y-83035000D01*
G04 #@! TO.N,Net-(D23-Pad2)*
X230862000Y-81725000D02*
X230862000Y-82398700D01*
X230862000Y-82398700D02*
X231024600Y-82561300D01*
X233362000Y-79825000D02*
X232762000Y-79825000D01*
X232762000Y-79825000D02*
X230862000Y-81725000D01*
X224028000Y-80080000D02*
X224028000Y-79704700D01*
X224028000Y-80080000D02*
X224028000Y-81280000D01*
X224028000Y-81280000D02*
X224028000Y-82405000D01*
X224028000Y-79704700D02*
X224459400Y-79704700D01*
X224459400Y-79704700D02*
X225639500Y-80884800D01*
X225639500Y-80884800D02*
X226988100Y-80884800D01*
X226988100Y-80884800D02*
X226988200Y-80884700D01*
X229552000Y-83185000D02*
X226988200Y-80884700D01*
X229552000Y-83035000D02*
X230862000Y-81725000D01*
X229552000Y-83185000D02*
X229552000Y-83035000D01*
G04 #@! TO.N,Net-(D24-Pad2)*
X242824000Y-80377000D02*
X242824000Y-80001700D01*
X242824000Y-81577000D02*
X242824000Y-80377000D01*
X249912000Y-81725000D02*
X249912000Y-82398700D01*
X249912000Y-82398700D02*
X250074600Y-82561300D01*
X252412000Y-79825000D02*
X251812000Y-79825000D01*
X251812000Y-79825000D02*
X249912000Y-81725000D01*
X242824000Y-80001700D02*
X243255400Y-80001700D01*
X243255400Y-80001700D02*
X244138500Y-80884800D01*
X244138500Y-80884800D02*
X246038100Y-80884800D01*
X246038100Y-80884800D02*
X246038200Y-80884700D01*
X248602000Y-83185000D02*
X246038200Y-80884700D01*
X242824000Y-82702000D02*
X242824000Y-81577000D01*
X248602000Y-83035000D02*
X249912000Y-81725000D01*
X248602000Y-83185000D02*
X248602000Y-83035000D01*
G04 #@! TO.N,Net-(D25-Pad2)*
X268962000Y-81725000D02*
X268962000Y-82398700D01*
X268962000Y-82398700D02*
X269124600Y-82561300D01*
X271462000Y-79825000D02*
X270862000Y-79825000D01*
X270862000Y-79825000D02*
X268962000Y-81725000D01*
X261874000Y-80631000D02*
X261874000Y-81831000D01*
X261874000Y-81831000D02*
X261874000Y-82956000D01*
X267652000Y-83035000D02*
X268962000Y-81725000D01*
X267652000Y-83185000D02*
X267652000Y-83035000D01*
G04 #@! TO.N,Net-(D27-Pad2)*
X61912500Y-98875000D02*
X61312500Y-98875000D01*
X61312500Y-98875000D02*
X59412500Y-100775000D01*
X70300000Y-100500000D02*
X67990200Y-98190200D01*
X67990200Y-98190200D02*
X62597300Y-98190200D01*
X62597300Y-98190200D02*
X61912500Y-98875000D01*
X59412500Y-100775000D02*
X59412500Y-101448700D01*
X59412500Y-101448700D02*
X59575100Y-101611300D01*
X70300000Y-101700000D02*
X70300000Y-102825000D01*
X70300000Y-100500000D02*
X70300000Y-101700000D01*
X58102500Y-102085000D02*
X59412500Y-100775000D01*
X58102500Y-102235000D02*
X58102500Y-102085000D01*
G04 #@! TO.N,Net-(D28-Pad2)*
X78462500Y-100775000D02*
X78462500Y-101448700D01*
X78462500Y-101448700D02*
X78625100Y-101611300D01*
X80962500Y-98875000D02*
X80362500Y-98875000D01*
X80362500Y-98875000D02*
X78462500Y-100775000D01*
X72800000Y-100400000D02*
X72800000Y-101600000D01*
X72800000Y-102725000D02*
X72800000Y-101600000D01*
X77152500Y-102085000D02*
X78462500Y-100775000D01*
X77152500Y-102235000D02*
X77152500Y-102085000D01*
G04 #@! TO.N,Net-(D29-Pad2)*
X100012000Y-98875000D02*
X99412000Y-98875000D01*
X99412000Y-98875000D02*
X97512000Y-100775000D01*
X127300000Y-101900000D02*
X127300000Y-103025000D01*
X127300000Y-100700000D02*
X127300000Y-101900000D01*
G04 #@! TO.N,Net-(D30-Pad2)*
X116562000Y-100775000D02*
X116562000Y-101448700D01*
X116562000Y-101448700D02*
X116724600Y-101611300D01*
X119062000Y-98875000D02*
X118462000Y-98875000D01*
X118462000Y-98875000D02*
X116562000Y-100775000D01*
X129800000Y-100700000D02*
X129800000Y-101900000D01*
X129800000Y-103025000D02*
X129800000Y-101900000D01*
X115252000Y-102085000D02*
X116562000Y-100775000D01*
X115252000Y-102235000D02*
X115252000Y-102085000D01*
G04 #@! TO.N,Net-(D31-Pad2)*
X138112000Y-98875000D02*
X137512000Y-98875000D01*
X137512000Y-98875000D02*
X135612000Y-100775000D01*
X146420000Y-102680000D02*
X146420000Y-101480000D01*
X146420000Y-103805000D02*
X146420000Y-102680000D01*
X134302000Y-102085000D02*
X135612000Y-100775000D01*
X134302000Y-102235000D02*
X134302000Y-102085000D01*
G04 #@! TO.N,Net-(D32-Pad2)*
X164188000Y-109275000D02*
X162714500Y-109174600D01*
X162714500Y-109174600D02*
X162287600Y-109174600D01*
X162287600Y-109174600D02*
X161688000Y-108575000D01*
X164148000Y-109855000D02*
X164188000Y-109815000D01*
X164188000Y-109815000D02*
X164188000Y-109275000D01*
X161688000Y-108575000D02*
X159811100Y-106698100D01*
X159811100Y-106698100D02*
X159811100Y-104115700D01*
X159811100Y-104115700D02*
X156042500Y-100347100D01*
X154662000Y-100775000D02*
X154662000Y-101448700D01*
X154662000Y-101448700D02*
X154824600Y-101611300D01*
X156042500Y-100347100D02*
X155089900Y-100347100D01*
X155089900Y-100347100D02*
X154662000Y-100775000D01*
X153352000Y-102235000D02*
X150788200Y-99934700D01*
X148930000Y-101500000D02*
X149222900Y-101500000D01*
X149222900Y-101500000D02*
X150788200Y-99934700D01*
X148930000Y-101500000D02*
X148930000Y-102700000D01*
X148930000Y-103825000D02*
X148930000Y-102700000D01*
X156042500Y-100347100D02*
X156042500Y-99994500D01*
X156042500Y-99994500D02*
X157162000Y-98875000D01*
X153352000Y-102085000D02*
X154662000Y-100775000D01*
X153352000Y-102235000D02*
X153352000Y-102085000D01*
G04 #@! TO.N,Net-(D33-Pad2)*
X185740000Y-100842000D02*
X185740000Y-102042000D01*
X185277400Y-103167000D02*
X185740000Y-102704400D01*
X185740000Y-102704400D02*
X185740000Y-102042000D01*
X185277400Y-103167000D02*
X184814700Y-103167000D01*
X185740000Y-103167000D02*
X185277400Y-103167000D01*
X175422400Y-99664600D02*
X174312000Y-100775000D01*
X174312000Y-100775000D02*
X173712000Y-100775000D01*
X176212000Y-98875000D02*
X175422400Y-99664600D01*
X175422400Y-99664600D02*
X178924800Y-103167000D01*
X178924800Y-103167000D02*
X184814700Y-103167000D01*
X172402000Y-102085000D02*
X173712000Y-100775000D01*
X172402000Y-102235000D02*
X172402000Y-102085000D01*
G04 #@! TO.N,Net-(D34-Pad2)*
X204786000Y-98016000D02*
X204786000Y-99216000D01*
X204786000Y-100341000D02*
X204786000Y-99216000D01*
X192762000Y-100775000D02*
X192762000Y-101448700D01*
X192762000Y-101448700D02*
X192924600Y-101611300D01*
X195262000Y-98875000D02*
X194662000Y-98875000D01*
X194662000Y-98875000D02*
X192762000Y-100775000D01*
X191452000Y-102085000D02*
X192762000Y-100775000D01*
X191452000Y-102235000D02*
X191452000Y-102085000D01*
G04 #@! TO.N,Net-(D35-Pad2)*
X214312000Y-98875000D02*
X213712000Y-98875000D01*
X213712000Y-98875000D02*
X211812000Y-100775000D01*
X224282000Y-102983000D02*
X224282000Y-101858000D01*
X224282000Y-100658000D02*
X224282000Y-101858000D01*
X211812000Y-100775000D02*
X211812000Y-101448700D01*
X211812000Y-101448700D02*
X211974600Y-101611300D01*
X210502000Y-102085000D02*
X211812000Y-100775000D01*
X210502000Y-102235000D02*
X210502000Y-102085000D01*
G04 #@! TO.N,Net-(D36-Pad2)*
X233362000Y-98875000D02*
X232762000Y-98875000D01*
X232762000Y-98875000D02*
X230862000Y-100775000D01*
X243078000Y-101440000D02*
X243078000Y-102565000D01*
X243078000Y-100240000D02*
X243078000Y-101440000D01*
X229552000Y-102085000D02*
X230862000Y-100775000D01*
X229552000Y-102235000D02*
X229552000Y-102085000D01*
G04 #@! TO.N,Net-(D37-Pad2)*
X252412000Y-98875000D02*
X253044300Y-98242700D01*
X253044300Y-98242700D02*
X259942700Y-98242700D01*
X259942700Y-98242700D02*
X262276000Y-100576000D01*
X252412000Y-98875000D02*
X251812000Y-98875000D01*
X251812000Y-98875000D02*
X249912000Y-100775000D01*
X249912000Y-100775000D02*
X249912000Y-101448700D01*
X249912000Y-101448700D02*
X250074600Y-101611300D01*
X262276000Y-100576000D02*
X262276000Y-101776000D01*
X262276000Y-101776000D02*
X262276000Y-102901000D01*
X248602000Y-102085000D02*
X249912000Y-100775000D01*
X248602000Y-102235000D02*
X248602000Y-102085000D01*
G04 #@! TO.N,RowA*
X72397300Y-67459000D02*
X71472000Y-66533700D01*
X71472000Y-66533700D02*
X71472000Y-62720300D01*
X71472000Y-62720300D02*
X66635100Y-57883400D01*
X66635100Y-57883400D02*
X61204100Y-57883400D01*
X61204100Y-57883400D02*
X59412500Y-59675000D01*
X72644000Y-67705700D02*
X72397300Y-67459000D01*
X72397300Y-67459000D02*
X71225300Y-68631000D01*
X70300000Y-68631000D02*
X71225300Y-68631000D01*
X223520000Y-69248000D02*
X223520000Y-70448000D01*
X223520000Y-68123000D02*
X223520000Y-69248000D01*
X72644000Y-68631000D02*
X72644000Y-67705700D01*
X72644000Y-69756000D02*
X72644000Y-68631000D01*
X146558000Y-70702000D02*
X146558000Y-69502000D01*
X146558000Y-68377000D02*
X146558000Y-69502000D01*
X130048000Y-70448000D02*
X130048000Y-69248000D01*
X130048000Y-68123000D02*
X130048000Y-69248000D01*
X70300000Y-70956000D02*
X70300000Y-69756000D01*
X70300000Y-68631000D02*
X70300000Y-69756000D01*
X72644000Y-70956000D02*
X72644000Y-69756000D01*
X127508000Y-70397000D02*
X127508000Y-69197000D01*
X127508000Y-68072000D02*
X127508000Y-69197000D01*
X149098000Y-70702000D02*
X149098000Y-69502000D01*
X149098000Y-69502000D02*
X149098000Y-68377000D01*
X166624000Y-70448000D02*
X166624000Y-69248000D01*
X166624000Y-69248000D02*
X166624000Y-68123000D01*
X185420000Y-70448000D02*
X185420000Y-69248000D01*
X185420000Y-69248000D02*
X185420000Y-68123000D01*
X204724000Y-70448000D02*
X204724000Y-69248000D01*
X204724000Y-69248000D02*
X204724000Y-68123000D01*
G04 #@! TO.N,RowB*
X70104000Y-89111000D02*
X70104000Y-87986000D01*
X70104000Y-90311000D02*
X70104000Y-89111000D01*
X90043000Y-78740000D02*
X90043000Y-78450100D01*
X90043000Y-78450100D02*
X91168300Y-77324800D01*
X91168300Y-77324800D02*
X91168300Y-75421700D01*
X91168300Y-75421700D02*
X92380000Y-74210000D01*
X72644000Y-89060000D02*
X72644000Y-87935000D01*
X72644000Y-90260000D02*
X72644000Y-89060000D01*
X185928000Y-87626000D02*
X185928000Y-86426000D01*
X185928000Y-85301000D02*
X185928000Y-86426000D01*
X204978000Y-87720000D02*
X204978000Y-86520000D01*
X204978000Y-85395000D02*
X204978000Y-86520000D01*
X224028000Y-87880000D02*
X224028000Y-86680000D01*
X224028000Y-85555000D02*
X224028000Y-86680000D01*
X127508000Y-87720000D02*
X127508000Y-86520000D01*
X127508000Y-86520000D02*
X127508000Y-85395000D01*
X130048000Y-87736000D02*
X130048000Y-86536000D01*
X130048000Y-86536000D02*
X130048000Y-85411000D01*
X146812000Y-87161000D02*
X146812000Y-85961000D01*
X146812000Y-85961000D02*
X146812000Y-84836000D01*
X149352000Y-87161000D02*
X149352000Y-85961000D01*
X149352000Y-85961000D02*
X149352000Y-84836000D01*
X167132000Y-87517000D02*
X167132000Y-86317000D01*
X167132000Y-86317000D02*
X167132000Y-85192000D01*
G04 #@! TO.N,RowC*
X204786000Y-105816000D02*
X205911300Y-105816000D01*
X205911300Y-105816000D02*
X207657300Y-107562000D01*
X207657300Y-107562000D02*
X222260700Y-107562000D01*
X222260700Y-107562000D02*
X223156700Y-108458000D01*
X204786000Y-105816000D02*
X204786000Y-104616000D01*
X224282000Y-108458000D02*
X223156700Y-108458000D01*
X224282000Y-108458000D02*
X224282000Y-107258000D01*
X148930000Y-109300000D02*
X148930000Y-108100000D01*
X185740000Y-107442000D02*
X185740000Y-108642000D01*
X185740000Y-106879500D02*
X185740000Y-107442000D01*
X185740000Y-106879500D02*
X185740000Y-106317000D01*
X72800000Y-105875000D02*
X72800000Y-104949700D01*
X72800000Y-104949700D02*
X74163200Y-103586500D01*
X74163200Y-103586500D02*
X74163200Y-99816500D01*
X74163200Y-99816500D02*
X87737700Y-86242000D01*
X87737700Y-86242000D02*
X87737700Y-83585300D01*
X87737700Y-83585300D02*
X90043000Y-81280000D01*
X72800000Y-107000000D02*
X72800000Y-105875000D01*
X70300000Y-108300000D02*
X70300000Y-107100000D01*
X70300000Y-105975000D02*
X70300000Y-107100000D01*
X72800000Y-108200000D02*
X72800000Y-107000000D01*
X127300000Y-108500000D02*
X127300000Y-107300000D01*
X127300000Y-106175000D02*
X127300000Y-107300000D01*
X130362700Y-108500000D02*
X129800000Y-107937300D01*
X129800000Y-107937300D02*
X129800000Y-107300000D01*
X130362700Y-108500000D02*
X130925300Y-108500000D01*
X129800000Y-108500000D02*
X130362700Y-108500000D01*
X129800000Y-106175000D02*
X129800000Y-107300000D01*
X146420000Y-108009700D02*
X146420000Y-108080000D01*
X146420000Y-106955000D02*
X146420000Y-108009700D01*
X146420000Y-108009700D02*
X131415600Y-108009700D01*
X131415600Y-108009700D02*
X130925300Y-108500000D01*
X146420000Y-109280000D02*
X146420000Y-108080000D01*
X148930000Y-108100000D02*
X148930000Y-106975000D01*
X185740000Y-106317000D02*
X185740000Y-105866700D01*
X204786000Y-105816000D02*
X203660700Y-105816000D01*
X203660700Y-105816000D02*
X202330100Y-107146600D01*
X202330100Y-107146600D02*
X187595200Y-107146600D01*
X187595200Y-107146600D02*
X186315300Y-105866700D01*
X186315300Y-105866700D02*
X185740000Y-105866700D01*
X224282000Y-107258000D02*
X224282000Y-106133000D01*
X204786000Y-103491000D02*
X204786000Y-104616000D01*
X92380000Y-76750000D02*
X91178300Y-77951700D01*
X91178300Y-77951700D02*
X91178300Y-80144700D01*
X91178300Y-80144700D02*
X90043000Y-81280000D01*
X243078000Y-108040000D02*
X243078000Y-106840000D01*
X243078000Y-106840000D02*
X243078000Y-105715000D01*
G04 #@! TO.N,ColA*
X66699000Y-63088500D02*
X66912500Y-62875000D01*
X65737700Y-80645000D02*
X65792000Y-80590700D01*
X65792000Y-80590700D02*
X65792000Y-63995500D01*
X65792000Y-63995500D02*
X66699000Y-63088500D01*
X66699000Y-63088500D02*
X65886000Y-62275500D01*
X65886000Y-62275500D02*
X65886000Y-62275400D01*
X64412500Y-62175000D02*
X65886000Y-62275400D01*
X65737700Y-80645000D02*
X66912500Y-81819800D01*
X66912500Y-81819800D02*
X66912500Y-81925000D01*
X64452500Y-80645000D02*
X65737700Y-80645000D01*
X254912000Y-62175000D02*
X256385500Y-62275400D01*
X256385500Y-62275400D02*
X256812400Y-62275400D01*
X256812400Y-62275400D02*
X257412000Y-62875000D01*
X64412500Y-81225000D02*
X64452500Y-81185000D01*
X64452500Y-81185000D02*
X64452500Y-80645000D01*
X64452500Y-99695000D02*
X64412500Y-99735000D01*
X64412500Y-99735000D02*
X64412500Y-100275000D01*
X92380000Y-81830000D02*
X91168500Y-83041500D01*
X91168500Y-83041500D02*
X91168500Y-92854500D01*
X91168500Y-92854500D02*
X90043000Y-93980000D01*
X64452500Y-61595000D02*
X64412500Y-61555000D01*
X64412500Y-61555000D02*
X64412500Y-59675000D01*
X64452500Y-61595000D02*
X64412500Y-61635000D01*
X64412500Y-61635000D02*
X64412500Y-62175000D01*
G04 #@! TO.N,ColB*
X85962500Y-99695000D02*
X85962500Y-100975000D01*
X92380000Y-84370000D02*
X92380000Y-93282100D01*
X92380000Y-93282100D02*
X90412100Y-95250000D01*
X90412100Y-95250000D02*
X89664900Y-95250000D01*
X89664900Y-95250000D02*
X85962500Y-98952400D01*
X85962500Y-98952400D02*
X85962500Y-99695000D01*
X85962500Y-99695000D02*
X83502500Y-99695000D01*
X85962500Y-62875000D02*
X89002900Y-59834600D01*
X89002900Y-59834600D02*
X90220000Y-59834600D01*
X90220000Y-59834600D02*
X91168300Y-58886300D01*
X91168300Y-58886300D02*
X91168300Y-58474400D01*
X91168300Y-58474400D02*
X91942700Y-57700000D01*
X91942700Y-57700000D02*
X235707900Y-57700000D01*
X235707900Y-57700000D02*
X240142700Y-62134800D01*
X240142700Y-62134800D02*
X240142700Y-63953600D01*
X240142700Y-63953600D02*
X242087500Y-65898400D01*
X242087500Y-65898400D02*
X244415100Y-65898400D01*
X244415100Y-65898400D02*
X247579800Y-69063100D01*
X247579800Y-69063100D02*
X253312600Y-69063100D01*
X253312600Y-69063100D02*
X262939200Y-59436500D01*
X262939200Y-59436500D02*
X272008900Y-59436500D01*
X272008900Y-59436500D02*
X274002000Y-61429600D01*
X274002000Y-61429600D02*
X274002000Y-61595000D01*
X85749000Y-63088500D02*
X85962500Y-62875000D01*
X83502500Y-80645000D02*
X83502500Y-65335000D01*
X83502500Y-65335000D02*
X85749000Y-63088500D01*
X85749000Y-63088500D02*
X84936000Y-62275500D01*
X84936000Y-62275500D02*
X84936000Y-62275400D01*
X83462500Y-62175000D02*
X84936000Y-62275400D01*
X83502500Y-81205000D02*
X83502500Y-80645000D01*
X273962000Y-62175000D02*
X275435500Y-62275400D01*
X275435500Y-62275400D02*
X275862400Y-62275400D01*
X275862400Y-62275400D02*
X276462000Y-62875000D01*
X273962000Y-62175000D02*
X273962000Y-61635000D01*
X273962000Y-61635000D02*
X274002000Y-61595000D01*
X83502500Y-61595000D02*
X83462500Y-61635000D01*
X83462500Y-61635000D02*
X83462500Y-62175000D01*
X83502500Y-99695000D02*
X83462500Y-99735000D01*
X83462500Y-99735000D02*
X83462500Y-100275000D01*
X83502500Y-81205000D02*
X85242500Y-81205000D01*
X85242500Y-81205000D02*
X85962500Y-81925000D01*
X83462500Y-81225000D02*
X83482500Y-81205000D01*
X83482500Y-81205000D02*
X83502500Y-81205000D01*
G04 #@! TO.N,ColC*
X102552000Y-80645000D02*
X102552000Y-76738000D01*
X102552000Y-76738000D02*
X107620000Y-71670000D01*
X102512000Y-81225000D02*
X102512000Y-80685000D01*
X102512000Y-80685000D02*
X102552000Y-80645000D01*
X104798500Y-63088500D02*
X103890400Y-63996600D01*
X103890400Y-63996600D02*
X103890400Y-67940400D01*
X103890400Y-67940400D02*
X107620000Y-71670000D01*
X105012000Y-81925000D02*
X102507400Y-81925000D01*
X102507400Y-81925000D02*
X102461100Y-81971300D01*
X102461100Y-81971300D02*
X102410300Y-82717600D01*
X102512000Y-81225000D02*
X102461100Y-81971300D01*
X104798500Y-63088500D02*
X105012000Y-62875000D01*
X104798500Y-63088500D02*
X103985500Y-62275500D01*
X103985500Y-62275500D02*
X103985500Y-62275400D01*
X102512000Y-62175000D02*
X103985500Y-62275400D01*
X297775000Y-62175000D02*
X299248500Y-62275400D01*
X299248500Y-62275400D02*
X299675400Y-62275400D01*
X299675400Y-62275400D02*
X300275000Y-62875000D01*
X297815000Y-61595000D02*
X297775000Y-61635000D01*
X297775000Y-61635000D02*
X297775000Y-62175000D01*
X102410300Y-82717600D02*
X102512000Y-82819300D01*
X102512000Y-82819300D02*
X102512000Y-99655000D01*
X102512000Y-99655000D02*
X102552000Y-99695000D01*
X102512000Y-100275000D02*
X103985500Y-100375400D01*
X103985500Y-100375400D02*
X104412400Y-100375400D01*
X104412400Y-100375400D02*
X105012000Y-100975000D01*
X102512000Y-100275000D02*
X102512000Y-99735000D01*
X102512000Y-99735000D02*
X102552000Y-99695000D01*
X102552000Y-61595000D02*
X102512000Y-61635000D01*
X102512000Y-61635000D02*
X102512000Y-62175000D01*
G04 #@! TO.N,ColD*
X110363000Y-78740000D02*
X108821700Y-77198700D01*
X108821700Y-77198700D02*
X108821700Y-70331700D01*
X108821700Y-70331700D02*
X107620000Y-69130000D01*
X121602000Y-61595000D02*
X121562000Y-61635000D01*
X121562000Y-61635000D02*
X121562000Y-62175000D01*
X121562000Y-62175000D02*
X123035500Y-62275400D01*
X124062000Y-81925000D02*
X121557400Y-81925000D01*
X121557400Y-81925000D02*
X121511100Y-81971300D01*
X121511100Y-81971300D02*
X121460300Y-82717600D01*
X121562000Y-81225000D02*
X121511100Y-81971300D01*
X121602000Y-80645000D02*
X121562000Y-80685000D01*
X121562000Y-80685000D02*
X121562000Y-81225000D01*
X121460300Y-82717600D02*
X121602000Y-82859300D01*
X121602000Y-82859300D02*
X121602000Y-99695000D01*
X254912000Y-81225000D02*
X256385500Y-81325400D01*
X256385500Y-81325400D02*
X256812400Y-81325400D01*
X256812400Y-81325400D02*
X257412000Y-81925000D01*
X254952000Y-80645000D02*
X254912000Y-80685000D01*
X254912000Y-80685000D02*
X254912000Y-81225000D01*
X121562000Y-100275000D02*
X123035500Y-100375400D01*
X123035500Y-100375400D02*
X123462400Y-100375400D01*
X123462400Y-100375400D02*
X124062000Y-100975000D01*
X121562000Y-100275000D02*
X121562000Y-99735000D01*
X121562000Y-99735000D02*
X121602000Y-99695000D01*
X123035500Y-62275400D02*
X123462400Y-62275400D01*
X123462400Y-62275400D02*
X124062000Y-62875000D01*
G04 #@! TO.N,ColE*
X274002000Y-80645000D02*
X273962000Y-80685000D01*
X273962000Y-80685000D02*
X273962000Y-81225000D01*
X112211700Y-76200000D02*
X112211700Y-62593500D01*
X112211700Y-62593500D02*
X111772600Y-62154400D01*
X111772600Y-62154400D02*
X111197000Y-62154400D01*
X111197000Y-62154400D02*
X108958300Y-64393100D01*
X108958300Y-64393100D02*
X108958300Y-65251700D01*
X108958300Y-65251700D02*
X107620000Y-66590000D01*
X140510300Y-76201400D02*
X112213100Y-76201400D01*
X112213100Y-76201400D02*
X112211700Y-76200000D01*
X110363000Y-76200000D02*
X112211700Y-76200000D01*
X140510300Y-76201400D02*
X140510300Y-63667600D01*
X140652000Y-80645000D02*
X140652000Y-76343100D01*
X140652000Y-76343100D02*
X140510300Y-76201400D01*
X140612000Y-62175000D02*
X140510300Y-63667600D01*
X140652000Y-81225000D02*
X140652000Y-80645000D01*
X140652000Y-81925000D02*
X140652000Y-99695000D01*
X273962000Y-81225000D02*
X275435500Y-81325400D01*
X275435500Y-81325400D02*
X275862400Y-81325400D01*
X275862400Y-81325400D02*
X276462000Y-81925000D01*
X140652000Y-81225000D02*
X140652000Y-81925000D01*
X140612000Y-81225000D02*
X140652000Y-81225000D01*
X140652000Y-81925000D02*
X143112000Y-81925000D01*
X140652000Y-61595000D02*
X140612000Y-61635000D01*
X140612000Y-61635000D02*
X140612000Y-62175000D01*
X140652000Y-99695000D02*
X140612000Y-99735000D01*
X140612000Y-99735000D02*
X140612000Y-100275000D01*
G04 #@! TO.N,ColF*
X159702000Y-61595000D02*
X159662000Y-61635000D01*
X159662000Y-61635000D02*
X159662000Y-62175000D01*
X159662000Y-62175000D02*
X159611100Y-62921300D01*
X166688000Y-110675000D02*
X167288000Y-110675000D01*
X167288000Y-110675000D02*
X169188000Y-108775000D01*
X169404100Y-106333500D02*
X169404100Y-104184400D01*
X169404100Y-104184400D02*
X166194700Y-100975000D01*
X166194700Y-100975000D02*
X162162000Y-100975000D01*
X159702000Y-100255000D02*
X161442000Y-100255000D01*
X161442000Y-100255000D02*
X162162000Y-100975000D01*
X162162000Y-62875000D02*
X159657400Y-62875000D01*
X159657400Y-62875000D02*
X159611100Y-62921300D01*
X159611100Y-62921300D02*
X159560300Y-63667600D01*
X159702000Y-80645000D02*
X159702000Y-63809300D01*
X159702000Y-63809300D02*
X159560300Y-63667600D01*
X159662000Y-81225000D02*
X159662000Y-80685000D01*
X159662000Y-80685000D02*
X159702000Y-80645000D01*
X159662000Y-100275000D02*
X159682000Y-100255000D01*
X159682000Y-100255000D02*
X159702000Y-100255000D01*
X159702000Y-100255000D02*
X159702000Y-99695000D01*
X162162000Y-81925000D02*
X159657400Y-81925000D01*
X159657400Y-81925000D02*
X159611100Y-81971300D01*
X159611100Y-81971300D02*
X159560300Y-82717600D01*
X159662000Y-81225000D02*
X159611100Y-81971300D01*
X159702000Y-99695000D02*
X159702000Y-82859300D01*
X159702000Y-82859300D02*
X159560300Y-82717600D01*
X170498000Y-107315000D02*
X169404100Y-106333500D01*
X170498000Y-107465000D02*
X169188000Y-108775000D01*
X170498000Y-107315000D02*
X170498000Y-107465000D01*
G04 #@! TO.N,ColG*
X110363000Y-86360000D02*
X111494100Y-85228900D01*
X111494100Y-85228900D02*
X111494100Y-80795000D01*
X111494100Y-80795000D02*
X110565900Y-79866800D01*
X110565900Y-79866800D02*
X109892300Y-79866800D01*
X109892300Y-79866800D02*
X109139600Y-79114100D01*
X109139600Y-79114100D02*
X109139600Y-78269600D01*
X109139600Y-78269600D02*
X107620000Y-76750000D01*
X180998500Y-82138500D02*
X180085200Y-83051800D01*
X180085200Y-83051800D02*
X180085200Y-94309900D01*
X180085200Y-94309900D02*
X180947800Y-95172500D01*
X180947800Y-95172500D02*
X180947800Y-97499200D01*
X180947800Y-97499200D02*
X178752000Y-99695000D01*
X181212000Y-81925000D02*
X180998500Y-82138500D01*
X180185500Y-81325400D02*
X180185500Y-81325500D01*
X180185500Y-81325500D02*
X180998500Y-82138500D01*
X178712000Y-81225000D02*
X180185500Y-81325400D01*
X181212000Y-62875000D02*
X178707400Y-62875000D01*
X178707400Y-62875000D02*
X178661100Y-62921300D01*
X178661100Y-62921300D02*
X178610300Y-63667600D01*
X178712000Y-62175000D02*
X178661100Y-62921300D01*
X178752000Y-80645000D02*
X178752000Y-63809300D01*
X178752000Y-63809300D02*
X178610300Y-63667600D01*
X254912000Y-100275000D02*
X256385500Y-100375400D01*
X256385500Y-100375400D02*
X256812400Y-100375400D01*
X256812400Y-100375400D02*
X257412000Y-100975000D01*
X254952000Y-99695000D02*
X254912000Y-99735000D01*
X254912000Y-99735000D02*
X254912000Y-100275000D01*
X178752000Y-61595000D02*
X178712000Y-61635000D01*
X178712000Y-61635000D02*
X178712000Y-62175000D01*
X178752000Y-99695000D02*
X178712000Y-99735000D01*
X178712000Y-99735000D02*
X178712000Y-100275000D01*
G04 #@! TO.N,ColH*
X197762000Y-100275000D02*
X199235500Y-100375400D01*
X199235500Y-100375400D02*
X199662400Y-100375400D01*
X199662400Y-100375400D02*
X200262000Y-100975000D01*
X197802000Y-99695000D02*
X197762000Y-99735000D01*
X197762000Y-99735000D02*
X197762000Y-100275000D01*
X197866100Y-88900000D02*
X197866100Y-99630900D01*
X197866100Y-99630900D02*
X197802000Y-99695000D01*
X199382000Y-82805000D02*
X197866100Y-84320900D01*
X197866100Y-84320900D02*
X197866100Y-88900000D01*
X200262000Y-62875000D02*
X197757400Y-62875000D01*
X197757400Y-62875000D02*
X197711100Y-62921300D01*
X197711100Y-62921300D02*
X197660300Y-63667600D01*
X197762000Y-62175000D02*
X197711100Y-62921300D01*
X197802000Y-80645000D02*
X197802000Y-63809300D01*
X197802000Y-63809300D02*
X197660300Y-63667600D01*
X197782000Y-81205000D02*
X197802000Y-81185000D01*
X197802000Y-81185000D02*
X197802000Y-80645000D01*
X197802000Y-61595000D02*
X197762000Y-61635000D01*
X197762000Y-61635000D02*
X197762000Y-62175000D01*
X199382000Y-82805000D02*
X200262000Y-81925000D01*
X197782000Y-81205000D02*
X199382000Y-82805000D01*
X197762000Y-81225000D02*
X197782000Y-81205000D01*
X107620000Y-79290000D02*
X108829300Y-80499300D01*
X108829300Y-80499300D02*
X108829300Y-87366300D01*
X108829300Y-87366300D02*
X110363000Y-88900000D01*
X276440000Y-99720000D02*
X276400000Y-99760000D01*
X276400000Y-99760000D02*
X276400000Y-100300000D01*
G04 #@! TO.N,ColI*
X110363000Y-91440000D02*
X111502300Y-92579300D01*
X111502300Y-92579300D02*
X111502300Y-94435600D01*
X111502300Y-94435600D02*
X110776500Y-95161400D01*
X110776500Y-95161400D02*
X109861100Y-95161400D01*
X109861100Y-95161400D02*
X106720500Y-92020800D01*
X106720500Y-92020800D02*
X106720500Y-85220600D01*
X106720500Y-85220600D02*
X106337400Y-84837500D01*
X106337400Y-84837500D02*
X106337400Y-83112600D01*
X106337400Y-83112600D02*
X107620000Y-81830000D01*
X219312000Y-81925000D02*
X216852000Y-84385000D01*
X216852000Y-84385000D02*
X216852000Y-99695000D01*
X216812000Y-100275000D02*
X218285500Y-100375400D01*
X218285500Y-100375400D02*
X218712400Y-100375400D01*
X218712400Y-100375400D02*
X219312000Y-100975000D01*
X216812000Y-100275000D02*
X216812000Y-99735000D01*
X216812000Y-99735000D02*
X216852000Y-99695000D01*
X218432000Y-63755000D02*
X216852000Y-65335000D01*
X216852000Y-65335000D02*
X216852000Y-80645000D01*
X219312000Y-62875000D02*
X218432000Y-63755000D01*
X216832000Y-62155000D02*
X218432000Y-63755000D01*
X216832000Y-62155000D02*
X216852000Y-62135000D01*
X216852000Y-62135000D02*
X216852000Y-61595000D01*
X216812000Y-62175000D02*
X216832000Y-62155000D01*
X216852000Y-80645000D02*
X216812000Y-80685000D01*
X216812000Y-80685000D02*
X216812000Y-81225000D01*
G04 #@! TO.N,ColJ*
X110363000Y-93980000D02*
X107620000Y-91237000D01*
X107620000Y-91237000D02*
X107620000Y-84370000D01*
X235902000Y-61595000D02*
X235862000Y-61635000D01*
X235862000Y-61635000D02*
X235862000Y-62175000D01*
X235862000Y-62175000D02*
X237335500Y-62275400D01*
X235902000Y-82859300D02*
X235760300Y-82717600D01*
X235902000Y-99695000D02*
X235902000Y-82859300D01*
X238362000Y-81925000D02*
X236836300Y-81925000D01*
X236836300Y-81925000D02*
X235902000Y-82859300D01*
X235862000Y-100275000D02*
X235862000Y-99735000D01*
X235862000Y-99735000D02*
X235902000Y-99695000D01*
X235862000Y-100275000D02*
X237335500Y-100375400D01*
X238362000Y-62875000D02*
X237935000Y-62875000D01*
X237935000Y-62875000D02*
X237335500Y-62275500D01*
X237335500Y-62275500D02*
X237335500Y-62275400D01*
X235862000Y-62175000D02*
X235760300Y-63667600D01*
X235902000Y-80645000D02*
X235902000Y-63809300D01*
X235902000Y-63809300D02*
X235760300Y-63667600D01*
X235862000Y-81225000D02*
X235862000Y-80685000D01*
X235862000Y-80685000D02*
X235902000Y-80645000D01*
X235862000Y-81225000D02*
X235760300Y-82717600D01*
X238362000Y-100975000D02*
X237935000Y-100975000D01*
X237935000Y-100975000D02*
X237335500Y-100375500D01*
X237335500Y-100375500D02*
X237335500Y-100375400D01*
G04 #@! TO.N,Net-(D_1.25u1-Pad2)*
X283566000Y-100756000D02*
X283566000Y-101956000D01*
X273900000Y-98900000D02*
X274594600Y-98205400D01*
X274594600Y-98205400D02*
X281015400Y-98205400D01*
X281015400Y-98205400D02*
X283566000Y-100756000D01*
X271400000Y-100800000D02*
X271400000Y-101473700D01*
X271400000Y-101473700D02*
X271562600Y-101636300D01*
X273900000Y-98900000D02*
X273300000Y-98900000D01*
X273300000Y-98900000D02*
X271400000Y-100800000D01*
X283566000Y-101956000D02*
X283566000Y-103081000D01*
X270090000Y-102110000D02*
X271400000Y-100800000D01*
X270090000Y-102260000D02*
X270090000Y-102110000D01*
G04 #@! TO.N,GND*
X277850500Y-58750900D02*
X254468100Y-58750900D01*
X254468100Y-58750900D02*
X254188400Y-58471200D01*
X284050000Y-55399900D02*
X280699000Y-58750900D01*
X280699000Y-58750900D02*
X277850500Y-58750900D01*
X277850500Y-58750900D02*
X277850500Y-63566600D01*
X277850500Y-63566600D02*
X266199300Y-75217800D01*
X266199300Y-75217800D02*
X266199300Y-78100000D01*
X107620000Y-58970000D02*
X94332800Y-58970000D01*
X94332800Y-58970000D02*
X93131100Y-60171700D01*
X93131100Y-60171700D02*
X92018900Y-60171700D01*
X92018900Y-60171700D02*
X91178300Y-61012300D01*
X91178300Y-61012300D02*
X91178300Y-64904700D01*
X91178300Y-64904700D02*
X90043000Y-66040000D01*
X284050000Y-54324600D02*
X284050000Y-55399900D01*
X265024000Y-78100000D02*
X258724000Y-78100000D01*
X265024000Y-78100000D02*
X266199300Y-78100000D01*
X65578900Y-87009600D02*
X65578900Y-85366800D01*
X65578900Y-85366800D02*
X60551200Y-80339100D01*
X60551200Y-80339100D02*
X60551200Y-75536300D01*
X60551200Y-75536300D02*
X61912500Y-74175000D01*
X53700000Y-99500000D02*
X65578900Y-87621100D01*
X65578900Y-87621100D02*
X65578900Y-87009600D01*
X90043000Y-66040000D02*
X88262100Y-67820900D01*
X88262100Y-67820900D02*
X88262100Y-81705500D01*
X88262100Y-81705500D02*
X81905500Y-88062100D01*
X81905500Y-88062100D02*
X76527300Y-88062100D01*
X76527300Y-88062100D02*
X75474800Y-87009600D01*
X75474800Y-87009600D02*
X65578900Y-87009600D01*
G04 #@! TO.N,RST*
X258724000Y-74300000D02*
X257548700Y-74300000D01*
X257548700Y-74300000D02*
X252877600Y-69628900D01*
X252877600Y-69628900D02*
X246029300Y-69628900D01*
X246029300Y-69628900D02*
X243124200Y-66723800D01*
X243124200Y-66723800D02*
X242243000Y-66723800D01*
X242243000Y-66723800D02*
X239692400Y-64173200D01*
X239692400Y-64173200D02*
X239692400Y-62321400D01*
X239692400Y-62321400D02*
X236341000Y-58970000D01*
X236341000Y-58970000D02*
X110160000Y-58970000D01*
X110160000Y-58970000D02*
X107620000Y-61510000D01*
X265024000Y-74300000D02*
X258724000Y-74300000D01*
G04 #@! TO.N,RowD*
X242824000Y-70448000D02*
X242824000Y-71573300D01*
X242824000Y-71573300D02*
X241451600Y-72945700D01*
X241451600Y-72945700D02*
X241451600Y-83554300D01*
X241451600Y-83554300D02*
X242824000Y-84926700D01*
X242824000Y-70448000D02*
X242824000Y-69248000D01*
X242824000Y-85852000D02*
X242824000Y-84926700D01*
X242824000Y-85852000D02*
X242824000Y-86977000D01*
X281387600Y-91121000D02*
X263438700Y-91121000D01*
X283464000Y-89044600D02*
X281387600Y-91121000D01*
X281387600Y-91121000D02*
X284747800Y-94481200D01*
X284747800Y-94481200D02*
X284747800Y-104123900D01*
X284747800Y-104123900D02*
X283566000Y-105305700D01*
X283566000Y-106231000D02*
X283566000Y-105305700D01*
X283464000Y-87282000D02*
X283464000Y-88482000D01*
X283464000Y-86157000D02*
X283464000Y-87282000D01*
X263438700Y-91121000D02*
X261874000Y-89556300D01*
X262276000Y-105125700D02*
X263438700Y-103963000D01*
X263438700Y-103963000D02*
X263438700Y-91121000D01*
X283464000Y-88482000D02*
X283464000Y-89044600D01*
X283464000Y-86157000D02*
X283464000Y-85231700D01*
X283464000Y-85231700D02*
X282338700Y-84106400D01*
X282338700Y-84106400D02*
X282338700Y-72495600D01*
X282338700Y-72495600D02*
X283464000Y-71370300D01*
X283464000Y-70245000D02*
X283464000Y-71370300D01*
X283566000Y-106231000D02*
X283566000Y-107356000D01*
X262276000Y-107176000D02*
X262276000Y-108376000D01*
X262276000Y-106051000D02*
X262276000Y-107176000D01*
X242824000Y-69248000D02*
X242824000Y-68123000D01*
X283566000Y-107356000D02*
X283566000Y-108556000D01*
X262276000Y-106051000D02*
X262276000Y-105125700D01*
X261874000Y-88431000D02*
X261874000Y-89556300D01*
X261874000Y-87231000D02*
X261874000Y-88431000D01*
X242824000Y-86977000D02*
X242824000Y-88177000D01*
X261874000Y-86106000D02*
X261874000Y-87231000D01*
X92380000Y-79290000D02*
X92380000Y-79579900D01*
X92380000Y-79579900D02*
X91178300Y-80781600D01*
X91178300Y-80781600D02*
X91178300Y-81738200D01*
X91178300Y-81738200D02*
X90286000Y-82630500D01*
X90286000Y-82630500D02*
X89608400Y-82630500D01*
X89608400Y-82630500D02*
X88873400Y-83365500D01*
X88873400Y-83365500D02*
X88873400Y-90270400D01*
X88873400Y-90270400D02*
X90043000Y-91440000D01*
X261620000Y-70448000D02*
X261620000Y-69248000D01*
X261620000Y-69248000D02*
X261620000Y-68123000D01*
X283464000Y-70245000D02*
X283464000Y-69045000D01*
X283464000Y-69045000D02*
X283464000Y-67920000D01*
G04 #@! TO.N,Net-(D_ISOENTR1-Pad2)*
X283464000Y-83007000D02*
X284389300Y-83007000D01*
X284389300Y-83007000D02*
X294288100Y-92905800D01*
X294288100Y-92905800D02*
X298683000Y-92905800D01*
X298683000Y-92905800D02*
X302200000Y-96422800D01*
X302200000Y-96422800D02*
X302200000Y-97750000D01*
X283464000Y-81882000D02*
X283464000Y-83007000D01*
X283464000Y-80682000D02*
X283464000Y-81882000D01*
G04 #@! TO.N,RGB*
X90043000Y-73660000D02*
X91178200Y-72524800D01*
X91178200Y-72524800D02*
X91178200Y-67791800D01*
X91178200Y-67791800D02*
X92380000Y-66590000D01*
G04 #@! TO.N,RGB_PWR*
X111486300Y-62927800D02*
X111555000Y-62996500D01*
X111555000Y-62996500D02*
X111555000Y-72468000D01*
X111555000Y-72468000D02*
X110363000Y-73660000D01*
G04 #@! TO.N,DP1*
X281050000Y-54324600D02*
X281050000Y-55409800D01*
X281050000Y-55409800D02*
X278890300Y-57569500D01*
X278890300Y-57569500D02*
X253630800Y-57569500D01*
X253630800Y-57569500D02*
X250687900Y-60512400D01*
G04 #@! TD*
M02*
