G04 #@! TF.GenerationSoftware,KiCad,Pcbnew,(5.0.1)-3*
G04 #@! TF.CreationDate,2020-02-03T22:22:31+02:00*
G04 #@! TF.ProjectId,PRKL30,50524B4C33302E6B696361645F706362,rev?*
G04 #@! TF.SameCoordinates,Original*
G04 #@! TF.FileFunction,Copper,L1,Top,Signal*
G04 #@! TF.FilePolarity,Positive*
%FSLAX46Y46*%
G04 Gerber Fmt 4.6, Leading zero omitted, Abs format (unit mm)*
G04 Created by KiCad (PCBNEW (5.0.1)-3) date 02/03/20 22:22:31*
%MOMM*%
%LPD*%
G01*
G04 APERTURE LIST*
G04 #@! TA.AperFunction,ComponentPad*
%ADD10C,1.600000*%
G04 #@! TD*
G04 #@! TA.AperFunction,ComponentPad*
%ADD11R,1.600000X1.600000*%
G04 #@! TD*
G04 #@! TA.AperFunction,ComponentPad*
%ADD12R,2.000000X2.000000*%
G04 #@! TD*
G04 #@! TA.AperFunction,ComponentPad*
%ADD13C,2.000000*%
G04 #@! TD*
G04 #@! TA.AperFunction,ComponentPad*
%ADD14R,2.000000X3.200000*%
G04 #@! TD*
G04 #@! TA.AperFunction,ComponentPad*
%ADD15C,2.250000*%
G04 #@! TD*
G04 #@! TA.AperFunction,Conductor*
%ADD16C,2.250000*%
G04 #@! TD*
G04 #@! TA.AperFunction,ComponentPad*
%ADD17C,1.752600*%
G04 #@! TD*
G04 #@! TA.AperFunction,ComponentPad*
%ADD18R,1.752600X1.752600*%
G04 #@! TD*
G04 #@! TA.AperFunction,ViaPad*
%ADD19C,0.800000*%
G04 #@! TD*
G04 #@! TA.AperFunction,Conductor*
%ADD20C,0.250000*%
G04 #@! TD*
G04 APERTURE END LIST*
D10*
G04 #@! TO.P,D5,2*
G04 #@! TO.N,Net-(D5-Pad2)*
X146558000Y-62902000D03*
D11*
G04 #@! TO.P,D5,1*
G04 #@! TO.N,RowA*
X146558000Y-70702000D03*
G04 #@! TD*
D12*
G04 #@! TO.P,K_ENC1,A*
G04 #@! TO.N,EncA*
X59412500Y-74175000D03*
D13*
G04 #@! TO.P,K_ENC1,C*
G04 #@! TO.N,GND*
X61912500Y-74175000D03*
G04 #@! TO.P,K_ENC1,B*
G04 #@! TO.N,EncB*
X64412500Y-74175000D03*
D14*
G04 #@! TO.P,K_ENC1,MP*
G04 #@! TO.N,N/C*
X56312500Y-66675000D03*
X67512500Y-66675000D03*
D13*
G04 #@! TO.P,K_ENC1,S2*
G04 #@! TO.N,RowA*
X59412500Y-59675000D03*
G04 #@! TO.P,K_ENC1,S1*
G04 #@! TO.N,ColA*
X64412500Y-59675000D03*
G04 #@! TD*
D10*
G04 #@! TO.P,Feather1,1*
G04 #@! TO.N,Net-(Feather1-Pad1)*
X110363000Y-68580000D03*
G04 #@! TO.P,Feather1,2*
G04 #@! TO.N,DP1*
X110363000Y-71120000D03*
G04 #@! TO.P,Feather1,3*
G04 #@! TO.N,RGB_PWR*
X110363000Y-73660000D03*
G04 #@! TO.P,Feather1,4*
G04 #@! TO.N,ColE*
X110363000Y-76200000D03*
G04 #@! TO.P,Feather1,5*
G04 #@! TO.N,ColD*
X110363000Y-78740000D03*
G04 #@! TO.P,Feather1,6*
G04 #@! TO.N,ColC*
X110363000Y-81280000D03*
G04 #@! TO.P,Feather1,7*
G04 #@! TO.N,ColF*
X110363000Y-83820000D03*
G04 #@! TO.P,Feather1,8*
G04 #@! TO.N,ColG*
X110363000Y-86360000D03*
G04 #@! TO.P,Feather1,9*
G04 #@! TO.N,ColH*
X110363000Y-88900000D03*
G04 #@! TO.P,Feather1,12*
G04 #@! TO.N,ColB*
X110363000Y-96520000D03*
G04 #@! TO.P,Feather1,10*
G04 #@! TO.N,ColI*
X110363000Y-91440000D03*
G04 #@! TO.P,Feather1,11*
G04 #@! TO.N,ColJ*
X110363000Y-93980000D03*
G04 #@! TO.P,Feather1,13*
G04 #@! TO.N,RST*
X90043000Y-58420000D03*
G04 #@! TO.P,Feather1,14*
G04 #@! TO.N,Net-(Feather1-Pad14)*
X90043000Y-60960000D03*
G04 #@! TO.P,Feather1,15*
G04 #@! TO.N,Net-(Feather1-Pad15)*
X90043000Y-63500000D03*
G04 #@! TO.P,Feather1,16*
G04 #@! TO.N,GND*
X90043000Y-66040000D03*
G04 #@! TO.P,Feather1,17*
G04 #@! TO.N,EncA*
X90043000Y-68580000D03*
G04 #@! TO.P,Feather1,18*
G04 #@! TO.N,EncB*
X90043000Y-71120000D03*
G04 #@! TO.P,Feather1,19*
G04 #@! TO.N,RGB*
X90043000Y-73660000D03*
G04 #@! TO.P,Feather1,20*
G04 #@! TO.N,RowA*
X90043000Y-76200000D03*
G04 #@! TO.P,Feather1,21*
G04 #@! TO.N,RowB*
X90043000Y-78740000D03*
G04 #@! TO.P,Feather1,22*
G04 #@! TO.N,RowC*
X90043000Y-81280000D03*
G04 #@! TO.P,Feather1,23*
G04 #@! TO.N,Net-(Feather1-Pad23)*
X90043000Y-83820000D03*
G04 #@! TO.P,Feather1,24*
G04 #@! TO.N,Net-(Feather1-Pad24)*
X90043000Y-86360000D03*
G04 #@! TO.P,Feather1,25*
G04 #@! TO.N,Net-(Feather1-Pad25)*
X90043000Y-88900000D03*
G04 #@! TO.P,Feather1,26*
G04 #@! TO.N,RowD*
X90043000Y-91440000D03*
G04 #@! TO.P,Feather1,27*
G04 #@! TO.N,ColA*
X90043000Y-93980000D03*
G04 #@! TO.P,Feather1,28*
G04 #@! TO.N,Net-(Feather1-Pad28)*
X90043000Y-96520000D03*
G04 #@! TD*
D15*
G04 #@! TO.P,K_2Uspc1,2*
G04 #@! TO.N,Net-(D32-Pad2)*
X164168229Y-109565016D03*
D16*
G04 #@! TD*
G04 #@! TO.N,Net-(D32-Pad2)*
G04 #@! TO.C,K_2Uspc1*
X164188000Y-109275000D02*
X164148458Y-109855032D01*
D15*
G04 #@! TO.P,K_2Uspc1,2*
G04 #@! TO.N,Net-(D32-Pad2)*
X164148000Y-109855000D03*
G04 #@! TO.P,K_2Uspc1,1*
G04 #@! TO.N,ColF*
X169843005Y-108045004D03*
D16*
G04 #@! TD*
G04 #@! TO.N,ColF*
G04 #@! TO.C,K_2Uspc1*
X170498000Y-107315000D02*
X169188010Y-108775008D01*
D15*
G04 #@! TO.P,K_2Uspc1,1*
G04 #@! TO.N,ColF*
X169188000Y-108775000D03*
D13*
G04 #@! TO.P,K_2Uspc1,2*
G04 #@! TO.N,Net-(D32-Pad2)*
X161688000Y-108575000D03*
G04 #@! TO.P,K_2Uspc1,1*
G04 #@! TO.N,ColF*
X166688000Y-110675000D03*
G04 #@! TD*
G04 #@! TO.P,K_ISOENTER1,1*
G04 #@! TO.N,ColF*
X303600000Y-95250000D03*
G04 #@! TO.P,K_ISOENTER1,2*
G04 #@! TO.N,Net-(D_ISOENTR1-Pad2)*
X301500000Y-100250000D03*
D15*
G04 #@! TO.P,K_ISOENTER1,1*
G04 #@! TO.N,ColF*
X301700000Y-92750000D03*
X300970004Y-92094995D03*
D16*
G04 #@! TD*
G04 #@! TO.N,ColF*
G04 #@! TO.C,K_ISOENTER1*
X300240000Y-91440000D02*
X301700008Y-92749990D01*
D15*
G04 #@! TO.P,K_ISOENTER1,2*
G04 #@! TO.N,Net-(D_ISOENTR1-Pad2)*
X302780000Y-97790000D03*
X302490016Y-97769771D03*
D16*
G04 #@! TD*
G04 #@! TO.N,Net-(D_ISOENTR1-Pad2)*
G04 #@! TO.C,K_ISOENTER1*
X302200000Y-97750000D02*
X302780032Y-97789542D01*
D10*
G04 #@! TO.P,D4,2*
G04 #@! TO.N,Net-(D4-Pad2)*
X130048000Y-62648000D03*
D11*
G04 #@! TO.P,D4,1*
G04 #@! TO.N,RowA*
X130048000Y-70448000D03*
G04 #@! TD*
D17*
G04 #@! TO.P,MCU_Pro_Micr0,24*
G04 #@! TO.N,RGB_PWR*
X107620000Y-56430000D03*
G04 #@! TO.P,MCU_Pro_Micr0,12*
G04 #@! TO.N,ColB*
X92380000Y-84370000D03*
G04 #@! TO.P,MCU_Pro_Micr0,23*
G04 #@! TO.N,GND*
X107620000Y-58970000D03*
G04 #@! TO.P,MCU_Pro_Micr0,22*
G04 #@! TO.N,RST*
X107620000Y-61510000D03*
G04 #@! TO.P,MCU_Pro_Micr0,21*
G04 #@! TO.N,Net-(MCU_Pro_Micr0-Pad21)*
X107620000Y-64050000D03*
G04 #@! TO.P,MCU_Pro_Micr0,20*
G04 #@! TO.N,ColE*
X107620000Y-66590000D03*
G04 #@! TO.P,MCU_Pro_Micr0,19*
G04 #@! TO.N,ColD*
X107620000Y-69130000D03*
G04 #@! TO.P,MCU_Pro_Micr0,18*
G04 #@! TO.N,ColC*
X107620000Y-71670000D03*
G04 #@! TO.P,MCU_Pro_Micr0,17*
G04 #@! TO.N,ColF*
X107620000Y-74210000D03*
G04 #@! TO.P,MCU_Pro_Micr0,16*
G04 #@! TO.N,ColG*
X107620000Y-76750000D03*
G04 #@! TO.P,MCU_Pro_Micr0,15*
G04 #@! TO.N,ColH*
X107620000Y-79290000D03*
G04 #@! TO.P,MCU_Pro_Micr0,14*
G04 #@! TO.N,ColI*
X107620000Y-81830000D03*
G04 #@! TO.P,MCU_Pro_Micr0,13*
G04 #@! TO.N,ColJ*
X107620000Y-84370000D03*
G04 #@! TO.P,MCU_Pro_Micr0,11*
G04 #@! TO.N,ColA*
X92380000Y-81830000D03*
G04 #@! TO.P,MCU_Pro_Micr0,10*
G04 #@! TO.N,RowD*
X92380000Y-79290000D03*
G04 #@! TO.P,MCU_Pro_Micr0,9*
G04 #@! TO.N,RowC*
X92380000Y-76750000D03*
G04 #@! TO.P,MCU_Pro_Micr0,8*
G04 #@! TO.N,RowB*
X92380000Y-74210000D03*
G04 #@! TO.P,MCU_Pro_Micr0,7*
G04 #@! TO.N,RowA*
X92380000Y-71670000D03*
G04 #@! TO.P,MCU_Pro_Micr0,6*
G04 #@! TO.N,Net-(MCU_Pro_Micr0-Pad6)*
X92380000Y-69130000D03*
G04 #@! TO.P,MCU_Pro_Micr0,5*
G04 #@! TO.N,RGB*
X92380000Y-66590000D03*
G04 #@! TO.P,MCU_Pro_Micr0,4*
G04 #@! TO.N,Net-(MCU_Pro_Micr0-Pad4)*
X92380000Y-64050000D03*
G04 #@! TO.P,MCU_Pro_Micr0,3*
G04 #@! TO.N,Net-(MCU_Pro_Micr0-Pad3)*
X92380000Y-61510000D03*
G04 #@! TO.P,MCU_Pro_Micr0,2*
G04 #@! TO.N,EncB*
X92380000Y-58970000D03*
D18*
G04 #@! TO.P,MCU_Pro_Micr0,1*
G04 #@! TO.N,EncA*
X92380000Y-56430000D03*
G04 #@! TD*
D10*
G04 #@! TO.P,D1,2*
G04 #@! TO.N,Net-(D1-Pad2)*
X70300000Y-63156000D03*
D11*
G04 #@! TO.P,D1,1*
G04 #@! TO.N,RowA*
X70300000Y-70956000D03*
G04 #@! TD*
D10*
G04 #@! TO.P,D2,2*
G04 #@! TO.N,Net-(D2-Pad2)*
X72644000Y-63156000D03*
D11*
G04 #@! TO.P,D2,1*
G04 #@! TO.N,RowA*
X72644000Y-70956000D03*
G04 #@! TD*
D10*
G04 #@! TO.P,D3,2*
G04 #@! TO.N,Net-(D3-Pad2)*
X127508000Y-62597000D03*
D11*
G04 #@! TO.P,D3,1*
G04 #@! TO.N,RowA*
X127508000Y-70397000D03*
G04 #@! TD*
G04 #@! TO.P,D6,1*
G04 #@! TO.N,RowA*
X149098000Y-70702000D03*
D10*
G04 #@! TO.P,D6,2*
G04 #@! TO.N,Net-(D6-Pad2)*
X149098000Y-62902000D03*
G04 #@! TD*
D11*
G04 #@! TO.P,D7,1*
G04 #@! TO.N,RowA*
X166624000Y-70448000D03*
D10*
G04 #@! TO.P,D7,2*
G04 #@! TO.N,Net-(D7-Pad2)*
X166624000Y-62648000D03*
G04 #@! TD*
D11*
G04 #@! TO.P,D8,1*
G04 #@! TO.N,RowA*
X185420000Y-70448000D03*
D10*
G04 #@! TO.P,D8,2*
G04 #@! TO.N,Net-(D8-Pad2)*
X185420000Y-62648000D03*
G04 #@! TD*
D11*
G04 #@! TO.P,D9,1*
G04 #@! TO.N,RowA*
X204724000Y-70448000D03*
D10*
G04 #@! TO.P,D9,2*
G04 #@! TO.N,Net-(D9-Pad2)*
X204724000Y-62648000D03*
G04 #@! TD*
D11*
G04 #@! TO.P,D10,1*
G04 #@! TO.N,RowA*
X223520000Y-70448000D03*
D10*
G04 #@! TO.P,D10,2*
G04 #@! TO.N,Net-(D10-Pad2)*
X223520000Y-62648000D03*
G04 #@! TD*
D11*
G04 #@! TO.P,D11,1*
G04 #@! TO.N,RowD*
X242824000Y-70448000D03*
D10*
G04 #@! TO.P,D11,2*
G04 #@! TO.N,Net-(D11-Pad2)*
X242824000Y-62648000D03*
G04 #@! TD*
D11*
G04 #@! TO.P,D12,1*
G04 #@! TO.N,RowD*
X261620000Y-70448000D03*
D10*
G04 #@! TO.P,D12,2*
G04 #@! TO.N,Net-(D12-Pad2)*
X261620000Y-62648000D03*
G04 #@! TD*
D11*
G04 #@! TO.P,D13,1*
G04 #@! TO.N,RowD*
X283464000Y-70245000D03*
D10*
G04 #@! TO.P,D13,2*
G04 #@! TO.N,Net-(D13-Pad2)*
X283464000Y-62445000D03*
G04 #@! TD*
D11*
G04 #@! TO.P,D14,1*
G04 #@! TO.N,RowB*
X70104000Y-90311000D03*
D10*
G04 #@! TO.P,D14,2*
G04 #@! TO.N,Net-(D14-Pad2)*
X70104000Y-82511000D03*
G04 #@! TD*
D11*
G04 #@! TO.P,D15,1*
G04 #@! TO.N,RowB*
X72644000Y-90260000D03*
D10*
G04 #@! TO.P,D15,2*
G04 #@! TO.N,Net-(D15-Pad2)*
X72644000Y-82460000D03*
G04 #@! TD*
D11*
G04 #@! TO.P,D16,1*
G04 #@! TO.N,RowB*
X127508000Y-87720000D03*
D10*
G04 #@! TO.P,D16,2*
G04 #@! TO.N,Net-(D16-Pad2)*
X127508000Y-79920000D03*
G04 #@! TD*
D11*
G04 #@! TO.P,D17,1*
G04 #@! TO.N,RowB*
X130048000Y-87736000D03*
D10*
G04 #@! TO.P,D17,2*
G04 #@! TO.N,Net-(D17-Pad2)*
X130048000Y-79936000D03*
G04 #@! TD*
D11*
G04 #@! TO.P,D18,1*
G04 #@! TO.N,RowB*
X146812000Y-87161000D03*
D10*
G04 #@! TO.P,D18,2*
G04 #@! TO.N,Net-(D18-Pad2)*
X146812000Y-79361000D03*
G04 #@! TD*
D11*
G04 #@! TO.P,D19,1*
G04 #@! TO.N,RowB*
X149352000Y-87161000D03*
D10*
G04 #@! TO.P,D19,2*
G04 #@! TO.N,Net-(D19-Pad2)*
X149352000Y-79361000D03*
G04 #@! TD*
D11*
G04 #@! TO.P,D20,1*
G04 #@! TO.N,RowB*
X167132000Y-87517000D03*
D10*
G04 #@! TO.P,D20,2*
G04 #@! TO.N,Net-(D20-Pad2)*
X167132000Y-79717000D03*
G04 #@! TD*
G04 #@! TO.P,D21,2*
G04 #@! TO.N,Net-(D21-Pad2)*
X185928000Y-79826000D03*
D11*
G04 #@! TO.P,D21,1*
G04 #@! TO.N,RowB*
X185928000Y-87626000D03*
G04 #@! TD*
D10*
G04 #@! TO.P,D22,2*
G04 #@! TO.N,Net-(D22-Pad2)*
X204978000Y-79920000D03*
D11*
G04 #@! TO.P,D22,1*
G04 #@! TO.N,RowB*
X204978000Y-87720000D03*
G04 #@! TD*
D10*
G04 #@! TO.P,D23,2*
G04 #@! TO.N,Net-(D23-Pad2)*
X224028000Y-80080000D03*
D11*
G04 #@! TO.P,D23,1*
G04 #@! TO.N,RowB*
X224028000Y-87880000D03*
G04 #@! TD*
D10*
G04 #@! TO.P,D24,2*
G04 #@! TO.N,Net-(D24-Pad2)*
X242824000Y-80377000D03*
D11*
G04 #@! TO.P,D24,1*
G04 #@! TO.N,RowD*
X242824000Y-88177000D03*
G04 #@! TD*
D10*
G04 #@! TO.P,D25,2*
G04 #@! TO.N,Net-(D25-Pad2)*
X261874000Y-80631000D03*
D11*
G04 #@! TO.P,D25,1*
G04 #@! TO.N,RowD*
X261874000Y-88431000D03*
G04 #@! TD*
D10*
G04 #@! TO.P,D27,2*
G04 #@! TO.N,Net-(D27-Pad2)*
X70300000Y-100500000D03*
D11*
G04 #@! TO.P,D27,1*
G04 #@! TO.N,RowC*
X70300000Y-108300000D03*
G04 #@! TD*
D10*
G04 #@! TO.P,D28,2*
G04 #@! TO.N,Net-(D28-Pad2)*
X72800000Y-100400000D03*
D11*
G04 #@! TO.P,D28,1*
G04 #@! TO.N,RowC*
X72800000Y-108200000D03*
G04 #@! TD*
D10*
G04 #@! TO.P,D29,2*
G04 #@! TO.N,Net-(D29-Pad2)*
X127300000Y-100700000D03*
D11*
G04 #@! TO.P,D29,1*
G04 #@! TO.N,RowC*
X127300000Y-108500000D03*
G04 #@! TD*
D10*
G04 #@! TO.P,D30,2*
G04 #@! TO.N,Net-(D30-Pad2)*
X129800000Y-100700000D03*
D11*
G04 #@! TO.P,D30,1*
G04 #@! TO.N,RowC*
X129800000Y-108500000D03*
G04 #@! TD*
D10*
G04 #@! TO.P,D31,2*
G04 #@! TO.N,Net-(D31-Pad2)*
X146420000Y-101480000D03*
D11*
G04 #@! TO.P,D31,1*
G04 #@! TO.N,RowC*
X146420000Y-109280000D03*
G04 #@! TD*
D10*
G04 #@! TO.P,D32,2*
G04 #@! TO.N,Net-(D32-Pad2)*
X148930000Y-101500000D03*
D11*
G04 #@! TO.P,D32,1*
G04 #@! TO.N,RowC*
X148930000Y-109300000D03*
G04 #@! TD*
D10*
G04 #@! TO.P,D33,2*
G04 #@! TO.N,Net-(D33-Pad2)*
X185740000Y-100842000D03*
D11*
G04 #@! TO.P,D33,1*
G04 #@! TO.N,RowC*
X185740000Y-108642000D03*
G04 #@! TD*
D10*
G04 #@! TO.P,D34,2*
G04 #@! TO.N,Net-(D34-Pad2)*
X204786000Y-98016000D03*
D11*
G04 #@! TO.P,D34,1*
G04 #@! TO.N,RowC*
X204786000Y-105816000D03*
G04 #@! TD*
D10*
G04 #@! TO.P,D35,2*
G04 #@! TO.N,Net-(D35-Pad2)*
X224282000Y-100658000D03*
D11*
G04 #@! TO.P,D35,1*
G04 #@! TO.N,RowC*
X224282000Y-108458000D03*
G04 #@! TD*
G04 #@! TO.P,D36,1*
G04 #@! TO.N,RowC*
X243078000Y-108040000D03*
D10*
G04 #@! TO.P,D36,2*
G04 #@! TO.N,Net-(D36-Pad2)*
X243078000Y-100240000D03*
G04 #@! TD*
D11*
G04 #@! TO.P,D37,1*
G04 #@! TO.N,RowD*
X262276000Y-108376000D03*
D10*
G04 #@! TO.P,D37,2*
G04 #@! TO.N,Net-(D37-Pad2)*
X262276000Y-100576000D03*
G04 #@! TD*
D11*
G04 #@! TO.P,D_1.25u1,1*
G04 #@! TO.N,RowD*
X283566000Y-108556000D03*
D10*
G04 #@! TO.P,D_1.25u1,2*
G04 #@! TO.N,Net-(D_1.25u1-Pad2)*
X283566000Y-100756000D03*
G04 #@! TD*
D15*
G04 #@! TO.P,K1,1*
G04 #@! TO.N,ColA*
X64432271Y-61884984D03*
D16*
G04 #@! TD*
G04 #@! TO.N,ColA*
G04 #@! TO.C,K1*
X64412500Y-62175000D02*
X64452042Y-61594968D01*
D15*
G04 #@! TO.P,K1,1*
G04 #@! TO.N,ColA*
X64452500Y-61595000D03*
G04 #@! TO.P,K1,2*
G04 #@! TO.N,Net-(D1-Pad2)*
X58757495Y-63404996D03*
D16*
G04 #@! TD*
G04 #@! TO.N,Net-(D1-Pad2)*
G04 #@! TO.C,K1*
X58102500Y-64135000D02*
X59412490Y-62674992D01*
D15*
G04 #@! TO.P,K1,2*
G04 #@! TO.N,Net-(D1-Pad2)*
X59412500Y-62675000D03*
D13*
G04 #@! TO.P,K1,1*
G04 #@! TO.N,ColA*
X66912500Y-62875000D03*
G04 #@! TO.P,K1,2*
G04 #@! TO.N,Net-(D1-Pad2)*
X61912500Y-60775000D03*
G04 #@! TD*
G04 #@! TO.P,K2,2*
G04 #@! TO.N,Net-(D2-Pad2)*
X80962500Y-60775000D03*
G04 #@! TO.P,K2,1*
G04 #@! TO.N,ColB*
X85962500Y-62875000D03*
D15*
G04 #@! TO.P,K2,2*
G04 #@! TO.N,Net-(D2-Pad2)*
X78462500Y-62675000D03*
X77807495Y-63404996D03*
D16*
G04 #@! TD*
G04 #@! TO.N,Net-(D2-Pad2)*
G04 #@! TO.C,K2*
X77152500Y-64135000D02*
X78462490Y-62674992D01*
D15*
G04 #@! TO.P,K2,1*
G04 #@! TO.N,ColB*
X83502500Y-61595000D03*
X83482271Y-61884984D03*
D16*
G04 #@! TD*
G04 #@! TO.N,ColB*
G04 #@! TO.C,K2*
X83462500Y-62175000D02*
X83502042Y-61594968D01*
D15*
G04 #@! TO.P,K3,1*
G04 #@! TO.N,ColC*
X102531771Y-61884984D03*
D16*
G04 #@! TD*
G04 #@! TO.N,ColC*
G04 #@! TO.C,K3*
X102512000Y-62175000D02*
X102551542Y-61594968D01*
D15*
G04 #@! TO.P,K3,1*
G04 #@! TO.N,ColC*
X102552000Y-61595000D03*
G04 #@! TO.P,K3,2*
G04 #@! TO.N,Net-(D3-Pad2)*
X96856995Y-63404996D03*
D16*
G04 #@! TD*
G04 #@! TO.N,Net-(D3-Pad2)*
G04 #@! TO.C,K3*
X96202000Y-64135000D02*
X97511990Y-62674992D01*
D15*
G04 #@! TO.P,K3,2*
G04 #@! TO.N,Net-(D3-Pad2)*
X97512000Y-62675000D03*
D13*
G04 #@! TO.P,K3,1*
G04 #@! TO.N,ColC*
X105012000Y-62875000D03*
G04 #@! TO.P,K3,2*
G04 #@! TO.N,Net-(D3-Pad2)*
X100012000Y-60775000D03*
G04 #@! TD*
G04 #@! TO.P,K4,2*
G04 #@! TO.N,Net-(D4-Pad2)*
X119062000Y-60775000D03*
G04 #@! TO.P,K4,1*
G04 #@! TO.N,ColD*
X124062000Y-62875000D03*
D15*
G04 #@! TO.P,K4,2*
G04 #@! TO.N,Net-(D4-Pad2)*
X116562000Y-62675000D03*
X115906995Y-63404996D03*
D16*
G04 #@! TD*
G04 #@! TO.N,Net-(D4-Pad2)*
G04 #@! TO.C,K4*
X115252000Y-64135000D02*
X116561990Y-62674992D01*
D15*
G04 #@! TO.P,K4,1*
G04 #@! TO.N,ColD*
X121602000Y-61595000D03*
X121581771Y-61884984D03*
D16*
G04 #@! TD*
G04 #@! TO.N,ColD*
G04 #@! TO.C,K4*
X121562000Y-62175000D02*
X121601542Y-61594968D01*
D13*
G04 #@! TO.P,K5,2*
G04 #@! TO.N,Net-(D5-Pad2)*
X138112000Y-60775000D03*
G04 #@! TO.P,K5,1*
G04 #@! TO.N,ColE*
X143112000Y-62875000D03*
D15*
G04 #@! TO.P,K5,2*
G04 #@! TO.N,Net-(D5-Pad2)*
X135612000Y-62675000D03*
X134956995Y-63404996D03*
D16*
G04 #@! TD*
G04 #@! TO.N,Net-(D5-Pad2)*
G04 #@! TO.C,K5*
X134302000Y-64135000D02*
X135611990Y-62674992D01*
D15*
G04 #@! TO.P,K5,1*
G04 #@! TO.N,ColE*
X140652000Y-61595000D03*
X140631771Y-61884984D03*
D16*
G04 #@! TD*
G04 #@! TO.N,ColE*
G04 #@! TO.C,K5*
X140612000Y-62175000D02*
X140651542Y-61594968D01*
D13*
G04 #@! TO.P,K6,2*
G04 #@! TO.N,Net-(D6-Pad2)*
X157162000Y-60775000D03*
G04 #@! TO.P,K6,1*
G04 #@! TO.N,ColF*
X162162000Y-62875000D03*
D15*
G04 #@! TO.P,K6,2*
G04 #@! TO.N,Net-(D6-Pad2)*
X154662000Y-62675000D03*
X154006995Y-63404996D03*
D16*
G04 #@! TD*
G04 #@! TO.N,Net-(D6-Pad2)*
G04 #@! TO.C,K6*
X153352000Y-64135000D02*
X154661990Y-62674992D01*
D15*
G04 #@! TO.P,K6,1*
G04 #@! TO.N,ColF*
X159702000Y-61595000D03*
X159681771Y-61884984D03*
D16*
G04 #@! TD*
G04 #@! TO.N,ColF*
G04 #@! TO.C,K6*
X159662000Y-62175000D02*
X159701542Y-61594968D01*
D13*
G04 #@! TO.P,K7,2*
G04 #@! TO.N,Net-(D7-Pad2)*
X176212000Y-60775000D03*
G04 #@! TO.P,K7,1*
G04 #@! TO.N,ColG*
X181212000Y-62875000D03*
D15*
G04 #@! TO.P,K7,2*
G04 #@! TO.N,Net-(D7-Pad2)*
X173712000Y-62675000D03*
X173056995Y-63404996D03*
D16*
G04 #@! TD*
G04 #@! TO.N,Net-(D7-Pad2)*
G04 #@! TO.C,K7*
X172402000Y-64135000D02*
X173711990Y-62674992D01*
D15*
G04 #@! TO.P,K7,1*
G04 #@! TO.N,ColG*
X178752000Y-61595000D03*
X178731771Y-61884984D03*
D16*
G04 #@! TD*
G04 #@! TO.N,ColG*
G04 #@! TO.C,K7*
X178712000Y-62175000D02*
X178751542Y-61594968D01*
D13*
G04 #@! TO.P,K8,2*
G04 #@! TO.N,Net-(D8-Pad2)*
X195262000Y-60775000D03*
G04 #@! TO.P,K8,1*
G04 #@! TO.N,ColH*
X200262000Y-62875000D03*
D15*
G04 #@! TO.P,K8,2*
G04 #@! TO.N,Net-(D8-Pad2)*
X192762000Y-62675000D03*
X192106995Y-63404996D03*
D16*
G04 #@! TD*
G04 #@! TO.N,Net-(D8-Pad2)*
G04 #@! TO.C,K8*
X191452000Y-64135000D02*
X192761990Y-62674992D01*
D15*
G04 #@! TO.P,K8,1*
G04 #@! TO.N,ColH*
X197802000Y-61595000D03*
X197781771Y-61884984D03*
D16*
G04 #@! TD*
G04 #@! TO.N,ColH*
G04 #@! TO.C,K8*
X197762000Y-62175000D02*
X197801542Y-61594968D01*
D13*
G04 #@! TO.P,K9,2*
G04 #@! TO.N,Net-(D9-Pad2)*
X214312000Y-60775000D03*
G04 #@! TO.P,K9,1*
G04 #@! TO.N,ColI*
X219312000Y-62875000D03*
D15*
G04 #@! TO.P,K9,2*
G04 #@! TO.N,Net-(D9-Pad2)*
X211812000Y-62675000D03*
X211156995Y-63404996D03*
D16*
G04 #@! TD*
G04 #@! TO.N,Net-(D9-Pad2)*
G04 #@! TO.C,K9*
X210502000Y-64135000D02*
X211811990Y-62674992D01*
D15*
G04 #@! TO.P,K9,1*
G04 #@! TO.N,ColI*
X216852000Y-61595000D03*
X216831771Y-61884984D03*
D16*
G04 #@! TD*
G04 #@! TO.N,ColI*
G04 #@! TO.C,K9*
X216812000Y-62175000D02*
X216851542Y-61594968D01*
D15*
G04 #@! TO.P,K10,1*
G04 #@! TO.N,ColJ*
X235881771Y-61884984D03*
D16*
G04 #@! TD*
G04 #@! TO.N,ColJ*
G04 #@! TO.C,K10*
X235862000Y-62175000D02*
X235901542Y-61594968D01*
D15*
G04 #@! TO.P,K10,1*
G04 #@! TO.N,ColJ*
X235902000Y-61595000D03*
G04 #@! TO.P,K10,2*
G04 #@! TO.N,Net-(D10-Pad2)*
X230206995Y-63404996D03*
D16*
G04 #@! TD*
G04 #@! TO.N,Net-(D10-Pad2)*
G04 #@! TO.C,K10*
X229552000Y-64135000D02*
X230861990Y-62674992D01*
D15*
G04 #@! TO.P,K10,2*
G04 #@! TO.N,Net-(D10-Pad2)*
X230862000Y-62675000D03*
D13*
G04 #@! TO.P,K10,1*
G04 #@! TO.N,ColJ*
X238362000Y-62875000D03*
G04 #@! TO.P,K10,2*
G04 #@! TO.N,Net-(D10-Pad2)*
X233362000Y-60775000D03*
G04 #@! TD*
G04 #@! TO.P,K11,2*
G04 #@! TO.N,Net-(D11-Pad2)*
X252412000Y-60775000D03*
G04 #@! TO.P,K11,1*
G04 #@! TO.N,ColA*
X257412000Y-62875000D03*
D15*
G04 #@! TO.P,K11,2*
G04 #@! TO.N,Net-(D11-Pad2)*
X249912000Y-62675000D03*
X249256995Y-63404996D03*
D16*
G04 #@! TD*
G04 #@! TO.N,Net-(D11-Pad2)*
G04 #@! TO.C,K11*
X248602000Y-64135000D02*
X249911990Y-62674992D01*
D15*
G04 #@! TO.P,K11,1*
G04 #@! TO.N,ColA*
X254952000Y-61595000D03*
X254931771Y-61884984D03*
D16*
G04 #@! TD*
G04 #@! TO.N,ColA*
G04 #@! TO.C,K11*
X254912000Y-62175000D02*
X254951542Y-61594968D01*
D13*
G04 #@! TO.P,K12,2*
G04 #@! TO.N,Net-(D12-Pad2)*
X271462000Y-60775000D03*
G04 #@! TO.P,K12,1*
G04 #@! TO.N,ColB*
X276462000Y-62875000D03*
D15*
G04 #@! TO.P,K12,2*
G04 #@! TO.N,Net-(D12-Pad2)*
X268962000Y-62675000D03*
X268306995Y-63404996D03*
D16*
G04 #@! TD*
G04 #@! TO.N,Net-(D12-Pad2)*
G04 #@! TO.C,K12*
X267652000Y-64135000D02*
X268961990Y-62674992D01*
D15*
G04 #@! TO.P,K12,1*
G04 #@! TO.N,ColB*
X274002000Y-61595000D03*
X273981771Y-61884984D03*
D16*
G04 #@! TD*
G04 #@! TO.N,ColB*
G04 #@! TO.C,K12*
X273962000Y-62175000D02*
X274001542Y-61594968D01*
D13*
G04 #@! TO.P,K14,2*
G04 #@! TO.N,Net-(D14-Pad2)*
X61912500Y-79825000D03*
G04 #@! TO.P,K14,1*
G04 #@! TO.N,ColA*
X66912500Y-81925000D03*
D15*
G04 #@! TO.P,K14,2*
G04 #@! TO.N,Net-(D14-Pad2)*
X59412500Y-81725000D03*
X58757495Y-82454996D03*
D16*
G04 #@! TD*
G04 #@! TO.N,Net-(D14-Pad2)*
G04 #@! TO.C,K14*
X58102500Y-83185000D02*
X59412490Y-81724992D01*
D15*
G04 #@! TO.P,K14,1*
G04 #@! TO.N,ColA*
X64452500Y-80645000D03*
X64432271Y-80934984D03*
D16*
G04 #@! TD*
G04 #@! TO.N,ColA*
G04 #@! TO.C,K14*
X64412500Y-81225000D02*
X64452042Y-80644968D01*
D13*
G04 #@! TO.P,K15,2*
G04 #@! TO.N,Net-(D15-Pad2)*
X80962500Y-79825000D03*
G04 #@! TO.P,K15,1*
G04 #@! TO.N,ColB*
X85962500Y-81925000D03*
D15*
G04 #@! TO.P,K15,2*
G04 #@! TO.N,Net-(D15-Pad2)*
X78462500Y-81725000D03*
X77807495Y-82454996D03*
D16*
G04 #@! TD*
G04 #@! TO.N,Net-(D15-Pad2)*
G04 #@! TO.C,K15*
X77152500Y-83185000D02*
X78462490Y-81724992D01*
D15*
G04 #@! TO.P,K15,1*
G04 #@! TO.N,ColB*
X83502500Y-80645000D03*
X83482271Y-80934984D03*
D16*
G04 #@! TD*
G04 #@! TO.N,ColB*
G04 #@! TO.C,K15*
X83462500Y-81225000D02*
X83502042Y-80644968D01*
D13*
G04 #@! TO.P,K16,2*
G04 #@! TO.N,Net-(D16-Pad2)*
X100012000Y-79825000D03*
G04 #@! TO.P,K16,1*
G04 #@! TO.N,ColC*
X105012000Y-81925000D03*
D15*
G04 #@! TO.P,K16,2*
G04 #@! TO.N,Net-(D16-Pad2)*
X97512000Y-81725000D03*
X96856995Y-82454996D03*
D16*
G04 #@! TD*
G04 #@! TO.N,Net-(D16-Pad2)*
G04 #@! TO.C,K16*
X96202000Y-83185000D02*
X97511990Y-81724992D01*
D15*
G04 #@! TO.P,K16,1*
G04 #@! TO.N,ColC*
X102552000Y-80645000D03*
X102531771Y-80934984D03*
D16*
G04 #@! TD*
G04 #@! TO.N,ColC*
G04 #@! TO.C,K16*
X102512000Y-81225000D02*
X102551542Y-80644968D01*
D13*
G04 #@! TO.P,K17,2*
G04 #@! TO.N,Net-(D17-Pad2)*
X119062000Y-79825000D03*
G04 #@! TO.P,K17,1*
G04 #@! TO.N,ColD*
X124062000Y-81925000D03*
D15*
G04 #@! TO.P,K17,2*
G04 #@! TO.N,Net-(D17-Pad2)*
X116562000Y-81725000D03*
X115906995Y-82454996D03*
D16*
G04 #@! TD*
G04 #@! TO.N,Net-(D17-Pad2)*
G04 #@! TO.C,K17*
X115252000Y-83185000D02*
X116561990Y-81724992D01*
D15*
G04 #@! TO.P,K17,1*
G04 #@! TO.N,ColD*
X121602000Y-80645000D03*
X121581771Y-80934984D03*
D16*
G04 #@! TD*
G04 #@! TO.N,ColD*
G04 #@! TO.C,K17*
X121562000Y-81225000D02*
X121601542Y-80644968D01*
D13*
G04 #@! TO.P,K18,2*
G04 #@! TO.N,Net-(D18-Pad2)*
X138112000Y-79825000D03*
G04 #@! TO.P,K18,1*
G04 #@! TO.N,ColE*
X143112000Y-81925000D03*
D15*
G04 #@! TO.P,K18,2*
G04 #@! TO.N,Net-(D18-Pad2)*
X135612000Y-81725000D03*
X134956995Y-82454996D03*
D16*
G04 #@! TD*
G04 #@! TO.N,Net-(D18-Pad2)*
G04 #@! TO.C,K18*
X134302000Y-83185000D02*
X135611990Y-81724992D01*
D15*
G04 #@! TO.P,K18,1*
G04 #@! TO.N,ColE*
X140652000Y-80645000D03*
X140631771Y-80934984D03*
D16*
G04 #@! TD*
G04 #@! TO.N,ColE*
G04 #@! TO.C,K18*
X140612000Y-81225000D02*
X140651542Y-80644968D01*
D13*
G04 #@! TO.P,K19,2*
G04 #@! TO.N,Net-(D19-Pad2)*
X157162000Y-79825000D03*
G04 #@! TO.P,K19,1*
G04 #@! TO.N,ColF*
X162162000Y-81925000D03*
D15*
G04 #@! TO.P,K19,2*
G04 #@! TO.N,Net-(D19-Pad2)*
X154662000Y-81725000D03*
X154006995Y-82454996D03*
D16*
G04 #@! TD*
G04 #@! TO.N,Net-(D19-Pad2)*
G04 #@! TO.C,K19*
X153352000Y-83185000D02*
X154661990Y-81724992D01*
D15*
G04 #@! TO.P,K19,1*
G04 #@! TO.N,ColF*
X159702000Y-80645000D03*
X159681771Y-80934984D03*
D16*
G04 #@! TD*
G04 #@! TO.N,ColF*
G04 #@! TO.C,K19*
X159662000Y-81225000D02*
X159701542Y-80644968D01*
D13*
G04 #@! TO.P,K20,2*
G04 #@! TO.N,Net-(D20-Pad2)*
X176212000Y-79825000D03*
G04 #@! TO.P,K20,1*
G04 #@! TO.N,ColG*
X181212000Y-81925000D03*
D15*
G04 #@! TO.P,K20,2*
G04 #@! TO.N,Net-(D20-Pad2)*
X173712000Y-81725000D03*
X173056995Y-82454996D03*
D16*
G04 #@! TD*
G04 #@! TO.N,Net-(D20-Pad2)*
G04 #@! TO.C,K20*
X172402000Y-83185000D02*
X173711990Y-81724992D01*
D15*
G04 #@! TO.P,K20,1*
G04 #@! TO.N,ColG*
X178752000Y-80645000D03*
X178731771Y-80934984D03*
D16*
G04 #@! TD*
G04 #@! TO.N,ColG*
G04 #@! TO.C,K20*
X178712000Y-81225000D02*
X178751542Y-80644968D01*
D13*
G04 #@! TO.P,K21,2*
G04 #@! TO.N,Net-(D21-Pad2)*
X195262000Y-79825000D03*
G04 #@! TO.P,K21,1*
G04 #@! TO.N,ColH*
X200262000Y-81925000D03*
D15*
G04 #@! TO.P,K21,2*
G04 #@! TO.N,Net-(D21-Pad2)*
X192762000Y-81725000D03*
X192106995Y-82454996D03*
D16*
G04 #@! TD*
G04 #@! TO.N,Net-(D21-Pad2)*
G04 #@! TO.C,K21*
X191452000Y-83185000D02*
X192761990Y-81724992D01*
D15*
G04 #@! TO.P,K21,1*
G04 #@! TO.N,ColH*
X197802000Y-80645000D03*
X197781771Y-80934984D03*
D16*
G04 #@! TD*
G04 #@! TO.N,ColH*
G04 #@! TO.C,K21*
X197762000Y-81225000D02*
X197801542Y-80644968D01*
D15*
G04 #@! TO.P,K22,1*
G04 #@! TO.N,ColI*
X216831771Y-80934984D03*
D16*
G04 #@! TD*
G04 #@! TO.N,ColI*
G04 #@! TO.C,K22*
X216812000Y-81225000D02*
X216851542Y-80644968D01*
D15*
G04 #@! TO.P,K22,1*
G04 #@! TO.N,ColI*
X216852000Y-80645000D03*
G04 #@! TO.P,K22,2*
G04 #@! TO.N,Net-(D22-Pad2)*
X211156995Y-82454996D03*
D16*
G04 #@! TD*
G04 #@! TO.N,Net-(D22-Pad2)*
G04 #@! TO.C,K22*
X210502000Y-83185000D02*
X211811990Y-81724992D01*
D15*
G04 #@! TO.P,K22,2*
G04 #@! TO.N,Net-(D22-Pad2)*
X211812000Y-81725000D03*
D13*
G04 #@! TO.P,K22,1*
G04 #@! TO.N,ColI*
X219312000Y-81925000D03*
G04 #@! TO.P,K22,2*
G04 #@! TO.N,Net-(D22-Pad2)*
X214312000Y-79825000D03*
G04 #@! TD*
D15*
G04 #@! TO.P,K23,1*
G04 #@! TO.N,ColJ*
X235881771Y-80934984D03*
D16*
G04 #@! TD*
G04 #@! TO.N,ColJ*
G04 #@! TO.C,K23*
X235862000Y-81225000D02*
X235901542Y-80644968D01*
D15*
G04 #@! TO.P,K23,1*
G04 #@! TO.N,ColJ*
X235902000Y-80645000D03*
G04 #@! TO.P,K23,2*
G04 #@! TO.N,Net-(D23-Pad2)*
X230206995Y-82454996D03*
D16*
G04 #@! TD*
G04 #@! TO.N,Net-(D23-Pad2)*
G04 #@! TO.C,K23*
X229552000Y-83185000D02*
X230861990Y-81724992D01*
D15*
G04 #@! TO.P,K23,2*
G04 #@! TO.N,Net-(D23-Pad2)*
X230862000Y-81725000D03*
D13*
G04 #@! TO.P,K23,1*
G04 #@! TO.N,ColJ*
X238362000Y-81925000D03*
G04 #@! TO.P,K23,2*
G04 #@! TO.N,Net-(D23-Pad2)*
X233362000Y-79825000D03*
G04 #@! TD*
D15*
G04 #@! TO.P,K24,1*
G04 #@! TO.N,ColD*
X254931771Y-80934984D03*
D16*
G04 #@! TD*
G04 #@! TO.N,ColD*
G04 #@! TO.C,K24*
X254912000Y-81225000D02*
X254951542Y-80644968D01*
D15*
G04 #@! TO.P,K24,1*
G04 #@! TO.N,ColD*
X254952000Y-80645000D03*
G04 #@! TO.P,K24,2*
G04 #@! TO.N,Net-(D24-Pad2)*
X249256995Y-82454996D03*
D16*
G04 #@! TD*
G04 #@! TO.N,Net-(D24-Pad2)*
G04 #@! TO.C,K24*
X248602000Y-83185000D02*
X249911990Y-81724992D01*
D15*
G04 #@! TO.P,K24,2*
G04 #@! TO.N,Net-(D24-Pad2)*
X249912000Y-81725000D03*
D13*
G04 #@! TO.P,K24,1*
G04 #@! TO.N,ColD*
X257412000Y-81925000D03*
G04 #@! TO.P,K24,2*
G04 #@! TO.N,Net-(D24-Pad2)*
X252412000Y-79825000D03*
G04 #@! TD*
D15*
G04 #@! TO.P,K25,1*
G04 #@! TO.N,ColE*
X273981771Y-80934984D03*
D16*
G04 #@! TD*
G04 #@! TO.N,ColE*
G04 #@! TO.C,K25*
X273962000Y-81225000D02*
X274001542Y-80644968D01*
D15*
G04 #@! TO.P,K25,1*
G04 #@! TO.N,ColE*
X274002000Y-80645000D03*
G04 #@! TO.P,K25,2*
G04 #@! TO.N,Net-(D25-Pad2)*
X268306995Y-82454996D03*
D16*
G04 #@! TD*
G04 #@! TO.N,Net-(D25-Pad2)*
G04 #@! TO.C,K25*
X267652000Y-83185000D02*
X268961990Y-81724992D01*
D15*
G04 #@! TO.P,K25,2*
G04 #@! TO.N,Net-(D25-Pad2)*
X268962000Y-81725000D03*
D13*
G04 #@! TO.P,K25,1*
G04 #@! TO.N,ColE*
X276462000Y-81925000D03*
G04 #@! TO.P,K25,2*
G04 #@! TO.N,Net-(D25-Pad2)*
X271462000Y-79825000D03*
G04 #@! TD*
D15*
G04 #@! TO.P,K27,1*
G04 #@! TO.N,ColA*
X64432271Y-99984984D03*
D16*
G04 #@! TD*
G04 #@! TO.N,ColA*
G04 #@! TO.C,K27*
X64412500Y-100275000D02*
X64452042Y-99694968D01*
D15*
G04 #@! TO.P,K27,1*
G04 #@! TO.N,ColA*
X64452500Y-99695000D03*
G04 #@! TO.P,K27,2*
G04 #@! TO.N,Net-(D27-Pad2)*
X58757495Y-101504996D03*
D16*
G04 #@! TD*
G04 #@! TO.N,Net-(D27-Pad2)*
G04 #@! TO.C,K27*
X58102500Y-102235000D02*
X59412490Y-100774992D01*
D15*
G04 #@! TO.P,K27,2*
G04 #@! TO.N,Net-(D27-Pad2)*
X59412500Y-100775000D03*
D13*
G04 #@! TO.P,K27,1*
G04 #@! TO.N,ColA*
X66912500Y-100975000D03*
G04 #@! TO.P,K27,2*
G04 #@! TO.N,Net-(D27-Pad2)*
X61912500Y-98875000D03*
G04 #@! TD*
D15*
G04 #@! TO.P,K28,1*
G04 #@! TO.N,ColB*
X83482271Y-99984984D03*
D16*
G04 #@! TD*
G04 #@! TO.N,ColB*
G04 #@! TO.C,K28*
X83462500Y-100275000D02*
X83502042Y-99694968D01*
D15*
G04 #@! TO.P,K28,1*
G04 #@! TO.N,ColB*
X83502500Y-99695000D03*
G04 #@! TO.P,K28,2*
G04 #@! TO.N,Net-(D28-Pad2)*
X77807495Y-101504996D03*
D16*
G04 #@! TD*
G04 #@! TO.N,Net-(D28-Pad2)*
G04 #@! TO.C,K28*
X77152500Y-102235000D02*
X78462490Y-100774992D01*
D15*
G04 #@! TO.P,K28,2*
G04 #@! TO.N,Net-(D28-Pad2)*
X78462500Y-100775000D03*
D13*
G04 #@! TO.P,K28,1*
G04 #@! TO.N,ColB*
X85962500Y-100975000D03*
G04 #@! TO.P,K28,2*
G04 #@! TO.N,Net-(D28-Pad2)*
X80962500Y-98875000D03*
G04 #@! TD*
D15*
G04 #@! TO.P,K29,1*
G04 #@! TO.N,ColC*
X102531771Y-99984984D03*
D16*
G04 #@! TD*
G04 #@! TO.N,ColC*
G04 #@! TO.C,K29*
X102512000Y-100275000D02*
X102551542Y-99694968D01*
D15*
G04 #@! TO.P,K29,1*
G04 #@! TO.N,ColC*
X102552000Y-99695000D03*
G04 #@! TO.P,K29,2*
G04 #@! TO.N,Net-(D29-Pad2)*
X96856995Y-101504996D03*
D16*
G04 #@! TD*
G04 #@! TO.N,Net-(D29-Pad2)*
G04 #@! TO.C,K29*
X96202000Y-102235000D02*
X97511990Y-100774992D01*
D15*
G04 #@! TO.P,K29,2*
G04 #@! TO.N,Net-(D29-Pad2)*
X97512000Y-100775000D03*
D13*
G04 #@! TO.P,K29,1*
G04 #@! TO.N,ColC*
X105012000Y-100975000D03*
G04 #@! TO.P,K29,2*
G04 #@! TO.N,Net-(D29-Pad2)*
X100012000Y-98875000D03*
G04 #@! TD*
D15*
G04 #@! TO.P,K30,1*
G04 #@! TO.N,ColD*
X121581771Y-99984984D03*
D16*
G04 #@! TD*
G04 #@! TO.N,ColD*
G04 #@! TO.C,K30*
X121562000Y-100275000D02*
X121601542Y-99694968D01*
D15*
G04 #@! TO.P,K30,1*
G04 #@! TO.N,ColD*
X121602000Y-99695000D03*
G04 #@! TO.P,K30,2*
G04 #@! TO.N,Net-(D30-Pad2)*
X115906995Y-101504996D03*
D16*
G04 #@! TD*
G04 #@! TO.N,Net-(D30-Pad2)*
G04 #@! TO.C,K30*
X115252000Y-102235000D02*
X116561990Y-100774992D01*
D15*
G04 #@! TO.P,K30,2*
G04 #@! TO.N,Net-(D30-Pad2)*
X116562000Y-100775000D03*
D13*
G04 #@! TO.P,K30,1*
G04 #@! TO.N,ColD*
X124062000Y-100975000D03*
G04 #@! TO.P,K30,2*
G04 #@! TO.N,Net-(D30-Pad2)*
X119062000Y-98875000D03*
G04 #@! TD*
D15*
G04 #@! TO.P,K31,1*
G04 #@! TO.N,ColE*
X140631771Y-99984984D03*
D16*
G04 #@! TD*
G04 #@! TO.N,ColE*
G04 #@! TO.C,K31*
X140612000Y-100275000D02*
X140651542Y-99694968D01*
D15*
G04 #@! TO.P,K31,1*
G04 #@! TO.N,ColE*
X140652000Y-99695000D03*
G04 #@! TO.P,K31,2*
G04 #@! TO.N,Net-(D31-Pad2)*
X134956995Y-101504996D03*
D16*
G04 #@! TD*
G04 #@! TO.N,Net-(D31-Pad2)*
G04 #@! TO.C,K31*
X134302000Y-102235000D02*
X135611990Y-100774992D01*
D15*
G04 #@! TO.P,K31,2*
G04 #@! TO.N,Net-(D31-Pad2)*
X135612000Y-100775000D03*
D13*
G04 #@! TO.P,K31,1*
G04 #@! TO.N,ColE*
X143112000Y-100975000D03*
G04 #@! TO.P,K31,2*
G04 #@! TO.N,Net-(D31-Pad2)*
X138112000Y-98875000D03*
G04 #@! TD*
G04 #@! TO.P,K32,2*
G04 #@! TO.N,Net-(D32-Pad2)*
X157162000Y-98875000D03*
G04 #@! TO.P,K32,1*
G04 #@! TO.N,ColF*
X162162000Y-100975000D03*
D15*
G04 #@! TO.P,K32,2*
G04 #@! TO.N,Net-(D32-Pad2)*
X154662000Y-100775000D03*
X154006995Y-101504996D03*
D16*
G04 #@! TD*
G04 #@! TO.N,Net-(D32-Pad2)*
G04 #@! TO.C,K32*
X153352000Y-102235000D02*
X154661990Y-100774992D01*
D15*
G04 #@! TO.P,K32,1*
G04 #@! TO.N,ColF*
X159702000Y-99695000D03*
X159681771Y-99984984D03*
D16*
G04 #@! TD*
G04 #@! TO.N,ColF*
G04 #@! TO.C,K32*
X159662000Y-100275000D02*
X159701542Y-99694968D01*
D15*
G04 #@! TO.P,K33,1*
G04 #@! TO.N,ColG*
X178731771Y-99984984D03*
D16*
G04 #@! TD*
G04 #@! TO.N,ColG*
G04 #@! TO.C,K33*
X178712000Y-100275000D02*
X178751542Y-99694968D01*
D15*
G04 #@! TO.P,K33,1*
G04 #@! TO.N,ColG*
X178752000Y-99695000D03*
G04 #@! TO.P,K33,2*
G04 #@! TO.N,Net-(D33-Pad2)*
X173056995Y-101504996D03*
D16*
G04 #@! TD*
G04 #@! TO.N,Net-(D33-Pad2)*
G04 #@! TO.C,K33*
X172402000Y-102235000D02*
X173711990Y-100774992D01*
D15*
G04 #@! TO.P,K33,2*
G04 #@! TO.N,Net-(D33-Pad2)*
X173712000Y-100775000D03*
D13*
G04 #@! TO.P,K33,1*
G04 #@! TO.N,ColG*
X181212000Y-100975000D03*
G04 #@! TO.P,K33,2*
G04 #@! TO.N,Net-(D33-Pad2)*
X176212000Y-98875000D03*
G04 #@! TD*
D15*
G04 #@! TO.P,K34,1*
G04 #@! TO.N,ColH*
X197781771Y-99984984D03*
D16*
G04 #@! TD*
G04 #@! TO.N,ColH*
G04 #@! TO.C,K34*
X197762000Y-100275000D02*
X197801542Y-99694968D01*
D15*
G04 #@! TO.P,K34,1*
G04 #@! TO.N,ColH*
X197802000Y-99695000D03*
G04 #@! TO.P,K34,2*
G04 #@! TO.N,Net-(D34-Pad2)*
X192106995Y-101504996D03*
D16*
G04 #@! TD*
G04 #@! TO.N,Net-(D34-Pad2)*
G04 #@! TO.C,K34*
X191452000Y-102235000D02*
X192761990Y-100774992D01*
D15*
G04 #@! TO.P,K34,2*
G04 #@! TO.N,Net-(D34-Pad2)*
X192762000Y-100775000D03*
D13*
G04 #@! TO.P,K34,1*
G04 #@! TO.N,ColH*
X200262000Y-100975000D03*
G04 #@! TO.P,K34,2*
G04 #@! TO.N,Net-(D34-Pad2)*
X195262000Y-98875000D03*
G04 #@! TD*
D15*
G04 #@! TO.P,K35,1*
G04 #@! TO.N,ColI*
X216831771Y-99984984D03*
D16*
G04 #@! TD*
G04 #@! TO.N,ColI*
G04 #@! TO.C,K35*
X216812000Y-100275000D02*
X216851542Y-99694968D01*
D15*
G04 #@! TO.P,K35,1*
G04 #@! TO.N,ColI*
X216852000Y-99695000D03*
G04 #@! TO.P,K35,2*
G04 #@! TO.N,Net-(D35-Pad2)*
X211156995Y-101504996D03*
D16*
G04 #@! TD*
G04 #@! TO.N,Net-(D35-Pad2)*
G04 #@! TO.C,K35*
X210502000Y-102235000D02*
X211811990Y-100774992D01*
D15*
G04 #@! TO.P,K35,2*
G04 #@! TO.N,Net-(D35-Pad2)*
X211812000Y-100775000D03*
D13*
G04 #@! TO.P,K35,1*
G04 #@! TO.N,ColI*
X219312000Y-100975000D03*
G04 #@! TO.P,K35,2*
G04 #@! TO.N,Net-(D35-Pad2)*
X214312000Y-98875000D03*
G04 #@! TD*
D15*
G04 #@! TO.P,K36,1*
G04 #@! TO.N,ColJ*
X235881771Y-99984984D03*
D16*
G04 #@! TD*
G04 #@! TO.N,ColJ*
G04 #@! TO.C,K36*
X235862000Y-100275000D02*
X235901542Y-99694968D01*
D15*
G04 #@! TO.P,K36,1*
G04 #@! TO.N,ColJ*
X235902000Y-99695000D03*
G04 #@! TO.P,K36,2*
G04 #@! TO.N,Net-(D36-Pad2)*
X230206995Y-101504996D03*
D16*
G04 #@! TD*
G04 #@! TO.N,Net-(D36-Pad2)*
G04 #@! TO.C,K36*
X229552000Y-102235000D02*
X230861990Y-100774992D01*
D15*
G04 #@! TO.P,K36,2*
G04 #@! TO.N,Net-(D36-Pad2)*
X230862000Y-100775000D03*
D13*
G04 #@! TO.P,K36,1*
G04 #@! TO.N,ColJ*
X238362000Y-100975000D03*
G04 #@! TO.P,K36,2*
G04 #@! TO.N,Net-(D36-Pad2)*
X233362000Y-98875000D03*
G04 #@! TD*
D15*
G04 #@! TO.P,K37,1*
G04 #@! TO.N,ColG*
X254931771Y-99984984D03*
D16*
G04 #@! TD*
G04 #@! TO.N,ColG*
G04 #@! TO.C,K37*
X254912000Y-100275000D02*
X254951542Y-99694968D01*
D15*
G04 #@! TO.P,K37,1*
G04 #@! TO.N,ColG*
X254952000Y-99695000D03*
G04 #@! TO.P,K37,2*
G04 #@! TO.N,Net-(D37-Pad2)*
X249256995Y-101504996D03*
D16*
G04 #@! TD*
G04 #@! TO.N,Net-(D37-Pad2)*
G04 #@! TO.C,K37*
X248602000Y-102235000D02*
X249911990Y-100774992D01*
D15*
G04 #@! TO.P,K37,2*
G04 #@! TO.N,Net-(D37-Pad2)*
X249912000Y-100775000D03*
D13*
G04 #@! TO.P,K37,1*
G04 #@! TO.N,ColG*
X257412000Y-100975000D03*
G04 #@! TO.P,K37,2*
G04 #@! TO.N,Net-(D37-Pad2)*
X252412000Y-98875000D03*
G04 #@! TD*
D15*
G04 #@! TO.P,K_1.25u1,1*
G04 #@! TO.N,ColH*
X276419771Y-100009984D03*
D16*
G04 #@! TD*
G04 #@! TO.N,ColH*
G04 #@! TO.C,K_1.25u1*
X276400000Y-100300000D02*
X276439542Y-99719968D01*
D15*
G04 #@! TO.P,K_1.25u1,1*
G04 #@! TO.N,ColH*
X276440000Y-99720000D03*
G04 #@! TO.P,K_1.25u1,2*
G04 #@! TO.N,Net-(D_1.25u1-Pad2)*
X270744995Y-101529996D03*
D16*
G04 #@! TD*
G04 #@! TO.N,Net-(D_1.25u1-Pad2)*
G04 #@! TO.C,K_1.25u1*
X270090000Y-102260000D02*
X271399990Y-100799992D01*
D15*
G04 #@! TO.P,K_1.25u1,2*
G04 #@! TO.N,Net-(D_1.25u1-Pad2)*
X271400000Y-100800000D03*
D13*
G04 #@! TO.P,K_1.25u1,1*
G04 #@! TO.N,ColH*
X278900000Y-101000000D03*
G04 #@! TO.P,K_1.25u1,2*
G04 #@! TO.N,Net-(D_1.25u1-Pad2)*
X273900000Y-98900000D03*
G04 #@! TD*
D15*
G04 #@! TO.P,K_BCKSPC1,1*
G04 #@! TO.N,ColC*
X297794771Y-61884984D03*
D16*
G04 #@! TD*
G04 #@! TO.N,ColC*
G04 #@! TO.C,K_BCKSPC1*
X297775000Y-62175000D02*
X297814542Y-61594968D01*
D15*
G04 #@! TO.P,K_BCKSPC1,1*
G04 #@! TO.N,ColC*
X297815000Y-61595000D03*
G04 #@! TO.P,K_BCKSPC1,2*
G04 #@! TO.N,Net-(D13-Pad2)*
X292119995Y-63404996D03*
D16*
G04 #@! TD*
G04 #@! TO.N,Net-(D13-Pad2)*
G04 #@! TO.C,K_BCKSPC1*
X291465000Y-64135000D02*
X292774990Y-62674992D01*
D15*
G04 #@! TO.P,K_BCKSPC1,2*
G04 #@! TO.N,Net-(D13-Pad2)*
X292775000Y-62675000D03*
D13*
G04 #@! TO.P,K_BCKSPC1,1*
G04 #@! TO.N,ColC*
X300275000Y-62875000D03*
G04 #@! TO.P,K_BCKSPC1,2*
G04 #@! TO.N,Net-(D13-Pad2)*
X295275000Y-60775000D03*
G04 #@! TD*
D11*
G04 #@! TO.P,D_ISOENTR1,1*
G04 #@! TO.N,RowD*
X283464000Y-88482000D03*
D10*
G04 #@! TO.P,D_ISOENTR1,2*
G04 #@! TO.N,Net-(D_ISOENTR1-Pad2)*
X283464000Y-80682000D03*
G04 #@! TD*
D17*
G04 #@! TO.P,LED_DATA1,1*
G04 #@! TO.N,RGB*
X53700000Y-96800000D03*
G04 #@! TD*
G04 #@! TO.P,LED_GND1,1*
G04 #@! TO.N,GND*
X53700000Y-99500000D03*
G04 #@! TD*
G04 #@! TO.P,LED_PWR1,1*
G04 #@! TO.N,RGB_PWR*
X53600000Y-93400000D03*
G04 #@! TD*
D19*
G04 #@! TO.N,ColH*
X197866100Y-88900000D03*
G04 #@! TO.N,GND*
X254188400Y-58471200D03*
G04 #@! TO.N,RGB_PWR*
X111486300Y-62927800D03*
G04 #@! TO.N,DP1*
X250687900Y-60512400D03*
G04 #@! TD*
D20*
G04 #@! TO.N,Net-(D4-Pad2)*
X119062000Y-60775000D02*
X119695000Y-60142000D01*
X119695000Y-60142000D02*
X127542000Y-60142000D01*
X127542000Y-60142000D02*
X130048000Y-62648000D01*
X116562000Y-62675000D02*
X117162000Y-62675000D01*
X117162000Y-62675000D02*
X119062000Y-60775000D01*
G04 #@! TO.N,Net-(D12-Pad2)*
X267652000Y-64135000D02*
X265088200Y-61834700D01*
X261620000Y-62648000D02*
X264274900Y-62648000D01*
X264274900Y-62648000D02*
X265088200Y-61834700D01*
G04 #@! TO.N,Net-(D14-Pad2)*
X61129000Y-80608500D02*
X61912500Y-79825000D01*
X59412500Y-81725000D02*
X60012500Y-81725000D01*
X60012500Y-81725000D02*
X61129000Y-80608500D01*
X61129000Y-80608500D02*
X63785500Y-83265100D01*
X63785500Y-83265100D02*
X69349900Y-83265100D01*
X69349900Y-83265100D02*
X70104000Y-82511000D01*
X59575100Y-82561300D02*
X59412500Y-82398700D01*
X59412500Y-82398700D02*
X59412500Y-81725000D01*
X58102500Y-83035000D02*
X59412500Y-81725000D01*
X58102500Y-83185000D02*
X58102500Y-83035000D01*
G04 #@! TO.N,Net-(D16-Pad2)*
X100012000Y-79825000D02*
X101750400Y-78086600D01*
X101750400Y-78086600D02*
X108117000Y-78086600D01*
X108117000Y-78086600D02*
X109954400Y-79924000D01*
X109954400Y-79924000D02*
X116835400Y-79924000D01*
X116835400Y-79924000D02*
X120194900Y-83283500D01*
X120194900Y-83283500D02*
X124657200Y-83283500D01*
X124657200Y-83283500D02*
X127508000Y-80432700D01*
X127508000Y-80432700D02*
X127508000Y-79920000D01*
X96202000Y-83035000D02*
X97512000Y-81725000D01*
X96202000Y-83185000D02*
X96202000Y-83035000D01*
G04 #@! TO.N,Net-(D18-Pad2)*
X135612000Y-81725000D02*
X136212000Y-81725000D01*
X136212000Y-81725000D02*
X138112000Y-79825000D01*
X138112000Y-79825000D02*
X138770500Y-79166500D01*
X138770500Y-79166500D02*
X146617500Y-79166500D01*
X146617500Y-79166500D02*
X146812000Y-79361000D01*
G04 #@! TO.N,Net-(D25-Pad2)*
X267652000Y-83185000D02*
X265088200Y-80884700D01*
X265088200Y-80884700D02*
X265088100Y-80884800D01*
X265088100Y-80884800D02*
X262127800Y-80884800D01*
X262127800Y-80884800D02*
X261874000Y-80631000D01*
G04 #@! TO.N,Net-(D28-Pad2)*
X77152500Y-102235000D02*
X74588700Y-99934700D01*
X74588700Y-99934700D02*
X74123400Y-100400000D01*
X74123400Y-100400000D02*
X72800000Y-100400000D01*
G04 #@! TO.N,Net-(D29-Pad2)*
X97512000Y-100775000D02*
X97512000Y-101448700D01*
X97512000Y-101448700D02*
X97674600Y-101611300D01*
X100012000Y-98875000D02*
X100646800Y-98240200D01*
X100646800Y-98240200D02*
X116081700Y-98240200D01*
X116081700Y-98240200D02*
X120154200Y-102312700D01*
X120154200Y-102312700D02*
X125687300Y-102312700D01*
X125687300Y-102312700D02*
X127300000Y-100700000D01*
X96202000Y-102085000D02*
X97512000Y-100775000D01*
X96202000Y-102235000D02*
X96202000Y-102085000D01*
G04 #@! TO.N,Net-(D30-Pad2)*
X119062000Y-98875000D02*
X119725700Y-98211300D01*
X119725700Y-98211300D02*
X127311300Y-98211300D01*
X127311300Y-98211300D02*
X129800000Y-100700000D01*
G04 #@! TO.N,Net-(D31-Pad2)*
X138112000Y-98875000D02*
X138758800Y-98228200D01*
X138758800Y-98228200D02*
X143168200Y-98228200D01*
X143168200Y-98228200D02*
X146420000Y-101480000D01*
G04 #@! TO.N,Net-(D34-Pad2)*
X195262000Y-98875000D02*
X196121000Y-98016000D01*
X196121000Y-98016000D02*
X204786000Y-98016000D01*
G04 #@! TO.N,Net-(D35-Pad2)*
X214312000Y-98875000D02*
X214952900Y-98234100D01*
X214952900Y-98234100D02*
X221858100Y-98234100D01*
X221858100Y-98234100D02*
X224282000Y-100658000D01*
G04 #@! TO.N,Net-(D36-Pad2)*
X233362000Y-98875000D02*
X233994900Y-98242100D01*
X233994900Y-98242100D02*
X241080100Y-98242100D01*
X241080100Y-98242100D02*
X243078000Y-100240000D01*
G04 #@! TO.N,RowA*
X126382700Y-70397000D02*
X125483100Y-69497400D01*
X125483100Y-69497400D02*
X112955100Y-69497400D01*
X112955100Y-69497400D02*
X112504800Y-69947700D01*
X112504800Y-69947700D02*
X108565000Y-69947700D01*
X108565000Y-69947700D02*
X108112700Y-70400000D01*
X108112700Y-70400000D02*
X98224900Y-70400000D01*
X98224900Y-70400000D02*
X96787600Y-71837300D01*
X96787600Y-71837300D02*
X92547300Y-71837300D01*
X92547300Y-71837300D02*
X92380000Y-71670000D01*
X127508000Y-70397000D02*
X126382700Y-70397000D01*
X128922700Y-70448000D02*
X128871700Y-70397000D01*
X128871700Y-70397000D02*
X127508000Y-70397000D01*
X92380000Y-71670000D02*
X91660000Y-72390000D01*
X91660000Y-72390000D02*
X91178300Y-72390000D01*
X91178300Y-72390000D02*
X75203300Y-72390000D01*
X75203300Y-72390000D02*
X73769300Y-70956000D01*
X91178300Y-72390000D02*
X91178300Y-75064700D01*
X91178300Y-75064700D02*
X90043000Y-76200000D01*
X72644000Y-70956000D02*
X73769300Y-70956000D01*
X204724000Y-70448000D02*
X205849300Y-70448000D01*
X223520000Y-70448000D02*
X222394700Y-70448000D01*
X222394700Y-70448000D02*
X221886100Y-69939400D01*
X221886100Y-69939400D02*
X206357900Y-69939400D01*
X206357900Y-69939400D02*
X205849300Y-70448000D01*
X185420000Y-70448000D02*
X186545300Y-70448000D01*
X204724000Y-70448000D02*
X203598700Y-70448000D01*
X203598700Y-70448000D02*
X203054300Y-69903600D01*
X203054300Y-69903600D02*
X187089700Y-69903600D01*
X187089700Y-69903600D02*
X186545300Y-70448000D01*
X166624000Y-70448000D02*
X167749300Y-70448000D01*
X185420000Y-70448000D02*
X184294700Y-70448000D01*
X184294700Y-70448000D02*
X183750300Y-69903600D01*
X183750300Y-69903600D02*
X168293700Y-69903600D01*
X168293700Y-69903600D02*
X167749300Y-70448000D01*
X130048000Y-70448000D02*
X131173300Y-70448000D01*
X146558000Y-70702000D02*
X145432700Y-70702000D01*
X145432700Y-70702000D02*
X144670600Y-69939900D01*
X144670600Y-69939900D02*
X131681400Y-69939900D01*
X131681400Y-69939900D02*
X131173300Y-70448000D01*
X149098000Y-70702000D02*
X146558000Y-70702000D01*
X149098000Y-70702000D02*
X150223300Y-70702000D01*
X166624000Y-70448000D02*
X165498700Y-70448000D01*
X165498700Y-70448000D02*
X164987300Y-69936600D01*
X164987300Y-69936600D02*
X150988700Y-69936600D01*
X150988700Y-69936600D02*
X150223300Y-70702000D01*
X130048000Y-70448000D02*
X128922700Y-70448000D01*
G04 #@! TO.N,RowB*
X93270900Y-87733600D02*
X93651400Y-88114100D01*
X93651400Y-88114100D02*
X108665600Y-88114100D01*
X108665600Y-88114100D02*
X109046100Y-87733600D01*
X109046100Y-87733600D02*
X111394500Y-87733600D01*
X111394500Y-87733600D02*
X111844800Y-88183900D01*
X111844800Y-88183900D02*
X115792300Y-88183900D01*
X115792300Y-88183900D02*
X116573700Y-88965300D01*
X116573700Y-88965300D02*
X124856700Y-88965300D01*
X124856700Y-88965300D02*
X126102000Y-87720000D01*
X126102000Y-87720000D02*
X126382700Y-87720000D01*
X73769300Y-90260000D02*
X75985000Y-88044300D01*
X75985000Y-88044300D02*
X88549500Y-88044300D01*
X88549500Y-88044300D02*
X88860200Y-87733600D01*
X88860200Y-87733600D02*
X93270900Y-87733600D01*
X93270900Y-87733600D02*
X93270900Y-85241300D01*
X93270900Y-85241300D02*
X93619600Y-84892600D01*
X93619600Y-84892600D02*
X93619600Y-83888700D01*
X93619600Y-83888700D02*
X92830900Y-83100000D01*
X92830900Y-83100000D02*
X91924400Y-83100000D01*
X91924400Y-83100000D02*
X91178300Y-82353900D01*
X91178300Y-82353900D02*
X91178300Y-79875300D01*
X91178300Y-79875300D02*
X90043000Y-78740000D01*
X131173300Y-87736000D02*
X131943800Y-88506500D01*
X131943800Y-88506500D02*
X144341200Y-88506500D01*
X144341200Y-88506500D02*
X145686700Y-87161000D01*
X150477300Y-87161000D02*
X151856000Y-88539700D01*
X151856000Y-88539700D02*
X164984000Y-88539700D01*
X164984000Y-88539700D02*
X166006700Y-87517000D01*
X130048000Y-87736000D02*
X131173300Y-87736000D01*
X130048000Y-87736000D02*
X128649300Y-87736000D01*
X128649300Y-87736000D02*
X128633300Y-87720000D01*
X146812000Y-87161000D02*
X145686700Y-87161000D01*
X149352000Y-87161000D02*
X146812000Y-87161000D01*
X185928000Y-87626000D02*
X187053300Y-87626000D01*
X204978000Y-87720000D02*
X203852700Y-87720000D01*
X203852700Y-87720000D02*
X203528400Y-88044300D01*
X203528400Y-88044300D02*
X187471600Y-88044300D01*
X187471600Y-88044300D02*
X187053300Y-87626000D01*
X205540700Y-87720000D02*
X204978000Y-87720000D01*
X205540700Y-87720000D02*
X206103300Y-87720000D01*
X224028000Y-87880000D02*
X222902700Y-87880000D01*
X222902700Y-87880000D02*
X222738400Y-88044300D01*
X222738400Y-88044300D02*
X206427600Y-88044300D01*
X206427600Y-88044300D02*
X206103300Y-87720000D01*
X72644000Y-90260000D02*
X73769300Y-90260000D01*
X72644000Y-90260000D02*
X71280300Y-90260000D01*
X71280300Y-90260000D02*
X71229300Y-90311000D01*
X127508000Y-87720000D02*
X126382700Y-87720000D01*
X70104000Y-90311000D02*
X71229300Y-90311000D01*
X149352000Y-87161000D02*
X150477300Y-87161000D01*
X167132000Y-87517000D02*
X166006700Y-87517000D01*
X127508000Y-87720000D02*
X128633300Y-87720000D01*
X185928000Y-87626000D02*
X184802700Y-87626000D01*
X167132000Y-87517000D02*
X168257300Y-87517000D01*
X168257300Y-87517000D02*
X168830500Y-88090200D01*
X168830500Y-88090200D02*
X184338500Y-88090200D01*
X184338500Y-88090200D02*
X184802700Y-87626000D01*
G04 #@! TO.N,RowC*
X148930000Y-109300000D02*
X150055300Y-109300000D01*
X185740000Y-108642000D02*
X174490500Y-108642000D01*
X174490500Y-108642000D02*
X171129000Y-112003500D01*
X171129000Y-112003500D02*
X161110500Y-112003500D01*
X161110500Y-112003500D02*
X159007500Y-109900500D01*
X159007500Y-109900500D02*
X150655800Y-109900500D01*
X150655800Y-109900500D02*
X150055300Y-109300000D01*
X72800000Y-108200000D02*
X73925300Y-108200000D01*
X127300000Y-108500000D02*
X126174700Y-108500000D01*
X126174700Y-108500000D02*
X124770200Y-109904500D01*
X124770200Y-109904500D02*
X75348500Y-109904500D01*
X75348500Y-109904500D02*
X73925300Y-108481300D01*
X73925300Y-108481300D02*
X73925300Y-108200000D01*
X129800000Y-108500000D02*
X127300000Y-108500000D01*
X70300000Y-108300000D02*
X71425300Y-108300000D01*
X72800000Y-108200000D02*
X71525300Y-108200000D01*
X71525300Y-108200000D02*
X71425300Y-108300000D01*
X146420000Y-109280000D02*
X147545300Y-109280000D01*
X148930000Y-109300000D02*
X147565300Y-109300000D01*
X147565300Y-109300000D02*
X147545300Y-109280000D01*
X224282000Y-108458000D02*
X225407300Y-108458000D01*
X243078000Y-108040000D02*
X225825300Y-108040000D01*
X225825300Y-108040000D02*
X225407300Y-108458000D01*
G04 #@! TO.N,ColA*
X92380000Y-81830000D02*
X101270000Y-72940000D01*
X101270000Y-72940000D02*
X108416300Y-72940000D01*
X108416300Y-72940000D02*
X108840100Y-72516200D01*
X108840100Y-72516200D02*
X237068700Y-72516200D01*
X237068700Y-72516200D02*
X240708400Y-68876500D01*
X240708400Y-68876500D02*
X246857300Y-68876500D01*
X246857300Y-68876500D02*
X253558800Y-62175000D01*
X253558800Y-62175000D02*
X254912000Y-62175000D01*
X70167500Y-93980000D02*
X68978600Y-92791100D01*
X68978600Y-92791100D02*
X68978600Y-88635800D01*
X68978600Y-88635800D02*
X71243000Y-86371400D01*
X71243000Y-86371400D02*
X71243000Y-82046400D01*
X71243000Y-82046400D02*
X70536900Y-81340300D01*
X70536900Y-81340300D02*
X67497200Y-81340300D01*
X67497200Y-81340300D02*
X66912500Y-81925000D01*
X70167500Y-93980000D02*
X90043000Y-93980000D01*
X64452500Y-99695000D02*
X70167500Y-93980000D01*
X64412500Y-100275000D02*
X65886000Y-100375400D01*
X65886000Y-100375400D02*
X66312900Y-100375400D01*
X66312900Y-100375400D02*
X66912500Y-100975000D01*
X254952000Y-61595000D02*
X254952000Y-62135000D01*
X254952000Y-62135000D02*
X254912000Y-62175000D01*
G04 #@! TO.N,ColB*
X85962500Y-81925000D02*
X86442900Y-82405400D01*
X86442900Y-82405400D02*
X90415400Y-82405400D01*
X90415400Y-82405400D02*
X92380000Y-84370000D01*
X85962500Y-100975000D02*
X87743000Y-100975000D01*
X87743000Y-100975000D02*
X92198000Y-96520000D01*
X92198000Y-96520000D02*
X110363000Y-96520000D01*
G04 #@! TO.N,ColC*
X105012000Y-62875000D02*
X105047600Y-62839400D01*
X105047600Y-62839400D02*
X110372200Y-62839400D01*
X110372200Y-62839400D02*
X111185900Y-63653100D01*
X111185900Y-63653100D02*
X111786800Y-63653100D01*
X111786800Y-63653100D02*
X112211600Y-63228300D01*
X112211600Y-63228300D02*
X112211600Y-62317300D01*
X112211600Y-62317300D02*
X115549800Y-58979100D01*
X115549800Y-58979100D02*
X253390900Y-58979100D01*
X253390900Y-58979100D02*
X253826000Y-59414200D01*
X253826000Y-59414200D02*
X291686900Y-59414200D01*
X291686900Y-59414200D02*
X294447700Y-62175000D01*
X294447700Y-62175000D02*
X297775000Y-62175000D01*
X110363000Y-81280000D02*
X109643000Y-80560000D01*
X109643000Y-80560000D02*
X106377000Y-80560000D01*
X106377000Y-80560000D02*
X105012000Y-81925000D01*
G04 #@! TO.N,ColD*
X121562000Y-62175000D02*
X120215200Y-62175000D01*
X120215200Y-62175000D02*
X114511100Y-67879100D01*
X114511100Y-67879100D02*
X112250200Y-67879100D01*
X112250200Y-67879100D02*
X111797100Y-67426000D01*
X111797100Y-67426000D02*
X109324000Y-67426000D01*
X109324000Y-67426000D02*
X107620000Y-69130000D01*
X124062000Y-81925000D02*
X124062000Y-81757700D01*
X124062000Y-81757700D02*
X128052300Y-77767400D01*
X128052300Y-77767400D02*
X248127100Y-77767400D01*
X248127100Y-77767400D02*
X251584700Y-81225000D01*
X251584700Y-81225000D02*
X254912000Y-81225000D01*
X121602000Y-80645000D02*
X121602000Y-80457200D01*
X121602000Y-80457200D02*
X119619600Y-78474800D01*
X119619600Y-78474800D02*
X110628200Y-78474800D01*
X110628200Y-78474800D02*
X110363000Y-78740000D01*
G04 #@! TO.N,ColE*
X143112000Y-62875000D02*
X146557400Y-59429600D01*
X146557400Y-59429600D02*
X253204500Y-59429600D01*
X253204500Y-59429600D02*
X253870900Y-60096000D01*
X253870900Y-60096000D02*
X256572400Y-60096000D01*
X256572400Y-60096000D02*
X262745400Y-66269000D01*
X262745400Y-66269000D02*
X262745400Y-68687000D01*
X262745400Y-68687000D02*
X274002000Y-79943600D01*
X274002000Y-79943600D02*
X274002000Y-80645000D01*
X142085500Y-62275400D02*
X142512400Y-62275400D01*
X142512400Y-62275400D02*
X143112000Y-62875000D01*
X140612000Y-62175000D02*
X142085500Y-62275400D01*
X140612000Y-100275000D02*
X142085500Y-100375400D01*
X142085500Y-100375400D02*
X142512400Y-100375400D01*
X142512400Y-100375400D02*
X143112000Y-100975000D01*
G04 #@! TO.N,ColF*
X170498000Y-107315000D02*
X205495200Y-107315000D01*
X205495200Y-107315000D02*
X205945400Y-107765200D01*
X205945400Y-107765200D02*
X206582300Y-107765200D01*
X206582300Y-107765200D02*
X206600300Y-107783200D01*
X206600300Y-107783200D02*
X219503100Y-107783200D01*
X219503100Y-107783200D02*
X221621600Y-109901700D01*
X221621600Y-109901700D02*
X266155500Y-109901700D01*
X266155500Y-109901700D02*
X267994600Y-108062600D01*
X267994600Y-108062600D02*
X281505100Y-108062600D01*
X281505100Y-108062600D02*
X297033800Y-92533900D01*
X297033800Y-92533900D02*
X299258500Y-92533900D01*
X303600000Y-95250000D02*
X303600000Y-94650000D01*
X303600000Y-94650000D02*
X301700000Y-92750000D01*
X300240000Y-91440000D02*
X299258500Y-92533900D01*
X110363000Y-83820000D02*
X109684000Y-83141000D01*
X109684000Y-83141000D02*
X105996200Y-83141000D01*
X105996200Y-83141000D02*
X105863900Y-83273300D01*
X105863900Y-83273300D02*
X101563600Y-83273300D01*
X101563600Y-83273300D02*
X98685500Y-80395200D01*
X98685500Y-80395200D02*
X98685500Y-79245500D01*
X98685500Y-79245500D02*
X103721000Y-74210000D01*
X103721000Y-74210000D02*
X107620000Y-74210000D01*
X159702000Y-80645000D02*
X159702000Y-80457200D01*
X159702000Y-80457200D02*
X157480400Y-78235600D01*
X157480400Y-78235600D02*
X134087700Y-78235600D01*
X134087700Y-78235600D02*
X124258700Y-88064600D01*
X124258700Y-88064600D02*
X117265100Y-88064600D01*
X117265100Y-88064600D02*
X116451600Y-87251100D01*
X116451600Y-87251100D02*
X113404000Y-87251100D01*
X113404000Y-87251100D02*
X110363000Y-84210100D01*
X110363000Y-84210100D02*
X110363000Y-83820000D01*
X300390000Y-91440000D02*
X301700000Y-92750000D01*
X300240000Y-91440000D02*
X300390000Y-91440000D01*
G04 #@! TO.N,ColG*
X178712000Y-81225000D02*
X178712000Y-80685000D01*
X178712000Y-80685000D02*
X178752000Y-80645000D01*
X110363000Y-86360000D02*
X110883100Y-86360000D01*
X110883100Y-86360000D02*
X112256700Y-87733600D01*
X112256700Y-87733600D02*
X115978900Y-87733600D01*
X115978900Y-87733600D02*
X116760300Y-88515000D01*
X116760300Y-88515000D02*
X124445200Y-88515000D01*
X124445200Y-88515000D02*
X126382800Y-86577400D01*
X126382800Y-86577400D02*
X131378900Y-86577400D01*
X131378900Y-86577400D02*
X132857700Y-88056200D01*
X132857700Y-88056200D02*
X143581900Y-88056200D01*
X143581900Y-88056200D02*
X145650800Y-85987300D01*
X145650800Y-85987300D02*
X150331000Y-85987300D01*
X150331000Y-85987300D02*
X150486700Y-86143000D01*
X150486700Y-86143000D02*
X150486700Y-86248500D01*
X150486700Y-86248500D02*
X152327600Y-88089400D01*
X152327600Y-88089400D02*
X162798300Y-88089400D01*
X162798300Y-88089400D02*
X164496100Y-86391600D01*
X164496100Y-86391600D02*
X169421700Y-86391600D01*
X169421700Y-86391600D02*
X169986900Y-86956800D01*
X169986900Y-86956800D02*
X171636400Y-86956800D01*
X171636400Y-86956800D02*
X177368200Y-81225000D01*
X177368200Y-81225000D02*
X178712000Y-81225000D01*
X181212000Y-81925000D02*
X184677700Y-78459300D01*
X184677700Y-78459300D02*
X217902000Y-78459300D01*
X217902000Y-78459300D02*
X227507200Y-88064500D01*
X227507200Y-88064500D02*
X238660200Y-88064500D01*
X238660200Y-88064500D02*
X239673100Y-87051600D01*
X239673100Y-87051600D02*
X243772200Y-87051600D01*
X243772200Y-87051600D02*
X246261900Y-89541300D01*
X246261900Y-89541300D02*
X246261900Y-90325800D01*
X246261900Y-90325800D02*
X254952000Y-99015900D01*
X254952000Y-99015900D02*
X254952000Y-99695000D01*
X180185500Y-100375400D02*
X180612400Y-100375400D01*
X180612400Y-100375400D02*
X181212000Y-100975000D01*
X178712000Y-100275000D02*
X180185500Y-100375400D01*
G04 #@! TO.N,ColH*
X200262000Y-100975000D02*
X202048500Y-100975000D01*
X202048500Y-100975000D02*
X208197100Y-107123600D01*
X208197100Y-107123600D02*
X237791100Y-107123600D01*
X237791100Y-107123600D02*
X238000100Y-106914600D01*
X238000100Y-106914600D02*
X250318500Y-106914600D01*
X250318500Y-106914600D02*
X250504600Y-107100700D01*
X250504600Y-107100700D02*
X268246100Y-107100700D01*
X268246100Y-107100700D02*
X275046800Y-100300000D01*
X275046800Y-100300000D02*
X276400000Y-100300000D01*
X276400000Y-100300000D02*
X277873500Y-100400400D01*
X277873500Y-100400400D02*
X278300400Y-100400400D01*
X278300400Y-100400400D02*
X278900000Y-101000000D01*
X110363000Y-88900000D02*
X115871500Y-88900000D01*
X115871500Y-88900000D02*
X116388400Y-89416900D01*
X116388400Y-89416900D02*
X125042100Y-89416900D01*
X125042100Y-89416900D02*
X125469000Y-88990000D01*
X125469000Y-88990000D02*
X197776100Y-88990000D01*
X197776100Y-88990000D02*
X197866100Y-88900000D01*
G04 #@! TO.N,ColI*
X216812000Y-100275000D02*
X213743600Y-100275000D01*
X213743600Y-100275000D02*
X204908600Y-91440000D01*
X204908600Y-91440000D02*
X110363000Y-91440000D01*
X216812000Y-81225000D02*
X218285500Y-81325400D01*
X218285500Y-81325400D02*
X218712400Y-81325400D01*
X218712400Y-81325400D02*
X219312000Y-81925000D01*
G04 #@! TO.N,ColJ*
X235862000Y-100275000D02*
X232793700Y-100275000D01*
X232793700Y-100275000D02*
X231805200Y-99286500D01*
X231805200Y-99286500D02*
X227557800Y-99286500D01*
X227557800Y-99286500D02*
X224492000Y-102352300D01*
X224492000Y-102352300D02*
X213387900Y-102352300D01*
X213387900Y-102352300D02*
X209721100Y-106019100D01*
X209721100Y-106019100D02*
X208325100Y-106019100D01*
X208325100Y-106019100D02*
X206809500Y-104503500D01*
X206809500Y-104503500D02*
X206809500Y-98436900D01*
X206809500Y-98436900D02*
X202352600Y-93980000D01*
X202352600Y-93980000D02*
X110363000Y-93980000D01*
G04 #@! TO.N,EncA*
X88893600Y-67430600D02*
X90043000Y-68580000D01*
X92380000Y-56430000D02*
X90349400Y-56430000D01*
X90349400Y-56430000D02*
X88893600Y-57885800D01*
X88893600Y-57885800D02*
X88893600Y-67430600D01*
X59412500Y-74175000D02*
X64087100Y-69500400D01*
X64087100Y-69500400D02*
X68528100Y-69500400D01*
X68528100Y-69500400D02*
X68692300Y-69336200D01*
X68692300Y-69336200D02*
X86988000Y-69336200D01*
X86988000Y-69336200D02*
X88893600Y-67430600D01*
G04 #@! TO.N,GND*
X107620000Y-58970000D02*
X108118800Y-58471200D01*
X108118800Y-58471200D02*
X254188400Y-58471200D01*
G04 #@! TO.N,EncB*
X90043000Y-70020300D02*
X89832600Y-69809900D01*
X89832600Y-69809900D02*
X69287300Y-69809900D01*
X69287300Y-69809900D02*
X64922200Y-74175000D01*
X64922200Y-74175000D02*
X64412500Y-74175000D01*
X92380000Y-58970000D02*
X91178300Y-60171700D01*
X91178300Y-60171700D02*
X91178300Y-69159900D01*
X91178300Y-69159900D02*
X90317900Y-70020300D01*
X90317900Y-70020300D02*
X90043000Y-70020300D01*
X90043000Y-70020300D02*
X90043000Y-71120000D01*
G04 #@! TO.N,RST*
X90043000Y-58420000D02*
X90732800Y-57730200D01*
X90732800Y-57730200D02*
X103840200Y-57730200D01*
X103840200Y-57730200D02*
X107620000Y-61510000D01*
G04 #@! TO.N,RowD*
X260737100Y-72456200D02*
X261620000Y-71573300D01*
X261874000Y-87305700D02*
X260737100Y-86168800D01*
X260737100Y-86168800D02*
X260737100Y-72456200D01*
X260737100Y-72456200D02*
X245957500Y-72456200D01*
X245957500Y-72456200D02*
X243949300Y-70448000D01*
X242824000Y-70448000D02*
X243949300Y-70448000D01*
X261620000Y-70448000D02*
X261620000Y-71573300D01*
X261874000Y-88431000D02*
X261874000Y-87305700D01*
X242824000Y-88177000D02*
X241698700Y-88177000D01*
X241698700Y-88177000D02*
X239007100Y-90868600D01*
X239007100Y-90868600D02*
X112533600Y-90868600D01*
X112533600Y-90868600D02*
X111951900Y-90286900D01*
X111951900Y-90286900D02*
X95861200Y-90286900D01*
X95861200Y-90286900D02*
X94708100Y-91440000D01*
X94708100Y-91440000D02*
X90043000Y-91440000D01*
G04 #@! TO.N,Net-(D_ISOENTR1-Pad2)*
X302200000Y-97750000D02*
X302099600Y-99223500D01*
X302099600Y-99223500D02*
X302099600Y-99650400D01*
X302099600Y-99650400D02*
X301500000Y-100250000D01*
X302200000Y-97750000D02*
X302740000Y-97750000D01*
X302740000Y-97750000D02*
X302780000Y-97790000D01*
G04 #@! TO.N,RGB*
X53700000Y-96800000D02*
X54819000Y-95681000D01*
X54819000Y-95681000D02*
X54819000Y-81550700D01*
X54819000Y-81550700D02*
X57870100Y-78499600D01*
X57870100Y-78499600D02*
X85203400Y-78499600D01*
X85203400Y-78499600D02*
X90043000Y-73660000D01*
G04 #@! TO.N,RGB_PWR*
X106357700Y-57692300D02*
X103893700Y-55228300D01*
X103893700Y-55228300D02*
X90609200Y-55228300D01*
X90609200Y-55228300D02*
X88332400Y-57505100D01*
X88332400Y-57505100D02*
X78851000Y-57505100D01*
X78851000Y-57505100D02*
X73772400Y-62583700D01*
X73772400Y-62583700D02*
X73772400Y-63619200D01*
X73772400Y-63619200D02*
X68369800Y-69021800D01*
X68369800Y-69021800D02*
X62052400Y-69021800D01*
X62052400Y-69021800D02*
X53600000Y-77474200D01*
X53600000Y-77474200D02*
X53600000Y-93400000D01*
X107620000Y-56430000D02*
X106357700Y-57692300D01*
X106357700Y-57692300D02*
X106357700Y-59407000D01*
X106357700Y-59407000D02*
X107190700Y-60240000D01*
X107190700Y-60240000D02*
X108798500Y-60240000D01*
X108798500Y-60240000D02*
X111486300Y-62927800D01*
G04 #@! TO.N,DP1*
X250687900Y-60512400D02*
X247317800Y-60512400D01*
X247317800Y-60512400D02*
X235986500Y-71843700D01*
X235986500Y-71843700D02*
X118246300Y-71843700D01*
X118246300Y-71843700D02*
X116350300Y-69947700D01*
X116350300Y-69947700D02*
X113367000Y-69947700D01*
X113367000Y-69947700D02*
X112194700Y-71120000D01*
X112194700Y-71120000D02*
X110363000Y-71120000D01*
G04 #@! TD*
M02*
