G04 #@! TF.GenerationSoftware,KiCad,Pcbnew,(5.0.1)-3*
G04 #@! TF.CreationDate,2020-02-03T22:22:31+02:00*
G04 #@! TF.ProjectId,PRKL30,50524B4C33302E6B696361645F706362,rev?*
G04 #@! TF.SameCoordinates,Original*
G04 #@! TF.FileFunction,Paste,Bot*
G04 #@! TF.FilePolarity,Positive*
%FSLAX46Y46*%
G04 Gerber Fmt 4.6, Leading zero omitted, Abs format (unit mm)*
G04 Created by KiCad (PCBNEW (5.0.1)-3) date 02/03/20 22:22:31*
%MOMM*%
%LPD*%
G01*
G04 APERTURE LIST*
%ADD10R,1.200000X1.200000*%
%ADD11R,1.700000X1.000000*%
%ADD12R,0.700000X1.500000*%
%ADD13R,1.000000X0.800000*%
G04 APERTURE END LIST*
D10*
G04 #@! TO.C,D5*
X146558000Y-68377000D03*
X146558000Y-65227000D03*
G04 #@! TD*
G04 #@! TO.C,D4*
X130048000Y-68123000D03*
X130048000Y-64973000D03*
G04 #@! TD*
G04 #@! TO.C,D1*
X70300000Y-68631000D03*
X70300000Y-65481000D03*
G04 #@! TD*
G04 #@! TO.C,D2*
X72644000Y-68631000D03*
X72644000Y-65481000D03*
G04 #@! TD*
G04 #@! TO.C,D3*
X127508000Y-68072000D03*
X127508000Y-64922000D03*
G04 #@! TD*
G04 #@! TO.C,D6*
X149098000Y-65227000D03*
X149098000Y-68377000D03*
G04 #@! TD*
G04 #@! TO.C,D7*
X166624000Y-64973000D03*
X166624000Y-68123000D03*
G04 #@! TD*
G04 #@! TO.C,D8*
X185420000Y-64973000D03*
X185420000Y-68123000D03*
G04 #@! TD*
G04 #@! TO.C,D9*
X204724000Y-64973000D03*
X204724000Y-68123000D03*
G04 #@! TD*
G04 #@! TO.C,D10*
X223520000Y-64973000D03*
X223520000Y-68123000D03*
G04 #@! TD*
G04 #@! TO.C,D11*
X242824000Y-64973000D03*
X242824000Y-68123000D03*
G04 #@! TD*
G04 #@! TO.C,D12*
X261620000Y-64973000D03*
X261620000Y-68123000D03*
G04 #@! TD*
G04 #@! TO.C,D13*
X283464000Y-64770000D03*
X283464000Y-67920000D03*
G04 #@! TD*
G04 #@! TO.C,D14*
X70104000Y-84836000D03*
X70104000Y-87986000D03*
G04 #@! TD*
G04 #@! TO.C,D15*
X72644000Y-84785000D03*
X72644000Y-87935000D03*
G04 #@! TD*
G04 #@! TO.C,D16*
X127508000Y-82245000D03*
X127508000Y-85395000D03*
G04 #@! TD*
G04 #@! TO.C,D17*
X130048000Y-82261000D03*
X130048000Y-85411000D03*
G04 #@! TD*
G04 #@! TO.C,D18*
X146812000Y-81686000D03*
X146812000Y-84836000D03*
G04 #@! TD*
G04 #@! TO.C,D19*
X149352000Y-81686000D03*
X149352000Y-84836000D03*
G04 #@! TD*
G04 #@! TO.C,D20*
X167132000Y-82042000D03*
X167132000Y-85192000D03*
G04 #@! TD*
G04 #@! TO.C,D21*
X185928000Y-85301000D03*
X185928000Y-82151000D03*
G04 #@! TD*
G04 #@! TO.C,D22*
X204978000Y-85395000D03*
X204978000Y-82245000D03*
G04 #@! TD*
G04 #@! TO.C,D23*
X224028000Y-85555000D03*
X224028000Y-82405000D03*
G04 #@! TD*
G04 #@! TO.C,D24*
X242824000Y-85852000D03*
X242824000Y-82702000D03*
G04 #@! TD*
G04 #@! TO.C,D25*
X261874000Y-86106000D03*
X261874000Y-82956000D03*
G04 #@! TD*
G04 #@! TO.C,D27*
X70300000Y-105975000D03*
X70300000Y-102825000D03*
G04 #@! TD*
G04 #@! TO.C,D28*
X72800000Y-105875000D03*
X72800000Y-102725000D03*
G04 #@! TD*
G04 #@! TO.C,D29*
X127300000Y-106175000D03*
X127300000Y-103025000D03*
G04 #@! TD*
G04 #@! TO.C,D30*
X129800000Y-106175000D03*
X129800000Y-103025000D03*
G04 #@! TD*
G04 #@! TO.C,D31*
X146420000Y-106955000D03*
X146420000Y-103805000D03*
G04 #@! TD*
G04 #@! TO.C,D32*
X148930000Y-106975000D03*
X148930000Y-103825000D03*
G04 #@! TD*
G04 #@! TO.C,D33*
X185740000Y-106317000D03*
X185740000Y-103167000D03*
G04 #@! TD*
G04 #@! TO.C,D34*
X204786000Y-103491000D03*
X204786000Y-100341000D03*
G04 #@! TD*
G04 #@! TO.C,D35*
X224282000Y-106133000D03*
X224282000Y-102983000D03*
G04 #@! TD*
G04 #@! TO.C,D36*
X243078000Y-102565000D03*
X243078000Y-105715000D03*
G04 #@! TD*
G04 #@! TO.C,D37*
X262276000Y-102901000D03*
X262276000Y-106051000D03*
G04 #@! TD*
G04 #@! TO.C,D_1.25u1*
X283566000Y-103081000D03*
X283566000Y-106231000D03*
G04 #@! TD*
D11*
G04 #@! TO.C,SW_RST1*
X258724000Y-78100000D03*
X265024000Y-78100000D03*
X258724000Y-74300000D03*
X265024000Y-74300000D03*
G04 #@! TD*
D10*
G04 #@! TO.C,D_ISOENTR1*
X283464000Y-83007000D03*
X283464000Y-86157000D03*
G04 #@! TD*
D12*
G04 #@! TO.C,SW2*
X281050000Y-54324600D03*
X284050000Y-54324600D03*
X285550000Y-54324600D03*
D13*
X279650000Y-51464600D03*
X286950000Y-51464600D03*
X286950000Y-53674600D03*
X279650000Y-53674600D03*
G04 #@! TD*
M02*
