G04 #@! TF.GenerationSoftware,KiCad,Pcbnew,(5.0.1)-3*
G04 #@! TF.CreationDate,2020-01-08T22:36:58+02:00*
G04 #@! TF.ProjectId,PRKL30,50524B4C33302E6B696361645F706362,rev?*
G04 #@! TF.SameCoordinates,Original*
G04 #@! TF.FileFunction,Copper,L1,Top,Signal*
G04 #@! TF.FilePolarity,Positive*
%FSLAX46Y46*%
G04 Gerber Fmt 4.6, Leading zero omitted, Abs format (unit mm)*
G04 Created by KiCad (PCBNEW (5.0.1)-3) date 01/08/20 22:36:58*
%MOMM*%
%LPD*%
G01*
G04 APERTURE LIST*
G04 #@! TA.AperFunction,ComponentPad*
%ADD10R,1.905000X1.905000*%
G04 #@! TD*
G04 #@! TA.AperFunction,ComponentPad*
%ADD11C,1.905000*%
G04 #@! TD*
G04 #@! TA.AperFunction,ComponentPad*
%ADD12C,2.000000*%
G04 #@! TD*
G04 #@! TA.AperFunction,ComponentPad*
%ADD13C,2.250000*%
G04 #@! TD*
G04 #@! TA.AperFunction,Conductor*
%ADD14C,2.250000*%
G04 #@! TD*
G04 #@! TA.AperFunction,ComponentPad*
%ADD15C,1.600000*%
G04 #@! TD*
G04 #@! TA.AperFunction,ComponentPad*
%ADD16R,1.600000X1.600000*%
G04 #@! TD*
G04 #@! TA.AperFunction,ComponentPad*
%ADD17C,1.752600*%
G04 #@! TD*
G04 #@! TA.AperFunction,ComponentPad*
%ADD18R,1.752600X1.752600*%
G04 #@! TD*
G04 #@! TA.AperFunction,ComponentPad*
%ADD19R,2.000000X2.000000*%
G04 #@! TD*
G04 #@! TA.AperFunction,ComponentPad*
%ADD20R,2.000000X3.200000*%
G04 #@! TD*
G04 #@! TA.AperFunction,ComponentPad*
%ADD21C,4.000000*%
G04 #@! TD*
G04 #@! TA.AperFunction,ViaPad*
%ADD22C,0.800000*%
G04 #@! TD*
G04 #@! TA.AperFunction,Conductor*
%ADD23C,0.250000*%
G04 #@! TD*
G04 APERTURE END LIST*
D10*
G04 #@! TO.P,K_ISOENTER1,4*
G04 #@! TO.N,N/C*
X292620000Y-96520000D03*
D11*
G04 #@! TO.P,K_ISOENTER1,3*
X292620000Y-93980000D03*
D12*
G04 #@! TO.P,K_ISOENTER1,1*
G04 #@! TO.N,ColF*
X303600000Y-95250000D03*
G04 #@! TO.P,K_ISOENTER1,2*
G04 #@! TO.N,Net-(D_ISOENTR1-Pad2)*
X301500000Y-100250000D03*
D13*
G04 #@! TO.P,K_ISOENTER1,1*
G04 #@! TO.N,ColF*
X301700000Y-92750000D03*
X300970004Y-92094995D03*
D14*
G04 #@! TD*
G04 #@! TO.N,ColF*
G04 #@! TO.C,K_ISOENTER1*
X300240000Y-91440000D02*
X301700008Y-92749990D01*
D13*
G04 #@! TO.P,K_ISOENTER1,2*
G04 #@! TO.N,Net-(D_ISOENTR1-Pad2)*
X302780000Y-97790000D03*
X302490016Y-97769771D03*
D14*
G04 #@! TD*
G04 #@! TO.N,Net-(D_ISOENTR1-Pad2)*
G04 #@! TO.C,K_ISOENTER1*
X302200000Y-97750000D02*
X302780032Y-97789542D01*
D15*
G04 #@! TO.P,Feather1,1*
G04 #@! TO.N,Net-(Feather1-Pad1)*
X90005000Y-68710000D03*
G04 #@! TO.P,Feather1,2*
G04 #@! TO.N,DP1*
X90005000Y-71250000D03*
G04 #@! TO.P,Feather1,3*
G04 #@! TO.N,RGB_PWR*
X90005000Y-73790000D03*
G04 #@! TO.P,Feather1,4*
G04 #@! TO.N,ColE*
X90005000Y-76330000D03*
G04 #@! TO.P,Feather1,5*
G04 #@! TO.N,ColD*
X90005000Y-78870000D03*
G04 #@! TO.P,Feather1,6*
G04 #@! TO.N,ColC*
X90005000Y-81410000D03*
G04 #@! TO.P,Feather1,7*
G04 #@! TO.N,ColF*
X90005000Y-83950000D03*
G04 #@! TO.P,Feather1,8*
G04 #@! TO.N,ColG*
X90005000Y-86490000D03*
G04 #@! TO.P,Feather1,9*
G04 #@! TO.N,ColH*
X90005000Y-89030000D03*
G04 #@! TO.P,Feather1,12*
G04 #@! TO.N,ColB*
X90005000Y-96650000D03*
G04 #@! TO.P,Feather1,10*
G04 #@! TO.N,ColI*
X90005000Y-91570000D03*
G04 #@! TO.P,Feather1,11*
G04 #@! TO.N,ColJ*
X90005000Y-94110000D03*
G04 #@! TO.P,Feather1,13*
G04 #@! TO.N,RST*
X110325000Y-58550000D03*
G04 #@! TO.P,Feather1,14*
G04 #@! TO.N,Net-(Feather1-Pad14)*
X110325000Y-61090000D03*
G04 #@! TO.P,Feather1,15*
G04 #@! TO.N,Net-(Feather1-Pad15)*
X110325000Y-63630000D03*
G04 #@! TO.P,Feather1,16*
G04 #@! TO.N,GND*
X110325000Y-66170000D03*
G04 #@! TO.P,Feather1,17*
G04 #@! TO.N,EncA*
X110325000Y-68710000D03*
G04 #@! TO.P,Feather1,18*
G04 #@! TO.N,EncB*
X110325000Y-71250000D03*
G04 #@! TO.P,Feather1,19*
G04 #@! TO.N,RGB*
X110325000Y-73790000D03*
G04 #@! TO.P,Feather1,20*
G04 #@! TO.N,RowA*
X110325000Y-76330000D03*
G04 #@! TO.P,Feather1,21*
G04 #@! TO.N,RowB*
X110325000Y-78870000D03*
G04 #@! TO.P,Feather1,22*
G04 #@! TO.N,RowC*
X110325000Y-81410000D03*
G04 #@! TO.P,Feather1,23*
G04 #@! TO.N,Net-(Feather1-Pad23)*
X110325000Y-83950000D03*
G04 #@! TO.P,Feather1,24*
G04 #@! TO.N,Net-(Feather1-Pad24)*
X110325000Y-86490000D03*
G04 #@! TO.P,Feather1,25*
G04 #@! TO.N,Net-(Feather1-Pad25)*
X110325000Y-89030000D03*
G04 #@! TO.P,Feather1,26*
G04 #@! TO.N,RowD*
X110325000Y-91570000D03*
G04 #@! TO.P,Feather1,27*
G04 #@! TO.N,ColA*
X110325000Y-94110000D03*
G04 #@! TO.P,Feather1,28*
G04 #@! TO.N,Net-(Feather1-Pad28)*
X110325000Y-96650000D03*
G04 #@! TD*
G04 #@! TO.P,D4,2*
G04 #@! TO.N,Net-(D4-Pad2)*
X127508000Y-63664000D03*
D16*
G04 #@! TO.P,D4,1*
G04 #@! TO.N,RowA*
X127508000Y-71464000D03*
G04 #@! TD*
D17*
G04 #@! TO.P,MCU_Pro_Micr0,24*
G04 #@! TO.N,RGB_PWR*
X92380000Y-53430000D03*
G04 #@! TO.P,MCU_Pro_Micr0,12*
G04 #@! TO.N,ColB*
X107620000Y-81370000D03*
G04 #@! TO.P,MCU_Pro_Micr0,23*
G04 #@! TO.N,GND*
X92380000Y-55970000D03*
G04 #@! TO.P,MCU_Pro_Micr0,22*
G04 #@! TO.N,RST*
X92380000Y-58510000D03*
G04 #@! TO.P,MCU_Pro_Micr0,21*
G04 #@! TO.N,Net-(MCU_Pro_Micr0-Pad21)*
X92380000Y-61050000D03*
G04 #@! TO.P,MCU_Pro_Micr0,20*
G04 #@! TO.N,ColE*
X92380000Y-63590000D03*
G04 #@! TO.P,MCU_Pro_Micr0,19*
G04 #@! TO.N,ColD*
X92380000Y-66130000D03*
G04 #@! TO.P,MCU_Pro_Micr0,18*
G04 #@! TO.N,ColC*
X92380000Y-68670000D03*
G04 #@! TO.P,MCU_Pro_Micr0,17*
G04 #@! TO.N,ColF*
X92380000Y-71210000D03*
G04 #@! TO.P,MCU_Pro_Micr0,16*
G04 #@! TO.N,ColG*
X92380000Y-73750000D03*
G04 #@! TO.P,MCU_Pro_Micr0,15*
G04 #@! TO.N,ColH*
X92380000Y-76290000D03*
G04 #@! TO.P,MCU_Pro_Micr0,14*
G04 #@! TO.N,ColI*
X92380000Y-78830000D03*
G04 #@! TO.P,MCU_Pro_Micr0,13*
G04 #@! TO.N,ColJ*
X92380000Y-81370000D03*
G04 #@! TO.P,MCU_Pro_Micr0,11*
G04 #@! TO.N,ColA*
X107620000Y-78830000D03*
G04 #@! TO.P,MCU_Pro_Micr0,10*
G04 #@! TO.N,RowD*
X107620000Y-76290000D03*
G04 #@! TO.P,MCU_Pro_Micr0,9*
G04 #@! TO.N,RowC*
X107620000Y-73750000D03*
G04 #@! TO.P,MCU_Pro_Micr0,8*
G04 #@! TO.N,RowB*
X107620000Y-71210000D03*
G04 #@! TO.P,MCU_Pro_Micr0,7*
G04 #@! TO.N,RowA*
X107620000Y-68670000D03*
G04 #@! TO.P,MCU_Pro_Micr0,6*
G04 #@! TO.N,Net-(MCU_Pro_Micr0-Pad6)*
X107620000Y-66130000D03*
G04 #@! TO.P,MCU_Pro_Micr0,5*
G04 #@! TO.N,RGB*
X107620000Y-63590000D03*
G04 #@! TO.P,MCU_Pro_Micr0,4*
G04 #@! TO.N,Net-(MCU_Pro_Micr0-Pad4)*
X107620000Y-61050000D03*
G04 #@! TO.P,MCU_Pro_Micr0,3*
G04 #@! TO.N,Net-(MCU_Pro_Micr0-Pad3)*
X107620000Y-58510000D03*
G04 #@! TO.P,MCU_Pro_Micr0,2*
G04 #@! TO.N,EncB*
X107620000Y-55970000D03*
D18*
G04 #@! TO.P,MCU_Pro_Micr0,1*
G04 #@! TO.N,EncA*
X107620000Y-53430000D03*
G04 #@! TD*
D15*
G04 #@! TO.P,D1,2*
G04 #@! TO.N,Net-(D1-Pad2)*
X70300000Y-63156000D03*
D16*
G04 #@! TO.P,D1,1*
G04 #@! TO.N,RowA*
X70300000Y-70956000D03*
G04 #@! TD*
D15*
G04 #@! TO.P,D2,2*
G04 #@! TO.N,Net-(D2-Pad2)*
X72644000Y-63156000D03*
D16*
G04 #@! TO.P,D2,1*
G04 #@! TO.N,RowA*
X72644000Y-70956000D03*
G04 #@! TD*
D15*
G04 #@! TO.P,D3,2*
G04 #@! TO.N,Net-(D3-Pad2)*
X86300000Y-75300000D03*
D16*
G04 #@! TO.P,D3,1*
G04 #@! TO.N,RowA*
X78500000Y-75300000D03*
G04 #@! TD*
D15*
G04 #@! TO.P,D5,2*
G04 #@! TO.N,Net-(D5-Pad2)*
X130048000Y-63664000D03*
D16*
G04 #@! TO.P,D5,1*
G04 #@! TO.N,RowA*
X130048000Y-71464000D03*
G04 #@! TD*
G04 #@! TO.P,D6,1*
G04 #@! TO.N,RowA*
X147828000Y-70956000D03*
D15*
G04 #@! TO.P,D6,2*
G04 #@! TO.N,Net-(D6-Pad2)*
X147828000Y-63156000D03*
G04 #@! TD*
D16*
G04 #@! TO.P,D7,1*
G04 #@! TO.N,RowA*
X166624000Y-70448000D03*
D15*
G04 #@! TO.P,D7,2*
G04 #@! TO.N,Net-(D7-Pad2)*
X166624000Y-62648000D03*
G04 #@! TD*
D16*
G04 #@! TO.P,D8,1*
G04 #@! TO.N,RowA*
X185420000Y-70448000D03*
D15*
G04 #@! TO.P,D8,2*
G04 #@! TO.N,Net-(D8-Pad2)*
X185420000Y-62648000D03*
G04 #@! TD*
D16*
G04 #@! TO.P,D9,1*
G04 #@! TO.N,RowA*
X204724000Y-70448000D03*
D15*
G04 #@! TO.P,D9,2*
G04 #@! TO.N,Net-(D9-Pad2)*
X204724000Y-62648000D03*
G04 #@! TD*
D16*
G04 #@! TO.P,D10,1*
G04 #@! TO.N,RowA*
X223520000Y-70448000D03*
D15*
G04 #@! TO.P,D10,2*
G04 #@! TO.N,Net-(D10-Pad2)*
X223520000Y-62648000D03*
G04 #@! TD*
D16*
G04 #@! TO.P,D11,1*
G04 #@! TO.N,RowD*
X242824000Y-70448000D03*
D15*
G04 #@! TO.P,D11,2*
G04 #@! TO.N,Net-(D11-Pad2)*
X242824000Y-62648000D03*
G04 #@! TD*
D16*
G04 #@! TO.P,D12,1*
G04 #@! TO.N,RowD*
X261620000Y-70448000D03*
D15*
G04 #@! TO.P,D12,2*
G04 #@! TO.N,Net-(D12-Pad2)*
X261620000Y-62648000D03*
G04 #@! TD*
D16*
G04 #@! TO.P,D13,1*
G04 #@! TO.N,RowD*
X283464000Y-71464000D03*
D15*
G04 #@! TO.P,D13,2*
G04 #@! TO.N,Net-(D13-Pad2)*
X283464000Y-63664000D03*
G04 #@! TD*
D16*
G04 #@! TO.P,D14,1*
G04 #@! TO.N,RowB*
X70104000Y-90311000D03*
D15*
G04 #@! TO.P,D14,2*
G04 #@! TO.N,Net-(D14-Pad2)*
X70104000Y-82511000D03*
G04 #@! TD*
D16*
G04 #@! TO.P,D15,1*
G04 #@! TO.N,RowB*
X72644000Y-90260000D03*
D15*
G04 #@! TO.P,D15,2*
G04 #@! TO.N,Net-(D15-Pad2)*
X72644000Y-82460000D03*
G04 #@! TD*
D16*
G04 #@! TO.P,D16,1*
G04 #@! TO.N,RowB*
X115988000Y-74676000D03*
D15*
G04 #@! TO.P,D16,2*
G04 #@! TO.N,Net-(D16-Pad2)*
X123788000Y-74676000D03*
G04 #@! TD*
D16*
G04 #@! TO.P,D17,1*
G04 #@! TO.N,RowB*
X127800000Y-89000000D03*
D15*
G04 #@! TO.P,D17,2*
G04 #@! TO.N,Net-(D17-Pad2)*
X127800000Y-81200000D03*
G04 #@! TD*
D16*
G04 #@! TO.P,D18,1*
G04 #@! TO.N,RowB*
X147530000Y-90530000D03*
D15*
G04 #@! TO.P,D18,2*
G04 #@! TO.N,Net-(D18-Pad2)*
X147530000Y-82730000D03*
G04 #@! TD*
D16*
G04 #@! TO.P,D19,1*
G04 #@! TO.N,RowB*
X166700000Y-88600000D03*
D15*
G04 #@! TO.P,D19,2*
G04 #@! TO.N,Net-(D19-Pad2)*
X166700000Y-80800000D03*
G04 #@! TD*
D16*
G04 #@! TO.P,D20,1*
G04 #@! TO.N,RowB*
X185800000Y-88500000D03*
D15*
G04 #@! TO.P,D20,2*
G04 #@! TO.N,Net-(D20-Pad2)*
X185800000Y-80700000D03*
G04 #@! TD*
G04 #@! TO.P,D21,2*
G04 #@! TO.N,Net-(D21-Pad2)*
X204800000Y-81300000D03*
D16*
G04 #@! TO.P,D21,1*
G04 #@! TO.N,RowB*
X204800000Y-89100000D03*
G04 #@! TD*
D15*
G04 #@! TO.P,D22,2*
G04 #@! TO.N,Net-(D22-Pad2)*
X224000000Y-81400000D03*
D16*
G04 #@! TO.P,D22,1*
G04 #@! TO.N,RowB*
X224000000Y-89200000D03*
G04 #@! TD*
D15*
G04 #@! TO.P,D23,2*
G04 #@! TO.N,Net-(D23-Pad2)*
X243300000Y-81300000D03*
D16*
G04 #@! TO.P,D23,1*
G04 #@! TO.N,RowB*
X243300000Y-89100000D03*
G04 #@! TD*
D15*
G04 #@! TO.P,D24,2*
G04 #@! TO.N,Net-(D24-Pad2)*
X260880000Y-81410000D03*
D16*
G04 #@! TO.P,D24,1*
G04 #@! TO.N,RowD*
X260880000Y-89210000D03*
G04 #@! TD*
D15*
G04 #@! TO.P,D25,2*
G04 #@! TO.N,Net-(D25-Pad2)*
X263260000Y-81350000D03*
D16*
G04 #@! TO.P,D25,1*
G04 #@! TO.N,RowD*
X263260000Y-89150000D03*
G04 #@! TD*
D15*
G04 #@! TO.P,D27,2*
G04 #@! TO.N,Net-(D27-Pad2)*
X70300000Y-100500000D03*
D16*
G04 #@! TO.P,D27,1*
G04 #@! TO.N,RowC*
X70300000Y-108300000D03*
G04 #@! TD*
D15*
G04 #@! TO.P,D28,2*
G04 #@! TO.N,Net-(D28-Pad2)*
X72800000Y-100400000D03*
D16*
G04 #@! TO.P,D28,1*
G04 #@! TO.N,RowC*
X72800000Y-108200000D03*
G04 #@! TD*
D15*
G04 #@! TO.P,D29,2*
G04 #@! TO.N,Net-(D29-Pad2)*
X127300000Y-100700000D03*
D16*
G04 #@! TO.P,D29,1*
G04 #@! TO.N,RowC*
X127300000Y-108500000D03*
G04 #@! TD*
D15*
G04 #@! TO.P,D30,2*
G04 #@! TO.N,Net-(D30-Pad2)*
X129800000Y-100700000D03*
D16*
G04 #@! TO.P,D30,1*
G04 #@! TO.N,RowC*
X129800000Y-108500000D03*
G04 #@! TD*
D15*
G04 #@! TO.P,D31,2*
G04 #@! TO.N,Net-(D31-Pad2)*
X146420000Y-101480000D03*
D16*
G04 #@! TO.P,D31,1*
G04 #@! TO.N,RowC*
X146420000Y-109280000D03*
G04 #@! TD*
D15*
G04 #@! TO.P,D32,2*
G04 #@! TO.N,Net-(D32-Pad2)*
X148930000Y-101500000D03*
D16*
G04 #@! TO.P,D32,1*
G04 #@! TO.N,RowC*
X148930000Y-109300000D03*
G04 #@! TD*
D15*
G04 #@! TO.P,D33,2*
G04 #@! TO.N,Net-(D33-Pad2)*
X185740000Y-97210000D03*
D16*
G04 #@! TO.P,D33,1*
G04 #@! TO.N,RowC*
X185740000Y-105010000D03*
G04 #@! TD*
D15*
G04 #@! TO.P,D34,2*
G04 #@! TO.N,Net-(D34-Pad2)*
X204870000Y-97380000D03*
D16*
G04 #@! TO.P,D34,1*
G04 #@! TO.N,RowC*
X204870000Y-105180000D03*
G04 #@! TD*
D15*
G04 #@! TO.P,D35,2*
G04 #@! TO.N,Net-(D35-Pad2)*
X224000000Y-97210000D03*
D16*
G04 #@! TO.P,D35,1*
G04 #@! TO.N,RowC*
X224000000Y-105010000D03*
G04 #@! TD*
G04 #@! TO.P,D36,1*
G04 #@! TO.N,RowC*
X242850000Y-105260000D03*
D15*
G04 #@! TO.P,D36,2*
G04 #@! TO.N,Net-(D36-Pad2)*
X242850000Y-97460000D03*
G04 #@! TD*
D16*
G04 #@! TO.P,D37,1*
G04 #@! TO.N,RowD*
X261980000Y-97665000D03*
D15*
G04 #@! TO.P,D37,2*
G04 #@! TO.N,Net-(D37-Pad2)*
X261980000Y-105465000D03*
G04 #@! TD*
D16*
G04 #@! TO.P,D_1.25u1,1*
G04 #@! TO.N,RowD*
X283464000Y-109056000D03*
D15*
G04 #@! TO.P,D_1.25u1,2*
G04 #@! TO.N,Net-(D_1.25u1-Pad2)*
X283464000Y-101256000D03*
G04 #@! TD*
D13*
G04 #@! TO.P,K_2Uspc1,2*
G04 #@! TO.N,Net-(D32-Pad2)*
X164168229Y-109565016D03*
D14*
G04 #@! TD*
G04 #@! TO.N,Net-(D32-Pad2)*
G04 #@! TO.C,K_2Uspc1*
X164188000Y-109275000D02*
X164148458Y-109855032D01*
D13*
G04 #@! TO.P,K_2Uspc1,2*
G04 #@! TO.N,Net-(D32-Pad2)*
X164148000Y-109855000D03*
G04 #@! TO.P,K_2Uspc1,1*
G04 #@! TO.N,ColF*
X169843005Y-108045004D03*
D14*
G04 #@! TD*
G04 #@! TO.N,ColF*
G04 #@! TO.C,K_2Uspc1*
X170498000Y-107315000D02*
X169188010Y-108775008D01*
D13*
G04 #@! TO.P,K_2Uspc1,1*
G04 #@! TO.N,ColF*
X169188000Y-108775000D03*
D12*
G04 #@! TO.P,K_2Uspc1,2*
G04 #@! TO.N,Net-(D32-Pad2)*
X161688000Y-108575000D03*
G04 #@! TO.P,K_2Uspc1,1*
G04 #@! TO.N,ColF*
X166688000Y-110675000D03*
D11*
G04 #@! TO.P,K_2Uspc1,3*
G04 #@! TO.N,N/C*
X167958000Y-99695000D03*
D10*
G04 #@! TO.P,K_2Uspc1,4*
X165418000Y-99695000D03*
G04 #@! TD*
D19*
G04 #@! TO.P,K_ENC1,A*
G04 #@! TO.N,EncA*
X59412500Y-74175000D03*
D12*
G04 #@! TO.P,K_ENC1,C*
G04 #@! TO.N,GND*
X61912500Y-74175000D03*
G04 #@! TO.P,K_ENC1,B*
G04 #@! TO.N,EncB*
X64412500Y-74175000D03*
D20*
G04 #@! TO.P,K_ENC1,MP*
G04 #@! TO.N,N/C*
X56312500Y-66675000D03*
X67512500Y-66675000D03*
D12*
G04 #@! TO.P,K_ENC1,S2*
G04 #@! TO.N,RowA*
X59412500Y-59675000D03*
G04 #@! TO.P,K_ENC1,S1*
G04 #@! TO.N,ColA*
X64412500Y-59675000D03*
G04 #@! TD*
D13*
G04 #@! TO.P,K1,1*
G04 #@! TO.N,ColA*
X64432271Y-61884984D03*
D14*
G04 #@! TD*
G04 #@! TO.N,ColA*
G04 #@! TO.C,K1*
X64412500Y-62175000D02*
X64452042Y-61594968D01*
D13*
G04 #@! TO.P,K1,1*
G04 #@! TO.N,ColA*
X64452500Y-61595000D03*
G04 #@! TO.P,K1,2*
G04 #@! TO.N,Net-(D1-Pad2)*
X58757495Y-63404996D03*
D14*
G04 #@! TD*
G04 #@! TO.N,Net-(D1-Pad2)*
G04 #@! TO.C,K1*
X58102500Y-64135000D02*
X59412490Y-62674992D01*
D13*
G04 #@! TO.P,K1,2*
G04 #@! TO.N,Net-(D1-Pad2)*
X59412500Y-62675000D03*
D12*
G04 #@! TO.P,K1,1*
G04 #@! TO.N,ColA*
X66912500Y-62875000D03*
G04 #@! TO.P,K1,2*
G04 #@! TO.N,Net-(D1-Pad2)*
X61912500Y-60775000D03*
G04 #@! TD*
G04 #@! TO.P,K2,2*
G04 #@! TO.N,Net-(D2-Pad2)*
X80962500Y-60775000D03*
G04 #@! TO.P,K2,1*
G04 #@! TO.N,ColB*
X85962500Y-62875000D03*
D13*
G04 #@! TO.P,K2,2*
G04 #@! TO.N,Net-(D2-Pad2)*
X78462500Y-62675000D03*
X77807495Y-63404996D03*
D14*
G04 #@! TD*
G04 #@! TO.N,Net-(D2-Pad2)*
G04 #@! TO.C,K2*
X77152500Y-64135000D02*
X78462490Y-62674992D01*
D13*
G04 #@! TO.P,K2,1*
G04 #@! TO.N,ColB*
X83502500Y-61595000D03*
X83482271Y-61884984D03*
D14*
G04 #@! TD*
G04 #@! TO.N,ColB*
G04 #@! TO.C,K2*
X83462500Y-62175000D02*
X83502042Y-61594968D01*
D13*
G04 #@! TO.P,K3,1*
G04 #@! TO.N,ColC*
X102531771Y-61884984D03*
D14*
G04 #@! TD*
G04 #@! TO.N,ColC*
G04 #@! TO.C,K3*
X102512000Y-62175000D02*
X102551542Y-61594968D01*
D13*
G04 #@! TO.P,K3,1*
G04 #@! TO.N,ColC*
X102552000Y-61595000D03*
G04 #@! TO.P,K3,2*
G04 #@! TO.N,Net-(D3-Pad2)*
X96856995Y-63404996D03*
D14*
G04 #@! TD*
G04 #@! TO.N,Net-(D3-Pad2)*
G04 #@! TO.C,K3*
X96202000Y-64135000D02*
X97511990Y-62674992D01*
D13*
G04 #@! TO.P,K3,2*
G04 #@! TO.N,Net-(D3-Pad2)*
X97512000Y-62675000D03*
D12*
G04 #@! TO.P,K3,1*
G04 #@! TO.N,ColC*
X105012000Y-62875000D03*
G04 #@! TO.P,K3,2*
G04 #@! TO.N,Net-(D3-Pad2)*
X100012000Y-60775000D03*
G04 #@! TD*
G04 #@! TO.P,K4,2*
G04 #@! TO.N,Net-(D4-Pad2)*
X119062000Y-60775000D03*
G04 #@! TO.P,K4,1*
G04 #@! TO.N,ColD*
X124062000Y-62875000D03*
D13*
G04 #@! TO.P,K4,2*
G04 #@! TO.N,Net-(D4-Pad2)*
X116562000Y-62675000D03*
X115906995Y-63404996D03*
D14*
G04 #@! TD*
G04 #@! TO.N,Net-(D4-Pad2)*
G04 #@! TO.C,K4*
X115252000Y-64135000D02*
X116561990Y-62674992D01*
D13*
G04 #@! TO.P,K4,1*
G04 #@! TO.N,ColD*
X121602000Y-61595000D03*
X121581771Y-61884984D03*
D14*
G04 #@! TD*
G04 #@! TO.N,ColD*
G04 #@! TO.C,K4*
X121562000Y-62175000D02*
X121601542Y-61594968D01*
D12*
G04 #@! TO.P,K5,2*
G04 #@! TO.N,Net-(D5-Pad2)*
X138112000Y-60775000D03*
G04 #@! TO.P,K5,1*
G04 #@! TO.N,ColE*
X143112000Y-62875000D03*
D13*
G04 #@! TO.P,K5,2*
G04 #@! TO.N,Net-(D5-Pad2)*
X135612000Y-62675000D03*
X134956995Y-63404996D03*
D14*
G04 #@! TD*
G04 #@! TO.N,Net-(D5-Pad2)*
G04 #@! TO.C,K5*
X134302000Y-64135000D02*
X135611990Y-62674992D01*
D13*
G04 #@! TO.P,K5,1*
G04 #@! TO.N,ColE*
X140652000Y-61595000D03*
X140631771Y-61884984D03*
D14*
G04 #@! TD*
G04 #@! TO.N,ColE*
G04 #@! TO.C,K5*
X140612000Y-62175000D02*
X140651542Y-61594968D01*
D12*
G04 #@! TO.P,K6,2*
G04 #@! TO.N,Net-(D6-Pad2)*
X157162000Y-60775000D03*
G04 #@! TO.P,K6,1*
G04 #@! TO.N,ColF*
X162162000Y-62875000D03*
D13*
G04 #@! TO.P,K6,2*
G04 #@! TO.N,Net-(D6-Pad2)*
X154662000Y-62675000D03*
X154006995Y-63404996D03*
D14*
G04 #@! TD*
G04 #@! TO.N,Net-(D6-Pad2)*
G04 #@! TO.C,K6*
X153352000Y-64135000D02*
X154661990Y-62674992D01*
D13*
G04 #@! TO.P,K6,1*
G04 #@! TO.N,ColF*
X159702000Y-61595000D03*
X159681771Y-61884984D03*
D14*
G04 #@! TD*
G04 #@! TO.N,ColF*
G04 #@! TO.C,K6*
X159662000Y-62175000D02*
X159701542Y-61594968D01*
D12*
G04 #@! TO.P,K7,2*
G04 #@! TO.N,Net-(D7-Pad2)*
X176212000Y-60775000D03*
G04 #@! TO.P,K7,1*
G04 #@! TO.N,ColG*
X181212000Y-62875000D03*
D13*
G04 #@! TO.P,K7,2*
G04 #@! TO.N,Net-(D7-Pad2)*
X173712000Y-62675000D03*
X173056995Y-63404996D03*
D14*
G04 #@! TD*
G04 #@! TO.N,Net-(D7-Pad2)*
G04 #@! TO.C,K7*
X172402000Y-64135000D02*
X173711990Y-62674992D01*
D13*
G04 #@! TO.P,K7,1*
G04 #@! TO.N,ColG*
X178752000Y-61595000D03*
X178731771Y-61884984D03*
D14*
G04 #@! TD*
G04 #@! TO.N,ColG*
G04 #@! TO.C,K7*
X178712000Y-62175000D02*
X178751542Y-61594968D01*
D12*
G04 #@! TO.P,K8,2*
G04 #@! TO.N,Net-(D8-Pad2)*
X195262000Y-60775000D03*
G04 #@! TO.P,K8,1*
G04 #@! TO.N,ColH*
X200262000Y-62875000D03*
D13*
G04 #@! TO.P,K8,2*
G04 #@! TO.N,Net-(D8-Pad2)*
X192762000Y-62675000D03*
X192106995Y-63404996D03*
D14*
G04 #@! TD*
G04 #@! TO.N,Net-(D8-Pad2)*
G04 #@! TO.C,K8*
X191452000Y-64135000D02*
X192761990Y-62674992D01*
D13*
G04 #@! TO.P,K8,1*
G04 #@! TO.N,ColH*
X197802000Y-61595000D03*
X197781771Y-61884984D03*
D14*
G04 #@! TD*
G04 #@! TO.N,ColH*
G04 #@! TO.C,K8*
X197762000Y-62175000D02*
X197801542Y-61594968D01*
D12*
G04 #@! TO.P,K9,2*
G04 #@! TO.N,Net-(D9-Pad2)*
X214312000Y-60775000D03*
G04 #@! TO.P,K9,1*
G04 #@! TO.N,ColI*
X219312000Y-62875000D03*
D13*
G04 #@! TO.P,K9,2*
G04 #@! TO.N,Net-(D9-Pad2)*
X211812000Y-62675000D03*
X211156995Y-63404996D03*
D14*
G04 #@! TD*
G04 #@! TO.N,Net-(D9-Pad2)*
G04 #@! TO.C,K9*
X210502000Y-64135000D02*
X211811990Y-62674992D01*
D13*
G04 #@! TO.P,K9,1*
G04 #@! TO.N,ColI*
X216852000Y-61595000D03*
X216831771Y-61884984D03*
D14*
G04 #@! TD*
G04 #@! TO.N,ColI*
G04 #@! TO.C,K9*
X216812000Y-62175000D02*
X216851542Y-61594968D01*
D13*
G04 #@! TO.P,K10,1*
G04 #@! TO.N,ColJ*
X235881771Y-61884984D03*
D14*
G04 #@! TD*
G04 #@! TO.N,ColJ*
G04 #@! TO.C,K10*
X235862000Y-62175000D02*
X235901542Y-61594968D01*
D13*
G04 #@! TO.P,K10,1*
G04 #@! TO.N,ColJ*
X235902000Y-61595000D03*
G04 #@! TO.P,K10,2*
G04 #@! TO.N,Net-(D10-Pad2)*
X230206995Y-63404996D03*
D14*
G04 #@! TD*
G04 #@! TO.N,Net-(D10-Pad2)*
G04 #@! TO.C,K10*
X229552000Y-64135000D02*
X230861990Y-62674992D01*
D13*
G04 #@! TO.P,K10,2*
G04 #@! TO.N,Net-(D10-Pad2)*
X230862000Y-62675000D03*
D12*
G04 #@! TO.P,K10,1*
G04 #@! TO.N,ColJ*
X238362000Y-62875000D03*
G04 #@! TO.P,K10,2*
G04 #@! TO.N,Net-(D10-Pad2)*
X233362000Y-60775000D03*
G04 #@! TD*
G04 #@! TO.P,K11,2*
G04 #@! TO.N,Net-(D11-Pad2)*
X252412000Y-60775000D03*
G04 #@! TO.P,K11,1*
G04 #@! TO.N,ColA*
X257412000Y-62875000D03*
D13*
G04 #@! TO.P,K11,2*
G04 #@! TO.N,Net-(D11-Pad2)*
X249912000Y-62675000D03*
X249256995Y-63404996D03*
D14*
G04 #@! TD*
G04 #@! TO.N,Net-(D11-Pad2)*
G04 #@! TO.C,K11*
X248602000Y-64135000D02*
X249911990Y-62674992D01*
D13*
G04 #@! TO.P,K11,1*
G04 #@! TO.N,ColA*
X254952000Y-61595000D03*
X254931771Y-61884984D03*
D14*
G04 #@! TD*
G04 #@! TO.N,ColA*
G04 #@! TO.C,K11*
X254912000Y-62175000D02*
X254951542Y-61594968D01*
D12*
G04 #@! TO.P,K12,2*
G04 #@! TO.N,Net-(D12-Pad2)*
X271462000Y-60775000D03*
G04 #@! TO.P,K12,1*
G04 #@! TO.N,ColB*
X276462000Y-62875000D03*
D13*
G04 #@! TO.P,K12,2*
G04 #@! TO.N,Net-(D12-Pad2)*
X268962000Y-62675000D03*
X268306995Y-63404996D03*
D14*
G04 #@! TD*
G04 #@! TO.N,Net-(D12-Pad2)*
G04 #@! TO.C,K12*
X267652000Y-64135000D02*
X268961990Y-62674992D01*
D13*
G04 #@! TO.P,K12,1*
G04 #@! TO.N,ColB*
X274002000Y-61595000D03*
X273981771Y-61884984D03*
D14*
G04 #@! TD*
G04 #@! TO.N,ColB*
G04 #@! TO.C,K12*
X273962000Y-62175000D02*
X274001542Y-61594968D01*
D12*
G04 #@! TO.P,K14,2*
G04 #@! TO.N,Net-(D14-Pad2)*
X61912500Y-79825000D03*
G04 #@! TO.P,K14,1*
G04 #@! TO.N,ColA*
X66912500Y-81925000D03*
D13*
G04 #@! TO.P,K14,2*
G04 #@! TO.N,Net-(D14-Pad2)*
X59412500Y-81725000D03*
X58757495Y-82454996D03*
D14*
G04 #@! TD*
G04 #@! TO.N,Net-(D14-Pad2)*
G04 #@! TO.C,K14*
X58102500Y-83185000D02*
X59412490Y-81724992D01*
D13*
G04 #@! TO.P,K14,1*
G04 #@! TO.N,ColA*
X64452500Y-80645000D03*
X64432271Y-80934984D03*
D14*
G04 #@! TD*
G04 #@! TO.N,ColA*
G04 #@! TO.C,K14*
X64412500Y-81225000D02*
X64452042Y-80644968D01*
D12*
G04 #@! TO.P,K15,2*
G04 #@! TO.N,Net-(D15-Pad2)*
X80962500Y-79825000D03*
G04 #@! TO.P,K15,1*
G04 #@! TO.N,ColB*
X85962500Y-81925000D03*
D13*
G04 #@! TO.P,K15,2*
G04 #@! TO.N,Net-(D15-Pad2)*
X78462500Y-81725000D03*
X77807495Y-82454996D03*
D14*
G04 #@! TD*
G04 #@! TO.N,Net-(D15-Pad2)*
G04 #@! TO.C,K15*
X77152500Y-83185000D02*
X78462490Y-81724992D01*
D13*
G04 #@! TO.P,K15,1*
G04 #@! TO.N,ColB*
X83502500Y-80645000D03*
X83482271Y-80934984D03*
D14*
G04 #@! TD*
G04 #@! TO.N,ColB*
G04 #@! TO.C,K15*
X83462500Y-81225000D02*
X83502042Y-80644968D01*
D12*
G04 #@! TO.P,K16,2*
G04 #@! TO.N,Net-(D16-Pad2)*
X100012000Y-79825000D03*
G04 #@! TO.P,K16,1*
G04 #@! TO.N,ColC*
X105012000Y-81925000D03*
D13*
G04 #@! TO.P,K16,2*
G04 #@! TO.N,Net-(D16-Pad2)*
X97512000Y-81725000D03*
X96856995Y-82454996D03*
D14*
G04 #@! TD*
G04 #@! TO.N,Net-(D16-Pad2)*
G04 #@! TO.C,K16*
X96202000Y-83185000D02*
X97511990Y-81724992D01*
D13*
G04 #@! TO.P,K16,1*
G04 #@! TO.N,ColC*
X102552000Y-80645000D03*
X102531771Y-80934984D03*
D14*
G04 #@! TD*
G04 #@! TO.N,ColC*
G04 #@! TO.C,K16*
X102512000Y-81225000D02*
X102551542Y-80644968D01*
D12*
G04 #@! TO.P,K17,2*
G04 #@! TO.N,Net-(D17-Pad2)*
X119062000Y-79825000D03*
G04 #@! TO.P,K17,1*
G04 #@! TO.N,ColD*
X124062000Y-81925000D03*
D13*
G04 #@! TO.P,K17,2*
G04 #@! TO.N,Net-(D17-Pad2)*
X116562000Y-81725000D03*
X115906995Y-82454996D03*
D14*
G04 #@! TD*
G04 #@! TO.N,Net-(D17-Pad2)*
G04 #@! TO.C,K17*
X115252000Y-83185000D02*
X116561990Y-81724992D01*
D13*
G04 #@! TO.P,K17,1*
G04 #@! TO.N,ColD*
X121602000Y-80645000D03*
X121581771Y-80934984D03*
D14*
G04 #@! TD*
G04 #@! TO.N,ColD*
G04 #@! TO.C,K17*
X121562000Y-81225000D02*
X121601542Y-80644968D01*
D12*
G04 #@! TO.P,K18,2*
G04 #@! TO.N,Net-(D18-Pad2)*
X138112000Y-79825000D03*
G04 #@! TO.P,K18,1*
G04 #@! TO.N,ColE*
X143112000Y-81925000D03*
D13*
G04 #@! TO.P,K18,2*
G04 #@! TO.N,Net-(D18-Pad2)*
X135612000Y-81725000D03*
X134956995Y-82454996D03*
D14*
G04 #@! TD*
G04 #@! TO.N,Net-(D18-Pad2)*
G04 #@! TO.C,K18*
X134302000Y-83185000D02*
X135611990Y-81724992D01*
D13*
G04 #@! TO.P,K18,1*
G04 #@! TO.N,ColE*
X140652000Y-80645000D03*
X140631771Y-80934984D03*
D14*
G04 #@! TD*
G04 #@! TO.N,ColE*
G04 #@! TO.C,K18*
X140612000Y-81225000D02*
X140651542Y-80644968D01*
D12*
G04 #@! TO.P,K19,2*
G04 #@! TO.N,Net-(D19-Pad2)*
X157162000Y-79825000D03*
G04 #@! TO.P,K19,1*
G04 #@! TO.N,ColF*
X162162000Y-81925000D03*
D13*
G04 #@! TO.P,K19,2*
G04 #@! TO.N,Net-(D19-Pad2)*
X154662000Y-81725000D03*
X154006995Y-82454996D03*
D14*
G04 #@! TD*
G04 #@! TO.N,Net-(D19-Pad2)*
G04 #@! TO.C,K19*
X153352000Y-83185000D02*
X154661990Y-81724992D01*
D13*
G04 #@! TO.P,K19,1*
G04 #@! TO.N,ColF*
X159702000Y-80645000D03*
X159681771Y-80934984D03*
D14*
G04 #@! TD*
G04 #@! TO.N,ColF*
G04 #@! TO.C,K19*
X159662000Y-81225000D02*
X159701542Y-80644968D01*
D12*
G04 #@! TO.P,K20,2*
G04 #@! TO.N,Net-(D20-Pad2)*
X176212000Y-79825000D03*
G04 #@! TO.P,K20,1*
G04 #@! TO.N,ColG*
X181212000Y-81925000D03*
D13*
G04 #@! TO.P,K20,2*
G04 #@! TO.N,Net-(D20-Pad2)*
X173712000Y-81725000D03*
X173056995Y-82454996D03*
D14*
G04 #@! TD*
G04 #@! TO.N,Net-(D20-Pad2)*
G04 #@! TO.C,K20*
X172402000Y-83185000D02*
X173711990Y-81724992D01*
D13*
G04 #@! TO.P,K20,1*
G04 #@! TO.N,ColG*
X178752000Y-80645000D03*
X178731771Y-80934984D03*
D14*
G04 #@! TD*
G04 #@! TO.N,ColG*
G04 #@! TO.C,K20*
X178712000Y-81225000D02*
X178751542Y-80644968D01*
D12*
G04 #@! TO.P,K21,2*
G04 #@! TO.N,Net-(D21-Pad2)*
X195262000Y-79825000D03*
G04 #@! TO.P,K21,1*
G04 #@! TO.N,ColH*
X200262000Y-81925000D03*
D13*
G04 #@! TO.P,K21,2*
G04 #@! TO.N,Net-(D21-Pad2)*
X192762000Y-81725000D03*
X192106995Y-82454996D03*
D14*
G04 #@! TD*
G04 #@! TO.N,Net-(D21-Pad2)*
G04 #@! TO.C,K21*
X191452000Y-83185000D02*
X192761990Y-81724992D01*
D13*
G04 #@! TO.P,K21,1*
G04 #@! TO.N,ColH*
X197802000Y-80645000D03*
X197781771Y-80934984D03*
D14*
G04 #@! TD*
G04 #@! TO.N,ColH*
G04 #@! TO.C,K21*
X197762000Y-81225000D02*
X197801542Y-80644968D01*
D13*
G04 #@! TO.P,K22,1*
G04 #@! TO.N,ColI*
X216831771Y-80934984D03*
D14*
G04 #@! TD*
G04 #@! TO.N,ColI*
G04 #@! TO.C,K22*
X216812000Y-81225000D02*
X216851542Y-80644968D01*
D13*
G04 #@! TO.P,K22,1*
G04 #@! TO.N,ColI*
X216852000Y-80645000D03*
G04 #@! TO.P,K22,2*
G04 #@! TO.N,Net-(D22-Pad2)*
X211156995Y-82454996D03*
D14*
G04 #@! TD*
G04 #@! TO.N,Net-(D22-Pad2)*
G04 #@! TO.C,K22*
X210502000Y-83185000D02*
X211811990Y-81724992D01*
D13*
G04 #@! TO.P,K22,2*
G04 #@! TO.N,Net-(D22-Pad2)*
X211812000Y-81725000D03*
D12*
G04 #@! TO.P,K22,1*
G04 #@! TO.N,ColI*
X219312000Y-81925000D03*
G04 #@! TO.P,K22,2*
G04 #@! TO.N,Net-(D22-Pad2)*
X214312000Y-79825000D03*
G04 #@! TD*
D13*
G04 #@! TO.P,K23,1*
G04 #@! TO.N,ColJ*
X235881771Y-80934984D03*
D14*
G04 #@! TD*
G04 #@! TO.N,ColJ*
G04 #@! TO.C,K23*
X235862000Y-81225000D02*
X235901542Y-80644968D01*
D13*
G04 #@! TO.P,K23,1*
G04 #@! TO.N,ColJ*
X235902000Y-80645000D03*
G04 #@! TO.P,K23,2*
G04 #@! TO.N,Net-(D23-Pad2)*
X230206995Y-82454996D03*
D14*
G04 #@! TD*
G04 #@! TO.N,Net-(D23-Pad2)*
G04 #@! TO.C,K23*
X229552000Y-83185000D02*
X230861990Y-81724992D01*
D13*
G04 #@! TO.P,K23,2*
G04 #@! TO.N,Net-(D23-Pad2)*
X230862000Y-81725000D03*
D12*
G04 #@! TO.P,K23,1*
G04 #@! TO.N,ColJ*
X238362000Y-81925000D03*
G04 #@! TO.P,K23,2*
G04 #@! TO.N,Net-(D23-Pad2)*
X233362000Y-79825000D03*
G04 #@! TD*
D13*
G04 #@! TO.P,K24,1*
G04 #@! TO.N,ColD*
X254931771Y-80934984D03*
D14*
G04 #@! TD*
G04 #@! TO.N,ColD*
G04 #@! TO.C,K24*
X254912000Y-81225000D02*
X254951542Y-80644968D01*
D13*
G04 #@! TO.P,K24,1*
G04 #@! TO.N,ColD*
X254952000Y-80645000D03*
G04 #@! TO.P,K24,2*
G04 #@! TO.N,Net-(D24-Pad2)*
X249256995Y-82454996D03*
D14*
G04 #@! TD*
G04 #@! TO.N,Net-(D24-Pad2)*
G04 #@! TO.C,K24*
X248602000Y-83185000D02*
X249911990Y-81724992D01*
D13*
G04 #@! TO.P,K24,2*
G04 #@! TO.N,Net-(D24-Pad2)*
X249912000Y-81725000D03*
D12*
G04 #@! TO.P,K24,1*
G04 #@! TO.N,ColD*
X257412000Y-81925000D03*
G04 #@! TO.P,K24,2*
G04 #@! TO.N,Net-(D24-Pad2)*
X252412000Y-79825000D03*
G04 #@! TD*
D13*
G04 #@! TO.P,K25,1*
G04 #@! TO.N,ColE*
X273981771Y-80934984D03*
D14*
G04 #@! TD*
G04 #@! TO.N,ColE*
G04 #@! TO.C,K25*
X273962000Y-81225000D02*
X274001542Y-80644968D01*
D13*
G04 #@! TO.P,K25,1*
G04 #@! TO.N,ColE*
X274002000Y-80645000D03*
G04 #@! TO.P,K25,2*
G04 #@! TO.N,Net-(D25-Pad2)*
X268306995Y-82454996D03*
D14*
G04 #@! TD*
G04 #@! TO.N,Net-(D25-Pad2)*
G04 #@! TO.C,K25*
X267652000Y-83185000D02*
X268961990Y-81724992D01*
D13*
G04 #@! TO.P,K25,2*
G04 #@! TO.N,Net-(D25-Pad2)*
X268962000Y-81725000D03*
D12*
G04 #@! TO.P,K25,1*
G04 #@! TO.N,ColE*
X276462000Y-81925000D03*
G04 #@! TO.P,K25,2*
G04 #@! TO.N,Net-(D25-Pad2)*
X271462000Y-79825000D03*
G04 #@! TD*
D13*
G04 #@! TO.P,K27,1*
G04 #@! TO.N,ColA*
X64432271Y-99984984D03*
D14*
G04 #@! TD*
G04 #@! TO.N,ColA*
G04 #@! TO.C,K27*
X64412500Y-100275000D02*
X64452042Y-99694968D01*
D13*
G04 #@! TO.P,K27,1*
G04 #@! TO.N,ColA*
X64452500Y-99695000D03*
G04 #@! TO.P,K27,2*
G04 #@! TO.N,Net-(D27-Pad2)*
X58757495Y-101504996D03*
D14*
G04 #@! TD*
G04 #@! TO.N,Net-(D27-Pad2)*
G04 #@! TO.C,K27*
X58102500Y-102235000D02*
X59412490Y-100774992D01*
D13*
G04 #@! TO.P,K27,2*
G04 #@! TO.N,Net-(D27-Pad2)*
X59412500Y-100775000D03*
D12*
G04 #@! TO.P,K27,1*
G04 #@! TO.N,ColA*
X66912500Y-100975000D03*
G04 #@! TO.P,K27,2*
G04 #@! TO.N,Net-(D27-Pad2)*
X61912500Y-98875000D03*
G04 #@! TD*
D13*
G04 #@! TO.P,K28,1*
G04 #@! TO.N,ColB*
X83482271Y-99984984D03*
D14*
G04 #@! TD*
G04 #@! TO.N,ColB*
G04 #@! TO.C,K28*
X83462500Y-100275000D02*
X83502042Y-99694968D01*
D13*
G04 #@! TO.P,K28,1*
G04 #@! TO.N,ColB*
X83502500Y-99695000D03*
G04 #@! TO.P,K28,2*
G04 #@! TO.N,Net-(D28-Pad2)*
X77807495Y-101504996D03*
D14*
G04 #@! TD*
G04 #@! TO.N,Net-(D28-Pad2)*
G04 #@! TO.C,K28*
X77152500Y-102235000D02*
X78462490Y-100774992D01*
D13*
G04 #@! TO.P,K28,2*
G04 #@! TO.N,Net-(D28-Pad2)*
X78462500Y-100775000D03*
D12*
G04 #@! TO.P,K28,1*
G04 #@! TO.N,ColB*
X85962500Y-100975000D03*
G04 #@! TO.P,K28,2*
G04 #@! TO.N,Net-(D28-Pad2)*
X80962500Y-98875000D03*
G04 #@! TD*
D13*
G04 #@! TO.P,K29,1*
G04 #@! TO.N,ColC*
X102531771Y-99984984D03*
D14*
G04 #@! TD*
G04 #@! TO.N,ColC*
G04 #@! TO.C,K29*
X102512000Y-100275000D02*
X102551542Y-99694968D01*
D13*
G04 #@! TO.P,K29,1*
G04 #@! TO.N,ColC*
X102552000Y-99695000D03*
G04 #@! TO.P,K29,2*
G04 #@! TO.N,Net-(D29-Pad2)*
X96856995Y-101504996D03*
D14*
G04 #@! TD*
G04 #@! TO.N,Net-(D29-Pad2)*
G04 #@! TO.C,K29*
X96202000Y-102235000D02*
X97511990Y-100774992D01*
D13*
G04 #@! TO.P,K29,2*
G04 #@! TO.N,Net-(D29-Pad2)*
X97512000Y-100775000D03*
D12*
G04 #@! TO.P,K29,1*
G04 #@! TO.N,ColC*
X105012000Y-100975000D03*
G04 #@! TO.P,K29,2*
G04 #@! TO.N,Net-(D29-Pad2)*
X100012000Y-98875000D03*
G04 #@! TD*
D13*
G04 #@! TO.P,K30,1*
G04 #@! TO.N,ColD*
X121581771Y-99984984D03*
D14*
G04 #@! TD*
G04 #@! TO.N,ColD*
G04 #@! TO.C,K30*
X121562000Y-100275000D02*
X121601542Y-99694968D01*
D13*
G04 #@! TO.P,K30,1*
G04 #@! TO.N,ColD*
X121602000Y-99695000D03*
G04 #@! TO.P,K30,2*
G04 #@! TO.N,Net-(D30-Pad2)*
X115906995Y-101504996D03*
D14*
G04 #@! TD*
G04 #@! TO.N,Net-(D30-Pad2)*
G04 #@! TO.C,K30*
X115252000Y-102235000D02*
X116561990Y-100774992D01*
D13*
G04 #@! TO.P,K30,2*
G04 #@! TO.N,Net-(D30-Pad2)*
X116562000Y-100775000D03*
D12*
G04 #@! TO.P,K30,1*
G04 #@! TO.N,ColD*
X124062000Y-100975000D03*
G04 #@! TO.P,K30,2*
G04 #@! TO.N,Net-(D30-Pad2)*
X119062000Y-98875000D03*
G04 #@! TD*
D13*
G04 #@! TO.P,K31,1*
G04 #@! TO.N,ColE*
X140631771Y-99984984D03*
D14*
G04 #@! TD*
G04 #@! TO.N,ColE*
G04 #@! TO.C,K31*
X140612000Y-100275000D02*
X140651542Y-99694968D01*
D13*
G04 #@! TO.P,K31,1*
G04 #@! TO.N,ColE*
X140652000Y-99695000D03*
G04 #@! TO.P,K31,2*
G04 #@! TO.N,Net-(D31-Pad2)*
X134956995Y-101504996D03*
D14*
G04 #@! TD*
G04 #@! TO.N,Net-(D31-Pad2)*
G04 #@! TO.C,K31*
X134302000Y-102235000D02*
X135611990Y-100774992D01*
D13*
G04 #@! TO.P,K31,2*
G04 #@! TO.N,Net-(D31-Pad2)*
X135612000Y-100775000D03*
D12*
G04 #@! TO.P,K31,1*
G04 #@! TO.N,ColE*
X143112000Y-100975000D03*
G04 #@! TO.P,K31,2*
G04 #@! TO.N,Net-(D31-Pad2)*
X138112000Y-98875000D03*
G04 #@! TD*
G04 #@! TO.P,K32,2*
G04 #@! TO.N,Net-(D32-Pad2)*
X157162000Y-98875000D03*
G04 #@! TO.P,K32,1*
G04 #@! TO.N,ColF*
X162162000Y-100975000D03*
D13*
G04 #@! TO.P,K32,2*
G04 #@! TO.N,Net-(D32-Pad2)*
X154662000Y-100775000D03*
X154006995Y-101504996D03*
D14*
G04 #@! TD*
G04 #@! TO.N,Net-(D32-Pad2)*
G04 #@! TO.C,K32*
X153352000Y-102235000D02*
X154661990Y-100774992D01*
D13*
G04 #@! TO.P,K32,1*
G04 #@! TO.N,ColF*
X159702000Y-99695000D03*
X159681771Y-99984984D03*
D14*
G04 #@! TD*
G04 #@! TO.N,ColF*
G04 #@! TO.C,K32*
X159662000Y-100275000D02*
X159701542Y-99694968D01*
D13*
G04 #@! TO.P,K33,1*
G04 #@! TO.N,ColG*
X178731771Y-99984984D03*
D14*
G04 #@! TD*
G04 #@! TO.N,ColG*
G04 #@! TO.C,K33*
X178712000Y-100275000D02*
X178751542Y-99694968D01*
D13*
G04 #@! TO.P,K33,1*
G04 #@! TO.N,ColG*
X178752000Y-99695000D03*
G04 #@! TO.P,K33,2*
G04 #@! TO.N,Net-(D33-Pad2)*
X173056995Y-101504996D03*
D14*
G04 #@! TD*
G04 #@! TO.N,Net-(D33-Pad2)*
G04 #@! TO.C,K33*
X172402000Y-102235000D02*
X173711990Y-100774992D01*
D13*
G04 #@! TO.P,K33,2*
G04 #@! TO.N,Net-(D33-Pad2)*
X173712000Y-100775000D03*
D12*
G04 #@! TO.P,K33,1*
G04 #@! TO.N,ColG*
X181212000Y-100975000D03*
G04 #@! TO.P,K33,2*
G04 #@! TO.N,Net-(D33-Pad2)*
X176212000Y-98875000D03*
G04 #@! TD*
D13*
G04 #@! TO.P,K34,1*
G04 #@! TO.N,ColH*
X197781771Y-99984984D03*
D14*
G04 #@! TD*
G04 #@! TO.N,ColH*
G04 #@! TO.C,K34*
X197762000Y-100275000D02*
X197801542Y-99694968D01*
D13*
G04 #@! TO.P,K34,1*
G04 #@! TO.N,ColH*
X197802000Y-99695000D03*
G04 #@! TO.P,K34,2*
G04 #@! TO.N,Net-(D34-Pad2)*
X192106995Y-101504996D03*
D14*
G04 #@! TD*
G04 #@! TO.N,Net-(D34-Pad2)*
G04 #@! TO.C,K34*
X191452000Y-102235000D02*
X192761990Y-100774992D01*
D13*
G04 #@! TO.P,K34,2*
G04 #@! TO.N,Net-(D34-Pad2)*
X192762000Y-100775000D03*
D12*
G04 #@! TO.P,K34,1*
G04 #@! TO.N,ColH*
X200262000Y-100975000D03*
G04 #@! TO.P,K34,2*
G04 #@! TO.N,Net-(D34-Pad2)*
X195262000Y-98875000D03*
G04 #@! TD*
D13*
G04 #@! TO.P,K35,1*
G04 #@! TO.N,ColI*
X216831771Y-99984984D03*
D14*
G04 #@! TD*
G04 #@! TO.N,ColI*
G04 #@! TO.C,K35*
X216812000Y-100275000D02*
X216851542Y-99694968D01*
D13*
G04 #@! TO.P,K35,1*
G04 #@! TO.N,ColI*
X216852000Y-99695000D03*
G04 #@! TO.P,K35,2*
G04 #@! TO.N,Net-(D35-Pad2)*
X211156995Y-101504996D03*
D14*
G04 #@! TD*
G04 #@! TO.N,Net-(D35-Pad2)*
G04 #@! TO.C,K35*
X210502000Y-102235000D02*
X211811990Y-100774992D01*
D13*
G04 #@! TO.P,K35,2*
G04 #@! TO.N,Net-(D35-Pad2)*
X211812000Y-100775000D03*
D12*
G04 #@! TO.P,K35,1*
G04 #@! TO.N,ColI*
X219312000Y-100975000D03*
G04 #@! TO.P,K35,2*
G04 #@! TO.N,Net-(D35-Pad2)*
X214312000Y-98875000D03*
G04 #@! TD*
D13*
G04 #@! TO.P,K36,1*
G04 #@! TO.N,ColJ*
X235881771Y-99984984D03*
D14*
G04 #@! TD*
G04 #@! TO.N,ColJ*
G04 #@! TO.C,K36*
X235862000Y-100275000D02*
X235901542Y-99694968D01*
D13*
G04 #@! TO.P,K36,1*
G04 #@! TO.N,ColJ*
X235902000Y-99695000D03*
G04 #@! TO.P,K36,2*
G04 #@! TO.N,Net-(D36-Pad2)*
X230206995Y-101504996D03*
D14*
G04 #@! TD*
G04 #@! TO.N,Net-(D36-Pad2)*
G04 #@! TO.C,K36*
X229552000Y-102235000D02*
X230861990Y-100774992D01*
D13*
G04 #@! TO.P,K36,2*
G04 #@! TO.N,Net-(D36-Pad2)*
X230862000Y-100775000D03*
D12*
G04 #@! TO.P,K36,1*
G04 #@! TO.N,ColJ*
X238362000Y-100975000D03*
G04 #@! TO.P,K36,2*
G04 #@! TO.N,Net-(D36-Pad2)*
X233362000Y-98875000D03*
G04 #@! TD*
D13*
G04 #@! TO.P,K37,1*
G04 #@! TO.N,ColG*
X254931771Y-99984984D03*
D14*
G04 #@! TD*
G04 #@! TO.N,ColG*
G04 #@! TO.C,K37*
X254912000Y-100275000D02*
X254951542Y-99694968D01*
D13*
G04 #@! TO.P,K37,1*
G04 #@! TO.N,ColG*
X254952000Y-99695000D03*
G04 #@! TO.P,K37,2*
G04 #@! TO.N,Net-(D37-Pad2)*
X249256995Y-101504996D03*
D14*
G04 #@! TD*
G04 #@! TO.N,Net-(D37-Pad2)*
G04 #@! TO.C,K37*
X248602000Y-102235000D02*
X249911990Y-100774992D01*
D13*
G04 #@! TO.P,K37,2*
G04 #@! TO.N,Net-(D37-Pad2)*
X249912000Y-100775000D03*
D12*
G04 #@! TO.P,K37,1*
G04 #@! TO.N,ColG*
X257412000Y-100975000D03*
G04 #@! TO.P,K37,2*
G04 #@! TO.N,Net-(D37-Pad2)*
X252412000Y-98875000D03*
G04 #@! TD*
D13*
G04 #@! TO.P,K_1.25u1,1*
G04 #@! TO.N,ColH*
X276419771Y-100009984D03*
D14*
G04 #@! TD*
G04 #@! TO.N,ColH*
G04 #@! TO.C,K_1.25u1*
X276400000Y-100300000D02*
X276439542Y-99719968D01*
D13*
G04 #@! TO.P,K_1.25u1,1*
G04 #@! TO.N,ColH*
X276440000Y-99720000D03*
G04 #@! TO.P,K_1.25u1,2*
G04 #@! TO.N,Net-(D_1.25u1-Pad2)*
X270744995Y-101529996D03*
D14*
G04 #@! TD*
G04 #@! TO.N,Net-(D_1.25u1-Pad2)*
G04 #@! TO.C,K_1.25u1*
X270090000Y-102260000D02*
X271399990Y-100799992D01*
D13*
G04 #@! TO.P,K_1.25u1,2*
G04 #@! TO.N,Net-(D_1.25u1-Pad2)*
X271400000Y-100800000D03*
D12*
G04 #@! TO.P,K_1.25u1,1*
G04 #@! TO.N,ColH*
X278900000Y-101000000D03*
G04 #@! TO.P,K_1.25u1,2*
G04 #@! TO.N,Net-(D_1.25u1-Pad2)*
X273900000Y-98900000D03*
G04 #@! TD*
D13*
G04 #@! TO.P,K_BCKSPC1,1*
G04 #@! TO.N,ColC*
X297794771Y-61884984D03*
D14*
G04 #@! TD*
G04 #@! TO.N,ColC*
G04 #@! TO.C,K_BCKSPC1*
X297775000Y-62175000D02*
X297814542Y-61594968D01*
D13*
G04 #@! TO.P,K_BCKSPC1,1*
G04 #@! TO.N,ColC*
X297815000Y-61595000D03*
G04 #@! TO.P,K_BCKSPC1,2*
G04 #@! TO.N,Net-(D13-Pad2)*
X292119995Y-63404996D03*
D14*
G04 #@! TD*
G04 #@! TO.N,Net-(D13-Pad2)*
G04 #@! TO.C,K_BCKSPC1*
X291465000Y-64135000D02*
X292774990Y-62674992D01*
D13*
G04 #@! TO.P,K_BCKSPC1,2*
G04 #@! TO.N,Net-(D13-Pad2)*
X292775000Y-62675000D03*
D12*
G04 #@! TO.P,K_BCKSPC1,1*
G04 #@! TO.N,ColC*
X300275000Y-62875000D03*
G04 #@! TO.P,K_BCKSPC1,2*
G04 #@! TO.N,Net-(D13-Pad2)*
X295275000Y-60775000D03*
G04 #@! TD*
D16*
G04 #@! TO.P,D_ISOENTR1,1*
G04 #@! TO.N,RowD*
X283600000Y-90200000D03*
D15*
G04 #@! TO.P,D_ISOENTR1,2*
G04 #@! TO.N,Net-(D_ISOENTR1-Pad2)*
X283600000Y-82400000D03*
G04 #@! TD*
D17*
G04 #@! TO.P,LED_DATA1,1*
G04 #@! TO.N,RGB*
X53700000Y-96800000D03*
G04 #@! TD*
G04 #@! TO.P,LED_GND1,1*
G04 #@! TO.N,GND*
X53700000Y-99500000D03*
G04 #@! TD*
G04 #@! TO.P,LED_PWR1,1*
G04 #@! TO.N,RGB_PWR*
X53600000Y-93400000D03*
G04 #@! TD*
D21*
G04 #@! TO.P,M3_1,1*
G04 #@! TO.N,N/C*
X71420000Y-76220000D03*
G04 #@! TD*
G04 #@! TO.P,M3_3,1*
G04 #@! TO.N,N/C*
X128520000Y-76250000D03*
G04 #@! TD*
G04 #@! TO.P,M3_4,1*
G04 #@! TO.N,N/C*
X185390000Y-76190000D03*
G04 #@! TD*
G04 #@! TO.P,M3_2,1*
G04 #@! TO.N,N/C*
X90450000Y-107200000D03*
G04 #@! TD*
G04 #@! TO.P,M3_6,1*
G04 #@! TO.N,N/C*
X242900000Y-76030000D03*
G04 #@! TD*
G04 #@! TO.P,M3_5,1*
G04 #@! TO.N,N/C*
X204810000Y-109540000D03*
G04 #@! TD*
G04 #@! TO.P,M3_7,1*
G04 #@! TO.N,N/C*
X296510000Y-77420000D03*
G04 #@! TD*
D22*
G04 #@! TO.N,Net-(D3-Pad2)*
X86867100Y-69561900D03*
G04 #@! TO.N,RowB*
X106372500Y-79788700D03*
G04 #@! TO.N,ColE*
X87539600Y-68319300D03*
X105451300Y-61271900D03*
G04 #@! TO.N,ColH*
X87875200Y-79648900D03*
G04 #@! TO.N,EncA*
X103232700Y-56909900D03*
G04 #@! TO.N,GND*
X141942500Y-68717200D03*
G04 #@! TO.N,RGB*
X64896400Y-72548300D03*
X112597300Y-69480500D03*
G04 #@! TD*
D23*
G04 #@! TO.N,Net-(D3-Pad2)*
X86867100Y-69561900D02*
X87322800Y-69561900D01*
X87322800Y-69561900D02*
X88264900Y-68619800D01*
X88264900Y-68619800D02*
X88264900Y-68545800D01*
X88264900Y-68545800D02*
X92019000Y-64791700D01*
X92019000Y-64791700D02*
X95545300Y-64791700D01*
X95545300Y-64791700D02*
X96202000Y-64135000D01*
G04 #@! TO.N,Net-(D5-Pad2)*
X131650370Y-64135000D02*
X134302000Y-64135000D01*
X131179370Y-63664000D02*
X131650370Y-64135000D01*
X130048000Y-63664000D02*
X131179370Y-63664000D01*
G04 #@! TO.N,Net-(D6-Pad2)*
X152373000Y-63156000D02*
X153352000Y-64135000D01*
X147828000Y-63156000D02*
X152373000Y-63156000D01*
G04 #@! TO.N,Net-(D13-Pad2)*
X290994000Y-63664000D02*
X291465000Y-64135000D01*
X283464000Y-63664000D02*
X290994000Y-63664000D01*
G04 #@! TO.N,Net-(D14-Pad2)*
X61912500Y-79825000D02*
X62552300Y-79185200D01*
X62552300Y-79185200D02*
X66778200Y-79185200D01*
X66778200Y-79185200D02*
X70104000Y-82511000D01*
X59412500Y-81725000D02*
X60012500Y-81725000D01*
X60012500Y-81725000D02*
X61912500Y-79825000D01*
G04 #@! TO.N,Net-(D16-Pad2)*
X99211900Y-80625100D02*
X100012000Y-79825000D01*
X97512000Y-81725000D02*
X98112000Y-81725000D01*
X98112000Y-81725000D02*
X99211900Y-80625100D01*
X99211900Y-80625100D02*
X101837100Y-83250400D01*
X101837100Y-83250400D02*
X108488300Y-83250400D01*
X108488300Y-83250400D02*
X109139000Y-82599700D01*
X109139000Y-82599700D02*
X110893900Y-82599700D01*
X110893900Y-82599700D02*
X118817600Y-74676000D01*
X118817600Y-74676000D02*
X123788000Y-74676000D01*
G04 #@! TO.N,Net-(D17-Pad2)*
X115252000Y-83185000D02*
X116345900Y-84166500D01*
X116345900Y-84166500D02*
X116724600Y-83787800D01*
X116724600Y-83787800D02*
X116724600Y-82561300D01*
X116724600Y-82561300D02*
X116562000Y-82398700D01*
X116562000Y-82398700D02*
X116562000Y-81725000D01*
X119062000Y-79825000D02*
X119721800Y-79165200D01*
X119721800Y-79165200D02*
X125765200Y-79165200D01*
X125765200Y-79165200D02*
X127800000Y-81200000D01*
G04 #@! TO.N,Net-(D18-Pad2)*
X137328500Y-80608500D02*
X138112000Y-79825000D01*
X135612000Y-81725000D02*
X136212000Y-81725000D01*
X136212000Y-81725000D02*
X137328500Y-80608500D01*
X137328500Y-80608500D02*
X139984900Y-83265000D01*
X139984900Y-83265000D02*
X146995000Y-83265000D01*
X146995000Y-83265000D02*
X147530000Y-82730000D01*
X135395900Y-84166500D02*
X135774600Y-83787800D01*
X135774600Y-83787800D02*
X135774600Y-82561300D01*
X135774600Y-82561300D02*
X135612000Y-82398700D01*
X135612000Y-82398700D02*
X135612000Y-81725000D01*
X134302000Y-83185000D02*
X135395900Y-84166500D01*
G04 #@! TO.N,Net-(D19-Pad2)*
X157162000Y-79825000D02*
X157816900Y-79170100D01*
X157816900Y-79170100D02*
X165070100Y-79170100D01*
X165070100Y-79170100D02*
X166700000Y-80800000D01*
G04 #@! TO.N,Net-(D20-Pad2)*
X176212000Y-79825000D02*
X176852600Y-79184400D01*
X176852600Y-79184400D02*
X184284400Y-79184400D01*
X184284400Y-79184400D02*
X185800000Y-80700000D01*
G04 #@! TO.N,Net-(D21-Pad2)*
X195262000Y-79825000D02*
X195944100Y-79142900D01*
X195944100Y-79142900D02*
X202642900Y-79142900D01*
X202642900Y-79142900D02*
X204800000Y-81300000D01*
X192762000Y-81725000D02*
X193362000Y-81725000D01*
X193362000Y-81725000D02*
X195262000Y-79825000D01*
G04 #@! TO.N,Net-(D22-Pad2)*
X214312000Y-79825000D02*
X214951000Y-79186000D01*
X214951000Y-79186000D02*
X221786000Y-79186000D01*
X221786000Y-79186000D02*
X224000000Y-81400000D01*
G04 #@! TO.N,Net-(D23-Pad2)*
X233362000Y-79825000D02*
X234009000Y-79178000D01*
X234009000Y-79178000D02*
X239904200Y-79178000D01*
X239904200Y-79178000D02*
X242026200Y-81300000D01*
X242026200Y-81300000D02*
X243300000Y-81300000D01*
G04 #@! TO.N,Net-(D29-Pad2)*
X100012000Y-98875000D02*
X100707600Y-98179400D01*
X100707600Y-98179400D02*
X115963500Y-98179400D01*
X115963500Y-98179400D02*
X116595300Y-97547600D01*
X116595300Y-97547600D02*
X124147600Y-97547600D01*
X124147600Y-97547600D02*
X127300000Y-100700000D01*
G04 #@! TO.N,Net-(D31-Pad2)*
X138112000Y-98875000D02*
X138758800Y-98228200D01*
X138758800Y-98228200D02*
X143168200Y-98228200D01*
X143168200Y-98228200D02*
X146420000Y-101480000D01*
G04 #@! TO.N,Net-(D34-Pad2)*
X191452000Y-102235000D02*
X192545900Y-103216500D01*
X192762000Y-100775000D02*
X192762000Y-101448700D01*
X192762000Y-101448700D02*
X192924600Y-101611300D01*
X192924600Y-101611300D02*
X192924600Y-102837800D01*
X192924600Y-102837800D02*
X192545900Y-103216500D01*
X195262000Y-98875000D02*
X196757000Y-97380000D01*
X196757000Y-97380000D02*
X204870000Y-97380000D01*
G04 #@! TO.N,Net-(D35-Pad2)*
X214312000Y-98875000D02*
X215977000Y-97210000D01*
X215977000Y-97210000D02*
X224000000Y-97210000D01*
X210502000Y-102235000D02*
X211595900Y-103216500D01*
X211812000Y-100775000D02*
X211812000Y-101448700D01*
X211812000Y-101448700D02*
X211974600Y-101611300D01*
X211974600Y-101611300D02*
X211974600Y-102837800D01*
X211974600Y-102837800D02*
X211595900Y-103216500D01*
G04 #@! TO.N,Net-(D36-Pad2)*
X229552000Y-102235000D02*
X230645900Y-103216500D01*
X230862000Y-100775000D02*
X230862000Y-101448700D01*
X230862000Y-101448700D02*
X231024600Y-101611300D01*
X231024600Y-101611300D02*
X231024600Y-102837800D01*
X231024600Y-102837800D02*
X230645900Y-103216500D01*
X233362000Y-98875000D02*
X232762000Y-98875000D01*
X232762000Y-98875000D02*
X230862000Y-100775000D01*
X242850000Y-97460000D02*
X234777000Y-97460000D01*
X234777000Y-97460000D02*
X233362000Y-98875000D01*
G04 #@! TO.N,RowA*
X79625300Y-75300000D02*
X80762400Y-74162900D01*
X80762400Y-74162900D02*
X88786500Y-74162900D01*
X88786500Y-74162900D02*
X89643600Y-75020000D01*
X89643600Y-75020000D02*
X103441800Y-75020000D01*
X103441800Y-75020000D02*
X105918300Y-77496500D01*
X105918300Y-77496500D02*
X108214800Y-77496500D01*
X108214800Y-77496500D02*
X109381300Y-76330000D01*
X109381300Y-76330000D02*
X110325000Y-76330000D01*
X147828000Y-70956000D02*
X146702700Y-70956000D01*
X130048000Y-71464000D02*
X131173300Y-71464000D01*
X131173300Y-71464000D02*
X131525400Y-71816100D01*
X131525400Y-71816100D02*
X145842600Y-71816100D01*
X145842600Y-71816100D02*
X146702700Y-70956000D01*
X127508000Y-71464000D02*
X130048000Y-71464000D01*
X185420000Y-70448000D02*
X184294700Y-70448000D01*
X166411700Y-70448000D02*
X166942900Y-69916800D01*
X166942900Y-69916800D02*
X183763500Y-69916800D01*
X183763500Y-69916800D02*
X184294700Y-70448000D01*
X166411700Y-70448000D02*
X166199300Y-70448000D01*
X166624000Y-70448000D02*
X166411700Y-70448000D01*
X204724000Y-70448000D02*
X203598700Y-70448000D01*
X185420000Y-70448000D02*
X186545300Y-70448000D01*
X186545300Y-70448000D02*
X187052400Y-69940900D01*
X187052400Y-69940900D02*
X203091600Y-69940900D01*
X203091600Y-69940900D02*
X203598700Y-70448000D01*
X223520000Y-70448000D02*
X222394700Y-70448000D01*
X204724000Y-70448000D02*
X205849300Y-70448000D01*
X205849300Y-70448000D02*
X206356400Y-69940900D01*
X206356400Y-69940900D02*
X221887600Y-69940900D01*
X221887600Y-69940900D02*
X222394700Y-70448000D01*
X166061400Y-70448000D02*
X165498700Y-70448000D01*
X166061400Y-70448000D02*
X166199300Y-70448000D01*
X78500000Y-75300000D02*
X79625300Y-75300000D01*
X147828000Y-70956000D02*
X148953300Y-70956000D01*
X165498700Y-70448000D02*
X165000400Y-69949700D01*
X165000400Y-69949700D02*
X149959600Y-69949700D01*
X149959600Y-69949700D02*
X148953300Y-70956000D01*
G04 #@! TO.N,RowB*
X110325000Y-78870000D02*
X109095000Y-80100000D01*
X109095000Y-80100000D02*
X106683800Y-80100000D01*
X106683800Y-80100000D02*
X106372500Y-79788700D01*
X114862700Y-74676000D02*
X110668700Y-78870000D01*
X110668700Y-78870000D02*
X110325000Y-78870000D01*
X72644000Y-90260000D02*
X73769300Y-90260000D01*
X127800000Y-89000000D02*
X119057000Y-89000000D01*
X119057000Y-89000000D02*
X117017000Y-86960000D01*
X117017000Y-86960000D02*
X113071700Y-86960000D01*
X113071700Y-86960000D02*
X111473100Y-85361400D01*
X111473100Y-85361400D02*
X109229300Y-85361400D01*
X109229300Y-85361400D02*
X106546400Y-88044300D01*
X106546400Y-88044300D02*
X94649600Y-88044300D01*
X94649600Y-88044300D02*
X91937700Y-85332400D01*
X91937700Y-85332400D02*
X89545800Y-85332400D01*
X89545800Y-85332400D02*
X86340100Y-88538100D01*
X86340100Y-88538100D02*
X75491200Y-88538100D01*
X75491200Y-88538100D02*
X73769300Y-90260000D01*
X128362700Y-89000000D02*
X127800000Y-89000000D01*
X128362700Y-89000000D02*
X128925300Y-89000000D01*
X128925300Y-89000000D02*
X128941600Y-88983700D01*
X128941600Y-88983700D02*
X144858400Y-88983700D01*
X144858400Y-88983700D02*
X146404700Y-90530000D01*
X115988000Y-74676000D02*
X114862700Y-74676000D01*
X71229300Y-90311000D02*
X71280300Y-90260000D01*
X71280300Y-90260000D02*
X72644000Y-90260000D01*
X185800000Y-88500000D02*
X167925300Y-88500000D01*
X167925300Y-88500000D02*
X167825300Y-88600000D01*
X222874700Y-89200000D02*
X222654900Y-88980200D01*
X222654900Y-88980200D02*
X206045100Y-88980200D01*
X206045100Y-88980200D02*
X205925300Y-89100000D01*
X166700000Y-88600000D02*
X167825300Y-88600000D01*
X204800000Y-89100000D02*
X205925300Y-89100000D01*
X224000000Y-89200000D02*
X222874700Y-89200000D01*
X224562700Y-89200000D02*
X224000000Y-89200000D01*
X224562700Y-89200000D02*
X225125300Y-89200000D01*
X243300000Y-89100000D02*
X242174700Y-89100000D01*
X242174700Y-89100000D02*
X242050400Y-88975700D01*
X242050400Y-88975700D02*
X225349600Y-88975700D01*
X225349600Y-88975700D02*
X225125300Y-89200000D01*
X166700000Y-88600000D02*
X165574700Y-88600000D01*
X165574700Y-88600000D02*
X150585300Y-88600000D01*
X150585300Y-88600000D02*
X148655300Y-90530000D01*
X147530000Y-90530000D02*
X148655300Y-90530000D01*
X147530000Y-90530000D02*
X146404700Y-90530000D01*
X70104000Y-90311000D02*
X71229300Y-90311000D01*
G04 #@! TO.N,RowC*
X222874700Y-105010000D02*
X220755800Y-107128900D01*
X220755800Y-107128900D02*
X207944200Y-107128900D01*
X207944200Y-107128900D02*
X205995300Y-105180000D01*
X70300000Y-108300000D02*
X71425300Y-108300000D01*
X72800000Y-108200000D02*
X71525300Y-108200000D01*
X71525300Y-108200000D02*
X71425300Y-108300000D01*
X204870000Y-105180000D02*
X205995300Y-105180000D01*
X224000000Y-105010000D02*
X222874700Y-105010000D01*
X148930000Y-109300000D02*
X150055300Y-109300000D01*
X185740000Y-105010000D02*
X184614700Y-105010000D01*
X184614700Y-105010000D02*
X183489400Y-106135300D01*
X183489400Y-106135300D02*
X179435300Y-106135300D01*
X179435300Y-106135300D02*
X173567100Y-112003500D01*
X173567100Y-112003500D02*
X161110500Y-112003500D01*
X161110500Y-112003500D02*
X159007500Y-109900500D01*
X159007500Y-109900500D02*
X150655800Y-109900500D01*
X150655800Y-109900500D02*
X150055300Y-109300000D01*
X129800000Y-108500000D02*
X127300000Y-108500000D01*
X146420000Y-109280000D02*
X147545300Y-109280000D01*
X148930000Y-109300000D02*
X147565300Y-109300000D01*
X147565300Y-109300000D02*
X147545300Y-109280000D01*
G04 #@! TO.N,ColA*
X107620000Y-78830000D02*
X108994600Y-77455400D01*
X108994600Y-77455400D02*
X110795000Y-77455400D01*
X110795000Y-77455400D02*
X115099100Y-73151300D01*
X115099100Y-73151300D02*
X242582500Y-73151300D01*
X242582500Y-73151300D02*
X253558800Y-62175000D01*
X253558800Y-62175000D02*
X254912000Y-62175000D01*
X72507500Y-95380000D02*
X109055000Y-95380000D01*
X109055000Y-95380000D02*
X110325000Y-94110000D01*
X66912500Y-100975000D02*
X72507500Y-95380000D01*
X66912500Y-81925000D02*
X68588800Y-83601300D01*
X68588800Y-83601300D02*
X68588800Y-91461300D01*
X68588800Y-91461300D02*
X72507500Y-95380000D01*
X254912000Y-62175000D02*
X256385500Y-62275400D01*
X256385500Y-62275400D02*
X256812400Y-62275400D01*
X256812400Y-62275400D02*
X257412000Y-62875000D01*
X254912000Y-62175000D02*
X254912000Y-61635000D01*
X254912000Y-61635000D02*
X254952000Y-61595000D01*
G04 #@! TO.N,ColB*
X85962500Y-81925000D02*
X86722800Y-81925000D01*
X86722800Y-81925000D02*
X88507800Y-80140000D01*
X88507800Y-80140000D02*
X90409700Y-80140000D01*
X90409700Y-80140000D02*
X91158600Y-79391100D01*
X91158600Y-79391100D02*
X91158600Y-78348000D01*
X91158600Y-78348000D02*
X91881200Y-77625400D01*
X91881200Y-77625400D02*
X103183500Y-77625400D01*
X103183500Y-77625400D02*
X106928100Y-81370000D01*
X106928100Y-81370000D02*
X107620000Y-81370000D01*
X83502500Y-81205000D02*
X85242500Y-81205000D01*
X85242500Y-81205000D02*
X85962500Y-81925000D01*
X85962500Y-62875000D02*
X91544700Y-57292800D01*
X91544700Y-57292800D02*
X102589900Y-57292800D01*
X102589900Y-57292800D02*
X102932300Y-57635200D01*
X102932300Y-57635200D02*
X103533200Y-57635200D01*
X103533200Y-57635200D02*
X103868000Y-57300400D01*
X103868000Y-57300400D02*
X111265400Y-57300400D01*
X111265400Y-57300400D02*
X112754600Y-58789600D01*
X112754600Y-58789600D02*
X271395500Y-58789600D01*
X271395500Y-58789600D02*
X274002000Y-61396100D01*
X274002000Y-61396100D02*
X274002000Y-61595000D01*
X83462500Y-81225000D02*
X83482500Y-81205000D01*
X83482500Y-81205000D02*
X83502500Y-81205000D01*
X83502500Y-81205000D02*
X83502500Y-80645000D01*
G04 #@! TO.N,ColC*
X105012000Y-100975000D02*
X106662400Y-99324600D01*
X106662400Y-99324600D02*
X117186000Y-99324600D01*
X117186000Y-99324600D02*
X120180200Y-102318800D01*
X120180200Y-102318800D02*
X127336600Y-102318800D01*
X127336600Y-102318800D02*
X128550000Y-101105400D01*
X128550000Y-101105400D02*
X128550000Y-100326200D01*
X128550000Y-100326200D02*
X134716900Y-94159300D01*
X134716900Y-94159300D02*
X250755400Y-94159300D01*
X250755400Y-94159300D02*
X256940500Y-87974200D01*
X256940500Y-87974200D02*
X267052300Y-87974200D01*
X267052300Y-87974200D02*
X267127100Y-88049000D01*
X267127100Y-88049000D02*
X272447000Y-88049000D01*
X272447000Y-88049000D02*
X288988800Y-71507200D01*
X288988800Y-71507200D02*
X288988800Y-69681200D01*
X288988800Y-69681200D02*
X296495000Y-62175000D01*
X296495000Y-62175000D02*
X297775000Y-62175000D01*
X103985500Y-81325400D02*
X104412400Y-81325400D01*
X104412400Y-81325400D02*
X105012000Y-81925000D01*
X102552000Y-80645000D02*
X102512000Y-80685000D01*
X102512000Y-80685000D02*
X102512000Y-81225000D01*
X102552000Y-80645000D02*
X102552000Y-80420000D01*
X102552000Y-80420000D02*
X100631600Y-78499600D01*
X100631600Y-78499600D02*
X96434200Y-78499600D01*
X96434200Y-78499600D02*
X94833800Y-80100000D01*
X94833800Y-80100000D02*
X91315000Y-80100000D01*
X91315000Y-80100000D02*
X90005000Y-81410000D01*
X102512000Y-81225000D02*
X103985500Y-81325400D01*
G04 #@! TO.N,ColD*
X121602000Y-99695000D02*
X121562000Y-99735000D01*
X121562000Y-99735000D02*
X121562000Y-100275000D01*
X121562000Y-62175000D02*
X118493700Y-62175000D01*
X118493700Y-62175000D02*
X117540400Y-61221700D01*
X117540400Y-61221700D02*
X113287100Y-61221700D01*
X113287100Y-61221700D02*
X111568900Y-62939900D01*
X111568900Y-62939900D02*
X111568900Y-63981600D01*
X111568900Y-63981600D02*
X110622200Y-64928300D01*
X110622200Y-64928300D02*
X105117100Y-64928300D01*
X105117100Y-64928300D02*
X101001700Y-69043700D01*
X101001700Y-69043700D02*
X95198300Y-69043700D01*
X95198300Y-69043700D02*
X92380000Y-66225400D01*
X92380000Y-66225400D02*
X92380000Y-66130000D01*
X124062000Y-81925000D02*
X130202200Y-88065200D01*
X130202200Y-88065200D02*
X163246800Y-88065200D01*
X163246800Y-88065200D02*
X164099300Y-87212700D01*
X164099300Y-87212700D02*
X171371800Y-87212700D01*
X171371800Y-87212700D02*
X175188000Y-83396500D01*
X175188000Y-83396500D02*
X185818600Y-83396500D01*
X185818600Y-83396500D02*
X190730700Y-78484400D01*
X190730700Y-78484400D02*
X240803000Y-78484400D01*
X240803000Y-78484400D02*
X241731700Y-79413100D01*
X241731700Y-79413100D02*
X249772800Y-79413100D01*
X249772800Y-79413100D02*
X251584700Y-81225000D01*
X251584700Y-81225000D02*
X254912000Y-81225000D01*
X121562000Y-100275000D02*
X123035500Y-100375400D01*
X123035500Y-100375400D02*
X123462400Y-100375400D01*
X123462400Y-100375400D02*
X124062000Y-100975000D01*
X254912000Y-81225000D02*
X256385500Y-81325400D01*
X256385500Y-81325400D02*
X256812400Y-81325400D01*
X256812400Y-81325400D02*
X257412000Y-81925000D01*
G04 #@! TO.N,ColE*
X92380000Y-63590000D02*
X87650700Y-68319300D01*
X87650700Y-68319300D02*
X87539600Y-68319300D01*
X140652000Y-61595000D02*
X140652000Y-61382100D01*
X140652000Y-61382100D02*
X138719600Y-59449700D01*
X138719600Y-59449700D02*
X114422200Y-59449700D01*
X114422200Y-59449700D02*
X111620200Y-62251700D01*
X111620200Y-62251700D02*
X106431100Y-62251700D01*
X106431100Y-62251700D02*
X105451300Y-61271900D01*
X140612000Y-62175000D02*
X140612000Y-61635000D01*
X140612000Y-61635000D02*
X140652000Y-61595000D01*
X273962000Y-81225000D02*
X270634700Y-81225000D01*
X270634700Y-81225000D02*
X267829600Y-78419900D01*
X267829600Y-78419900D02*
X241693800Y-78419900D01*
X241693800Y-78419900D02*
X241288100Y-78014200D01*
X241288100Y-78014200D02*
X190564000Y-78014200D01*
X190564000Y-78014200D02*
X190025200Y-78553000D01*
X190025200Y-78553000D02*
X184289900Y-78553000D01*
X184289900Y-78553000D02*
X184225500Y-78488600D01*
X184225500Y-78488600D02*
X146548400Y-78488600D01*
X146548400Y-78488600D02*
X143112000Y-81925000D01*
X140652000Y-80645000D02*
X140612000Y-80685000D01*
X140612000Y-80685000D02*
X140612000Y-81225000D01*
X140612000Y-100275000D02*
X142085500Y-100375400D01*
X142085500Y-100375400D02*
X142512400Y-100375400D01*
X142512400Y-100375400D02*
X143112000Y-100975000D01*
G04 #@! TO.N,ColF*
X92380000Y-71210000D02*
X92994700Y-71824700D01*
X92994700Y-71824700D02*
X104993700Y-71824700D01*
X104993700Y-71824700D02*
X106827200Y-69991200D01*
X106827200Y-69991200D02*
X111649600Y-69991200D01*
X111649600Y-69991200D02*
X111910500Y-70252100D01*
X111910500Y-70252100D02*
X113156300Y-70252100D01*
X113156300Y-70252100D02*
X113963800Y-69444600D01*
X113963800Y-69444600D02*
X142721800Y-69444600D01*
X142721800Y-69444600D02*
X144291000Y-67875400D01*
X144291000Y-67875400D02*
X152657600Y-67875400D01*
X152657600Y-67875400D02*
X158358000Y-62175000D01*
X158358000Y-62175000D02*
X159662000Y-62175000D01*
X159662000Y-62175000D02*
X159662000Y-61635000D01*
X159662000Y-61635000D02*
X159702000Y-61595000D01*
X300240000Y-91440000D02*
X299258500Y-92533900D01*
X170498000Y-107315000D02*
X173061800Y-109615300D01*
X173061800Y-109615300D02*
X175362100Y-107315000D01*
X175362100Y-107315000D02*
X177013700Y-107315000D01*
X177013700Y-107315000D02*
X180757400Y-103571300D01*
X180757400Y-103571300D02*
X186361400Y-103571300D01*
X186361400Y-103571300D02*
X189914600Y-107124500D01*
X189914600Y-107124500D02*
X205995400Y-107124500D01*
X205995400Y-107124500D02*
X206454200Y-107583300D01*
X206454200Y-107583300D02*
X257073100Y-107583300D01*
X257073100Y-107583300D02*
X272122500Y-92533900D01*
X272122500Y-92533900D02*
X299258500Y-92533900D01*
X166688000Y-110675000D02*
X167288000Y-110675000D01*
X167288000Y-110675000D02*
X169188000Y-108775000D01*
G04 #@! TO.N,ColG*
X92380000Y-73750000D02*
X105920600Y-73750000D01*
X105920600Y-73750000D02*
X107124500Y-74953900D01*
X107124500Y-74953900D02*
X108124600Y-74953900D01*
X108124600Y-74953900D02*
X109006500Y-74072000D01*
X109006500Y-74072000D02*
X109006500Y-73516000D01*
X109006500Y-73516000D02*
X109927100Y-72595400D01*
X109927100Y-72595400D02*
X112140000Y-72595400D01*
X112140000Y-72595400D02*
X112503900Y-72231500D01*
X112503900Y-72231500D02*
X116310900Y-72231500D01*
X116310900Y-72231500D02*
X118647500Y-69894900D01*
X118647500Y-69894900D02*
X146252400Y-69894900D01*
X146252400Y-69894900D02*
X147151300Y-68996000D01*
X147151300Y-68996000D02*
X170587000Y-68996000D01*
X170587000Y-68996000D02*
X177408000Y-62175000D01*
X177408000Y-62175000D02*
X178712000Y-62175000D01*
X254952000Y-99695000D02*
X254952000Y-99455100D01*
X254952000Y-99455100D02*
X251576100Y-96079200D01*
X251576100Y-96079200D02*
X188985600Y-96079200D01*
X188985600Y-96079200D02*
X184089800Y-100975000D01*
X184089800Y-100975000D02*
X181212000Y-100975000D01*
X178712000Y-100275000D02*
X180185500Y-100375400D01*
X180185500Y-100375400D02*
X180612400Y-100375400D01*
X180612400Y-100375400D02*
X181212000Y-100975000D01*
G04 #@! TO.N,ColH*
X92380000Y-76290000D02*
X90925400Y-77744600D01*
X90925400Y-77744600D02*
X89501600Y-77744600D01*
X89501600Y-77744600D02*
X87875200Y-79371000D01*
X87875200Y-79371000D02*
X87875200Y-79648900D01*
X197762000Y-81225000D02*
X196421400Y-81225000D01*
X196421400Y-81225000D02*
X185991100Y-91655300D01*
X185991100Y-91655300D02*
X119369100Y-91655300D01*
X119369100Y-91655300D02*
X115599000Y-87885200D01*
X115599000Y-87885200D02*
X108146500Y-87885200D01*
X108146500Y-87885200D02*
X107464800Y-88566900D01*
X107464800Y-88566900D02*
X90468100Y-88566900D01*
X90468100Y-88566900D02*
X90005000Y-89030000D01*
G04 #@! TO.N,ColI*
X216812000Y-81225000D02*
X215508000Y-81225000D01*
X215508000Y-81225000D02*
X209221500Y-87511500D01*
X209221500Y-87511500D02*
X198784700Y-87511500D01*
X198784700Y-87511500D02*
X194149500Y-92146700D01*
X194149500Y-92146700D02*
X114618700Y-92146700D01*
X114618700Y-92146700D02*
X112888000Y-90416000D01*
X112888000Y-90416000D02*
X96116800Y-90416000D01*
X96116800Y-90416000D02*
X94962800Y-91570000D01*
X94962800Y-91570000D02*
X90005000Y-91570000D01*
G04 #@! TO.N,ColJ*
X235862000Y-100275000D02*
X237335500Y-100375400D01*
X238362000Y-100975000D02*
X237935000Y-100975000D01*
X237935000Y-100975000D02*
X237335500Y-100375500D01*
X237335500Y-100375500D02*
X237335500Y-100375400D01*
X235862000Y-81225000D02*
X234558000Y-81225000D01*
X234558000Y-81225000D02*
X227738700Y-88044300D01*
X227738700Y-88044300D02*
X207139800Y-88044300D01*
X207139800Y-88044300D02*
X207070200Y-87974700D01*
X207070200Y-87974700D02*
X198958500Y-87974700D01*
X198958500Y-87974700D02*
X194093200Y-92840000D01*
X194093200Y-92840000D02*
X91275000Y-92840000D01*
X91275000Y-92840000D02*
X90005000Y-94110000D01*
G04 #@! TO.N,EncA*
X59412500Y-74175000D02*
X63524900Y-70062600D01*
X63524900Y-70062600D02*
X67263700Y-70062600D01*
X67263700Y-70062600D02*
X71472000Y-65854300D01*
X71472000Y-65854300D02*
X71472000Y-62703300D01*
X71472000Y-62703300D02*
X76383700Y-57791600D01*
X76383700Y-57791600D02*
X88011900Y-57791600D01*
X88011900Y-57791600D02*
X91081400Y-54722100D01*
X91081400Y-54722100D02*
X101044900Y-54722100D01*
X101044900Y-54722100D02*
X103232700Y-56909900D01*
X107620000Y-53430000D02*
X106418400Y-53430000D01*
X103232700Y-56909900D02*
X106418400Y-53724200D01*
X106418400Y-53724200D02*
X106418400Y-53430000D01*
G04 #@! TO.N,GND*
X110325000Y-66170000D02*
X113149300Y-68994300D01*
X113149300Y-68994300D02*
X141665400Y-68994300D01*
X141665400Y-68994300D02*
X141942500Y-68717200D01*
X61912500Y-74175000D02*
X65547300Y-70540200D01*
X65547300Y-70540200D02*
X67502600Y-70540200D01*
X67502600Y-70540200D02*
X74019600Y-64023200D01*
X74019600Y-64023200D02*
X74019600Y-62356400D01*
X74019600Y-62356400D02*
X78134000Y-58242000D01*
X78134000Y-58242000D02*
X88396800Y-58242000D01*
X88396800Y-58242000D02*
X90668800Y-55970000D01*
X90668800Y-55970000D02*
X92380000Y-55970000D01*
G04 #@! TO.N,EncB*
X64412500Y-74175000D02*
X65657200Y-72930300D01*
X65657200Y-72930300D02*
X76629400Y-72930300D01*
X76629400Y-72930300D02*
X77079700Y-72480000D01*
X77079700Y-72480000D02*
X109095000Y-72480000D01*
X109095000Y-72480000D02*
X110325000Y-71250000D01*
G04 #@! TO.N,RST*
X110325000Y-58550000D02*
X109163100Y-59711900D01*
X109163100Y-59711900D02*
X101562900Y-59711900D01*
X101562900Y-59711900D02*
X100361000Y-58510000D01*
X100361000Y-58510000D02*
X92380000Y-58510000D01*
G04 #@! TO.N,RowD*
X107620000Y-76290000D02*
X108731000Y-75179000D01*
X108731000Y-75179000D02*
X111311500Y-75179000D01*
X111311500Y-75179000D02*
X113789500Y-72701000D01*
X113789500Y-72701000D02*
X239445700Y-72701000D01*
X239445700Y-72701000D02*
X241698700Y-70448000D01*
X242824000Y-70448000D02*
X241698700Y-70448000D01*
X261980000Y-97665000D02*
X261980000Y-96539700D01*
X261442700Y-89210000D02*
X261442700Y-96002400D01*
X261442700Y-96002400D02*
X261980000Y-96539700D01*
X261442700Y-89210000D02*
X262005300Y-89210000D01*
X260880000Y-89210000D02*
X261442700Y-89210000D01*
X263260000Y-89150000D02*
X262065300Y-89150000D01*
X262065300Y-89150000D02*
X262005300Y-89210000D01*
G04 #@! TO.N,Net-(D_ISOENTR1-Pad2)*
X302780000Y-97790000D02*
X302240000Y-97790000D01*
X302240000Y-97790000D02*
X302200000Y-97750000D01*
G04 #@! TO.N,RGB*
X64896400Y-72548300D02*
X65189800Y-72254900D01*
X65189800Y-72254900D02*
X76442600Y-72254900D01*
X76442600Y-72254900D02*
X78386900Y-70310600D01*
X78386900Y-70310600D02*
X84792400Y-70310600D01*
X84792400Y-70310600D02*
X88304600Y-70310600D01*
X88304600Y-70310600D02*
X88665500Y-69949700D01*
X88665500Y-69949700D02*
X104044900Y-69949700D01*
X104044900Y-69949700D02*
X106554600Y-67440000D01*
X106554600Y-67440000D02*
X110658300Y-67440000D01*
X110658300Y-67440000D02*
X112597300Y-69379000D01*
X112597300Y-69379000D02*
X112597300Y-69480500D01*
X107620000Y-63590000D02*
X106969000Y-64241000D01*
X106969000Y-64241000D02*
X101132500Y-64241000D01*
X101132500Y-64241000D02*
X98106900Y-61215400D01*
X98106900Y-61215400D02*
X94009800Y-61215400D01*
X94009800Y-61215400D02*
X92836900Y-62388300D01*
X92836900Y-62388300D02*
X88554500Y-62388300D01*
X88554500Y-62388300D02*
X84792400Y-66150400D01*
X84792400Y-66150400D02*
X84792400Y-70310600D01*
G04 #@! TO.N,RGB_PWR*
X53600000Y-93400000D02*
X53600000Y-82828200D01*
X53600000Y-82828200D02*
X58465400Y-77962800D01*
X58465400Y-77962800D02*
X64750200Y-77962800D01*
X64750200Y-77962800D02*
X69011400Y-73701600D01*
X69011400Y-73701600D02*
X89916600Y-73701600D01*
X89916600Y-73701600D02*
X90005000Y-73790000D01*
G04 #@! TD*
M02*
