G04 #@! TF.GenerationSoftware,KiCad,Pcbnew,(5.0.1)-3*
G04 #@! TF.CreationDate,2020-01-05T19:02:12+02:00*
G04 #@! TF.ProjectId,Memekeeb,4D656D656B6565622E6B696361645F70,rev?*
G04 #@! TF.SameCoordinates,Original*
G04 #@! TF.FileFunction,Copper,L1,Top,Signal*
G04 #@! TF.FilePolarity,Positive*
%FSLAX46Y46*%
G04 Gerber Fmt 4.6, Leading zero omitted, Abs format (unit mm)*
G04 Created by KiCad (PCBNEW (5.0.1)-3) date 01/05/20 19:02:12*
%MOMM*%
%LPD*%
G01*
G04 APERTURE LIST*
G04 #@! TA.AperFunction,ComponentPad*
%ADD10C,1.600000*%
G04 #@! TD*
G04 #@! TA.AperFunction,ComponentPad*
%ADD11R,1.600000X1.600000*%
G04 #@! TD*
G04 #@! TA.AperFunction,ComponentPad*
%ADD12C,2.250000*%
G04 #@! TD*
G04 #@! TA.AperFunction,Conductor*
%ADD13C,2.250000*%
G04 #@! TD*
G04 #@! TA.AperFunction,ComponentPad*
%ADD14C,2.000000*%
G04 #@! TD*
G04 #@! TA.AperFunction,ComponentPad*
%ADD15C,1.905000*%
G04 #@! TD*
G04 #@! TA.AperFunction,ComponentPad*
%ADD16R,1.905000X1.905000*%
G04 #@! TD*
G04 #@! TA.AperFunction,ComponentPad*
%ADD17R,2.000000X2.000000*%
G04 #@! TD*
G04 #@! TA.AperFunction,ComponentPad*
%ADD18R,2.000000X3.200000*%
G04 #@! TD*
G04 #@! TA.AperFunction,ComponentPad*
%ADD19R,1.752600X1.752600*%
G04 #@! TD*
G04 #@! TA.AperFunction,ComponentPad*
%ADD20C,1.752600*%
G04 #@! TD*
G04 APERTURE END LIST*
D10*
G04 #@! TO.P,D1,2*
G04 #@! TO.N,Net-(D1-Pad2)*
X70300000Y-68600000D03*
D11*
G04 #@! TO.P,D1,1*
G04 #@! TO.N,RowA*
X70300000Y-76400000D03*
G04 #@! TD*
D10*
G04 #@! TO.P,D2,2*
G04 #@! TO.N,Net-(D2-Pad2)*
X85100000Y-75800000D03*
D11*
G04 #@! TO.P,D2,1*
G04 #@! TO.N,RowA*
X77300000Y-75800000D03*
G04 #@! TD*
D10*
G04 #@! TO.P,D3,2*
G04 #@! TO.N,Net-(D3-Pad2)*
X104100000Y-75400000D03*
D11*
G04 #@! TO.P,D3,1*
G04 #@! TO.N,RowA*
X96300000Y-75400000D03*
G04 #@! TD*
D10*
G04 #@! TO.P,D4,2*
G04 #@! TO.N,Net-(D4-Pad2)*
X122900000Y-75400000D03*
D11*
G04 #@! TO.P,D4,1*
G04 #@! TO.N,RowA*
X115100000Y-75400000D03*
G04 #@! TD*
D10*
G04 #@! TO.P,D5,2*
G04 #@! TO.N,Net-(D5-Pad2)*
X141700000Y-75400000D03*
D11*
G04 #@! TO.P,D5,1*
G04 #@! TO.N,RowA*
X133900000Y-75400000D03*
G04 #@! TD*
G04 #@! TO.P,D6,1*
G04 #@! TO.N,RowA*
X153400000Y-75500000D03*
D10*
G04 #@! TO.P,D6,2*
G04 #@! TO.N,Net-(D6-Pad2)*
X161200000Y-75500000D03*
G04 #@! TD*
D11*
G04 #@! TO.P,D7,1*
G04 #@! TO.N,RowA*
X172400000Y-75500000D03*
D10*
G04 #@! TO.P,D7,2*
G04 #@! TO.N,Net-(D7-Pad2)*
X180200000Y-75500000D03*
G04 #@! TD*
D11*
G04 #@! TO.P,D8,1*
G04 #@! TO.N,RowA*
X191600000Y-75500000D03*
D10*
G04 #@! TO.P,D8,2*
G04 #@! TO.N,Net-(D8-Pad2)*
X199400000Y-75500000D03*
G04 #@! TD*
D11*
G04 #@! TO.P,D9,1*
G04 #@! TO.N,RowA*
X210300000Y-75500000D03*
D10*
G04 #@! TO.P,D9,2*
G04 #@! TO.N,Net-(D9-Pad2)*
X218100000Y-75500000D03*
G04 #@! TD*
D11*
G04 #@! TO.P,D10,1*
G04 #@! TO.N,RowA*
X229500000Y-75200000D03*
D10*
G04 #@! TO.P,D10,2*
G04 #@! TO.N,Net-(D10-Pad2)*
X237300000Y-75200000D03*
G04 #@! TD*
D11*
G04 #@! TO.P,D11,1*
G04 #@! TO.N,RowD*
X248700000Y-75200000D03*
D10*
G04 #@! TO.P,D11,2*
G04 #@! TO.N,Net-(D11-Pad2)*
X256500000Y-75200000D03*
G04 #@! TD*
D11*
G04 #@! TO.P,D12,1*
G04 #@! TO.N,RowD*
X267600000Y-75300000D03*
D10*
G04 #@! TO.P,D12,2*
G04 #@! TO.N,Net-(D12-Pad2)*
X275400000Y-75300000D03*
G04 #@! TD*
D11*
G04 #@! TO.P,D13,1*
G04 #@! TO.N,RowD*
X291700000Y-75200000D03*
D10*
G04 #@! TO.P,D13,2*
G04 #@! TO.N,Net-(D13-Pad2)*
X299500000Y-75200000D03*
G04 #@! TD*
D11*
G04 #@! TO.P,D14,1*
G04 #@! TO.N,RowB*
X67400000Y-95900000D03*
D10*
G04 #@! TO.P,D14,2*
G04 #@! TO.N,Net-(D14-Pad2)*
X59600000Y-95900000D03*
G04 #@! TD*
D11*
G04 #@! TO.P,D15,1*
G04 #@! TO.N,RowB*
X77000000Y-95800000D03*
D10*
G04 #@! TO.P,D15,2*
G04 #@! TO.N,Net-(D15-Pad2)*
X84800000Y-95800000D03*
G04 #@! TD*
D11*
G04 #@! TO.P,D16,1*
G04 #@! TO.N,RowB*
X96200000Y-95800000D03*
D10*
G04 #@! TO.P,D16,2*
G04 #@! TO.N,Net-(D16-Pad2)*
X104000000Y-95800000D03*
G04 #@! TD*
D11*
G04 #@! TO.P,D17,1*
G04 #@! TO.N,RowB*
X115400000Y-96000000D03*
D10*
G04 #@! TO.P,D17,2*
G04 #@! TO.N,Net-(D17-Pad2)*
X123200000Y-96000000D03*
G04 #@! TD*
D11*
G04 #@! TO.P,D18,1*
G04 #@! TO.N,RowB*
X134400000Y-96100000D03*
D10*
G04 #@! TO.P,D18,2*
G04 #@! TO.N,Net-(D18-Pad2)*
X142200000Y-96100000D03*
G04 #@! TD*
D11*
G04 #@! TO.P,D19,1*
G04 #@! TO.N,RowB*
X166700000Y-88600000D03*
D10*
G04 #@! TO.P,D19,2*
G04 #@! TO.N,Net-(D19-Pad2)*
X166700000Y-80800000D03*
G04 #@! TD*
D11*
G04 #@! TO.P,D20,1*
G04 #@! TO.N,RowB*
X182400000Y-96200000D03*
D10*
G04 #@! TO.P,D20,2*
G04 #@! TO.N,Net-(D20-Pad2)*
X190200000Y-96200000D03*
G04 #@! TD*
G04 #@! TO.P,D21,2*
G04 #@! TO.N,Net-(D21-Pad2)*
X204100000Y-96100000D03*
D11*
G04 #@! TO.P,D21,1*
G04 #@! TO.N,RowB*
X196300000Y-96100000D03*
G04 #@! TD*
D10*
G04 #@! TO.P,D22,2*
G04 #@! TO.N,Net-(D22-Pad2)*
X221700000Y-95900000D03*
D11*
G04 #@! TO.P,D22,1*
G04 #@! TO.N,RowB*
X213900000Y-95900000D03*
G04 #@! TD*
D10*
G04 #@! TO.P,D23,2*
G04 #@! TO.N,Net-(D23-Pad2)*
X237400000Y-96200000D03*
D11*
G04 #@! TO.P,D23,1*
G04 #@! TO.N,RowB*
X229600000Y-96200000D03*
G04 #@! TD*
D10*
G04 #@! TO.P,D24,2*
G04 #@! TO.N,Net-(D24-Pad2)*
X256700000Y-96200000D03*
D11*
G04 #@! TO.P,D24,1*
G04 #@! TO.N,RowD*
X248900000Y-96200000D03*
G04 #@! TD*
D10*
G04 #@! TO.P,D25,2*
G04 #@! TO.N,Net-(D25-Pad2)*
X272000000Y-96700000D03*
D11*
G04 #@! TO.P,D25,1*
G04 #@! TO.N,RowD*
X264200000Y-96700000D03*
G04 #@! TD*
D10*
G04 #@! TO.P,D27,2*
G04 #@! TO.N,Net-(D27-Pad2)*
X71400000Y-101300000D03*
D11*
G04 #@! TO.P,D27,1*
G04 #@! TO.N,RowC*
X71400000Y-109100000D03*
G04 #@! TD*
D10*
G04 #@! TO.P,D28,2*
G04 #@! TO.N,Net-(D28-Pad2)*
X90400000Y-101300000D03*
D11*
G04 #@! TO.P,D28,1*
G04 #@! TO.N,RowC*
X90400000Y-109100000D03*
G04 #@! TD*
D10*
G04 #@! TO.P,D29,2*
G04 #@! TO.N,Net-(D29-Pad2)*
X109400000Y-101800000D03*
D11*
G04 #@! TO.P,D29,1*
G04 #@! TO.N,RowC*
X109400000Y-109600000D03*
G04 #@! TD*
D10*
G04 #@! TO.P,D30,2*
G04 #@! TO.N,Net-(D30-Pad2)*
X128600000Y-101800000D03*
D11*
G04 #@! TO.P,D30,1*
G04 #@! TO.N,RowC*
X128600000Y-109600000D03*
G04 #@! TD*
D10*
G04 #@! TO.P,D31,2*
G04 #@! TO.N,Net-(D31-Pad2)*
X147600000Y-101800000D03*
D11*
G04 #@! TO.P,D31,1*
G04 #@! TO.N,RowC*
X147600000Y-109600000D03*
G04 #@! TD*
D10*
G04 #@! TO.P,D32,2*
G04 #@! TO.N,Net-(D32-Pad2)*
X174000000Y-96700000D03*
D11*
G04 #@! TO.P,D32,1*
G04 #@! TO.N,RowC*
X166200000Y-96700000D03*
G04 #@! TD*
D10*
G04 #@! TO.P,D33,2*
G04 #@! TO.N,Net-(D33-Pad2)*
X186000000Y-100900000D03*
D11*
G04 #@! TO.P,D33,1*
G04 #@! TO.N,RowC*
X186000000Y-108700000D03*
G04 #@! TD*
D10*
G04 #@! TO.P,D34,2*
G04 #@! TO.N,Net-(D34-Pad2)*
X204800000Y-99800000D03*
D11*
G04 #@! TO.P,D34,1*
G04 #@! TO.N,RowC*
X204800000Y-107600000D03*
G04 #@! TD*
D10*
G04 #@! TO.P,D35,2*
G04 #@! TO.N,Net-(D35-Pad2)*
X223800000Y-99800000D03*
D11*
G04 #@! TO.P,D35,1*
G04 #@! TO.N,RowC*
X223800000Y-107600000D03*
G04 #@! TD*
G04 #@! TO.P,D36,1*
G04 #@! TO.N,RowC*
X242800000Y-107600000D03*
D10*
G04 #@! TO.P,D36,2*
G04 #@! TO.N,Net-(D36-Pad2)*
X242800000Y-99800000D03*
G04 #@! TD*
D11*
G04 #@! TO.P,D37,1*
G04 #@! TO.N,RowD*
X261800000Y-100300000D03*
D10*
G04 #@! TO.P,D37,2*
G04 #@! TO.N,Net-(D37-Pad2)*
X261800000Y-108100000D03*
G04 #@! TD*
D11*
G04 #@! TO.P,D_1.25u1,1*
G04 #@! TO.N,RowD*
X283300000Y-100500000D03*
D10*
G04 #@! TO.P,D_1.25u1,2*
G04 #@! TO.N,Net-(D_1.25u1-Pad2)*
X283300000Y-108300000D03*
G04 #@! TD*
D12*
G04 #@! TO.P,K_2Uspc1,2*
G04 #@! TO.N,Net-(D32-Pad2)*
X164167729Y-109565016D03*
D13*
G04 #@! TD*
G04 #@! TO.N,Net-(D32-Pad2)*
G04 #@! TO.C,K_2Uspc1*
X164187500Y-109275000D02*
X164147958Y-109855032D01*
D12*
G04 #@! TO.P,K_2Uspc1,2*
G04 #@! TO.N,Net-(D32-Pad2)*
X164147500Y-109855000D03*
G04 #@! TO.P,K_2Uspc1,1*
G04 #@! TO.N,ColF*
X169842505Y-108045004D03*
D13*
G04 #@! TD*
G04 #@! TO.N,ColF*
G04 #@! TO.C,K_2Uspc1*
X170497500Y-107315000D02*
X169187510Y-108775008D01*
D12*
G04 #@! TO.P,K_2Uspc1,1*
G04 #@! TO.N,ColF*
X169187500Y-108775000D03*
D14*
G04 #@! TO.P,K_2Uspc1,2*
G04 #@! TO.N,Net-(D32-Pad2)*
X161687500Y-108575000D03*
G04 #@! TO.P,K_2Uspc1,1*
G04 #@! TO.N,ColF*
X166687500Y-110675000D03*
D15*
G04 #@! TO.P,K_2Uspc1,3*
G04 #@! TO.N,N/C*
X167957500Y-99695000D03*
D16*
G04 #@! TO.P,K_2Uspc1,4*
X165417500Y-99695000D03*
G04 #@! TD*
D17*
G04 #@! TO.P,K_ENC1,A*
G04 #@! TO.N,EncA*
X59412500Y-74175000D03*
D14*
G04 #@! TO.P,K_ENC1,C*
G04 #@! TO.N,GND*
X61912500Y-74175000D03*
G04 #@! TO.P,K_ENC1,B*
G04 #@! TO.N,EncB*
X64412500Y-74175000D03*
D18*
G04 #@! TO.P,K_ENC1,MP*
G04 #@! TO.N,N/C*
X56312500Y-66675000D03*
X67512500Y-66675000D03*
D14*
G04 #@! TO.P,K_ENC1,S2*
G04 #@! TO.N,RowA*
X59412500Y-59675000D03*
G04 #@! TO.P,K_ENC1,S1*
G04 #@! TO.N,ColA*
X64412500Y-59675000D03*
G04 #@! TD*
D19*
G04 #@! TO.P,MCU_Pro_Micr0,1*
G04 #@! TO.N,EncA*
X92380000Y-60530000D03*
D20*
G04 #@! TO.P,MCU_Pro_Micr0,2*
G04 #@! TO.N,EncB*
X92380000Y-63070000D03*
G04 #@! TO.P,MCU_Pro_Micr0,3*
G04 #@! TO.N,Net-(MCU_Pro_Micr0-Pad3)*
X92380000Y-65610000D03*
G04 #@! TO.P,MCU_Pro_Micr0,4*
G04 #@! TO.N,Net-(MCU_Pro_Micr0-Pad4)*
X92380000Y-68150000D03*
G04 #@! TO.P,MCU_Pro_Micr0,5*
G04 #@! TO.N,RGB*
X92380000Y-70690000D03*
G04 #@! TO.P,MCU_Pro_Micr0,6*
G04 #@! TO.N,Net-(MCU_Pro_Micr0-Pad6)*
X92380000Y-73230000D03*
G04 #@! TO.P,MCU_Pro_Micr0,7*
G04 #@! TO.N,RowA*
X92380000Y-75770000D03*
G04 #@! TO.P,MCU_Pro_Micr0,8*
G04 #@! TO.N,RowB*
X92380000Y-78310000D03*
G04 #@! TO.P,MCU_Pro_Micr0,9*
G04 #@! TO.N,RowC*
X92380000Y-80850000D03*
G04 #@! TO.P,MCU_Pro_Micr0,10*
G04 #@! TO.N,RowD*
X92380000Y-83390000D03*
G04 #@! TO.P,MCU_Pro_Micr0,11*
G04 #@! TO.N,ColA*
X92380000Y-85930000D03*
G04 #@! TO.P,MCU_Pro_Micr0,13*
G04 #@! TO.N,ColJ*
X107620000Y-88470000D03*
G04 #@! TO.P,MCU_Pro_Micr0,14*
G04 #@! TO.N,ColI*
X107620000Y-85930000D03*
G04 #@! TO.P,MCU_Pro_Micr0,15*
G04 #@! TO.N,ColH*
X107620000Y-83390000D03*
G04 #@! TO.P,MCU_Pro_Micr0,16*
G04 #@! TO.N,ColG*
X107620000Y-80850000D03*
G04 #@! TO.P,MCU_Pro_Micr0,17*
G04 #@! TO.N,ColF*
X107620000Y-78310000D03*
G04 #@! TO.P,MCU_Pro_Micr0,18*
G04 #@! TO.N,ColC*
X107620000Y-75770000D03*
G04 #@! TO.P,MCU_Pro_Micr0,19*
G04 #@! TO.N,ColD*
X107620000Y-73230000D03*
G04 #@! TO.P,MCU_Pro_Micr0,20*
G04 #@! TO.N,ColE*
X107620000Y-70690000D03*
G04 #@! TO.P,MCU_Pro_Micr0,21*
G04 #@! TO.N,RGB_PWR*
X107620000Y-68150000D03*
G04 #@! TO.P,MCU_Pro_Micr0,22*
G04 #@! TO.N,RST*
X107620000Y-65610000D03*
G04 #@! TO.P,MCU_Pro_Micr0,23*
G04 #@! TO.N,GND*
X107620000Y-63070000D03*
G04 #@! TO.P,MCU_Pro_Micr0,12*
G04 #@! TO.N,ColB*
X92380000Y-88470000D03*
G04 #@! TO.P,MCU_Pro_Micr0,24*
G04 #@! TO.N,Net-(MCU_Pro_Micr0-Pad24)*
X107620000Y-60530000D03*
G04 #@! TD*
D12*
G04 #@! TO.P,K_ISOENTER1,2*
G04 #@! TO.N,Net-(D_ISOENTR1-Pad2)*
X302490016Y-97769771D03*
D13*
G04 #@! TD*
G04 #@! TO.N,Net-(D_ISOENTR1-Pad2)*
G04 #@! TO.C,K_ISOENTER1*
X302200000Y-97750000D02*
X302780032Y-97789542D01*
D12*
G04 #@! TO.P,K_ISOENTER1,2*
G04 #@! TO.N,Net-(D_ISOENTR1-Pad2)*
X302780000Y-97790000D03*
G04 #@! TO.P,K_ISOENTER1,1*
G04 #@! TO.N,ColF*
X300970004Y-92094995D03*
D13*
G04 #@! TD*
G04 #@! TO.N,ColF*
G04 #@! TO.C,K_ISOENTER1*
X300240000Y-91440000D02*
X301700008Y-92749990D01*
D12*
G04 #@! TO.P,K_ISOENTER1,1*
G04 #@! TO.N,ColF*
X301700000Y-92750000D03*
D14*
G04 #@! TO.P,K_ISOENTER1,2*
G04 #@! TO.N,Net-(D_ISOENTR1-Pad2)*
X301500000Y-100250000D03*
G04 #@! TO.P,K_ISOENTER1,1*
G04 #@! TO.N,ColF*
X303600000Y-95250000D03*
D15*
G04 #@! TO.P,K_ISOENTER1,3*
G04 #@! TO.N,N/C*
X292620000Y-93980000D03*
D16*
G04 #@! TO.P,K_ISOENTER1,4*
X292620000Y-96520000D03*
G04 #@! TD*
D12*
G04 #@! TO.P,K1,1*
G04 #@! TO.N,ColA*
X64432271Y-61884984D03*
D13*
G04 #@! TD*
G04 #@! TO.N,ColA*
G04 #@! TO.C,K1*
X64412500Y-62175000D02*
X64452042Y-61594968D01*
D12*
G04 #@! TO.P,K1,1*
G04 #@! TO.N,ColA*
X64452500Y-61595000D03*
G04 #@! TO.P,K1,2*
G04 #@! TO.N,Net-(D1-Pad2)*
X58757495Y-63404996D03*
D13*
G04 #@! TD*
G04 #@! TO.N,Net-(D1-Pad2)*
G04 #@! TO.C,K1*
X58102500Y-64135000D02*
X59412490Y-62674992D01*
D12*
G04 #@! TO.P,K1,2*
G04 #@! TO.N,Net-(D1-Pad2)*
X59412500Y-62675000D03*
D14*
G04 #@! TO.P,K1,1*
G04 #@! TO.N,ColA*
X66912500Y-62875000D03*
G04 #@! TO.P,K1,2*
G04 #@! TO.N,Net-(D1-Pad2)*
X61912500Y-60775000D03*
G04 #@! TD*
G04 #@! TO.P,K2,2*
G04 #@! TO.N,Net-(D2-Pad2)*
X80962500Y-60775000D03*
G04 #@! TO.P,K2,1*
G04 #@! TO.N,ColB*
X85962500Y-62875000D03*
D12*
G04 #@! TO.P,K2,2*
G04 #@! TO.N,Net-(D2-Pad2)*
X78462500Y-62675000D03*
X77807495Y-63404996D03*
D13*
G04 #@! TD*
G04 #@! TO.N,Net-(D2-Pad2)*
G04 #@! TO.C,K2*
X77152500Y-64135000D02*
X78462490Y-62674992D01*
D12*
G04 #@! TO.P,K2,1*
G04 #@! TO.N,ColB*
X83502500Y-61595000D03*
X83482271Y-61884984D03*
D13*
G04 #@! TD*
G04 #@! TO.N,ColB*
G04 #@! TO.C,K2*
X83462500Y-62175000D02*
X83502042Y-61594968D01*
D12*
G04 #@! TO.P,K3,1*
G04 #@! TO.N,ColC*
X102532271Y-61884984D03*
D13*
G04 #@! TD*
G04 #@! TO.N,ColC*
G04 #@! TO.C,K3*
X102512500Y-62175000D02*
X102552042Y-61594968D01*
D12*
G04 #@! TO.P,K3,1*
G04 #@! TO.N,ColC*
X102552500Y-61595000D03*
G04 #@! TO.P,K3,2*
G04 #@! TO.N,Net-(D3-Pad2)*
X96857495Y-63404996D03*
D13*
G04 #@! TD*
G04 #@! TO.N,Net-(D3-Pad2)*
G04 #@! TO.C,K3*
X96202500Y-64135000D02*
X97512490Y-62674992D01*
D12*
G04 #@! TO.P,K3,2*
G04 #@! TO.N,Net-(D3-Pad2)*
X97512500Y-62675000D03*
D14*
G04 #@! TO.P,K3,1*
G04 #@! TO.N,ColC*
X105012500Y-62875000D03*
G04 #@! TO.P,K3,2*
G04 #@! TO.N,Net-(D3-Pad2)*
X100012500Y-60775000D03*
G04 #@! TD*
G04 #@! TO.P,K4,2*
G04 #@! TO.N,Net-(D4-Pad2)*
X119062500Y-60775000D03*
G04 #@! TO.P,K4,1*
G04 #@! TO.N,ColD*
X124062500Y-62875000D03*
D12*
G04 #@! TO.P,K4,2*
G04 #@! TO.N,Net-(D4-Pad2)*
X116562500Y-62675000D03*
X115907495Y-63404996D03*
D13*
G04 #@! TD*
G04 #@! TO.N,Net-(D4-Pad2)*
G04 #@! TO.C,K4*
X115252500Y-64135000D02*
X116562490Y-62674992D01*
D12*
G04 #@! TO.P,K4,1*
G04 #@! TO.N,ColD*
X121602500Y-61595000D03*
X121582271Y-61884984D03*
D13*
G04 #@! TD*
G04 #@! TO.N,ColD*
G04 #@! TO.C,K4*
X121562500Y-62175000D02*
X121602042Y-61594968D01*
D14*
G04 #@! TO.P,K5,2*
G04 #@! TO.N,Net-(D5-Pad2)*
X138112500Y-60775000D03*
G04 #@! TO.P,K5,1*
G04 #@! TO.N,ColE*
X143112500Y-62875000D03*
D12*
G04 #@! TO.P,K5,2*
G04 #@! TO.N,Net-(D5-Pad2)*
X135612500Y-62675000D03*
X134957495Y-63404996D03*
D13*
G04 #@! TD*
G04 #@! TO.N,Net-(D5-Pad2)*
G04 #@! TO.C,K5*
X134302500Y-64135000D02*
X135612490Y-62674992D01*
D12*
G04 #@! TO.P,K5,1*
G04 #@! TO.N,ColE*
X140652500Y-61595000D03*
X140632271Y-61884984D03*
D13*
G04 #@! TD*
G04 #@! TO.N,ColE*
G04 #@! TO.C,K5*
X140612500Y-62175000D02*
X140652042Y-61594968D01*
D14*
G04 #@! TO.P,K6,2*
G04 #@! TO.N,Net-(D6-Pad2)*
X157162500Y-60775000D03*
G04 #@! TO.P,K6,1*
G04 #@! TO.N,ColF*
X162162500Y-62875000D03*
D12*
G04 #@! TO.P,K6,2*
G04 #@! TO.N,Net-(D6-Pad2)*
X154662500Y-62675000D03*
X154007495Y-63404996D03*
D13*
G04 #@! TD*
G04 #@! TO.N,Net-(D6-Pad2)*
G04 #@! TO.C,K6*
X153352500Y-64135000D02*
X154662490Y-62674992D01*
D12*
G04 #@! TO.P,K6,1*
G04 #@! TO.N,ColF*
X159702500Y-61595000D03*
X159682271Y-61884984D03*
D13*
G04 #@! TD*
G04 #@! TO.N,ColF*
G04 #@! TO.C,K6*
X159662500Y-62175000D02*
X159702042Y-61594968D01*
D14*
G04 #@! TO.P,K7,2*
G04 #@! TO.N,Net-(D7-Pad2)*
X176212500Y-60775000D03*
G04 #@! TO.P,K7,1*
G04 #@! TO.N,ColG*
X181212500Y-62875000D03*
D12*
G04 #@! TO.P,K7,2*
G04 #@! TO.N,Net-(D7-Pad2)*
X173712500Y-62675000D03*
X173057495Y-63404996D03*
D13*
G04 #@! TD*
G04 #@! TO.N,Net-(D7-Pad2)*
G04 #@! TO.C,K7*
X172402500Y-64135000D02*
X173712490Y-62674992D01*
D12*
G04 #@! TO.P,K7,1*
G04 #@! TO.N,ColG*
X178752500Y-61595000D03*
X178732271Y-61884984D03*
D13*
G04 #@! TD*
G04 #@! TO.N,ColG*
G04 #@! TO.C,K7*
X178712500Y-62175000D02*
X178752042Y-61594968D01*
D14*
G04 #@! TO.P,K8,2*
G04 #@! TO.N,Net-(D8-Pad2)*
X195262500Y-60775000D03*
G04 #@! TO.P,K8,1*
G04 #@! TO.N,ColH*
X200262500Y-62875000D03*
D12*
G04 #@! TO.P,K8,2*
G04 #@! TO.N,Net-(D8-Pad2)*
X192762500Y-62675000D03*
X192107495Y-63404996D03*
D13*
G04 #@! TD*
G04 #@! TO.N,Net-(D8-Pad2)*
G04 #@! TO.C,K8*
X191452500Y-64135000D02*
X192762490Y-62674992D01*
D12*
G04 #@! TO.P,K8,1*
G04 #@! TO.N,ColH*
X197802500Y-61595000D03*
X197782271Y-61884984D03*
D13*
G04 #@! TD*
G04 #@! TO.N,ColH*
G04 #@! TO.C,K8*
X197762500Y-62175000D02*
X197802042Y-61594968D01*
D14*
G04 #@! TO.P,K9,2*
G04 #@! TO.N,Net-(D9-Pad2)*
X214312500Y-60775000D03*
G04 #@! TO.P,K9,1*
G04 #@! TO.N,ColI*
X219312500Y-62875000D03*
D12*
G04 #@! TO.P,K9,2*
G04 #@! TO.N,Net-(D9-Pad2)*
X211812500Y-62675000D03*
X211157495Y-63404996D03*
D13*
G04 #@! TD*
G04 #@! TO.N,Net-(D9-Pad2)*
G04 #@! TO.C,K9*
X210502500Y-64135000D02*
X211812490Y-62674992D01*
D12*
G04 #@! TO.P,K9,1*
G04 #@! TO.N,ColI*
X216852500Y-61595000D03*
X216832271Y-61884984D03*
D13*
G04 #@! TD*
G04 #@! TO.N,ColI*
G04 #@! TO.C,K9*
X216812500Y-62175000D02*
X216852042Y-61594968D01*
D12*
G04 #@! TO.P,K10,1*
G04 #@! TO.N,ColJ*
X235882271Y-61884984D03*
D13*
G04 #@! TD*
G04 #@! TO.N,ColJ*
G04 #@! TO.C,K10*
X235862500Y-62175000D02*
X235902042Y-61594968D01*
D12*
G04 #@! TO.P,K10,1*
G04 #@! TO.N,ColJ*
X235902500Y-61595000D03*
G04 #@! TO.P,K10,2*
G04 #@! TO.N,Net-(D10-Pad2)*
X230207495Y-63404996D03*
D13*
G04 #@! TD*
G04 #@! TO.N,Net-(D10-Pad2)*
G04 #@! TO.C,K10*
X229552500Y-64135000D02*
X230862490Y-62674992D01*
D12*
G04 #@! TO.P,K10,2*
G04 #@! TO.N,Net-(D10-Pad2)*
X230862500Y-62675000D03*
D14*
G04 #@! TO.P,K10,1*
G04 #@! TO.N,ColJ*
X238362500Y-62875000D03*
G04 #@! TO.P,K10,2*
G04 #@! TO.N,Net-(D10-Pad2)*
X233362500Y-60775000D03*
G04 #@! TD*
G04 #@! TO.P,K11,2*
G04 #@! TO.N,Net-(D11-Pad2)*
X252412500Y-60775000D03*
G04 #@! TO.P,K11,1*
G04 #@! TO.N,ColA*
X257412500Y-62875000D03*
D12*
G04 #@! TO.P,K11,2*
G04 #@! TO.N,Net-(D11-Pad2)*
X249912500Y-62675000D03*
X249257495Y-63404996D03*
D13*
G04 #@! TD*
G04 #@! TO.N,Net-(D11-Pad2)*
G04 #@! TO.C,K11*
X248602500Y-64135000D02*
X249912490Y-62674992D01*
D12*
G04 #@! TO.P,K11,1*
G04 #@! TO.N,ColA*
X254952500Y-61595000D03*
X254932271Y-61884984D03*
D13*
G04 #@! TD*
G04 #@! TO.N,ColA*
G04 #@! TO.C,K11*
X254912500Y-62175000D02*
X254952042Y-61594968D01*
D14*
G04 #@! TO.P,K12,2*
G04 #@! TO.N,Net-(D12-Pad2)*
X271462500Y-60775000D03*
G04 #@! TO.P,K12,1*
G04 #@! TO.N,ColB*
X276462500Y-62875000D03*
D12*
G04 #@! TO.P,K12,2*
G04 #@! TO.N,Net-(D12-Pad2)*
X268962500Y-62675000D03*
X268307495Y-63404996D03*
D13*
G04 #@! TD*
G04 #@! TO.N,Net-(D12-Pad2)*
G04 #@! TO.C,K12*
X267652500Y-64135000D02*
X268962490Y-62674992D01*
D12*
G04 #@! TO.P,K12,1*
G04 #@! TO.N,ColB*
X274002500Y-61595000D03*
X273982271Y-61884984D03*
D13*
G04 #@! TD*
G04 #@! TO.N,ColB*
G04 #@! TO.C,K12*
X273962500Y-62175000D02*
X274002042Y-61594968D01*
D14*
G04 #@! TO.P,K14,2*
G04 #@! TO.N,Net-(D14-Pad2)*
X61912500Y-79825000D03*
G04 #@! TO.P,K14,1*
G04 #@! TO.N,ColA*
X66912500Y-81925000D03*
D12*
G04 #@! TO.P,K14,2*
G04 #@! TO.N,Net-(D14-Pad2)*
X59412500Y-81725000D03*
X58757495Y-82454996D03*
D13*
G04 #@! TD*
G04 #@! TO.N,Net-(D14-Pad2)*
G04 #@! TO.C,K14*
X58102500Y-83185000D02*
X59412490Y-81724992D01*
D12*
G04 #@! TO.P,K14,1*
G04 #@! TO.N,ColA*
X64452500Y-80645000D03*
X64432271Y-80934984D03*
D13*
G04 #@! TD*
G04 #@! TO.N,ColA*
G04 #@! TO.C,K14*
X64412500Y-81225000D02*
X64452042Y-80644968D01*
D14*
G04 #@! TO.P,K15,2*
G04 #@! TO.N,Net-(D15-Pad2)*
X80962500Y-79825000D03*
G04 #@! TO.P,K15,1*
G04 #@! TO.N,ColB*
X85962500Y-81925000D03*
D12*
G04 #@! TO.P,K15,2*
G04 #@! TO.N,Net-(D15-Pad2)*
X78462500Y-81725000D03*
X77807495Y-82454996D03*
D13*
G04 #@! TD*
G04 #@! TO.N,Net-(D15-Pad2)*
G04 #@! TO.C,K15*
X77152500Y-83185000D02*
X78462490Y-81724992D01*
D12*
G04 #@! TO.P,K15,1*
G04 #@! TO.N,ColB*
X83502500Y-80645000D03*
X83482271Y-80934984D03*
D13*
G04 #@! TD*
G04 #@! TO.N,ColB*
G04 #@! TO.C,K15*
X83462500Y-81225000D02*
X83502042Y-80644968D01*
D14*
G04 #@! TO.P,K16,2*
G04 #@! TO.N,Net-(D16-Pad2)*
X100012500Y-79825000D03*
G04 #@! TO.P,K16,1*
G04 #@! TO.N,ColC*
X105012500Y-81925000D03*
D12*
G04 #@! TO.P,K16,2*
G04 #@! TO.N,Net-(D16-Pad2)*
X97512500Y-81725000D03*
X96857495Y-82454996D03*
D13*
G04 #@! TD*
G04 #@! TO.N,Net-(D16-Pad2)*
G04 #@! TO.C,K16*
X96202500Y-83185000D02*
X97512490Y-81724992D01*
D12*
G04 #@! TO.P,K16,1*
G04 #@! TO.N,ColC*
X102552500Y-80645000D03*
X102532271Y-80934984D03*
D13*
G04 #@! TD*
G04 #@! TO.N,ColC*
G04 #@! TO.C,K16*
X102512500Y-81225000D02*
X102552042Y-80644968D01*
D14*
G04 #@! TO.P,K17,2*
G04 #@! TO.N,Net-(D17-Pad2)*
X119062500Y-79825000D03*
G04 #@! TO.P,K17,1*
G04 #@! TO.N,ColD*
X124062500Y-81925000D03*
D12*
G04 #@! TO.P,K17,2*
G04 #@! TO.N,Net-(D17-Pad2)*
X116562500Y-81725000D03*
X115907495Y-82454996D03*
D13*
G04 #@! TD*
G04 #@! TO.N,Net-(D17-Pad2)*
G04 #@! TO.C,K17*
X115252500Y-83185000D02*
X116562490Y-81724992D01*
D12*
G04 #@! TO.P,K17,1*
G04 #@! TO.N,ColD*
X121602500Y-80645000D03*
X121582271Y-80934984D03*
D13*
G04 #@! TD*
G04 #@! TO.N,ColD*
G04 #@! TO.C,K17*
X121562500Y-81225000D02*
X121602042Y-80644968D01*
D14*
G04 #@! TO.P,K18,2*
G04 #@! TO.N,Net-(D18-Pad2)*
X138112500Y-79825000D03*
G04 #@! TO.P,K18,1*
G04 #@! TO.N,ColE*
X143112500Y-81925000D03*
D12*
G04 #@! TO.P,K18,2*
G04 #@! TO.N,Net-(D18-Pad2)*
X135612500Y-81725000D03*
X134957495Y-82454996D03*
D13*
G04 #@! TD*
G04 #@! TO.N,Net-(D18-Pad2)*
G04 #@! TO.C,K18*
X134302500Y-83185000D02*
X135612490Y-81724992D01*
D12*
G04 #@! TO.P,K18,1*
G04 #@! TO.N,ColE*
X140652500Y-80645000D03*
X140632271Y-80934984D03*
D13*
G04 #@! TD*
G04 #@! TO.N,ColE*
G04 #@! TO.C,K18*
X140612500Y-81225000D02*
X140652042Y-80644968D01*
D14*
G04 #@! TO.P,K19,2*
G04 #@! TO.N,Net-(D19-Pad2)*
X157162500Y-79825000D03*
G04 #@! TO.P,K19,1*
G04 #@! TO.N,ColF*
X162162500Y-81925000D03*
D12*
G04 #@! TO.P,K19,2*
G04 #@! TO.N,Net-(D19-Pad2)*
X154662500Y-81725000D03*
X154007495Y-82454996D03*
D13*
G04 #@! TD*
G04 #@! TO.N,Net-(D19-Pad2)*
G04 #@! TO.C,K19*
X153352500Y-83185000D02*
X154662490Y-81724992D01*
D12*
G04 #@! TO.P,K19,1*
G04 #@! TO.N,ColF*
X159702500Y-80645000D03*
X159682271Y-80934984D03*
D13*
G04 #@! TD*
G04 #@! TO.N,ColF*
G04 #@! TO.C,K19*
X159662500Y-81225000D02*
X159702042Y-80644968D01*
D14*
G04 #@! TO.P,K20,2*
G04 #@! TO.N,Net-(D20-Pad2)*
X176212500Y-79825000D03*
G04 #@! TO.P,K20,1*
G04 #@! TO.N,ColG*
X181212500Y-81925000D03*
D12*
G04 #@! TO.P,K20,2*
G04 #@! TO.N,Net-(D20-Pad2)*
X173712500Y-81725000D03*
X173057495Y-82454996D03*
D13*
G04 #@! TD*
G04 #@! TO.N,Net-(D20-Pad2)*
G04 #@! TO.C,K20*
X172402500Y-83185000D02*
X173712490Y-81724992D01*
D12*
G04 #@! TO.P,K20,1*
G04 #@! TO.N,ColG*
X178752500Y-80645000D03*
X178732271Y-80934984D03*
D13*
G04 #@! TD*
G04 #@! TO.N,ColG*
G04 #@! TO.C,K20*
X178712500Y-81225000D02*
X178752042Y-80644968D01*
D14*
G04 #@! TO.P,K21,2*
G04 #@! TO.N,Net-(D21-Pad2)*
X195262500Y-79825000D03*
G04 #@! TO.P,K21,1*
G04 #@! TO.N,ColH*
X200262500Y-81925000D03*
D12*
G04 #@! TO.P,K21,2*
G04 #@! TO.N,Net-(D21-Pad2)*
X192762500Y-81725000D03*
X192107495Y-82454996D03*
D13*
G04 #@! TD*
G04 #@! TO.N,Net-(D21-Pad2)*
G04 #@! TO.C,K21*
X191452500Y-83185000D02*
X192762490Y-81724992D01*
D12*
G04 #@! TO.P,K21,1*
G04 #@! TO.N,ColH*
X197802500Y-80645000D03*
X197782271Y-80934984D03*
D13*
G04 #@! TD*
G04 #@! TO.N,ColH*
G04 #@! TO.C,K21*
X197762500Y-81225000D02*
X197802042Y-80644968D01*
D12*
G04 #@! TO.P,K22,1*
G04 #@! TO.N,ColI*
X216832271Y-80934984D03*
D13*
G04 #@! TD*
G04 #@! TO.N,ColI*
G04 #@! TO.C,K22*
X216812500Y-81225000D02*
X216852042Y-80644968D01*
D12*
G04 #@! TO.P,K22,1*
G04 #@! TO.N,ColI*
X216852500Y-80645000D03*
G04 #@! TO.P,K22,2*
G04 #@! TO.N,Net-(D22-Pad2)*
X211157495Y-82454996D03*
D13*
G04 #@! TD*
G04 #@! TO.N,Net-(D22-Pad2)*
G04 #@! TO.C,K22*
X210502500Y-83185000D02*
X211812490Y-81724992D01*
D12*
G04 #@! TO.P,K22,2*
G04 #@! TO.N,Net-(D22-Pad2)*
X211812500Y-81725000D03*
D14*
G04 #@! TO.P,K22,1*
G04 #@! TO.N,ColI*
X219312500Y-81925000D03*
G04 #@! TO.P,K22,2*
G04 #@! TO.N,Net-(D22-Pad2)*
X214312500Y-79825000D03*
G04 #@! TD*
D12*
G04 #@! TO.P,K23,1*
G04 #@! TO.N,ColJ*
X235882271Y-80934984D03*
D13*
G04 #@! TD*
G04 #@! TO.N,ColJ*
G04 #@! TO.C,K23*
X235862500Y-81225000D02*
X235902042Y-80644968D01*
D12*
G04 #@! TO.P,K23,1*
G04 #@! TO.N,ColJ*
X235902500Y-80645000D03*
G04 #@! TO.P,K23,2*
G04 #@! TO.N,Net-(D23-Pad2)*
X230207495Y-82454996D03*
D13*
G04 #@! TD*
G04 #@! TO.N,Net-(D23-Pad2)*
G04 #@! TO.C,K23*
X229552500Y-83185000D02*
X230862490Y-81724992D01*
D12*
G04 #@! TO.P,K23,2*
G04 #@! TO.N,Net-(D23-Pad2)*
X230862500Y-81725000D03*
D14*
G04 #@! TO.P,K23,1*
G04 #@! TO.N,ColJ*
X238362500Y-81925000D03*
G04 #@! TO.P,K23,2*
G04 #@! TO.N,Net-(D23-Pad2)*
X233362500Y-79825000D03*
G04 #@! TD*
D12*
G04 #@! TO.P,K24,1*
G04 #@! TO.N,ColD*
X254932271Y-80934984D03*
D13*
G04 #@! TD*
G04 #@! TO.N,ColD*
G04 #@! TO.C,K24*
X254912500Y-81225000D02*
X254952042Y-80644968D01*
D12*
G04 #@! TO.P,K24,1*
G04 #@! TO.N,ColD*
X254952500Y-80645000D03*
G04 #@! TO.P,K24,2*
G04 #@! TO.N,Net-(D24-Pad2)*
X249257495Y-82454996D03*
D13*
G04 #@! TD*
G04 #@! TO.N,Net-(D24-Pad2)*
G04 #@! TO.C,K24*
X248602500Y-83185000D02*
X249912490Y-81724992D01*
D12*
G04 #@! TO.P,K24,2*
G04 #@! TO.N,Net-(D24-Pad2)*
X249912500Y-81725000D03*
D14*
G04 #@! TO.P,K24,1*
G04 #@! TO.N,ColD*
X257412500Y-81925000D03*
G04 #@! TO.P,K24,2*
G04 #@! TO.N,Net-(D24-Pad2)*
X252412500Y-79825000D03*
G04 #@! TD*
D12*
G04 #@! TO.P,K25,1*
G04 #@! TO.N,ColE*
X273982271Y-80934984D03*
D13*
G04 #@! TD*
G04 #@! TO.N,ColE*
G04 #@! TO.C,K25*
X273962500Y-81225000D02*
X274002042Y-80644968D01*
D12*
G04 #@! TO.P,K25,1*
G04 #@! TO.N,ColE*
X274002500Y-80645000D03*
G04 #@! TO.P,K25,2*
G04 #@! TO.N,Net-(D25-Pad2)*
X268307495Y-82454996D03*
D13*
G04 #@! TD*
G04 #@! TO.N,Net-(D25-Pad2)*
G04 #@! TO.C,K25*
X267652500Y-83185000D02*
X268962490Y-81724992D01*
D12*
G04 #@! TO.P,K25,2*
G04 #@! TO.N,Net-(D25-Pad2)*
X268962500Y-81725000D03*
D14*
G04 #@! TO.P,K25,1*
G04 #@! TO.N,ColE*
X276462500Y-81925000D03*
G04 #@! TO.P,K25,2*
G04 #@! TO.N,Net-(D25-Pad2)*
X271462500Y-79825000D03*
G04 #@! TD*
D12*
G04 #@! TO.P,K27,1*
G04 #@! TO.N,ColA*
X64432271Y-99984984D03*
D13*
G04 #@! TD*
G04 #@! TO.N,ColA*
G04 #@! TO.C,K27*
X64412500Y-100275000D02*
X64452042Y-99694968D01*
D12*
G04 #@! TO.P,K27,1*
G04 #@! TO.N,ColA*
X64452500Y-99695000D03*
G04 #@! TO.P,K27,2*
G04 #@! TO.N,Net-(D27-Pad2)*
X58757495Y-101504996D03*
D13*
G04 #@! TD*
G04 #@! TO.N,Net-(D27-Pad2)*
G04 #@! TO.C,K27*
X58102500Y-102235000D02*
X59412490Y-100774992D01*
D12*
G04 #@! TO.P,K27,2*
G04 #@! TO.N,Net-(D27-Pad2)*
X59412500Y-100775000D03*
D14*
G04 #@! TO.P,K27,1*
G04 #@! TO.N,ColA*
X66912500Y-100975000D03*
G04 #@! TO.P,K27,2*
G04 #@! TO.N,Net-(D27-Pad2)*
X61912500Y-98875000D03*
G04 #@! TD*
D12*
G04 #@! TO.P,K28,1*
G04 #@! TO.N,ColB*
X83482271Y-99984984D03*
D13*
G04 #@! TD*
G04 #@! TO.N,ColB*
G04 #@! TO.C,K28*
X83462500Y-100275000D02*
X83502042Y-99694968D01*
D12*
G04 #@! TO.P,K28,1*
G04 #@! TO.N,ColB*
X83502500Y-99695000D03*
G04 #@! TO.P,K28,2*
G04 #@! TO.N,Net-(D28-Pad2)*
X77807495Y-101504996D03*
D13*
G04 #@! TD*
G04 #@! TO.N,Net-(D28-Pad2)*
G04 #@! TO.C,K28*
X77152500Y-102235000D02*
X78462490Y-100774992D01*
D12*
G04 #@! TO.P,K28,2*
G04 #@! TO.N,Net-(D28-Pad2)*
X78462500Y-100775000D03*
D14*
G04 #@! TO.P,K28,1*
G04 #@! TO.N,ColB*
X85962500Y-100975000D03*
G04 #@! TO.P,K28,2*
G04 #@! TO.N,Net-(D28-Pad2)*
X80962500Y-98875000D03*
G04 #@! TD*
D12*
G04 #@! TO.P,K29,1*
G04 #@! TO.N,ColC*
X102532271Y-99984984D03*
D13*
G04 #@! TD*
G04 #@! TO.N,ColC*
G04 #@! TO.C,K29*
X102512500Y-100275000D02*
X102552042Y-99694968D01*
D12*
G04 #@! TO.P,K29,1*
G04 #@! TO.N,ColC*
X102552500Y-99695000D03*
G04 #@! TO.P,K29,2*
G04 #@! TO.N,Net-(D29-Pad2)*
X96857495Y-101504996D03*
D13*
G04 #@! TD*
G04 #@! TO.N,Net-(D29-Pad2)*
G04 #@! TO.C,K29*
X96202500Y-102235000D02*
X97512490Y-100774992D01*
D12*
G04 #@! TO.P,K29,2*
G04 #@! TO.N,Net-(D29-Pad2)*
X97512500Y-100775000D03*
D14*
G04 #@! TO.P,K29,1*
G04 #@! TO.N,ColC*
X105012500Y-100975000D03*
G04 #@! TO.P,K29,2*
G04 #@! TO.N,Net-(D29-Pad2)*
X100012500Y-98875000D03*
G04 #@! TD*
D12*
G04 #@! TO.P,K30,1*
G04 #@! TO.N,ColD*
X121582271Y-99984984D03*
D13*
G04 #@! TD*
G04 #@! TO.N,ColD*
G04 #@! TO.C,K30*
X121562500Y-100275000D02*
X121602042Y-99694968D01*
D12*
G04 #@! TO.P,K30,1*
G04 #@! TO.N,ColD*
X121602500Y-99695000D03*
G04 #@! TO.P,K30,2*
G04 #@! TO.N,Net-(D30-Pad2)*
X115907495Y-101504996D03*
D13*
G04 #@! TD*
G04 #@! TO.N,Net-(D30-Pad2)*
G04 #@! TO.C,K30*
X115252500Y-102235000D02*
X116562490Y-100774992D01*
D12*
G04 #@! TO.P,K30,2*
G04 #@! TO.N,Net-(D30-Pad2)*
X116562500Y-100775000D03*
D14*
G04 #@! TO.P,K30,1*
G04 #@! TO.N,ColD*
X124062500Y-100975000D03*
G04 #@! TO.P,K30,2*
G04 #@! TO.N,Net-(D30-Pad2)*
X119062500Y-98875000D03*
G04 #@! TD*
D12*
G04 #@! TO.P,K31,1*
G04 #@! TO.N,ColE*
X140632271Y-99984984D03*
D13*
G04 #@! TD*
G04 #@! TO.N,ColE*
G04 #@! TO.C,K31*
X140612500Y-100275000D02*
X140652042Y-99694968D01*
D12*
G04 #@! TO.P,K31,1*
G04 #@! TO.N,ColE*
X140652500Y-99695000D03*
G04 #@! TO.P,K31,2*
G04 #@! TO.N,Net-(D31-Pad2)*
X134957495Y-101504996D03*
D13*
G04 #@! TD*
G04 #@! TO.N,Net-(D31-Pad2)*
G04 #@! TO.C,K31*
X134302500Y-102235000D02*
X135612490Y-100774992D01*
D12*
G04 #@! TO.P,K31,2*
G04 #@! TO.N,Net-(D31-Pad2)*
X135612500Y-100775000D03*
D14*
G04 #@! TO.P,K31,1*
G04 #@! TO.N,ColE*
X143112500Y-100975000D03*
G04 #@! TO.P,K31,2*
G04 #@! TO.N,Net-(D31-Pad2)*
X138112500Y-98875000D03*
G04 #@! TD*
G04 #@! TO.P,K32,2*
G04 #@! TO.N,Net-(D32-Pad2)*
X157162500Y-98875000D03*
G04 #@! TO.P,K32,1*
G04 #@! TO.N,ColF*
X162162500Y-100975000D03*
D12*
G04 #@! TO.P,K32,2*
G04 #@! TO.N,Net-(D32-Pad2)*
X154662500Y-100775000D03*
X154007495Y-101504996D03*
D13*
G04 #@! TD*
G04 #@! TO.N,Net-(D32-Pad2)*
G04 #@! TO.C,K32*
X153352500Y-102235000D02*
X154662490Y-100774992D01*
D12*
G04 #@! TO.P,K32,1*
G04 #@! TO.N,ColF*
X159702500Y-99695000D03*
X159682271Y-99984984D03*
D13*
G04 #@! TD*
G04 #@! TO.N,ColF*
G04 #@! TO.C,K32*
X159662500Y-100275000D02*
X159702042Y-99694968D01*
D12*
G04 #@! TO.P,K33,1*
G04 #@! TO.N,ColG*
X178732271Y-99984984D03*
D13*
G04 #@! TD*
G04 #@! TO.N,ColG*
G04 #@! TO.C,K33*
X178712500Y-100275000D02*
X178752042Y-99694968D01*
D12*
G04 #@! TO.P,K33,1*
G04 #@! TO.N,ColG*
X178752500Y-99695000D03*
G04 #@! TO.P,K33,2*
G04 #@! TO.N,Net-(D33-Pad2)*
X173057495Y-101504996D03*
D13*
G04 #@! TD*
G04 #@! TO.N,Net-(D33-Pad2)*
G04 #@! TO.C,K33*
X172402500Y-102235000D02*
X173712490Y-100774992D01*
D12*
G04 #@! TO.P,K33,2*
G04 #@! TO.N,Net-(D33-Pad2)*
X173712500Y-100775000D03*
D14*
G04 #@! TO.P,K33,1*
G04 #@! TO.N,ColG*
X181212500Y-100975000D03*
G04 #@! TO.P,K33,2*
G04 #@! TO.N,Net-(D33-Pad2)*
X176212500Y-98875000D03*
G04 #@! TD*
D12*
G04 #@! TO.P,K34,1*
G04 #@! TO.N,ColH*
X197782271Y-99984984D03*
D13*
G04 #@! TD*
G04 #@! TO.N,ColH*
G04 #@! TO.C,K34*
X197762500Y-100275000D02*
X197802042Y-99694968D01*
D12*
G04 #@! TO.P,K34,1*
G04 #@! TO.N,ColH*
X197802500Y-99695000D03*
G04 #@! TO.P,K34,2*
G04 #@! TO.N,Net-(D34-Pad2)*
X192107495Y-101504996D03*
D13*
G04 #@! TD*
G04 #@! TO.N,Net-(D34-Pad2)*
G04 #@! TO.C,K34*
X191452500Y-102235000D02*
X192762490Y-100774992D01*
D12*
G04 #@! TO.P,K34,2*
G04 #@! TO.N,Net-(D34-Pad2)*
X192762500Y-100775000D03*
D14*
G04 #@! TO.P,K34,1*
G04 #@! TO.N,ColH*
X200262500Y-100975000D03*
G04 #@! TO.P,K34,2*
G04 #@! TO.N,Net-(D34-Pad2)*
X195262500Y-98875000D03*
G04 #@! TD*
D12*
G04 #@! TO.P,K35,1*
G04 #@! TO.N,ColI*
X216832271Y-99984984D03*
D13*
G04 #@! TD*
G04 #@! TO.N,ColI*
G04 #@! TO.C,K35*
X216812500Y-100275000D02*
X216852042Y-99694968D01*
D12*
G04 #@! TO.P,K35,1*
G04 #@! TO.N,ColI*
X216852500Y-99695000D03*
G04 #@! TO.P,K35,2*
G04 #@! TO.N,Net-(D35-Pad2)*
X211157495Y-101504996D03*
D13*
G04 #@! TD*
G04 #@! TO.N,Net-(D35-Pad2)*
G04 #@! TO.C,K35*
X210502500Y-102235000D02*
X211812490Y-100774992D01*
D12*
G04 #@! TO.P,K35,2*
G04 #@! TO.N,Net-(D35-Pad2)*
X211812500Y-100775000D03*
D14*
G04 #@! TO.P,K35,1*
G04 #@! TO.N,ColI*
X219312500Y-100975000D03*
G04 #@! TO.P,K35,2*
G04 #@! TO.N,Net-(D35-Pad2)*
X214312500Y-98875000D03*
G04 #@! TD*
D12*
G04 #@! TO.P,K36,1*
G04 #@! TO.N,ColJ*
X235882271Y-99984984D03*
D13*
G04 #@! TD*
G04 #@! TO.N,ColJ*
G04 #@! TO.C,K36*
X235862500Y-100275000D02*
X235902042Y-99694968D01*
D12*
G04 #@! TO.P,K36,1*
G04 #@! TO.N,ColJ*
X235902500Y-99695000D03*
G04 #@! TO.P,K36,2*
G04 #@! TO.N,Net-(D36-Pad2)*
X230207495Y-101504996D03*
D13*
G04 #@! TD*
G04 #@! TO.N,Net-(D36-Pad2)*
G04 #@! TO.C,K36*
X229552500Y-102235000D02*
X230862490Y-100774992D01*
D12*
G04 #@! TO.P,K36,2*
G04 #@! TO.N,Net-(D36-Pad2)*
X230862500Y-100775000D03*
D14*
G04 #@! TO.P,K36,1*
G04 #@! TO.N,ColJ*
X238362500Y-100975000D03*
G04 #@! TO.P,K36,2*
G04 #@! TO.N,Net-(D36-Pad2)*
X233362500Y-98875000D03*
G04 #@! TD*
D12*
G04 #@! TO.P,K37,1*
G04 #@! TO.N,ColG*
X254932271Y-99984984D03*
D13*
G04 #@! TD*
G04 #@! TO.N,ColG*
G04 #@! TO.C,K37*
X254912500Y-100275000D02*
X254952042Y-99694968D01*
D12*
G04 #@! TO.P,K37,1*
G04 #@! TO.N,ColG*
X254952500Y-99695000D03*
G04 #@! TO.P,K37,2*
G04 #@! TO.N,Net-(D37-Pad2)*
X249257495Y-101504996D03*
D13*
G04 #@! TD*
G04 #@! TO.N,Net-(D37-Pad2)*
G04 #@! TO.C,K37*
X248602500Y-102235000D02*
X249912490Y-100774992D01*
D12*
G04 #@! TO.P,K37,2*
G04 #@! TO.N,Net-(D37-Pad2)*
X249912500Y-100775000D03*
D14*
G04 #@! TO.P,K37,1*
G04 #@! TO.N,ColG*
X257412500Y-100975000D03*
G04 #@! TO.P,K37,2*
G04 #@! TO.N,Net-(D37-Pad2)*
X252412500Y-98875000D03*
G04 #@! TD*
D12*
G04 #@! TO.P,K_1.25u1,1*
G04 #@! TO.N,ColH*
X276419771Y-100009984D03*
D13*
G04 #@! TD*
G04 #@! TO.N,ColH*
G04 #@! TO.C,K_1.25u1*
X276400000Y-100300000D02*
X276439542Y-99719968D01*
D12*
G04 #@! TO.P,K_1.25u1,1*
G04 #@! TO.N,ColH*
X276440000Y-99720000D03*
G04 #@! TO.P,K_1.25u1,2*
G04 #@! TO.N,Net-(D_1.25u1-Pad2)*
X270744995Y-101529996D03*
D13*
G04 #@! TD*
G04 #@! TO.N,Net-(D_1.25u1-Pad2)*
G04 #@! TO.C,K_1.25u1*
X270090000Y-102260000D02*
X271399990Y-100799992D01*
D12*
G04 #@! TO.P,K_1.25u1,2*
G04 #@! TO.N,Net-(D_1.25u1-Pad2)*
X271400000Y-100800000D03*
D14*
G04 #@! TO.P,K_1.25u1,1*
G04 #@! TO.N,ColH*
X278900000Y-101000000D03*
G04 #@! TO.P,K_1.25u1,2*
G04 #@! TO.N,Net-(D_1.25u1-Pad2)*
X273900000Y-98900000D03*
G04 #@! TD*
D12*
G04 #@! TO.P,K_BCKSPC1,1*
G04 #@! TO.N,ColC*
X297794771Y-61884984D03*
D13*
G04 #@! TD*
G04 #@! TO.N,ColC*
G04 #@! TO.C,K_BCKSPC1*
X297775000Y-62175000D02*
X297814542Y-61594968D01*
D12*
G04 #@! TO.P,K_BCKSPC1,1*
G04 #@! TO.N,ColC*
X297815000Y-61595000D03*
G04 #@! TO.P,K_BCKSPC1,2*
G04 #@! TO.N,Net-(D13-Pad2)*
X292119995Y-63404996D03*
D13*
G04 #@! TD*
G04 #@! TO.N,Net-(D13-Pad2)*
G04 #@! TO.C,K_BCKSPC1*
X291465000Y-64135000D02*
X292774990Y-62674992D01*
D12*
G04 #@! TO.P,K_BCKSPC1,2*
G04 #@! TO.N,Net-(D13-Pad2)*
X292775000Y-62675000D03*
D14*
G04 #@! TO.P,K_BCKSPC1,1*
G04 #@! TO.N,ColC*
X300275000Y-62875000D03*
G04 #@! TO.P,K_BCKSPC1,2*
G04 #@! TO.N,Net-(D13-Pad2)*
X295275000Y-60775000D03*
G04 #@! TD*
D11*
G04 #@! TO.P,D_ISOENTR1,1*
G04 #@! TO.N,RowD*
X283800000Y-85300000D03*
D10*
G04 #@! TO.P,D_ISOENTR1,2*
G04 #@! TO.N,Net-(D_ISOENTR1-Pad2)*
X283800000Y-93100000D03*
G04 #@! TD*
D20*
G04 #@! TO.P,LED_DATA1,1*
G04 #@! TO.N,RGB*
X53700000Y-96800000D03*
G04 #@! TD*
G04 #@! TO.P,LED_GND1,1*
G04 #@! TO.N,GND*
X53700000Y-99500000D03*
G04 #@! TD*
G04 #@! TO.P,LED_PWR1,1*
G04 #@! TO.N,RGB_PWR*
X53600000Y-93400000D03*
G04 #@! TD*
M02*
